<svg width="16" height="16" viewBox="0 0 16 16" fill="none" xmlns="http://www.w3.org/2000/svg">
<path fill-rule="evenodd" clip-rule="evenodd" d="M5.33331 1.3335C5.7015 1.3335 5.99998 1.63197 5.99998 2.00016H9.99998C9.99998 1.63197 10.2985 1.3335 10.6666 1.3335C11.0348 1.3335 11.3333 1.63197 11.3333 2.00016C13.1743 2.00016 14.6666 3.49255 14.6666 5.3335V11.3335C14.6666 13.1744 13.1743 14.6668 11.3333 14.6668H4.66665C2.8257 14.6668 1.33331 13.1744 1.33331 11.3335V5.3335C1.33331 3.49255 2.8257 2.00016 4.66665 2.00016C4.66665 1.63197 4.96512 1.3335 5.33331 1.3335ZM3.99998 6.66683C3.99998 6.29864 4.29846 6.00016 4.66665 6.00016H11.3333C11.7015 6.00016 12 6.29864 12 6.66683C12 7.03502 11.7015 7.3335 11.3333 7.3335H4.66665C4.29846 7.3335 3.99998 7.03502 3.99998 6.66683ZM9.99998 11.3335C9.99998 10.9653 10.2985 10.6668 10.6666 10.6668H11.3333C11.7015 10.6668 12 10.9653 12 11.3335C12 11.7017 11.7015 12.0002 11.3333 12.0002H10.6666C10.2985 12.0002 9.99998 11.7017 9.99998 11.3335Z" fill="#5D6B8A"/>
</svg>
