<svg width="20" height="20" viewBox="0 0 20 20" fill="none" xmlns="http://www.w3.org/2000/svg">
<path fill-rule="evenodd" clip-rule="evenodd" d="M6.66663 1.6665C7.12686 1.6665 7.49996 2.0396 7.49996 2.49984H12.5C12.5 2.0396 12.8731 1.6665 13.3333 1.6665C13.7935 1.6665 14.1666 2.0396 14.1666 2.49984C16.4678 2.49984 18.3333 4.36532 18.3333 6.6665V14.1665C18.3333 16.4677 16.4678 18.3332 14.1666 18.3332H5.83329C3.53211 18.3332 1.66663 16.4677 1.66663 14.1665V6.6665C1.66663 4.36532 3.53211 2.49984 5.83329 2.49984C5.83329 2.0396 6.20639 1.6665 6.66663 1.6665ZM4.99996 8.33317C4.99996 7.87293 5.37306 7.49984 5.83329 7.49984H14.1666C14.6269 7.49984 15 7.87293 15 8.33317C15 8.79341 14.6269 9.1665 14.1666 9.1665H5.83329C5.37306 9.1665 4.99996 8.79341 4.99996 8.33317ZM12.5 14.1665C12.5 13.7063 12.8731 13.3332 13.3333 13.3332H14.1666C14.6269 13.3332 15 13.7063 15 14.1665C15 14.6267 14.6269 14.9998 14.1666 14.9998H13.3333C12.8731 14.9998 12.5 14.6267 12.5 14.1665Z" fill="white"/>
</svg>
