<svg width="20" height="20" viewBox="0 0 20 20" fill="none" xmlns="http://www.w3.org/2000/svg">
<path fill-rule="evenodd" clip-rule="evenodd" d="M10.8333 7.5C8.99238 7.5 7.5 8.99238 7.5 10.8333V15C7.5 16.8409 8.99238 18.3333 10.8333 18.3333H15C16.8409 18.3333 18.3333 16.8409 18.3333 15V10.8333C18.3333 8.99238 16.8409 7.5 15 7.5H10.8333Z" fill="#235FAD"/>
<path fill-rule="evenodd" clip-rule="evenodd" d="M5 1.66675C3.15905 1.66675 1.66667 3.15913 1.66667 5.00008V9.16675C1.66667 11.1408 3.13442 12.5001 5 12.5001C5.46024 12.5001 5.83333 12.127 5.83333 11.6667V10.8334C5.83333 8.07199 8.07191 5.83341 10.8333 5.83341H11.6667C12.1269 5.83341 12.5 5.46032 12.5 5.00008C12.5 3.1345 11.1407 1.66675 9.16667 1.66675H5Z" fill="#235FAD"/>
</svg>
