<svg width="18" height="18" viewBox="0 0 18 18" fill="none" xmlns="http://www.w3.org/2000/svg">
<path fill-rule="evenodd" clip-rule="evenodd" d="M8.99996 0.666504C4.39759 0.666504 0.666626 4.39746 0.666626 8.99984C0.666626 13.6022 4.39759 17.3332 8.99996 17.3332C13.6023 17.3332 17.3333 13.6022 17.3333 8.99984C17.3333 4.39746 13.6023 0.666504 8.99996 0.666504ZM8.99996 4.83317C9.4602 4.83317 9.83329 5.20627 9.83329 5.6665V10.3213L11.744 8.41058C12.0695 8.08514 12.5971 8.08514 12.9225 8.41058C13.248 8.73602 13.248 9.26366 12.9225 9.58909L9.58922 12.9224C9.43293 13.0787 9.22097 13.1665 8.99996 13.1665C8.77895 13.1665 8.56698 13.0787 8.4107 12.9224L5.07737 9.58909C4.75193 9.26366 4.75193 8.73602 5.07737 8.41058C5.40281 8.08515 5.93044 8.08515 6.25588 8.41058L8.16663 10.3213V5.6665C8.16663 5.20627 8.53972 4.83317 8.99996 4.83317Z" fill="#065EA9"/>
</svg>
