<svg width="20" height="20" viewBox="0 0 20 20" fill="none" xmlns="http://www.w3.org/2000/svg">
<g clip-path="url(#clip0_235_793)">
<path d="M13.3334 10.0001C13.3334 6.43877 10 1.66675 10 1.66675C10 1.66675 6.66669 6.43877 6.66669 10.0001C6.66669 13.5614 10 18.3334 10 18.3334C10 18.3334 13.3334 13.5614 13.3334 10.0001Z" stroke="white" stroke-width="1.5"/>
<path d="M3.33331 5.8335C3.33331 5.8335 7.34135 7.50016 9.99998 7.50016C12.6586 7.50016 16.6666 5.8335 16.6666 5.8335" stroke="white" stroke-width="1.5"/>
<path d="M16.6667 13.3335C16.6667 13.3335 12.4082 12.5002 9.58335 12.5002C6.75855 12.5002 2.50002 13.3335 2.50002 13.3335" stroke="white" stroke-width="1.5"/>
</g>
<rect x="2.41669" y="2.41675" width="15.1667" height="15.1667" rx="7.58333" stroke="white" stroke-width="1.5"/>
<defs>
<clipPath id="clip0_235_793">
<rect x="1.66669" y="1.66675" width="16.6667" height="16.6667" rx="8.33333" fill="white"/>
</clipPath>
</defs>
</svg>
