<svg width="24" height="24" viewBox="0 0 24 24" fill="none" xmlns="http://www.w3.org/2000/svg">
<g clip-path="url(#clip0_261_1631)">
<path d="M16 12C16 7.72642 12 2 12 2C12 2 7.99997 7.72642 7.99997 12C7.99997 16.2736 12 22 12 22C12 22 16 16.2736 16 12Z" stroke="#065EA9" stroke-width="1.5"/>
<path d="M3.99997 7C3.99997 7 8.80961 9 12 9C15.1903 9 20 7 20 7" stroke="#065EA9" stroke-width="1.5"/>
<path d="M20 16C20 16 14.8897 15 11.5 15C8.11021 15 2.99997 16 2.99997 16" stroke="#065EA9" stroke-width="1.5"/>
</g>
<rect x="2.75" y="2.75" width="18.5" height="18.5" rx="9.25" stroke="#065EA9" stroke-width="1.5"/>
<defs>
<clipPath id="clip0_261_1631">
<rect x="2" y="2" width="20" height="20" rx="10" fill="white"/>
</clipPath>
</defs>
</svg>
