<svg width="16" height="16" viewBox="0 0 16 16" fill="none" xmlns="http://www.w3.org/2000/svg">
<path d="M8.00014 3C4.66681 3 1.82014 5.07333 0.666809 8C1.82014 10.9267 4.66681 13 8.00014 13C11.3335 13 14.1801 10.9267 15.3335 8C14.1801 5.07333 11.3335 3 8.00014 3ZM8.00014 11.3333C6.16014 11.3333 4.66681 9.84 4.66681 8C4.66681 6.16 6.16014 4.66667 8.00014 4.66667C9.84014 4.66667 11.3335 6.16 11.3335 8C11.3335 9.84 9.84014 11.3333 8.00014 11.3333ZM8.00014 6C6.89348 6 6.00014 6.89333 6.00014 8C6.00014 9.10667 6.89348 10 8.00014 10C9.10681 10 10.0001 9.10667 10.0001 8C10.0001 6.89333 9.10681 6 8.00014 6Z" fill="#5D6B8A"/>
</svg>
