<svg width="500" height="500" viewBox="0 0 500 500" fill="none" xmlns="http://www.w3.org/2000/svg">
<path d="M500 382.4H0V382.65H500V382.4Z" fill="#EBEBEB"/>
<path d="M449.899 398.49H428.219V398.74H449.899V398.49Z" fill="#EBEBEB"/>
<path d="M344.673 393.31H310.562V393.56H344.673V393.31Z" fill="#EBEBEB"/>
<path d="M441.124 389.21H396.594V389.46H441.124V389.21Z" fill="#EBEBEB"/>
<path d="M173.023 394.25H161.883V394.5H173.023V394.25Z" fill="#EBEBEB"/>
<path d="M152.968 394.25H114.578V394.5H152.968V394.25Z" fill="#EBEBEB"/>
<path d="M94.0125 390.03H66.3125V390.28H94.0125V390.03Z" fill="#EBEBEB"/>
<path d="M237.001 337.8H43.9109C42.3983 337.797 40.9485 337.195 39.8798 336.124C38.8112 335.053 38.2109 333.603 38.2109 332.09V60.66C38.2241 59.156 38.8301 57.718 39.8974 56.6582C40.9646 55.5985 42.4069 55.0026 43.9109 55H237.001C238.515 55 239.968 55.6016 241.039 56.6724C242.109 57.7433 242.711 59.1956 242.711 60.71V332.09C242.711 333.604 242.109 335.057 241.039 336.128C239.968 337.198 238.515 337.8 237.001 337.8ZM43.9109 55.2C42.4646 55.2026 41.0784 55.7791 40.0566 56.8027C39.0348 57.8264 38.4609 59.2136 38.4609 60.66V332.09C38.4609 333.536 39.0348 334.924 40.0566 335.947C41.0784 336.971 42.4646 337.547 43.9109 337.55H237.001C238.448 337.547 239.835 336.971 240.859 335.948C241.882 334.924 242.458 333.537 242.461 332.09V60.66C242.458 59.2127 241.882 57.8255 240.859 56.8021C239.835 55.7787 238.448 55.2026 237.001 55.2H43.9109Z" fill="#EBEBEB"/>
<path d="M453.31 337.8H260.21C258.696 337.797 257.246 337.195 256.175 336.125C255.105 335.054 254.503 333.604 254.5 332.09V60.66C254.516 59.1551 255.124 57.7171 256.193 56.6576C257.262 55.5981 258.705 55.0025 260.21 55H453.31C454.812 55.0052 456.252 55.6022 457.317 56.6617C458.382 57.7212 458.987 59.1578 459 60.66V332.09C459 333.601 458.401 335.05 457.335 336.121C456.268 337.191 454.821 337.795 453.31 337.8ZM260.21 55.2C258.763 55.2026 257.375 55.7787 256.352 56.8021C255.329 57.8255 254.753 59.2127 254.75 60.66V332.09C254.753 333.537 255.329 334.924 256.352 335.948C257.375 336.971 258.763 337.547 260.21 337.55H453.31C454.757 337.547 456.145 336.971 457.168 335.948C458.191 334.924 458.767 333.537 458.77 332.09V60.66C458.767 59.2127 458.191 57.8255 457.168 56.8021C456.145 55.7787 454.757 55.2026 453.31 55.2H260.21Z" fill="#EBEBEB"/>
<path d="M216.067 200.88L216.517 187.74L208.457 185.1C208.11 180.647 207.388 176.231 206.297 171.9L213.137 166.9L208.497 154.56L200.037 155.24C198.031 151.264 195.689 147.467 193.037 143.89L197.417 136.58L188.417 126.97L180.857 130.84C177.457 127.934 173.825 125.312 169.997 123L171.217 114.6L159.217 109.16L153.717 115.6C149.474 114.243 145.126 113.239 140.717 112.6L138.717 104.37L125.537 103.92L122.937 111.99C118.488 112.34 114.076 113.059 109.747 114.14L104.667 107.34L92.3269 111.95L93.0069 120.41C89.0332 122.446 85.2366 124.811 81.6569 127.48L74.2969 123L64.6469 132L68.5169 139.6C65.6102 142.983 63.0006 146.609 60.7169 150.44L52.3269 149.18L46.8469 161.18L53.3269 166.67C51.96 170.91 50.9563 175.259 50.3269 179.67L41.9969 181.76L41.5469 194.9L49.6469 197.54C49.9819 201.99 50.7013 206.404 51.7969 210.73L44.9569 215.73L49.6069 228.08L58.0669 227.4C60.0676 231.379 62.4097 235.176 65.0669 238.75L60.6769 246.06L69.6769 255.67L77.2369 251.8C80.6275 254.705 84.2533 257.324 88.0769 259.63L86.8169 268.02L98.8169 273.47L104.347 267.03C108.59 268.4 112.938 269.42 117.347 270.08L119.347 278.31L132.527 278.76L135.127 270.69C139.578 270.336 143.993 269.617 148.327 268.54L153.327 275.34L165.667 270.73L165.027 262.27C168.993 260.221 172.789 257.857 176.377 255.2L183.647 259.58L193.297 250.58L189.427 242.98C192.334 239.598 194.944 235.971 197.227 232.14L205.617 233.4L211.097 221.4L204.617 215.9C206.007 211.663 207.027 207.313 207.667 202.9L216.067 200.88ZM127.277 243.45C116.965 243.102 106.988 239.703 98.6077 233.683C90.2276 227.664 83.8211 219.294 80.1985 209.633C76.5759 199.972 75.9 189.453 78.2563 179.408C80.6126 169.363 85.8952 160.242 93.4359 153.199C100.977 146.157 110.437 141.509 120.619 139.844C130.802 138.178 141.25 139.57 150.641 143.844C160.033 148.117 167.945 155.08 173.379 163.851C178.813 172.622 181.523 182.808 181.167 193.12C180.692 206.94 174.749 220.005 164.643 229.443C154.537 238.881 141.097 243.92 127.277 243.45Z" fill="#EBEBEB"/>
<path d="M441.001 157.42L444.311 154.33L443.001 151.72C444 150.55 444.9 149.299 445.691 147.98L448.591 148.41L450.461 144.27L448.241 142.38C448.719 140.916 449.07 139.414 449.291 137.89L452.141 137.18L452.281 132.64L449.501 131.74C449.379 130.202 449.131 128.677 448.761 127.18L451.111 125.43L449.511 121.18L446.601 121.41C445.899 120.039 445.086 118.728 444.171 117.49L445.681 114.99L442.571 111.67L439.971 113C438.8 112.003 437.549 111.103 436.231 110.31L436.651 107.41L432.521 105.52L430.621 107.75C429.154 107.293 427.653 106.959 426.131 106.75L425.421 103.91L420.881 103.74L419.971 106.54C418.439 106.657 416.92 106.905 415.431 107.28L413.691 104.93L409.431 106.52L409.671 109.44C408.296 110.135 406.985 110.948 405.751 111.87L403.231 110.36L399.911 113.45L401.201 116C400.194 117.166 399.291 118.418 398.501 119.74L395.611 119.31L393.731 123.45L395.961 125.35C395.499 126.812 395.164 128.311 394.961 129.83L392.101 130.54L391.961 135.08L394.751 135.98C394.865 137.518 395.109 139.043 395.481 140.54L393.121 142.28L394.721 146.53L397.641 146.31C398.343 147.681 399.155 148.992 400.071 150.23L398.561 152.73L401.671 156.05L404.271 154.72C405.44 155.72 406.691 156.62 408.011 157.41L407.581 160.3L411.721 162.19L413.621 159.97C415.089 160.422 416.59 160.756 418.111 160.97L418.821 163.81L423.361 163.98L424.271 161.18C425.803 161.064 427.322 160.816 428.811 160.44L430.551 162.79L434.811 161.2L434.581 158.28C435.952 157.584 437.26 156.771 438.491 155.85L441.001 157.42ZM417.381 138.29C416.508 137.354 415.932 136.181 415.726 134.917C415.519 133.654 415.693 132.358 416.223 131.193C416.754 130.029 417.618 129.047 418.706 128.374C419.795 127.7 421.058 127.365 422.337 127.41C423.617 127.454 424.854 127.878 425.892 128.626C426.931 129.374 427.724 130.413 428.172 131.612C428.62 132.811 428.702 134.116 428.408 135.361C428.114 136.607 427.457 137.738 426.521 138.61C425.899 139.196 425.168 139.653 424.368 139.954C423.569 140.256 422.718 140.396 421.864 140.366C421.01 140.336 420.171 140.137 419.395 139.781C418.618 139.425 417.92 138.918 417.341 138.29H417.381Z" fill="#EBEBEB"/>
<path d="M319.998 292.34L309.658 285.19C308.645 281.467 307.251 277.858 305.498 274.42L308.148 264.02L293.148 247.96L282.588 249.89C279.275 247.905 275.767 246.267 272.118 245L265.698 234.19L243.698 233.44L236.558 243.78C232.839 244.793 229.234 246.183 225.798 247.93L215.398 245.28L199.338 260.28L201.268 270.82C199.285 274.14 197.65 277.655 196.388 281.31L185.578 287.73L184.828 309.73L195.178 316.87C196.175 320.613 197.566 324.24 199.328 327.69L196.648 338L211.648 354.06L222.138 352.14C225.476 354.127 229.007 355.769 232.678 357.04L239.088 367.83L261.088 368.59L268.218 358.25C271.97 357.237 275.609 355.843 279.078 354.09L289.418 356.73L305.488 341.73L303.558 331.19C305.547 327.87 307.183 324.351 308.438 320.69L319.248 314.27L319.998 292.34ZM251.548 325.73C246.664 325.563 241.939 323.952 237.971 321.1C234.003 318.248 230.969 314.283 229.254 309.707C227.539 305.131 227.219 300.149 228.335 295.392C229.451 290.634 231.953 286.314 235.524 282.978C239.095 279.642 243.575 277.44 248.397 276.65C253.22 275.859 258.168 276.517 262.617 278.539C267.066 280.561 270.815 283.857 273.391 288.01C275.967 292.163 277.253 296.986 277.088 301.87C276.859 308.42 274.039 314.612 269.249 319.085C264.459 323.559 258.089 325.949 251.538 325.73H251.548Z" fill="#EBEBEB"/>
<path d="M343.547 230H343.477L326.157 229.41C325.807 229.404 325.463 229.309 325.159 229.134C324.855 228.959 324.6 228.71 324.417 228.41L319.747 220.56C317.23 219.639 314.795 218.509 312.467 217.18L304.997 218.47C304.649 218.534 304.291 218.508 303.955 218.397C303.62 218.285 303.318 218.09 303.077 217.83L291.247 205.17C290.999 204.908 290.823 204.586 290.735 204.236C290.648 203.885 290.652 203.518 290.747 203.17L292.637 195.76C291.466 193.359 290.509 190.859 289.777 188.29L282.247 183.09C281.955 182.89 281.719 182.618 281.56 182.302C281.401 181.986 281.324 181.634 281.337 181.28L281.927 163.96C281.939 163.61 282.036 163.269 282.211 162.966C282.385 162.662 282.631 162.406 282.927 162.22L290.797 157.55C291.705 155.039 292.833 152.613 294.167 150.3L292.787 142.77C292.723 142.42 292.748 142.06 292.86 141.723C292.971 141.385 293.167 141.082 293.427 140.84L306.087 129.02C306.349 128.771 306.671 128.593 307.021 128.504C307.371 128.414 307.738 128.417 308.087 128.51L315.527 130.41C317.923 129.238 320.415 128.278 322.977 127.54L328.177 120.01C328.371 119.711 328.64 119.469 328.959 119.309C329.277 119.149 329.632 119.077 329.987 119.1L347.297 119.7C347.649 119.707 347.994 119.803 348.3 119.978C348.605 120.152 348.862 120.401 349.047 120.7L353.717 128.56C356.217 129.477 358.632 130.608 360.937 131.94L368.497 130.55C368.845 130.485 369.204 130.51 369.54 130.622C369.876 130.734 370.178 130.929 370.417 131.19L382.247 143.85C382.494 144.113 382.669 144.435 382.757 144.785C382.844 145.135 382.841 145.502 382.747 145.85L380.847 153.28C382.019 155.676 382.982 158.169 383.727 160.73L391.247 165.93C391.539 166.13 391.776 166.402 391.935 166.718C392.094 167.034 392.171 167.386 392.157 167.74L391.567 185.05C391.556 185.401 391.458 185.744 391.284 186.049C391.11 186.354 390.864 186.612 390.567 186.8L382.697 191.47C381.784 193.975 380.656 196.398 379.327 198.71L380.707 206.25C380.772 206.598 380.747 206.957 380.635 207.293C380.523 207.628 380.328 207.93 380.067 208.17L367.327 220C367.065 220.248 366.743 220.425 366.393 220.512C366.043 220.6 365.676 220.596 365.327 220.5L357.927 218.61C355.516 219.776 353.011 220.736 350.437 221.48L345.287 229C345.102 229.297 344.846 229.543 344.543 229.718C344.239 229.892 343.897 229.989 343.547 230ZM327.457 225.23L342.457 225.74L347.457 218.55C347.734 218.13 348.159 217.83 348.647 217.71C351.461 216.94 354.192 215.892 356.797 214.58C357.252 214.361 357.768 214.308 358.257 214.43L365.257 216.22L376.257 205.97L374.997 198.74C374.9 198.235 374.993 197.711 375.257 197.27C376.743 194.794 377.966 192.17 378.907 189.44C379.066 188.945 379.401 188.525 379.847 188.26L387.377 183.8L387.887 168.8L380.687 163.8C380.308 163.541 380.024 163.165 379.877 162.73C379.877 162.68 379.877 162.62 379.877 162.56C379.107 159.796 378.062 157.116 376.757 154.56C376.526 154.102 376.469 153.576 376.597 153.08L378.397 146L368.147 135L360.957 136.32C360.455 136.411 359.937 136.319 359.497 136.06C357.016 134.572 354.389 133.342 351.657 132.39C351.501 132.34 351.35 132.273 351.207 132.19C350.919 132.01 350.679 131.763 350.507 131.47L345.997 123.92L330.997 123.4L325.997 130.61C325.699 131.033 325.259 131.334 324.757 131.46C321.972 132.221 319.272 133.263 316.697 134.57C316.244 134.802 315.72 134.859 315.227 134.73L308.147 132.93L297.147 143.18L298.467 150.35C298.546 150.802 298.479 151.268 298.277 151.68L298.177 151.85C296.69 154.336 295.467 156.97 294.527 159.71C294.362 160.18 294.036 160.576 293.607 160.83L286.077 165.3L285.567 180.3L292.777 185.3C293.188 185.581 293.486 185.999 293.617 186.48C294.367 189.288 295.409 192.01 296.727 194.6C296.799 194.747 296.856 194.902 296.897 195.06C296.973 195.389 296.973 195.731 296.897 196.06L295.097 203.06L305.347 214.06L312.487 212.75C312.986 212.659 313.501 212.751 313.937 213.01C316.437 214.495 319.081 215.725 321.827 216.68C322.323 216.827 322.742 217.16 322.997 217.61L327.457 225.23ZM336.727 206.26C336.357 206.26 335.987 206.26 335.617 206.26C327.304 206.114 319.386 202.69 313.585 196.734C307.784 190.778 304.57 182.771 304.644 174.457C304.717 166.143 308.071 158.195 313.976 152.342C319.881 146.489 327.858 143.205 336.172 143.205C344.487 143.205 352.464 146.489 358.369 152.342C364.274 158.195 367.628 166.143 367.701 174.457C367.774 182.771 364.561 190.778 358.76 196.734C352.959 202.69 345.04 206.114 336.727 206.26ZM336.727 147.17C329.463 147.295 322.542 150.285 317.471 155.489C312.401 160.692 309.591 167.688 309.653 174.953C309.716 182.219 312.646 189.165 317.806 194.28C322.965 199.396 329.937 202.266 337.202 202.266C344.468 202.266 351.439 199.396 356.599 194.28C361.759 189.165 364.689 182.219 364.751 174.953C364.814 167.688 362.004 160.692 356.933 155.489C351.863 150.285 344.942 147.295 337.677 147.17H336.727Z" fill="#EBEBEB"/>
<path d="M383.444 105.32L376.264 103.4L374.344 96.22L377.154 93.42L380.114 99.55L386.254 102.52L383.444 105.32Z" fill="#E0E0E0"/>
<path d="M383.878 100.52C384.189 100.209 384.435 99.8407 384.603 99.4349C384.772 99.0291 384.858 98.5942 384.858 98.155C384.858 97.7158 384.772 97.2809 384.603 96.8751C384.435 96.4693 384.189 96.1006 383.878 95.79C383.568 95.4794 383.199 95.2331 382.793 95.065C382.388 94.8969 381.953 94.8104 381.513 94.8104C381.074 94.8104 380.639 94.8969 380.234 95.065C379.828 95.2331 379.459 95.4794 379.148 95.79L382.718 90.43L387.498 92.85L388.548 97.85L383.878 100.52Z" fill="#E0E0E0"/>
<path d="M376.578 94L381.838 88.74L388.998 90.65L390.928 97.82L385.668 103.08L378.498 101.15L376.578 94ZM386.128 98.3C386.596 97.8314 386.915 97.2344 387.044 96.5847C387.173 95.9349 387.106 95.2616 386.853 94.6496C386.599 94.0377 386.17 93.5147 385.619 93.1467C385.068 92.7788 384.421 92.5824 383.758 92.5824C383.096 92.5824 382.448 92.7788 381.897 93.1467C381.347 93.5147 380.917 94.0377 380.663 94.6496C380.41 95.2616 380.343 95.9349 380.472 96.5847C380.601 97.2344 380.92 97.8314 381.388 98.3C382.022 98.9215 382.875 99.2679 383.762 99.2642C384.65 99.2604 385.5 98.9068 386.128 98.28V98.3Z" fill="#F0F0F0"/>
<path d="M90.2209 296.71L94.0709 295.67L95.1009 291.82L93.6009 290.32L92.0109 293.61L88.7109 295.2L90.2209 296.71Z" fill="#E0E0E0"/>
<path d="M89.9975 294.13C89.6966 293.786 89.5376 293.341 89.5527 292.885C89.5679 292.428 89.756 291.994 90.079 291.671C90.4019 291.348 90.8356 291.16 91.2921 291.145C91.7487 291.13 92.1938 291.289 92.5375 291.59L90.6275 288.72L87.9975 290L87.4375 292.7L89.9975 294.13Z" fill="#E0E0E0"/>
<path d="M93.8966 290.62L91.0766 287.8L87.2266 288.8L86.2266 292.65L88.9966 295.5L92.8466 294.5L93.8966 290.62ZM88.7766 292.93C88.5912 292.768 88.4411 292.569 88.3356 292.346C88.2301 292.124 88.1714 291.882 88.1633 291.635C88.1551 291.389 88.1976 291.144 88.2881 290.915C88.3786 290.685 88.5153 290.477 88.6895 290.303C88.8637 290.129 89.0719 289.992 89.3011 289.902C89.5303 289.811 89.7756 289.769 90.0219 289.777C90.2682 289.785 90.5102 289.844 90.7329 289.949C90.9556 290.054 91.1542 290.205 91.3166 290.39C91.6174 290.734 91.7764 291.179 91.7613 291.635C91.7462 292.092 91.5581 292.526 91.2351 292.849C90.9121 293.172 90.4784 293.36 90.0219 293.375C89.5654 293.39 89.1202 293.231 88.7766 292.93Z" fill="#F0F0F0"/>
<path d="M76.3616 85.66L79.5616 88.86C79.9618 89.2533 80.5005 89.4737 81.0616 89.4737C81.6227 89.4737 82.1614 89.2533 82.5616 88.86C82.9526 88.4586 83.1713 87.9203 83.1713 87.36C83.1713 86.7997 82.9526 86.2614 82.5616 85.86L79.3716 82.67C78.9702 82.2791 78.432 82.0603 77.8716 82.0603C77.3113 82.0603 76.7731 82.2791 76.3716 82.67C75.98 83.0684 75.7597 83.6043 75.7578 84.163C75.756 84.7217 75.9727 85.2589 76.3616 85.66Z" fill="#F0F0F0"/>
<path d="M74.1092 77.71C74.9443 77.4778 75.8289 77.4945 76.6546 77.758C77.4802 78.0216 78.211 78.5205 78.7571 79.1936C79.3031 79.8666 79.6408 80.6845 79.7285 81.5467C79.8163 82.409 79.6504 83.2781 79.2511 84.0473C78.8518 84.8166 78.2366 85.4525 77.481 85.877C76.7253 86.3015 75.8622 86.4961 74.9975 86.4369C74.1328 86.3778 73.3043 86.0673 72.6135 85.5438C71.9228 85.0203 71.4 84.3065 71.1092 83.49C70.9247 82.9136 70.8559 82.3063 70.907 81.7032C70.958 81.1001 71.1279 80.513 71.4067 79.9758C71.6855 79.4386 72.0678 78.9619 72.5317 78.573C72.9955 78.1841 73.5316 77.8908 74.1092 77.71Z" fill="#E0E0E0"/>
<path d="M70.6306 82.9546L71.0938 84.244L80.599 80.8293L80.1359 79.54L70.6306 82.9546Z" fill="#F0F0F0"/>
<path d="M249.999 427.56C357.082 427.56 443.889 422.492 443.889 416.24C443.889 409.988 357.082 404.92 249.999 404.92C142.917 404.92 56.1094 409.988 56.1094 416.24C56.1094 422.492 142.917 427.56 249.999 427.56Z" fill="#F5F5F5"/>
<path d="M86.7231 120.65C85.7231 116.24 86.1631 112.54 88.0631 109.52C89.9631 106.5 93.0631 104.52 97.4731 103.52C101.883 102.52 105.693 102.92 108.673 104.78C111.653 106.64 113.673 109.78 114.673 114.08C115.379 116.734 115.437 119.519 114.843 122.2C114.262 124.427 113.033 126.431 111.313 127.96C109.27 129.68 106.818 130.844 104.193 131.34C101.62 132.023 98.9265 132.115 96.3131 131.61C94.0414 131.058 91.9867 129.839 90.4131 128.11C88.5332 126.001 87.2582 123.424 86.7231 120.65ZM95.0631 118.79C95.6831 121.51 96.6331 123.35 97.9131 124.31C98.5739 124.751 99.3169 125.053 100.097 125.199C100.878 125.345 101.68 125.332 102.455 125.16C103.231 124.988 103.963 124.661 104.609 124.199C105.255 123.737 105.8 123.149 106.213 122.47C106.933 121.08 106.943 118.87 106.263 115.86C105.683 113.32 104.746 111.58 103.453 110.64C102.802 110.173 102.054 109.857 101.265 109.717C100.476 109.577 99.6654 109.615 98.8931 109.83C98.1202 109.975 97.3901 110.293 96.7579 110.761C96.1257 111.228 95.6078 111.833 95.2431 112.53C94.5031 114 94.4331 116 95.0631 118.79Z" fill="#263238"/>
<path d="M118.597 117.35C118.242 115.987 118.178 114.565 118.411 113.176C118.643 111.787 119.167 110.463 119.947 109.29C120.821 108.044 121.933 106.983 123.218 106.168C124.503 105.353 125.937 104.8 127.437 104.54C131.35 103.653 134.563 104.117 137.077 105.93C139.192 107.57 140.63 109.93 141.117 112.562C141.604 115.193 141.105 117.912 139.717 120.2C138.157 122.58 135.617 124.167 132.097 124.96C129.385 125.718 126.492 125.484 123.937 124.3C122.571 123.632 121.378 122.657 120.451 121.452C119.525 120.246 118.89 118.842 118.597 117.35ZM126.107 115.62C126.309 117.017 126.991 118.301 128.037 119.25C128.451 119.564 128.929 119.783 129.437 119.894C129.944 120.004 130.47 120.003 130.977 119.889C131.485 119.776 131.961 119.554 132.374 119.238C132.786 118.922 133.125 118.52 133.367 118.06C133.89 116.717 133.94 115.235 133.507 113.86C133.296 112.495 132.622 111.245 131.597 110.32C131.199 109.998 130.732 109.771 130.233 109.658C129.733 109.546 129.214 109.55 128.717 109.67C128.198 109.778 127.71 110.002 127.291 110.326C126.872 110.65 126.532 111.065 126.297 111.54C125.758 112.836 125.691 114.28 126.107 115.62Z" fill="#263238"/>
<path d="M148.583 128.57L142.453 101.57L149.453 99.97L150.113 102.86C150.607 101.707 151.324 100.664 152.223 99.79C153.21 98.9526 154.388 98.372 155.653 98.1C156.822 97.782 158.053 97.7637 159.231 98.0469C160.409 98.33 161.496 98.9054 162.393 99.72C164.37 101.568 165.71 103.994 166.223 106.65C166.963 109.9 166.743 112.56 165.583 114.65C165.031 115.649 164.269 116.517 163.349 117.192C162.428 117.867 161.372 118.334 160.253 118.56C159.175 118.816 158.058 118.86 156.963 118.69C155.913 118.506 154.912 118.108 154.023 117.52L156.143 126.85L148.583 128.57ZM152.193 109.71C152.377 110.959 153.001 112.101 153.953 112.93C154.335 113.222 154.778 113.425 155.249 113.522C155.72 113.618 156.207 113.608 156.673 113.49C157.106 113.403 157.513 113.216 157.86 112.943C158.207 112.671 158.486 112.32 158.673 111.92C159.098 110.668 159.098 109.312 158.673 108.06C158.49 106.805 157.888 105.649 156.963 104.78C156.62 104.495 156.216 104.293 155.783 104.189C155.35 104.085 154.898 104.082 154.463 104.18C154.004 104.279 153.573 104.481 153.202 104.77C152.831 105.059 152.531 105.428 152.323 105.85C151.834 107.083 151.788 108.447 152.193 109.71Z" fill="#263238"/>
<path d="M169.429 110.3L176.709 107.91C177.097 108.614 177.699 109.175 178.429 109.51C179.215 109.737 180.046 109.756 180.841 109.563C181.635 109.37 182.366 108.972 182.959 108.41C183.125 108.234 183.246 108.019 183.31 107.786C183.375 107.552 183.381 107.307 183.329 107.07C183.269 106.799 183.129 106.553 182.928 106.362C182.727 106.171 182.473 106.045 182.199 106C181.069 105.876 179.929 105.876 178.799 106C176.903 106.161 174.996 106.161 173.099 106C171.989 105.839 170.948 105.363 170.099 104.63C169.194 103.846 168.568 102.789 168.318 101.618C168.067 100.447 168.204 99.2259 168.709 98.14C169.292 96.9781 170.199 96.0092 171.319 95.35C172.915 94.4438 174.648 93.8053 176.449 93.46C178.169 92.9932 179.948 92.7776 181.729 92.82C182.848 92.892 183.933 93.2352 184.889 93.82C185.909 94.5076 186.774 95.3999 187.429 96.44L180.429 98.75C180.168 98.229 179.733 97.8153 179.199 97.58C178.47 97.3191 177.679 97.2842 176.929 97.48C176.267 97.5723 175.653 97.8777 175.179 98.35C175.029 98.511 174.92 98.7063 174.863 98.919C174.805 99.1317 174.801 99.3552 174.849 99.57C174.903 99.8065 175.028 100.021 175.207 100.185C175.385 100.349 175.609 100.456 175.849 100.49C176.967 100.62 178.098 100.596 179.209 100.42C181.138 100.141 183.094 100.114 185.029 100.34C186.247 100.512 187.387 101.037 188.309 101.85C189.143 102.606 189.723 103.602 189.969 104.7C190.226 105.878 190.132 107.105 189.699 108.23C189.171 109.562 188.25 110.702 187.059 111.5C185.305 112.647 183.34 113.432 181.279 113.81C177.713 114.623 175.046 114.693 173.279 114.02C171.558 113.333 170.175 111.997 169.429 110.3Z" fill="#263238"/>
<path d="M193.852 85.57H202.062V91.87L200.552 104.54H195.472L193.852 91.89V85.57ZM194.252 106.45H201.912V113.23H194.252V106.45Z" fill="#263238"/>
<path d="M128.677 171.58H128.497C123.997 169.83 121.307 168.13 119.907 166.08C118.811 166.288 117.678 166.133 116.677 165.64C115.505 165.066 114.533 164.154 113.887 163.02C113.548 163.281 113.148 163.451 112.725 163.516C112.302 163.58 111.869 163.537 111.467 163.39C110.235 162.929 109.183 162.084 108.467 160.98C108.019 161.314 107.463 161.467 106.907 161.41C103.907 161.17 99.9073 155.25 99.6173 148.95C99.6144 148.817 99.6625 148.688 99.7518 148.589C99.841 148.491 99.9647 148.43 100.097 148.42C100.163 148.417 100.229 148.428 100.29 148.45C100.352 148.473 100.409 148.508 100.457 148.552C100.505 148.597 100.544 148.65 100.572 148.71C100.599 148.77 100.615 148.834 100.617 148.9C100.897 154.9 104.727 160.23 106.997 160.41C107.162 160.429 107.33 160.414 107.489 160.368C107.649 160.322 107.798 160.244 107.927 160.14C107.145 158.714 106.654 157.147 106.482 155.53C106.311 153.913 106.462 152.278 106.927 150.72C107.787 147.72 108.547 146.54 109.467 146.72C111.187 147.15 110.957 153.72 110.047 158.01C109.909 158.784 109.624 159.524 109.207 160.19C109.797 161.179 110.687 161.953 111.747 162.4C112.03 162.508 112.338 162.532 112.634 162.47C112.93 162.408 113.202 162.262 113.417 162.05C112.637 160.12 112.417 157.48 113.537 154.12C114.937 149.69 115.537 149.57 115.847 149.49C115.964 149.465 116.085 149.473 116.198 149.512C116.31 149.55 116.41 149.619 116.487 149.71C117.417 150.76 116.307 157.64 115.147 161.04C115.011 161.449 114.823 161.839 114.587 162.2C115.124 163.282 115.998 164.159 117.077 164.7C117.785 165.044 118.573 165.193 119.357 165.13C119.267 164.94 119.187 164.75 119.107 164.55C118.317 162.4 118.707 159.93 120.297 156.97C121.347 155.02 122.207 154.1 123.007 154.1C123.22 154.103 123.427 154.167 123.604 154.283C123.781 154.4 123.921 154.566 124.007 154.76C124.877 156.37 124.247 161.68 122.527 164.32C122.125 164.925 121.565 165.409 120.907 165.72C122.247 167.48 124.797 169.03 128.907 170.61C128.969 170.632 129.025 170.667 129.074 170.711C129.122 170.755 129.16 170.809 129.187 170.869C129.215 170.928 129.229 170.993 129.231 171.058C129.233 171.124 129.221 171.189 129.197 171.25C129.158 171.354 129.087 171.443 128.993 171.502C128.899 171.562 128.788 171.589 128.677 171.58ZM122.997 155.11C122.997 155.11 122.427 155.11 121.167 157.46C119.717 160.14 119.347 162.35 120.037 164.21C120.121 164.44 120.221 164.664 120.337 164.88C120.879 164.656 121.339 164.272 121.657 163.78C123.057 161.64 123.727 157.24 123.207 155.52C123.137 155.17 122.997 155.11 122.997 155.11ZM115.817 150.9C115.276 152.039 114.828 153.219 114.477 154.43C113.71 156.529 113.578 158.807 114.097 160.98L114.187 160.72C115.237 157.55 115.797 154.239 115.847 150.9H115.817ZM109.237 147.75C109.067 147.9 108.577 148.53 107.887 150.97C107.071 153.708 107.329 156.655 108.607 159.21C108.812 158.763 108.964 158.293 109.057 157.81C110.127 152.9 109.827 148.46 109.267 147.75H109.237Z" fill="#263238"/>
<path d="M166.698 224C165.099 224.015 163.525 223.605 162.138 222.81C162.024 222.741 161.941 222.631 161.907 222.502C161.873 222.373 161.892 222.236 161.958 222.12C161.991 222.064 162.035 222.014 162.087 221.975C162.139 221.936 162.199 221.908 162.262 221.892C162.325 221.876 162.391 221.873 162.456 221.883C162.52 221.893 162.582 221.916 162.638 221.95C166.208 224.04 170.818 222.58 171.768 221.05C171.836 220.954 171.885 220.845 171.911 220.73C171.937 220.615 171.939 220.496 171.918 220.38C170.092 220.485 168.285 219.97 166.788 218.92C164.238 217.33 164.038 216.85 164.058 216.47C164.063 216.361 164.097 216.255 164.157 216.163C164.216 216.072 164.3 215.998 164.398 215.95C165.398 215.45 169.908 217.52 171.788 218.76C172.013 218.91 172.221 219.084 172.408 219.28C173.147 219.112 173.812 218.713 174.308 218.14C174.587 217.812 174.788 217.426 174.898 217.01H174.698C173.098 217.17 171.498 216.48 169.788 214.9C168.608 213.82 168.158 213.07 168.308 212.48C168.353 212.314 168.445 212.165 168.573 212.05C168.7 211.935 168.858 211.858 169.028 211.83C170.408 211.48 173.828 212.94 175.218 214.47C175.528 214.803 175.748 215.209 175.858 215.65C177.168 215.04 178.548 213.65 180.178 211.38C180.216 211.326 180.264 211.28 180.32 211.245C180.375 211.209 180.438 211.185 180.503 211.174C180.568 211.163 180.634 211.165 180.699 211.18C180.763 211.194 180.824 211.222 180.878 211.26C180.985 211.338 181.057 211.455 181.08 211.586C181.102 211.716 181.073 211.851 180.998 211.96C179.108 214.6 177.528 216.1 175.948 216.71C175.866 217.449 175.563 218.146 175.078 218.71C174.502 219.38 173.745 219.869 172.898 220.12C172.945 220.359 172.945 220.604 172.897 220.843C172.849 221.082 172.754 221.308 172.618 221.51C171.778 222.94 169.358 224 166.698 224ZM165.808 217.06C166.148 217.31 166.628 217.64 167.318 218.06C168.393 218.785 169.629 219.238 170.918 219.38C169.308 218.415 167.594 217.636 165.808 217.06ZM169.298 212.81C169.585 213.351 169.984 213.825 170.468 214.2C171.948 215.57 173.298 216.2 174.598 216.04H174.918C174.847 215.729 174.695 215.443 174.478 215.21C173.078 213.63 169.998 212.65 169.298 212.81Z" fill="#263238"/>
<path d="M179.938 222.63L164.358 225.46L150.208 148.24L120.148 153.7L71.1484 240.7L76.4084 269.41L139.258 258L143.558 281.48L173.618 276L169.318 252.52L184.898 249.69L179.938 222.63ZM101.088 237L127.088 191.43L134.338 230.97L101.088 237Z" fill="#407BFF"/>
<path d="M305.425 143C304.952 138.146 303.877 133.369 302.225 128.78C300.526 124.384 298.165 120.273 295.225 116.59C291.745 112.305 287.422 108.779 282.525 106.23C277.192 103.303 270.118 101.267 261.305 100.12C243.005 97.7333 228.745 100.98 218.525 109.86C208.305 118.74 201.572 135.74 198.325 160.86C197.029 170.248 196.694 179.744 197.325 189.2C197.992 197.867 199.585 204.843 202.105 210.13C205.312 217.259 210.371 223.399 216.755 227.91C223.068 232.343 231.735 235.273 242.755 236.7C262.342 239.253 276.865 235.49 286.325 225.41C295.785 215.33 302.052 198.297 305.125 174.31C306.491 163.924 306.592 153.41 305.425 143Z" fill="#407BFF"/>
<path d="M251.767 226.43C249.357 226.35 246.767 226.13 244.157 225.79C234.997 224.6 227.917 222.28 223.097 218.9C218.29 215.506 214.49 210.876 212.097 205.5L212.047 205.39C210.127 201.39 208.867 195.64 208.317 188.39C207.735 179.681 208.043 170.936 209.237 162.29C212.807 134.57 220.177 123 225.727 118.18C232.207 112.56 240.957 110.02 252.457 110.42C254.817 110.5 257.317 110.71 259.887 111.04C267.267 112.04 273.117 113.64 277.257 115.9C280.835 117.742 284.002 120.29 286.567 123.39C288.812 126.19 290.616 129.316 291.917 132.66C293.246 136.389 294.106 140.269 294.477 144.21C295.544 153.76 295.446 163.404 294.187 172.93C291.417 194.47 286.057 209.61 278.267 217.93C272.487 224.09 263.817 226.93 251.757 226.47L251.767 226.43Z" fill="#263238"/>
<path d="M271.336 143.29L271.466 139.5L269.136 138.74C269.037 137.458 268.829 136.187 268.516 134.94L270.516 133.48L269.176 129.92L266.736 130.12C266.162 128.976 265.493 127.882 264.736 126.85L265.996 124.74L263.396 121.97L261.216 123.09C260.24 122.251 259.197 121.495 258.096 120.83L258.446 118.41L254.986 116.84L253.406 118.7C252.182 118.303 250.928 118.009 249.656 117.82L249.066 115.45L245.266 115.32L244.516 117.64C243.234 117.743 241.964 117.95 240.716 118.26L239.246 116.26L235.686 117.59L235.886 120.03C234.742 120.604 233.648 121.273 232.616 122.03L230.516 120.76L227.736 123.35L228.856 125.54C228.015 126.515 227.262 127.562 226.606 128.67L224.186 128.3L222.606 131.76L224.476 133.34C224.07 134.564 223.776 135.823 223.596 137.1L221.216 137.7L221.086 141.48L223.416 142.24C223.514 143.525 223.721 144.8 224.036 146.05L222.036 147.5L223.376 151.06L225.816 150.86C226.384 152.007 227.053 153.102 227.816 154.13L226.546 156.24L229.146 159.01L231.326 157.9C232.302 158.735 233.345 159.488 234.446 160.15L234.086 162.57L237.546 164.14L239.136 162.29C240.363 162.684 241.621 162.975 242.896 163.16L243.486 165.54L247.276 165.67L248.026 163.34C249.311 163.242 250.586 163.035 251.836 162.72L253.286 164.72L256.846 163.39L256.656 160.96C257.796 160.378 258.889 159.71 259.926 158.96L262.026 160.22L264.806 157.63L263.696 155.44C264.534 154.469 265.283 153.424 265.936 152.32L268.356 152.68L269.936 149.22L268.076 147.64C268.474 146.418 268.765 145.163 268.946 143.89L271.336 143.29ZM245.736 155.56C242.774 155.452 239.911 154.469 237.507 152.734C235.104 151 233.268 148.593 232.231 145.816C231.194 143.04 231.004 140.018 231.683 137.133C232.362 134.248 233.88 131.629 236.047 129.606C238.213 127.584 240.93 126.248 243.855 125.768C246.779 125.288 249.781 125.685 252.48 126.91C255.179 128.134 257.455 130.13 259.02 132.647C260.586 135.164 261.371 138.088 261.276 141.05C261.213 143.025 260.76 144.967 259.944 146.766C259.128 148.565 257.965 150.185 256.521 151.534C255.077 152.882 253.381 153.932 251.53 154.623C249.679 155.314 247.71 155.632 245.736 155.56Z" fill="#407BFF"/>
<path opacity="0.3" d="M287.118 212.87L287.398 210.31L285.858 209.69C285.855 208.819 285.782 207.949 285.638 207.09L287.028 206.2L286.318 203.73H284.658C284.33 202.927 283.931 202.154 283.468 201.42L284.408 200.06L282.808 198.06L281.278 198.7C280.658 198.087 279.989 197.525 279.278 197.02L279.648 195.4L277.398 194.16L276.218 195.35C275.414 195.019 274.585 194.755 273.738 194.56L273.458 192.93L270.908 192.64L270.278 194.18C269.409 194.184 268.542 194.264 267.688 194.42L266.798 193L264.328 193.73V195.39C263.524 195.722 262.751 196.123 262.018 196.59L260.658 195.59L258.658 197.19L259.298 198.72C258.688 199.341 258.13 200.009 257.628 200.72L256.008 200.36L254.778 202.61L255.958 203.78C255.623 204.585 255.358 205.419 255.168 206.27L253.528 206.54L253.258 209.09L254.788 209.73C254.789 210.595 254.866 211.458 255.018 212.31L253.608 213.2L254.328 215.67H255.998C256.332 216.469 256.733 217.239 257.198 217.97L256.198 219.33L257.798 221.33L259.348 220.68C259.963 221.295 260.633 221.854 261.348 222.35L260.998 224L263.248 225.23L264.418 224.06C265.222 224.383 266.052 224.64 266.898 224.83L267.188 226.47L269.738 226.75L270.358 225.22C271.242 225.219 272.125 225.145 272.998 225L273.888 226.41L276.348 225.69V224.03C277.152 223.692 277.928 223.291 278.668 222.83L280.008 223.83L282.008 222.22L281.358 220.69C281.974 220.07 282.539 219.401 283.048 218.69L284.658 219.05L285.898 216.8L284.718 215.64C285.039 214.835 285.297 214.006 285.488 213.16L287.118 212.87ZM274.248 211.87C273.825 212.644 273.181 213.276 272.399 213.684C271.617 214.093 270.732 214.26 269.854 214.165C268.977 214.07 268.148 213.717 267.471 213.151C266.795 212.585 266.301 211.83 266.054 210.983C265.806 210.137 265.815 209.235 266.079 208.394C266.344 207.552 266.852 206.808 267.54 206.255C268.228 205.702 269.064 205.366 269.943 205.288C270.822 205.211 271.704 205.396 272.478 205.82C273.512 206.39 274.279 207.346 274.611 208.48C274.942 209.614 274.812 210.832 274.248 211.87Z" fill="#407BFF"/>
<path d="M301.285 169.65L298.285 167.59C297.99 166.519 297.588 165.481 297.085 164.49L297.845 161.49L293.525 156.86L290.525 157.42C289.573 156.853 288.569 156.381 287.525 156.01L285.675 152.89L279.345 152.68L277.285 155.68C276.213 155.971 275.174 156.373 274.185 156.88L271.185 156.11L266.555 160.44L267.115 163.44C266.54 164.387 266.068 165.393 265.705 166.44L262.595 168.29L262.375 174.62L265.375 176.68C265.666 177.759 266.068 178.804 266.575 179.8L265.815 182.8L270.135 187.43L273.135 186.88C274.087 187.446 275.092 187.918 276.135 188.29L277.975 191.4L284.315 191.62L286.365 188.62C287.446 188.327 288.495 187.925 289.495 187.42L292.495 188.18L297.125 183.86L296.575 180.86C297.143 179.909 297.616 178.904 297.985 177.86L301.095 176.01L301.285 169.65ZM281.555 179.27C280.148 179.222 278.786 178.757 277.643 177.935C276.499 177.113 275.625 175.97 275.131 174.651C274.638 173.332 274.546 171.897 274.868 170.526C275.19 169.155 275.911 167.91 276.941 166.949C277.97 165.988 279.262 165.354 280.652 165.127C282.041 164.9 283.467 165.091 284.749 165.674C286.031 166.257 287.111 167.208 287.852 168.405C288.594 169.602 288.964 170.993 288.915 172.4C288.847 174.286 288.034 176.068 286.655 177.356C285.275 178.644 283.441 179.332 281.555 179.27Z" fill="white"/>
<path d="M322.997 119.12L323.517 117.87C323.871 117.671 324.206 117.44 324.517 117.18H325.677L327.038 115.18L326.598 114.11C326.766 113.754 326.9 113.382 326.997 113L327.997 112.08L327.577 109.73L326.318 109.21C326.12 108.855 325.889 108.521 325.628 108.21V107.05L323.677 105.69L322.598 106.14C322.203 106.001 321.793 105.907 321.378 105.86L320.457 104.86L318.117 105.28L317.587 106.54C317.216 106.732 316.865 106.96 316.538 107.22H315.388L314.027 109.22L314.467 110.29C314.333 110.686 314.239 111.095 314.188 111.51L313.188 112.44L313.607 114.78L314.867 115.3C315.058 115.656 315.286 115.992 315.547 116.3V117.45L317.547 118.81L318.617 118.37C319.018 118.5 319.43 118.59 319.848 118.64L320.767 119.64L322.997 119.12ZM317.997 112.64C317.903 112.118 317.965 111.58 318.177 111.094C318.388 110.607 318.739 110.195 319.185 109.908C319.631 109.621 320.152 109.473 320.682 109.482C321.212 109.492 321.728 109.658 322.163 109.961C322.599 110.263 322.935 110.688 323.129 111.182C323.323 111.675 323.366 112.215 323.253 112.733C323.14 113.251 322.876 113.724 322.494 114.092C322.112 114.46 321.629 114.706 321.107 114.8C320.409 114.923 319.691 114.764 319.108 114.36C318.526 113.955 318.127 113.337 317.997 112.64Z" fill="#407BFF"/>
<path d="M295.606 112.49L294.836 111.84C296.486 109.793 298.525 108.094 300.836 106.84L301.306 107.72C299.108 108.916 297.171 110.538 295.606 112.49Z" fill="#407BFF"/>
<path d="M303.585 106.8L303.195 105.88C306.888 104.275 310.926 103.629 314.935 104L314.835 105C310.993 104.638 307.122 105.257 303.585 106.8Z" fill="#407BFF"/>
<path d="M301.695 113.72L300.875 113.16C303.284 109.907 306.791 107.636 310.745 106.77L310.935 107.77C307.239 108.577 303.959 110.69 301.695 113.72Z" fill="#407BFF"/>
<path d="M235.34 210C235.204 209.996 235.074 209.938 234.98 209.84L232.89 207.68C231.824 207.583 230.77 207.389 229.74 207.1L226.47 208.54C226.398 208.579 226.317 208.6 226.235 208.6C226.153 208.6 226.072 208.579 226 208.54L220.52 204.91C220.449 204.863 220.392 204.799 220.353 204.724C220.315 204.649 220.296 204.565 220.3 204.48V200.92C219.631 200.083 219.042 199.186 218.54 198.24L215.73 197.16C215.651 197.13 215.582 197.08 215.527 197.015C215.473 196.95 215.436 196.873 215.42 196.79L214.12 190.35C214.103 190.268 214.107 190.182 214.131 190.102C214.156 190.022 214.2 189.949 214.26 189.89L216.42 187.8C216.523 186.735 216.717 185.682 217 184.65L215.56 181.38C215.521 181.308 215.5 181.227 215.5 181.145C215.5 181.063 215.521 180.982 215.56 180.91L219.19 175.43C219.235 175.358 219.299 175.299 219.375 175.261C219.45 175.222 219.535 175.204 219.62 175.21L223.18 175.26C224.014 174.588 224.912 173.998 225.86 173.5L226.95 170.69C226.979 170.612 227.027 170.543 227.09 170.488C227.153 170.434 227.229 170.397 227.31 170.38L233.75 169.08C233.832 169.062 233.918 169.065 233.998 169.09C234.079 169.114 234.152 169.159 234.21 169.22L236.3 171.38C237.369 171.477 238.426 171.672 239.46 171.96L242.72 170.52C242.794 170.481 242.876 170.46 242.96 170.46C243.044 170.46 243.126 170.481 243.2 170.52L248.67 174.15C248.739 174.199 248.796 174.263 248.836 174.338C248.876 174.412 248.898 174.495 248.9 174.58L248.84 178.14C249.512 178.976 250.105 179.874 250.61 180.82L253.41 181.91C253.488 181.939 253.557 181.987 253.612 182.05C253.666 182.113 253.703 182.189 253.72 182.27L255.03 188.71C255.045 188.792 255.041 188.877 255.016 188.957C254.992 189.037 254.949 189.11 254.89 189.17L252.72 191.27C252.62 192.332 252.426 193.383 252.14 194.41L253.58 197.68C253.619 197.754 253.64 197.836 253.64 197.92C253.64 198.004 253.619 198.086 253.58 198.16L250 203.59C249.953 203.658 249.89 203.713 249.817 203.752C249.744 203.79 249.663 203.81 249.58 203.81L246.01 203.76C245.173 204.423 244.279 205.012 243.34 205.52L242.25 208.33C242.22 208.409 242.171 208.479 242.106 208.534C242.041 208.588 241.963 208.625 241.88 208.64L235.44 210H235.34ZM229.71 206C229.756 205.991 229.804 205.991 229.85 206C230.93 206.315 232.039 206.519 233.16 206.61C233.28 206.624 233.392 206.677 233.48 206.76L235.48 208.86L241.38 207.67L242.44 204.93C242.489 204.819 242.574 204.728 242.68 204.67C243.679 204.153 244.621 203.533 245.49 202.82C245.582 202.742 245.7 202.703 245.82 202.71L249.29 202.76L252.61 197.76L251.21 194.58C251.17 194.47 251.17 194.35 251.21 194.24C251.519 193.159 251.724 192.05 251.82 190.93C251.83 190.809 251.883 190.695 251.97 190.61L254.07 188.61L252.88 182.71L250.15 181.65C250.033 181.607 249.936 181.521 249.88 181.41C249.361 180.413 248.741 179.471 248.03 178.6C247.959 178.509 247.92 178.396 247.92 178.28V174.8L242.92 171.48L239.75 172.88C239.637 172.92 239.513 172.92 239.4 172.88C238.316 172.567 237.204 172.363 236.08 172.27C235.96 172.256 235.848 172.203 235.76 172.12L233.76 170.02L227.86 171.22L226.81 174C226.768 174.115 226.686 174.21 226.58 174.27C225.577 174.785 224.632 175.405 223.76 176.12C223.717 176.159 223.666 176.189 223.611 176.208C223.556 176.227 223.498 176.234 223.44 176.23L219.97 176.18L216.64 181.18L218.04 184.36C218.072 184.427 218.089 184.501 218.089 184.575C218.089 184.649 218.072 184.723 218.04 184.79C217.744 185.846 217.549 186.927 217.46 188.02C217.451 188.141 217.397 188.255 217.31 188.34L215.21 190.34L216.41 196.24L219.13 197.3C219.251 197.35 219.351 197.443 219.41 197.56C219.926 198.551 220.542 199.486 221.25 200.35C221.324 200.44 221.363 200.554 221.36 200.67V204.15L226.36 207.47L229.54 206.07C229.592 206.037 229.65 206.013 229.71 206ZM234.62 202.76C232.213 202.758 229.852 202.104 227.787 200.867C225.722 199.63 224.031 197.856 222.893 195.735C221.756 193.614 221.214 191.224 221.326 188.82C221.438 186.415 222.2 184.086 223.53 182.08C224.802 180.155 226.552 178.594 228.608 177.548C230.665 176.502 232.957 176.008 235.262 176.114C237.567 176.22 239.804 176.922 241.756 178.152C243.708 179.382 245.308 181.097 246.398 183.13C247.488 185.163 248.032 187.445 247.977 189.751C247.921 192.058 247.268 194.31 246.081 196.288C244.894 198.267 243.214 199.903 241.205 201.037C239.196 202.172 236.927 202.765 234.62 202.76ZM224.37 182.63C223.024 184.661 222.31 187.045 222.319 189.482C222.328 191.918 223.059 194.297 224.42 196.318C225.781 198.339 227.711 199.911 229.965 200.835C232.22 201.76 234.697 201.995 237.085 201.511C239.473 201.027 241.664 199.846 243.381 198.118C245.098 196.389 246.263 194.19 246.731 191.799C247.198 189.407 246.945 186.931 246.006 184.683C245.066 182.436 243.48 180.517 241.45 179.17C240.104 178.269 238.592 177.643 237.002 177.329C235.413 177.015 233.777 177.019 232.189 177.341C230.601 177.663 229.093 178.296 227.751 179.204C226.408 180.111 225.26 181.276 224.37 182.63Z" fill="white"/>
<path d="M425.832 231.65L410.132 229.53L420.512 151.72L390.232 147.64L316.782 215.26L312.922 244.19L376.212 252.73L373.052 276.4L403.332 280.48L406.492 256.82L422.192 258.94L425.832 231.65ZM346.412 220.93L385.172 185.6L379.852 225.44L346.412 220.93Z" fill="#407BFF"/>
<path d="M394.132 279.74H394.002C393.872 279.716 393.757 279.641 393.682 279.532C393.607 279.424 393.578 279.29 393.602 279.16L417.002 151.22C417.028 151.092 417.103 150.978 417.211 150.904C417.32 150.829 417.452 150.799 417.582 150.82C417.711 150.844 417.826 150.919 417.901 151.028C417.976 151.136 418.005 151.27 417.982 151.4L394.632 279.33C394.609 279.446 394.546 279.55 394.455 279.624C394.364 279.699 394.25 279.74 394.132 279.74Z" fill="#263238"/>
<path d="M414.828 153.37C414.82 153.587 414.726 153.793 414.567 153.941C414.407 154.089 414.196 154.168 413.978 154.16C413.761 154.152 413.555 154.058 413.407 153.899C413.259 153.739 413.18 153.527 413.188 153.31C413.196 153.093 413.29 152.887 413.449 152.739C413.609 152.591 413.821 152.512 414.038 152.52C414.256 152.528 414.461 152.622 414.609 152.781C414.757 152.941 414.836 153.153 414.828 153.37Z" fill="#263238"/>
<path d="M411.499 170.67C411.493 170.832 411.439 170.989 411.344 171.12C411.249 171.251 411.117 171.352 410.965 171.408C410.813 171.465 410.648 171.475 410.49 171.437C410.332 171.4 410.189 171.316 410.079 171.198C409.968 171.079 409.896 170.93 409.87 170.77C409.844 170.61 409.866 170.446 409.934 170.298C410.001 170.151 410.111 170.027 410.249 169.942C410.387 169.857 410.547 169.814 410.709 169.82C410.817 169.824 410.922 169.849 411.02 169.894C411.118 169.939 411.207 170.002 411.28 170.081C411.353 170.16 411.41 170.253 411.448 170.354C411.486 170.455 411.503 170.562 411.499 170.67Z" fill="#263238"/>
<path d="M408.172 188C408.168 188.108 408.143 188.214 408.098 188.312C408.053 188.41 407.99 188.498 407.911 188.571C407.832 188.645 407.739 188.702 407.638 188.739C407.537 188.777 407.43 188.794 407.322 188.79C407.215 188.787 407.109 188.764 407.011 188.72C406.913 188.676 406.825 188.613 406.751 188.535C406.678 188.457 406.62 188.365 406.583 188.265C406.545 188.164 406.528 188.057 406.532 187.95C406.534 187.841 406.559 187.734 406.603 187.635C406.647 187.536 406.711 187.447 406.79 187.372C406.869 187.298 406.962 187.24 407.063 187.202C407.165 187.164 407.273 187.146 407.382 187.15C407.598 187.16 407.802 187.255 407.95 187.414C408.098 187.573 408.177 187.783 408.172 188Z" fill="#263238"/>
<path d="M401.612 206C401.589 206.201 401.494 206.386 401.343 206.521C401.193 206.655 400.998 206.73 400.797 206.73C400.595 206.73 400.4 206.655 400.25 206.521C400.099 206.386 400.004 206.201 399.982 206C399.969 205.885 399.98 205.769 400.016 205.66C400.051 205.55 400.109 205.449 400.186 205.363C400.263 205.277 400.357 205.208 400.462 205.161C400.567 205.114 400.681 205.09 400.797 205.09C400.912 205.09 401.026 205.114 401.131 205.161C401.236 205.208 401.331 205.277 401.407 205.363C401.484 205.449 401.542 205.55 401.578 205.66C401.613 205.769 401.624 205.885 401.612 206Z" fill="#263238"/>
<path d="M401.499 222.57C401.496 222.678 401.472 222.785 401.428 222.883C401.383 222.982 401.32 223.071 401.241 223.144C401.161 223.218 401.068 223.275 400.967 223.312C400.865 223.349 400.757 223.365 400.649 223.36C400.487 223.354 400.33 223.3 400.199 223.205C400.067 223.11 399.967 222.978 399.911 222.826C399.854 222.674 399.844 222.509 399.882 222.351C399.919 222.193 400.002 222.05 400.121 221.94C400.24 221.83 400.389 221.757 400.549 221.731C400.709 221.705 400.873 221.727 401.02 221.795C401.168 221.862 401.292 221.972 401.377 222.11C401.462 222.248 401.505 222.408 401.499 222.57Z" fill="#263238"/>
<path d="M398.171 239.87C398.167 240.033 398.115 240.19 398.021 240.323C397.927 240.456 397.796 240.557 397.644 240.615C397.492 240.674 397.326 240.685 397.168 240.649C397.009 240.612 396.865 240.53 396.754 240.411C396.643 240.293 396.569 240.144 396.542 239.984C396.516 239.823 396.537 239.659 396.605 239.51C396.672 239.362 396.781 239.238 396.92 239.152C397.058 239.067 397.219 239.024 397.381 239.03C397.597 239.038 397.801 239.13 397.949 239.288C398.096 239.445 398.176 239.654 398.171 239.87Z" fill="#263238"/>
<path d="M394.836 257.17C394.828 257.388 394.734 257.595 394.575 257.745C394.416 257.894 394.204 257.975 393.986 257.97C393.878 257.966 393.772 257.941 393.674 257.896C393.576 257.851 393.488 257.788 393.415 257.709C393.341 257.63 393.284 257.537 393.247 257.436C393.209 257.335 393.192 257.228 393.196 257.12C393.199 257.012 393.224 256.906 393.268 256.808C393.312 256.71 393.375 256.621 393.454 256.547C393.532 256.474 393.624 256.416 393.725 256.378C393.826 256.34 393.933 256.322 394.041 256.325C394.149 256.328 394.255 256.353 394.353 256.397C394.451 256.441 394.54 256.504 394.613 256.583C394.687 256.661 394.745 256.754 394.783 256.854C394.821 256.955 394.839 257.062 394.836 257.17Z" fill="#263238"/>
<path d="M391.499 274.48C391.493 274.642 391.439 274.799 391.344 274.93C391.249 275.061 391.117 275.162 390.965 275.218C390.813 275.275 390.648 275.285 390.49 275.247C390.332 275.21 390.189 275.126 390.079 275.008C389.968 274.889 389.896 274.74 389.87 274.58C389.844 274.42 389.866 274.256 389.934 274.108C390.001 273.961 390.111 273.837 390.249 273.752C390.387 273.667 390.547 273.624 390.709 273.63C390.817 273.633 390.923 273.657 391.022 273.701C391.121 273.745 391.209 273.809 391.283 273.888C391.357 273.968 391.414 274.061 391.451 274.162C391.488 274.264 391.504 274.372 391.499 274.48Z" fill="#263238"/>
<path d="M400.79 206.45C400.677 206.45 400.568 206.411 400.48 206.34C400.393 206.269 400.332 206.17 400.309 206.06C400.295 205.996 400.293 205.929 400.304 205.864C400.315 205.799 400.339 205.737 400.374 205.681C400.41 205.625 400.456 205.577 400.51 205.539C400.564 205.501 400.625 205.474 400.689 205.46L403.17 204.93C403.235 204.915 403.302 204.914 403.368 204.926C403.433 204.937 403.496 204.962 403.552 204.999C403.608 205.035 403.656 205.082 403.693 205.137C403.73 205.192 403.756 205.255 403.769 205.32C403.783 205.384 403.783 205.451 403.77 205.515C403.758 205.58 403.733 205.641 403.697 205.696C403.661 205.751 403.614 205.798 403.559 205.834C403.505 205.871 403.444 205.897 403.38 205.91L400.899 206.44L400.79 206.45Z" fill="#263238"/>
<path d="M409.079 197.24C407.899 200.3 406.898 203.425 406.079 206.6C405.329 210.13 405.289 218.03 405.289 218.03" fill="#263238"/>
<path d="M405.289 218.53C405.156 218.525 405.031 218.469 404.938 218.374C404.845 218.28 404.792 218.153 404.789 218.02C404.789 217.7 404.849 210.02 405.599 206.5C406.413 203.297 407.415 200.145 408.599 197.06C408.619 196.994 408.652 196.933 408.697 196.881C408.742 196.829 408.797 196.786 408.859 196.756C408.92 196.726 408.988 196.709 409.056 196.706C409.125 196.703 409.194 196.714 409.258 196.739C409.322 196.764 409.38 196.802 409.429 196.85C409.478 196.899 409.517 196.957 409.542 197.02C409.567 197.084 409.579 197.153 409.577 197.222C409.575 197.29 409.559 197.358 409.529 197.42C408.351 200.456 407.349 203.558 406.529 206.71C405.799 210.15 405.749 217.95 405.739 218.03C405.74 218.154 405.694 218.275 405.611 218.367C405.528 218.459 405.413 218.518 405.289 218.53Z" fill="#263238"/>
<path d="M222.445 304.84C223.835 282.44 221.285 241.71 263.395 247.11C308.525 252.88 295.615 305.66 295.615 305.66L222.445 304.84Z" fill="#263238"/>
<path d="M251.505 291.38C261.656 291.38 269.885 283.151 269.885 273C269.885 262.849 261.656 254.62 251.505 254.62C241.354 254.62 233.125 262.849 233.125 273C233.125 283.151 241.354 291.38 251.505 291.38Z" fill="white"/>
<path d="M253.93 254.65C245.22 253.17 235.93 259.58 235 266.08L269.51 269.26C268.29 261.85 260.83 255.83 253.93 254.65Z" fill="#263238"/>
<path d="M265.573 272.54C265.323 277.35 262.703 281.12 259.723 280.96C256.743 280.8 254.523 276.79 254.723 271.96C254.923 267.13 257.593 263.38 260.573 263.54C263.553 263.7 265.813 267.74 265.573 272.54Z" fill="#263238"/>
<path d="M251.505 292.38C247.672 292.38 243.925 291.243 240.738 289.114C237.551 286.984 235.067 283.958 233.6 280.416C232.133 276.875 231.75 272.978 232.497 269.219C233.245 265.46 235.091 262.007 237.801 259.296C240.512 256.586 243.965 254.74 247.724 253.992C251.484 253.245 255.38 253.628 258.921 255.095C262.463 256.562 265.489 259.046 267.619 262.233C269.748 265.42 270.885 269.167 270.885 273C270.88 278.138 268.836 283.065 265.203 286.698C261.57 290.331 256.643 292.375 251.505 292.38ZM251.505 255.63C248.067 255.63 244.707 256.65 241.848 258.56C238.99 260.47 236.762 263.185 235.447 266.361C234.132 269.538 233.788 273.033 234.46 276.404C235.131 279.776 236.787 282.873 239.219 285.303C241.651 287.733 244.748 289.388 248.12 290.057C251.493 290.727 254.987 290.381 258.163 289.064C261.339 287.747 264.052 285.518 265.961 282.659C267.869 279.799 268.887 276.438 268.885 273C268.88 268.393 267.047 263.977 263.788 260.72C260.53 257.463 256.112 255.633 251.505 255.63Z" fill="#407BFF"/>
<path opacity="0.3" d="M290.485 304.28H290.365C290.301 304.266 290.24 304.239 290.186 304.201C290.132 304.163 290.087 304.115 290.053 304.059C290.018 304.003 289.995 303.94 289.985 303.875C289.975 303.81 289.979 303.744 289.995 303.68C289.995 303.55 293.215 289.99 289.905 276.28C289.873 276.147 289.895 276.008 289.966 275.891C290.038 275.775 290.152 275.692 290.285 275.66C290.417 275.628 290.557 275.65 290.674 275.722C290.79 275.793 290.873 275.907 290.905 276.04C294.275 290.04 291.025 303.78 290.995 303.91C290.965 304.021 290.898 304.118 290.805 304.185C290.713 304.253 290.599 304.286 290.485 304.28Z" fill="white"/>
<path opacity="0.3" d="M287.694 268.76C287.598 268.759 287.504 268.731 287.423 268.68C287.342 268.629 287.277 268.556 287.234 268.47C285.991 265.723 284.398 263.148 282.494 260.81C282.411 260.708 282.372 260.577 282.385 260.446C282.398 260.315 282.463 260.194 282.564 260.11C282.615 260.067 282.674 260.035 282.738 260.016C282.801 259.996 282.868 259.99 282.934 259.996C283 260.003 283.064 260.022 283.123 260.054C283.181 260.085 283.233 260.128 283.274 260.18C285.225 262.586 286.862 265.23 288.144 268.05C288.173 268.109 288.189 268.173 288.192 268.238C288.196 268.304 288.186 268.369 288.164 268.431C288.141 268.492 288.107 268.549 288.062 268.597C288.018 268.645 287.964 268.683 287.904 268.71C287.838 268.741 287.767 268.758 287.694 268.76Z" fill="white"/>
<path d="M128.724 409.92H128.354C127.028 409.883 125.771 409.32 124.86 408.357C123.948 407.393 123.457 406.106 123.494 404.78C123.531 403.454 124.094 402.197 125.058 401.285C126.022 400.374 127.308 399.883 128.634 399.92H128.724C131.614 399.92 138.564 396.41 153.104 373.49C153.49 372.881 154.003 372.363 154.608 371.971C155.213 371.579 155.895 371.323 156.609 371.219C157.322 371.116 158.049 371.168 158.741 371.371C159.432 371.575 160.071 371.926 160.614 372.4C172.033 382.216 184.486 390.76 197.754 397.88C198.368 398.159 198.919 398.56 199.374 399.058C199.83 399.556 200.179 400.14 200.402 400.777C200.626 401.413 200.718 402.089 200.673 402.762C200.629 403.435 200.448 404.092 200.143 404.693C199.838 405.295 199.414 405.829 198.897 406.262C198.381 406.696 197.781 407.02 197.136 407.216C196.491 407.412 195.812 407.475 195.142 407.402C194.471 407.329 193.822 407.121 193.234 406.79C180.903 400.237 169.247 392.487 158.434 383.65C146.244 402 137.204 409.92 128.724 409.92Z" fill="#263238"/>
<path d="M159.67 371.5H159.24C158.454 371.386 157.745 370.965 157.269 370.33C156.793 369.694 156.588 368.896 156.7 368.11C157.41 363.11 156.53 344.48 150.22 329.98C149.94 329.339 149.892 328.621 150.086 327.949C150.28 327.277 150.702 326.694 151.28 326.3C164.98 316.97 194.16 315.85 195.4 315.81C195.794 315.797 196.186 315.861 196.555 316C196.924 316.139 197.262 316.349 197.55 316.618C197.838 316.887 198.07 317.211 198.233 317.57C198.396 317.928 198.486 318.316 198.5 318.71C198.513 319.104 198.448 319.497 198.309 319.866C198.171 320.235 197.961 320.573 197.692 320.861C197.422 321.148 197.099 321.38 196.74 321.543C196.381 321.706 195.994 321.797 195.6 321.81C195.33 321.81 169.82 322.81 156.72 330.01C162.3 344.45 163.57 362.44 162.64 368.95C162.532 369.66 162.173 370.308 161.628 370.776C161.083 371.244 160.388 371.501 159.67 371.5Z" fill="#263238"/>
<path d="M164.708 367.62C162.708 362.91 153.708 363.44 148.438 367.48C145.618 369.63 141.798 376.12 141.438 378.48C141.318 379.041 141.336 379.622 141.49 380.175C141.645 380.727 141.931 381.233 142.324 381.65C142.718 382.068 143.207 382.383 143.749 382.569C144.292 382.755 144.871 382.807 145.438 382.72C148.888 382.42 153.618 377.41 153.618 377.41C150.468 380.5 154.538 382.68 160.618 378.21C163.938 375.72 166.938 372.89 164.708 367.62Z" fill="#407BFF"/>
<path d="M336.706 306.16C336.66 306.17 336.612 306.17 336.566 306.16C336.502 306.143 336.442 306.113 336.39 306.072C336.338 306.031 336.295 305.98 336.263 305.922C336.232 305.865 336.212 305.801 336.206 305.735C336.199 305.669 336.206 305.603 336.226 305.54C337.556 300.9 339.006 298.07 340.916 296.54C340.616 295.464 340.672 294.321 341.076 293.28C341.542 292.065 342.364 291.019 343.436 290.28C343.144 289.965 342.938 289.582 342.834 289.166C342.731 288.75 342.735 288.314 342.846 287.9C343.208 286.647 343.957 285.541 344.986 284.74C344.615 284.325 344.411 283.787 344.416 283.23C344.416 280.23 349.926 275.71 356.176 274.85C356.308 274.831 356.443 274.866 356.55 274.947C356.657 275.028 356.727 275.147 356.746 275.28C356.764 275.413 356.729 275.547 356.649 275.654C356.568 275.761 356.448 275.831 356.316 275.85C350.376 276.66 345.396 280.96 345.416 283.23C345.414 283.568 345.543 283.895 345.776 284.14C347.121 283.228 348.634 282.593 350.228 282.272C351.821 281.95 353.462 281.95 355.056 282.27C358.126 282.86 359.376 283.51 359.236 284.44C358.956 286.19 352.426 286.56 348.046 286.04C347.261 285.969 346.497 285.748 345.796 285.39C344.853 286.061 344.151 287.019 343.796 288.12C343.71 288.411 343.711 288.722 343.798 289.013C343.884 289.304 344.054 289.563 344.286 289.76C346.146 288.76 348.756 288.4 352.206 289.16C356.736 290.16 356.906 290.71 357.016 291.04C357.051 291.157 357.054 291.281 357.024 291.399C356.994 291.517 356.932 291.624 356.846 291.71C355.896 292.71 348.946 292.24 345.456 291.38C345.034 291.284 344.627 291.133 344.246 290.93C343.213 291.558 342.418 292.511 341.986 293.64C341.697 294.37 341.617 295.167 341.756 295.94C341.934 295.834 342.117 295.737 342.306 295.65C344.376 294.65 346.876 294.83 349.966 296.15C351.966 297.02 352.966 297.8 353.066 298.59C353.07 298.793 353.019 298.993 352.919 299.169C352.819 299.345 352.672 299.49 352.496 299.59C350.966 300.59 345.626 300.45 342.846 298.97C342.206 298.623 341.674 298.107 341.306 297.48C339.676 298.98 338.356 301.65 337.156 305.84C337.119 305.931 337.058 306.009 336.978 306.066C336.898 306.123 336.803 306.155 336.706 306.16ZM342.126 296.83C342.404 297.347 342.828 297.772 343.346 298.05C345.606 299.25 350.046 299.52 351.706 298.85C352.046 298.71 352.096 298.6 352.096 298.6C352.096 298.6 352.046 298.04 349.596 296.99C346.796 295.79 344.596 295.62 342.766 296.47C342.545 296.576 342.331 296.697 342.126 296.83ZM345.466 290.26L345.716 290.33C348.972 291.08 352.323 291.333 355.656 291.08C354.474 290.642 353.256 290.307 352.016 290.08C349.862 289.497 347.584 289.559 345.466 290.26ZM346.726 284.64C347.187 284.805 347.668 284.913 348.156 284.96C353.156 285.55 357.546 284.86 358.156 284.23C357.986 284.08 357.316 283.65 354.836 283.18C352.045 282.623 349.147 283.145 346.726 284.64Z" fill="#263238"/>
<path d="M206.528 408.25C207.188 408.04 206.968 407.4 206.228 407.4H192.688C166.908 404.67 148.898 408.33 160.248 409.19C171.598 410.05 159.448 409.87 151.158 413.01C142.868 416.15 212.808 416.94 219.158 413.01C224.998 409.39 197.388 411.18 206.528 408.25Z" fill="#263238"/>
<path d="M303.463 412.24L185.663 408.33L180.773 294.11L319.883 297.22L303.463 412.24Z" fill="#407BFF"/>
<path d="M222.449 410.05C222.323 410.05 222.201 410.003 222.109 409.918C222.016 409.833 221.959 409.716 221.949 409.59L212.509 294.87C212.5 294.738 212.544 294.608 212.63 294.507C212.715 294.406 212.837 294.343 212.969 294.33C213.1 294.324 213.229 294.368 213.329 294.454C213.43 294.539 213.494 294.659 213.509 294.79L222.999 409.51C223.004 409.576 222.997 409.642 222.977 409.705C222.956 409.767 222.924 409.826 222.881 409.876C222.838 409.926 222.786 409.967 222.727 409.997C222.669 410.027 222.605 410.045 222.539 410.05H222.449Z" fill="#263238"/>
<path d="M303.469 412.24L335.129 407.42L345.099 301.21L319.889 297.22L303.469 412.24Z" fill="#407BFF"/>
<path opacity="0.2" d="M303.469 412.24L335.129 407.42L345.099 301.21L319.889 297.22L303.469 412.24Z" fill="black"/>
<path d="M195.724 386.32L192.824 318.45C192.752 316.773 193.025 315.1 193.626 313.533C194.227 311.966 195.143 310.539 196.318 309.34C197.492 308.142 198.9 307.196 200.454 306.563C202.008 305.93 203.676 305.623 205.354 305.66L293.414 307.66C295.148 307.699 296.854 308.105 298.419 308.852C299.985 309.599 301.374 310.669 302.496 311.992C303.617 313.315 304.446 314.861 304.926 316.527C305.407 318.194 305.529 319.943 305.284 321.66L295.524 390C295.101 392.993 293.589 395.725 291.277 397.672C288.965 399.619 286.015 400.644 282.994 400.55L207.604 398.05C204.509 397.955 201.564 396.692 199.361 394.517C197.158 392.341 195.858 389.413 195.724 386.32Z" fill="#263238"/>
<path d="M205.249 326.49L218.869 326.92L218.759 330.43L210.229 330.16L210.149 332.78L218.059 333.03L217.949 336.39L210.039 336.13L209.939 339.38L218.709 339.66L218.589 343.38L204.719 342.94L205.249 326.49Z" fill="white"/>
<path d="M221.398 343.47L221.918 327.02L230.398 327.29C231.614 327.284 232.824 327.459 233.988 327.81C234.814 328.086 235.52 328.637 235.988 329.37C236.336 329.904 236.57 330.504 236.676 331.132C236.781 331.76 236.756 332.404 236.602 333.022C236.449 333.64 236.169 334.22 235.781 334.726C235.393 335.231 234.906 335.651 234.348 335.96C233.78 336.253 233.169 336.455 232.538 336.56C233.003 336.71 233.445 336.925 233.848 337.2C234.14 337.471 234.402 337.773 234.628 338.1C234.886 338.411 235.114 338.746 235.308 339.1L237.618 343.95L231.878 343.76L229.318 338.65C229.115 338.162 228.816 337.72 228.438 337.35C228.08 337.09 227.651 336.944 227.208 336.93H226.758L226.548 343.6L221.398 343.47ZM226.818 333.85L228.958 333.92C229.413 333.892 229.864 333.829 230.308 333.73C230.643 333.679 230.947 333.504 231.158 333.24C231.375 332.973 231.498 332.643 231.508 332.3C231.527 332.071 231.495 331.841 231.414 331.627C231.332 331.412 231.204 331.219 231.038 331.06C230.48 330.699 229.821 330.528 229.158 330.57L226.918 330.5L226.818 333.85Z" fill="white"/>
<path d="M239.273 344L239.793 327.55L248.263 327.82C249.479 327.813 250.69 327.988 251.853 328.34C252.68 328.613 253.387 329.165 253.853 329.9C254.361 330.701 254.599 331.644 254.533 332.59C254.536 333.388 254.323 334.172 253.916 334.859C253.51 335.545 252.925 336.109 252.223 336.49C251.654 336.781 251.044 336.983 250.413 337.09C250.876 337.239 251.313 337.455 251.713 337.73C252.012 337.993 252.278 338.292 252.503 338.62C252.759 338.933 252.987 339.267 253.183 339.62L255.493 344.46L249.753 344.28L247.193 339.17C246.989 338.683 246.69 338.241 246.313 337.87C245.956 337.6 245.521 337.453 245.073 337.45H244.633L244.413 344.13L239.273 344ZM244.683 334.38L246.833 334.44C247.288 334.423 247.74 334.362 248.183 334.26C248.516 334.211 248.817 334.035 249.023 333.77C249.247 333.508 249.371 333.175 249.373 332.83C249.395 332.602 249.365 332.372 249.285 332.157C249.206 331.943 249.079 331.749 248.913 331.59C248.356 331.22 247.69 331.048 247.023 331.1L244.793 331.03L244.683 334.38Z" fill="white"/>
<path d="M256.319 336.36C256.241 335.212 256.419 334.061 256.84 332.99C257.26 331.919 257.913 330.955 258.75 330.166C259.588 329.377 260.59 328.784 261.684 328.428C262.778 328.073 263.937 327.964 265.079 328.11C266.23 328.072 267.378 328.266 268.453 328.68C269.529 329.094 270.51 329.719 271.339 330.52C272.078 331.372 272.637 332.365 272.981 333.439C273.325 334.514 273.446 335.647 273.339 336.77C273.347 338.404 272.963 340.016 272.219 341.47C271.544 342.66 270.536 343.627 269.319 344.25C267.884 344.936 266.295 345.239 264.709 345.13C263.126 345.143 261.561 344.802 260.129 344.13C258.909 343.468 257.913 342.459 257.269 341.23C256.512 339.724 256.184 338.04 256.319 336.36ZM261.399 336.54C261.249 337.801 261.534 339.074 262.209 340.15C262.524 340.502 262.907 340.787 263.335 340.988C263.762 341.188 264.226 341.301 264.698 341.319C265.17 341.337 265.641 341.259 266.083 341.091C266.525 340.923 266.928 340.667 267.269 340.34C268.01 339.217 268.361 337.882 268.269 336.54C268.403 335.335 268.109 334.121 267.439 333.11C267.135 332.761 266.761 332.481 266.34 332.289C265.919 332.098 265.461 331.999 264.999 332C264.532 331.966 264.064 332.039 263.629 332.212C263.194 332.385 262.804 332.655 262.489 333C261.731 334.021 261.347 335.27 261.399 336.54Z" fill="white"/>
<path d="M275.906 345.21L276.426 328.75L284.896 329.02C286.112 329.018 287.321 329.193 288.486 329.54C289.309 329.821 290.014 330.37 290.486 331.1C290.991 331.902 291.229 332.844 291.166 333.79C291.171 334.59 290.959 335.376 290.552 336.064C290.145 336.753 289.559 337.318 288.856 337.7C288.285 337.983 287.675 338.182 287.046 338.29C287.509 338.442 287.947 338.661 288.346 338.94C288.645 339.203 288.911 339.502 289.136 339.83C289.394 340.141 289.622 340.476 289.816 340.83L292.126 345.68L286.386 345.5L283.826 340.38C283.623 339.895 283.323 339.456 282.946 339.09C282.588 338.822 282.154 338.671 281.706 338.66H281.266L281.046 345.34L275.906 345.21ZM281.316 335.58L283.466 335.65C283.921 335.633 284.373 335.572 284.816 335.47C285.147 335.417 285.447 335.242 285.656 334.98C285.892 334.701 286.017 334.345 286.006 333.98C286.028 333.754 285.998 333.525 285.918 333.312C285.838 333.099 285.711 332.907 285.546 332.75C284.988 332.38 284.323 332.208 283.656 332.26L281.426 332.19L281.316 335.58Z" fill="white"/>
<path d="M283.996 373.16C283.808 373.164 283.622 373.127 283.45 373.053C283.277 372.979 283.122 372.869 282.996 372.73L274.436 363.36L265.196 371.8C264.94 372.035 264.601 372.158 264.254 372.143C263.907 372.128 263.581 371.976 263.346 371.72L254.786 362.35L245.546 370.79C245.29 371.025 244.951 371.148 244.604 371.133C244.257 371.118 243.931 370.966 243.696 370.71L235.126 361.34L225.896 369.78C225.761 369.902 225.603 369.995 225.431 370.054C225.259 370.112 225.077 370.135 224.896 370.12C224.549 370.099 224.223 369.945 223.986 369.69L215.426 360.33L206.196 368.76C205.938 368.995 205.598 369.119 205.249 369.104C204.901 369.089 204.572 368.936 204.336 368.68C204.219 368.553 204.129 368.404 204.07 368.242C204.011 368.08 203.985 367.908 203.994 367.736C204.002 367.564 204.045 367.395 204.119 367.24C204.193 367.084 204.297 366.945 204.426 366.83L214.626 357.5C214.884 357.265 215.224 357.141 215.572 357.156C215.921 357.171 216.249 357.324 216.486 357.58L225.046 366.95L234.276 358.51C234.538 358.28 234.878 358.158 235.226 358.17C235.574 358.189 235.901 358.343 236.136 358.6L244.696 367.97L253.936 359.53C254.062 359.413 254.21 359.321 254.372 359.262C254.534 359.202 254.706 359.175 254.878 359.183C255.05 359.19 255.219 359.232 255.375 359.305C255.531 359.379 255.67 359.482 255.786 359.61L264.346 368.98L273.586 360.54C273.842 360.305 274.181 360.182 274.527 360.197C274.874 360.212 275.201 360.364 275.436 360.62L284.996 371C285.167 371.191 285.278 371.427 285.317 371.681C285.356 371.934 285.32 372.193 285.214 372.426C285.108 372.66 284.936 372.857 284.72 372.994C284.504 373.132 284.252 373.203 283.996 373.2V373.16Z" fill="white"/>
<path d="M125.746 414.67L119.486 411.68L113.906 384.51L116.936 381.18L125.746 414.67Z" fill="#407BFF"/>
<path d="M125.747 414.67L134.057 409.81L126.938 387.43L116.938 381.18L125.747 414.67Z" fill="#407BFF"/>
<path opacity="0.2" d="M125.747 414.67L134.057 409.81L126.938 387.43L116.938 381.18L125.747 414.67Z" fill="black"/>
<path d="M261.994 419.61H261.304C259.978 419.574 258.721 419.013 257.808 418.05C256.896 417.087 256.404 415.801 256.439 414.475C256.475 413.149 257.036 411.891 257.999 410.979C258.962 410.067 260.248 409.574 261.574 409.61C269.274 409.86 285.574 405.13 294.894 396.09C295.457 395.538 296.142 395.127 296.894 394.89C312.684 390.15 318.554 399.72 318.794 400.13L310.194 405.22C310.225 405.284 310.261 405.344 310.304 405.4C310.214 405.27 307.974 402.4 300.854 404.16C289.164 414.82 271.224 419.61 261.994 419.61Z" fill="#263238"/>
<path d="M261.39 426.25L243.18 425.11L241.75 391.53L266.22 392.44L261.39 426.25Z" fill="#407BFF"/>
<path d="M261.383 426.25L265.643 422.01L268.283 401.08L266.213 392.44L261.383 426.25Z" fill="#407BFF"/>
<path opacity="0.2" d="M261.383 426.25L265.643 422.01L268.283 401.08L266.213 392.44L261.383 426.25Z" fill="black"/>
<path d="M366.907 413.54C366.253 413.539 365.617 413.325 365.097 412.93C354.697 405.03 340.647 391 335.257 377.47C335.176 377.274 335.119 377.069 335.087 376.86C332.457 361.22 329.947 328.31 329.837 326.92C329.807 326.526 329.855 326.13 329.979 325.755C330.102 325.38 330.298 325.032 330.556 324.733C331.077 324.128 331.816 323.755 332.612 323.695C333.407 323.635 334.194 323.894 334.799 324.415C335.404 324.935 335.777 325.674 335.837 326.47C335.837 326.8 338.407 360.03 340.967 375.54C346.347 388.7 360.967 402.21 368.747 408.15C369.248 408.53 369.616 409.058 369.801 409.659C369.986 410.26 369.977 410.904 369.776 411.5C369.574 412.096 369.191 412.613 368.68 412.979C368.169 413.345 367.555 413.541 366.927 413.54H366.907Z" fill="#263238"/>
<path d="M380.779 415.05C378.459 415.05 375.829 414 372.959 411.93C372.315 411.463 371.882 410.76 371.756 409.974C371.631 409.188 371.822 408.384 372.289 407.74C372.756 407.096 373.46 406.663 374.245 406.537C375.031 406.412 375.835 406.603 376.479 407.07C378.959 408.86 380.309 409.07 380.779 409.07C381.575 409.07 382.338 409.386 382.9 409.949C383.463 410.511 383.779 411.274 383.779 412.07C383.779 412.866 383.463 413.629 382.9 414.191C382.338 414.754 381.575 415.07 380.779 415.07V415.05Z" fill="#263238"/>
<path d="M373.797 411.84C377.007 402.31 390.167 404.19 394.707 405.61C398.585 406.736 402.304 408.349 405.777 410.41C408.227 412.01 408.267 414.7 404.997 416.23C400.997 418.11 390.837 416.44 390.837 416.44C396.077 418.73 390.837 422.44 381.627 418.8C378.637 417.62 372.667 415.34 373.797 411.84Z" fill="#407BFF"/>
<path d="M341.859 331C340.669 339.1 333.959 345.07 328.499 344.27C323.039 343.47 322.819 336.27 324.009 328.13C325.199 319.99 327.359 314.13 332.819 314.93C338.279 315.73 343.049 322.93 341.859 331Z" fill="#263238"/>
<path d="M209.875 298.7C210.328 298.7 210.695 298.333 210.695 297.88C210.695 297.427 210.328 297.06 209.875 297.06C209.422 297.06 209.055 297.427 209.055 297.88C209.055 298.333 209.422 298.7 209.875 298.7Z" fill="#263238"/>
<path d="M218.203 303.78C218.203 303.942 218.154 304.101 218.064 304.236C217.974 304.37 217.846 304.476 217.696 304.538C217.546 304.6 217.382 304.616 217.223 304.584C217.063 304.553 216.917 304.475 216.803 304.36C216.688 304.245 216.61 304.099 216.578 303.94C216.547 303.781 216.563 303.616 216.625 303.466C216.687 303.316 216.792 303.188 216.927 303.098C217.062 303.008 217.22 302.96 217.383 302.96C217.6 302.96 217.809 303.046 217.962 303.2C218.116 303.354 218.203 303.563 218.203 303.78Z" fill="#263238"/>
<path d="M219.124 400.68C219.124 400.842 219.076 401.001 218.986 401.136C218.896 401.27 218.768 401.376 218.618 401.438C218.468 401.5 218.303 401.516 218.144 401.484C217.985 401.453 217.839 401.375 217.725 401.26C217.61 401.145 217.532 400.999 217.5 400.84C217.468 400.681 217.485 400.516 217.547 400.366C217.609 400.216 217.714 400.088 217.849 399.998C217.984 399.908 218.142 399.86 218.304 399.86C218.522 399.86 218.73 399.946 218.884 400.1C219.038 400.254 219.124 400.463 219.124 400.68Z" fill="#263238"/>
<path d="M226.64 406.59C226.64 406.752 226.592 406.911 226.502 407.046C226.412 407.18 226.284 407.286 226.134 407.348C225.984 407.41 225.819 407.426 225.66 407.394C225.501 407.363 225.355 407.285 225.24 407.17C225.125 407.055 225.047 406.909 225.016 406.75C224.984 406.591 225 406.426 225.062 406.276C225.124 406.126 225.23 405.998 225.364 405.908C225.499 405.818 225.658 405.77 225.82 405.77C226.037 405.77 226.246 405.856 226.4 406.01C226.554 406.164 226.64 406.373 226.64 406.59Z" fill="#263238"/>
<path d="M82.513 416.42C81.0733 416.353 79.6672 415.963 78.3985 415.279C77.1297 414.595 76.0308 413.635 75.183 412.47C75.1414 412.416 75.1112 412.355 75.0941 412.289C75.0771 412.224 75.0736 412.155 75.0839 412.088C75.0942 412.021 75.118 411.957 75.1539 411.899C75.1898 411.842 75.237 411.792 75.2927 411.753C75.3485 411.714 75.4115 411.687 75.4779 411.674C75.5444 411.66 75.6129 411.66 75.6794 411.674C75.7458 411.688 75.8088 411.715 75.8644 411.754C75.92 411.793 75.9672 411.842 76.003 411.9C77.873 414.6 82.003 416.03 83.803 415.18C83.9832 415.104 84.1439 414.987 84.273 414.84C83.3634 414.44 82.5665 413.822 81.9526 413.04C81.3387 412.259 80.9266 411.338 80.753 410.36C80.523 409.09 80.343 407.36 81.383 407.14C82.823 406.82 84.703 410.29 85.383 412.92C85.5061 413.355 85.5502 413.809 85.513 414.26C86.0897 414.432 86.6964 414.48 87.293 414.4C87.5618 414.379 87.8233 414.303 88.0609 414.175C88.2985 414.048 88.507 413.872 88.673 413.66C88.0148 413.163 87.4689 412.534 87.0708 411.812C86.6728 411.089 86.4316 410.292 86.363 409.47C85.983 406.73 86.273 406.26 86.573 406.02C86.6701 405.945 86.7862 405.899 86.908 405.887C87.0299 405.875 87.1528 405.897 87.263 405.95C88.333 406.4 89.623 410.28 89.873 412.48C89.9029 412.709 89.9029 412.941 89.873 413.17C90.3041 413.336 90.7611 413.424 91.223 413.43C92.0709 413.463 92.9096 413.244 93.633 412.8C93.493 412.71 93.363 412.61 93.233 412.51C92.233 411.62 91.773 410.2 91.953 408.18C92.093 406.61 92.443 405.75 93.073 405.48C93.2762 405.398 93.4988 405.378 93.7136 405.42C93.9284 405.463 94.1262 405.567 94.283 405.72C94.958 406.465 95.4625 407.349 95.7612 408.309C96.06 409.269 96.1459 410.283 96.013 411.28C95.9261 411.695 95.7523 412.087 95.503 412.43C97.343 412.75 99.923 412.23 102.153 411.68C102.219 411.664 102.287 411.662 102.353 411.672C102.42 411.683 102.484 411.706 102.542 411.742C102.599 411.777 102.649 411.823 102.689 411.878C102.729 411.932 102.757 411.994 102.773 412.06C102.789 412.126 102.791 412.194 102.781 412.26C102.77 412.327 102.747 412.391 102.711 412.449C102.676 412.506 102.63 412.556 102.575 412.596C102.521 412.636 102.459 412.664 102.393 412.68C99.683 413.35 96.763 413.9 94.703 413.3C93.6974 414.064 92.466 414.473 91.203 414.46C90.6424 414.453 90.0875 414.348 89.563 414.15C89.3303 414.51 89.0182 414.811 88.6506 415.032C88.2831 415.252 87.8699 415.385 87.443 415.42C86.6913 415.517 85.9276 415.452 85.203 415.23C84.9696 415.623 84.6203 415.934 84.203 416.12C83.6666 416.336 83.091 416.439 82.513 416.42ZM81.653 408.14C81.5146 408.82 81.5421 409.523 81.733 410.19C81.874 410.99 82.2058 411.743 82.7002 412.388C83.1946 413.032 83.837 413.547 84.573 413.89C84.559 413.653 84.5187 413.418 84.453 413.19C83.673 410.33 82.173 408.36 81.653 408.14ZM87.223 407.27C87.2295 407.96 87.2863 408.648 87.393 409.33C87.5032 410.549 88.0417 411.69 88.913 412.55C88.6669 410.704 88.0946 408.916 87.223 407.27ZM93.513 406.4C93.513 406.4 93.133 406.59 92.993 408.26C92.853 409.93 93.143 411.08 93.923 411.75C94.1075 411.9 94.3089 412.027 94.523 412.13C94.7859 411.849 94.9719 411.504 95.063 411.13C95.2411 409.556 94.8158 407.973 93.873 406.7C93.663 406.44 93.543 406.4 93.513 406.4Z" fill="#263238"/>
<path d="M228.877 423.98L231.587 419.28L228.877 414.58H225.977L227.617 419.28L225.977 423.98H228.877Z" fill="#263238"/>
<path d="M226.166 421.73C225.832 421.751 225.497 421.704 225.181 421.591C224.866 421.478 224.578 421.301 224.333 421.072C224.089 420.843 223.894 420.566 223.761 420.259C223.628 419.951 223.559 419.62 223.559 419.285C223.559 418.95 223.628 418.619 223.761 418.311C223.894 418.004 224.089 417.727 224.333 417.498C224.578 417.269 224.866 417.092 225.181 416.979C225.497 416.866 225.832 416.819 226.166 416.84L221.566 415.92L220.336 419.64L222.396 422.78L226.166 421.73Z" fill="#263238"/>
<path d="M226.562 414.58H221.132L218.422 419.28L221.132 423.98H226.562L229.272 419.28L226.562 414.58ZM223.852 421.73C223.367 421.732 222.892 421.59 222.488 421.322C222.084 421.054 221.768 420.672 221.581 420.225C221.394 419.777 221.344 419.284 221.438 418.808C221.531 418.332 221.764 417.895 222.106 417.551C222.448 417.208 222.885 416.973 223.36 416.878C223.836 416.782 224.329 416.83 224.777 417.016C225.225 417.201 225.609 417.515 225.878 417.918C226.148 418.321 226.292 418.795 226.292 419.28C226.292 419.928 226.035 420.55 225.578 421.009C225.121 421.468 224.5 421.727 223.852 421.73Z" fill="#407BFF"/>
<path d="M417.893 414.26L415.883 410.77L417.893 407.28H420.043L418.833 410.77L420.043 414.26H417.893Z" fill="#407BFF"/>
<path d="M419.906 412.59C420.156 412.609 420.407 412.575 420.643 412.493C420.879 412.41 421.096 412.279 421.279 412.109C421.463 411.938 421.609 411.732 421.709 411.503C421.809 411.273 421.861 411.025 421.861 410.775C421.861 410.525 421.809 410.277 421.709 410.047C421.609 409.818 421.463 409.612 421.279 409.441C421.096 409.271 420.879 409.14 420.643 409.057C420.407 408.975 420.156 408.941 419.906 408.96L423.326 408.28L424.236 411.04L422.716 413.37L419.906 412.59Z" fill="#407BFF"/>
<path d="M419.609 407.28H423.609L425.609 410.77L423.609 414.26H419.609L417.609 410.77L419.609 407.28ZM421.609 412.59C421.97 412.592 422.323 412.487 422.623 412.288C422.924 412.089 423.159 411.806 423.298 411.473C423.437 411.141 423.475 410.775 423.406 410.421C423.337 410.067 423.164 409.742 422.91 409.487C422.656 409.231 422.331 409.057 421.978 408.986C421.625 408.915 421.258 408.95 420.925 409.088C420.592 409.225 420.307 409.458 420.107 409.758C419.906 410.057 419.799 410.41 419.799 410.77C419.798 411.009 419.844 411.247 419.935 411.468C420.026 411.689 420.16 411.891 420.329 412.06C420.499 412.229 420.7 412.363 420.921 412.454C421.143 412.545 421.38 412.591 421.619 412.59H421.609Z" fill="#263238"/>
<path d="M342.999 418.9H347.519C348.085 418.897 348.627 418.671 349.026 418.27C349.425 417.869 349.649 417.326 349.649 416.76C349.649 416.194 349.425 415.651 349.026 415.25C348.627 414.849 348.085 414.623 347.519 414.62H342.999C342.432 414.62 341.888 414.845 341.486 415.247C341.085 415.648 340.859 416.192 340.859 416.76C340.859 417.328 341.085 417.872 341.486 418.273C341.888 418.675 342.432 418.9 342.999 418.9Z" fill="#263238"/>
<path d="M335.732 414.86C336.151 414.097 336.785 413.474 337.554 413.067C338.324 412.659 339.196 412.486 340.062 412.569C340.929 412.651 341.753 412.986 342.432 413.531C343.11 414.076 343.615 414.807 343.883 415.636C344.151 416.464 344.171 417.353 343.94 418.192C343.709 419.031 343.238 419.785 342.583 420.359C341.929 420.934 341.122 421.305 340.259 421.426C339.397 421.547 338.519 421.412 337.732 421.04C336.65 420.482 335.833 419.52 335.458 418.362C335.084 417.204 335.182 415.946 335.732 414.86Z" fill="#407BFF"/>
<path d="M336.956 421.039L338.195 421.623L342.502 412.487L341.263 411.903L336.956 421.039Z" fill="#263238"/>
</svg>
