<svg width="32" height="32" viewBox="0 0 32 32" fill="none" xmlns="http://www.w3.org/2000/svg">
<rect width="32" height="32" rx="16" fill="#EAEDF6"/>
<path d="M20.0664 24.25H7.85156C6.79297 24.25 6.03906 23.2187 6.36328 22.2109L7.64844 18.1953C8.0625 16.9062 9.47266 16.2383 10.7305 16.7266C11.5664 17.0508 12.6406 17.3047 13.957 17.3047C15.2734 17.3047 16.3477 17.0508 17.1836 16.7266C17.4492 16.625 17.7266 16.5703 17.9961 16.5664L18.0508 16.5977C18.0469 16.6562 18.0469 16.7109 18.0469 16.7695C18.0469 16.8281 18.0469 16.8867 18.0508 16.9414L17.9883 16.9766C17.3594 17.3398 17.1406 18.1484 17.5039 18.7773L17.9648 19.5742C18.1992 19.9805 18.6367 20.2344 19.1094 20.2344C19.3398 20.2344 19.5703 20.1719 19.7695 20.0586L19.832 20.0234C19.9297 20.0859 20.0273 20.1406 20.1289 20.1953V20.2656C20.1289 20.9609 20.6719 21.5352 21.3555 21.582L21.5547 22.2031C21.8789 23.2187 21.1289 24.25 20.0664 24.25ZM13.9609 7.75C11.7383 7.75 9.93359 9.55469 9.93359 11.7773C9.93359 14 11.7383 15.8047 13.9609 15.8047C16.1836 15.8047 17.9883 14 17.9883 11.7773C17.9883 9.55469 16.1836 7.75 13.9609 7.75ZM25.6406 18.3906L25.1797 19.1875C25.0313 19.4453 24.7031 19.5352 24.4453 19.3828L23.9375 19.0898C23.636 19.3514 23.2873 19.553 22.9102 19.6836V20.2695C22.9102 20.5664 22.668 20.8086 22.3711 20.8086H21.4492C21.1523 20.8086 20.9102 20.5664 20.9102 20.2695V19.6836C20.5273 19.5547 20.1797 19.3516 19.8828 19.0898L19.375 19.3828C19.1172 19.5312 18.7891 19.4414 18.6406 19.1875L18.1797 18.3906C18.0313 18.1328 18.1211 17.8047 18.375 17.6562L18.8789 17.3633C18.8398 17.1719 18.8203 16.9727 18.8203 16.7695C18.8203 16.5664 18.8398 16.3672 18.8789 16.1758L18.375 15.8828C18.1172 15.7344 18.0273 15.4062 18.1797 15.1484L18.6406 14.3516C18.7891 14.0937 19.1172 14.0039 19.375 14.1562L19.8828 14.4492C20.1797 14.1914 20.5273 13.9883 20.9102 13.8555V13.2734C20.9102 12.9766 21.1523 12.7344 21.4492 12.7344H22.3711C22.668 12.7344 22.9102 12.9766 22.9102 13.2734V13.8555C23.293 13.9844 23.6406 14.1875 23.9375 14.4492L24.4453 14.1562C24.7031 14.0078 25.0313 14.0937 25.1797 14.3516L25.6406 15.1484C25.7891 15.4062 25.6992 15.7344 25.4453 15.8828L24.9375 16.1758C24.9766 16.3672 24.9961 16.5664 24.9961 16.7695C24.9961 16.9727 24.9766 17.1719 24.9375 17.3633L25.4453 17.6562C25.6992 17.8047 25.7891 18.1328 25.6406 18.3906ZM23.2539 16.7695C23.2539 16.0273 22.6523 15.4297 21.9141 15.4297C21.1719 15.4297 20.5742 16.0312 20.5742 16.7695C20.5742 17.5117 21.1758 18.1094 21.9141 18.1094C22.6523 18.1133 23.2539 17.5117 23.2539 16.7695Z" fill="url(#paint0_linear_3059_26629)"/>
<defs>
<linearGradient id="paint0_linear_3059_26629" x1="8.47301" y1="11.5696" x2="20.934" y2="24.0309" gradientUnits="userSpaceOnUse">
<stop stop-color="#5D6B8A"/>
<stop offset="1" stop-color="#5D6B8A"/>
</linearGradient>
</defs>
</svg>
