<svg width="40" height="40" viewBox="0 0 40 40" fill="none" xmlns="http://www.w3.org/2000/svg">
<g clip-path="url(#clip0_2154_41427)">
<path d="M9.375 12.961V25.9375H9.82812C11.9688 25.9375 13.6016 26.3828 15.0859 27.3594C17.1641 28.7266 18.5391 31.0078 18.7422 33.4375C18.7812 33.8438 18.8047 28.4297 18.7969 21.3672L18.7812 8.55472L18.5625 7.65628C17.875 4.82816 16.4844 2.7266 14.4141 1.39066C13.1562 0.578159 11.7109 0.101597 10.2188 0.0234718L9.375 -0.0234032V12.961Z" fill="#065EA9"/>
<path d="M4.6875 18.8281V32.9688H8.14844C12.9219 32.9688 14.0313 33.0703 15.7188 33.6719C16.0938 33.7969 16.4219 33.9062 16.4531 33.9062C16.5547 33.9062 16.4141 32.9297 16.2188 32.3047C15.9375 31.4062 15.5234 30.7578 14.7656 30C14.2344 29.4688 13.9531 29.25 13.3828 28.9609C12.1797 28.3359 11.8203 28.2812 9.24219 28.2812H7.03125V16.4844V4.6875H5.85938H4.6875V18.8281Z" fill="#065EA9"/>
<path d="M25.875 7.15625C24.4844 7.375 22.4609 8.07031 21.3906 8.69531L21.0547 8.89062L21.1094 9.85156C21.1328 10.3828 21.1641 16.3281 21.1641 23.0625L21.1719 35.3125L21.8281 34.8828C22.7031 34.3125 23.9531 33.7188 24.7812 33.4844C26.2422 33.0625 26.75 33.0234 31.1953 32.9922L35.3125 32.9531V19.9922V7.03125L30.9609 7.03906C27.6016 7.04688 26.4375 7.07031 25.875 7.15625Z" fill="#065EA9"/>
<path d="M0 23.5078V37.6484L6.42969 37.6719L12.8516 37.7031L13.5156 37.8828C14.7422 38.2188 15.8438 38.8281 16.6016 39.6016L16.9844 40H20H23.0156L23.3594 39.6484C24.1328 38.8594 25.2578 38.2266 26.5469 37.875C27.1328 37.7031 27.2812 37.7031 33.5781 37.6719L40 37.6484V24.6797V11.7188H38.8281H37.6562V23.5156V35.3047L32.0547 35.3281L26.4453 35.3594L25.7109 35.5703C24.5859 35.8984 23.8047 36.2734 22.7266 36.9922L21.7422 37.6562H19.9844H18.2266L17.6484 37.2422C16.4375 36.375 15.4609 35.8906 14.1641 35.5312C13.5703 35.3672 13.4141 35.3594 7.95312 35.3359L2.34375 35.3047V22.3438V9.375H1.17188H0V23.5078Z" fill="#065EA9"/>
</g>
<defs>
<clipPath id="clip0_2154_41427">
<rect width="40" height="40" fill="white"/>
</clipPath>
</defs>
</svg>
