<svg width="90" height="90" viewBox="0 0 90 90" fill="none" xmlns="http://www.w3.org/2000/svg">
<g opacity="0.05" clip-path="url(#clip0_2154_41433)">
<path d="M21.0938 29.1621V58.3593H22.1133C26.9297 58.3593 30.6035 59.3613 33.9434 61.5586C38.6191 64.6347 41.7129 69.7675 42.1699 75.2343C42.2578 76.1484 42.3105 63.9668 42.293 48.0761L42.2578 19.248L41.7656 17.2265C40.2188 10.8632 37.0898 6.13473 32.4316 3.12887C29.6016 1.30074 26.3496 0.228477 22.9922 0.0526962L21.0938 -0.0527725V29.1621Z" fill="#065EA9"/>
<path d="M10.5469 42.3633V74.1797H18.334C29.0742 74.1797 31.5703 74.4082 35.3672 75.7617C36.2109 76.043 36.9492 76.2891 37.0195 76.2891C37.248 76.2891 36.9316 74.0918 36.4922 72.6855C35.8594 70.6641 34.9277 69.2051 33.2227 67.5C32.0273 66.3047 31.3945 65.8125 30.1113 65.1621C27.4043 63.7559 26.5957 63.6328 20.7949 63.6328H15.8203V37.0898V10.5469H13.1836H10.5469V42.3633Z" fill="#065EA9"/>
<path d="M58.2188 16.1016C55.0898 16.5938 50.5371 18.1582 48.1289 19.5645L47.373 20.0039L47.4961 22.166C47.5488 23.3613 47.6191 36.7383 47.6191 51.8906L47.6367 79.4531L49.1133 78.4863C51.082 77.2031 53.8945 75.8672 55.7578 75.3398C59.0449 74.3906 60.1875 74.3027 70.1895 74.2324L79.4531 74.1445V44.9824V15.8203L69.6621 15.8379C62.1035 15.8555 59.4844 15.9082 58.2188 16.1016Z" fill="#065EA9"/>
<path d="M0 52.8926V84.709L14.4668 84.7617L28.916 84.832L30.4102 85.2363C33.1699 85.9922 35.6484 87.3633 37.3535 89.1035L38.2148 90H45H51.7852L52.5586 89.209C54.2988 87.4336 56.8301 86.0098 59.7305 85.2188C61.0488 84.832 61.3828 84.832 75.5508 84.7617L90 84.709V55.5293V26.3672H87.3633H84.7266V52.9102V79.4355L72.123 79.4883L59.502 79.5586L57.8496 80.0332C55.3184 80.7715 53.5605 81.6152 51.1348 83.2324L48.9199 84.7266H44.9648H41.0098L39.709 83.7949C36.9844 81.8438 34.7871 80.7539 31.8691 79.9453C30.5332 79.5762 30.1816 79.5586 17.8945 79.5059L5.27344 79.4355V50.2734V21.0938H2.63672H0V52.8926Z" fill="#065EA9"/>
</g>
<defs>
<clipPath id="clip0_2154_41433">
<rect width="90" height="90" fill="white"/>
</clipPath>
</defs>
</svg>
