<svg width="40" height="40" viewBox="0 0 40 40" fill="none" xmlns="http://www.w3.org/2000/svg">
<g clip-path="url(#clip0_2154_41559)">
<path d="M12.7349 0.156252C11.4771 0.562502 10.4927 1.57031 10.1255 2.82813C9.94586 3.45313 9.96149 4.53906 10.1568 5.10938C10.4068 5.83594 10.7037 6.3125 11.2193 6.79688C13.4459 8.875 17.0005 7.82813 17.7662 4.86719C18.1099 3.54688 17.7193 2.17969 16.7193 1.16406C15.899 0.335939 15.0709 -0.00781059 13.8755 0.00781441C13.4224 0.00781441 13.0084 0.0625019 12.7349 0.156252Z" fill="#065EA9"/>
<path d="M24.7966 0.187594C24.0778 0.453219 23.6638 0.726657 23.1794 1.24228C21.7185 2.82041 21.7653 5.20322 23.281 6.71884C24.8122 8.25009 27.1872 8.28134 28.7966 6.78134C30.1013 5.56259 30.3903 3.53134 29.4841 1.92197C29.2185 1.44541 28.5466 0.781344 28.0622 0.507907C27.1091 -0.0311556 25.7419 -0.163968 24.7966 0.187594Z" fill="#065EA9"/>
<path d="M15.8755 8.84375C15.0943 9.15625 14.5474 9.24219 13.6334 9.20313C13.0396 9.17188 12.7115 9.10938 12.2662 8.95313C11.9459 8.83594 11.6099 8.71875 11.524 8.69531C11.274 8.64063 10.0709 9.53906 9.10211 10.5078C7.05523 12.5547 5.81305 15.0469 5.22711 18.2813C5.07086 19.125 4.92242 22.0313 5.0318 22.0313C5.07086 22.0313 5.28961 21.9766 5.5318 21.9063C6.04742 21.75 6.9068 21.7969 7.37555 21.9922C7.53961 22.0625 7.68805 22.1094 7.70367 22.0938C7.7193 22.0781 7.76617 21.5391 7.81305 20.8984C7.94586 18.9609 8.25836 17.3516 8.83648 15.5781C9.31305 14.1172 9.46148 13.7969 9.75836 13.6797C10.0943 13.5391 10.4537 13.6875 10.5943 14.0313C10.6959 14.2656 10.6802 14.3438 10.438 15.0234C9.89898 16.5078 9.47711 18.1641 9.25836 19.6953C9.14117 20.5156 9.0943 22.5781 9.18805 23.0156C9.25055 23.3047 9.9068 23.8125 11.1255 24.5078C11.5943 24.7734 12.7662 25.3125 12.8834 25.3125C12.9224 25.3125 12.9693 25.0547 13.0005 24.7422C13.2349 22.2422 14.2818 19.7188 15.7115 18.2422L16.0162 17.9219L15.8365 17.6563C15.5709 17.2578 15.2662 16.5078 15.1568 16.0078C15.0162 15.3594 15.0865 14.0625 15.3052 13.4375C15.774 12.0781 16.9771 10.8281 18.2271 10.3828C18.3834 10.3281 18.5162 10.2656 18.5084 10.2344C18.5005 10.1719 17.5474 9.39063 16.9693 8.98438L16.4459 8.61719L15.8755 8.84375Z" fill="#065EA9"/>
<path d="M28.1637 8.78906C27.0309 9.29687 25.484 9.35937 24.4137 8.94531C23.5465 8.61719 23.6012 8.60937 22.8824 9.13281C21.9996 9.76562 21.523 10.1953 21.5855 10.2891C21.6168 10.3359 21.7262 10.3984 21.8355 10.4219C22.148 10.5 22.9137 10.9844 23.3434 11.3672C23.8668 11.8359 24.4215 12.6797 24.6715 13.3828C24.8277 13.8203 24.8824 14.1406 24.9059 14.8047C24.9449 15.8594 24.8199 16.4062 24.3355 17.3203L23.9996 17.9531L24.234 18.1797C24.648 18.5703 25.3199 19.5234 25.7027 20.2578C26.3668 21.5234 26.859 23.2266 26.9996 24.7422C27.0309 25.0547 27.0777 25.3125 27.1168 25.3125C27.234 25.3125 28.4215 24.7656 28.9371 24.4687C29.2184 24.3125 29.7496 23.9687 30.109 23.7187C30.6168 23.3594 30.7809 23.1953 30.8121 23.0234C30.8355 22.8984 30.859 22.2812 30.859 21.6484C30.859 19.7266 30.4371 17.4922 29.6559 15.2812C29.3277 14.3516 29.3121 14.2578 29.4059 14.0312C29.6168 13.5156 30.3277 13.4922 30.5855 13.9844C30.7809 14.3594 31.3277 16.0391 31.5621 16.9531C31.9371 18.4375 32.0934 19.4922 32.234 21.4219C32.2574 21.8047 32.2965 22.1094 32.3121 22.1094C32.3355 22.1094 32.4762 22.0547 32.6402 21.9844C33.0855 21.7969 34.023 21.7578 34.523 21.9062C34.7574 21.9766 34.984 22.0312 35.023 22.0312C35.1324 22.0312 35.0309 19.6953 34.8824 18.6719C34.3043 14.7734 32.4293 11.4375 29.6402 9.35156C28.609 8.57812 28.6246 8.58594 28.1637 8.78906Z" fill="#065EA9"/>
<path d="M19.0863 11.5235C18.1488 11.7813 17.2425 12.4844 16.8441 13.2657C16.0863 14.7579 16.3285 16.3985 17.4613 17.5391C18.5863 18.6563 20.2581 18.9063 21.7191 18.1641C22.2191 17.9141 22.9144 17.2188 23.1644 16.7188C23.9066 15.2579 23.6566 13.586 22.5394 12.461C21.641 11.5626 20.2972 11.2032 19.0863 11.5235Z" fill="#065EA9"/>
<path d="M0.499905 18.75C0.406155 18.7813 0.257718 18.9141 0.163968 19.0313C-0.164157 19.4531 -0.117282 19.6172 1.49209 23.1563C2.31241 24.9688 3.14834 26.6875 3.34366 26.9922C3.58584 27.375 4.49209 28.3438 6.35147 30.2188L9.01553 32.8906H12.0077H14.9999V31.75C14.9999 30.9922 14.9608 30.4297 14.8749 30.0547C14.6171 28.9141 13.8046 27.5391 13.0702 27C12.8593 26.8438 12.328 26.5625 11.8749 26.3594C10.328 25.6641 9.54678 25.1875 8.0624 24.0078C7.57803 23.6172 7.04678 23.2656 6.88272 23.2109C6.34366 23.0547 5.75772 23.125 5.27334 23.4141C5.13272 23.4922 5.13272 23.5156 5.23428 23.7266C5.29678 23.8438 6.27334 24.8828 7.39834 26.0234C9.22647 27.875 9.45303 28.1328 9.45303 28.3594C9.45303 28.5313 9.38272 28.6797 9.22647 28.8359C8.78115 29.2734 8.75772 29.2578 6.61709 27.125C3.92959 24.4531 3.89834 24.4063 2.49209 21.1328C1.71084 19.3125 1.54678 19 1.32803 18.8438C1.06241 18.6641 0.781155 18.6328 0.499905 18.75Z" fill="#065EA9"/>
<path d="M38.6797 18.8438C38.4375 19 38.2969 19.2734 37.4688 21.2109C36.9453 22.4141 36.4219 23.5703 36.2969 23.7891C35.8203 24.6094 35.2578 25.2578 33.4219 27.0859C31.2969 29.2109 31.2109 29.2656 30.7812 28.8438C30.6172 28.6797 30.5469 28.5312 30.5469 28.3594C30.5469 28.1328 30.7734 27.875 32.6016 26.0234C33.7266 24.8828 34.7031 23.8438 34.7656 23.7266C34.8672 23.5156 34.8672 23.4922 34.7266 23.4141C34.2422 23.125 33.6562 23.0547 33.1172 23.2109C32.9531 23.2656 32.3906 23.6406 31.8594 24.0547C30.3203 25.2656 29.8047 25.5781 27.9688 26.4297C27.5625 26.625 27.0781 26.8828 26.9062 27.0156C26.2812 27.4766 25.6094 28.5156 25.2344 29.6094C25.0859 30.0391 25.0469 30.3359 25.0156 31.5L24.9844 32.8906H27.9844H30.9844L33.6016 30.25C35.0391 28.8047 36.3438 27.4375 36.5 27.2266C36.875 26.7031 37.1797 26.0781 38.7031 22.7266C40.1406 19.5625 40.1797 19.4219 39.7891 18.9844C39.4844 18.6484 39.0469 18.5938 38.6797 18.8438Z" fill="#065EA9"/>
<path d="M16.5547 19.2734C16.1172 19.7734 15.5859 20.5938 15.2969 21.2266C14.7344 22.4688 14.3281 24.2188 14.2812 25.6016L14.2656 26.2422L14.5781 26.6172C14.7422 26.8203 14.9844 27.125 15.1094 27.2891C15.2266 27.4531 15.3594 27.5625 15.3906 27.5234C15.4219 27.4922 15.5078 27.2109 15.5781 26.9141C15.8125 25.8594 16.3516 24.6406 17.0391 23.6172C17.5781 22.8203 17.8672 22.7031 18.2891 23.1172C18.5938 23.4297 18.5859 23.7109 18.25 24.1562C17.375 25.2969 16.7031 27.2891 16.4922 29.3828C16.3906 30.2969 16.375 30.7266 16.3906 31.9219L16.4062 32.875L16.7578 32.9609C16.9688 33.0156 17.2109 33.1562 17.375 33.3203L17.6484 33.5938H20H22.3516L22.625 33.3203C22.7891 33.1562 23.0312 33.0156 23.2422 32.9609L23.5938 32.875L23.6016 31.8828C23.6172 30.4844 23.5938 30.0781 23.4688 29.0781C23.2031 27.0078 22.7031 25.5547 21.7891 24.2031C21.4219 23.6641 21.4062 23.4297 21.7109 23.1172C22.1172 22.7188 22.4375 22.8438 22.9531 23.6094C23.6484 24.6406 24.2266 25.9609 24.4531 27.0156C24.5078 27.2812 24.5781 27.5234 24.6094 27.5391C24.6406 27.5547 24.8984 27.2734 25.1953 26.8984L25.7266 26.2344L25.7109 25.6328C25.6484 23.2891 24.75 20.75 23.4766 19.3281L23.0703 18.8672L22.7578 19.0781C21.7578 19.7422 21 19.9531 19.8047 19.8984C18.8047 19.8594 18.3906 19.7422 17.5469 19.2578C17.2031 19.0625 16.9141 18.9062 16.9062 18.9062C16.8984 18.9062 16.7422 19.0703 16.5547 19.2734Z" fill="#065EA9"/>
<path d="M8.51562 37.1094V40H12.5H16.4844V37.1094V34.2188H12.5H8.51562V37.1094ZM15.3203 36.5703C15.7422 36.7891 15.7344 37.4766 15.3047 37.6953C15.0547 37.8281 14.2031 37.8516 13.9766 37.7344C13.7578 37.6172 13.5781 37.2266 13.6406 36.9922C13.7266 36.6328 14.0234 36.4844 14.625 36.4844C14.9219 36.4844 15.2344 36.5234 15.3203 36.5703Z" fill="#065EA9"/>
<path d="M23.5156 37.1094V40H27.5H31.4844V37.1094V34.2188H27.5H23.5156V37.1094ZM26.1172 36.6406C26.375 36.8438 26.4375 37.1328 26.2891 37.4219C26.125 37.7344 25.9531 37.8125 25.3906 37.8125C24.5781 37.8125 24.1875 37.4453 24.4141 36.8984C24.5547 36.5625 24.7188 36.4922 25.3594 36.4844C25.7969 36.4844 25.9609 36.5156 26.1172 36.6406Z" fill="#065EA9"/>
</g>
<defs>
<clipPath id="clip0_2154_41559">
<rect width="40" height="40" fill="white"/>
</clipPath>
</defs>
</svg>
