<svg width="90" height="90" viewBox="0 0 90 90" fill="none" xmlns="http://www.w3.org/2000/svg">
<g opacity="0.05" clip-path="url(#clip0_2154_41547)">
<path d="M28.6526 0.351566C25.8225 1.26563 23.6077 3.53321 22.7815 6.36329C22.3772 7.76954 22.4124 10.2129 22.8518 11.4961C23.4143 13.1309 24.0823 14.2031 25.2424 15.293C30.2522 19.9688 38.2503 17.6133 39.9729 10.9512C40.7463 7.98047 39.8674 4.9043 37.6174 2.61915C35.7717 0.755863 33.9085 -0.0175743 31.219 0.0175819C30.1995 0.0175819 29.2678 0.140629 28.6526 0.351566Z" fill="#065EA9"/>
<path d="M55.7933 0.421873C54.1761 1.01953 53.2445 1.63476 52.1546 2.79492C48.8675 6.3457 48.973 11.707 52.3832 15.1172C55.8285 18.5625 61.1722 18.6328 64.7933 15.2578C67.7289 12.5156 68.3792 7.94531 66.3402 4.32422C65.7425 3.25195 64.2308 1.75781 63.141 1.14258C60.9964 -0.0703144 57.9203 -0.369143 55.7933 0.421873Z" fill="#065EA9"/>
<path d="M35.7185 19.8984C33.9607 20.6016 32.7302 20.7949 30.6736 20.707C29.3377 20.6367 28.5994 20.4961 27.5974 20.1445C26.8767 19.8809 26.1209 19.6172 25.9275 19.5645C25.365 19.4414 22.658 21.4629 20.4783 23.6426C15.8728 28.2481 13.0779 33.8555 11.7595 41.1328C11.408 43.0313 11.074 49.5703 11.3201 49.5703C11.408 49.5703 11.9002 49.4473 12.4451 49.2891C13.6052 48.9375 15.5388 49.043 16.5935 49.4824C16.9627 49.6406 17.2966 49.7461 17.3318 49.7109C17.367 49.6758 17.4724 48.4629 17.5779 47.0215C17.8767 42.6621 18.5798 39.041 19.8806 35.0508C20.9529 31.7637 21.2869 31.043 21.9548 30.7793C22.7107 30.4629 23.5193 30.7969 23.8357 31.5703C24.0642 32.0977 24.0291 32.2734 23.4841 33.8027C22.2712 37.1426 21.322 40.8691 20.8298 44.3145C20.5662 46.1602 20.4607 50.8008 20.6716 51.7852C20.8123 52.4355 22.2888 53.5781 25.031 55.1426C26.0857 55.7402 28.7224 56.9531 28.9861 56.9531C29.074 56.9531 29.1795 56.373 29.2498 55.6699C29.7771 50.0449 32.1326 44.3672 35.3494 41.0449L36.0349 40.3242L35.6306 39.7266C35.033 38.8301 34.3474 37.1426 34.1013 36.0176C33.7849 34.5586 33.9431 31.6406 34.4353 30.2344C35.49 27.1758 38.197 24.3633 41.0095 23.3613C41.3611 23.2383 41.6599 23.0977 41.6423 23.0273C41.6248 22.8867 39.4802 21.1289 38.1795 20.2148L37.0017 19.3887L35.7185 19.8984Z" fill="#065EA9"/>
<path d="M63.3697 19.7754C60.8209 20.918 57.3404 21.0586 54.9322 20.1269C52.981 19.3887 53.1041 19.3711 51.4869 20.5488C49.5006 21.9727 48.4283 22.9394 48.5689 23.1504C48.6392 23.2559 48.8853 23.3965 49.1314 23.4492C49.8346 23.625 51.5572 24.7148 52.524 25.5762C53.7017 26.6309 54.9498 28.5293 55.5123 30.1113C55.8638 31.0957 55.9869 31.8164 56.0396 33.3105C56.1275 35.6836 55.8463 36.9141 54.7564 38.9707L54.0006 40.3945L54.5279 40.9043C55.4596 41.7832 56.9713 43.9277 57.8326 45.5801C59.3267 48.4277 60.4342 52.2598 60.7506 55.6699C60.8209 56.373 60.9263 56.9531 61.0142 56.9531C61.2779 56.9531 63.9498 55.7227 65.1099 55.0547C65.7428 54.7031 66.9381 53.9297 67.7467 53.3672C68.8892 52.5586 69.2584 52.1895 69.3287 51.8027C69.3814 51.5215 69.4342 50.1328 69.4342 48.709C69.4342 44.3848 68.4849 39.3574 66.7271 34.3828C65.9888 32.291 65.9537 32.0801 66.1646 31.5703C66.6392 30.4102 68.2388 30.3574 68.8189 31.4648C69.2584 32.3086 70.4888 36.0879 71.0162 38.1445C71.8599 41.4844 72.2115 43.8574 72.5279 48.1992C72.5806 49.0605 72.6685 49.7461 72.7037 49.7461C72.7564 49.7461 73.0728 49.623 73.442 49.4648C74.4439 49.043 76.5533 48.9551 77.6783 49.2891C78.2056 49.4473 78.7154 49.5703 78.8033 49.5703C79.0494 49.5703 78.8209 44.3145 78.4869 42.0117C77.1861 33.2402 72.9674 25.7344 66.692 21.041C64.3717 19.3008 64.4068 19.3184 63.3697 19.7754Z" fill="#065EA9"/>
<path d="M42.9439 25.9278C40.8345 26.5078 38.7954 28.0899 37.8989 29.8477C36.1939 33.2051 36.7388 36.8965 39.2876 39.4629C41.8189 41.9766 45.5806 42.5391 48.8677 40.8692C49.9927 40.3067 51.5571 38.7422 52.1196 37.6172C53.7896 34.3301 53.2271 30.5684 50.7134 28.0371C48.6919 26.0156 45.6685 25.2071 42.9439 25.9278Z" fill="#065EA9"/>
<path d="M1.12527 42.1875C0.914337 42.2578 0.580353 42.5566 0.369415 42.8203C-0.368866 43.7695 -0.263397 44.1387 3.3577 52.1016C5.2034 56.1797 7.08426 60.0469 7.52371 60.7324C8.06863 61.5938 10.1077 63.7734 14.2913 67.9922L20.2854 74.0039H27.0179H33.7503V71.4375C33.7503 69.7324 33.6624 68.4668 33.469 67.623C32.8889 65.0566 31.0608 61.9629 29.4085 60.75C28.9339 60.3984 27.7386 59.7656 26.719 59.3086C23.2386 57.7441 21.4807 56.6719 18.1409 54.0176C17.0511 53.1387 15.8557 52.3477 15.4866 52.2246C14.2737 51.873 12.9554 52.0312 11.8655 52.6816C11.5491 52.8574 11.5491 52.9102 11.7776 53.3848C11.9182 53.6484 14.1155 55.9863 16.6468 58.5527C20.76 62.7188 21.2698 63.2988 21.2698 63.8086C21.2698 64.1953 21.1116 64.5293 20.76 64.8809C19.7581 65.8652 19.7054 65.8301 14.8889 61.0312C8.84207 55.0195 8.77176 54.9141 5.6077 47.5488C3.84988 43.4531 3.48074 42.75 2.98856 42.3984C2.3909 41.9941 1.75809 41.9238 1.12527 42.1875Z" fill="#065EA9"/>
<path d="M87.0293 42.3984C86.4844 42.75 86.168 43.3652 84.3047 47.7246C83.127 50.4316 81.9492 53.0332 81.668 53.5254C80.5957 55.3711 79.3301 56.8301 75.1992 60.9434C70.418 65.7246 70.2246 65.8477 69.2578 64.8984C68.8887 64.5293 68.7305 64.1953 68.7305 63.8086C68.7305 63.2988 69.2402 62.7188 73.3535 58.5527C75.8848 55.9863 78.082 53.6484 78.2227 53.3848C78.4512 52.9102 78.4512 52.8574 78.1348 52.6816C77.0449 52.0312 75.7266 51.873 74.5137 52.2246C74.1445 52.3477 72.8789 53.1914 71.6836 54.123C68.2207 56.8477 67.0605 57.5508 62.9297 59.4668C62.0156 59.9062 60.9258 60.4863 60.5391 60.7852C59.1328 61.8223 57.6211 64.1602 56.7773 66.6211C56.4434 67.5879 56.3555 68.2559 56.2852 70.875L56.2148 74.0039H62.9648H69.7148L75.6035 68.0625C78.8379 64.8105 81.7734 61.7344 82.125 61.2598C82.9688 60.082 83.6543 58.6758 87.082 51.1348C90.3164 44.0156 90.4043 43.6992 89.5254 42.7148C88.8398 41.959 87.8555 41.8359 87.0293 42.3984Z" fill="#065EA9"/>
<path d="M37.248 43.3652C36.2637 44.4902 35.0684 46.3359 34.418 47.7598C33.1523 50.5547 32.2383 54.4922 32.1328 57.6035L32.0977 59.0449L32.8008 59.8887C33.1699 60.3457 33.7148 61.0312 33.9961 61.4004C34.2598 61.7695 34.5586 62.0156 34.6289 61.9277C34.6992 61.8574 34.8926 61.2246 35.0508 60.5566C35.5781 58.1836 36.791 55.4414 38.3379 53.1387C39.5508 51.3457 40.2012 51.082 41.1504 52.0137C41.8359 52.7168 41.8184 53.3496 41.0625 54.3516C39.0938 56.918 37.582 61.4004 37.1074 66.1113C36.8789 68.168 36.8438 69.1348 36.8789 71.8242L36.9141 73.9688L37.7051 74.1621C38.1797 74.2852 38.7246 74.6016 39.0938 74.9707L39.709 75.5859H45H50.291L50.9062 74.9707C51.2754 74.6016 51.8203 74.2852 52.2949 74.1621L53.0859 73.9688L53.1035 71.7363C53.1387 68.5898 53.0859 67.6758 52.8047 65.4258C52.207 60.7676 51.082 57.498 49.0254 54.457C48.1992 53.2441 48.1641 52.7168 48.8496 52.0137C49.7637 51.1172 50.4844 51.3984 51.6445 53.1211C53.209 55.4414 54.5098 58.4121 55.0195 60.7852C55.1426 61.3828 55.3008 61.9277 55.3711 61.9629C55.4414 61.998 56.0215 61.3652 56.6895 60.5215L57.8848 59.0273L57.8496 57.6738C57.709 52.4004 55.6875 46.6875 52.8223 43.4883L51.9082 42.4512L51.2051 42.9258C48.9551 44.4199 47.25 44.8945 44.5605 44.7715C42.3105 44.6836 41.3789 44.4199 39.4805 43.3301C38.707 42.8906 38.0566 42.5391 38.0391 42.5391C38.0215 42.5391 37.6699 42.9082 37.248 43.3652Z" fill="#065EA9"/>
<path d="M19.1602 83.4961V90H28.125H37.0898V83.4961V76.9922H28.125H19.1602V83.4961ZM34.4707 82.2832C35.4199 82.7754 35.4023 84.3223 34.4355 84.8145C33.873 85.1133 31.957 85.166 31.4473 84.9023C30.9551 84.6387 30.5508 83.7598 30.6914 83.2324C30.8848 82.4238 31.5527 82.0898 32.9062 82.0898C33.5742 82.0898 34.2773 82.1777 34.4707 82.2832Z" fill="#065EA9"/>
<path d="M52.9102 83.4961V90H61.875H70.8398V83.4961V76.9922H61.875H52.9102V83.4961ZM58.7637 82.4414C59.3438 82.8984 59.4844 83.5488 59.1504 84.1992C58.7812 84.9023 58.3945 85.0781 57.1289 85.0781C55.3008 85.0781 54.4219 84.252 54.9316 83.0215C55.248 82.2656 55.6172 82.1074 57.0586 82.0898C58.043 82.0898 58.4121 82.1602 58.7637 82.4414Z" fill="#065EA9"/>
</g>
<defs>
<clipPath id="clip0_2154_41547">
<rect width="90" height="90" fill="white"/>
</clipPath>
</defs>
</svg>
