<svg width="20" height="6" viewBox="0 0 20 6" fill="none" xmlns="http://www.w3.org/2000/svg">
<path fill-rule="evenodd" clip-rule="evenodd" d="M0.105718 1.10183C0.247265 1.23227 0.95382 1.62416 1.09478 2.01605C1.23632 2.4074 1.51942 4.91266 2.36752 5.56599C3.24216 6.23843 6.54139 5.9879 7.17304 5.69698C8.58674 5.04474 8.76014 2.93792 9.0102 2.01551C9.15116 1.49317 9.99926 1.49317 9.99926 1.49317C9.99926 1.49317 10.8474 1.49317 10.9889 2.01496C11.239 2.93792 11.4136 5.05075 12.8261 5.7019C13.4583 5.9939 16.7575 6.24443 17.6334 5.57199C18.4803 4.91866 18.7628 2.40685 18.9043 2.01496C19.0447 1.62362 19.7524 1.23173 19.8934 1.10128C20.0355 0.970832 20.0355 0.448493 19.8934 0.317499C19.6109 0.0566031 16.2757 -0.175911 12.6845 0.187051C11.9679 0.259644 11.6955 0.447947 9.99867 0.447947C8.30306 0.447947 8.0294 0.259098 7.31341 0.187051C3.7246 -0.175366 0.388812 0.0571486 0.105718 0.318045C-0.0352393 0.448493 -0.0352393 0.971377 0.105718 1.10183Z" fill="white"/>
</svg>
