<svg width="299" height="491" viewBox="0 0 299 491" fill="none" xmlns="http://www.w3.org/2000/svg">
<path d="M275.641 473C289.201 471.348 305.954 462.473 315.688 432.138C315.688 432.138 330.493 456.814 309.553 456.135C309.032 477.913 295.087 469.582 293.208 470.6C287.775 473.566 288.681 486.99 275.188 480.81C261.108 485.496 263.462 472.253 258.368 468.722C256.625 467.499 241.843 474.291 243.676 452.581C222.804 450.996 240.167 428.064 240.167 428.064C246.642 459.259 262.33 469.899 275.641 473Z" fill="url(#paint0_linear_1790_785)"/>
<path d="M124.057 414.526C136.009 421.159 154.754 423.831 180.471 405.018C180.471 405.018 177.935 433.678 161.409 420.82C148.189 438.138 141.805 423.197 139.7 422.925C133.542 422.133 126.411 433.52 119.121 420.593C104.973 416.111 114.662 406.784 112.624 400.921C111.923 398.906 95.9853 395.714 110.225 379.234C94.2648 365.696 121.793 357.342 121.793 357.342C108.663 386.387 115.115 404.203 124.057 414.526Z" fill="url(#paint1_linear_1790_785)"/>
<path d="M35.7909 278.131C41.5637 290.537 55.1692 303.712 87.0209 303.599C87.0209 303.599 68.1408 325.309 62.3001 305.184C41.4278 311.432 45.0499 295.585 43.4879 294.114C38.9829 289.858 26.5093 294.861 28.2072 280.123C19.401 268.193 32.7348 266.337 34.5232 260.383C35.1344 258.346 24.1097 246.393 45.3442 241.435C40.3865 221.083 67.5748 230.523 67.5748 230.523C39.8884 246.325 34.6138 264.526 35.7909 278.131Z" fill="url(#paint2_linear_1790_785)"/>
<path d="M44.5516 115.907C41.9256 129.331 45.2081 147.985 71.0382 166.639C71.0382 166.639 42.9896 173.091 50.1206 153.396C29.5652 146.174 41.8124 135.489 41.4049 133.384C40.273 127.294 27.2108 124.011 37.2621 113.077C37.1489 98.2493 49.0339 104.565 53.969 100.83C55.6669 99.5397 53.7653 83.3987 73.8453 91.8427C81.7913 72.4645 98.2492 96.0761 98.2492 96.0761C66.5558 92.5672 51.6147 104.203 44.5516 115.907Z" fill="url(#paint3_linear_1790_785)"/>
<path d="M146.989 -10.1872C136.983 -0.882893 128.652 16.141 138.59 46.4081C138.59 46.4081 112.104 35.157 129.445 23.4078C117.062 5.47844 133.248 4.02959 134.153 2.10535C136.825 -3.48626 128.177 -13.8092 142.733 -16.7522C151.358 -28.8183 157.244 -16.7069 163.447 -16.8427C165.575 -16.888 173.544 -31.0595 184.817 -12.4283C202.634 -23.4304 202.068 5.34258 202.068 5.34258C178.524 -16.1183 159.576 -15.5071 146.989 -10.1872Z" fill="url(#paint4_linear_1790_785)"/>
<path d="M257.554 -57.0712C236.772 -53.9697 249.902 -7.22209 258.459 2.37646C228.69 -15.4171 228.328 -70.4276 262.081 -69.9975C272.517 -69.8617 278.992 -55.3733 270.367 -44.7108C262.036 -34.3878 244.356 -44.5523 257.554 -57.0712Z" fill="url(#paint5_linear_1790_785)"/>
<path d="M106.444 12.9938C91.4581 27.7086 129.558 57.8172 142.122 60.5564C107.599 63.6578 74.9549 19.3777 102.528 -0.1363C111.04 -6.15803 124.804 1.7653 124.102 15.4613C123.4 28.7046 103.117 30.8779 106.444 12.9938Z" fill="url(#paint6_linear_1790_785)"/>
<path d="M25.3546 158.489C21.8684 179.226 70.3818 181.173 82.1762 175.989C56.0745 198.785 3.62207 182.146 14.4657 150.181C17.8162 140.288 33.5949 138.636 41.0881 150.113C48.3097 161.229 33.1874 174.902 25.3546 158.489Z" fill="url(#paint7_linear_1790_785)"/>
<path d="M45.2988 323.861C54.671 342.673 95.0574 315.734 101.554 304.641C93.8349 338.44 41.6315 355.803 31.6028 323.544C28.5014 313.583 40.2958 302.943 53.109 307.855C65.4694 312.587 61.2813 332.531 45.2988 323.861Z" fill="url(#paint8_linear_1790_785)"/>
<path d="M158.625 445.925C177.256 455.637 194.099 410.089 192.831 397.298C206.46 429.173 174.427 473.906 147.352 453.713C138.975 447.464 142.281 431.935 155.524 428.381C168.314 424.962 176.645 443.548 158.625 445.925Z" fill="url(#paint9_linear_1790_785)"/>
<path d="M184.727 -37.6701C204.309 -45.3217 216.148 1.76551 213.5 14.3523C230.478 -15.8696 203.448 -63.7944 174.359 -46.6348C165.371 -41.3375 166.979 -25.536 179.746 -20.5783C192.107 -15.779 202.407 -33.3688 184.727 -37.6701Z" fill="url(#paint10_linear_1790_785)"/>
<path d="M58.9042 71.4915C70.2459 53.7885 107.508 84.9385 112.76 96.665C108.731 62.2325 58.7004 39.368 45.2534 70.3369C41.088 79.9128 51.6826 91.7526 64.9486 88.2437C77.7617 84.8706 75.7469 64.5868 58.9042 71.4915Z" fill="url(#paint11_linear_1790_785)"/>
<path d="M21.3023 233.761C20.0799 212.775 68.5254 216.058 79.6633 222.464C56.165 196.974 2.24104 207.885 9.57579 240.846C11.8396 251.033 27.3693 254.384 36.0397 243.767C44.4158 233.489 30.8556 218.276 21.3023 233.761Z" fill="url(#paint12_linear_1790_785)"/>
<path d="M86.2512 387.134C72.9174 370.88 114.051 345.072 126.841 343.692C92.8389 336.877 55.6218 377.4 80.9312 399.766C88.764 406.671 103.275 400.264 104.045 386.568C104.792 373.347 84.8703 369.001 86.2512 387.134Z" fill="url(#paint13_linear_1790_785)"/>
<path d="M228.939 473.046C208.61 467.726 226.697 422.676 236.228 414.051C204.716 428.517 198.422 483.188 232.04 486.402C242.431 487.398 250.422 473.68 242.997 462.134C235.843 450.996 217.167 459.191 228.939 473.046Z" fill="url(#paint14_linear_1790_785)"/>
<path d="M185.383 481.286C183.12 475.853 182.916 468.088 187.24 459.146C195.593 441.873 193.692 432.909 193.692 432.909C202.362 441.624 194.371 455.116 192.175 463.742C196.34 455.886 199.464 440.492 211.757 439.881C211.757 439.881 204.332 445.246 198.921 463.651C196.069 473.159 190.703 478.773 185.383 481.286Z" fill="url(#paint15_linear_1790_785)"/>
<path d="M46.1592 368.186C47.5175 362.459 51.9093 356.052 60.6702 351.366C77.5808 342.288 81.2935 333.935 81.2935 333.935C83.1951 346.091 68.7746 352.294 61.9379 357.976C69.9292 354.06 81.4972 343.465 91.7976 350.166C91.7976 350.166 82.6518 350.143 67.439 361.847C59.5836 367.914 51.9319 369.295 46.1592 368.186Z" fill="url(#paint16_linear_1790_785)"/>
<path d="M-5.36332e-07 194.868C4.4597 191.043 11.7944 188.439 21.642 189.775C40.658 192.378 48.5813 187.805 48.5813 187.805C42.9897 198.762 27.6637 195.299 18.7896 195.887C27.5506 197.427 43.1482 195.638 47.54 207.138C47.54 207.138 40.16 201.728 20.9629 202.271C11.0248 202.52 4.02958 199.147 -5.36332e-07 194.868Z" fill="url(#paint17_linear_1790_785)"/>
<path d="M64.541 27.5053C70.4043 27.0299 77.8522 29.2258 85.0285 36.1078C98.883 49.3963 107.984 50.3471 107.984 50.3471C97.0267 55.9161 86.6584 44.1216 79.1199 39.3676C85.3228 45.7516 98.9736 53.4938 95.7816 65.3562C95.7816 65.3562 92.9745 56.6405 77.1504 45.7969C68.9554 40.1826 65.2881 33.3459 64.541 27.5053Z" fill="url(#paint18_linear_1790_785)"/>
<path d="M249.789 60.1945C254.927 63.0696 260.745 64.8127 267.537 64.9712C261.425 66.42 256.037 66.5105 251.215 65.5597C247.502 68.7743 242.771 71.4004 236.749 73.1661C242.59 69.6572 246.755 65.2428 249.789 60.1945Z" fill="url(#paint19_linear_1790_785)"/>
<path d="M233.829 355.622C231.361 350.279 227.671 345.434 222.283 341.314C228.079 343.737 232.493 346.838 235.843 350.437C240.733 350.007 246.098 350.664 252.007 352.769C245.238 352.203 239.239 353.335 233.829 355.622Z" fill="url(#paint20_linear_1790_785)"/>
<path d="M159.236 295.019C160.391 289.246 160.255 283.156 158.308 276.659C161.591 282.024 163.334 287.118 163.922 292.008C168.133 294.543 172.072 298.233 175.626 303.417C170.465 298.935 164.964 296.332 159.236 295.019Z" fill="url(#paint21_linear_1790_785)"/>
<path d="M134.493 202.113C138.817 198.128 142.281 193.125 144.522 186.696C144.024 192.967 142.439 198.106 140.04 202.407C141.964 206.935 142.982 212.232 142.801 218.503C141.262 211.892 138.342 206.55 134.493 202.113Z" fill="url(#paint22_linear_1790_785)"/>
<path d="M169.084 112.421C174.924 111.719 180.674 109.727 186.266 105.856C182.169 110.633 177.867 113.87 173.408 115.93C172.298 120.729 170.012 125.597 166.186 130.577C168.812 124.329 169.604 118.284 169.084 112.421Z" fill="url(#paint23_linear_1790_785)"/>
<path d="M303.283 -39.277C294.069 -38.6431 284.47 -32.5761 282.297 -29.3162C277.973 -22.9323 284.697 -19.5366 283.067 -17.6576C279.082 -18.1783 269.597 -18.8801 267.175 -14.3298C261.198 -3.28242 262.76 8.30828 264.617 14.9186C266.043 19.9669 273.536 16.4806 274.079 18.6312C272.336 21.1441 268.805 26.6451 269.733 29.2485C270.933 32.6216 282.206 48.0381 295.586 51.3433C296.65 51.6149 297.578 51.6829 298.393 51.6149C299.185 51.7734 300.113 51.796 301.2 51.6602C314.873 49.8039 327.732 35.7004 329.294 32.4631C330.493 29.9729 327.573 24.1323 326.124 21.4383C326.894 19.3556 333.98 23.6343 335.927 18.7671C338.485 12.4058 341.292 1.06407 336.538 -10.5719C334.614 -15.3259 325.106 -15.6654 321.099 -15.5749C319.672 -17.635 326.736 -20.2836 323.113 -27.0751C321.257 -30.584 312.383 -37.647 303.283 -39.277ZM153.894 0.498134C146.831 6.42932 142.62 16.9787 142.756 20.8951C143.005 28.592 150.453 27.3922 150.226 29.8824C146.695 31.8066 138.613 36.8096 139.315 41.9032C140.967 54.3542 149.072 62.8208 154.437 67.0541C158.557 70.314 162.564 63.0698 164.285 64.496C164.353 67.5521 164.737 74.0719 167.001 75.634C169.944 77.6714 188.123 83.512 200.913 78.3053C201.932 77.8978 202.724 77.4224 203.335 76.8791C204.082 76.5395 204.852 76.0188 205.644 75.2491C215.605 65.7185 217.733 46.7251 217.099 43.2162C216.601 40.4997 210.829 37.4888 208.067 36.1758C207.478 34.0478 215.696 33.346 214.428 28.2524C212.753 21.6195 208.361 10.7758 197.676 4.16552C193.307 1.44894 185.429 6.76888 182.237 9.19119C179.882 8.37621 184.025 2.08279 177.098 -1.29026C173.544 -3.03339 162.202 -3.53147 153.894 0.498134ZM56.4141 120.503C54.1729 129.445 56.9801 140.469 59.4023 143.548C64.1337 149.638 69.431 144.273 70.7214 146.423C69.0009 150.045 65.4014 158.852 68.9556 162.564C77.626 171.665 89.1262 173.747 95.9629 174.042C101.215 174.245 100.219 166.051 102.415 166.186C104.271 168.631 108.414 173.68 111.176 173.589C114.752 173.498 132.886 167.545 140.198 155.818C140.786 154.89 141.148 154.03 141.307 153.237C141.714 152.536 142.031 151.653 142.212 150.566C144.68 136.983 135.24 120.389 132.637 117.922C130.644 116.02 124.193 116.971 121.182 117.537C119.439 116.156 125.687 110.746 121.68 107.395C116.428 103.003 106.49 96.8232 93.9707 97.7514C88.8319 98.1136 85.5946 107.056 84.4401 110.904C82.0404 111.629 81.7009 104.09 74.1171 105.426C70.246 106.082 60.7606 112.353 56.4141 120.503ZM48.0833 274.872C51.5469 283.429 60.2852 290.696 64.0432 291.76C71.4458 293.91 72.6004 286.44 74.8868 287.436C75.6339 291.375 77.8977 300.611 82.946 301.539C95.3064 303.826 105.856 298.732 111.538 294.929C115.907 292.009 110.27 285.964 112.149 284.787C115.092 285.67 121.408 287.323 123.581 285.648C126.411 283.474 137.594 267.99 136.621 254.226C136.553 253.139 136.327 252.234 136.01 251.487C135.919 250.672 135.647 249.789 135.172 248.793C129.173 236.364 111.787 228.486 108.233 228.011C105.493 227.649 100.853 232.199 98.7473 234.44C96.5288 234.35 98.4078 226.29 93.1784 225.928C86.3417 225.475 74.6831 226.29 65.0845 234.418C61.1455 237.723 63.7715 246.868 65.0845 250.649C63.5677 252.641 58.8817 246.755 53.5164 252.302C50.7999 255.086 46.8156 265.726 48.0833 274.872ZM132.071 404.656C139.903 409.546 151.222 410.293 154.912 408.935C162.157 406.331 158.716 399.608 161.138 399.064C164.058 401.826 171.325 407.961 175.943 405.72C187.285 400.287 192.831 389.986 195.208 383.58C197.019 378.645 188.915 377.06 189.73 375.023C192.628 374.004 198.695 371.627 199.487 369.001C200.506 365.56 200.438 346.476 191.564 335.927C190.862 335.089 190.16 334.478 189.458 334.07C188.915 333.459 188.168 332.893 187.194 332.395C175.038 325.853 156.339 329.701 153.192 331.399C150.77 332.712 149.683 339.141 149.276 342.175C147.442 343.397 144.227 335.791 139.768 338.575C133.972 342.22 125.008 349.759 122.042 361.961C120.797 366.941 128.313 372.804 131.595 375.091C131.55 377.581 124.283 375.589 123.196 383.218C122.631 387.066 125.687 398 132.071 404.656ZM276.321 460.3C285.534 459.667 295.133 453.6 297.306 450.34C301.63 443.956 294.906 440.56 296.536 438.681C300.521 439.202 310.006 439.881 312.428 435.353C318.405 424.306 316.843 412.715 314.986 406.105C313.56 401.057 306.067 404.543 305.524 402.392C307.267 399.879 310.798 394.378 309.87 391.775C308.67 388.402 297.397 372.985 284.017 369.68C282.954 369.408 282.025 369.341 281.21 369.408C280.418 369.25 279.49 369.227 278.403 369.363C264.73 371.22 251.871 385.323 250.309 388.56C249.11 391.05 252.03 396.891 253.479 399.585C252.709 401.668 245.623 397.389 243.676 402.256C241.118 408.618 238.311 419.959 243.065 431.595C244.989 436.349 254.497 436.689 258.527 436.598C259.953 438.658 252.89 441.307 256.512 448.098C258.346 451.607 267.243 458.67 276.321 460.3ZM425.709 420.503C432.772 414.571 436.983 404.022 436.847 400.106C436.598 392.409 429.15 393.609 429.377 391.118C432.908 389.194 440.99 384.191 440.288 379.098C438.636 366.647 430.531 358.18 425.166 353.947C421.046 350.687 417.039 357.908 415.318 356.505C415.25 353.449 414.866 346.929 412.602 345.367C409.659 343.352 391.481 337.511 378.69 342.696C377.671 343.103 376.879 343.578 376.268 344.122C375.521 344.461 374.751 344.982 373.959 345.752C363.998 355.282 361.87 374.276 362.504 377.785C363.002 380.501 368.775 383.512 371.536 384.825C372.125 386.953 363.907 387.655 365.175 392.748C366.85 399.381 371.242 410.225 381.927 416.835C386.296 419.552 394.174 414.232 397.366 411.81C399.721 412.625 395.578 418.918 402.505 422.291C406.059 424.057 417.424 424.532 425.709 420.503ZM523.189 300.521C525.43 291.579 522.623 280.554 520.201 277.475C515.469 271.386 510.172 276.751 508.882 274.6C510.602 270.978 514.202 262.172 510.647 258.459C501.977 249.359 490.477 247.276 483.64 246.982C478.388 246.778 479.384 254.973 477.188 254.837C475.332 252.392 471.189 247.344 468.427 247.434C464.851 247.525 446.717 253.479 439.405 265.205C438.817 266.133 438.455 266.994 438.296 267.786C437.889 268.488 437.572 269.371 437.391 270.457C434.923 284.04 444.363 300.634 446.966 303.101C448.959 305.003 455.41 304.052 458.421 303.486C460.164 304.867 453.916 310.278 457.923 313.628C463.175 318.02 473.113 324.2 485.632 323.272C490.771 322.91 494.008 313.968 495.163 310.119C497.563 309.395 497.902 316.933 505.486 315.598C509.38 314.941 518.842 308.648 523.189 300.521ZM531.542 146.152C528.079 137.594 519.34 130.328 515.583 129.264C508.18 127.113 507.025 134.561 504.739 133.587C503.992 129.648 501.728 120.412 496.68 119.484C484.319 117.197 473.77 122.291 468.088 126.094C463.719 129.015 469.356 135.059 467.477 136.236C464.534 135.353 458.218 133.701 456.044 135.376C453.215 137.549 442.031 153.034 443.005 166.798C443.073 167.884 443.299 168.79 443.616 169.537C443.707 170.352 443.978 171.235 444.454 172.231C450.453 184.659 467.839 192.537 471.393 193.012C474.132 193.375 478.773 188.802 480.878 186.583C483.097 186.674 481.218 194.733 486.447 195.095C493.284 195.548 504.943 194.733 514.541 186.606C518.48 183.301 515.854 174.155 514.541 170.374C516.058 168.382 520.744 174.268 526.109 168.722C528.826 165.937 532.787 155.275 531.542 146.152ZM447.532 16.3448C439.7 11.4549 428.381 10.7079 424.691 12.0662C417.446 14.6696 420.887 21.3931 418.465 21.9364C415.545 19.1745 408.278 13.0396 403.66 15.2808C392.318 20.7139 386.772 31.0143 384.395 37.4208C382.584 42.3559 390.688 43.9406 389.873 45.9781C386.976 46.9968 380.909 49.3738 380.116 51.9998C379.097 55.4408 379.165 74.5247 388.04 85.074C388.741 85.9116 389.443 86.5229 390.145 86.9304C390.688 87.5416 391.435 88.1075 392.409 88.6056C404.565 95.148 423.264 91.2995 426.411 89.6016C428.833 88.2886 429.92 81.8594 430.327 78.8259C432.161 77.6035 435.376 85.2099 439.835 82.4254C445.631 78.7806 454.596 71.2421 457.561 59.0402C458.806 54.0598 451.29 48.1966 448.008 45.9101C448.053 43.4199 455.32 45.4121 456.407 37.7831C456.973 33.9572 453.916 23.0004 447.532 16.3448ZM301.132 0.815052C294.137 2.82982 286.96 9.55336 290.899 18.3822C291.465 19.6726 293.027 19.3783 294.408 18.7897C295.45 23.9512 299.276 23.2494 300.045 20.8045C300.543 23.3173 304.279 24.4266 305.863 19.4009C307.176 20.148 308.693 20.6008 309.395 19.3783C314.262 11.0249 307.855 3.57689 301.132 0.815052ZM175.717 34.2289C171.257 39.9563 169.378 49.6228 177.754 54.4674C178.977 55.1692 180.063 54.0146 180.833 52.7242C184.727 56.2784 187.398 53.4713 186.583 51.0264C188.462 52.7695 192.129 51.4791 190.477 46.4761C191.971 46.295 193.465 45.797 193.329 44.3708C192.356 34.7496 182.78 32.4858 175.717 34.2289ZM93.8802 134.946C93.6311 142.213 97.7965 151.109 107.418 150.113C108.821 149.977 109.025 148.393 108.889 146.899C114.119 147.487 114.639 143.639 112.557 142.145C115.115 142.439 117.311 139.247 113.032 136.168C114.141 135.15 115.047 133.859 114.119 132.795C107.644 125.596 98.5889 129.399 93.8802 134.946ZM86.885 264.526C90.9598 270.548 99.5623 275.302 106.761 268.827C107.825 267.877 107.056 266.496 106.059 265.364C110.655 262.76 108.799 259.342 106.241 259.387C108.482 258.12 108.391 254.249 103.116 254.271C103.411 252.8 103.388 251.215 102.007 250.921C92.5219 248.883 87.4283 257.282 86.885 264.526ZM157.403 373.483C164.239 375.974 173.996 374.751 176.011 365.288C176.305 363.907 174.879 363.228 173.408 362.889C175.604 358.089 172.095 356.414 170.035 357.954C171.099 355.622 168.744 352.543 164.511 355.667C163.877 354.286 162.926 353.018 161.636 353.607C152.762 357.501 153.577 367.303 157.403 373.483ZM278.494 420.186C285.489 418.171 292.665 411.447 288.726 402.619C288.16 401.328 286.598 401.622 285.217 402.211C284.176 397.05 280.35 397.751 279.58 400.196C279.082 397.683 275.347 396.574 273.762 401.6C272.449 400.853 270.933 400.4 270.231 401.622C265.341 409.976 271.77 417.446 278.494 420.186ZM403.886 386.795C408.346 381.067 410.225 371.401 401.849 366.556C400.626 365.854 399.54 367.009 398.77 368.299C394.876 364.745 392.205 367.552 393.02 369.997C391.141 368.254 387.474 369.544 389.126 374.547C387.632 374.728 386.115 375.226 386.274 376.653C387.27 386.274 396.846 388.515 403.886 386.795ZM485.723 286.055C485.972 278.788 481.807 269.891 472.185 270.887C470.782 271.023 470.578 272.608 470.714 274.102C465.484 273.514 464.964 277.362 467.046 278.856C464.488 278.562 462.292 281.754 466.571 284.833C465.462 285.851 464.556 287.142 465.484 288.206C471.959 295.405 481.037 291.624 485.723 286.055ZM492.718 156.475C488.643 150.453 480.041 145.699 472.842 152.173C471.778 153.124 472.548 154.505 473.544 155.637C468.948 158.24 470.804 161.659 473.362 161.613C471.121 162.881 471.212 166.752 476.487 166.73C476.192 168.201 476.215 169.786 477.596 170.08C487.081 172.14 492.197 163.719 492.718 156.475ZM422.2 47.5174C415.364 45.0272 405.607 46.2497 403.592 55.7124C403.298 57.0933 404.724 57.7725 406.195 58.1121C403.999 62.9114 407.508 64.5866 409.568 63.0472C408.504 65.3789 410.859 68.4577 415.092 65.3336C415.726 66.7145 416.677 67.9823 417.967 67.3937C426.841 63.4999 426.049 53.6976 422.2 47.5174ZM300.136 19.3104C300.091 19.0387 300 18.7444 299.864 18.4502C299.366 17.3182 299.321 14.8281 300.475 12.9264C301.426 14.9186 301.087 17.3861 300.475 18.4728C300.317 18.767 300.204 19.0387 300.136 19.3104ZM185.768 49.7586C185.564 49.5549 185.338 49.3964 185.044 49.2153C183.98 48.5814 182.463 46.5893 182.305 44.3934C184.251 45.4574 185.429 47.6533 185.564 48.8758C185.61 49.1927 185.678 49.487 185.768 49.7586ZM111.153 141.601C110.881 141.556 110.587 141.556 110.27 141.579C109.025 141.692 106.648 140.967 105.222 139.292C107.418 139.021 109.659 140.085 110.497 140.99C110.7 141.239 110.927 141.443 111.153 141.601ZM104.769 259.772C104.52 259.908 104.271 260.066 104.045 260.293C103.116 261.108 100.762 261.923 98.6115 261.425C100.219 259.908 102.664 259.455 103.886 259.704C104.203 259.75 104.497 259.772 104.769 259.772ZM169.061 359.131C168.948 359.38 168.835 359.674 168.767 359.968C168.495 361.168 167.069 363.228 165.032 364.066C165.439 361.893 167.16 360.082 168.292 359.561C168.586 359.448 168.858 359.289 169.061 359.131ZM279.49 401.713C279.535 401.985 279.626 402.279 279.762 402.573C280.26 403.705 280.305 406.195 279.15 408.097C278.2 406.105 278.539 403.637 279.15 402.551C279.286 402.256 279.399 401.985 279.49 401.713ZM393.835 371.265C394.039 371.469 394.265 371.627 394.559 371.808C395.623 372.442 397.14 374.434 397.298 376.63C395.352 375.566 394.174 373.37 394.039 372.148C393.993 371.808 393.925 371.514 393.835 371.265ZM468.45 279.399C468.722 279.445 469.016 279.445 469.333 279.422C470.578 279.309 472.955 280.033 474.381 281.708C472.185 281.98 469.944 280.916 469.107 280.011C468.925 279.762 468.699 279.558 468.45 279.399ZM474.834 161.229C475.083 161.093 475.332 160.934 475.558 160.708C476.487 159.893 478.841 159.078 480.992 159.576C479.384 161.093 476.939 161.545 475.717 161.296C475.423 161.251 475.128 161.229 474.834 161.229ZM410.542 61.8927C410.655 61.6436 410.768 61.3493 410.836 61.055C411.108 59.8552 412.534 57.7951 414.571 56.9575C414.164 59.1308 412.443 60.9418 411.311 61.4625C411.017 61.5531 410.768 61.7115 410.542 61.8927ZM299.14 37.4435C295.133 37.1718 290.764 35.3155 286.53 31.2633C268.103 12.1794 279.535 -15.3259 302.558 -25.83C324.313 -12.9263 332.712 15.6656 312.338 32.6669C307.697 36.2437 303.169 37.602 299.14 37.4435ZM195.638 65.0167C192.22 67.1447 187.624 68.2313 181.807 67.439C155.682 62.8434 148.755 33.844 161.206 11.8172C186.402 9.48544 209.991 27.6638 203.494 53.3807C201.864 59.0176 198.989 62.7755 195.638 65.0167ZM128.109 148.144C126.615 151.879 123.513 155.456 118.329 158.218C94.4914 169.854 71.8533 150.475 68.9783 125.325C87.9716 108.618 117.763 109.455 127.634 134.086C129.603 139.632 129.49 144.363 128.109 148.144ZM122.336 255.109C123.31 259.002 122.902 263.734 120.367 269.009C107.916 292.439 78.2146 290.062 61.1228 271.408C66.6918 246.733 91.2768 229.89 113.734 244.016C118.556 247.344 121.25 251.215 122.336 255.109ZM180.539 345.027C183.618 347.608 186.062 351.66 187.104 357.433C190.794 383.693 165.371 399.245 140.583 394.197C130.577 370.971 140.583 342.899 167.046 341.133C172.91 340.975 177.369 342.537 180.539 345.027ZM280.463 383.557C284.47 383.829 288.839 385.685 293.073 389.737C311.5 408.821 300.068 436.327 277.045 446.831C255.29 433.927 246.891 405.335 267.265 388.334C271.906 384.757 276.434 383.399 280.463 383.557ZM383.965 356.007C387.383 353.879 391.979 352.792 397.797 353.584C423.921 358.18 430.848 387.179 418.397 409.206C393.201 411.538 369.612 393.36 376.109 367.643C377.762 362.006 380.614 358.225 383.965 356.007ZM451.517 272.857C453.011 269.122 456.112 265.545 461.296 262.783C485.134 251.147 507.772 270.525 510.647 295.676C491.654 312.383 461.862 311.545 451.992 286.915C450 281.369 450.113 276.638 451.517 272.857ZM457.289 165.915C456.316 162.021 456.723 157.29 459.259 152.015C471.71 128.584 501.411 130.961 518.503 149.615C512.934 174.291 488.349 191.133 465.892 177.007C461.07 173.68 458.376 169.786 457.289 165.915ZM399.087 75.9962C396.008 73.4154 393.563 69.3632 392.522 63.5905C388.832 37.3303 414.254 21.7779 439.043 26.8262C449.049 50.0529 439.043 78.1241 412.579 79.8899C406.716 80.0484 402.234 78.4863 399.087 75.9962ZM297.714 63.8169C287.64 63.749 278.539 60.2174 274.577 54.7843C260.972 36.1758 261.764 18.6539 252.347 15.077C243.948 11.9077 241.458 21.4384 241.684 24.6077C233.806 12.7906 242.431 -16.6389 228.599 -19.3555C217.96 -10.0965 240.077 11.1154 239.104 25.3095C237.723 22.4344 230.818 15.4166 225.113 22.3439C218.707 30.1314 228.124 44.9367 225.566 67.8464C224.819 74.5473 218.684 82.1311 209.991 87.202C201.796 93.0653 192.356 95.5555 185.949 93.4954C163.99 86.455 154.347 71.7855 144.635 74.4341C135.987 76.8112 139.564 85.9795 141.601 88.4019C128.267 83.4667 117.967 54.6032 105.177 60.5117C102.007 74.253 132.365 78.4185 139.926 90.4619C137.119 88.9678 127.407 87.3152 126.864 96.2799C126.253 106.331 142.575 112.783 153.984 132.818C157.312 138.681 156.814 148.415 152.762 157.629C149.57 167.182 143.412 174.744 137.006 176.849C115.115 184.048 98.6794 177.868 92.3634 185.723C86.7492 192.718 95.0347 198.038 98.1361 198.808C84.4627 202.656 59.1533 185.361 52.2713 197.676C57.7724 210.648 84.8023 196.182 98.0003 201.479C94.8536 201.909 86.0247 206.301 90.8466 213.862C96.2572 222.351 113.258 217.982 134.267 227.49C140.401 230.275 145.721 238.447 147.849 248.295C150.883 257.893 150.34 267.65 146.401 273.106C132.908 291.805 115.975 296.446 115.5 306.52C115.069 315.485 124.894 314.919 127.86 313.719C119.054 324.879 88.4017 325.762 90.077 339.753C102.188 347.019 115.545 319.424 129.331 315.96C127.022 318.156 122.472 326.894 130.826 330.177C140.198 333.867 151.381 320.329 173.951 315.688C180.539 314.33 189.662 317.816 197.178 324.54C205.282 330.516 210.557 338.734 210.58 345.457C210.647 368.503 199.691 382.222 205.237 390.643C210.172 398.136 217.778 391.911 219.454 389.194C218.888 403.388 194.62 422.11 204.196 432.456C218.231 431.233 212.821 401.057 221.944 390.145C221.378 393.269 222.827 403.026 231.52 400.762C241.277 398.227 242.363 380.705 257.893 363.681C262.421 358.701 271.861 356.165 281.867 357.184C291.941 357.252 301.041 360.783 305.003 366.216C318.609 384.825 317.816 402.37 327.234 405.924C335.632 409.093 338.123 399.562 337.896 396.393C345.774 408.21 337.149 437.64 350.981 440.356C361.621 431.097 339.503 409.885 340.477 395.691C341.858 398.566 348.762 405.584 354.467 398.657C360.874 390.869 351.456 376.064 354.014 353.154C354.762 346.453 360.896 338.87 369.589 333.799C377.784 327.935 387.225 325.445 393.631 327.505C415.59 334.546 425.234 349.215 434.946 346.567C443.593 344.19 440.017 335.021 437.979 332.599C451.313 337.534 461.613 366.398 474.404 360.489C477.573 346.748 447.215 342.582 439.654 330.539C442.461 332.033 452.173 333.686 452.717 324.721C453.328 314.67 437.006 308.218 425.596 288.183C422.268 282.32 422.766 272.585 426.819 263.372C430.011 253.818 436.168 246.257 442.575 244.152C464.466 236.953 480.901 243.133 487.194 235.278C492.809 228.283 484.523 222.963 481.422 222.193C495.095 218.344 520.404 235.64 527.286 223.325C521.785 210.353 494.755 224.819 481.557 219.522C484.704 219.092 493.533 214.7 488.711 207.139C483.301 198.649 466.299 203.019 445.291 193.511C439.156 190.726 433.836 182.554 431.708 172.706C428.675 163.108 429.218 153.351 433.157 147.895C446.65 129.196 463.583 124.555 464.058 114.481C464.488 105.516 454.663 106.082 451.698 107.282C460.504 96.1214 491.156 95.2385 489.481 81.2482C477.392 73.9813 464.036 101.577 450.249 105.041C452.558 102.845 457.108 94.1066 448.755 90.8241C439.383 87.1341 428.199 100.672 405.629 105.312C399.042 106.671 389.918 103.184 382.403 96.461C374.298 90.4845 369.024 82.2669 369.001 75.5434C368.933 52.4978 379.89 38.7791 374.343 30.3578C369.408 22.8645 361.802 29.09 360.127 31.8066C360.693 17.6125 384.961 -1.10918 375.385 -11.4548C361.349 -10.2323 366.76 19.9442 357.637 30.8558C358.202 27.7317 356.754 17.9747 348.061 20.2385C338.304 22.774 337.217 40.2959 321.687 57.3198C317.16 62.3001 307.742 64.8356 297.714 63.8169ZM243.427 36.3116C261.221 58.2705 280.667 67.688 297.51 68.0275C314.285 69.499 334.636 62.2322 354.694 42.3107C356.188 70.5404 366.375 89.579 379.799 99.7662C392.499 110.836 413.236 116.903 441.171 112.579C425.777 136.281 422.834 157.674 427.724 173.815C431.505 190.228 444.703 207.342 469.854 220.246C443.48 230.388 428.494 245.963 422.97 261.878C416.382 277.385 417.016 298.981 429.762 324.2C402.46 316.888 381.203 320.691 367.371 330.335C352.928 339.006 340.749 356.844 336.221 384.734C318.427 362.776 298.981 353.358 282.139 353.018C265.364 351.547 245.012 358.814 224.955 378.735C223.461 350.506 213.273 331.467 199.849 321.28C187.149 310.21 166.413 304.143 138.477 308.467C153.871 284.765 156.814 263.372 151.924 247.231C148.144 230.818 134.946 213.704 109.795 200.8C136.168 190.658 151.155 175.083 156.678 159.169C163.266 143.661 162.632 122.065 149.887 96.8458C177.188 104.158 198.445 100.355 212.277 90.7109C226.72 82.0406 238.9 64.2017 243.427 36.3116Z" fill="url(#paint24_linear_1790_785)"/>
<defs>
<linearGradient id="paint0_linear_1790_785" x1="246.26" y1="473.113" x2="277.234" y2="416.034" gradientUnits="userSpaceOnUse">
<stop stop-color="#469DEA"/>
<stop offset="0.911401" stop-color="#61A5E0" stop-opacity="0.88"/>
</linearGradient>
<linearGradient id="paint1_linear_1790_785" x1="115.541" y1="416.875" x2="163.448" y2="358.657" gradientUnits="userSpaceOnUse">
<stop stop-color="#469DEA"/>
<stop offset="0.911401" stop-color="#61A5E0" stop-opacity="0.88"/>
</linearGradient>
<linearGradient id="paint2_linear_1790_785" x1="34.326" y1="299.115" x2="91.3693" y2="251.796" gradientUnits="userSpaceOnUse">
<stop stop-color="#469DEA"/>
<stop offset="0.911401" stop-color="#61A5E0" stop-opacity="0.88"/>
</linearGradient>
<linearGradient id="paint3_linear_1790_785" x1="43.0221" y1="153.365" x2="99.3517" y2="103.245" gradientUnits="userSpaceOnUse">
<stop stop-color="#469DEA"/>
<stop offset="0.911401" stop-color="#61A5E0" stop-opacity="0.88"/>
</linearGradient>
<linearGradient id="paint4_linear_1790_785" x1="135.119" y1="34.6784" x2="180.006" y2="-24.288" gradientUnits="userSpaceOnUse">
<stop stop-color="#469DEA"/>
<stop offset="0.911401" stop-color="#61A5E0" stop-opacity="0.88"/>
</linearGradient>
<linearGradient id="paint5_linear_1790_785" x1="242.021" y1="-10.0141" x2="285.458" y2="-36.1174" gradientUnits="userSpaceOnUse">
<stop stop-color="#469DEA"/>
<stop offset="0.911401" stop-color="#61A5E0" stop-opacity="0.88"/>
</linearGradient>
<linearGradient id="paint6_linear_1790_785" x1="99.5575" y1="49.945" x2="142.111" y2="11.2256" gradientUnits="userSpaceOnUse">
<stop stop-color="#469DEA"/>
<stop offset="0.911401" stop-color="#61A5E0" stop-opacity="0.88"/>
</linearGradient>
<linearGradient id="paint7_linear_1790_785" x1="23.1957" y1="178.943" x2="48.9493" y2="132.98" gradientUnits="userSpaceOnUse">
<stop stop-color="#469DEA"/>
<stop offset="0.911401" stop-color="#61A5E0" stop-opacity="0.88"/>
</linearGradient>
<linearGradient id="paint8_linear_1790_785" x1="41.4765" y1="334.488" x2="59.6833" y2="293.653" gradientUnits="userSpaceOnUse">
<stop stop-color="#469DEA"/>
<stop offset="0.911401" stop-color="#61A5E0" stop-opacity="0.88"/>
</linearGradient>
<linearGradient id="paint9_linear_1790_785" x1="150.614" y1="448.243" x2="192.391" y2="406.705" gradientUnits="userSpaceOnUse">
<stop stop-color="#469DEA"/>
<stop offset="0.911401" stop-color="#61A5E0" stop-opacity="0.88"/>
</linearGradient>
<linearGradient id="paint10_linear_1790_785" x1="176.058" y1="3.29328" x2="219.66" y2="-35.4591" gradientUnits="userSpaceOnUse">
<stop stop-color="#469DEA"/>
<stop offset="0.911401" stop-color="#61A5E0" stop-opacity="0.88"/>
</linearGradient>
<linearGradient id="paint11_linear_1790_785" x1="54.4109" y1="89.6599" x2="77.2194" y2="45.9353" gradientUnits="userSpaceOnUse">
<stop stop-color="#469DEA"/>
<stop offset="0.911401" stop-color="#61A5E0" stop-opacity="0.88"/>
</linearGradient>
<linearGradient id="paint12_linear_1790_785" x1="19.3172" y1="243.11" x2="42.5355" y2="198.15" gradientUnits="userSpaceOnUse">
<stop stop-color="#469DEA"/>
<stop offset="0.911401" stop-color="#61A5E0" stop-opacity="0.88"/>
</linearGradient>
<linearGradient id="paint13_linear_1790_785" x1="80.5798" y1="392.358" x2="121.078" y2="350.125" gradientUnits="userSpaceOnUse">
<stop stop-color="#469DEA"/>
<stop offset="0.911401" stop-color="#61A5E0" stop-opacity="0.88"/>
</linearGradient>
<linearGradient id="paint14_linear_1790_785" x1="214.905" y1="474.059" x2="257.451" y2="449.576" gradientUnits="userSpaceOnUse">
<stop stop-color="#469DEA"/>
<stop offset="0.911401" stop-color="#61A5E0" stop-opacity="0.88"/>
</linearGradient>
<linearGradient id="paint15_linear_1790_785" x1="187.918" y1="473.004" x2="218.195" y2="452.947" gradientUnits="userSpaceOnUse">
<stop stop-color="#469DEA"/>
<stop offset="0.911401" stop-color="#61A5E0" stop-opacity="0.88"/>
</linearGradient>
<linearGradient id="paint16_linear_1790_785" x1="52.8799" y1="362.612" x2="74.5204" y2="329.889" gradientUnits="userSpaceOnUse">
<stop stop-color="#469DEA"/>
<stop offset="0.911401" stop-color="#61A5E0" stop-opacity="0.88"/>
</linearGradient>
<linearGradient id="paint17_linear_1790_785" x1="7.1541" y1="203.829" x2="15.2956" y2="180.375" gradientUnits="userSpaceOnUse">
<stop stop-color="#469DEA"/>
<stop offset="0.911401" stop-color="#61A5E0" stop-opacity="0.88"/>
</linearGradient>
<linearGradient id="paint18_linear_1790_785" x1="70.9384" y1="58.8657" x2="95.7768" y2="26.238" gradientUnits="userSpaceOnUse">
<stop stop-color="#469DEA"/>
<stop offset="0.911401" stop-color="#61A5E0" stop-opacity="0.88"/>
</linearGradient>
<linearGradient id="paint19_linear_1790_785" x1="241.283" y1="70.9455" x2="246.992" y2="55.411" gradientUnits="userSpaceOnUse">
<stop stop-color="#469DEA"/>
<stop offset="0.911401" stop-color="#61A5E0" stop-opacity="0.88"/>
</linearGradient>
<linearGradient id="paint20_linear_1790_785" x1="226.66" y1="353.172" x2="233.602" y2="336.639" gradientUnits="userSpaceOnUse">
<stop stop-color="#469DEA"/>
<stop offset="0.911401" stop-color="#61A5E0" stop-opacity="0.88"/>
</linearGradient>
<linearGradient id="paint21_linear_1790_785" x1="160.858" y1="298.837" x2="178.264" y2="285.922" gradientUnits="userSpaceOnUse">
<stop stop-color="#469DEA"/>
<stop offset="0.911401" stop-color="#61A5E0" stop-opacity="0.88"/>
</linearGradient>
<linearGradient id="paint22_linear_1790_785" x1="135.97" y1="213.058" x2="149.792" y2="208.061" gradientUnits="userSpaceOnUse">
<stop stop-color="#469DEA"/>
<stop offset="0.911401" stop-color="#61A5E0" stop-opacity="0.88"/>
</linearGradient>
<linearGradient id="paint23_linear_1790_785" x1="169.143" y1="126.345" x2="185.902" y2="110.739" gradientUnits="userSpaceOnUse">
<stop stop-color="#469DEA"/>
<stop offset="0.911401" stop-color="#61A5E0" stop-opacity="0.88"/>
</linearGradient>
<linearGradient id="paint24_linear_1790_785" x1="119.106" y1="374.775" x2="456.795" y2="-0.231001" gradientUnits="userSpaceOnUse">
<stop stop-color="#469DEA"/>
<stop offset="0.911401" stop-color="#61A5E0" stop-opacity="0.88"/>
</linearGradient>
</defs>
</svg>
