<svg width="413" height="123" viewBox="0 0 413 123" fill="none" xmlns="http://www.w3.org/2000/svg">
<path d="M216.348 12.8271C206.697 14.0033 194.774 20.3191 187.846 41.9088C187.846 41.9088 177.309 24.347 192.213 24.8303C192.583 9.33089 202.508 15.26 203.845 14.535C207.712 12.4243 207.068 2.87009 216.67 7.26858C226.692 3.93346 225.016 13.3588 228.641 15.8722C229.882 16.7423 240.403 11.9088 239.098 27.3599C253.953 28.4877 241.595 44.8088 241.595 44.8088C236.987 22.5908 225.822 15.0344 216.348 12.8271Z" fill="url(#paint0_linear_1790_3919)"/>
<path d="M324.216 54.4276C315.709 49.7068 302.368 47.8057 284.065 61.1945C284.065 61.1945 285.87 40.7971 297.631 49.9485C307.041 37.6231 311.584 48.2568 313.083 48.4501C317.465 49.014 322.54 40.9099 327.728 50.1096C337.798 53.2998 330.902 59.9378 332.352 64.1107C332.852 65.5447 344.194 67.8164 334.06 79.5457C345.419 89.1805 325.827 95.1257 325.827 95.1257C335.172 74.4705 330.596 61.7906 324.216 54.4276Z" fill="url(#paint1_linear_1790_3919)"/>
<path d="M387.052 151.501C382.943 142.671 373.26 133.294 350.591 133.375C350.591 133.375 364.028 117.924 368.185 132.247C383.04 127.8 380.462 139.078 381.574 140.126C384.78 143.155 393.657 139.594 392.449 150.083C398.716 158.574 389.227 159.895 387.954 164.132C387.519 165.582 395.365 174.089 380.252 177.618C383.781 192.102 364.431 185.383 364.431 185.383C384.135 174.154 387.873 161.2 387.052 151.501Z" fill="url(#paint2_linear_1790_3919)"/>
<path d="M31.7078 132.311C29.8389 141.866 32.1751 155.142 50.5585 168.418C50.5585 168.418 30.5961 173.01 35.6713 158.992C21.0419 153.853 29.7583 146.248 29.4683 144.75C28.6627 140.416 19.3663 138.079 26.5198 130.297C26.4393 119.744 34.8979 124.239 38.4103 121.581C39.6187 120.663 38.2653 109.175 52.5563 115.185C58.2116 101.393 69.9248 118.198 69.9248 118.198C47.3684 115.7 36.7347 123.982 31.7078 132.311Z" fill="url(#paint3_linear_1790_3919)"/>
<path d="M104.613 42.5691C97.4919 49.1911 91.5628 61.3071 98.6358 82.8484C98.6358 82.8484 79.7852 74.8409 92.1267 66.4789C83.3136 53.7185 94.8335 52.6873 95.4779 51.3178C97.3791 47.3382 91.2244 39.9913 101.584 37.8968C107.723 29.3092 111.912 37.929 116.326 37.8323C117.841 37.8001 123.512 27.7142 131.536 40.9741C144.216 33.1438 143.813 53.6218 143.813 53.6218C127.057 38.3479 113.571 38.7829 104.613 42.5691Z" fill="url(#paint4_linear_1790_3919)"/>
<path d="M183.303 9.20143C168.512 11.4087 177.857 44.6794 183.947 51.5107C162.76 38.8469 162.503 -0.304451 186.525 0.00167004C193.953 0.098338 198.561 10.4098 192.422 17.9984C186.493 25.3453 173.91 18.1112 183.303 9.20143Z" fill="url(#paint5_linear_1790_3919)"/>
<path d="M75.7574 59.0674C65.0915 69.54 92.2075 90.9686 101.149 92.9181C76.5791 95.1254 53.346 63.6109 72.9701 49.7226C79.0281 45.4369 88.824 51.076 88.3245 60.8236C87.8251 70.2489 73.389 71.7957 75.7574 59.0674Z" fill="url(#paint6_linear_1790_3919)"/>
<path d="M380.284 118.971C373.614 105.582 344.871 124.755 340.247 132.65C345.741 108.595 382.894 96.2375 390.032 119.197C392.239 126.286 383.845 133.858 374.726 130.362C365.913 126.979 368.893 112.784 380.284 118.971Z" fill="url(#paint7_linear_1790_3919)"/>
<path d="M299.629 32.0808C286.369 25.1689 274.382 57.5856 275.284 66.6887C265.585 44.0035 288.383 12.1667 307.653 26.5384C313.614 30.9852 311.262 42.0378 301.836 44.5674C292.717 47.0163 286.788 33.7725 299.629 32.0808Z" fill="url(#paint8_linear_1790_3919)"/>
<path d="M249.57 12.7783C264.039 16.5646 251.165 48.6268 244.382 54.7654C266.794 44.47 271.289 5.56027 247.363 3.27241C239.968 2.5635 234.28 12.3272 239.565 20.5441C244.672 28.4872 257.948 22.6548 249.57 12.7783Z" fill="url(#paint9_linear_1790_3919)"/>
<path d="M131.472 23.0095C145.408 17.5637 153.835 51.0761 151.95 60.0342C164.033 38.5251 144.796 4.41657 124.092 16.6292C117.696 20.3994 118.84 31.6454 127.927 35.1738C136.724 38.5895 144.055 26.0707 131.472 23.0095Z" fill="url(#paint10_linear_1790_3919)"/>
<path d="M41.9226 100.7C49.9945 88.1011 76.5144 110.271 80.2523 118.617C77.3844 94.1108 41.7776 77.838 32.2072 99.8788C29.2427 106.694 36.783 115.12 46.2244 112.623C55.3436 110.223 53.9097 95.7864 41.9226 100.7Z" fill="url(#paint11_linear_1790_3919)"/>
<path d="M351.138 73.9228C360.628 85.491 331.353 103.858 322.25 104.841C346.45 109.691 372.937 80.8508 354.925 64.9325C349.35 60.0184 339.022 64.578 338.474 74.3256C337.943 83.7509 352.105 86.8444 351.138 73.9228Z" fill="url(#paint12_linear_1790_3919)"/>
<path d="M153.109 0.0344352C156.686 2.20951 160.053 6.59192 161.31 13.5522C163.727 26.9893 168.576 31.3556 168.576 31.3556C159.94 29.97 158.893 18.8529 156.557 12.9721C157.443 19.2396 162.083 29.4061 155.268 34.9001C155.268 34.9001 157.298 28.7133 152.722 15.84C150.354 9.18587 151.095 3.7079 153.109 0.0344352Z" fill="url(#paint13_linear_1790_3919)"/>
<path d="M280.585 6.91426C282.196 10.7811 282.341 16.3074 279.264 22.6715C273.319 34.9647 274.672 41.345 274.672 41.345C268.501 35.142 274.189 25.5394 275.752 19.4008C272.787 24.9916 270.564 35.9475 261.815 36.3826C261.815 36.3826 267.1 32.5641 270.95 19.4653C272.964 12.6984 276.783 8.70266 280.585 6.91426Z" fill="url(#paint14_linear_1790_3919)"/>
<path d="M379.656 87.4079C378.689 91.4842 375.564 96.0438 369.328 99.3789C357.293 105.84 354.651 111.785 354.651 111.785C353.297 103.133 363.56 98.7183 368.426 94.6743C362.739 97.4616 354.506 105.002 347.175 100.233C347.175 100.233 353.684 100.249 364.511 91.9192C370.102 87.6174 375.548 86.6184 379.656 87.4079Z" fill="url(#paint15_linear_1790_3919)"/>
<path d="M45.9341 69.3952C50.107 69.0569 55.4078 70.6197 60.5152 75.5177C70.3755 84.9752 76.8524 85.6519 76.8524 85.6519C69.0544 89.6154 61.6752 81.2212 56.31 77.8377C60.7246 82.3812 70.44 87.8915 68.1682 96.334C68.1682 96.334 66.1704 90.131 54.9083 82.4135C49.0759 78.4178 46.4658 73.552 45.9341 69.3952Z" fill="url(#paint16_linear_1790_3919)"/>
<path d="M177.776 92.6603C181.434 94.7065 185.574 95.9471 190.408 96.0599C186.058 97.0911 182.223 97.1555 178.791 96.4788C176.149 98.7667 172.782 100.636 168.496 101.892C172.653 99.395 175.617 96.2532 177.776 92.6603Z" fill="url(#paint17_linear_1790_3919)"/>
<path d="M246.09 96.3504C247.846 100.153 250.472 103.601 254.307 106.533C250.182 104.809 247.041 102.602 244.656 100.04C241.176 100.346 237.357 99.8788 233.152 98.3804C237.986 98.7832 242.239 97.9937 246.09 96.3504Z" fill="url(#paint18_linear_1790_3919)"/>
<path d="M215.849 21.8658C209.291 22.3169 202.46 26.6348 200.913 28.9549C197.836 33.4984 202.621 35.9152 201.461 37.2525C198.625 36.8819 191.874 36.3824 190.15 39.6209C185.897 47.4834 187.009 55.7326 188.33 60.4372C189.345 64.0301 194.678 61.5489 195.064 63.0795C193.824 64.8679 191.31 68.783 191.971 70.6359C192.825 73.0365 200.849 84.0086 210.371 86.3609C211.128 86.5543 211.788 86.6026 212.368 86.5542C212.932 86.667 213.593 86.6831 214.366 86.5864C224.098 85.2653 233.249 75.2277 234.361 72.9238C235.215 71.1514 233.136 66.9946 232.105 65.0773C232.653 63.5951 237.696 66.6402 239.082 63.1762C240.902 58.6488 242.9 50.5768 239.517 42.2954C238.147 38.9119 231.38 38.6703 228.528 38.7347C227.513 37.2685 232.54 35.3835 229.962 30.55C228.641 28.0527 222.325 23.0258 215.849 21.8658ZM109.527 50.174C104.501 54.3953 101.504 61.9033 101.601 64.6907C101.778 70.1686 107.078 69.3147 106.917 71.087C104.404 72.4565 98.6521 76.0172 99.1515 79.6423C100.328 88.5038 106.096 94.5295 109.914 97.5424C112.846 99.8625 115.698 94.7068 116.923 95.7218C116.971 97.8969 117.245 102.537 118.856 103.649C120.951 105.099 133.888 109.256 142.991 105.55C143.716 105.26 144.28 104.922 144.715 104.535C145.247 104.293 145.795 103.923 146.359 103.375C153.448 96.5918 154.962 83.0741 154.511 80.5768C154.157 78.6434 150.048 76.5005 148.083 75.5661C147.664 74.0516 153.512 73.5521 152.61 69.927C151.418 65.2062 148.292 57.4887 140.687 52.7841C137.578 50.8507 131.971 54.637 129.699 56.3609C128.024 55.7809 130.972 51.3018 126.042 48.9012C123.512 47.6606 115.44 47.3061 109.527 50.174ZM40.1505 135.582C38.5554 141.946 40.5533 149.793 42.2772 151.984C45.6446 156.318 49.4147 152.499 50.3331 154.03C49.1086 156.608 46.5468 162.875 49.0764 165.518C55.2472 171.995 63.4319 173.477 68.2976 173.686C72.0355 173.831 71.3266 167.999 72.8895 168.096C74.2106 169.836 77.1591 173.429 79.1247 173.364C81.6704 173.3 94.5758 169.062 99.7799 160.716C100.199 160.056 100.457 159.444 100.569 158.88C100.859 158.38 101.085 157.752 101.214 156.978C102.97 147.311 96.2514 135.502 94.3986 133.745C92.9808 132.392 88.3889 133.069 86.2461 133.472C85.0055 132.489 89.4523 128.638 86.6005 126.253C82.8626 123.128 75.7896 118.729 66.8798 119.39C63.2225 119.648 60.9185 126.012 60.0968 128.751C58.3889 129.266 58.1473 123.901 52.7498 124.852C49.9947 125.319 43.2439 129.782 40.1505 135.582ZM34.2214 245.448C36.6865 251.538 42.9056 256.71 45.5801 257.467C50.8487 258.998 51.6704 253.681 53.2977 254.39C53.8293 257.193 55.4405 263.767 59.0334 264.427C67.8304 266.055 75.3385 262.43 79.3825 259.723C82.492 257.644 78.4802 253.343 79.8175 252.505C81.912 253.133 86.4072 254.309 87.9539 253.117C89.9679 251.57 97.9271 240.55 97.2343 230.754C97.1859 229.981 97.0248 229.336 96.7992 228.804C96.7348 228.224 96.5415 227.596 96.2031 226.887C91.9335 218.042 79.5597 212.435 77.0302 212.097C75.0807 211.839 71.7778 215.077 70.2794 216.672C68.7004 216.608 70.0377 210.872 66.3159 210.614C61.4502 210.292 53.1526 210.872 46.3213 216.656C43.5178 219.008 45.3868 225.518 46.3213 228.208C45.2418 229.626 41.9067 225.437 38.0882 229.384C36.1548 231.366 33.3191 238.939 34.2214 245.448ZM93.9958 337.816C99.5704 341.296 107.626 341.828 110.253 340.861C115.408 339.008 112.959 334.223 114.683 333.837C116.762 335.802 121.933 340.168 125.22 338.573C133.292 334.707 137.24 327.376 138.931 322.816C140.22 319.304 134.452 318.176 135.032 316.726C137.095 316.001 141.413 314.309 141.976 312.44C142.701 309.991 142.653 296.409 136.337 288.901C135.838 288.305 135.338 287.87 134.839 287.58C134.452 287.145 133.921 286.742 133.228 286.388C124.576 281.731 111.268 284.47 109.028 285.679C107.304 286.613 106.531 291.189 106.241 293.348C104.936 294.218 102.648 288.804 99.4738 290.786C95.3492 293.38 88.969 298.745 86.8583 307.429C85.9722 310.974 91.3213 315.147 93.6575 316.774C93.6252 318.547 88.4534 317.129 87.68 322.558C87.2772 325.297 89.4523 333.079 93.9958 337.816ZM196.66 377.419C203.217 376.968 210.048 372.65 211.595 370.33C214.672 365.786 209.887 363.369 211.047 362.032C213.883 362.403 220.634 362.886 222.358 359.664C226.611 351.801 225.499 343.552 224.178 338.847C223.163 335.254 217.83 337.736 217.444 336.205C218.684 334.417 221.198 330.501 220.537 328.649C219.683 326.248 211.66 315.276 202.138 312.924C201.38 312.73 200.72 312.682 200.14 312.73C199.576 312.617 198.915 312.601 198.142 312.698C188.41 314.019 179.259 324.057 178.147 326.361C177.293 328.133 179.372 332.29 180.403 334.207C179.855 335.689 174.812 332.644 173.426 336.108C171.606 340.636 169.608 348.708 172.991 356.989C174.361 360.373 181.128 360.614 183.996 360.55C185.011 362.016 179.984 363.901 182.562 368.734C183.867 371.232 190.199 376.259 196.66 377.419ZM302.981 349.094C308.007 344.873 311.004 337.365 310.908 334.578C310.73 329.1 305.43 329.954 305.591 328.181C308.104 326.812 313.856 323.251 313.357 319.626C312.18 310.765 306.412 304.739 302.594 301.726C299.662 299.406 296.81 304.545 295.585 303.547C295.537 301.371 295.263 296.731 293.652 295.62C291.557 294.186 278.62 290.029 269.517 293.718C268.792 294.008 268.228 294.347 267.793 294.733C267.261 294.975 266.713 295.346 266.149 295.893C259.06 302.677 257.546 316.194 257.997 318.692C258.351 320.625 262.46 322.768 264.425 323.702C264.844 325.217 258.996 325.716 259.898 329.341C261.09 334.062 264.216 341.78 271.821 346.484C274.93 348.418 280.537 344.631 282.809 342.907C284.484 343.487 281.536 347.967 286.466 350.367C288.996 351.624 297.084 351.962 302.981 349.094ZM372.358 263.702C373.953 257.338 371.955 249.492 370.231 247.301C366.863 242.967 363.093 246.785 362.175 245.254C363.399 242.677 365.961 236.409 363.432 233.767C357.261 227.29 349.076 225.808 344.21 225.598C340.473 225.453 341.181 231.286 339.619 231.189C338.297 229.449 335.349 225.856 333.383 225.92C330.838 225.985 317.932 230.222 312.728 238.568C312.309 239.229 312.052 239.841 311.939 240.405C311.649 240.904 311.423 241.533 311.294 242.306C309.538 251.973 316.257 263.783 318.109 265.539C319.527 266.892 324.119 266.216 326.262 265.813C327.503 266.796 323.056 270.646 325.908 273.031C329.645 276.157 336.719 280.555 345.628 279.895C349.286 279.637 351.59 273.273 352.411 270.534C354.119 270.018 354.361 275.383 359.758 274.433C362.529 273.965 369.264 269.486 372.358 263.702ZM378.303 153.837C375.838 147.746 369.619 142.575 366.944 141.817C361.676 140.287 360.854 145.587 359.227 144.895C358.695 142.091 357.084 135.518 353.491 134.857C344.694 133.23 337.186 136.855 333.142 139.562C330.032 141.64 334.044 145.942 332.707 146.78C330.612 146.151 326.117 144.975 324.57 146.167C322.556 147.714 314.597 158.735 315.29 168.531C315.338 169.304 315.499 169.948 315.725 170.48C315.789 171.06 315.983 171.688 316.321 172.397C320.591 181.243 332.964 186.85 335.494 187.188C337.444 187.446 340.746 184.191 342.245 182.612C343.824 182.677 342.486 188.412 346.208 188.67C351.074 188.992 359.372 188.412 366.203 182.628C369.006 180.276 367.137 173.767 366.203 171.076C367.282 169.658 370.618 173.847 374.436 169.9C376.369 167.918 379.189 160.33 378.303 153.837ZM318.512 61.4522C312.938 57.9721 304.882 57.4404 302.256 58.4071C297.1 60.2599 299.549 65.0451 297.825 65.4318C295.746 63.4662 290.575 59.0999 287.288 60.6949C279.216 64.5618 275.268 71.8926 273.577 76.4522C272.288 79.9645 278.056 81.0924 277.476 82.5424C275.414 83.2674 271.096 84.9592 270.532 86.8281C269.807 89.2771 269.855 102.859 276.171 110.367C276.67 110.963 277.17 111.398 277.669 111.688C278.056 112.123 278.587 112.526 279.28 112.881C287.932 117.537 301.241 114.798 303.48 113.59C305.204 112.655 305.977 108.079 306.267 105.92C307.572 105.05 309.86 110.464 313.034 108.482C317.159 105.888 323.539 100.523 325.65 91.8389C326.536 88.2943 321.187 84.1214 318.851 82.4941C318.883 80.7218 324.055 82.1396 324.828 76.71C325.231 73.9871 323.056 66.189 318.512 61.4522ZM214.318 50.3996C209.339 51.8335 204.232 56.6187 207.035 62.9023C207.438 63.8206 208.55 63.6112 209.533 63.1923C210.274 66.8657 212.997 66.3663 213.545 64.6262C213.899 66.4146 216.557 67.2041 217.685 63.6273C218.62 64.159 219.699 64.4812 220.199 63.6112C223.663 57.666 219.103 52.3652 214.318 50.3996ZM125.059 74.1805C121.885 78.2567 120.548 85.1364 126.509 88.5843C127.379 89.0838 128.153 88.2621 128.7 87.3437C131.472 89.8733 133.373 87.8754 132.793 86.1353C134.13 87.3759 136.74 86.4575 135.564 82.8969C136.627 82.768 137.691 82.4135 137.594 81.3985C136.901 74.551 130.086 72.9399 125.059 74.1805ZM66.8154 145.861C66.6381 151.033 69.6027 157.365 76.4502 156.656C77.4491 156.56 77.5941 155.432 77.4974 154.368C81.2192 154.787 81.5898 152.048 80.1075 150.985C81.9281 151.194 83.491 148.923 80.4459 146.731C81.2353 146.006 81.8798 145.088 81.2192 144.331C76.6113 139.207 70.1666 141.914 66.8154 145.861ZM61.8368 238.085C64.737 242.37 70.8594 245.754 75.9829 241.146C76.7402 240.469 76.1924 239.486 75.4835 238.681C78.7541 236.828 77.433 234.395 75.6124 234.427C77.2074 233.525 77.143 230.77 73.3889 230.786C73.5984 229.739 73.5823 228.611 72.5995 228.402C65.8487 226.952 62.2235 232.929 61.8368 238.085ZM112.025 315.63C116.891 317.403 123.835 316.533 125.269 309.798C125.478 308.815 124.463 308.332 123.416 308.09C124.979 304.674 122.481 303.482 121.015 304.578C121.772 302.918 120.097 300.727 117.084 302.95C116.633 301.968 115.956 301.065 115.038 301.484C108.722 304.255 109.302 311.232 112.025 315.63ZM198.206 348.869C203.185 347.435 208.292 342.65 205.489 336.366C205.086 335.448 203.974 335.657 202.991 336.076C202.25 332.403 199.527 332.902 198.98 334.642C198.625 332.854 195.967 332.064 194.839 335.641C193.904 335.109 192.825 334.787 192.325 335.657C188.845 341.602 193.421 346.919 198.206 348.869ZM287.449 325.104C290.623 321.028 291.96 314.148 285.999 310.7C285.129 310.201 284.355 311.022 283.808 311.941C281.036 309.411 279.135 311.409 279.715 313.149C278.378 311.909 275.768 312.827 276.944 316.388C275.881 316.516 274.801 316.871 274.914 317.886C275.623 324.733 282.438 326.329 287.449 325.104ZM345.693 253.407C345.87 248.235 342.905 241.903 336.058 242.612C335.059 242.709 334.914 243.837 335.011 244.9C331.289 244.481 330.918 247.22 332.401 248.283C330.58 248.074 329.017 250.346 332.062 252.537C331.273 253.262 330.628 254.18 331.289 254.938C335.897 260.061 342.358 257.37 345.693 253.407ZM350.671 161.184C347.771 156.898 341.649 153.514 336.525 158.122C335.768 158.799 336.316 159.782 337.025 160.587C333.754 162.44 335.075 164.873 336.896 164.841C335.301 165.743 335.365 168.498 339.119 168.482C338.91 169.529 338.926 170.657 339.909 170.867C346.659 172.333 350.301 166.339 350.671 161.184ZM300.483 83.638C295.618 81.8657 288.673 82.7357 287.239 89.4704C287.03 90.4533 288.045 90.9366 289.092 91.1783C287.529 94.594 290.027 95.7862 291.493 94.6906C290.736 96.3501 292.411 98.5413 295.424 96.3179C295.875 97.3007 296.552 98.203 297.47 97.7841C303.786 95.0129 303.222 88.0365 300.483 83.638ZM213.609 63.5628C213.577 63.3695 213.512 63.1601 213.416 62.9506C213.061 62.145 213.029 60.3727 213.851 59.0193C214.527 60.4372 214.286 62.1934 213.851 62.9667C213.738 63.1762 213.657 63.3695 213.609 63.5628ZM132.213 85.2331C132.068 85.0881 131.907 84.9753 131.697 84.8464C130.94 84.3953 129.86 82.9774 129.748 81.4146C131.133 82.1718 131.971 83.7347 132.068 84.6047C132.1 84.8303 132.148 85.0398 132.213 85.2331ZM79.1086 150.598C78.9152 150.566 78.7058 150.566 78.4802 150.582C77.5941 150.663 75.9024 150.147 74.8873 148.955C76.4502 148.761 78.0452 149.519 78.6413 150.163C78.7864 150.34 78.9475 150.485 79.1086 150.598ZM74.5651 234.701C74.3879 234.798 74.2106 234.911 74.0495 235.072C73.3889 235.652 71.7133 236.232 70.1827 235.877C71.3266 234.798 73.0667 234.476 73.9367 234.653C74.1623 234.685 74.3718 234.701 74.5651 234.701ZM120.322 305.416C120.242 305.593 120.161 305.802 120.113 306.012C119.92 306.866 118.904 308.332 117.454 308.928C117.744 307.381 118.969 306.092 119.775 305.722C119.984 305.641 120.177 305.528 120.322 305.416ZM198.915 335.722C198.947 335.915 199.012 336.124 199.109 336.334C199.463 337.139 199.495 338.912 198.674 340.265C197.997 338.847 198.238 337.091 198.674 336.318C198.77 336.108 198.851 335.915 198.915 335.722ZM280.295 314.051C280.44 314.196 280.601 314.309 280.811 314.438C281.568 314.889 282.648 316.307 282.76 317.87C281.375 317.113 280.537 315.55 280.44 314.68C280.408 314.438 280.36 314.229 280.295 314.051ZM333.399 248.67C333.593 248.702 333.802 248.702 334.028 248.686C334.914 248.606 336.606 249.121 337.621 250.314C336.058 250.507 334.463 249.75 333.867 249.105C333.738 248.928 333.577 248.783 333.399 248.67ZM337.943 164.567C338.12 164.47 338.297 164.358 338.459 164.196C339.119 163.616 340.795 163.036 342.325 163.391C341.181 164.47 339.441 164.793 338.571 164.615C338.362 164.583 338.152 164.567 337.943 164.567ZM292.186 93.8689C292.266 93.6917 292.347 93.4823 292.395 93.2728C292.589 92.4189 293.604 90.9527 295.054 90.3566C294.764 91.9033 293.539 93.1922 292.734 93.5628C292.524 93.6273 292.347 93.7401 292.186 93.8689ZM212.9 76.4683C210.048 76.275 206.939 74.9538 203.926 72.0698C190.811 58.4877 198.947 38.9119 215.333 31.4361C230.816 40.6198 236.794 60.9689 222.293 73.0687C218.99 75.6144 215.768 76.5811 212.9 76.4683ZM139.237 96.0923C136.805 97.6069 133.534 98.3802 129.393 97.8163C110.8 94.5457 105.87 73.9066 114.732 58.2299C132.664 56.5704 149.452 69.5081 144.828 87.8109C143.668 91.8227 141.622 94.4973 139.237 96.0923ZM91.1762 155.255C90.1129 157.913 87.9056 160.459 84.216 162.424C67.2504 170.706 51.1387 156.914 49.0925 139.014C62.6102 127.123 83.8132 127.72 90.8379 145.249C92.2396 149.197 92.1591 152.564 91.1762 155.255ZM87.0678 231.382C87.7606 234.153 87.4706 237.521 85.6661 241.275C76.8046 257.95 55.6661 256.259 43.5017 242.983C47.4652 225.421 64.9625 213.434 80.9453 223.488C84.3771 225.856 86.2944 228.611 87.0678 231.382ZM128.491 295.378C130.682 297.215 132.422 300.099 133.163 304.207C135.79 322.897 117.696 333.965 100.054 330.373C92.9324 313.842 100.054 293.863 118.888 292.607C123.061 292.494 126.235 293.606 128.491 295.378ZM199.608 322.8C202.46 322.993 205.569 324.315 208.582 327.199C221.697 340.781 213.561 360.356 197.175 367.832C181.692 358.649 175.714 338.3 190.215 326.2C193.518 323.654 196.74 322.687 199.608 322.8ZM273.271 303.192C275.704 301.678 278.974 300.904 283.115 301.468C301.708 304.739 306.638 325.378 297.777 341.055C279.844 342.714 263.056 329.776 267.68 311.474C268.856 307.462 270.886 304.771 273.271 303.192ZM321.348 244.014C322.411 241.355 324.619 238.81 328.308 236.844C345.274 228.563 361.385 242.354 363.432 260.254C349.914 272.145 328.711 271.549 321.686 254.019C320.268 250.072 320.349 246.704 321.348 244.014ZM325.456 167.902C324.764 165.131 325.054 161.764 326.858 158.01C335.72 141.334 356.858 143.026 369.022 156.302C365.059 173.864 347.562 185.851 331.579 175.797C328.147 173.428 326.23 170.657 325.456 167.902ZM284.033 103.907C281.842 102.07 280.102 99.1858 279.361 95.0773C276.735 76.3877 294.828 65.319 312.47 68.9119C319.592 85.4425 312.47 105.421 293.636 106.678C289.463 106.791 286.273 105.679 284.033 103.907ZM211.885 95.2384C204.715 95.1901 198.238 92.6767 195.419 88.8099C185.736 75.5661 186.3 63.0956 179.597 60.55C173.62 58.2943 171.848 65.0774 172.009 67.333C166.402 58.9227 172.54 37.9775 162.696 36.0441C155.124 42.6338 170.865 57.7304 170.172 67.8325C169.189 65.7862 164.275 60.7917 160.215 65.7218C155.655 71.2642 162.358 81.8013 160.537 98.1063C160.005 102.875 155.639 108.273 149.452 111.882C143.62 116.055 136.901 117.827 132.342 116.361C116.713 111.35 109.85 100.91 102.938 102.795C96.7831 104.487 99.3288 111.012 100.779 112.736C91.289 109.223 83.9582 88.681 74.8551 92.8861C72.5995 102.666 94.2052 105.63 99.5866 114.202C97.5887 113.139 90.6768 111.962 90.2901 118.343C89.8551 125.496 101.472 130.088 109.592 144.347C111.96 148.52 111.606 155.448 108.722 162.005C106.45 168.804 102.068 174.186 97.5081 175.684C81.9281 180.808 70.231 176.409 65.7359 182C61.7402 186.978 67.6371 190.765 69.8444 191.312C60.1129 194.051 42.1 181.742 37.2021 190.507C41.1172 199.739 60.3546 189.444 69.7477 193.214C67.5082 193.52 61.2246 196.645 64.6564 202.027C68.5071 208.069 80.607 204.959 95.5586 211.726C99.9249 213.708 103.711 219.524 105.226 226.533C107.385 233.364 106.998 240.308 104.195 244.191C94.5919 257.499 82.5404 260.802 82.202 267.972C81.8959 274.352 88.8884 273.949 90.999 273.095C84.7316 281.039 62.9163 281.667 64.1086 291.624C72.7284 296.796 82.2343 277.156 92.0463 274.691C90.4029 276.253 87.1644 282.472 93.1097 284.809C99.7799 287.435 107.739 277.8 123.802 274.497C128.491 273.53 134.984 276.012 140.333 280.797C146.101 285.05 149.855 290.899 149.871 295.684C149.919 312.086 142.121 321.849 146.069 327.843C149.581 333.176 154.995 328.745 156.187 326.812C155.784 336.914 138.512 350.238 145.328 357.601C155.317 356.731 151.466 335.254 157.959 327.489C157.556 329.712 158.588 336.656 164.774 335.045C171.719 333.24 172.492 320.77 183.545 308.654C186.767 305.109 193.486 303.305 200.607 304.03C207.777 304.078 214.254 306.592 217.073 310.458C226.756 323.702 226.192 336.189 232.895 338.718C238.872 340.974 240.644 334.191 240.483 331.935C246.09 340.346 239.952 361.291 249.796 363.224C257.368 356.635 241.627 341.538 242.32 331.436C243.303 333.482 248.217 338.477 252.277 333.547C256.837 328.004 250.134 317.467 251.955 301.162C252.487 296.393 256.853 290.996 263.04 287.387C268.872 283.214 275.591 281.441 280.15 282.907C295.779 287.918 302.642 298.359 309.554 296.474C315.709 294.782 313.163 288.257 311.713 286.533C321.203 290.045 328.534 310.587 337.637 306.382C339.893 296.602 318.287 293.638 312.905 285.066C314.903 286.13 321.815 287.306 322.202 280.926C322.637 273.772 311.02 269.18 302.9 254.921C300.532 250.749 300.886 243.82 303.77 237.263C306.042 230.464 310.424 225.083 314.984 223.584C330.564 218.461 342.261 222.859 346.74 217.268C350.736 212.29 344.839 208.504 342.631 207.956C352.363 205.217 370.376 217.526 375.274 208.761C371.359 199.529 352.121 209.825 342.728 206.055C344.968 205.749 351.251 202.623 347.819 197.242C343.969 191.2 331.869 194.309 316.917 187.542C312.551 185.561 308.765 179.744 307.25 172.736C305.091 165.904 305.478 158.96 308.281 155.077C317.884 141.769 329.935 138.466 330.274 131.296C330.58 124.916 323.587 125.319 321.477 126.173C327.744 118.23 349.56 117.601 348.367 107.644C339.764 102.473 330.258 122.113 320.446 124.578C322.089 123.015 325.328 116.796 319.382 114.46C312.712 111.833 304.753 121.468 288.69 124.771C284.001 125.738 277.508 123.257 272.159 118.471C266.391 114.218 262.637 108.369 262.621 103.584C262.572 87.1826 270.371 77.4189 266.423 71.4253C262.911 66.0924 257.497 70.5231 256.305 72.4565C256.708 62.3545 273.98 49.0301 267.164 41.667C257.175 42.5371 261.026 64.014 254.533 71.7798C254.936 69.5564 253.904 62.6122 247.717 64.2234C240.773 66.0279 240 78.4984 228.947 90.6144C225.725 94.159 219.023 95.9635 211.885 95.2384ZM173.249 75.6627C185.913 91.2911 199.753 97.9935 211.74 98.2352C223.679 99.2825 238.163 94.1106 252.438 79.9323C253.502 100.024 260.752 113.574 270.306 120.824C279.345 128.702 294.103 133.02 313.985 129.943C303.029 146.812 300.934 162.038 304.415 173.525C307.105 185.206 316.498 197.387 334.398 206.57C315.628 213.788 304.962 224.873 301.031 236.2C296.343 247.236 296.794 262.607 305.865 280.555C286.434 275.351 271.305 278.058 261.461 284.921C251.182 291.092 242.513 303.788 239.291 323.638C226.627 308.009 212.787 301.307 200.8 301.065C188.861 300.018 174.377 305.19 160.102 319.368C159.039 299.277 151.788 285.727 142.234 278.477C133.196 270.598 118.437 266.28 98.5554 269.358C109.511 252.489 111.606 237.263 108.126 225.775C105.435 214.094 96.042 201.914 78.1419 192.73C96.912 185.512 107.578 174.427 111.509 163.101C116.198 152.064 115.747 136.694 106.676 118.745C126.106 123.949 141.235 121.243 151.08 114.379C161.359 108.208 170.027 95.5124 173.249 75.6627Z" fill="url(#paint19_linear_1790_3919)"/>
<defs>
<linearGradient id="paint0_linear_1790_3919" x1="193.388" y1="38.1862" x2="215.432" y2="-2.43673" gradientUnits="userSpaceOnUse">
<stop stop-color="#469DEA"/>
<stop offset="0.911401" stop-color="#61A5E0" stop-opacity="0.88"/>
</linearGradient>
<linearGradient id="paint1_linear_1790_3919" x1="292.046" y1="86.374" x2="326.141" y2="44.9399" gradientUnits="userSpaceOnUse">
<stop stop-color="#469DEA"/>
<stop offset="0.911401" stop-color="#61A5E0" stop-opacity="0.88"/>
</linearGradient>
<linearGradient id="paint2_linear_1790_3919" x1="357.067" y1="176.534" x2="397.665" y2="142.857" gradientUnits="userSpaceOnUse">
<stop stop-color="#469DEA"/>
<stop offset="0.911401" stop-color="#61A5E0" stop-opacity="0.88"/>
</linearGradient>
<linearGradient id="paint3_linear_1790_3919" x1="30.6192" y1="158.97" x2="70.7095" y2="123.3" gradientUnits="userSpaceOnUse">
<stop stop-color="#469DEA"/>
<stop offset="0.911401" stop-color="#61A5E0" stop-opacity="0.88"/>
</linearGradient>
<linearGradient id="paint4_linear_1790_3919" x1="96.1651" y1="74.5003" x2="128.112" y2="32.5335" gradientUnits="userSpaceOnUse">
<stop stop-color="#469DEA"/>
<stop offset="0.911401" stop-color="#61A5E0" stop-opacity="0.88"/>
</linearGradient>
<linearGradient id="paint5_linear_1790_3919" x1="172.248" y1="42.6923" x2="203.162" y2="24.1143" gradientUnits="userSpaceOnUse">
<stop stop-color="#469DEA"/>
<stop offset="0.911401" stop-color="#61A5E0" stop-opacity="0.88"/>
</linearGradient>
<linearGradient id="paint6_linear_1790_3919" x1="70.8559" y1="85.3658" x2="101.142" y2="57.809" gradientUnits="userSpaceOnUse">
<stop stop-color="#469DEA"/>
<stop offset="0.911401" stop-color="#61A5E0" stop-opacity="0.88"/>
</linearGradient>
<linearGradient id="paint7_linear_1790_3919" x1="347.63" y1="128.262" x2="360.588" y2="99.2003" gradientUnits="userSpaceOnUse">
<stop stop-color="#469DEA"/>
<stop offset="0.911401" stop-color="#61A5E0" stop-opacity="0.88"/>
</linearGradient>
<linearGradient id="paint8_linear_1790_3919" x1="278.563" y1="59.1994" x2="308.296" y2="29.6362" gradientUnits="userSpaceOnUse">
<stop stop-color="#469DEA"/>
<stop offset="0.911401" stop-color="#61A5E0" stop-opacity="0.88"/>
</linearGradient>
<linearGradient id="paint9_linear_1790_3919" x1="241.31" y1="45.9438" x2="271.587" y2="28.5248" gradientUnits="userSpaceOnUse">
<stop stop-color="#469DEA"/>
<stop offset="0.911401" stop-color="#61A5E0" stop-opacity="0.88"/>
</linearGradient>
<linearGradient id="paint10_linear_1790_3919" x1="125.302" y1="52.1634" x2="156.334" y2="24.583" gradientUnits="userSpaceOnUse">
<stop stop-color="#469DEA"/>
<stop offset="0.911401" stop-color="#61A5E0" stop-opacity="0.88"/>
</linearGradient>
<linearGradient id="paint11_linear_1790_3919" x1="38.7247" y1="113.631" x2="54.9576" y2="82.5119" gradientUnits="userSpaceOnUse">
<stop stop-color="#469DEA"/>
<stop offset="0.911401" stop-color="#61A5E0" stop-opacity="0.88"/>
</linearGradient>
<linearGradient id="paint12_linear_1790_3919" x1="327.936" y1="98.1171" x2="356.759" y2="68.0596" gradientUnits="userSpaceOnUse">
<stop stop-color="#469DEA"/>
<stop offset="0.911401" stop-color="#61A5E0" stop-opacity="0.88"/>
</linearGradient>
<linearGradient id="paint13_linear_1790_3919" x1="153.798" y1="28.9313" x2="174.185" y2="17.314" gradientUnits="userSpaceOnUse">
<stop stop-color="#469DEA"/>
<stop offset="0.911401" stop-color="#61A5E0" stop-opacity="0.88"/>
</linearGradient>
<linearGradient id="paint14_linear_1790_3919" x1="264.745" y1="35.4506" x2="286.293" y2="21.176" gradientUnits="userSpaceOnUse">
<stop stop-color="#469DEA"/>
<stop offset="0.911401" stop-color="#61A5E0" stop-opacity="0.88"/>
</linearGradient>
<linearGradient id="paint15_linear_1790_3919" x1="351.958" y1="107.569" x2="367.358" y2="84.2812" gradientUnits="userSpaceOnUse">
<stop stop-color="#469DEA"/>
<stop offset="0.911401" stop-color="#61A5E0" stop-opacity="0.88"/>
</linearGradient>
<linearGradient id="paint16_linear_1790_3919" x1="50.4871" y1="91.7146" x2="68.1648" y2="68.4933" gradientUnits="userSpaceOnUse">
<stop stop-color="#469DEA"/>
<stop offset="0.911401" stop-color="#61A5E0" stop-opacity="0.88"/>
</linearGradient>
<linearGradient id="paint17_linear_1790_3919" x1="171.723" y1="100.312" x2="175.786" y2="89.2558" gradientUnits="userSpaceOnUse">
<stop stop-color="#469DEA"/>
<stop offset="0.911401" stop-color="#61A5E0" stop-opacity="0.88"/>
</linearGradient>
<linearGradient id="paint18_linear_1790_3919" x1="236.268" y1="104.79" x2="241.208" y2="93.0226" gradientUnits="userSpaceOnUse">
<stop stop-color="#469DEA"/>
<stop offset="0.911401" stop-color="#61A5E0" stop-opacity="0.88"/>
</linearGradient>
<linearGradient id="paint19_linear_1790_3919" x1="84.7685" y1="316.55" x2="325.105" y2="49.6551" gradientUnits="userSpaceOnUse">
<stop stop-color="#469DEA"/>
<stop offset="0.911401" stop-color="#61A5E0" stop-opacity="0.88"/>
</linearGradient>
</defs>
</svg>
