<svg width="90" height="91" viewBox="0 0 90 91" fill="none" xmlns="http://www.w3.org/2000/svg">
<g opacity="0.05" clip-path="url(#clip0_2154_41351)">
<path d="M43.6465 9.11328C42.5566 9.76367 42.5391 9.86914 42.5391 16.5312C42.5391 22.209 42.5566 22.5957 42.8906 23.123C43.3125 23.8262 44.0684 24.2305 45 24.2305C45.9492 24.2305 46.8281 23.791 46.6699 23.3867C46.5996 23.2285 46.459 22.5957 46.3535 21.9805C46.125 20.6797 46.248 20.3633 47.0742 20.0996L47.6367 19.9414V15.3535C47.6367 10.2383 47.5664 9.92188 46.4238 9.16602C45.668 8.65625 44.4375 8.62109 43.6465 9.11328Z" fill="#065EA9"/>
<path d="M36.7916 11.2227C35.5963 11.9434 35.5963 11.8907 35.5436 18.4297C35.5084 23.7735 35.526 24.3711 35.8073 24.9336C36.7038 26.6739 39.1471 26.8497 40.2897 25.25L40.694 24.67V18.6055V12.5411L40.2897 11.961C40.0612 11.6446 39.6569 11.2754 39.3756 11.1348C38.6549 10.7657 37.4596 10.8008 36.7916 11.2227Z" fill="#065EA9"/>
<path d="M50.5547 11.7324C49.4648 12.4531 49.3945 12.7168 49.3945 16.5312V20.0117H51.9434H54.4922V16.7598C54.4922 13.1387 54.3867 12.6641 53.4551 11.873C52.7344 11.2754 51.3457 11.2051 50.5547 11.7324Z" fill="#065EA9"/>
<path d="M29.7949 13.6835C28.7578 14.369 28.6523 14.8085 28.6523 18.4823C28.6523 22.0331 28.7227 22.3319 29.6016 23.1581C30.1992 23.7206 31.6934 23.8788 32.502 23.4569C33.6445 22.8593 33.75 22.4374 33.75 18.5526C33.75 14.6855 33.6621 14.2987 32.6426 13.6835C31.8867 13.2089 30.498 13.2089 29.7949 13.6835Z" fill="#065EA9"/>
<path d="M10.4592 13.9297C8.64864 14.7558 7.61153 16.5312 7.76973 18.4824C7.91036 20.2051 8.78927 21.5586 10.2834 22.3496C11.2854 22.8945 13.3244 22.8769 14.344 22.3496C16.0666 21.4355 16.8576 20.0996 16.8752 18.1484C16.8752 17.1113 16.7873 16.7246 16.383 15.9511C15.258 13.789 12.6565 12.8926 10.4592 13.9297Z" fill="#065EA9"/>
<path d="M76.0254 13.7893C74.2324 14.4221 73.125 16.092 73.125 18.1135C73.125 20.0471 73.8457 21.3303 75.375 22.1741C76.5703 22.8244 77.7129 22.9475 78.9961 22.5784C80.8594 22.0334 82.0547 20.5041 82.2305 18.4827C82.4941 15.1252 79.207 12.6467 76.0254 13.7893Z" fill="#065EA9"/>
<path d="M18.5449 18.0781V20.0117H22.7285H26.8945V18.0781V16.1445H22.7285H18.5449V18.0781Z" fill="#065EA9"/>
<path d="M56.25 18.0781V20.0117H63.8613H71.4551V18.0781V16.1445H63.8613H56.25V18.0781Z" fill="#065EA9"/>
<path d="M51.8027 21.8926L47.9883 21.9453L48.0938 22.4375C48.498 24.0547 50.0977 25.8828 51.6445 26.4277C52.1016 26.5859 53.1914 26.7617 54.0527 26.8145C56.3203 26.9551 56.25 26.8496 56.25 30.2422C56.25 32.791 56.2148 33.0547 55.8984 33.3711C55.4766 33.793 55.3887 33.793 54.8789 33.4414C54.5098 33.1953 54.4922 33.0547 54.4922 30.9102V28.6426L53.4902 28.5371C51.1875 28.2734 49.4473 27.4473 48.1289 25.9531L47.4961 25.2324L46.8457 25.5488C46.4766 25.707 45.7383 25.8828 45.1758 25.9355C44.332 26.0234 43.998 25.9531 43.1543 25.5664C42.5918 25.3203 42.1348 25.127 42.1172 25.1445C42.0996 25.1797 41.9414 25.4785 41.7656 25.8125C40.9395 27.3418 39.6738 28.0977 37.9688 28.0977C36.1582 28.0977 34.7344 27.1309 34.0137 25.4082C33.873 25.0566 33.7148 24.7578 33.6797 24.7578C33.6445 24.7578 33.2754 24.916 32.8535 25.1094C32.3789 25.3203 31.6934 25.4609 31.1133 25.4609C30.5332 25.4609 29.8477 25.3203 29.373 25.1094C28.9512 24.916 28.582 24.7578 28.5469 24.7578C28.5117 24.7578 28.4766 27.7461 28.4766 31.3848C28.4766 38.6797 28.5645 39.541 29.5137 41.5449C29.7949 42.1602 30.3223 43.0566 30.6914 43.5488L31.3594 44.4453H41.748H52.1367L56.4609 40.0859C60.0293 36.5176 60.8203 35.6211 60.9785 35.041C61.1016 34.584 61.1719 32.0703 61.1719 28.0449V21.7695L58.4121 21.8047C56.8828 21.8398 53.9121 21.875 51.8027 21.8926Z" fill="#065EA9"/>
<path d="M11.25 27.7285V31.0508L5.625 43.1797C2.53125 49.8594 0 55.3965 0 55.502C0 55.625 0.421875 55.6953 1.10742 55.6953L2.19727 55.6777L7.29492 44.6914C11.7246 35.1465 12.4102 33.7578 12.5684 34.1094C12.6562 34.3379 14.9238 39.2598 17.6133 45.0605L22.4648 55.6074L23.625 55.6602C24.2578 55.6953 24.7852 55.6777 24.7852 55.625C24.7852 55.5723 22.2188 49.9824 19.0723 43.2148L13.3594 30.8926V27.6406V24.4062H12.3047H11.25V27.7285Z" fill="#065EA9"/>
<path d="M76.641 27.6934V30.9629L70.9984 43.0742C67.9047 49.7363 65.3207 55.3086 65.2679 55.4492C65.18 55.6777 65.3558 55.6953 66.3578 55.6602L67.5355 55.6074L72.5629 44.7617C75.3402 38.7852 77.6429 33.8984 77.6957 33.8984C77.7484 33.8984 80.0336 38.8027 82.7933 44.7969L87.8031 55.6777L88.9105 55.6953C89.6136 55.6953 90.0004 55.625 90.0004 55.4844C90.0004 55.3789 87.4691 49.8418 84.3754 43.1797L78.7504 31.0684V27.7285V24.4062H77.6957H76.641V27.6934Z" fill="#065EA9"/>
<path d="M32.168 47.4336V48.6641H41.8359H51.5039V47.4336V46.2031H41.8359H32.168V47.4336Z" fill="#065EA9"/>
<path d="M30.9727 50.6328C30.8145 50.791 30.7617 54.5176 30.7617 66.541V82.2383H41.8359H52.9102L52.875 66.3652L52.8223 50.5098L42.0117 50.457C33.7324 50.4219 31.1309 50.4746 30.9727 50.6328Z" fill="#065EA9"/>
<path d="M0.0878906 58.5429C0.28125 60.248 0.650391 61.4609 1.38867 62.9902C2.84766 65.9257 5.36133 68.1054 8.52539 69.1777C9.75586 69.582 10.2305 69.6523 12.2168 69.6523C14.1504 69.6699 14.7129 69.5996 15.8203 69.2656C20.7949 67.7011 23.8887 63.8691 24.5215 58.455L24.6445 57.4531H12.3047H-0.0351562L0.0878906 58.5429Z" fill="#065EA9"/>
<path d="M65.3906 58.1738C65.3906 60.1777 66.6035 63.3418 68.1152 65.2227C71.1387 69.0547 76.7813 70.7246 81.4043 69.1777C86.0625 67.6133 89.4023 63.4473 89.7715 58.7187L89.877 57.4531H77.625H65.3906V58.1738Z" fill="#065EA9"/>
</g>
<defs>
<clipPath id="clip0_2154_41351">
<rect width="90" height="90" fill="white" transform="translate(0 0.5)"/>
</clipPath>
</defs>
</svg>
