<svg width="40" height="40" viewBox="0 0 40 40" fill="none" xmlns="http://www.w3.org/2000/svg">
<g clip-path="url(#clip0_2154_41368)">
<path d="M19.3984 3.82812C18.9141 4.11719 18.9062 4.16406 18.9062 7.125C18.9062 9.64844 18.9141 9.82031 19.0625 10.0547C19.25 10.3672 19.5859 10.5469 20 10.5469C20.4219 10.5469 20.8125 10.3516 20.7422 10.1719C20.7109 10.1016 20.6484 9.82031 20.6016 9.54688C20.5 8.96875 20.5547 8.82812 20.9219 8.71094L21.1719 8.64062V6.60156C21.1719 4.32812 21.1406 4.1875 20.6328 3.85156C20.2969 3.625 19.75 3.60938 19.3984 3.82812Z" fill="#065EA9"/>
<path d="M16.3516 4.76566C15.8204 5.08597 15.8204 5.06253 15.7969 7.96878C15.7813 10.3438 15.7891 10.6094 15.9141 10.8594C16.3126 11.6328 17.3985 11.711 17.9063 11L18.086 10.7422V8.04691V5.3516L17.9063 5.09378C17.8047 4.95316 17.6251 4.7891 17.5001 4.7266C17.1797 4.56253 16.6485 4.57816 16.3516 4.76566Z" fill="#065EA9"/>
<path d="M22.4688 4.99219C21.9844 5.3125 21.9531 5.42969 21.9531 7.125V8.67188H23.0859H24.2188V7.22656C24.2188 5.61719 24.1719 5.40625 23.7578 5.05469C23.4375 4.78906 22.8203 4.75781 22.4688 4.99219Z" fill="#065EA9"/>
<path d="M13.2422 5.85932C12.7812 6.16401 12.7344 6.35932 12.7344 7.99213C12.7344 9.57026 12.7656 9.70307 13.1562 10.0703C13.4219 10.3203 14.0859 10.3906 14.4453 10.2031C14.9531 9.93744 15 9.74994 15 8.02338C15 6.30463 14.9609 6.13276 14.5078 5.85932C14.1719 5.64838 13.5547 5.64838 13.2422 5.85932Z" fill="#065EA9"/>
<path d="M4.64864 5.96874C3.84395 6.33593 3.38301 7.12499 3.45332 7.99218C3.51582 8.7578 3.90645 9.35936 4.57051 9.71093C5.01582 9.95311 5.92207 9.9453 6.3752 9.71093C7.14082 9.30468 7.49239 8.71093 7.5002 7.84374C7.5002 7.3828 7.46114 7.21093 7.28145 6.86718C6.78145 5.90624 5.6252 5.5078 4.64864 5.96874Z" fill="#065EA9"/>
<path d="M33.7891 5.90633C32.9922 6.18758 32.5 6.92976 32.5 7.8282C32.5 8.68758 32.8203 9.25789 33.5 9.63289C34.0312 9.92195 34.5391 9.97664 35.1094 9.81258C35.9375 9.57039 36.4688 8.8907 36.5469 7.99226C36.6641 6.50008 35.2031 5.39851 33.7891 5.90633Z" fill="#065EA9"/>
<path d="M8.24219 7.8125V8.67188H10.1016H11.9531V7.8125V6.95312H10.1016H8.24219V7.8125Z" fill="#065EA9"/>
<path d="M25 7.8125V8.67188H28.3828H31.7578V7.8125V6.95312H28.3828H25V7.8125Z" fill="#065EA9"/>
<path d="M23.0234 9.50781L21.3281 9.53125L21.375 9.75C21.5547 10.4688 22.2656 11.2812 22.9531 11.5234C23.1562 11.5938 23.6406 11.6719 24.0234 11.6953C25.0312 11.7578 25 11.7109 25 13.2188C25 14.3516 24.9844 14.4688 24.8438 14.6094C24.6562 14.7969 24.6172 14.7969 24.3906 14.6406C24.2266 14.5312 24.2188 14.4688 24.2188 13.5156V12.5078L23.7734 12.4609C22.75 12.3438 21.9766 11.9766 21.3906 11.3125L21.1094 10.9922L20.8203 11.1328C20.6562 11.2031 20.3281 11.2812 20.0781 11.3047C19.7031 11.3438 19.5547 11.3125 19.1797 11.1406C18.9297 11.0312 18.7266 10.9453 18.7188 10.9531C18.7109 10.9688 18.6406 11.1016 18.5625 11.25C18.1953 11.9297 17.6328 12.2656 16.875 12.2656C16.0703 12.2656 15.4375 11.8359 15.1172 11.0703C15.0547 10.9141 14.9844 10.7812 14.9688 10.7812C14.9531 10.7812 14.7891 10.8516 14.6016 10.9375C14.3906 11.0312 14.0859 11.0938 13.8281 11.0938C13.5703 11.0938 13.2656 11.0312 13.0547 10.9375C12.8672 10.8516 12.7031 10.7812 12.6875 10.7812C12.6719 10.7812 12.6562 12.1094 12.6562 13.7266C12.6562 16.9688 12.6953 17.3516 13.1172 18.2422C13.2422 18.5156 13.4766 18.9141 13.6406 19.1328L13.9375 19.5312H18.5547H23.1719L25.0938 17.5938C26.6797 16.0078 27.0312 15.6094 27.1016 15.3516C27.1562 15.1484 27.1875 14.0312 27.1875 12.2422V9.45312L25.9609 9.46875C25.2812 9.48438 23.9609 9.5 23.0234 9.50781Z" fill="#065EA9"/>
<path d="M5 12.1016V13.5781L2.5 18.9688C1.125 21.9375 0 24.3984 0 24.4453C0 24.5 0.1875 24.5312 0.492188 24.5312L0.976562 24.5234L3.24219 19.6406C5.21094 15.3984 5.51562 14.7812 5.58594 14.9375C5.625 15.0391 6.63281 17.2266 7.82812 19.8047L9.98438 24.4922L10.5 24.5156C10.7812 24.5312 11.0156 24.5234 11.0156 24.5C11.0156 24.4766 9.875 21.9922 8.47656 18.9844L5.9375 13.5078V12.0625V10.625H5.46875H5V12.1016Z" fill="#065EA9"/>
<path d="M34.0626 12.0859V13.5391L31.5547 18.9219C30.1797 21.8828 29.0313 24.3594 29.0079 24.4219C28.9688 24.5234 29.0469 24.5312 29.4922 24.5156L30.0157 24.4922L32.2501 19.6719C33.4844 17.0156 34.5079 14.8438 34.5313 14.8438C34.5547 14.8438 35.5704 17.0234 36.7969 19.6875L39.0235 24.5234L39.5157 24.5312C39.8282 24.5312 40.0001 24.5 40.0001 24.4375C40.0001 24.3906 38.8751 21.9297 37.5001 18.9688L35.0001 13.5859V12.1016V10.625H34.5313H34.0626V12.0859Z" fill="#065EA9"/>
<path d="M14.2969 20.8594V21.4062H18.5938H22.8906V20.8594V20.3125H18.5938H14.2969V20.8594Z" fill="#065EA9"/>
<path d="M13.7656 22.2812C13.6953 22.3516 13.6719 24.0078 13.6719 29.3516V36.3281H18.5938H23.5156L23.5 29.2734L23.4766 22.2266L18.6719 22.2031C14.9922 22.1875 13.8359 22.2109 13.7656 22.2812Z" fill="#065EA9"/>
<path d="M0.0390625 25.7969C0.125 26.5547 0.289062 27.0937 0.617188 27.7734C1.26562 29.0781 2.38281 30.0469 3.78906 30.5234C4.33594 30.7031 4.54688 30.7344 5.42969 30.7344C6.28906 30.7422 6.53906 30.7109 7.03125 30.5625C9.24219 29.8672 10.6172 28.1641 10.8984 25.7578L10.9531 25.3125H5.46875H-0.015625L0.0390625 25.7969Z" fill="#065EA9"/>
<path d="M29.0625 25.6328C29.0625 26.5234 29.6016 27.9297 30.2734 28.7656C31.6172 30.4687 34.125 31.2109 36.1797 30.5234C38.25 29.8281 39.7344 27.9766 39.8984 25.875L39.9453 25.3125H34.5H29.0625V25.6328Z" fill="#065EA9"/>
</g>
<defs>
<clipPath id="clip0_2154_41368">
<rect width="40" height="40" fill="white"/>
</clipPath>
</defs>
</svg>
