<svg width="90" height="90" viewBox="0 0 90 90" fill="none" xmlns="http://www.w3.org/2000/svg">
<g opacity="0.05" clip-path="url(#clip0_2154_41488)">
<path d="M10.4062 0.544716C9.03516 0.808388 7.57617 2.03886 6.9082 3.46268C6.60938 4.0955 6.5918 6.11698 6.53906 40.5525L6.50391 76.992L29.6543 77.0271L52.8223 77.0799L53.6484 77.5721C54.1055 77.8357 54.5625 78.2049 54.668 78.3982C54.8262 78.6971 54.9316 78.6443 55.793 77.783C56.5312 77.0271 56.9004 76.7986 57.4805 76.7107C58.2363 76.5877 58.3945 76.3943 58.6055 75.3748C58.7637 74.6541 59.6953 73.6873 60.4336 73.4764C60.7852 73.3885 62.0508 73.3006 63.2461 73.3006H65.3906V72.2283C65.3906 71.2088 65.3555 71.1209 64.5996 70.2771C61.998 67.3768 60.627 60.8377 61.3652 54.7557C61.6641 52.2596 62.7012 50.8533 64.4238 50.66C65.0918 50.5896 65.2148 50.5193 65.1094 50.2908C64.7578 49.535 64.1777 46.9158 64.1777 46.1424C64.1602 45.0525 64.5645 43.2771 65.0391 42.3631C65.3906 41.6775 65.3906 41.3435 65.3906 22.8689C65.3906 4.23612 65.3906 4.04276 65.7598 3.07597C65.9531 2.53104 66.3926 1.74003 66.7266 1.31815C67.0605 0.8787 67.3242 0.491982 67.3242 0.439247C67.3242 0.281044 11.1973 0.386513 10.4062 0.544716ZM59.4316 12.2869C60.0117 13.0076 59.8008 13.9217 58.9395 14.3787C58.6582 14.5369 52.8047 14.5896 35.9473 14.5896C16.4531 14.5896 13.2715 14.5545 12.8496 14.326C12.0059 13.9041 11.8652 12.9021 12.5684 12.199L12.9902 11.7771L36.0527 11.8123L59.0977 11.865L59.4316 12.2869ZM58.9395 22.1834C60.0469 22.7635 60.0469 23.9939 58.9395 24.574C58.6582 24.7322 52.8047 24.785 35.9473 24.785C11.2324 24.785 12.4629 24.8377 12.1992 23.783C12.041 23.1502 12.3047 22.4646 12.832 22.201C13.4473 21.8846 58.3594 21.867 58.9395 22.1834ZM58.9395 32.3787C59.8008 32.8357 60.0117 33.7498 59.4316 34.4705L59.0977 34.8924L36.0527 34.9451L12.9902 34.9803L12.5684 34.5584C11.8652 33.8553 12.0234 32.8709 12.9199 32.3787C13.4297 32.0799 58.4121 32.0975 58.9395 32.3787ZM59.2207 42.8201C59.9062 43.4002 59.9414 44.1209 59.3262 44.7361L58.9043 45.1756H35.9473H12.9902L12.5684 44.7361C11.8652 44.0506 12.0234 43.0838 12.9199 42.574C13.1836 42.4334 19.2305 42.3807 35.9824 42.3631H58.6758L59.2207 42.8201ZM59.3086 53.0682C59.9062 53.6307 59.9062 54.3689 59.3262 54.9314L58.9043 55.3709H35.9473H12.9902L12.5684 54.9314C11.8301 54.1932 12.1289 53.0682 13.1836 52.6814C13.3242 52.6287 23.6602 52.5936 36.1582 52.6111L58.8516 52.6463L59.3086 53.0682ZM43.1719 63.3338C43.7168 63.9666 43.7168 64.5818 43.1543 65.1268L42.7324 65.5662H27.8613H12.9902L12.5684 65.1268C11.7949 64.3709 12.1816 63.1404 13.2715 62.8768C13.4648 62.824 20.1797 62.8064 28.1777 62.824L42.75 62.8416L43.1719 63.3338Z" fill="#065EA9"/>
<path d="M70.9629 0.544921C69.3809 0.914062 68.1328 1.95117 67.4473 3.49805C67.1309 4.18359 67.0605 4.76367 67.0078 7.24219L66.9375 10.1953H71.4375H75.9551L76.377 9.75586C76.7988 9.35156 76.8164 9.26367 76.8164 6.73242C76.8164 4.37695 76.7812 4.04297 76.3945 3.25195C75.9551 2.28516 74.8652 1.19531 73.9688 0.826171C73.1602 0.492187 71.7539 0.351562 70.9629 0.544921Z" fill="#065EA9"/>
<path d="M84.7096 17.3672C83.4088 18.6855 81.5104 20.7598 80.4733 21.9727C76.4127 26.7188 72.2994 32.3965 72.4752 32.9941C72.528 33.1699 72.9322 34.3125 73.3717 35.543C73.8112 36.791 74.1451 37.793 74.11 37.793C74.0924 37.793 73.6002 37.1602 73.0553 36.3867C72.0182 34.9629 71.5963 34.6641 71.0865 34.9453C70.401 35.332 66.4459 42.9258 66.1119 44.4902C65.6725 46.5293 65.8834 47.5664 67.6412 52.207C69.5045 57.1289 69.4869 57.2871 67.4655 54.5098C66.7799 53.5781 66.0944 52.7168 65.9537 52.5938C65.567 52.2949 64.319 52.3301 63.8619 52.6465C63.317 53.0332 63.1237 53.8945 63.0006 56.5137C62.7194 62.0859 63.9147 67.0957 66.0592 69.293L66.8502 70.1191L66.4811 71.4375C66.2701 72.1582 66.0416 72.8789 65.9889 73.0195C65.901 73.2656 66.0592 73.3008 67.026 73.3008C68.1158 73.3008 68.1686 73.2832 68.2916 72.8086C68.3444 72.5449 68.5201 71.9121 68.6608 71.4023C68.9244 70.5059 68.942 70.4883 69.5748 70.4883C71.0162 70.4707 73.442 69.0645 75.7272 66.9023C77.6608 65.0742 80.6842 61.6641 80.6842 61.3301C80.6842 60.7148 80.192 60.4688 78.9791 60.4688H77.8365L78.7858 59.4492C80.6666 57.4102 81.5631 55.6172 83.3033 50.4492C84.9381 45.6504 85.8522 40.5703 85.2194 39.9375C84.7975 39.5156 84.358 39.7441 82.1783 41.502C80.9479 42.4688 80.0514 43.1191 80.1393 42.9434C80.2447 42.7676 81.2643 41.3438 82.4069 39.7793C84.8678 36.3691 85.9752 34.6113 86.6783 32.8535C87.9615 29.7246 89.0338 23.3613 88.3834 22.7109C87.944 22.2715 87.4694 22.5352 85.9225 24.1172C85.0612 25.0137 84.4108 25.6289 84.4811 25.4883C84.5514 25.3477 85.3424 24.1875 86.2389 22.9219C87.1354 21.6562 88.067 20.2148 88.3131 19.7402C88.8405 18.7559 89.3502 16.541 89.1744 16.0488C88.9459 15.3633 88.3658 14.9414 87.7155 14.9414C87.1002 14.9414 86.8893 15.1172 84.7096 17.3672Z" fill="#065EA9"/>
<path d="M60.4688 75.4102C60.1875 75.6914 60.1172 75.9902 60.1172 76.9922V78.2227H59.1504C57.375 78.2227 56.4258 78.9785 56.4258 80.3672C56.4258 81.3164 58.3066 88.418 58.6582 88.8047C59.3438 89.5781 59.8359 89.6484 65.0742 89.6484C67.9395 89.6484 70.3301 89.5781 70.6992 89.4727C71.0508 89.3672 71.5078 89.0859 71.6836 88.8574C71.8945 88.5938 72.4219 86.8184 73.0547 84.3223L74.0742 80.2266L73.7227 79.541C73.3008 78.6621 72.4746 78.2227 71.2441 78.2227H70.3125V76.9922C70.3125 74.9883 70.4707 75.0586 65.2148 75.0586C61.0488 75.0586 60.8027 75.0762 60.4688 75.4102Z" fill="#065EA9"/>
<path d="M1.8457 78.908C1.65234 78.9959 1.33594 79.242 1.14258 79.4529C0.826172 79.8045 0.791016 80.0857 0.791016 82.3357C0.791016 84.6912 0.808594 84.867 1.2832 85.8162C1.56445 86.3787 2.10938 87.0994 2.49609 87.4334C3.9375 88.6814 2.07422 88.5935 30.3047 88.5584L55.7578 88.5057L55.1953 87.8025C54.0879 86.4314 53.9121 85.781 53.7891 82.7752C53.6836 79.8045 53.5254 79.2596 52.6289 78.9256C52.084 78.7146 2.35547 78.7146 1.8457 78.908Z" fill="#065EA9"/>
</g>
<defs>
<clipPath id="clip0_2154_41488">
<rect width="90" height="90" fill="white"/>
</clipPath>
</defs>
</svg>
