<svg width="18" height="14" viewBox="0 0 18 14" fill="none" xmlns="http://www.w3.org/2000/svg">
<path fill-rule="evenodd" clip-rule="evenodd" d="M3.44428 0.333344C1.91016 0.333344 0.666504 1.61253 0.666504 3.19049V10.8095C0.666504 12.3875 1.91016 13.6667 3.44428 13.6667H14.5554C16.0895 13.6667 17.3332 12.3875 17.3332 10.8095V3.19049C17.3332 1.61253 16.0895 0.333344 14.5554 0.333344H3.44428ZM5.35375 3.84929C4.99436 3.56178 4.46995 3.62005 4.18245 3.97943C3.89494 4.33882 3.95321 4.86323 4.31259 5.15073L8.47926 8.48407L8.99984 8.90053L9.52042 8.48407L13.6871 5.15073C14.0465 4.86323 14.1047 4.33882 13.8172 3.97943C13.5297 3.62005 13.0053 3.56178 12.6459 3.84929L8.99984 6.76616L5.35375 3.84929Z" fill="#5D6B8A"/>
</svg>
