<svg width="18" height="14" viewBox="0 0 18 14" fill="none" xmlns="http://www.w3.org/2000/svg">
<path fill-rule="evenodd" clip-rule="evenodd" d="M3.44575 0.333313C1.91162 0.333313 0.667969 1.6125 0.667969 3.19046V10.8095C0.667969 12.3875 1.91162 13.6666 3.44575 13.6666H14.5569C16.091 13.6666 17.3346 12.3875 17.3346 10.8095V3.19046C17.3346 1.6125 16.091 0.333313 14.5569 0.333313H3.44575ZM5.35521 3.84926C4.99583 3.56175 4.47142 3.62002 4.18391 3.9794C3.8964 4.33879 3.95467 4.8632 4.31406 5.1507L8.48072 8.48404L9.0013 8.9005L9.52188 8.48404L13.6885 5.1507C14.0479 4.8632 14.1062 4.33879 13.8187 3.9794C13.5312 3.62002 13.0068 3.56175 12.6474 3.84926L9.0013 6.76613L5.35521 3.84926Z" fill="white"/>
</svg>
