<svg width="90" height="90" viewBox="0 0 90 90" fill="none" xmlns="http://www.w3.org/2000/svg">
<g opacity="0.05">
<path d="M42.802 5.04492C41.6594 7.83984 40.7102 10.125 40.6751 10.1602C40.6575 10.1953 38.3899 10.459 35.6477 10.7578C32.9231 11.0566 30.6204 11.3555 30.5325 11.4258C30.4622 11.4785 32.0794 13.0605 34.136 14.9414C36.1926 16.8047 37.8977 18.3867 37.9329 18.457C37.9505 18.5098 37.511 20.8301 36.9309 23.6074C36.3684 26.3848 35.929 28.6523 35.9641 28.6523C35.9993 28.6523 38.0383 27.4922 40.4993 26.0859L44.9993 23.5371L49.4993 26.0859C51.9778 27.4922 54.0344 28.6523 54.052 28.6523C54.0872 28.6523 53.6301 26.3848 53.0676 23.6074C52.4876 20.8301 52.0481 18.5098 52.0657 18.457C52.1008 18.3867 53.8059 16.8047 55.8626 14.9414C57.9192 13.0605 59.5364 11.4785 59.4661 11.4258C59.3782 11.3555 57.0755 11.0566 54.3508 10.7578C51.6087 10.459 49.3411 10.1953 49.3235 10.1602C49.3059 10.125 48.3391 7.83984 47.1965 5.04492C46.054 2.26758 45.0696 0 44.9993 0C44.929 0 43.9446 2.26758 42.802 5.04492Z" fill="#065EA9"/>
<path d="M13.0421 14.045L11.4074 17.7012L7.59293 18.1055C5.50113 18.334 3.673 18.5626 3.54996 18.6153C3.40933 18.7032 4.42886 19.7227 6.3273 21.4454C8.70035 23.5899 9.31558 24.2403 9.24527 24.5215C8.92886 25.7872 7.73355 31.9044 7.76871 32.0274C7.80386 32.0977 9.36832 31.2891 11.2492 30.1993C13.13 29.127 14.7648 28.2481 14.8527 28.2481C14.9582 28.2481 16.5578 29.1446 18.4386 30.2169C20.3195 31.2891 21.8664 32.1505 21.9015 32.1153C21.9367 32.0801 21.6203 30.3399 21.1808 28.2305C20.7414 26.1387 20.3898 24.3633 20.3898 24.2754C20.3898 24.1876 21.673 22.9395 23.255 21.5157C24.8195 20.0743 26.1027 18.8262 26.1027 18.7383C26.1027 18.6153 24.4679 18.3692 22.1652 18.1055L18.2453 17.6661L16.6105 14.0626C15.714 12.0938 14.9054 10.459 14.8351 10.4239C14.7472 10.4063 13.9386 12.0235 13.0421 14.045Z" fill="#065EA9"/>
<path d="M74.6342 11.285C72.5249 16.0311 71.8393 17.5076 71.7514 17.5955C71.6811 17.6658 70.0463 17.8768 68.1128 18.0877C64.228 18.5096 63.7534 18.5799 63.8413 18.7908C63.8764 18.8611 65.1772 20.0916 66.7592 21.5154C68.3237 22.9569 69.6069 24.1873 69.6069 24.2752C69.6069 24.3631 69.2553 26.1385 68.8159 28.2303C68.3764 30.3397 68.06 32.0799 68.0952 32.1151C68.1303 32.1502 68.9038 31.7459 69.8003 31.2361C70.7143 30.7088 72.2963 29.8123 73.3159 29.2322L75.1792 28.1776L78.6772 30.1639C80.5932 31.2537 82.1928 32.0975 82.228 32.0096C82.2631 31.9041 81.0678 25.8397 80.7514 24.5213C80.6811 24.2401 81.2963 23.5897 83.6694 21.4627C85.603 19.7049 86.5874 18.7029 86.4467 18.6151C86.3237 18.5623 84.4956 18.3338 82.4038 18.1053L78.5893 17.701L76.9545 14.0447C76.0581 12.0233 75.267 10.3709 75.1792 10.3709C75.1088 10.3709 74.8628 10.7928 74.6342 11.285Z" fill="#065EA9"/>
<path d="M15.8389 37.4238C15.1182 38.8125 7.03223 56.1094 7.03223 56.2324C7.03223 56.3203 9.1416 57.3047 11.7256 58.4648C14.3271 59.6074 16.6826 60.7852 16.999 61.0488C17.6494 61.6289 18.3877 63.0879 18.5635 64.1426C18.6338 64.5293 18.7393 64.8633 18.8271 64.8633C18.915 64.8633 19.3193 64.5996 19.7412 64.2832C20.7607 63.5098 22.4482 63.0352 23.626 63.1934C26.0342 63.5098 27.8799 65.0566 28.6006 67.377L28.8818 68.3438H30.1826C31.29 68.3438 31.6592 68.4316 32.6084 68.8887C33.9443 69.5566 35.0342 70.6992 35.4736 71.9297C35.6846 72.5625 35.8428 72.7559 36.0361 72.668C36.1768 72.5977 36.8623 72.5098 37.5303 72.4746C38.5146 72.4043 38.9717 72.457 39.8154 72.791C41.1338 73.2832 42.6807 74.7598 43.1377 75.9727C43.4541 76.7637 43.4893 76.7988 44.0166 76.6758C44.3154 76.6055 45.0713 76.5527 45.7041 76.5527C47.0225 76.5703 48.3936 77.1152 49.3779 78.0469C49.7119 78.3457 51.5752 79.4883 53.5088 80.5605C56.6904 82.3184 57.1299 82.5117 57.9209 82.5117C60.5225 82.5117 61.8232 79.3125 59.9248 77.5371C59.6963 77.3438 57.3232 75.9375 54.6338 74.4258C51.9443 72.9141 49.6592 71.5254 49.5713 71.3496C49.0791 70.4355 49.7119 69.2578 50.6963 69.2578C50.9951 69.2578 53.4736 70.541 57.3584 72.7207C64.2139 76.5527 64.4951 76.6582 65.9014 75.9551C67.5186 75.1113 67.958 72.9844 66.7979 71.5078C66.6221 71.2617 64.3018 69.8555 61.6826 68.3613C59.0459 66.8848 56.6904 65.5137 56.4619 65.3027C55.8467 64.7578 55.8643 63.8965 56.4971 63.334C56.7607 63.1231 57.1475 62.9297 57.3584 62.9297C57.5693 62.9297 60.2764 64.3711 63.3701 66.1113C68.4326 68.9941 69.1006 69.3105 69.9795 69.3809C71.8252 69.5391 72.9678 68.5898 73.0732 66.8145C73.126 66.041 73.0557 65.6895 72.7393 65.127C72.3701 64.4941 71.5967 64.002 64.4248 59.9063C60.0654 57.4277 56.1631 55.2656 55.7412 55.1074C53.9482 54.4922 51.9795 54.8613 47.1631 56.7598C43.4541 58.2188 41.5029 58.7988 39.499 59.0625C36.4932 59.4668 33.5049 58.5 31.1846 56.3731C29.4971 54.8262 28.6533 53.7012 28.6533 53.0156C28.6533 52.2598 28.8643 52.0313 30.499 51.0645C32.5029 49.8691 34.999 48.1465 36.8271 46.6699C38.6729 45.1934 42.6279 41.4844 42.6279 41.2383C42.6279 41.1328 42.1533 40.9043 41.5732 40.7109C39.8506 40.1484 36.915 40.2188 33.9092 40.9219C28.4072 42.1875 27.8799 42.1348 22.4131 39.6035C20.1982 38.584 17.8779 37.5117 17.2627 37.2481L16.1729 36.7559L15.8389 37.4238Z" fill="#065EA9"/>
<path d="M71.8942 40.623C67.9216 42.8027 67.5348 42.9434 65.8298 42.9609C64.195 42.9609 63.3512 42.7324 59.6774 41.3086C55.2477 39.5859 52.945 39.3574 49.9743 40.3418C47.4079 41.2031 45.2985 42.6797 41.6598 46.1426C39.3923 48.3047 37.0895 50.1152 34.1891 52.0313C33.1345 52.7344 32.2204 53.3496 32.1677 53.3848C31.9919 53.5605 33.8903 55.0547 34.9626 55.5996C35.9645 56.0918 36.3161 56.1621 37.863 56.2148C40.1481 56.3027 41.4137 55.9863 46.195 54.123C48.1813 53.3496 50.4313 52.5586 51.2223 52.3828C53.1735 51.9082 55.1423 51.9258 56.6012 52.4355C57.9723 52.9102 73.3356 61.6816 74.0915 62.4199C74.3903 62.7012 74.7067 62.9297 74.7946 62.9297C74.9352 62.9297 82.863 59.6602 83.1091 59.502C83.2497 59.4141 75.2165 39.1113 75.0231 39.0762C74.9001 39.0586 73.4938 39.7617 71.8942 40.623Z" fill="#065EA9"/>
<path d="M21.6534 66.375C20.9327 66.7441 20.7569 66.9902 18.9816 70.3125C17.3292 73.4062 17.171 74.0391 17.7159 75.2871C18.4718 77.0098 20.6691 77.4844 22.1983 76.2891C22.7257 75.8672 25.8194 70.1719 25.9601 69.3633C26.1007 68.502 25.7316 67.4648 25.046 66.7969C24.5011 66.2695 24.3077 66.1992 23.3233 66.1465C22.5499 66.0937 22.0577 66.1641 21.6534 66.375Z" fill="#065EA9"/>
<path d="M28.8993 71.4727C28.0204 71.8945 27.7743 72.2637 25.6649 76.2012C23.4325 80.3848 23.2216 81.0879 23.8896 82.3887C24.3817 83.3555 25.2079 83.8477 26.3329 83.8477C27.4228 83.8477 27.8974 83.6719 28.4774 83.0918C28.7235 82.8457 29.8134 80.9648 30.9208 78.8906C33.206 74.6191 33.4169 73.916 32.6962 72.6328C31.9755 71.3496 30.2177 70.8223 28.8993 71.4727Z" fill="#065EA9"/>
<path d="M36.6508 75.4803C35.807 75.8494 35.4203 76.3943 33.7504 79.5584C31.975 82.8631 31.7641 83.4607 31.975 84.41C32.3266 85.9217 33.4867 86.7479 35.0863 86.6248C36.5805 86.5018 36.932 86.0975 38.936 82.3182C40.518 79.365 40.6938 78.9256 40.6938 78.117C40.6762 76.992 40.2016 76.1482 39.2699 75.6385C38.4965 75.1814 37.4418 75.1287 36.6508 75.4803Z" fill="#065EA9"/>
<path d="M44.5615 79.5059C43.4717 79.9453 43.2607 80.209 41.6436 83.1797C40.1143 86.0098 39.9912 86.291 39.9912 87.2227C39.9912 88.8926 41.1338 90 42.874 90C44.4736 90 44.8428 89.6309 46.6709 86.2734C48.1826 83.5137 48.2354 83.373 48.2529 82.2656C48.2529 81.3516 48.165 81.0176 47.8486 80.543C47.1279 79.5586 45.6162 79.0664 44.5615 79.5059Z" fill="#065EA9"/>
<path d="M51.1507 83.1445C51.1507 83.4258 50.676 84.6035 50.0784 85.7812C49.4632 86.9941 49.0589 87.9785 49.1467 88.0664C49.2346 88.1367 49.8674 88.5058 50.5706 88.8574C51.678 89.4375 51.9592 89.5078 52.7327 89.4375C54.2971 89.2793 55.3694 88.1367 55.3694 86.625C55.3694 85.1484 54.8596 84.5156 52.803 83.3906C52.012 82.9687 51.3264 82.6172 51.2561 82.6172C51.2034 82.6172 51.1507 82.8457 51.1507 83.1445Z" fill="#065EA9"/>
</g>
</svg>
