<svg width="40" height="40" viewBox="0 0 40 40" fill="none" xmlns="http://www.w3.org/2000/svg">
<path d="M19.0234 2.24219C18.5156 3.48438 18.0938 4.5 18.0781 4.51562C18.0703 4.53125 17.0625 4.64844 15.8438 4.78125C14.6328 4.91406 13.6094 5.04688 13.5703 5.07812C13.5391 5.10156 14.2578 5.80469 15.1719 6.64062C16.0859 7.46875 16.8438 8.17188 16.8594 8.20312C16.8672 8.22656 16.6719 9.25781 16.4141 10.4922C16.1641 11.7266 15.9688 12.7344 15.9844 12.7344C16 12.7344 16.9063 12.2188 18 11.5938L20 10.4609L22 11.5938C23.1016 12.2188 24.0156 12.7344 24.0234 12.7344C24.0391 12.7344 23.8359 11.7266 23.5859 10.4922C23.3281 9.25781 23.1328 8.22656 23.1406 8.20312C23.1563 8.17188 23.9141 7.46875 24.8281 6.64062C25.7422 5.80469 26.4609 5.10156 26.4297 5.07812C26.3906 5.04688 25.3672 4.91406 24.1563 4.78125C22.9375 4.64844 21.9297 4.53125 21.9219 4.51562C21.9141 4.5 21.4844 3.48438 20.9766 2.24219C20.4688 1.00781 20.0313 0 20 0C19.9688 0 19.5313 1.00781 19.0234 2.24219Z" fill="#065EA9"/>
<path d="M5.79673 6.24221L5.07016 7.86721L3.37485 8.0469C2.44516 8.14846 1.63266 8.25003 1.57798 8.27346C1.51548 8.31253 1.9686 8.76565 2.81235 9.53128C3.86704 10.4844 4.14048 10.7735 4.10923 10.8985C3.9686 11.461 3.43735 14.1797 3.45298 14.2344C3.4686 14.2657 4.16391 13.9063 4.99985 13.4219C5.83579 12.9453 6.56235 12.5547 6.60141 12.5547C6.64829 12.5547 7.35923 12.9532 8.19516 13.4297C9.0311 13.9063 9.7186 14.2891 9.73423 14.2735C9.74985 14.2578 9.60923 13.4844 9.41391 12.5469C9.2186 11.6172 9.06235 10.8282 9.06235 10.7891C9.06235 10.75 9.63266 10.1953 10.3358 9.56253C11.0311 8.9219 11.6014 8.36721 11.6014 8.32815C11.6014 8.27346 10.8749 8.16409 9.85141 8.0469L8.10923 7.85159L7.38266 6.25003C6.98423 5.37503 6.62485 4.64846 6.5936 4.63284C6.55454 4.62503 6.19516 5.34378 5.79673 6.24221Z" fill="#065EA9"/>
<path d="M33.1711 5.01553C32.2336 7.12491 31.9289 7.78116 31.8898 7.82022C31.8586 7.85147 31.132 7.94522 30.2727 8.03897C28.5461 8.22647 28.3352 8.25772 28.3742 8.35147C28.3898 8.38272 28.968 8.92959 29.6711 9.56241C30.3664 10.203 30.9367 10.7499 30.9367 10.789C30.9367 10.828 30.7805 11.6171 30.5852 12.5468C30.3898 13.4843 30.2492 14.2577 30.2648 14.2733C30.2805 14.289 30.6242 14.1093 31.0227 13.8827C31.4289 13.6483 32.132 13.2499 32.5852 12.9921L33.4133 12.5233L34.968 13.4062C35.8195 13.8905 36.5305 14.2655 36.5461 14.2265C36.5617 14.1796 36.0305 11.4843 35.8898 10.8983C35.8586 10.7733 36.132 10.4843 37.1867 9.53897C38.0461 8.75772 38.4836 8.31241 38.4211 8.27334C38.3664 8.24991 37.5539 8.14834 36.6242 8.04678L34.9289 7.86709L34.2023 6.24209C33.8039 5.34366 33.4523 4.60928 33.4133 4.60928C33.382 4.60928 33.2727 4.79678 33.1711 5.01553Z" fill="#065EA9"/>
<path d="M7.04004 16.6328C6.71973 17.25 3.12598 24.9375 3.12598 24.9922C3.12598 25.0313 4.06348 25.4688 5.21191 25.9844C6.36816 26.4922 7.41504 27.0156 7.55566 27.1328C7.84473 27.3906 8.17285 28.0391 8.25098 28.5078C8.28223 28.6797 8.3291 28.8281 8.36816 28.8281C8.40723 28.8281 8.58691 28.7109 8.77441 28.5703C9.22754 28.2266 9.97754 28.0156 10.501 28.0859C11.5713 28.2266 12.3916 28.9141 12.7119 29.9453L12.8369 30.375H13.415C13.9072 30.375 14.0713 30.4141 14.4932 30.6172C15.0869 30.9141 15.5713 31.4219 15.7666 31.9688C15.8604 32.25 15.9307 32.3359 16.0166 32.2969C16.0791 32.2656 16.3838 32.2266 16.6807 32.2109C17.1182 32.1797 17.3213 32.2031 17.6963 32.3516C18.2822 32.5703 18.9697 33.2266 19.1728 33.7656C19.3135 34.1172 19.3291 34.1328 19.5635 34.0781C19.6963 34.0469 20.0322 34.0234 20.3135 34.0234C20.8994 34.0313 21.5088 34.2734 21.9463 34.6875C22.0947 34.8203 22.9228 35.3281 23.7822 35.8047C25.1963 36.5859 25.3916 36.6719 25.7432 36.6719C26.8994 36.6719 27.4775 35.25 26.6338 34.4609C26.5322 34.375 25.4775 33.75 24.2822 33.0781C23.0869 32.4063 22.0713 31.7891 22.0322 31.7109C21.8135 31.3047 22.0947 30.7813 22.5322 30.7813C22.665 30.7813 23.7666 31.3516 25.4932 32.3203C28.54 34.0234 28.665 34.0703 29.29 33.7578C30.0088 33.3828 30.2041 32.4375 29.6885 31.7813C29.6103 31.6719 28.5791 31.0469 27.415 30.3828C26.2432 29.7266 25.1963 29.1172 25.0947 29.0234C24.8213 28.7813 24.8291 28.3984 25.1103 28.1484C25.2275 28.0547 25.3994 27.9688 25.4932 27.9688C25.5869 27.9688 26.79 28.6094 28.165 29.3828C30.415 30.6641 30.7119 30.8047 31.1025 30.8359C31.9228 30.9063 32.4307 30.4844 32.4775 29.6953C32.501 29.3516 32.4697 29.1953 32.3291 28.9453C32.165 28.6641 31.8213 28.4453 28.6338 26.625C26.6963 25.5234 24.9619 24.5625 24.7744 24.4922C23.9775 24.2188 23.1025 24.3828 20.9619 25.2266C19.3135 25.875 18.4463 26.1328 17.5557 26.25C16.2197 26.4297 14.8916 26 13.8604 25.0547C13.1104 24.3672 12.7354 23.8672 12.7354 23.5625C12.7354 23.2266 12.8291 23.125 13.5557 22.6953C14.4463 22.1641 15.5557 21.3984 16.3682 20.7422C17.1885 20.0859 18.9463 18.4375 18.9463 18.3281C18.9463 18.2813 18.7354 18.1797 18.4775 18.0938C17.7119 17.8438 16.4072 17.875 15.0713 18.1875C12.626 18.75 12.3916 18.7266 9.96191 17.6016C8.97754 17.1484 7.94629 16.6719 7.67285 16.5547L7.18848 16.3359L7.04004 16.6328Z" fill="#065EA9"/>
<path d="M31.9533 18.0547C30.1877 19.0234 30.0158 19.0859 29.258 19.0938C28.5314 19.0938 28.1564 18.9922 26.5236 18.3594C24.5549 17.5938 23.5314 17.4922 22.2111 17.9297C21.0705 18.3125 20.133 18.9688 18.5158 20.5078C17.508 21.4688 16.4846 22.2734 15.1955 23.125C14.7267 23.4375 14.3205 23.7109 14.2971 23.7266C14.2189 23.8047 15.0627 24.4688 15.5392 24.7109C15.9846 24.9297 16.1408 24.9609 16.8283 24.9844C17.8439 25.0234 18.4064 24.8828 20.5314 24.0547C21.4142 23.7109 22.4142 23.3594 22.7658 23.2813C23.633 23.0703 24.508 23.0781 25.1564 23.3047C25.7658 23.5156 32.5939 27.4141 32.9299 27.7422C33.0627 27.8672 33.2033 27.9688 33.2424 27.9688C33.3049 27.9688 36.8283 26.5156 36.9377 26.4453C37.0002 26.4063 33.4299 17.3828 33.3439 17.3672C33.2892 17.3594 32.6642 17.6719 31.9533 18.0547Z" fill="#065EA9"/>
<path d="M9.62407 29.5C9.30376 29.6641 9.22563 29.7734 8.43657 31.25C7.7022 32.625 7.63188 32.9062 7.87407 33.4609C8.21001 34.2266 9.18657 34.4375 9.86626 33.9062C10.1006 33.7187 11.4756 31.1875 11.5381 30.8281C11.6006 30.4453 11.4366 29.9844 11.1319 29.6875C10.8897 29.4531 10.8038 29.4219 10.3663 29.3984C10.0225 29.375 9.80376 29.4062 9.62407 29.5Z" fill="#065EA9"/>
<path d="M12.8447 31.7656C12.4541 31.9531 12.3447 32.1172 11.4072 33.8672C10.415 35.7266 10.3212 36.0391 10.6181 36.6172C10.8369 37.0469 11.2041 37.2656 11.7041 37.2656C12.1884 37.2656 12.3994 37.1875 12.6572 36.9297C12.7666 36.8203 13.2509 35.9844 13.7431 35.0625C14.7587 33.1641 14.8525 32.8516 14.5322 32.2812C14.2119 31.7109 13.4306 31.4766 12.8447 31.7656Z" fill="#065EA9"/>
<path d="M16.2895 33.5468C15.9145 33.7108 15.7426 33.953 15.0004 35.3593C14.2113 36.828 14.1176 37.0936 14.2113 37.5155C14.3676 38.1874 14.8832 38.5546 15.5941 38.4999C16.2582 38.4452 16.4145 38.2655 17.3051 36.5858C18.0082 35.2733 18.0863 35.078 18.0863 34.7187C18.0785 34.2187 17.8676 33.8437 17.4535 33.6171C17.1098 33.414 16.641 33.3905 16.2895 33.5468Z" fill="#065EA9"/>
<path d="M19.8057 35.3359C19.3213 35.5312 19.2275 35.6484 18.5088 36.9688C17.8291 38.2266 17.7744 38.3516 17.7744 38.7656C17.7744 39.5078 18.2822 40 19.0557 40C19.7666 40 19.9307 39.8359 20.7432 38.3438C21.415 37.1172 21.4385 37.0547 21.4463 36.5625C21.4463 36.1562 21.4072 36.0078 21.2666 35.7969C20.9463 35.3594 20.2744 35.1406 19.8057 35.3359Z" fill="#065EA9"/>
<path d="M22.7338 36.9531C22.7338 37.0781 22.5229 37.6015 22.2573 38.1249C21.9838 38.664 21.8042 39.1015 21.8432 39.1406C21.8823 39.1718 22.1635 39.3359 22.476 39.4921C22.9682 39.7499 23.0932 39.7812 23.437 39.7499C24.1323 39.6796 24.6088 39.1718 24.6088 38.4999C24.6088 37.8437 24.3823 37.5624 23.4682 37.0624C23.1167 36.8749 22.812 36.7187 22.7807 36.7187C22.7573 36.7187 22.7338 36.8203 22.7338 36.9531Z" fill="#065EA9"/>
</svg>
