<svg width="15" height="15" viewBox="0 0 15 15" fill="none" xmlns="http://www.w3.org/2000/svg">
<path fill-rule="evenodd" clip-rule="evenodd" d="M7.09084 2.81558C6.5252 0.771877 4.48882 -0.490419 2.47366 0.181733C1.16075 0.619627 0.36153 1.43658 0.096587 2.52624C-0.149676 3.53907 0.107001 4.63206 0.505639 5.59797C1.30841 7.54311 2.89725 9.47021 3.79683 10.3705C4.67567 11.25 6.59999 12.8457 8.54879 13.6558C9.51638 14.058 10.6135 14.3192 11.6309 14.0735C12.726 13.8091 13.547 13.0058 13.9874 11.6836C14.6585 9.66858 13.3985 7.63063 11.3552 7.06426L11.3552 7.06426C9.95859 6.67714 8.49392 7.04627 7.49436 7.9434C7.25974 7.76171 7.03409 7.56326 6.81889 7.3479C6.60264 7.13149 6.40344 6.90448 6.22114 6.66838C7.11124 5.66847 7.47627 4.20821 7.09084 2.81559L7.09084 2.81558Z" fill="#5D6B8A"/>
</svg>
