<svg width="90" height="90" viewBox="0 0 90 90" fill="none" xmlns="http://www.w3.org/2000/svg">
<g opacity="0.05" clip-path="url(#clip0_2154_41611)">
<path d="M22.4648 27.4571C10.1074 32.2208 0 36.1583 0 36.2286C0 36.2814 2.14453 37.1075 4.78125 38.0568C10.0723 39.9552 9.73828 39.92 10.2305 38.5665C10.4062 38.0568 10.4941 38.004 11.4785 37.8986C12.8848 37.7579 13.9746 37.7579 14.1328 37.9161C14.2031 37.9864 13.6055 38.215 12.8145 38.4083L11.373 38.7775L10.6699 40.4298C8.61328 45.3868 8.20898 46.4415 7.38281 48.8146C5.73047 53.5782 4.69336 58.7286 4.99219 60.7325C5.11523 61.4884 5.18555 61.5763 5.88867 61.8751C7.85742 62.7189 10.6699 62.7892 12.5684 62.0333C13.623 61.6114 13.623 61.6114 13.7461 60.7325C13.8164 60.2404 14.1328 55.5821 14.4316 50.3614C14.7305 45.1407 14.9941 40.8517 15.0117 40.8341C15.0996 40.7286 20.4961 39.5509 20.6719 39.5861C20.7949 39.6212 20.8301 39.7618 20.7422 39.9904C20.6367 40.2716 20.0566 40.5353 18.1758 41.1154C15.8379 41.8536 15.7676 41.8888 16.2246 42.1173C16.8574 42.4513 44.543 50.9767 45 50.9767C45.1934 50.9767 51.2754 49.1661 58.5 46.9337C68.4492 43.8751 73.8457 42.0997 80.8242 39.6212C85.8691 37.8107 90 36.2814 90 36.2286C90 36.1407 46.459 19.3185 45.1758 18.8966C45.0352 18.8614 34.8047 22.7111 22.4648 27.4571Z" fill="#065EA9"/>
<path d="M18.1411 53.297L18.1938 60.9084L18.6685 61.9279C22.4478 69.9611 44.2622 73.7756 60.1353 69.1525C65.6372 67.5529 69.8911 64.8635 71.2798 62.1037L71.8071 61.0842L71.8599 53.3849C71.8774 48.8674 71.8423 45.7033 71.7544 45.7033C71.6665 45.7033 65.6724 47.5138 58.4478 49.7463C51.2231 51.9611 45.1763 53.7892 45.0005 53.7892C44.8247 53.7892 38.7778 51.9611 31.5532 49.7463C24.3286 47.5138 18.3345 45.7033 18.2466 45.7033C18.1587 45.7033 18.1235 48.8322 18.1411 53.297Z" fill="#065EA9"/>
</g>
<defs>
<clipPath id="clip0_2154_41611">
<rect width="90" height="90" fill="white"/>
</clipPath>
</defs>
</svg>
