<svg width="40" height="40" viewBox="0 0 40 40" fill="none" xmlns="http://www.w3.org/2000/svg">
<g clip-path="url(#clip0_2154_41607)">
<path d="M9.98438 12.2032C4.49219 14.3204 0 16.0704 0 16.1017C0 16.1251 0.953125 16.4923 2.125 16.9142C4.47656 17.7579 4.32812 17.7423 4.54688 17.1407C4.625 16.9142 4.66406 16.8907 5.10156 16.8439C5.72656 16.7814 6.21094 16.7814 6.28125 16.8517C6.3125 16.8829 6.04688 16.9845 5.69531 17.0704L5.05469 17.2345L4.74219 17.9689C3.82812 20.172 3.64844 20.6407 3.28125 21.6954C2.54688 23.8126 2.08594 26.1017 2.21875 26.9923C2.27344 27.3282 2.30469 27.3673 2.61719 27.5001C3.49219 27.8751 4.74219 27.9064 5.58594 27.5704C6.05469 27.3829 6.05469 27.3829 6.10938 26.9923C6.14062 26.7735 6.28125 24.7032 6.41406 22.3829C6.54688 20.0626 6.66406 18.1564 6.67188 18.1485C6.71094 18.1017 9.10938 17.5782 9.1875 17.5939C9.24219 17.6095 9.25781 17.672 9.21875 17.7735C9.17188 17.8985 8.91406 18.0157 8.07812 18.2735C7.03906 18.6017 7.00781 18.6173 7.21094 18.7189C7.49219 18.8673 19.7969 22.6564 20 22.6564C20.0859 22.6564 22.7891 21.8517 26 20.8595C30.4219 19.5001 32.8203 18.711 35.9219 17.6095C38.1641 16.8048 40 16.1251 40 16.1017C40 16.0626 20.6484 8.58604 20.0781 8.39854C20.0156 8.38292 15.4688 10.0939 9.98438 12.2032Z" fill="#065EA9"/>
<path d="M8.0625 23.6874L8.08594 27.0703L8.29688 27.5234C9.97656 31.0937 19.6719 32.789 26.7266 30.7343C29.1719 30.0234 31.0625 28.8281 31.6797 27.6015L31.9141 27.1484L31.9375 23.7265C31.9453 21.7187 31.9297 20.3124 31.8906 20.3124C31.8516 20.3124 29.1875 21.1171 25.9766 22.1093C22.7656 23.0937 20.0781 23.9062 20 23.9062C19.9219 23.9062 17.2344 23.0937 14.0234 22.1093C10.8125 21.1171 8.14844 20.3124 8.10938 20.3124C8.07031 20.3124 8.05469 21.7031 8.0625 23.6874Z" fill="#065EA9"/>
</g>
<defs>
<clipPath id="clip0_2154_41607">
<rect width="40" height="40" fill="white"/>
</clipPath>
</defs>
</svg>
