<svg width="40" height="40" viewBox="0 0 40 40" fill="none" xmlns="http://www.w3.org/2000/svg">
<g clip-path="url(#clip0_2154_41481)">
<path d="M4.625 0.242096C4.01562 0.359283 3.36719 0.906158 3.07031 1.53897C2.9375 1.82022 2.92969 2.71866 2.90625 18.0233L2.89062 34.2187L13.1797 34.2343L23.4766 34.2577L23.8438 34.4765C24.0469 34.5937 24.25 34.7577 24.2969 34.8437C24.3672 34.9765 24.4141 34.953 24.7969 34.5702C25.125 34.2343 25.2891 34.1327 25.5469 34.0937C25.8828 34.039 25.9531 33.953 26.0469 33.4999C26.1172 33.1796 26.5312 32.7499 26.8594 32.6562C27.0156 32.6171 27.5781 32.578 28.1094 32.578H29.0625V32.1015C29.0625 31.6484 29.0469 31.6093 28.7109 31.2343C27.5547 29.9452 26.9453 27.039 27.2734 24.3358C27.4062 23.2265 27.8672 22.6015 28.6328 22.5155C28.9297 22.4843 28.9844 22.453 28.9375 22.3515C28.7812 22.0155 28.5234 20.8515 28.5234 20.5077C28.5156 20.0233 28.6953 19.2343 28.9062 18.828C29.0625 18.5233 29.0625 18.3749 29.0625 10.164C29.0625 1.88272 29.0625 1.79678 29.2266 1.3671C29.3125 1.12491 29.5078 0.773346 29.6562 0.585846C29.8047 0.390533 29.9219 0.218658 29.9219 0.195221C29.9219 0.124908 4.97656 0.171783 4.625 0.242096ZM26.4141 5.46085C26.6719 5.78116 26.5781 6.18741 26.1953 6.39053C26.0703 6.46085 23.4688 6.48428 15.9766 6.48428C7.3125 6.48428 5.89844 6.46866 5.71094 6.3671C5.33594 6.1796 5.27344 5.73428 5.58594 5.42178L5.77344 5.23428L16.0234 5.24991L26.2656 5.27335L26.4141 5.46085ZM26.1953 9.85928C26.6875 10.1171 26.6875 10.664 26.1953 10.9218C26.0703 10.9921 23.4688 11.0155 15.9766 11.0155C4.99219 11.0155 5.53906 11.039 5.42188 10.5702C5.35156 10.289 5.46875 9.98428 5.70312 9.8671C5.97656 9.72647 25.9375 9.71866 26.1953 9.85928ZM26.1953 14.3905C26.5781 14.5937 26.6719 14.9999 26.4141 15.3202L26.2656 15.5077L16.0234 15.5312L5.77344 15.5468L5.58594 15.3593C5.27344 15.0468 5.34375 14.6093 5.74219 14.3905C5.96875 14.2577 25.9609 14.2655 26.1953 14.3905ZM26.3203 19.0312C26.625 19.289 26.6406 19.6093 26.3672 19.8827L26.1797 20.078H15.9766H5.77344L5.58594 19.8827C5.27344 19.578 5.34375 19.1483 5.74219 18.9218C5.85938 18.8593 8.54688 18.8358 15.9922 18.828H26.0781L26.3203 19.0312ZM26.3594 23.5858C26.625 23.8358 26.625 24.164 26.3672 24.414L26.1797 24.6093H15.9766H5.77344L5.58594 24.414C5.25781 24.0858 5.39062 23.5858 5.85938 23.414C5.92188 23.3905 10.5156 23.3749 16.0703 23.3827L26.1562 23.3983L26.3594 23.5858ZM19.1875 28.1483C19.4297 28.4296 19.4297 28.703 19.1797 28.9452L18.9922 29.1405H12.3828H5.77344L5.58594 28.9452C5.24219 28.6093 5.41406 28.0624 5.89844 27.9452C5.98438 27.9218 8.96875 27.914 12.5234 27.9218L19 27.9296L19.1875 28.1483Z" fill="#065EA9"/>
<path d="M31.5391 0.242187C30.8359 0.40625 30.2812 0.867187 29.9766 1.55469C29.8359 1.85937 29.8047 2.11719 29.7812 3.21875L29.75 4.53125H31.75H33.7578L33.9453 4.33594C34.1328 4.15625 34.1406 4.11719 34.1406 2.99219C34.1406 1.94531 34.125 1.79687 33.9531 1.44531C33.7578 1.01562 33.2734 0.53125 32.875 0.367187C32.5156 0.21875 31.8906 0.15625 31.5391 0.242187Z" fill="#065EA9"/>
<path d="M37.6489 7.71875C37.0708 8.30469 36.227 9.22656 35.7661 9.76562C33.9614 11.875 32.1333 14.3984 32.2114 14.6641C32.2349 14.7422 32.4145 15.25 32.6099 15.7969C32.8052 16.3516 32.9536 16.7969 32.938 16.7969C32.9302 16.7969 32.7114 16.5156 32.4692 16.1719C32.0083 15.5391 31.8208 15.4062 31.5942 15.5312C31.2895 15.7031 29.5317 19.0781 29.3833 19.7734C29.188 20.6797 29.2817 21.1406 30.063 23.2031C30.8911 25.3906 30.8833 25.4609 29.9849 24.2266C29.6802 23.8125 29.3755 23.4297 29.313 23.375C29.1411 23.2422 28.5864 23.2578 28.3833 23.3984C28.1411 23.5703 28.0552 23.9531 28.0005 25.1172C27.8755 27.5938 28.4067 29.8203 29.3599 30.7969L29.7114 31.1641L29.5474 31.75C29.4536 32.0703 29.352 32.3906 29.3286 32.4531C29.2895 32.5625 29.3599 32.5781 29.7895 32.5781C30.2739 32.5781 30.2974 32.5703 30.352 32.3594C30.3755 32.2422 30.4536 31.9609 30.5161 31.7344C30.6333 31.3359 30.6411 31.3281 30.9224 31.3281C31.563 31.3203 32.6411 30.6953 33.6567 29.7344C34.5161 28.9219 35.8599 27.4062 35.8599 27.2578C35.8599 26.9844 35.6411 26.875 35.102 26.875H34.5942L35.0161 26.4219C35.852 25.5156 36.2505 24.7188 37.0239 22.4219C37.7505 20.2891 38.1567 18.0312 37.8755 17.75C37.688 17.5625 37.4927 17.6641 36.5239 18.4453C35.977 18.875 35.5786 19.1641 35.6177 19.0859C35.6645 19.0078 36.1177 18.375 36.6255 17.6797C37.7192 16.1641 38.2114 15.3828 38.5239 14.6016C39.0942 13.2109 39.5708 10.3828 39.2817 10.0938C39.0864 9.89844 38.8755 10.0156 38.188 10.7188C37.8052 11.1172 37.5161 11.3906 37.5474 11.3281C37.5786 11.2656 37.9302 10.75 38.3286 10.1875C38.727 9.625 39.1411 8.98438 39.2505 8.77344C39.4849 8.33594 39.7114 7.35156 39.6333 7.13281C39.5317 6.82812 39.2739 6.64062 38.9849 6.64062C38.7114 6.64062 38.6177 6.71875 37.6489 7.71875Z" fill="#065EA9"/>
<path d="M26.875 33.5156C26.75 33.6406 26.7188 33.7734 26.7188 34.2187V34.7656H26.2891C25.5 34.7656 25.0781 35.1016 25.0781 35.7187C25.0781 36.1406 25.9141 39.2969 26.0703 39.4687C26.375 39.8125 26.5938 39.8438 28.9219 39.8438C30.1953 39.8438 31.2578 39.8125 31.4219 39.7656C31.5781 39.7187 31.7812 39.5937 31.8594 39.4922C31.9531 39.375 32.1875 38.5859 32.4688 37.4766L32.9219 35.6562L32.7656 35.3516C32.5781 34.9609 32.2109 34.7656 31.6641 34.7656H31.25V34.2187C31.25 33.3281 31.3203 33.3594 28.9844 33.3594C27.1328 33.3594 27.0234 33.3672 26.875 33.5156Z" fill="#065EA9"/>
<path d="M0.820312 35.0703C0.734375 35.1093 0.59375 35.2187 0.507812 35.3125C0.367188 35.4687 0.351562 35.5937 0.351562 36.5937C0.351562 37.6406 0.359375 37.7187 0.570312 38.1406C0.695312 38.3906 0.9375 38.7109 1.10938 38.8593C1.75 39.414 0.921875 39.375 13.4688 39.3593L24.7812 39.3359L24.5312 39.0234C24.0391 38.414 23.9609 38.125 23.9062 36.789C23.8594 35.4687 23.7891 35.2265 23.3906 35.0781C23.1484 34.9843 1.04688 34.9843 0.820312 35.0703Z" fill="#065EA9"/>
</g>
<defs>
<clipPath id="clip0_2154_41481">
<rect width="40" height="40" fill="white"/>
</clipPath>
</defs>
</svg>
