<svg width="20" height="20" viewBox="0 0 20 20" fill="none" xmlns="http://www.w3.org/2000/svg">
<path fill-rule="evenodd" clip-rule="evenodd" d="M1.91539 6.45846C2.22162 4.10738 4.23211 2.29175 6.66667 2.29175H13.3333C15.7679 2.29175 17.7784 4.10738 18.0846 6.45846H1.91539ZM1.875 7.70846V13.7501C1.875 16.3964 4.0203 18.5417 6.66667 18.5417H13.3333C15.9797 18.5417 18.125 16.3964 18.125 13.7501V7.70846H1.875ZM5.41667 11.0418C5.07149 11.0418 4.79167 10.762 4.79167 10.4168C4.79167 10.0716 5.07149 9.79179 5.41667 9.79179H6.25C6.59518 9.79179 6.875 10.0716 6.875 10.4168C6.875 10.762 6.59518 11.0418 6.25 11.0418H5.41667ZM8.95833 10.4168C8.95833 10.762 9.23815 11.0418 9.58333 11.0418H10.4167C10.7618 11.0418 11.0417 10.762 11.0417 10.4168C11.0417 10.0716 10.7618 9.79179 10.4167 9.79179H9.58333C9.23815 9.79179 8.95833 10.0716 8.95833 10.4168ZM13.75 11.0418C13.4048 11.0418 13.125 10.762 13.125 10.4168C13.125 10.0716 13.4048 9.79179 13.75 9.79179H14.5833C14.9285 9.79179 15.2083 10.0716 15.2083 10.4168C15.2083 10.762 14.9285 11.0418 14.5833 11.0418H13.75ZM4.79166 13.7501C4.79166 14.0953 5.07149 14.3751 5.41666 14.3751H6.25C6.59518 14.3751 6.875 14.0953 6.875 13.7501C6.875 13.4049 6.59518 13.1251 6.25 13.1251H5.41666C5.07149 13.1251 4.79166 13.4049 4.79166 13.7501ZM9.58333 14.3751C9.23815 14.3751 8.95833 14.0953 8.95833 13.7501C8.95833 13.4049 9.23815 13.1251 9.58333 13.1251H10.4167C10.7618 13.1251 11.0417 13.4049 11.0417 13.7501C11.0417 14.0953 10.7618 14.3751 10.4167 14.3751H9.58333ZM13.125 13.7501C13.125 14.0953 13.4048 14.3751 13.75 14.3751H14.5833C14.9285 14.3751 15.2083 14.0953 15.2083 13.7501C15.2083 13.4049 14.9285 13.1251 14.5833 13.1251H13.75C13.4048 13.1251 13.125 13.4049 13.125 13.7501ZM13.75 1.04175C13.4048 1.04175 13.125 1.32157 13.125 1.66675V4.16675C13.125 4.51193 13.4048 4.79175 13.75 4.79175C14.0952 4.79175 14.375 4.51193 14.375 4.16675V1.66675C14.375 1.32157 14.0952 1.04175 13.75 1.04175ZM6.25 1.04175C5.90482 1.04175 5.625 1.32157 5.625 1.66675L5.625 4.16675C5.625 4.51193 5.90482 4.79175 6.25 4.79175C6.59518 4.79175 6.875 4.51193 6.875 4.16675V1.66675C6.875 1.32157 6.59518 1.04175 6.25 1.04175Z" fill="#5D6B8A"/>
</svg>
