<svg width="16" height="20" viewBox="0 0 16 20" fill="none" xmlns="http://www.w3.org/2000/svg">
<path fill-rule="evenodd" clip-rule="evenodd" d="M8 0.5C8 0.223858 7.77614 0 7.5 0H4C1.79086 0 0 1.79086 0 4V16C0 18.2091 1.79086 20 4 20H12C14.2091 20 16 18.2091 16 16V8.5C16 8.22386 15.7761 8 15.5 8H13C10.2386 8 8 5.76142 8 3V0.5ZM15.2195 6C15.552 6 15.7909 5.67893 15.6312 5.3873C15.4956 5.13969 15.3245 4.91032 15.1213 4.70711L11.2929 0.87868C11.0897 0.675463 10.8603 0.504412 10.6127 0.368804C10.3211 0.209086 10 0.448045 10 0.780548V3C10 4.65685 11.3431 6 13 6H15.2195ZM5 7C4.44772 7 4 7.44772 4 8C4 8.55228 4.44772 9 5 9H6C6.55228 9 7 8.55228 7 8C7 7.44772 6.55228 7 6 7H5ZM4 12C4 11.4477 4.44772 11 5 11H11C11.5523 11 12 11.4477 12 12C12 12.5523 11.5523 13 11 13H5C4.44772 13 4 12.5523 4 12ZM4 16C4 15.4477 4.44772 15 5 15H11C11.5523 15 12 15.4477 12 16C12 16.5523 11.5523 17 11 17H5C4.44772 17 4 16.5523 4 16Z" fill="#065EA9"/>
</svg>
