<svg width="20" height="18" viewBox="0 0 20 18" fill="none" xmlns="http://www.w3.org/2000/svg">
<path d="M17.1129 9.67646H15.5662C15.7238 10.1081 15.81 10.5739 15.81 11.0594V16.9051C15.81 17.1076 15.7747 17.3019 15.7106 17.4826H18.2677C19.2229 17.4826 20 16.7054 20 15.7503V12.5635C20 10.9716 18.7048 9.67646 17.1129 9.67646ZM4.19004 11.0595C4.19004 10.5739 4.27617 10.1081 4.43383 9.6765H2.88711C1.29516 9.6765 0 10.9717 0 12.5636V15.7504C0 16.7055 0.77707 17.4826 1.73227 17.4826H4.28937C4.22356 17.2972 4.18997 17.1019 4.19004 16.9052V11.0595ZM11.768 8.17236H8.23199C6.64004 8.17236 5.34488 9.46752 5.34488 11.0595V16.9052C5.34488 17.224 5.6034 17.4826 5.9223 17.4826H14.0777C14.3966 17.4826 14.6551 17.2241 14.6551 16.9052V11.0595C14.6551 9.46752 13.36 8.17236 11.768 8.17236ZM10 0.51709C8.08547 0.51709 6.52789 2.07467 6.52789 3.98924C6.52789 5.28787 7.24465 6.42205 8.30316 7.01752C8.80523 7.29994 9.38406 7.46135 10 7.46135C10.6159 7.46135 11.1948 7.29994 11.6968 7.01752C12.7554 6.42205 13.4721 5.28783 13.4721 3.98924C13.4721 2.07471 11.9145 0.51709 10 0.51709ZM3.90305 3.75338C2.47121 3.75338 1.30637 4.91822 1.30637 6.35006C1.30637 7.78189 2.47121 8.94674 3.90305 8.94674C4.25491 8.94704 4.60311 8.87542 4.92629 8.73627C5.46949 8.5024 5.91738 8.08842 6.19453 7.56986C6.3953 7.19465 6.50015 6.77561 6.49973 6.35006C6.49973 4.91826 5.33488 3.75338 3.90305 3.75338ZM16.097 3.75338C14.6651 3.75338 13.5003 4.91822 13.5003 6.35006C13.4998 6.77561 13.6047 7.19466 13.8055 7.56986C14.0826 8.08846 14.5305 8.50244 15.0737 8.73627C15.3969 8.87542 15.7451 8.94704 16.097 8.94674C17.5288 8.94674 18.6936 7.78189 18.6936 6.35006C18.6936 4.91822 17.5288 3.75338 16.097 3.75338Z" fill="#5D6B8A"/>
</svg>
