<svg width="20" height="20" viewBox="0 0 20 20" fill="none" xmlns="http://www.w3.org/2000/svg">
<path d="M2.20875 12.2385C1.69347 11.4051 1.42062 10.4446 1.42082 9.46482V5.4633C1.42082 5.07162 1.10218 4.75295 0.710465 4.75295C0.318824 4.75295 0.000152588 5.07158 0.000152588 5.4633V12.0573C0.000152588 12.82 0.212106 13.5661 0.613043 14.2149C1.01364 14.8633 1.58698 15.3872 2.26875 15.7279L2.59265 15.8899V20.0001H4.01324V14.0073C3.27722 13.5727 2.65793 12.9657 2.20875 12.2385ZM14.3833 7.39045V3.95104C14.3833 3.55939 14.0646 3.24072 13.6729 3.24072C13.2813 3.24072 12.9626 3.55936 12.9626 3.95104V7.73717L13.0248 7.69428C13.4384 7.41322 13.9244 7.31857 14.3833 7.39045ZM18.8699 11.9031L16.9757 13.2108V5.24725C16.9757 4.85561 16.6571 4.53693 16.2654 4.53693C15.8737 4.53693 15.5551 4.85557 15.5551 5.24725V8.0585C15.5918 8.10299 15.6265 8.14913 15.659 8.19678C16.2467 9.06162 16.0212 10.2434 15.1565 10.8311L14.4587 11.3052C13.9822 11.6291 13.5794 12.0361 13.2616 12.5148C12.9511 12.9826 12.5537 13.3792 12.0997 13.6772L12.09 20.0001H16.1038L16.1143 16.2307L16.4253 16.0662C16.8371 15.8483 17.1984 15.5167 17.4702 15.1073C17.8725 14.5013 18.3822 13.9863 18.985 13.5766L19.6828 13.1024C20.0132 12.8779 20.0993 12.4264 19.8748 12.096C19.6507 11.7663 19.2002 11.6798 18.8699 11.9031Z" fill="#5D6B8A"/>
<path d="M13.8 10.3359L14.4978 9.86172C14.8282 9.63723 14.9143 9.18574 14.6898 8.85535C14.4657 8.52559 14.0155 8.43922 13.6852 8.66223L11.7907 9.97V2.00656C11.7907 1.61488 11.4721 1.29621 11.0804 1.29621C10.6887 1.29621 10.3701 1.61484 10.3701 2.00656V5.78727H9.19824V0.710312C9.19828 0.318633 8.87964 0 8.48796 0C8.09632 0 7.77765 0.318633 7.77765 0.710312V5.13918H6.60578V0.710312C6.60578 0.318633 6.28714 0 5.8955 0C5.50382 0 5.18515 0.318633 5.18515 0.710312V5.7873H4.01328V2.8707C4.01328 2.47906 3.69464 2.16039 3.30296 2.16039C2.91128 2.16039 2.59269 2.47906 2.59269 2.8707V9.46473C2.59269 10.2274 2.80464 10.9735 3.20558 11.6223C3.60614 12.2707 4.17947 12.7947 4.86124 13.1354L5.18515 13.2973V20H10.9181L10.9289 12.9902L11.2403 12.8254C11.6521 12.6075 12.0135 12.276 12.2852 11.8666C12.6875 11.2606 13.1971 10.7456 13.8 10.3359Z" fill="#5D6B8A"/>
</svg>
