<svg width="16" height="18" viewBox="0 0 16 18" fill="none" xmlns="http://www.w3.org/2000/svg">
<path d="M4.68599 15.4167C5.08715 16.8701 6.41888 17.9375 7.99992 17.9375H11.6666C13.5651 17.9375 15.1041 16.3985 15.1041 14.5V7.16667C15.1041 5.58563 14.0367 4.25389 12.5833 3.85274V10.8333C12.5833 13.3646 10.5312 15.4167 7.99992 15.4167H4.68599Z" fill="#065EA9"/>
<path d="M4.33325 0.0625C2.43477 0.0625 0.895752 1.60152 0.895752 3.5V10.8333C0.895752 12.7318 2.43477 14.2708 4.33325 14.2708H7.99992C9.8984 14.2708 11.4374 12.7318 11.4374 10.8333V3.5C11.4374 1.60152 9.8984 0.0625 7.99992 0.0625H4.33325Z" fill="#065EA9"/>
</svg>
