<svg width="18" height="16" viewBox="0 0 18 16" fill="none" xmlns="http://www.w3.org/2000/svg">
<path fill-rule="evenodd" clip-rule="evenodd" d="M1.5 0.291748C1.15482 0.291748 0.875 0.57157 0.875 0.916748C0.875 1.26193 1.15482 1.54175 1.5 1.54175H2.54167V14.2214C2.54167 15.4323 3.93201 16.1157 4.89075 15.3761L5.99978 14.5206C6.06953 14.4668 6.16559 14.4626 6.23969 14.5103L7.76076 15.4881C8.51566 15.9734 9.48434 15.9734 10.2392 15.4881L11.7603 14.5103C11.8344 14.4626 11.9305 14.4668 12.0002 14.5206L13.1092 15.3761C14.068 16.1157 15.4583 15.4323 15.4583 14.2214V1.54175H16.5C16.8452 1.54175 17.125 1.26193 17.125 0.916748C17.125 0.57157 16.8452 0.291748 16.5 0.291748H1.5ZM5.875 5.91675C5.875 5.57157 6.15482 5.29175 6.5 5.29175H9C9.34518 5.29175 9.625 5.57157 9.625 5.91675C9.625 6.26193 9.34518 6.54175 9 6.54175H6.5C6.15482 6.54175 5.875 6.26193 5.875 5.91675ZM6.5 8.62508C6.15482 8.62508 5.875 8.9049 5.875 9.25008C5.875 9.59526 6.15482 9.87508 6.5 9.87508H9C9.34518 9.87508 9.625 9.59526 9.625 9.25008C9.625 8.9049 9.34518 8.62508 9 8.62508H6.5ZM10.875 5.91675C10.875 5.57157 11.1548 5.29175 11.5 5.29175H11.9167C12.2618 5.29175 12.5417 5.57157 12.5417 5.91675C12.5417 6.26193 12.2618 6.54175 11.9167 6.54175H11.5C11.1548 6.54175 10.875 6.26193 10.875 5.91675ZM11.5 8.62508C11.1548 8.62508 10.875 8.9049 10.875 9.25008C10.875 9.59526 11.1548 9.87508 11.5 9.87508H11.9167C12.2618 9.87508 12.5417 9.59526 12.5417 9.25008C12.5417 8.9049 12.2618 8.62508 11.9167 8.62508H11.5Z" fill="#5D6B8A"/>
</svg>
