<svg width="14" height="14" viewBox="0 0 14 14" fill="none" xmlns="http://www.w3.org/2000/svg">
<path fill-rule="evenodd" clip-rule="evenodd" d="M4.33331 0.333328C4.7015 0.333328 4.99998 0.631805 4.99998 0.999995H8.99998C8.99998 0.631805 9.29846 0.333328 9.66665 0.333328C10.0348 0.333328 10.3333 0.631805 10.3333 0.999995C12.1743 0.999995 13.6666 2.49238 13.6666 4.33333V10.3333C13.6666 12.1743 12.1743 13.6667 10.3333 13.6667H3.66665C1.8257 13.6667 0.333313 12.1743 0.333313 10.3333V4.33333C0.333313 2.49238 1.8257 0.999995 3.66665 0.999995C3.66665 0.631805 3.96512 0.333328 4.33331 0.333328ZM2.99998 5.66666C2.99998 5.29847 3.29846 4.99999 3.66665 4.99999H10.3333C10.7015 4.99999 11 5.29847 11 5.66666C11 6.03485 10.7015 6.33333 10.3333 6.33333H3.66665C3.29846 6.33333 2.99998 6.03485 2.99998 5.66666ZM8.99998 10.3333C8.99998 9.96514 9.29846 9.66666 9.66665 9.66666H10.3333C10.7015 9.66666 11 9.96514 11 10.3333C11 10.7015 10.7015 11 10.3333 11H9.66665C9.29846 11 8.99998 10.7015 8.99998 10.3333Z" fill="#5D6B8A"/>
</svg>
