<svg width="12" height="14" viewBox="0 0 12 14" fill="none" xmlns="http://www.w3.org/2000/svg">
<path fill-rule="evenodd" clip-rule="evenodd" d="M6.00002 0.666829C6.00002 0.482735 5.85078 0.333496 5.66669 0.333496H3.33335C1.86059 0.333496 0.666687 1.5274 0.666687 3.00016V11.0002C0.666687 12.4729 1.86059 13.6668 3.33335 13.6668H8.66669C10.1394 13.6668 11.3334 12.4729 11.3334 11.0002V6.00016C11.3334 5.81607 11.1841 5.66683 11 5.66683H9.33335C7.4924 5.66683 6.00002 4.17444 6.00002 2.3335V0.666829ZM10.813 4.3335C11.0347 4.3335 11.194 4.11945 11.0875 3.92503C10.9971 3.75996 10.883 3.60704 10.7476 3.47157L8.19528 0.919282C8.05981 0.783805 7.90689 0.669771 7.74182 0.579365C7.5474 0.472887 7.33335 0.632193 7.33335 0.853862V2.3335C7.33335 3.43807 8.22878 4.3335 9.33335 4.3335H10.813ZM6.00002 6.3335C6.36821 6.3335 6.66669 6.63197 6.66669 7.00016V9.39069L7.52862 8.52876C7.78897 8.26841 8.21107 8.26841 8.47142 8.52876C8.73177 8.78911 8.73177 9.21122 8.47143 9.47157L6.47143 11.4716C6.21108 11.7319 5.78897 11.7319 5.52862 11.4716L3.52862 9.47157C3.26827 9.21122 3.26827 8.78911 3.52862 8.52876C3.78897 8.26841 4.21108 8.26841 4.47142 8.52876L5.33335 9.39069V7.00016C5.33335 6.63197 5.63183 6.3335 6.00002 6.3335Z" fill="#065EA9"/>
</svg>
