<svg width="41" height="40" viewBox="0 0 41 40" fill="none" xmlns="http://www.w3.org/2000/svg">
<path fill-rule="evenodd" clip-rule="evenodd" d="M10.5103 0C4.98741 0 0.510254 4.47715 0.510254 10V30C0.510254 35.5228 4.98741 40 10.5103 40H30.5103C36.0331 40 40.5103 35.5228 40.5103 30V10C40.5103 4.47715 36.0331 0 30.5103 0H10.5103ZM12.5103 14C12.5103 12.8954 13.4057 12 14.5103 12C15.6148 12 16.5103 12.8954 16.5103 14C16.5103 15.1046 15.6148 16 14.5103 16C13.4057 16 12.5103 15.1046 12.5103 14ZM14.5103 8C11.1965 8 8.51025 10.6863 8.51025 14C8.51025 17.3137 11.1965 20 14.5103 20C17.824 20 20.5103 17.3137 20.5103 14C20.5103 10.6863 17.824 8 14.5103 8ZM25.5229 24.4359C26.2184 23.5665 27.4886 23.4333 28.349 24.1356L32.192 27.5039C33.0227 28.2319 34.2863 28.1487 35.0144 27.3181C35.7424 26.4874 35.6592 25.2238 34.8285 24.4958L30.9449 21.0919L30.9257 21.0759C28.344 18.9245 24.4988 19.3128 22.3994 21.9371L19.201 25.935C18.5748 26.7179 17.4539 26.8919 16.6198 26.3358C14.0707 24.6364 10.6492 25.1583 8.72196 27.5341L5.99606 30.6933C5.27446 31.5295 5.36743 32.7924 6.20372 33.514C7.04 34.2356 8.30291 34.1427 9.02451 33.3064L11.7966 30.0938L11.8198 30.0648C12.446 29.2819 13.5669 29.1079 14.401 29.664C16.9615 31.371 20.4021 30.8368 22.3245 28.4338L25.5229 24.4359Z" fill="#065EA9"/>
</svg>
