<svg width="12" height="8" viewBox="0 0 12 8" fill="none" xmlns="http://www.w3.org/2000/svg">
<path d="M1.0003 6.82993C1.18766 7.01619 1.44111 7.12073 1.7053 7.12073C1.96948 7.12073 2.22293 7.01619 2.4103 6.82993L6.0003 3.28993L9.5403 6.82993C9.72766 7.01619 9.98111 7.12073 10.2453 7.12073C10.5095 7.12073 10.7629 7.01619 10.9503 6.82994C11.044 6.73697 11.1184 6.62637 11.1692 6.50451C11.22 6.38265 11.2461 6.25195 11.2461 6.11994C11.2461 5.98792 11.22 5.85722 11.1692 5.73536C11.1184 5.6135 11.044 5.5029 10.9503 5.40993L6.7103 1.16993C6.61733 1.07621 6.50673 1.00181 6.38487 0.951044C6.26301 0.900275 6.13231 0.874136 6.0003 0.874136C5.86828 0.874136 5.73758 0.900275 5.61572 0.951044C5.49386 1.00181 5.38326 1.07621 5.2903 1.16993L1.0003 5.40993C0.906568 5.5029 0.832173 5.6135 0.781405 5.73536C0.730636 5.85722 0.704496 5.98792 0.704496 6.11993C0.704496 6.25195 0.730636 6.38265 0.781405 6.50451C0.832173 6.62637 0.906568 6.73697 1.0003 6.82993Z" fill="#065EA9"/>
</svg>
