<svg width="20" height="20" viewBox="0 0 20 20" fill="none" xmlns="http://www.w3.org/2000/svg">
<path fill-rule="evenodd" clip-rule="evenodd" d="M10.8333 7.5C8.99238 7.5 7.5 8.99238 7.5 10.8333V15C7.5 16.8409 8.99238 18.3333 10.8333 18.3333H15C16.8409 18.3333 18.3333 16.8409 18.3333 15V10.8333C18.3333 8.99238 16.8409 7.5 15 7.5H10.8333Z" fill="#235FAD"/>
<path fill-rule="evenodd" clip-rule="evenodd" d="M4.99935 1.66663C3.1584 1.66663 1.66602 3.15901 1.66602 4.99996V9.16663C1.66602 11.1407 3.13376 12.5 4.99935 12.5C5.45959 12.5 5.83268 12.1269 5.83268 11.6666V10.8333C5.83268 8.07187 8.07126 5.83329 10.8327 5.83329H11.666C12.1263 5.83329 12.4993 5.4602 12.4993 4.99996C12.4993 3.13437 11.1401 1.66663 9.16602 1.66663H4.99935Z" fill="#235FAD"/>
</svg>
