<svg width="18" height="20" viewBox="0 0 18 20" fill="none" xmlns="http://www.w3.org/2000/svg">
<path d="M17 4.00012H13V3.00012C13 2.20447 12.6839 1.44141 12.1213 0.878802C11.5587 0.316193 10.7956 0.00012207 10 0.00012207H8C7.20435 0.00012207 6.44129 0.316193 5.87868 0.878802C5.31607 1.44141 5 2.20447 5 3.00012V4.00012H1C0.734784 4.00012 0.48043 4.10548 0.292893 4.29302C0.105357 4.48055 0 4.73491 0 5.00012C0 5.26534 0.105357 5.51969 0.292893 5.70723C0.48043 5.89477 0.734784 6.00012 1 6.00012H2V17.0001C2 17.7958 2.31607 18.5588 2.87868 19.1214C3.44129 19.6841 4.20435 20.0001 5 20.0001H13C13.7956 20.0001 14.5587 19.6841 15.1213 19.1214C15.6839 18.5588 16 17.7958 16 17.0001V6.00012H17C17.2652 6.00012 17.5196 5.89477 17.7071 5.70723C17.8946 5.51969 18 5.26534 18 5.00012C18 4.73491 17.8946 4.48055 17.7071 4.29302C17.5196 4.10548 17.2652 4.00012 17 4.00012ZM7 3.00012C7 2.73491 7.10536 2.48055 7.29289 2.29302C7.48043 2.10548 7.73478 2.00012 8 2.00012H10C10.2652 2.00012 10.5196 2.10548 10.7071 2.29302C10.8946 2.48055 11 2.73491 11 3.00012V4.00012H7V3.00012ZM14 17.0001C14 17.2653 13.8946 17.5197 13.7071 17.7072C13.5196 17.8948 13.2652 18.0001 13 18.0001H5C4.73478 18.0001 4.48043 17.8948 4.29289 17.7072C4.10536 17.5197 4 17.2653 4 17.0001V6.00012H14V17.0001Z" fill="#EB5757"/>
</svg>
