<svg width="24" height="24" viewBox="0 0 24 24" fill="none" xmlns="http://www.w3.org/2000/svg">
<path d="M22.7998 12.2652C22.7998 11.5212 22.7278 10.7532 22.6078 10.0332H12.2158V14.2812H18.1678C17.9278 15.6492 17.1358 16.8492 15.9598 17.6172L19.5118 20.3772C21.5998 18.4332 22.7998 15.6012 22.7998 12.2652Z" fill="#4280EF"/>
<path d="M12.216 23.0168C15.192 23.0168 17.688 22.0328 19.512 20.3528L15.96 17.6168C14.976 18.2888 13.704 18.6728 12.216 18.6728C9.33598 18.6728 6.91198 16.7288 6.02398 14.1368L2.37598 16.9448C4.24798 20.6648 8.03998 23.0168 12.216 23.0168Z" fill="#34A353"/>
<path d="M6.02405 14.1128C5.56805 12.7448 5.56805 11.2568 6.02405 9.88876L2.37605 7.05676C0.816055 10.1768 0.816055 13.8488 2.37605 16.9448L6.02405 14.1128Z" fill="#F6B704"/>
<path d="M12.216 5.35279C13.776 5.32879 15.312 5.92879 16.44 7.00879L19.584 3.84079C17.592 1.96879 14.952 0.960794 12.216 0.984794C8.03998 0.984794 4.24798 3.33679 2.37598 7.05679L6.02398 9.88879C6.91198 7.27279 9.33598 5.35279 12.216 5.35279Z" fill="#E54335"/>
</svg>
