<svg width="39" height="13" viewBox="0 0 39 13" fill="none" xmlns="http://www.w3.org/2000/svg">
<path d="M34.0726 0.372655H27.6558C24.3343 0.304114 23.6016 2.50567 23.6016 4.25827V8.49825C23.6016 12.0905 25.8429 12.4339 27.5962 12.4339H34.3893C37.876 12.4339 39.0056 11.6395 39.0001 8.40778V4.36383C38.9987 1.52347 37.8609 0.370599 34.0726 0.372655ZM28.7703 9.81082H26.9663V3.12323H28.7703V9.81082ZM32.6881 9.81082H29.9218V3.12323H32.6881C33.1312 3.11688 33.5712 3.19868 33.9825 3.36388C34.3937 3.52907 34.768 3.77436 35.0837 4.08549C35.3993 4.39662 35.6499 4.76739 35.821 5.17623C35.992 5.58507 36.0801 6.02384 36.0801 6.46702C36.0801 6.91021 35.992 7.34898 35.821 7.75782C35.6499 8.16666 35.3993 8.53742 35.0837 8.84855C34.768 9.15968 34.3937 9.40497 33.9825 9.57017C33.5712 9.73536 33.1312 9.81716 32.6881 9.81082Z" fill="white"/>
<path d="M33.6243 6.84567C33.403 6.73121 33.4818 6.56191 33.5819 6.44402C33.6228 6.39545 33.6687 6.35134 33.7189 6.31242C33.905 6.09672 34.0061 5.82067 34.0034 5.53584C34.0034 4.92582 33.562 4.43164 33.0171 4.43164C32.4722 4.43164 32.0308 4.92582 32.0308 5.53584C32.0289 5.69737 32.0608 5.85751 32.1244 6.00599C32.188 6.15447 32.282 6.28803 32.4002 6.3981L32.4057 6.40221C32.4118 6.40701 32.4221 6.41592 32.4345 6.42757C32.4879 6.47829 32.5777 6.59138 32.4907 6.71339C32.4036 6.83539 32.052 6.99441 31.8525 7.08008C31.7881 7.1075 31.7395 7.12738 31.7209 7.13355L31.7134 7.13697C31.3782 7.29942 31.1514 7.60854 31.1514 7.96358C31.1514 7.97455 31.1514 7.98483 31.1514 7.99511V8.51397H33.1562C33.1562 8.51397 34.1747 8.2117 34.5784 7.51464C34.6477 7.40908 34.2234 7.05884 33.6243 6.84567Z" fill="white"/>
<path d="M3.38389 2.93359C2.37451 2.93359 1.55818 3.26351 0.934905 3.92333C0.311635 4.58316 0 5.41502 0 6.41893C0 7.4242 0.311635 8.25584 0.934905 8.91384C1.55818 9.57184 2.37451 9.90175 3.38389 9.90358C4.38643 9.90358 5.20093 9.57367 5.8274 8.91384C6.45387 8.25401 6.76733 7.42238 6.76779 6.41893C6.76779 5.41365 6.45432 4.58179 5.8274 3.92333C5.20047 3.26488 4.38597 2.93496 3.38389 2.93359ZM5.37982 8.54509C4.87216 9.10119 4.2073 9.37901 3.38526 9.37855C2.54997 9.37855 1.88169 9.10073 1.38043 8.54509C0.879158 7.98944 0.62784 7.28118 0.626469 6.4203C0.626469 5.55211 0.877788 4.84156 1.38043 4.28866C1.88306 3.73576 2.55134 3.45954 3.38526 3.45999C4.2137 3.45999 4.88038 3.73622 5.38531 4.28866C5.89023 4.8411 6.14155 5.55165 6.13926 6.4203C6.14018 7.28118 5.88703 7.98944 5.37982 8.54509Z" fill="white"/>
<path d="M13.4786 8.76316L8.99736 3.11328H8.375V9.78306H8.98639V4.05367L13.4896 9.78306H14.09V3.11328H13.4786V8.76316Z" fill="white"/>
<path d="M16.4986 6.62329H20.1553V6.10375H16.4986V3.63351H20.5385V3.11328H15.8701V9.78306H20.6022V9.26351H16.4986V6.62329Z" fill="white"/>
</svg>
