<svg width="18" height="18" viewBox="0 0 18 18" fill="none" xmlns="http://www.w3.org/2000/svg">
<path d="M2.01734 0.0703226C1.05758 0.323448 0.315779 1.08282 0.0696852 2.06368C-0.000627335 2.3379 -0.00414296 2.42931 0.00640391 4.15548L0.0169508 5.95899L0.115388 6.24024C0.364998 6.95392 0.846638 7.50587 1.49351 7.82579C2.05953 8.10353 2.02086 8.10001 3.8982 8.11407C4.99508 8.1211 5.64898 8.11056 5.81422 8.08595C6.37672 7.99806 6.88297 7.74142 7.2943 7.3336C7.60719 7.02071 7.79 6.74649 7.93062 6.36329C8.11695 5.8711 8.1275 5.70587 8.11344 3.88478C8.09937 2.2922 8.09586 2.22188 8.01851 1.96876C7.89195 1.5504 7.68101 1.18478 7.36812 0.854307C7.04469 0.509776 6.69664 0.28126 6.26422 0.126573L5.95836 0.0175882L4.11265 0.0105569C2.40054 0.0035257 2.24937 0.00704132 2.01734 0.0703226Z" fill="#065EA9"/>
<path d="M11.9171 0.0738382C10.996 0.309385 10.2648 1.02657 9.98001 1.96876C9.90267 2.2254 9.89915 2.28868 9.88509 3.90938C9.87454 5.33321 9.88158 5.63556 9.93079 5.88868C10.1452 7.03126 11.0452 7.91017 12.1843 8.08595C12.3495 8.11056 13.0035 8.1211 14.1003 8.11407C15.9777 8.10001 15.939 8.10353 16.505 7.82579C17.1519 7.50587 17.6335 6.95392 17.8831 6.24024L17.9816 5.95899L17.9921 4.15548C18.0027 2.42931 17.9992 2.3379 17.9288 2.06368C17.7249 1.24806 17.2257 0.632823 16.4558 0.246104C15.9777 0.00704132 15.9038 1.00725e-05 13.9421 0.0035257C12.3144 0.0035257 12.1597 0.0105569 11.9171 0.0738382Z" fill="#065EA9"/>
<path d="M2.2107 9.93164C1.67984 10.0301 1.24039 10.2586 0.836091 10.6453C0.509138 10.9582 0.277107 11.3133 0.125935 11.7352L0.0169508 12.041L0.00640391 13.8445C-0.00414296 15.5707 -0.000627335 15.6621 0.0696852 15.9363C0.280623 16.773 0.790388 17.3918 1.58492 17.7715C2.05953 18 2.12984 18.0035 4.14781 17.993L5.95836 17.9824L6.26422 17.8734C7.10797 17.5711 7.76187 16.8855 8.01851 16.0312C8.09586 15.7781 8.09937 15.7078 8.11344 14.1152C8.1275 12.3398 8.11344 12.1359 7.95523 11.6895C7.66344 10.8703 6.98844 10.2445 6.11656 9.98086C5.85992 9.90352 5.80015 9.9 4.16539 9.89297C2.82945 9.88594 2.42164 9.89297 2.2107 9.93164Z" fill="#065EA9"/>
<path d="M12.167 9.91758C11.8682 9.96328 11.3865 10.1461 11.1264 10.3184C10.8451 10.5012 10.4514 10.902 10.2896 11.1691C10.1174 11.4504 9.96621 11.8652 9.91347 12.1992C9.88535 12.3855 9.87832 12.948 9.88535 14.1152C9.90293 15.975 9.8959 15.9434 10.1736 16.5059C10.5252 17.2195 11.165 17.7363 11.9314 17.9297C12.1916 17.9965 12.3252 18 13.9564 18C15.9006 18 15.9779 17.993 16.4561 17.7539C17.226 17.3672 17.7252 16.752 17.9291 15.9363C17.9994 15.6621 18.0029 15.5707 17.9924 13.8445L17.9818 12.041L17.8728 11.7352C17.6303 11.0602 17.1275 10.4836 16.5158 10.1848C15.9463 9.90352 15.9533 9.90352 14.0619 9.89297C13.1443 9.88945 12.29 9.9 12.167 9.91758Z" fill="#065EA9"/>
</svg>
