<svg width="17" height="18" viewBox="0 0 17 18" fill="none" xmlns="http://www.w3.org/2000/svg">
<path d="M3.67171 0.0667996C2.94749 0.277737 2.38499 0.850784 2.19163 1.575C2.12132 1.83867 2.12484 2.3836 2.19515 2.6543C2.31468 3.09727 2.5889 3.52969 2.9264 3.79688C3.14788 3.97617 3.54163 4.16602 3.79124 4.22227C4.07601 4.28203 4.6807 4.24688 4.93382 4.15547C5.5596 3.92696 6.04124 3.43828 6.25921 2.8125C6.3682 2.49961 6.39281 1.90547 6.30843 1.58555C6.11507 0.840237 5.52445 0.246097 4.78968 0.056253C4.5014 -0.0175753 3.94593 -0.0140595 3.67171 0.0667996Z" fill="#065EA9"/>
<path d="M13.166 0.0667686C12.4488 0.270675 11.8792 0.857784 11.6894 1.58552C11.598 1.92302 11.6296 2.53825 11.7527 2.85466C12.0093 3.52263 12.5578 4.02536 13.2187 4.20114C13.4437 4.26091 14.0062 4.26794 14.2382 4.21521C14.4667 4.16247 14.864 3.9656 15.0714 3.79685C15.1734 3.7195 15.3281 3.55427 15.4195 3.43474C15.7288 3.02692 15.8589 2.63669 15.8589 2.10935C15.8589 1.4906 15.6761 1.05114 15.2402 0.615206C14.9378 0.309347 14.6706 0.154659 14.2839 0.056222C13.9992 -0.0176063 13.4402 -0.0140905 13.166 0.0667686Z" fill="#065EA9"/>
<path d="M4.53423 4.37347C2.344 4.76371 0.885014 6.72894 0.993998 9.14066C1.05025 10.336 1.46861 11.3168 2.4354 12.5227C2.79751 12.9762 3.82759 14.0133 4.51314 14.618C5.07915 15.1172 5.12486 15.1418 5.46587 15.1067C5.84908 15.068 6.15142 14.8606 6.31665 14.5266C6.40103 14.3543 6.41509 14.284 6.41158 14.045C6.40806 13.6407 6.33072 13.493 5.88775 13.0782C4.31626 11.5911 3.72915 10.9196 3.38814 10.2129C3.23697 9.90355 3.1315 9.52035 3.12798 9.28832V9.17582H3.63072H4.12994L4.17212 9.38324C4.27056 9.9141 4.63267 10.4063 5.73306 11.5067L6.56978 12.3434L6.87915 12.1887C7.54712 11.8547 8.19751 11.7 8.96392 11.6965C9.76197 11.6965 10.4616 11.8547 11.1436 12.1993L11.4284 12.3434L12.2651 11.5067C13.3655 10.4063 13.7276 9.9141 13.826 9.38324L13.8682 9.17582H14.3674H14.8702V9.28832C14.8667 9.52035 14.7612 9.90355 14.61 10.2129C14.269 10.9196 13.6819 11.5911 12.1104 13.0782C11.6674 13.493 11.5901 13.6407 11.5866 14.045C11.5831 14.284 11.5971 14.3543 11.6815 14.5266C11.8678 14.9028 12.1877 15.0961 12.6202 15.0996C13.035 15.0996 13.1581 15.0223 13.9069 14.3051C15.9038 12.3821 16.621 11.3309 16.9338 9.87543C17.0182 9.47113 17.0217 8.41293 16.9374 7.95941C16.6139 6.25082 15.4643 4.91839 13.928 4.48597C13.0385 4.23285 12.0401 4.27855 11.242 4.60902C10.4686 4.92894 9.71978 5.57933 9.20298 6.38793C9.10103 6.54613 9.00962 6.67621 8.99908 6.67621C8.98853 6.67621 8.89712 6.54613 8.79517 6.38793C8.15181 5.38597 7.25533 4.70394 6.2147 4.42972C5.84556 4.33128 4.94204 4.30316 4.53423 4.37347ZM9.50884 7.50589C9.87798 7.60082 10.1522 7.76253 10.4581 8.06839C10.894 8.50433 11.0733 8.93324 11.0733 9.55199C11.0733 10.1321 10.8483 10.6418 10.4053 11.0496C9.994 11.4328 9.55103 11.6086 8.99908 11.6086C8.2854 11.6086 7.64556 11.2536 7.24126 10.6418C6.81587 9.99144 6.81587 9.06332 7.24126 8.41293C7.52251 7.98402 7.99712 7.63949 8.47525 7.50941C8.72837 7.44261 9.24869 7.4391 9.50884 7.50589Z" fill="#065EA9"/>
<path d="M8.51484 8.58157C8.13516 8.7679 7.94531 9.0843 7.94531 9.53079C7.94531 9.7593 7.95937 9.82961 8.0543 10.0124C8.23711 10.3851 8.57461 10.589 9 10.589C9.42539 10.589 9.76289 10.3851 9.9457 10.0124C10.0406 9.82961 10.0547 9.7593 10.0547 9.52727C10.0547 9.29524 10.0406 9.22493 9.9457 9.04211C9.75937 8.66243 9.44297 8.47258 8.99648 8.47258C8.76797 8.47258 8.69766 8.48665 8.51484 8.58157Z" fill="#065EA9"/>
<path d="M8.41992 12.7406C8.06484 12.7969 7.78008 12.8812 7.4918 13.0113C7.36523 13.0676 7.25977 13.1203 7.25273 13.1238C7.24922 13.1308 7.28438 13.2539 7.33359 13.3945C7.51289 13.9324 7.47422 14.4597 7.21055 14.9941C7.03828 15.3422 6.69727 15.6972 6.37383 15.8625C6.25078 15.9258 6.15234 15.989 6.15234 15.9996C6.15234 16.0137 6.3457 16.1894 6.58125 16.3863C6.8168 16.5867 7.23516 16.9488 7.50586 17.1879C8.07539 17.6906 8.27578 17.8277 8.57109 17.9262C9.01055 18.0738 9.63984 18.0035 10.0195 17.7609C10.1391 17.6836 11.6121 16.4039 11.9496 16.084C11.9918 16.0418 11.9707 16.0207 11.802 15.9469C10.8176 15.5144 10.3148 14.3859 10.6699 13.4051C10.7191 13.268 10.7578 13.1484 10.7578 13.1344C10.7578 13.1238 10.6699 13.0746 10.5609 13.0254C9.90352 12.7336 9.12656 12.6316 8.41992 12.7406Z" fill="#065EA9"/>
</svg>
