<svg width="18" height="18" viewBox="0 0 18 18" fill="none" xmlns="http://www.w3.org/2000/svg">
<path d="M6.24414 0.0667968C6.08242 0.175781 6.01211 0.309375 6.01211 0.527344C6.01211 0.692578 6.02969 0.748828 6.14219 0.907031C6.23008 1.03711 6.27227 1.14258 6.28633 1.25859C6.30391 1.45547 6.25469 1.575 6.0332 1.88789C5.78008 2.23945 5.7168 2.44687 5.7168 2.90039C5.7168 3.34336 5.77656 3.54023 6.01211 3.8918C6.18086 4.14492 6.30039 4.21875 6.54648 4.21875C6.87344 4.21875 7.0668 4.02539 7.0668 3.69141C7.0668 3.52617 7.04922 3.46992 6.93672 3.31172C6.84883 3.18164 6.80664 3.07617 6.79258 2.96016C6.775 2.76328 6.82422 2.64375 7.0457 2.33086C7.29883 1.9793 7.36211 1.77187 7.36211 1.31836C7.36211 0.998437 7.34805 0.896484 7.28125 0.73125C7.17578 0.460547 6.9543 0.137109 6.82773 0.0597653C6.68359 -0.0210938 6.37773 -0.0210938 6.24414 0.0667968Z" fill="#065EA9"/>
<path d="M8.70508 0.0667968C8.54336 0.175781 8.47305 0.309375 8.47305 0.527344C8.47305 0.692578 8.49063 0.748828 8.60313 0.907031C8.69102 1.03711 8.7332 1.14258 8.74727 1.25859C8.76484 1.45547 8.71563 1.575 8.49414 1.88789C8.24102 2.23945 8.17773 2.44687 8.17773 2.90039C8.17773 3.34336 8.2375 3.54023 8.47305 3.8918C8.6418 4.14492 8.76133 4.21875 9.00742 4.21875C9.33438 4.21875 9.52773 4.02539 9.52773 3.69141C9.52773 3.52617 9.51016 3.46992 9.39766 3.31172C9.30977 3.18164 9.26758 3.07617 9.25352 2.96016C9.23594 2.76328 9.28516 2.64375 9.50664 2.33086C9.75977 1.9793 9.82305 1.77187 9.82305 1.31836C9.82305 0.998437 9.80898 0.896484 9.74219 0.73125C9.63672 0.460547 9.41523 0.137109 9.28867 0.0597653C9.14453 -0.0210938 8.83867 -0.0210938 8.70508 0.0667968Z" fill="#065EA9"/>
<path d="M11.166 0.0667968C11.0043 0.175781 10.934 0.309375 10.934 0.527344C10.934 0.692578 10.9516 0.748828 11.0641 0.907031C11.152 1.03711 11.1941 1.14258 11.2082 1.25859C11.2258 1.45547 11.1766 1.575 10.9551 1.88789C10.702 2.23945 10.6387 2.44687 10.6387 2.90039C10.6387 3.34336 10.6984 3.54023 10.934 3.8918C11.1027 4.14492 11.2223 4.21875 11.4684 4.21875C11.7953 4.21875 11.9887 4.02539 11.9887 3.69141C11.9887 3.52617 11.9711 3.46992 11.8586 3.31172C11.7707 3.18164 11.7285 3.07617 11.7145 2.96016C11.6969 2.76328 11.7461 2.64375 11.9676 2.33086C12.2207 1.9793 12.284 1.77187 12.284 1.31836C12.284 0.998437 12.2699 0.896484 12.2031 0.73125C12.0977 0.460547 11.8762 0.137109 11.7496 0.0597653C11.6055 -0.0210938 11.2996 -0.0210938 11.166 0.0667968Z" fill="#065EA9"/>
<path d="M15.925 2.86875C15.3414 3.02344 14.8422 3.43477 14.5715 3.99023C14.4801 4.17656 14.3887 4.49297 14.2094 5.28047L13.9668 6.32812H15.0426H16.1219L16.2801 5.63203L16.4383 4.93945L16.8391 4.92188C17.1625 4.90781 17.2715 4.88672 17.3875 4.82695C17.623 4.70039 17.7426 4.58086 17.8551 4.35234C17.95 4.16953 17.9641 4.09922 17.9641 3.86719C17.9641 3.63516 17.95 3.56484 17.8551 3.38203C17.7355 3.13945 17.6055 3.01641 17.3488 2.89688C17.1871 2.81953 17.1273 2.8125 16.6457 2.81602C16.3047 2.81602 16.0516 2.83359 15.925 2.86875Z" fill="#065EA9"/>
<path d="M0.267012 7.44961C0.210762 7.48828 0.133418 7.56914 0.0947463 7.62891C0.0349807 7.72734 0.0279494 7.77656 0.0455276 8.04375C0.0666213 8.33555 0.17209 8.86289 0.298653 9.28828L0.354903 9.49219H8.99982H17.6447L17.701 9.28828C17.8276 8.86289 17.933 8.33906 17.9541 8.04727C17.9787 7.70273 17.9295 7.57266 17.7326 7.44961C17.6237 7.38281 17.4584 7.38281 8.99631 7.38281C0.56584 7.38281 0.365449 7.38633 0.267012 7.44961Z" fill="#065EA9"/>
<path d="M0.773438 10.5715C0.773438 10.6243 1.21289 11.4223 1.3957 11.7036C1.89141 12.4665 2.64375 13.3032 3.30469 13.8305C4.66523 14.9133 6.31055 15.5954 8.02266 15.7817C8.46211 15.8309 9.53789 15.8309 9.97734 15.7817C11.6965 15.5954 13.3312 14.9168 14.6953 13.8305C15.3949 13.2715 16.2105 12.3469 16.7062 11.5454C16.882 11.2606 17.2266 10.6137 17.2266 10.5645C17.2266 10.554 13.5246 10.5469 9 10.5469C4.47539 10.5469 0.773438 10.5575 0.773438 10.5715Z" fill="#065EA9"/>
<path d="M5.32603 16.2105C5.31549 16.2387 5.23111 16.4953 5.13267 16.7871C4.8901 17.5148 4.90064 17.7434 5.18892 17.9332C5.28736 17.9965 5.42447 18 8.99986 18C12.5753 18 12.7124 17.9965 12.8108 17.9332C13.1026 17.7398 13.1131 17.5184 12.8565 16.752C12.751 16.4426 12.6526 16.1895 12.635 16.1895C12.6174 16.193 12.3819 16.2668 12.1077 16.3547C10.4026 16.9137 8.57447 17.0016 6.78502 16.6078C6.45455 16.534 5.66705 16.2949 5.40689 16.1895C5.36822 16.1754 5.33658 16.1824 5.32603 16.2105Z" fill="#065EA9"/>
</svg>
