<svg width="18" height="18" viewBox="0 0 18 18" fill="none" xmlns="http://www.w3.org/2000/svg">
<path d="M12.0312 0.0703125C11.8343 0.189844 11.771 0.330469 11.7851 0.632812C11.7921 0.7875 11.8238 0.945703 11.8589 1.02305C11.8941 1.08984 12.207 1.44492 12.5585 1.80703L13.1948 2.46445L12.9804 3.1043C12.5128 4.5 12.4566 4.73906 12.5655 4.95C12.6323 5.08008 12.9523 5.34375 13.0402 5.34375C13.1386 5.34375 13.2722 5.15391 13.7327 4.36289C13.9402 4.00781 14.1441 3.67734 14.1863 3.62812L14.2601 3.54023L14.6995 3.91992C14.9386 4.13086 15.139 4.3207 15.146 4.34531C15.153 4.36992 15.1003 4.51055 15.0335 4.66172C14.9632 4.80937 14.907 4.96406 14.907 5.00625C14.907 5.08711 15.4062 5.58984 15.487 5.58984C15.5468 5.58984 15.5714 5.55469 15.7999 5.15742C16.1902 4.48242 16.2745 4.40156 16.9706 3.99375C17.2238 3.84961 17.3538 3.75117 17.3609 3.70547C17.3644 3.66328 17.28 3.54727 17.1288 3.38203C16.8476 3.0832 16.8195 3.07617 16.4327 3.25195C16.2851 3.31875 16.1515 3.375 16.1374 3.375C16.1058 3.375 15.3148 2.46094 15.3323 2.44687C15.4202 2.37656 15.7718 2.16211 16.2464 1.88437C17.0269 1.43437 17.1218 1.36055 17.1218 1.23398C17.1218 1.16016 17.0726 1.08984 16.9144 0.938672C16.7034 0.734766 16.6613 0.720703 16.4011 0.738281C16.2745 0.745312 15.4695 0.991406 14.7523 1.2375L14.232 1.4168L13.5921 0.780468C13.2195 0.407812 12.896 0.116015 12.8081 0.0738277C12.6042 -0.0281253 12.1964 -0.0281253 12.0312 0.0703125Z" fill="#065EA9"/>
<path d="M6.66281 3.53662C6.60656 3.54365 6.41672 3.56826 6.24094 3.58935C4.37414 3.8249 2.53898 4.91474 1.39992 6.46865C1.16086 6.79912 0.763592 7.45302 0.788201 7.47763C0.795232 7.48466 1.21711 7.39326 1.72687 7.27724C2.9925 6.98193 3.01711 6.98545 3.85031 7.59365C4.15617 7.81865 4.42336 7.9874 4.49015 8.00146C4.60265 8.02256 5.19328 7.93818 5.4007 7.87138C5.46047 7.85381 5.54484 7.80107 5.58351 7.75888C5.6257 7.71318 5.91047 7.15771 6.21984 6.51787C6.83859 5.23466 6.93703 5.08701 7.29914 4.9042C7.48547 4.80927 7.5382 4.79873 7.84054 4.79873C8.02336 4.79873 8.30109 4.81279 8.45578 4.83037C8.70539 4.85146 8.75109 4.84795 8.84601 4.78818C8.94445 4.7249 9.55265 3.91279 9.52101 3.88466C9.48586 3.84951 8.81789 3.68076 8.45578 3.61748C8.055 3.55068 6.94054 3.49795 6.66281 3.53662Z" fill="#065EA9"/>
<path d="M9.92821 4.63002C9.43251 5.34369 9.29892 5.46322 8.86298 5.57572C8.65556 5.62845 8.60985 5.62845 8.22314 5.5722C7.75204 5.50541 7.61845 5.5265 7.48134 5.69173C7.43564 5.74447 7.15439 6.29642 6.85556 6.9222C6.2579 8.17377 6.1665 8.31087 5.81142 8.50072C5.57587 8.62377 4.95009 8.75384 4.58446 8.75384C4.26103 8.75384 4.07118 8.6765 3.62821 8.35306C2.8829 7.81517 2.92509 7.83978 2.74579 7.83978C2.52431 7.8433 0.421965 8.34603 0.386809 8.4058C0.348137 8.46556 0.189934 9.05267 0.126652 9.36908C-0.0245195 10.1179 -0.038582 11.2535 0.0985273 12.0234C0.661027 15.1804 3.15712 17.5429 6.38095 17.9683C6.85204 18.0281 8.11064 17.9894 8.55361 17.898C9.94228 17.6132 10.9899 17.107 12.0059 16.2316C13.0642 15.321 13.8974 13.9816 14.2524 12.6175C14.4352 11.9074 14.4669 11.6367 14.4634 10.7578C14.4634 9.90345 14.4352 9.63978 14.2735 8.99642C14.1048 8.32845 13.7708 7.53041 13.4298 6.97845C12.8884 6.09251 12.0727 5.25931 11.2079 4.69681C10.8704 4.47884 10.3395 4.18353 10.2798 4.18353C10.2587 4.18353 10.1005 4.38392 9.92821 4.63002ZM8.51845 9.36205C8.97548 9.54486 9.33759 9.66791 9.41142 9.66791C9.47821 9.66791 9.77353 9.62572 10.0688 9.5765C10.3888 9.52377 10.663 9.49212 10.7614 9.50619C11.1059 9.54486 11.4716 9.80502 11.6087 10.1144C11.7352 10.4027 11.7915 11.1831 11.7036 11.4503C11.6825 11.5242 11.4681 11.9249 11.229 12.3398L10.8001 13.0956L10.7087 14.1855C10.5892 15.5812 10.6454 15.4546 9.74189 16.3863C9.19345 16.9523 9.04228 17.0894 8.88759 17.1562C8.49736 17.3285 8.02275 17.2335 7.72743 16.9242C7.50946 16.6992 6.90126 15.7007 6.85907 15.5003C6.83095 15.3738 6.83446 15.096 6.87314 14.4562C6.94696 13.2644 6.94345 13.2327 6.83798 13.1308C6.76064 13.0499 6.72548 13.0429 6.42665 13.0429C5.98368 13.0429 5.81493 12.9937 5.09423 12.6456C4.05009 12.1429 3.95517 11.9671 4.11337 10.7929C4.19775 10.1671 4.26806 9.95267 4.4579 9.73119C4.67939 9.48158 4.83407 9.43236 6.08212 9.22845C7.61493 8.97533 7.54111 8.97181 8.51845 9.36205Z" fill="#065EA9"/>
<path d="M6.24089 9.97026C5.19675 10.139 5.0737 10.1671 5.01042 10.241C4.95065 10.3078 4.92253 10.4449 4.85573 10.9195C4.75729 11.6683 4.75378 11.6578 5.1651 11.8546C6.0651 12.2835 6.02292 12.2695 6.39557 12.2695C6.93698 12.2695 7.24987 12.4031 7.48893 12.7335C7.69635 13.0183 7.71042 13.1378 7.65065 14.1363C7.56628 15.4722 7.54167 15.2999 7.91784 15.9011C8.10768 16.1999 8.27643 16.4285 8.32565 16.4496C8.43112 16.4988 8.54362 16.4953 8.63503 16.4425C8.70885 16.3968 9.80573 15.2542 9.84792 15.1804C9.86198 15.1558 9.91471 14.646 9.96745 14.0484C10.0202 13.4542 10.0835 12.9058 10.1081 12.8355C10.1327 12.7652 10.3436 12.3749 10.5792 11.9706L11.0081 11.2324L10.987 10.8632C10.9624 10.4871 10.9132 10.3253 10.8112 10.2867C10.7057 10.248 10.5159 10.2656 9.9569 10.357C9.27487 10.473 9.28893 10.4765 8.27643 10.0722C7.86159 9.90698 7.49245 9.77338 7.46081 9.7769C7.42917 9.78042 6.88073 9.86479 6.24089 9.97026Z" fill="#065EA9"/>
<path d="M16.5519 4.69683C16.2741 4.84449 16.3198 5.03785 16.8296 5.85347C16.9632 6.06793 17.2831 6.04683 17.3956 5.8148C17.4694 5.6566 17.4273 5.53004 17.1601 5.07652C16.9913 4.78824 16.9245 4.7109 16.8366 4.67926C16.696 4.63004 16.6679 4.63004 16.5519 4.69683Z" fill="#065EA9"/>
<path d="M17.4131 6.71484C17.3709 6.73242 17.3077 6.78867 17.276 6.8414C17.2198 6.92578 17.2163 6.95742 17.262 7.23867C17.2866 7.4039 17.3182 7.80117 17.3288 8.11406L17.3498 8.69062L17.4483 8.775C17.5854 8.89101 17.7963 8.89101 17.9123 8.77148C17.9967 8.69062 18.0002 8.66953 18.0002 8.18437C18.0002 7.68515 17.9299 7.0664 17.8561 6.88007C17.7893 6.71835 17.5889 6.64453 17.4131 6.71484Z" fill="#065EA9"/>
<path d="M17.1773 9.79444C17.1281 9.84717 17.0859 9.90342 17.0859 9.921C17.0859 10.0089 16.7836 10.705 16.6289 10.9792C16.4988 11.2077 16.4531 11.3237 16.4531 11.4257C16.4531 11.7315 16.8152 11.8511 17.0332 11.6155C17.1457 11.4925 17.5535 10.6593 17.666 10.3253C17.7258 10.1425 17.7504 10.0124 17.7363 9.94561C17.6836 9.71006 17.3531 9.61865 17.1773 9.79444Z" fill="#065EA9"/>
<path d="M15.7052 12.2695C15.6524 12.2871 15.5259 12.375 15.4239 12.4664C15.2095 12.6597 14.8473 12.9199 14.538 13.0992C14.4149 13.173 14.2989 13.2679 14.2778 13.3137C14.2145 13.4543 14.2321 13.6019 14.3235 13.6933C14.4641 13.834 14.5661 13.8375 14.8157 13.7144C15.2024 13.5246 15.9864 12.9304 16.0919 12.7476C16.1903 12.5789 16.1024 12.3363 15.9231 12.273C15.8598 12.2519 15.8106 12.2344 15.8071 12.2379C15.8036 12.2379 15.7614 12.2519 15.7052 12.2695Z" fill="#065EA9"/>
</svg>
