<svg width="18" height="16" viewBox="0 0 18 16" fill="none" xmlns="http://www.w3.org/2000/svg">
<path d="M4.14258 1.86683C4.14258 2.95907 4.15314 3.53357 4.17777 3.53357C4.21297 3.53357 7.6973 0.249729 7.6973 0.217813C7.6973 0.207174 6.89837 0.200082 5.91994 0.200082H4.14258V1.86683Z" fill="#065EA9"/>
<path d="M10.3027 0.217813C10.3027 0.249729 13.7871 3.53357 13.8223 3.53357C13.8469 3.53357 13.8575 2.95907 13.8575 1.86683V0.200082H12.0801C11.1017 0.200082 10.3027 0.207174 10.3027 0.217813Z" fill="#065EA9"/>
<path d="M6.96825 2.32064L4.95508 4.22498L6.97529 4.23562C8.08746 4.23917 9.91058 4.23917 11.0227 4.23562L13.0465 4.22498L11.0403 2.32773C9.93521 1.28513 9.02366 0.426934 9.00606 0.423388C8.99198 0.416296 8.07338 1.27095 6.96825 2.32064Z" fill="#065EA9"/>
<path d="M1.59152 2.61861L0.078125 4.22507L1.588 4.23571C2.41861 4.23925 3.10492 4.23925 3.11196 4.23216C3.119 4.22507 3.119 3.49809 3.11548 2.61507L3.10492 1.01215L1.59152 2.61861Z" fill="#065EA9"/>
<path d="M14.8789 2.62228V4.24292H16.3923C17.2264 4.24292 17.9057 4.23583 17.9057 4.22519C17.9057 4.20746 15.53 1.67188 15.0514 1.1754L14.8789 0.998089V2.62228Z" fill="#065EA9"/>
<path d="M0.000560928 5.32085C0.0111195 5.34922 1.58435 7.27484 3.49545 9.60473C5.40656 11.9311 6.97627 13.8425 6.98331 13.8496C7.08186 13.9737 6.74398 13.1723 5.17075 9.55154L3.31596 5.2712H1.6477C0.22933 5.2712 -0.0135172 5.27829 0.000560928 5.32085Z" fill="#065EA9"/>
<path d="M4.45334 5.33857C4.54485 5.58681 8.98649 15.8 9.00057 15.8C9.01465 15.8 13.4563 5.58327 13.5478 5.33857C13.5724 5.27119 13.4739 5.27119 9.00057 5.27119C4.53781 5.27119 4.4287 5.27119 4.45334 5.33857Z" fill="#065EA9"/>
<path d="M12.8293 9.55159C11.2561 13.1759 10.9217 13.9702 11.0168 13.8497C11.0238 13.8426 12.5935 11.9311 14.5046 9.60479C16.4157 7.27489 17.989 5.34927 17.9995 5.3209C18.0136 5.27835 17.7708 5.27125 16.3524 5.27125H14.6841L12.8293 9.55159Z" fill="#065EA9"/>
</svg>
