<svg width="18" height="18" viewBox="0 0 18 18" fill="none" xmlns="http://www.w3.org/2000/svg">
<path d="M13.8939 0.861349C13.3631 0.977364 12.9096 1.4133 12.7408 1.96525C12.6775 2.17268 12.6775 2.64377 12.7408 2.85119C12.8674 3.26955 13.1768 3.64221 13.5459 3.82502C14.1717 4.14143 14.9381 4.01486 15.4127 3.51916C15.7256 3.18869 15.8557 2.86525 15.8557 2.40822C15.8557 1.95822 15.7256 1.63127 15.4232 1.31135C15.1982 1.07229 14.9416 0.92463 14.6357 0.861349C14.3439 0.798067 14.1822 0.798067 13.8939 0.861349Z" fill="#065EA9"/>
<path d="M8.86005 1.67693C8.72645 1.72263 8.46278 1.97224 7.09169 3.3363C5.94208 4.4824 5.46044 4.98513 5.40419 5.09763C5.30224 5.31208 5.28114 5.6988 5.362 5.93787C5.43934 6.17693 5.67841 6.43708 5.91395 6.54255C6.05458 6.60583 6.16356 6.62341 6.36395 6.62341C6.82099 6.62341 6.82802 6.6199 8.1745 5.27341C8.83192 4.61599 9.38388 4.0781 9.39794 4.0781C9.41552 4.0781 9.59481 4.19763 9.79872 4.34529L10.1679 4.61248L10.7901 4.00076C11.1979 3.59294 11.4792 3.34685 11.6163 3.26951L11.8237 3.15349L11.7429 3.08669C11.4651 2.86169 9.75302 1.71208 9.63349 1.6699C9.44364 1.6031 9.06395 1.60662 8.86005 1.67693Z" fill="#065EA9"/>
<path d="M1.33555 2.45391C0.955859 2.64375 0.955859 3.22734 1.33555 3.41719C1.44805 3.47344 1.59922 3.48047 2.91758 3.48047C4.23594 3.48047 4.38711 3.47344 4.49961 3.41719C4.8793 3.22734 4.8793 2.64375 4.49961 2.45391C4.38711 2.39766 4.23594 2.39062 2.91758 2.39062C1.59922 2.39062 1.44805 2.39766 1.33555 2.45391Z" fill="#065EA9"/>
<path d="M12.4103 4.00432C12.1466 4.09221 11.9216 4.29963 9.78764 6.44065C7.66421 8.57111 7.5271 8.71174 7.47085 8.88752C7.38999 9.14065 7.41108 9.52385 7.51303 9.7383C7.56928 9.84729 7.97358 10.2797 8.85952 11.1621L10.1251 12.4278L8.56421 13.9922C6.84155 15.7219 6.89077 15.6586 6.89077 16.1192C6.89077 16.411 6.97163 16.6289 7.15796 16.8363C7.36889 17.0719 7.60444 17.1703 7.94546 17.1703C8.42358 17.1703 8.32866 17.2477 10.5716 15.0012C12.79 12.7758 12.6916 12.8953 12.6916 12.4278C12.6916 11.9742 12.7126 12.0024 11.2818 10.5645L9.98452 9.26369L10.8107 8.43752L11.6369 7.61135V8.01916C11.6369 8.2969 11.6544 8.47619 11.6931 8.58869C11.7705 8.81369 12.013 9.07736 12.2416 9.17932L12.4279 9.26369H14.8185H17.2091L17.3955 9.17932C17.624 9.07736 17.8666 8.81369 17.9439 8.58869C18.0142 8.37776 18.0142 8.04026 17.9439 7.82932C17.8666 7.60432 17.624 7.34065 17.3955 7.23869L17.2091 7.15432L15.4794 7.14377L13.7498 7.13322L13.7392 5.9133L13.7287 4.69338L13.6337 4.53166C13.5142 4.33127 13.3244 4.15901 13.1169 4.0676C12.9447 3.99026 12.5544 3.9551 12.4103 4.00432Z" fill="#065EA9"/>
<path d="M0.280859 4.56328C-0.0988281 4.75313 -0.0988281 5.33672 0.280859 5.52656C0.393359 5.58281 0.544531 5.58984 1.86289 5.58984C3.18125 5.58984 3.33242 5.58281 3.44492 5.52656C3.82461 5.33672 3.82461 4.75313 3.44492 4.56328C3.33242 4.50703 3.18125 4.5 1.86289 4.5C0.544531 4.5 0.393359 4.50703 0.280859 4.56328Z" fill="#065EA9"/>
<path d="M1.33555 6.67266C0.955859 6.8625 0.955859 7.44609 1.33555 7.63594C1.44805 7.69219 1.59922 7.69922 2.91758 7.69922C4.23594 7.69922 4.38711 7.69219 4.49961 7.63594C4.8793 7.44609 4.8793 6.8625 4.49961 6.67266C4.38711 6.61641 4.23594 6.60938 2.91758 6.60938C1.59922 6.60938 1.44805 6.61641 1.33555 6.67266Z" fill="#065EA9"/>
<path d="M3.56174 12.6668C0.366041 15.866 0.562916 15.641 0.562916 16.1192C0.562916 16.411 0.643775 16.6289 0.830103 16.8363C1.04104 17.0719 1.27659 17.1703 1.6176 17.1703C2.10276 17.1703 1.92346 17.325 4.9926 14.2559L7.74885 11.4996L7.29182 11.0321C6.80315 10.5328 6.64495 10.3113 6.52542 9.98088L6.44807 9.77697L3.56174 12.6668Z" fill="#065EA9"/>
</svg>
