<svg width="10" height="18" viewBox="0 0 10 18" fill="none" xmlns="http://www.w3.org/2000/svg">
<path d="M3.44639 0.0667973C2.8874 0.246094 2.3917 0.741797 2.22295 1.29727C2.121 1.61719 2.121 2.10938 2.22295 2.4293C2.31436 2.72813 2.52178 3.04102 2.77842 3.26953C3.12998 3.58594 3.51318 3.72656 4.01592 3.72656C4.56787 3.72656 4.94404 3.56836 5.33076 3.18516C5.721 2.79141 5.8792 2.41172 5.8792 1.86328C5.8792 1.31133 5.721 0.928125 5.33428 0.541407C5.07412 0.28125 4.77881 0.108985 4.47295 0.0386722C4.21631 -0.0210934 3.6749 -0.00351524 3.44639 0.0667973Z" fill="#065EA9"/>
<path d="M3.29429 3.89883C2.99898 4.01484 2.93921 4.05 2.46812 4.40859C1.19546 5.36836 0.63296 6.48633 0.235694 8.82422C0.130226 9.45 0.12671 9.6293 0.214601 9.80508C0.40796 10.1813 0.843898 10.3254 1.21655 10.1391C1.48374 10.002 1.56108 9.85078 1.65952 9.27773C1.75796 8.70469 1.87749 8.13867 1.97944 7.76953L2.06382 7.4707L2.0814 8.66602C2.09546 9.47813 2.11655 9.89297 2.14468 9.95977C2.17632 10.0336 2.18687 10.9406 2.18687 13.6723C2.18687 17.6871 2.17632 17.4832 2.42241 17.7363C2.49273 17.8102 2.61577 17.898 2.69312 17.9332C2.86538 18.0105 3.22749 18.0211 3.39624 17.9508C3.57202 17.877 3.77241 17.6836 3.85327 17.5078C3.9271 17.3531 3.9271 17.3074 3.93765 14.2805C3.94468 12.368 3.95874 11.2148 3.97984 11.2148C4.00093 11.2148 4.01851 12.375 4.02202 14.298C4.03257 17.2477 4.03609 17.3918 4.09937 17.5184C4.25405 17.8277 4.53179 17.9965 4.88687 18C5.13999 18 5.35444 17.9156 5.50913 17.7539L5.61109 17.6484L5.55132 17.4797C5.49859 17.3285 5.49155 17.0789 5.49155 14.8254C5.49155 13.4578 5.48101 12.3398 5.46694 12.3398C5.44937 12.3398 5.37202 12.3855 5.28765 12.4418C4.8939 12.709 4.33843 12.5543 4.13452 12.1184C4.03257 11.8969 4.02905 11.7422 4.11694 11.2324C4.40874 9.55195 4.86577 8.65898 5.77984 7.98047C5.93452 7.86445 5.94507 7.84688 5.94859 7.6957C5.94859 7.57617 5.93101 7.51641 5.87827 7.4707C5.76226 7.36523 5.57241 7.03125 5.51265 6.82383C5.30171 6.11016 5.67437 5.29102 6.36694 4.93945C6.43023 4.90781 6.4689 4.86914 6.45484 4.85156C6.40913 4.80586 5.34038 4.19766 5.03452 4.04297C4.89038 3.96914 4.70405 3.88828 4.61968 3.86367L4.46851 3.82148L4.23999 4.04648L4.00796 4.27148L3.79351 4.03242C3.67398 3.90234 3.56851 3.79688 3.55796 3.79688C3.54741 3.80039 3.4314 3.84258 3.29429 3.89883Z" fill="#065EA9"/>
<path d="M6.79285 5.13628C6.07918 5.27691 5.60457 6.03277 5.78738 6.74292C6.00183 7.57964 6.85965 7.98042 7.65418 7.6148C8.62097 7.17183 8.62801 5.72691 7.66472 5.24527C7.39402 5.11167 7.10574 5.07652 6.79285 5.13628Z" fill="#065EA9"/>
<path d="M8.62383 6.80632C8.56055 7.05944 8.42695 7.28796 8.22305 7.50944L8.0332 7.71335L8.28281 7.88913C8.41992 7.98405 8.60625 8.13171 8.69766 8.21608C8.88398 8.38483 8.91211 8.38483 9.08438 8.20202C9.28828 7.98757 9.34453 7.66413 9.22148 7.39694C9.15117 7.23874 8.7293 6.6446 8.68711 6.6446C8.67656 6.6446 8.64492 6.71843 8.62383 6.80632Z" fill="#065EA9"/>
<path d="M6.4768 7.89613C6.2975 7.98051 5.85453 8.2934 5.61899 8.50433C5.27445 8.81722 4.89125 9.45707 4.70492 10.0371C4.50453 10.6629 4.30063 11.7493 4.34633 11.9356C4.38149 12.0797 4.61703 12.3047 4.74008 12.3118C4.95102 12.3223 5.05649 12.2977 5.1725 12.2098C5.32016 12.0973 5.36586 11.9848 5.43617 11.5489C5.46781 11.3555 5.53813 11.0215 5.59086 10.8106L5.68578 10.4239L5.71391 11.2325C5.72797 11.6754 5.75258 13.2434 5.76664 14.7129C5.78774 17.1493 5.79828 17.3953 5.85102 17.4973C6.08305 17.9192 6.69477 17.9227 6.93031 17.5043C7.00414 17.3778 7.00414 17.3286 7.00414 15.2086C7.00414 13.7883 7.01469 13.043 7.0393 13.043C7.06391 13.043 7.07445 13.7813 7.07445 15.1875C7.07445 17.5536 7.06742 17.4727 7.29594 17.6731C7.55258 17.8981 7.94984 17.8524 8.17836 17.5676L8.28734 17.4305L8.30492 14.8606C8.31899 12.7266 8.32953 12.2696 8.37172 12.1817C8.41039 12.1008 8.42797 11.8582 8.43852 11.1797C8.44906 10.5575 8.46313 10.3114 8.48774 10.3711C8.54399 10.5258 8.69516 11.1727 8.76195 11.5735C8.80063 11.7844 8.85688 12.0094 8.89203 12.0692C9.08188 12.3891 9.59164 12.3961 9.78149 12.0832C9.86586 11.9461 9.86938 11.7633 9.79555 11.3379C9.55649 9.95277 9.23305 9.18285 8.64242 8.59222C8.36117 8.30746 7.81625 7.94183 7.55609 7.85394L7.38383 7.79769L7.22914 7.94886L7.07445 8.10004L6.92328 7.95238C6.84242 7.87152 6.75102 7.80472 6.72289 7.80472C6.69477 7.80472 6.58227 7.84691 6.4768 7.89613Z" fill="#065EA9"/>
</svg>
