<svg width="195" height="191" viewBox="0 0 195 191" fill="none" xmlns="http://www.w3.org/2000/svg">
<path d="M61.1805 8.86637C62.8561 8.95945 64.5084 9.16889 66.1374 9.47142C66.4399 12.6131 70.9779 12.3105 70.9779 9.26198C70.9779 6.81848 67.7431 5.84108 66.4399 8.05186C65.2996 7.84242 63.7869 7.60971 61.9718 7.49335C61.1805 6.63231 60.5289 5.88762 59.5748 5.07312C59.4817 6.32978 59.5516 7.30718 59.6214 8.47075C58.4345 9.86704 57.5269 11.1004 56.8986 12.0545C54.4086 11.4495 52.8494 14.4282 54.5948 16.1503C56.7823 18.2913 60.1799 15.2427 58.1553 12.8458C59.0629 11.4495 60.0635 10.123 61.1805 8.86637Z" fill="white"/>
<path d="M118.824 4.02608C120.127 5.09656 121.337 6.23686 122.478 7.4237C120.872 10.1232 124.735 12.5667 126.527 10.0999C127.97 8.12185 125.922 5.42236 123.571 6.4463C122.78 5.60853 121.686 4.53805 120.29 3.37448C120.15 2.2109 120.081 1.23351 119.755 0.00012207C118.94 0.95425 118.428 1.79202 117.777 2.79269C115.985 3.21158 114.542 3.70027 113.448 4.09589C111.796 2.14109 108.771 3.63046 109.19 6.05069C109.702 9.0527 114.239 8.61055 114.007 5.4689C115.589 4.88712 117.195 4.39842 118.824 4.02608Z" fill="white"/>
<path d="M168.322 33.9998C168.741 35.6288 169.067 37.2578 169.276 38.8868C166.391 40.1435 168.089 44.3789 170.975 43.4248C173.302 42.6568 173.232 39.3057 170.742 38.7472C170.58 37.6069 170.324 36.0943 169.881 34.3256C170.463 33.3017 170.975 32.4639 171.441 31.3004C170.207 31.6029 169.3 31.9752 168.206 32.3941C166.507 31.696 165.064 31.2305 163.947 30.9047C163.761 28.3449 160.433 27.7864 159.363 29.9739C158.013 32.7199 161.946 35.0005 163.598 32.3243C165.204 32.7897 166.786 33.3482 168.322 33.9998Z" fill="white"/>
<path d="M190.732 87.338C190.127 88.8972 189.406 90.4098 188.638 91.8759C185.566 91.1778 184.449 95.6226 187.358 96.5534C189.685 97.3214 191.617 94.5288 189.918 92.6206C190.477 91.5966 191.151 90.2469 191.826 88.5481C192.897 88.0594 193.804 87.687 194.875 87.0122C193.711 86.5235 192.757 86.314 191.617 85.9882C190.663 84.429 189.755 83.1957 189.057 82.2881C190.407 80.1238 188.056 77.7036 185.892 78.8439C183.193 80.2635 185.031 84.429 187.94 83.2422C188.941 84.5454 189.871 85.9184 190.732 87.338Z" fill="white"/>
<path d="M177.514 143.678C176.095 144.586 174.652 145.4 173.163 146.098C171.091 143.725 167.577 146.657 169.369 149.124C170.812 151.102 174 149.985 173.744 147.448C174.792 146.959 176.141 146.238 177.701 145.26C178.864 145.493 179.795 145.726 181.075 145.796C180.423 144.725 179.772 143.981 179.027 143.073C179.167 141.258 179.167 139.722 179.12 138.558C181.494 137.604 181.005 134.253 178.585 133.904C175.56 133.462 174.605 137.93 177.654 138.675C177.724 140.35 177.677 142.002 177.514 143.678Z" fill="white"/>
<path d="M133.718 181.494C132.042 181.401 130.39 181.192 128.761 180.889C128.458 177.747 123.92 178.05 123.92 181.098C123.92 183.542 127.155 184.519 128.458 182.309C129.599 182.518 131.111 182.751 132.926 182.867C133.718 183.728 134.369 184.473 135.323 185.287C135.416 184.031 135.347 183.053 135.277 181.89C136.464 180.493 137.371 179.26 138 178.306C140.49 178.911 142.049 175.932 140.303 174.21C138.116 172.069 134.718 175.118 136.743 177.515C135.835 178.888 134.811 180.214 133.718 181.494Z" fill="white"/>
<path d="M76.051 186.334C74.7478 185.264 73.5377 184.123 72.3974 182.936C74.0031 180.237 70.1401 177.793 68.3482 180.26C66.9054 182.238 68.9532 184.938 71.3037 183.914C72.0949 184.752 73.1886 185.822 74.5849 186.986C74.7246 188.149 74.7944 189.127 75.1202 190.36C75.9347 189.406 76.4466 188.568 77.0982 187.567C78.8901 187.149 80.333 186.66 81.4267 186.264C83.079 188.219 86.1043 186.73 85.6854 184.309C85.1734 181.307 80.6355 181.75 80.8682 184.891C79.2858 185.473 77.7033 185.938 76.051 186.334Z" fill="white"/>
<path d="M26.576 156.337C26.1571 154.708 25.8313 153.079 25.6219 151.45C28.5075 150.194 26.8087 145.958 23.9231 146.912C21.5959 147.68 21.6657 151.031 24.1557 151.59C24.3186 152.73 24.5747 154.243 25.0168 156.012C24.4351 157.035 23.9231 157.873 23.4576 159.037C24.691 158.734 25.5986 158.362 26.6924 157.943C28.3912 158.641 29.834 159.107 30.951 159.432C31.1372 161.992 34.465 162.551 35.5355 160.363C36.8852 157.617 32.9524 155.337 31.3001 158.013C29.6944 157.547 28.1119 157.012 26.576 156.337Z" fill="white"/>
<path d="M4.14234 102.999C4.7474 101.44 5.4688 99.9274 6.23676 98.4613C9.30858 99.1595 10.4256 94.7146 7.51666 93.7838C5.18951 93.0158 3.25797 95.8084 4.95678 97.7166C4.39827 98.7406 3.72345 100.09 3.04858 101.789C1.9781 102.278 1.07052 102.65 3.05176e-05 103.325C1.1636 103.814 2.11772 104.023 3.25802 104.349C4.21214 105.908 5.11974 107.142 5.81789 108.049C4.46814 110.213 6.81852 112.634 8.98277 111.493C11.6823 110.074 9.8438 105.908 6.93487 107.095C5.95747 105.815 5.02666 104.442 4.14234 102.999Z" fill="white"/>
<path d="M17.3605 46.6828C18.78 45.7752 20.2229 44.9607 21.7122 44.2626C23.7834 46.6363 27.2974 43.704 25.5055 41.2373C24.0627 39.2592 20.8745 40.3762 21.1304 42.9128C20.0832 43.4015 18.7335 44.1229 17.1743 45.1003C16.0107 44.8676 15.0799 44.6349 13.8 44.5651C14.4516 45.6356 15.1032 46.3803 15.8479 47.2879C15.7082 49.103 15.7082 50.6389 15.7548 51.8025C13.3811 52.7566 13.8698 56.1077 16.29 56.4568C19.3153 56.899 20.2694 52.4308 17.2209 51.6862C17.1743 50.0106 17.2209 48.3351 17.3605 46.6828Z" fill="white"/>
<path d="M62.5071 12.055C63.5775 12.2179 64.6248 12.4274 65.7185 12.7066C66.2538 12.8463 68.1155 11.6129 61.9486 10.7518C58.2484 15.7552 60.4359 15.2898 60.7152 14.8011C61.2737 13.8237 61.8787 12.9161 62.5071 12.055Z" fill="white"/>
<path d="M118.033 7.37741C118.801 8.12209 119.545 8.93659 120.267 9.79763C120.616 10.2165 122.85 10.3096 118.358 6.00439C112.424 7.86611 114.472 8.77369 114.961 8.54098C116.008 8.09882 117.032 7.70321 118.033 7.37741Z" fill="white"/>
<path d="M165.716 36.257C165.902 37.3042 166.018 38.398 166.088 39.515C166.135 40.0735 167.857 41.4465 166.786 35.3261C160.899 33.3481 162.016 35.2796 162.551 35.3959C163.645 35.6519 164.692 35.9312 165.716 36.257Z" fill="white"/>
<path d="M187.312 87.64C186.846 88.5942 186.311 89.5483 185.706 90.5024C185.404 90.9678 186.009 93.1088 188.708 87.5237C185.101 82.4738 184.868 84.6846 185.241 85.0802C185.985 85.9179 186.683 86.7557 187.312 87.64Z" fill="white"/>
<path d="M174.582 141.886C173.628 142.398 172.651 142.84 171.604 143.259C171.092 143.468 170.3 145.54 175.792 142.631C175.839 136.417 174.35 138.069 174.419 138.628C174.513 139.745 174.582 140.815 174.582 141.886Z" fill="white"/>
<path d="M132.391 178.306C131.321 178.143 130.273 177.934 129.18 177.654C128.644 177.515 126.783 178.748 132.95 179.609C136.65 174.606 134.462 175.071 134.183 175.56C133.601 176.537 133.019 177.445 132.391 178.306Z" fill="white"/>
<path d="M76.8423 182.96C76.0743 182.215 75.3296 181.401 74.6082 180.54C74.2591 180.121 72.025 180.028 76.5164 184.333C82.4506 182.471 80.4028 181.564 79.9141 181.796C78.8902 182.239 77.8662 182.634 76.8423 182.96Z" fill="white"/>
<path d="M29.1823 154.103C28.9962 153.056 28.8798 151.963 28.81 150.845C28.7635 150.287 27.0414 148.914 28.1119 155.034C33.9996 157.012 32.8825 155.081 32.3473 154.965C31.2535 154.709 30.2063 154.429 29.1823 154.103Z" fill="white"/>
<path d="M7.58646 102.72C8.05189 101.766 8.58714 100.812 9.1922 99.8577C9.49472 99.3922 8.8897 97.2513 6.16694 102.836C9.77401 107.886 10.0067 105.676 9.63436 105.28C8.88967 104.442 8.21479 103.581 7.58646 102.72Z" fill="white"/>
<path d="M20.316 48.4511C21.2701 47.9391 22.2475 47.4969 23.2947 47.078C23.8067 46.8686 24.5979 44.7974 19.1059 47.7064C19.0593 53.9198 20.5487 52.2676 20.4789 51.709C20.3625 50.6153 20.316 49.5215 20.316 48.4511Z" fill="white"/>
<path d="M90.0604 7.19091C89.1063 6.72548 87.6867 6.84184 85.2898 8.30794C84.4055 8.86645 83.9866 5.93425 81.2871 6.65567C78.4014 7.42362 79.1694 11.31 79.1694 11.31C79.1694 11.31 84.5916 8.913 90.3862 11.1936C95.7154 7.98214 101.463 9.42497 101.463 9.42497C101.463 9.42497 101.58 5.46883 98.601 5.18957C95.8317 4.93358 95.9015 7.86578 94.9241 7.49344C92.341 6.4695 90.9214 6.56258 90.0604 7.19091Z" fill="white"/>
<path d="M143.189 19.6642C142.7 18.7333 141.49 17.9887 138.674 17.7792C137.627 17.7094 139 15.0797 136.417 14.1023C133.625 13.0318 131.972 16.6156 131.972 16.6156C131.972 16.6156 137.767 17.8723 141.118 23.1316C147.331 23.6669 151.125 28.2281 151.125 28.2281C151.125 28.2281 153.545 25.1097 151.288 23.1084C149.193 21.2699 147.518 23.6902 146.982 22.8058C145.47 20.4089 144.236 19.6642 143.189 19.6642Z" fill="white"/>
<path d="M178.841 60.9713C179.004 59.9241 178.445 58.6209 176.304 56.7825C175.513 56.1076 178.166 54.8044 176.63 52.4773C175.001 49.9639 171.557 51.8955 171.557 51.8955C171.557 51.8955 175.513 56.317 175.141 62.5305C179.842 66.6263 180.237 72.5372 180.237 72.5372C180.237 72.5372 184.03 71.4202 183.379 68.5113C182.774 65.7885 179.981 66.7892 180.074 65.742C180.237 62.9029 179.702 61.5997 178.841 60.9713Z" fill="white"/>
<path d="M183.402 115.333C184.147 114.589 184.473 113.192 183.798 110.446C183.542 109.423 186.451 109.934 186.614 107.165C186.776 104.163 182.844 103.698 182.844 103.698C182.844 103.698 183.449 109.585 179.493 114.403C180.889 120.476 177.747 125.48 177.747 125.48C177.747 125.48 181.471 126.806 182.657 124.06C183.751 121.5 180.935 120.663 181.61 119.871C183.402 117.73 183.728 116.357 183.402 115.333Z" fill="white"/>
<path d="M155.127 162.016C156.175 161.853 157.245 160.899 158.315 158.292C158.711 157.315 160.782 159.432 162.528 157.268C164.413 154.941 161.504 152.265 161.504 152.265C161.504 152.265 158.525 157.385 152.498 158.944C150.077 164.692 144.562 166.879 144.562 166.879C144.562 166.879 146.796 170.137 149.379 168.625C151.776 167.205 149.984 164.855 150.985 164.622C153.731 163.947 154.802 163.016 155.127 162.016Z" fill="white"/>
<path d="M104.838 183.146C105.792 183.611 107.211 183.495 109.608 182.029C110.493 181.47 110.912 184.403 113.611 183.681C116.497 182.913 115.729 179.027 115.729 179.027C115.729 179.027 110.306 181.424 104.512 179.143C99.1827 182.355 93.4347 180.912 93.4347 180.912C93.4347 180.912 93.3183 184.868 96.2971 185.147C99.0664 185.403 98.9966 182.471 99.974 182.843C102.557 183.891 103.977 183.774 104.838 183.146Z" fill="white"/>
<path d="M51.7092 170.696C52.1979 171.627 53.4312 172.371 56.2238 172.581C57.271 172.651 55.898 175.28 58.4811 176.258C61.2737 177.328 62.926 173.744 62.926 173.744C62.926 173.744 57.1314 172.488 53.7803 167.228C47.5668 166.693 43.7736 162.132 43.7736 162.132C43.7736 162.132 41.3534 165.25 43.6107 167.252C45.7051 169.09 47.3807 166.67 47.9159 167.554C49.4286 169.951 50.6387 170.696 51.7092 170.696Z" fill="white"/>
<path d="M16.0573 129.389C15.8944 130.436 16.4529 131.739 18.5939 133.578C19.3851 134.253 16.7321 135.556 18.268 137.883C19.897 140.396 23.3413 138.465 23.3413 138.465C23.3413 138.465 19.3851 134.043 19.7574 127.83C15.0566 123.734 14.661 117.823 14.661 117.823C14.661 117.823 10.8677 118.94 11.5193 121.849C12.1244 124.572 14.917 123.571 14.8239 124.618C14.661 127.457 15.1962 128.761 16.0573 129.389Z" fill="white"/>
<path d="M11.4961 75.004C10.7514 75.7487 10.4256 77.1449 11.1005 79.891C11.3565 80.9149 8.44756 80.4029 8.28466 83.1722C8.12176 86.1743 12.0546 86.6397 12.0546 86.6397C12.0546 86.6397 11.4496 80.752 15.4057 75.9348C14.0094 69.861 17.1511 64.8576 17.1511 64.8576C17.1511 64.8576 13.4276 63.5312 12.2408 66.2772C11.147 68.837 13.9629 69.6748 13.288 70.466C11.4961 72.6303 11.1703 74.0033 11.4961 75.004Z" fill="white"/>
<path d="M39.7709 28.3443C38.7236 28.5072 37.6532 29.4613 36.5827 32.0677C36.1871 33.0451 34.1159 30.9274 32.3705 33.0917C30.4855 35.4188 33.3944 38.095 33.3944 38.095C33.3944 38.095 36.3732 32.9753 42.4005 31.4161C44.8208 25.6681 50.336 23.4806 50.336 23.4806C50.336 23.4806 48.102 20.2226 45.5189 21.7352C43.122 23.1548 44.9138 25.5052 43.9132 25.7379C41.1671 26.4128 40.0734 27.3204 39.7709 28.3443Z" fill="white"/>
<path d="M93.7605 51.2436C87.4539 53.4311 76.5862 51.2436 75.0503 39.4217C78.9134 37.8858 74.8641 32.5799 72.3741 35.5354C68.511 35.2561 69.4652 41.8652 73.2817 40.1664C80.6587 49.5215 74.6082 58.83 68.6274 61.7855C64.8109 67.2776 54.7344 71.8853 46.5428 63.2283C48.7769 59.7144 42.3772 57.8061 42.098 61.6459C38.8167 63.6938 43.471 68.4644 45.5654 64.8573C57.0382 68.0921 57.62 79.1693 54.5249 85.0802C54.6645 91.7591 49.219 101.417 37.5135 99.206C37.2575 95.0404 30.9509 97.2744 32.9755 100.556C31.5095 104.14 38.0953 105.28 37.6531 101.137C48.8234 97.0185 55.8048 105.629 56.7822 112.238C60.8315 117.567 62.0881 128.575 51.3134 133.671C48.6605 130.459 44.8672 135.952 48.451 137.418C49.3819 141.164 55.3627 138.232 52.5701 135.114C59.2025 125.2 69.9073 128.086 74.5849 132.856C80.9845 134.788 88.4779 142.956 82.7764 153.405C78.7504 152.358 78.9134 159.037 82.6601 158.129C85.6155 160.619 88.7339 154.708 84.6614 153.847C84.1959 141.932 94.5518 137.953 101.138 139.07C107.444 136.882 118.312 139.07 119.848 150.892C115.985 152.428 120.034 157.734 122.524 154.778C126.387 155.057 125.433 148.448 121.616 150.147C114.239 140.792 120.29 131.483 126.271 128.505C130.087 123.013 140.164 118.405 148.355 127.062C146.121 130.576 152.521 132.484 152.8 128.644C156.081 126.596 151.427 121.826 149.356 125.433C137.883 122.198 137.301 111.121 140.397 105.21C140.257 98.5311 145.702 88.8735 157.408 91.0842C157.664 95.2498 163.97 93.0158 161.946 89.7345C163.412 86.1507 156.826 85.0104 157.268 89.1527C146.098 93.2718 139.117 84.6613 138.139 78.0522C134.09 72.7231 132.833 61.7157 143.608 56.6193C146.261 59.8307 150.054 54.3387 146.47 52.8726C145.539 49.1259 139.559 52.0581 142.351 55.1764C135.742 65.0901 125.014 62.2044 120.336 57.4338C113.937 55.5022 106.443 47.334 112.145 36.8851C116.171 37.9323 116.008 31.2534 112.261 32.161C109.306 29.671 106.187 35.5819 110.26 36.4429C110.702 48.3812 100.346 52.3606 93.7605 51.2436ZM67.6034 24.1556C70.908 25.5054 72.9792 29.6011 77.6567 26.9947C69.279 20.2693 63.6008 23.4109 69.9306 20.8511C81.4499 15.2194 78.4014 27.5067 86.8024 24.7374C86.8024 24.7374 82.5204 19.7341 78.2385 18.3378C83.3815 17.756 88.0125 19.4315 91.317 22.2241C94.1096 18.8963 98.4148 16.4761 103.581 16.2201C99.5784 18.2912 96.204 23.9462 96.204 23.9462C104.931 25.2959 99.8809 13.6835 112.191 17.3138C118.87 18.7799 112.75 16.639 105.606 24.6676C110.632 26.4595 112.005 22.0612 115.054 20.1995C116.939 23.2248 116.194 27.7627 121.523 28.4143C118.684 18.0585 112.261 17.244 118.894 18.8963C131.53 21.1071 121.826 29.2753 130.273 31.9516C130.273 31.9516 129.761 25.389 127.108 21.7587C131.623 24.2952 134.369 28.3677 135.416 32.6031C139.629 31.5559 144.515 32.1144 148.867 34.9303C144.422 34.2554 138.372 36.8385 138.372 36.8385C144.655 43.0753 147.378 30.6949 155.197 40.8645C159.735 45.9842 156.035 40.6551 145.539 42.9357C148.565 47.3572 152.242 44.5879 155.802 44.8672C155.546 48.4277 152.288 51.6624 156.198 55.3161C159.991 45.2628 155.267 40.818 159.665 46.0773C168.578 55.2928 155.942 56.2004 161.201 63.3214C161.201 63.3214 164.645 57.713 164.622 53.1984C166.763 57.8992 166.6 62.8327 164.971 66.8354C168.997 68.4644 172.627 71.7922 174.489 76.6327C171.278 73.4678 164.855 72.0017 164.855 72.0017C166.274 80.7285 175.746 72.3275 176.095 85.15C176.77 91.9686 176.909 85.4758 167.065 81.1706C166.926 86.523 171.51 86.4532 174.233 88.7571C171.929 91.4799 167.391 92.2013 168.415 97.4373C177.398 91.5497 176.165 85.1733 176.653 91.9918C178.445 104.698 167.694 97.9959 167.764 106.839C167.764 106.839 173.837 104.326 176.49 100.672C175.466 105.745 172.441 109.632 168.741 111.912C171.022 115.589 172.022 120.43 170.673 125.433C169.928 120.988 165.599 116.031 165.599 116.031C161.62 123.92 174.233 122.71 166.972 133.275C163.505 139.186 167.438 134.02 162.016 124.735C158.758 128.97 162.504 131.623 163.365 135.091C159.898 135.952 155.802 133.857 153.568 138.698C164.296 139.21 167.065 133.322 163.435 139.14C157.408 150.473 152.661 138.721 147.518 145.912C147.518 145.912 153.917 147.448 158.199 146.051C154.383 149.542 149.659 150.915 145.33 150.589C145.004 154.918 142.98 159.409 138.954 162.667C140.955 158.641 140.373 152.079 140.373 152.079C132.507 156.128 143.422 162.551 131.344 166.833C125.061 169.579 131.274 167.694 132.345 157.012C127.225 158.525 128.691 162.877 127.341 166.181C124.037 164.831 121.965 160.736 117.288 163.342C125.666 170.067 131.344 166.926 125.014 169.486C113.495 175.117 116.543 162.83 108.142 165.599C108.142 165.599 112.424 170.603 116.706 171.999C111.563 172.581 106.932 170.905 103.628 168.113C100.835 171.44 96.5298 173.861 91.3635 174.117C95.3662 172.046 98.7406 166.391 98.7406 166.391C90.0138 165.041 95.0638 176.653 82.7532 173.023C76.0743 171.557 82.1946 173.698 89.3389 165.669C84.3123 163.877 82.9393 168.276 79.8908 170.137C78.0058 167.112 78.7272 162.551 73.4213 161.922C76.2604 172.278 82.6833 173.093 76.051 171.44C63.4146 169.23 73.1187 161.061 64.6712 158.385C64.6712 158.385 65.1832 164.948 67.8362 168.578C63.3215 166.041 60.5755 161.969 59.5283 157.734C55.3161 158.781 50.4291 158.222 46.0774 155.406C50.5222 156.081 56.5728 153.498 56.5728 153.498C50.2895 147.261 47.5667 159.642 39.7475 149.472C35.2096 144.353 38.9098 149.682 49.4052 147.401C46.3799 142.98 42.703 145.749 39.1425 145.47C39.3984 141.909 42.6565 138.674 38.7469 135.021C34.9536 145.074 39.6777 149.519 35.2794 144.259C26.3664 135.044 39.0029 134.136 33.7435 127.015C33.7435 127.015 30.2994 132.624 30.3226 137.138C28.1817 132.438 28.3212 127.504 29.9735 123.501C25.9476 121.872 22.3172 118.545 20.4555 113.704C23.667 116.869 30.0899 118.335 30.0899 118.335C28.6704 109.608 19.1989 118.009 18.8498 105.187C18.1749 98.3682 18.0353 104.861 27.8791 109.166C28.0187 103.814 23.4343 103.884 20.7115 101.58C23.0154 98.8569 27.5533 98.1355 26.5294 92.8994C17.5466 98.7871 18.78 105.163 18.2913 98.3449C16.4994 85.6387 27.2508 92.3409 27.181 83.4978C27.181 83.4978 21.1071 86.0111 18.4542 89.6647C19.4781 84.5915 22.5034 80.7052 26.2036 78.4246C23.923 74.7477 22.9223 69.9072 24.2721 64.9039C25.0167 69.3487 29.3452 74.3055 29.3452 74.3055C33.3246 66.4165 20.7115 67.6266 27.9722 57.0614C31.4397 51.1505 27.5068 56.3167 32.929 65.602C36.187 61.3666 32.4403 58.7137 31.5793 55.2462C35.0467 54.3852 39.1425 56.4796 41.3766 51.6392C30.6484 51.1272 27.8791 57.0149 31.5094 51.197C37.5367 39.8638 42.2841 51.6159 47.4271 44.425C47.4271 44.425 41.0275 42.8891 36.7455 44.2854C40.562 40.7947 45.2861 39.4217 49.6146 39.7475C49.9171 35.419 51.9651 30.9276 55.991 27.6696C53.9897 31.6956 54.5714 38.2581 54.5714 38.2581C62.4372 34.2089 51.5229 27.786 63.6008 23.504C69.884 20.758 63.6706 22.643 62.6001 33.3246C67.7198 31.8119 66.2304 27.4602 67.6034 24.1556ZM92.8762 40.5852C86.4533 46.2402 79.4719 38.1185 84.3356 33.3944C88.4314 31.5327 88.7804 34.7674 88.4081 35.675C87.7798 37.0945 89.8975 38.165 90.3629 35.7913C90.8516 36.0008 91.4101 36.1171 91.6196 35.6517C94.1794 29.9037 83.684 26.6457 84.1262 31.393C83.94 31.4861 79.7976 27.2507 78.1221 35.2561C77.3309 38.9795 79.6581 49.0095 86.0111 44.1225C87.0118 44.4483 86.8024 48.2881 89.9207 47.4969C91.1076 47.1943 92.2479 46.6358 93.2951 45.9609C94.4354 46.4729 95.6687 46.822 96.8789 46.9151C100.09 47.1711 99.2526 43.4244 100.16 42.9357C107.235 46.7056 107.863 36.4197 106.467 32.8824C103.465 25.2727 100.114 30.1364 99.9042 30.0666C99.5551 25.3192 89.7579 30.276 93.2253 35.5121C93.5046 35.931 94.0398 35.7448 94.5052 35.4423C95.3662 37.6996 97.2745 36.3033 96.4135 35.0001C95.8782 34.1856 95.6921 30.9043 100.044 32.0679C105.675 35.931 100.16 45.0999 92.8762 40.5852ZM61.646 53.7103C59.761 62.0648 49.3587 59.598 50.5222 52.8958C52.733 48.9862 54.9438 51.3832 55.1532 52.3606C55.479 53.8732 57.8294 53.5009 56.8055 51.3134C57.3407 51.197 57.8527 50.941 57.7364 50.4523C56.4332 44.3087 46.0075 47.8459 49.1724 51.4065C49.0561 51.5926 43.2383 50.592 46.5893 58.0621C48.1485 61.5295 55.9212 68.2782 58.1785 60.5987C59.1792 60.2729 61.2736 63.5076 63.3215 61.0408C64.1127 60.11 64.6945 58.9929 65.1367 57.8061C66.3701 57.5501 67.5569 57.108 68.6041 56.4796C71.3501 54.8041 68.4645 52.2442 68.9299 51.3134C76.8655 50.1963 71.3269 41.5161 68.1154 39.4682C61.2271 35.0699 61.3667 40.9809 61.1573 41.0507C58.0855 37.3971 53.0588 47.1943 58.9698 49.3818C59.4585 49.568 59.761 49.0793 59.9471 48.5673C61.9717 49.8938 62.6932 47.6365 61.2271 47.078C60.3195 46.7289 58.2483 44.1923 62.4372 42.5633C69.279 42.4004 70.1866 53.082 61.646 53.7103ZM44.1226 82.66C47.5202 90.5257 37.6298 94.6448 34.6511 88.5477C34.1391 84.0795 37.3506 84.7311 38.072 85.3827C39.2356 86.43 40.9111 84.7544 38.7934 83.5443C39.1425 83.1254 39.4218 82.6367 39.0494 82.2876C34.3719 78.0755 28.042 87.0583 32.673 88.0822C32.6963 88.2917 27.3904 90.9213 34.4882 94.9938C37.7927 96.8788 48.0322 97.7864 45.356 90.2232C45.961 89.3854 49.5681 90.7584 49.7775 87.547C49.8706 86.3369 49.6845 85.0802 49.3587 83.8701C50.1964 82.9392 50.9178 81.892 51.3833 80.7517C52.6166 77.7963 48.7769 77.4239 48.614 76.4C54.3853 70.8148 44.7975 67.0681 41.0042 67.3008C32.836 67.7895 36.4197 72.4904 36.3033 72.6765C31.6723 71.5362 33.3712 82.3807 39.4218 80.7052C39.9105 80.5656 39.8872 80.007 39.7475 79.4718C42.1678 79.3322 41.4231 77.0981 39.9105 77.517C38.9563 77.773 35.7914 76.9352 38.2349 73.1652C43.6339 69.0462 50.6619 77.1214 44.1226 82.66ZM46.9384 116.404C54.3154 120.779 48.7536 129.924 42.7263 126.736C39.6777 123.432 42.6565 122.082 43.6339 122.152C45.1931 122.315 45.5421 119.964 43.1452 120.243C43.1917 119.708 43.1219 119.126 42.61 119.08C36.3499 118.428 36.5128 129.412 40.8646 127.527C41.0042 127.69 38.2582 132.926 46.4032 132.042C50.1732 131.646 59.0163 126.317 52.3839 121.803C52.3839 120.755 56.1074 119.755 54.3853 117.032C53.7337 115.985 52.8493 115.077 51.8719 114.309C51.9883 113.052 51.9651 111.796 51.6858 110.609C50.9411 107.491 47.6133 109.445 46.8686 108.701C48.2649 100.812 38.3048 103.395 35.3493 105.815C29.0195 111.005 34.6976 112.703 34.7209 112.936C30.2993 114.728 38.0488 122.524 41.9584 117.59C42.2842 117.195 41.9118 116.753 41.4929 116.404C43.3779 114.868 41.4464 113.495 40.469 114.728C39.8406 115.496 36.7921 116.66 36.5594 112.168C38.5607 105.652 48.9863 108.072 46.9384 116.404ZM69.0696 142.025C77.6102 141.234 78.4712 151.892 71.7458 152.87C67.3475 151.986 68.9532 149.123 69.791 148.634C71.1407 147.843 70.0702 145.749 68.2783 147.378C67.9991 146.912 67.6034 146.494 67.1613 146.749C61.7158 149.891 68.3016 158.711 70.7218 154.592C70.9312 154.639 71.7923 160.503 77.8429 155.011C80.6587 152.451 84.6847 142.98 76.6561 143.212C76.051 142.374 78.4712 139.372 75.4692 138.186C74.3289 137.72 73.0955 137.511 71.8389 137.441C71.2105 136.347 70.4426 135.346 69.5117 134.555C67.0682 132.461 65.5323 135.998 64.5084 135.835C60.9944 128.621 54.4551 136.58 53.501 140.257C51.4531 148.169 57.0382 146.214 57.1778 146.377C54.6645 150.426 65.509 152.172 65.7883 145.888C65.8115 145.376 65.2531 145.237 64.7178 145.19C65.3461 142.863 62.9725 142.863 62.9026 144.422C62.8561 145.4 61.0642 148.146 58.2484 144.655C55.9678 138.279 65.8116 134.113 69.0696 142.025ZM102.022 149.775C108.445 144.12 115.426 152.242 110.562 156.966C106.467 158.827 106.118 155.593 106.49 154.685C107.118 153.265 105.001 152.195 104.535 154.569C104.046 154.359 103.488 154.243 103.279 154.708C100.719 160.456 111.214 163.714 110.772 158.967C110.958 158.874 115.1 163.109 116.776 155.104C117.567 151.381 115.24 141.351 108.887 146.238C107.886 145.912 108.096 142.072 104.977 142.863C103.79 143.166 102.65 143.724 101.603 144.399C100.463 143.887 99.2293 143.538 98.0192 143.445C94.8078 143.189 95.6455 146.936 94.7379 147.424C87.6634 143.654 87.0351 153.94 88.4314 157.478C91.4334 165.087 94.7844 160.224 94.9939 160.293C95.3429 165.041 105.14 160.084 101.673 154.848C101.394 154.429 100.858 154.615 100.393 154.918C99.5318 152.66 97.6236 154.057 98.4846 155.36C99.0198 156.198 99.206 159.456 94.8543 158.292C89.2226 154.429 94.7379 145.26 102.022 149.775ZM133.229 136.65C135.114 128.295 145.516 130.762 144.353 137.464C142.142 141.374 139.931 138.977 139.722 137.999C139.396 136.487 137.045 136.859 138.069 139.047C137.534 139.163 137.022 139.419 137.138 139.908C138.442 146.051 148.867 142.514 145.702 138.954C145.819 138.767 151.637 139.768 148.285 132.298C146.726 128.831 138.954 122.082 136.696 129.761C135.696 130.087 133.601 126.852 131.553 129.319C130.762 130.25 130.18 131.367 129.738 132.554C128.505 132.81 127.318 133.252 126.271 133.88C123.525 135.556 126.41 138.116 125.945 139.047C118.009 140.164 123.548 148.844 126.759 150.892C133.648 155.29 133.508 149.379 133.717 149.309C136.789 152.963 141.793 143.166 135.905 140.978C135.416 140.792 135.114 141.281 134.928 141.793C132.903 140.466 132.182 142.724 133.648 143.282C134.555 143.631 136.626 146.168 132.438 147.797C125.619 147.936 124.688 137.278 133.229 136.65ZM150.775 107.7C147.378 99.8343 157.268 95.7153 160.247 101.812C160.759 106.28 157.548 105.629 156.826 104.977C155.663 103.93 153.987 105.606 156.105 106.816C155.756 107.235 155.476 107.723 155.849 108.072C160.526 112.285 166.856 103.302 162.225 102.278C162.202 102.068 167.508 99.4387 160.41 95.3662C157.105 93.4812 146.866 92.5736 149.542 100.137C148.937 100.975 145.33 99.6016 145.121 102.813C145.027 104.023 145.214 105.28 145.539 106.49C144.702 107.421 143.98 108.468 143.515 109.608C142.281 112.564 146.121 112.936 146.284 113.96C140.513 119.545 150.101 123.292 153.894 123.059C162.062 122.57 158.478 117.87 158.595 117.683C163.226 118.824 161.527 107.979 155.476 109.655C154.988 109.794 155.011 110.353 155.151 110.888C152.73 111.028 153.475 113.262 154.988 112.843C155.942 112.587 159.107 113.425 156.663 117.195C151.241 121.314 144.236 113.215 150.775 107.7ZM147.936 73.9565C140.559 69.5814 146.121 60.4358 152.149 63.624C155.197 66.9285 152.218 68.2782 151.241 68.2084C149.682 68.0455 149.333 70.396 151.73 70.1167C151.683 70.6519 151.753 71.2337 152.265 71.2803C158.525 71.9319 158.362 60.9477 154.01 62.8327C153.871 62.6698 156.617 57.4338 148.472 58.3181C144.702 58.7137 135.859 64.0428 142.491 68.5575C142.491 69.6047 138.767 70.6054 140.49 73.3281C141.141 74.3754 142.026 75.2829 143.003 76.0509C142.887 77.3076 142.91 78.5642 143.189 79.7511C143.934 82.8694 147.262 80.9146 148.006 81.6593C146.61 89.5483 156.57 86.9652 159.526 84.545C165.855 79.3554 160.177 77.6566 160.154 77.4239C164.576 75.632 156.826 67.8361 152.916 72.7696C152.591 73.1652 152.963 73.6074 153.382 73.9565C151.497 75.4924 153.428 76.8654 154.406 75.632C155.034 74.8641 158.083 73.7005 158.315 78.1919C156.337 84.6846 145.912 82.2644 147.936 73.9565ZM125.829 48.3114C117.288 49.1026 116.427 38.4443 123.152 37.4669C127.551 38.3512 125.945 41.2136 125.107 41.7023C123.757 42.4935 124.851 44.5879 126.62 42.9589C126.899 43.4244 127.295 43.8433 127.737 43.5873C133.182 40.4456 126.596 31.6258 124.176 35.7448C123.967 35.6983 123.106 29.8339 117.055 35.3259C114.239 37.8858 110.213 47.3572 118.242 47.1245C118.847 47.9623 116.427 50.9643 119.429 52.1511C120.569 52.6166 121.803 52.826 123.059 52.8958C123.688 53.9896 124.456 54.9903 125.386 55.7815C127.83 57.8759 129.366 54.3387 130.39 54.5016C133.904 61.7157 140.443 53.7569 141.397 50.08C143.445 42.1677 137.86 44.1225 137.72 43.9596C140.234 39.9104 129.389 38.165 129.11 44.4483C129.087 44.9603 129.645 45.0999 130.18 45.1464C129.552 47.4969 131.926 47.4736 131.995 45.9144C132.042 44.937 133.834 42.191 136.65 45.6817C138.93 52.0813 129.063 56.2469 125.829 48.3114ZM90.7818 15.8245C88.0125 14.6609 84.4752 14.1955 82.3342 16.732C82.1946 16.732 82.0317 16.7088 81.8688 16.6855C80.4027 11.5192 74.6081 14.5678 66.0442 20.4787C55.8513 22.4568 49.6146 24.4814 52.2676 29.1357C52.1512 29.2521 52.0581 29.3917 51.965 29.5081C48.6605 29.2521 46.5195 32.0912 45.4025 34.907C42.4703 35.6052 39.352 37.304 39.1192 40.6085C39.0029 40.6783 38.8632 40.7714 38.7236 40.8645C34.5115 37.56 31.6025 43.4244 28.1583 53.2216C21.0606 60.8081 17.2208 66.114 22.1078 68.3248C22.1078 68.4877 22.0845 68.6506 22.0845 68.7902C19.2687 70.5356 19.1989 74.0961 19.9435 77.005C17.9655 79.2856 16.4528 82.4971 18.1982 85.3129C18.1516 85.4526 18.0819 85.5922 18.012 85.7551C12.6596 85.5456 13.7534 92.0151 16.7321 101.975C15.4522 112.285 15.4522 118.847 20.7115 117.753C20.8046 117.893 20.8977 118.033 20.9675 118.149C19.7108 121.221 21.7588 124.13 24.0626 126.061C23.8066 129.063 24.4582 132.554 27.53 133.811C27.5533 133.95 27.5998 134.113 27.6464 134.276C23.2015 137.255 27.8791 141.839 36.1405 148.146C41.1671 157.245 45.0302 162.551 48.6372 158.571C48.8001 158.641 48.9398 158.688 49.0794 158.734C49.8474 161.946 53.2217 163.109 56.2237 163.295C57.7829 165.879 60.366 168.322 63.5775 167.508C63.6938 167.601 63.8102 167.717 63.9266 167.81C62.0649 172.837 68.5576 173.791 78.9599 174.047C88.3848 178.445 94.6215 180.47 95.2033 175.141C95.3662 175.094 95.5291 175.048 95.6688 175.024C98.1821 177.165 101.603 176.141 104.14 174.512C106.909 175.676 110.446 176.141 112.587 173.605C112.727 173.605 112.89 173.628 113.053 173.651C114.519 178.818 120.313 175.769 128.877 169.858C139.07 167.88 145.307 165.855 142.654 161.201C142.77 161.085 142.863 160.945 142.956 160.829C146.261 161.085 148.402 158.246 149.519 155.43C152.451 154.755 155.569 153.033 155.802 149.728C155.919 149.658 156.058 149.565 156.198 149.472C160.41 152.777 163.319 146.912 166.763 137.115C173.861 129.529 177.701 124.223 172.814 122.012C172.814 121.849 172.837 121.686 172.837 121.547C175.653 119.801 175.723 116.241 174.978 113.332C176.956 111.051 178.469 107.84 176.723 105.024C176.77 104.884 176.839 104.745 176.909 104.582C182.262 104.791 181.168 98.3217 178.189 88.3615C179.469 78.0522 179.469 71.4897 174.21 72.5835C174.117 72.4438 174.024 72.3042 173.954 72.1878C175.211 69.116 173.163 66.2071 170.859 64.2756C171.115 61.2735 170.463 57.7828 167.391 56.5262C167.368 56.3866 167.322 56.2236 167.275 56.0607C171.72 53.082 167.042 48.4975 158.781 42.191C153.754 33.0919 149.891 27.786 146.284 31.7654C146.121 31.6956 145.982 31.649 145.842 31.6025C145.074 28.391 141.7 27.2275 138.698 27.0413C137.138 24.4582 134.555 22.0147 131.344 22.8292C131.228 22.7361 131.111 22.6197 130.995 22.5266C132.856 17.5 126.364 16.5459 115.961 16.2899C106.537 11.8916 100.3 9.86697 99.718 15.1961C99.5551 15.2427 99.3922 15.2892 99.2526 15.3125C96.7393 13.1715 93.3183 14.2187 90.7818 15.8245ZM78.0291 48.9862C81.8223 52.9191 87.5936 54.5714 93.8769 52.8027C100.37 53.5009 105.792 50.9178 108.887 46.4031C109.655 51.8021 113.332 56.5494 119.475 58.8068C124.316 63.2051 130.227 64.2756 135.37 62.4371C132.81 67.2543 133.019 73.2583 136.65 78.7038C137.999 85.1035 142.142 89.4552 147.378 90.9912C142.468 93.3881 139.117 98.3682 138.861 104.884C136.184 110.865 136.976 116.799 140.303 121.128C134.928 120.197 129.296 122.221 125.247 127.364C119.569 130.622 116.729 135.905 116.869 141.351C113.076 137.418 107.304 135.765 101.021 137.534C94.5284 136.836 89.1062 139.419 86.0111 143.934C85.2432 138.535 81.5663 133.787 75.4226 131.53C70.5822 127.132 64.6712 126.061 59.5283 127.9C62.0881 123.082 61.8787 117.078 58.2484 111.633C56.8986 105.233 52.7563 100.882 47.5202 99.3456C52.4305 96.9486 55.7816 91.9686 56.0375 85.4526C58.7138 79.4951 57.9225 73.5376 54.5947 69.2091C59.9704 70.14 65.6021 68.1153 69.6513 62.9724C75.3296 59.7144 78.1687 54.455 78.0291 48.9862Z" fill="white"/>
<path d="M81.3336 56.8521C82.0783 56.8987 82.823 56.9918 83.5444 57.1081C83.6841 58.5044 85.7087 58.3648 85.7087 57.015C85.7087 55.9213 84.2659 55.5024 83.7073 56.4798C83.1954 56.3867 82.5438 56.2936 81.7293 56.2238C81.3802 55.8515 81.1009 55.5024 80.6587 55.1533C80.6122 55.7118 80.6587 56.154 80.682 56.666C80.1468 57.2943 79.7512 57.8295 79.4719 58.2484C78.3782 57.9692 77.68 59.2956 78.448 60.0636C79.4254 61.0177 80.938 59.668 80.0304 58.5975C80.4028 57.9924 80.8449 57.4106 81.3336 56.8521Z" fill="white"/>
<path d="M106.932 54.6879C107.514 55.1533 108.049 55.6653 108.561 56.2005C107.84 57.4106 109.562 58.4811 110.353 57.3874C110.981 56.5031 110.097 55.3162 109.05 55.7584C108.701 55.386 108.212 54.9206 107.584 54.3854C107.514 53.8734 107.491 53.4312 107.351 52.896C106.979 53.3149 106.769 53.6872 106.467 54.1294C105.676 54.3156 105.024 54.525 104.558 54.7112C103.837 53.8501 102.487 54.5017 102.674 55.5722C102.906 56.8987 104.908 56.7125 104.814 55.3162C105.513 55.0835 106.211 54.8741 106.932 54.6879Z" fill="white"/>
<path d="M128.924 67.9992C129.11 68.7206 129.25 69.442 129.343 70.1634C128.063 70.7219 128.807 72.6069 130.111 72.188C131.134 71.8622 131.111 70.3496 129.994 70.1169C129.924 69.6049 129.808 68.93 129.622 68.1621C129.878 67.6966 130.111 67.3243 130.32 66.8123C129.785 66.952 129.366 67.1149 128.877 67.301C128.133 66.9985 127.481 66.7891 126.992 66.6494C126.922 65.5091 125.433 65.2531 124.944 66.2305C124.339 67.4407 126.085 68.4646 126.829 67.2778C127.551 67.4639 128.249 67.7199 128.924 67.9992Z" fill="white"/>
<path d="M138.884 91.6896C138.605 92.3877 138.302 93.0626 137.953 93.6909C136.58 93.3884 136.091 95.3432 137.371 95.7621C138.395 96.0879 139.256 94.8778 138.511 94.0167C138.767 93.5746 139.047 92.9695 139.349 92.2016C139.815 91.9921 140.234 91.806 140.699 91.5267C140.187 91.3173 139.768 91.2242 139.256 91.0845C138.837 90.3864 138.442 89.8512 138.116 89.4323C138.721 88.4781 137.674 87.4077 136.696 87.8964C135.486 88.5247 136.301 90.3864 137.604 89.8512C138.069 90.4562 138.488 91.0613 138.884 91.6896Z" fill="white"/>
<path d="M133.019 116.73C132.391 117.125 131.74 117.497 131.088 117.8C130.157 116.753 128.598 118.056 129.412 119.15C130.041 120.034 131.46 119.545 131.367 118.405C131.833 118.172 132.438 117.87 133.113 117.428C133.625 117.521 134.043 117.637 134.602 117.66C134.299 117.172 134.02 116.846 133.694 116.45C133.764 115.636 133.764 114.961 133.741 114.449C134.788 114.03 134.579 112.541 133.508 112.378C132.158 112.168 131.74 114.17 133.089 114.495C133.089 115.24 133.066 115.985 133.019 116.73Z" fill="white"/>
<path d="M113.565 133.508C112.82 133.462 112.075 133.369 111.354 133.252C111.214 131.856 109.189 131.996 109.189 133.345C109.189 134.439 110.632 134.858 111.191 133.881C111.703 133.974 112.354 134.067 113.169 134.137C113.518 134.509 113.797 134.858 114.239 135.207C114.286 134.649 114.239 134.206 114.216 133.694C114.751 133.066 115.147 132.531 115.426 132.112C116.52 132.391 117.218 131.065 116.45 130.297C115.473 129.343 113.96 130.692 114.868 131.763C114.495 132.368 114.053 132.95 113.565 133.508Z" fill="white"/>
<path d="M87.9427 135.649C87.3609 135.184 86.8257 134.672 86.3137 134.137C87.0351 132.927 85.313 131.856 84.5218 132.95C83.8935 133.834 84.7778 135.021 85.825 134.579C86.174 134.951 86.6628 135.417 87.2911 135.952C87.3609 136.464 87.3842 136.906 87.5238 137.441C87.8962 137.022 88.1056 136.65 88.4081 136.208C89.1994 136.022 89.851 135.812 90.3164 135.626C91.0378 136.487 92.3876 135.835 92.2014 134.765C91.9687 133.439 89.9673 133.625 90.0604 135.021C89.3855 135.277 88.6641 135.486 87.9427 135.649Z" fill="white"/>
<path d="M65.9744 122.338C65.7883 121.616 65.6486 120.895 65.5556 120.174C66.8355 119.615 66.0908 117.73 64.7876 118.149C63.7637 118.475 63.7869 119.988 64.904 120.22C64.9738 120.732 65.0901 121.407 65.2763 122.175C65.0203 122.64 64.7876 123.013 64.5782 123.525C65.1134 123.385 65.5323 123.222 66.021 123.036C66.7657 123.339 67.4173 123.548 67.906 123.688C67.9758 124.828 69.4652 125.084 69.9539 124.107C70.559 122.896 68.8136 121.872 68.0689 123.059C67.3475 122.873 66.6493 122.64 65.9744 122.338Z" fill="white"/>
<path d="M56.0143 98.6477C56.2935 97.9496 56.5961 97.2747 56.9452 96.6464C58.3182 96.9489 58.8069 94.9941 57.527 94.5752C56.503 94.2494 55.6419 95.4595 56.3866 96.3206C56.1306 96.7627 55.8514 97.3678 55.5489 98.1357C55.0835 98.3452 54.6645 98.5313 54.1991 98.8106C54.7111 99.02 55.1299 99.1131 55.6419 99.2528C56.0608 99.9509 56.4565 100.486 56.7823 100.905C56.1772 101.859 57.2244 102.93 58.2018 102.441C59.4119 101.813 58.5974 99.9509 57.2942 100.486C56.8055 99.9044 56.3866 99.2993 56.0143 98.6477Z" fill="white"/>
<path d="M61.8787 73.6309C62.507 73.2353 63.1586 72.863 63.8102 72.5605C64.7411 73.6077 66.3003 72.3045 65.4858 71.2107C64.8574 70.3264 63.4379 70.8151 63.531 71.9554C63.0655 72.1881 62.4605 72.4906 61.7856 72.9328C61.2736 72.8397 60.8547 72.7233 60.2962 72.7001C60.5987 73.1888 60.878 73.5146 61.2038 73.9102C61.134 74.7247 61.134 75.3996 61.1573 75.9115C60.1101 76.3304 60.3195 77.8198 61.39 77.9827C62.7397 78.1921 63.1586 76.1908 61.8089 75.865C61.8089 75.1203 61.8089 74.3756 61.8787 73.6309Z" fill="white"/>
<path d="M81.9387 58.2484C82.4041 58.3182 82.8928 58.4113 83.3582 58.5277C83.5909 58.5975 84.4287 58.039 81.6826 57.6666C80.0304 59.8774 81.0078 59.6912 81.1241 59.4585C81.3801 59.0396 81.6361 58.644 81.9387 58.2484Z" fill="white"/>
<path d="M106.583 56.177C106.932 56.5028 107.258 56.8751 107.561 57.2474C107.723 57.4336 108.701 57.4802 106.723 55.5719C104.093 56.4097 105.001 56.8053 105.21 56.7122C105.699 56.5028 106.141 56.3399 106.583 56.177Z" fill="white"/>
<path d="M127.76 68.9998C127.83 69.4653 127.9 69.954 127.923 70.4427C127.946 70.6987 128.714 71.3037 128.226 68.581C125.619 67.6966 126.108 68.5577 126.341 68.6042C126.853 68.7439 127.318 68.8602 127.76 68.9998Z" fill="white"/>
<path d="M137.348 91.8291C137.138 92.248 136.906 92.6669 136.626 93.109C136.487 93.3185 136.766 94.2726 137.976 91.7826C136.371 89.5252 136.277 90.5259 136.44 90.7121C136.766 91.0611 137.069 91.4335 137.348 91.8291Z" fill="white"/>
<path d="M131.693 115.915C131.274 116.148 130.832 116.334 130.366 116.52C130.134 116.613 129.785 117.544 132.228 116.241C132.251 113.472 131.6 114.216 131.623 114.449C131.67 114.961 131.693 115.45 131.693 115.915Z" fill="white"/>
<path d="M112.959 132.089C112.494 132.019 112.005 131.926 111.54 131.809C111.307 131.739 110.469 132.298 113.215 132.67C114.868 130.46 113.89 130.646 113.774 130.878C113.518 131.297 113.239 131.716 112.959 132.089Z" fill="white"/>
<path d="M88.2918 134.159C87.9427 133.834 87.6169 133.461 87.3143 133.089C87.1514 132.903 86.174 132.856 88.1521 134.765C90.7817 133.927 89.8742 133.531 89.6648 133.624C89.1993 133.857 88.7572 134.02 88.2918 134.159Z" fill="white"/>
<path d="M67.138 121.337C67.0682 120.872 66.9985 120.383 66.9752 119.894C66.9519 119.638 66.184 119.033 66.6727 121.756C69.2791 122.64 68.7904 121.779 68.5576 121.733C68.0457 121.616 67.5802 121.5 67.138 121.337Z" fill="white"/>
<path d="M57.527 98.5316C57.7364 98.1127 57.9691 97.6938 58.2484 97.2517C58.388 97.0422 58.1087 96.0881 56.8986 98.5781C58.5043 100.835 58.5974 99.8348 58.4345 99.6486C58.132 99.2763 57.8062 98.9039 57.527 98.5316Z" fill="white"/>
<path d="M63.1819 74.4216C63.6007 74.1889 64.0429 74.0028 64.5083 73.8166C64.7411 73.7235 65.0901 72.7926 62.6466 74.0958C62.6233 76.8651 63.2749 76.1205 63.2517 75.8877C63.2051 75.3758 63.1819 74.9103 63.1819 74.4216Z" fill="white"/>
<path d="M94.1562 56.1074C93.7373 55.8979 93.1089 55.9445 92.0385 56.6193C91.6428 56.8521 91.4566 55.5721 90.2698 55.8747C88.9899 56.2237 89.3157 57.9458 89.3157 57.9458C89.3157 57.9458 91.7127 56.8753 94.2958 57.8993C96.6695 56.4797 99.2293 57.1081 99.2293 57.1081C99.2293 57.1081 99.2759 55.3627 97.9494 55.2231C96.716 55.1067 96.7625 56.4099 96.3204 56.247C95.1801 55.7816 94.5518 55.8281 94.1562 56.1074Z" fill="white"/>
<path d="M117.753 61.6457C117.544 61.2269 116.985 60.9011 115.752 60.808C115.287 60.7614 115.892 59.6211 114.751 59.179C113.518 58.6903 112.773 60.296 112.773 60.296C112.773 60.296 115.356 60.8545 116.846 63.1817C119.592 63.4144 121.291 65.439 121.291 65.439C121.291 65.439 122.361 64.0427 121.36 63.1584C120.43 62.3439 119.685 63.4144 119.452 63.0188C118.777 61.9715 118.242 61.6457 117.753 61.6457Z" fill="white"/>
<path d="M133.601 79.9841C133.671 79.5187 133.415 78.9369 132.461 78.1224C132.112 77.8199 133.275 77.2381 132.601 76.2141C131.879 75.0971 130.343 75.9581 130.343 75.9581C130.343 75.9581 132.089 77.9129 131.926 80.6822C134.02 82.4974 134.183 85.1271 134.183 85.1271C134.183 85.1271 135.859 84.6384 135.579 83.3352C135.3 82.1251 134.067 82.5672 134.113 82.1018C134.206 80.8451 133.974 80.2634 133.601 79.9841Z" fill="white"/>
<path d="M135.626 104.14C135.952 103.814 136.091 103.186 135.812 101.975C135.696 101.533 136.999 101.743 137.069 100.509C137.138 99.1828 135.393 98.9734 135.393 98.9734C135.393 98.9734 135.649 101.603 133.904 103.721C134.532 106.42 133.136 108.654 133.136 108.654C133.136 108.654 134.788 109.236 135.323 108.026C135.812 106.886 134.555 106.513 134.858 106.164C135.626 105.187 135.765 104.582 135.626 104.14Z" fill="white"/>
<path d="M123.059 124.851C123.525 124.781 123.99 124.363 124.479 123.199C124.665 122.78 125.573 123.711 126.341 122.757C127.178 121.733 125.898 120.523 125.898 120.523C125.898 120.523 124.572 122.803 121.896 123.502C120.825 126.061 118.382 127.039 118.382 127.039C118.382 127.039 119.382 128.482 120.523 127.807C121.593 127.178 120.779 126.131 121.244 126.015C122.431 125.712 122.92 125.317 123.059 124.851Z" fill="white"/>
<path d="M100.719 134.253C101.138 134.462 101.766 134.416 102.836 133.741C103.232 133.508 103.418 134.788 104.605 134.485C105.885 134.136 105.559 132.414 105.559 132.414C105.559 132.414 103.162 133.485 100.579 132.461C98.2054 133.88 95.6455 133.252 95.6455 133.252C95.6455 133.252 95.599 134.997 96.9255 135.137C98.1589 135.253 98.1123 133.95 98.5544 134.113C99.718 134.579 100.346 134.532 100.719 134.253Z" fill="white"/>
<path d="M77.1215 128.714C77.3309 129.133 77.8895 129.459 79.1229 129.552C79.5883 129.598 78.9832 130.739 80.1235 131.181C81.3569 131.67 82.1016 130.064 82.1016 130.064C82.1016 130.064 79.5185 129.505 78.0291 127.178C75.2598 126.946 73.5843 124.921 73.5843 124.921C73.5843 124.921 72.5138 126.317 73.5145 127.202C74.4453 128.016 75.1899 126.946 75.4227 127.341C76.1208 128.388 76.6561 128.714 77.1215 128.714Z" fill="white"/>
<path d="M61.2969 110.376C61.2271 110.842 61.4831 111.424 62.4372 112.238C62.7863 112.541 61.6227 113.122 62.2976 114.146C63.019 115.263 64.5549 114.402 64.5549 114.402C64.5549 114.402 62.8096 112.448 62.9725 109.678C60.878 107.863 60.7151 105.233 60.7151 105.233C60.7151 105.233 59.0396 105.722 59.3188 107.025C59.5981 108.235 60.8315 107.793 60.7849 108.259C60.6686 109.515 60.9246 110.097 61.2969 110.376Z" fill="white"/>
<path d="M59.2723 86.2204C58.9465 86.5462 58.8069 87.1745 59.0861 88.3846C59.2025 88.8268 57.8992 88.6173 57.8294 89.8507C57.7596 91.1772 59.505 91.3866 59.505 91.3866C59.505 91.3866 59.249 88.757 60.9944 86.6393C60.3661 83.9398 61.7623 81.7057 61.7623 81.7057C61.7623 81.7057 60.11 81.1239 59.5748 82.334C59.0861 83.4743 60.3428 83.8467 60.0402 84.1958C59.2723 85.1499 59.1327 85.7782 59.2723 86.2204Z" fill="white"/>
<path d="M71.8156 65.4858C71.3502 65.5556 70.8848 65.9745 70.3961 67.1381C70.2099 67.557 69.3023 66.6261 68.5343 67.5802C67.6966 68.6042 68.9765 69.8143 68.9765 69.8143C68.9765 69.8143 70.303 67.5337 72.9792 66.8355C74.0497 64.2757 76.4932 63.2983 76.4932 63.2983C76.4932 63.2983 75.4925 61.8555 74.3522 62.5303C73.2817 63.1587 74.0962 64.2059 73.6308 64.3222C72.4439 64.6248 71.9785 65.0437 71.8156 65.4858Z" fill="white"/>
<path d="M95.8084 75.6554C93.0158 76.6328 88.1754 75.6554 87.5005 70.3961C89.2226 69.7212 87.4075 67.3475 86.3137 68.674C84.5916 68.5576 85.0337 71.4898 86.7093 70.7219C89.9905 74.8875 87.3144 79.0065 84.6382 80.333C82.9393 82.7765 78.4712 84.8244 74.8408 80.9613C75.8415 79.4021 72.9792 78.5411 72.8628 80.2632C71.3967 81.1707 73.4679 83.2884 74.3987 81.6827C79.4952 83.1255 79.7511 88.0358 78.3781 90.6655C78.4479 93.621 76.0277 97.9262 70.8149 96.9488C70.6986 95.1103 67.906 96.0877 68.8135 97.5538C68.1619 99.1363 71.0942 99.6483 70.8847 97.8098C75.8415 95.9714 78.9599 99.8112 79.3788 102.743C81.1707 105.117 81.7292 110.004 76.9585 112.261C75.7717 110.842 74.0962 113.285 75.6786 113.937C76.0975 115.612 78.7505 114.286 77.5171 112.913C80.4493 108.515 85.2199 109.795 87.2911 111.912C90.1302 112.773 93.458 116.404 90.9214 121.035C89.1295 120.569 89.1993 123.548 90.8749 123.129C92.1781 124.246 93.5744 121.616 91.7592 121.221C91.5498 115.938 96.1575 114.17 99.0664 114.658C101.859 113.681 106.699 114.658 107.374 119.918C105.652 120.593 107.467 122.966 108.561 121.64C110.283 121.756 109.841 118.824 108.166 119.592C104.884 115.426 107.561 111.307 110.237 109.981C111.936 107.537 116.404 105.489 120.034 109.352C119.033 110.912 121.896 111.773 122.012 110.051C123.478 109.143 121.407 107.025 120.476 108.631C115.38 107.188 115.124 102.278 116.497 99.6483C116.427 96.6928 118.847 92.3876 124.06 93.365C124.176 95.2034 126.969 94.226 126.061 92.7599C126.713 91.1775 123.781 90.6655 123.99 92.5039C119.033 94.3424 115.915 90.5026 115.496 87.5704C113.704 85.1967 113.146 80.3097 117.916 78.0524C119.103 79.4719 120.779 77.0284 119.196 76.3768C118.777 74.7013 116.124 76.0278 117.358 77.4008C114.426 81.7991 109.655 80.5191 107.584 78.4014C104.745 77.5404 101.417 73.9101 103.953 69.2791C105.745 69.7445 105.676 66.7657 104 67.1846C102.697 66.0676 101.301 68.6973 103.116 69.0929C103.325 74.3988 98.7406 76.1674 95.8084 75.6554ZM84.196 63.6241C85.6621 64.2292 86.5929 66.0443 88.6641 64.8808C84.9406 61.902 82.4273 63.275 85.2432 62.158C90.3629 59.6447 89.0131 65.1135 92.7366 63.8801C92.7366 63.8801 90.8284 61.646 88.9434 61.041C91.224 60.785 93.2719 61.5297 94.7612 62.763C95.9946 61.2969 97.9029 60.2032 100.207 60.0868C98.4381 61.0177 96.9255 63.5077 96.9255 63.5077C100.812 64.1128 98.5544 58.9465 104.023 60.5523C107.002 61.2039 104.279 60.2497 101.091 63.8103C103.325 64.6015 103.93 62.6467 105.28 61.8322C106.118 63.1819 105.792 65.2066 108.142 65.4858C106.886 60.8781 104.023 60.529 106.979 61.2504C112.587 62.2278 108.282 65.8581 112.029 67.045C112.029 67.045 111.796 64.1361 110.632 62.5071C112.634 63.6241 113.867 65.4393 114.309 67.3243C116.171 66.8588 118.358 67.1148 120.29 68.3715C118.312 68.0689 115.612 69.2325 115.612 69.2325C118.405 72.0018 119.615 66.5098 123.083 71.0244C125.107 73.305 123.455 70.9313 118.801 71.9553C120.15 73.9101 121.779 72.7 123.362 72.8163C123.245 74.3988 121.803 75.8416 123.548 77.4473C125.247 72.9792 123.129 71.0244 125.084 73.3516C129.04 77.4473 123.432 77.8429 125.759 81.0078C125.759 81.0078 127.295 78.5178 127.271 76.5165C128.226 78.6109 128.156 80.7984 127.434 82.567C129.226 83.2885 130.832 84.7778 131.646 86.9188C130.227 85.5225 127.364 84.8709 127.364 84.8709C127.993 88.7572 132.205 85.0105 132.368 90.712C132.67 93.7373 132.717 90.8517 128.365 88.9434C128.295 91.3171 130.343 91.2938 131.553 92.3178C130.529 93.5279 128.505 93.8537 128.97 96.1808C132.95 93.5744 132.414 90.7353 132.624 93.7606C133.415 99.3923 128.644 96.4368 128.668 100.346C128.668 100.346 131.367 99.2294 132.531 97.6004C132.065 99.8577 130.739 101.58 129.087 102.604C130.11 104.233 130.529 106.397 129.948 108.608C129.622 106.63 127.69 104.442 127.69 104.442C125.922 107.956 131.53 107.398 128.295 112.098C126.759 114.728 128.505 112.424 126.085 108.305C124.642 110.19 126.294 111.377 126.69 112.913C125.154 113.285 123.339 112.354 122.338 114.519C127.109 114.751 128.319 112.145 126.713 114.705C124.037 119.731 121.919 114.519 119.638 117.707C119.638 117.707 122.478 118.382 124.386 117.777C122.687 119.336 120.592 119.941 118.661 119.801C118.521 121.733 117.614 123.711 115.822 125.154C116.706 123.362 116.45 120.453 116.45 120.453C112.959 122.245 117.8 125.107 112.447 127.015C109.655 128.226 112.424 127.411 112.89 122.664C110.609 123.339 111.261 125.27 110.679 126.736C109.213 126.131 108.282 124.316 106.211 125.48C109.934 128.458 112.447 127.085 109.632 128.202C104.512 130.716 105.862 125.247 102.138 126.48C102.138 126.48 104.047 128.714 105.931 129.319C103.651 129.575 101.603 128.831 100.114 127.597C98.8803 129.063 96.972 130.157 94.6681 130.273C96.4368 129.343 97.9494 126.853 97.9494 126.853C94.0631 126.247 96.3204 131.414 90.8516 129.808C87.8728 129.156 90.5956 130.111 93.7838 126.55C91.5497 125.759 90.9447 127.714 89.595 128.528C88.7572 127.178 89.083 125.154 86.7326 124.874C87.9892 129.482 90.8516 129.831 87.8961 129.11C82.2877 128.132 86.5929 124.502 82.8462 123.315C82.8462 123.315 83.0789 126.224 84.2425 127.853C82.2412 126.736 81.0078 124.921 80.5657 123.036C78.7039 123.501 76.5164 123.245 74.5849 121.989C76.563 122.291 79.2625 121.128 79.2625 121.128C76.4699 118.358 75.2597 123.851 71.7923 119.336C69.7677 117.055 71.42 119.429 76.0743 118.405C74.7245 116.45 73.0955 117.66 71.513 117.544C71.6294 115.962 73.0723 114.519 71.3269 112.913C69.6281 117.381 71.7458 119.336 69.791 117.009C65.8348 112.913 71.4432 112.517 69.1161 109.352C69.1161 109.352 67.5802 111.842 67.6035 113.844C66.6493 111.749 66.7191 109.562 67.4405 107.793C65.6486 107.072 64.0429 105.582 63.2284 103.442C64.648 104.838 67.5103 105.489 67.5103 105.489C66.882 101.603 62.6699 105.35 62.507 99.6483C62.2045 96.623 62.1579 99.5086 66.5097 101.417C66.5795 99.0432 64.5316 99.0665 63.3215 98.0425C64.3455 96.8324 66.37 96.5066 65.9046 94.1795C61.9252 96.7859 62.4605 99.625 62.2511 96.5997C61.4598 90.968 66.2304 93.9235 66.2072 90.0139C66.2072 90.0139 63.5077 91.1309 62.3441 92.7599C62.8095 90.5026 64.136 88.7805 65.7883 87.7566C64.7643 86.1276 64.3455 83.9633 64.9273 81.7525C65.2531 83.7306 67.1846 85.9181 67.1846 85.9181C68.9532 82.4041 63.3448 82.9627 66.5795 78.2618C68.1154 75.6322 66.3701 77.936 68.7903 82.0551C70.2331 80.1701 68.5809 78.9832 68.1852 77.4473C69.7212 77.075 71.5363 78.0058 72.537 75.8416C67.7663 75.6089 66.5562 78.2153 68.1619 75.6554C70.8382 70.6288 72.9559 75.8416 75.2365 72.6534C75.2365 72.6534 72.3973 71.9785 70.4891 72.5836C72.1879 71.0244 74.2824 70.4194 76.2139 70.559C76.3535 68.6275 77.2611 66.6494 79.053 65.2066C78.1687 66.9985 78.4247 69.9074 78.4247 69.9074C81.9154 68.1155 77.0749 65.2531 82.4273 63.3448C85.2199 62.1347 82.4506 62.9492 81.9852 67.6966C84.2425 67.045 83.5909 65.0902 84.196 63.6241ZM95.4128 70.9313C92.5504 73.4446 89.4553 69.8376 91.6196 67.7431C93.4348 66.9054 93.5976 68.3482 93.4347 68.7671C93.1555 69.3954 94.0863 69.8841 94.2958 68.8136C94.5285 68.9067 94.7612 68.9533 94.8543 68.7438C95.9946 66.184 91.317 64.7411 91.5265 66.8588C91.4334 66.9054 89.595 65.0204 88.8503 68.5809C88.5012 70.2332 89.5252 74.678 92.3643 72.5138C92.8064 72.6534 92.7134 74.3755 94.1096 74.0264C94.6449 73.8868 95.1335 73.6541 95.599 73.3516C96.1109 73.5843 96.6462 73.7472 97.1814 73.7704C98.601 73.8868 98.2286 72.2112 98.6475 72.0018C101.789 73.6773 102.068 69.1162 101.44 67.5337C100.114 64.1593 98.6243 66.3236 98.5312 66.277C98.3916 64.1593 94.0165 66.3701 95.5757 68.6973C95.692 68.8834 95.9481 68.7903 96.1342 68.674C96.5299 69.6747 97.3676 69.0463 96.9953 68.4645C96.7626 68.0922 96.6695 66.6494 98.601 67.1614C101.091 68.8602 98.6476 72.9327 95.4128 70.9313ZM81.543 76.7492C80.7052 80.4726 76.0742 79.3556 76.6095 76.4001C77.5869 74.6547 78.5643 75.7252 78.6574 76.1674C78.797 76.8423 79.8442 76.6794 79.4021 75.702C79.6348 75.6554 79.8675 75.5391 79.821 75.3296C79.2392 72.6069 74.6081 74.1661 76.0277 75.7485C75.9812 75.8416 73.398 75.3762 74.8874 78.704C75.5856 80.2399 79.0297 83.2419 80.0304 79.821C80.4725 79.6814 81.4034 81.1009 82.311 80.0072C82.6601 79.5883 82.9161 79.0996 83.1255 78.5643C83.6608 78.448 84.1959 78.2618 84.6614 77.9826C85.8715 77.2379 84.5916 76.0976 84.8011 75.702C88.3383 75.2133 85.8715 71.3502 84.4519 70.4426C81.3801 68.4878 81.45 71.1175 81.3569 71.1408C79.9839 69.5118 77.773 73.8635 80.3794 74.8409C80.5889 74.9107 80.7285 74.7013 80.8216 74.4918C81.7292 75.0736 82.0317 74.073 81.4034 73.8403C81.0078 73.6774 80.0769 72.5603 81.9387 71.8389C84.9407 71.7458 85.3363 76.4699 81.543 76.7492ZM73.7704 89.6183C75.283 93.109 70.8847 94.9474 69.5582 92.2247C69.3255 90.2466 70.7451 90.5259 71.0709 90.8284C71.5828 91.2938 72.3276 90.5491 71.3967 90.0139C71.5596 89.8277 71.6759 89.6183 71.513 89.4554C69.4419 87.5937 66.6261 91.5731 68.6972 92.0385C68.6972 92.1316 66.3468 93.2952 69.5117 95.1103C70.9778 95.9481 75.539 96.3437 74.3289 92.9926C74.6082 92.6203 76.1906 93.2254 76.2837 91.8058C76.3303 91.2706 76.2371 90.712 76.0975 90.1768C76.4699 89.7579 76.7957 89.2925 77.0051 88.8038C77.5636 87.4773 75.8416 87.3144 75.7717 86.8722C78.3316 84.4055 74.0729 82.7299 72.3974 82.823C68.767 83.0325 70.3728 85.1269 70.3029 85.22C68.2551 84.708 68.9998 89.5252 71.6992 88.7805C71.9087 88.7107 71.9087 88.478 71.8389 88.2453C72.9094 88.1987 72.5836 87.198 71.9087 87.3842C71.4898 87.5006 70.0935 87.1282 71.164 85.4527C73.5609 83.5677 76.656 87.1515 73.7704 89.6183ZM75.027 104.605C78.3083 106.537 75.8183 110.609 73.1654 109.19C71.8156 107.723 73.142 107.118 73.5609 107.165C74.2591 107.235 74.422 106.188 73.3515 106.327C73.3748 106.094 73.3515 105.838 73.1188 105.815C70.3495 105.536 70.396 110.4 72.3508 109.562C72.4207 109.632 71.1873 111.959 74.8176 111.563C76.4932 111.377 80.426 109.027 77.4705 107.002C77.4705 106.537 79.1228 106.094 78.3548 104.884C78.0756 104.419 77.68 104.023 77.2379 103.674C77.2844 103.116 77.2844 102.557 77.1448 102.022C76.819 100.626 75.3295 101.51 75.0037 101.184C75.6321 97.6702 71.1873 98.8338 69.8841 99.9042C67.0682 102.208 69.6048 102.976 69.6048 103.069C67.65 103.86 71.0941 107.328 72.8162 105.14C72.9559 104.954 72.793 104.768 72.6068 104.605C73.4446 103.93 72.5835 103.325 72.1646 103.86C71.8854 104.209 70.5356 104.721 70.4193 102.72C71.2803 99.8344 75.9114 100.905 75.027 104.605ZM84.8476 115.985C88.6408 115.636 89.0132 120.36 86.0345 120.802C84.0797 120.406 84.801 119.15 85.1734 118.917C85.7784 118.568 85.2898 117.637 84.4985 118.358C84.3822 118.149 84.196 117.963 84.0098 118.079C81.5896 119.476 84.5218 123.385 85.5923 121.57C85.6854 121.593 86.0577 124.2 88.7572 121.756C90.0138 120.616 91.7824 116.404 88.2219 116.52C87.9426 116.148 89.0132 114.821 87.71 114.286C87.198 114.077 86.6628 113.983 86.1043 113.96C85.825 113.471 85.4759 113.029 85.057 112.68C83.9633 111.749 83.2884 113.309 82.823 113.262C81.2638 110.051 78.3549 113.588 77.936 115.217C77.0284 118.731 79.4952 117.87 79.565 117.94C78.448 119.731 83.2651 120.523 83.3815 117.73C83.3815 117.497 83.1487 117.428 82.916 117.428C83.1953 116.38 82.1481 116.404 82.1016 117.079C82.0783 117.521 81.287 118.731 80.0304 117.195C79.0297 114.309 83.4048 112.471 84.8476 115.985ZM99.4853 119.429C102.348 116.916 105.443 120.523 103.279 122.617C101.463 123.455 101.3 122.012 101.463 121.593C101.743 120.965 100.812 120.476 100.602 121.547C100.37 121.454 100.137 121.407 100.044 121.616C98.9035 124.176 103.581 125.619 103.372 123.501C103.465 123.455 105.303 125.34 106.048 121.779C106.397 120.127 105.373 115.682 102.534 117.847C102.092 117.707 102.185 115.985 100.789 116.334C100.253 116.474 99.7646 116.706 99.2991 117.009C98.7872 116.776 98.2519 116.613 97.7167 116.59C96.2971 116.474 96.6695 118.149 96.2506 118.358C93.1089 116.683 92.8296 121.244 93.458 122.827C94.7844 126.201 96.2738 124.037 96.3669 124.083C96.5065 126.201 100.882 123.99 99.3224 121.663C99.2061 121.477 98.9501 121.57 98.7639 121.686C98.3683 120.686 97.5305 121.314 97.9028 121.896C98.1355 122.268 98.2286 123.711 96.2971 123.199C93.7838 121.5 96.2506 117.428 99.4853 119.429ZM113.332 113.588C114.17 109.864 118.801 110.981 118.265 113.937C117.288 115.682 116.311 114.612 116.217 114.17C116.078 113.495 115.031 113.658 115.473 114.635C115.24 114.682 115.007 114.798 115.054 115.007C115.636 117.73 120.267 116.171 118.847 114.589C118.894 114.495 121.477 114.961 119.987 111.633C119.289 110.097 115.845 107.095 114.844 110.516C114.402 110.656 113.471 109.236 112.564 110.33C112.215 110.749 111.959 111.237 111.749 111.773C111.214 111.889 110.679 112.075 110.213 112.354C109.003 113.099 110.283 114.239 110.074 114.635C106.537 115.124 109.003 118.987 110.423 119.894C113.495 121.849 113.425 119.22 113.518 119.196C114.891 120.825 117.102 116.474 114.495 115.496C114.286 115.426 114.146 115.636 114.053 115.845C113.146 115.263 112.843 116.264 113.471 116.497C113.867 116.66 114.798 117.777 112.936 118.498C109.957 118.614 109.539 113.867 113.332 113.588ZM121.128 100.742C119.615 97.2513 124.013 95.4129 125.34 98.1356C125.573 100.114 124.153 99.8344 123.827 99.5319C123.315 99.0665 122.571 99.8112 123.501 100.346C123.339 100.533 123.222 100.742 123.385 100.905C125.456 102.767 128.272 98.7872 126.201 98.3218C126.201 98.2287 128.551 97.0651 125.386 95.25C123.92 94.4122 119.359 94.0166 120.569 97.3677C120.29 97.74 118.707 97.1349 118.614 98.5545C118.568 99.0897 118.661 99.6483 118.801 100.184C118.428 100.602 118.102 101.068 117.893 101.557C117.334 102.883 119.057 103.046 119.126 103.488C116.567 105.955 120.825 107.63 122.501 107.537C126.131 107.328 124.525 105.233 124.595 105.14C126.643 105.652 125.898 100.835 123.199 101.58C122.989 101.65 122.989 101.882 123.059 102.115C121.989 102.162 122.315 103.162 122.989 102.976C123.408 102.86 124.805 103.232 123.734 104.908C121.337 106.793 118.219 103.186 121.128 100.742ZM119.871 85.7552C116.59 83.8237 119.08 79.7512 121.733 81.1708C123.083 82.6369 121.756 83.2419 121.337 83.1954C120.639 83.1256 120.476 84.1728 121.547 84.0331C121.523 84.2659 121.547 84.5218 121.779 84.5451C124.549 84.8244 124.502 79.9606 122.547 80.7984C122.477 80.7286 123.711 78.4015 120.08 78.7971C118.405 78.9832 114.472 81.3337 117.428 83.3583C117.428 83.8237 115.775 84.2659 116.543 85.476C116.823 85.9414 117.218 86.337 117.66 86.6861C117.614 87.2446 117.614 87.8031 117.753 88.3383C118.079 89.7346 119.568 88.8503 119.894 89.1761C119.266 92.6901 123.711 91.5265 125.014 90.456C127.83 88.1522 125.293 87.3842 125.293 87.2911C127.248 86.4999 123.804 83.0325 122.082 85.22C121.942 85.4061 122.105 85.5923 122.291 85.7552C121.454 86.4301 122.315 87.0351 122.733 86.4999C123.013 86.1508 124.362 85.6389 124.479 87.6402C123.595 90.5259 118.964 89.4554 119.871 85.7552ZM110.051 74.3755C106.257 74.7246 105.885 70.0005 108.864 69.5583C110.819 69.9539 110.097 71.2106 109.725 71.4433C109.12 71.7924 109.608 72.7232 110.4 72.0018C110.516 72.2112 110.702 72.3974 110.888 72.2811C113.309 70.8848 110.376 66.9752 109.306 68.7903C109.213 68.7671 108.84 66.1607 106.141 68.6042C104.884 69.7445 103.116 73.9566 106.676 73.8403C106.955 74.2126 105.885 75.5391 107.188 76.0743C107.7 76.2837 108.235 76.3768 108.794 76.4001C109.073 76.8888 109.422 77.331 109.841 77.68C110.935 78.6109 111.61 77.0517 112.075 77.0983C113.634 80.3097 116.543 76.7725 116.962 75.1435C117.87 71.6295 115.403 72.4905 115.333 72.4207C116.45 70.6288 111.633 69.8376 111.517 72.6301C111.517 72.8629 111.749 72.9327 111.982 72.9327C111.703 73.9799 112.75 73.9566 112.797 73.2817C112.82 72.8396 113.611 71.6295 114.868 73.1654C115.868 76.0278 111.493 77.8895 110.051 74.3755ZM94.4819 59.9239C93.2485 59.412 91.6894 59.2025 90.7353 60.3196C90.6654 60.3196 90.5956 60.2963 90.5258 60.2963C89.8742 58.0157 87.291 59.3654 83.4978 61.9718C78.9599 62.8561 76.1906 63.7405 77.3775 65.8116C77.3309 65.8582 77.2844 65.928 77.2379 65.9745C75.7718 65.8582 74.8176 67.1148 74.3289 68.3715C73.0257 68.674 71.6294 69.4419 71.5363 70.908C71.4898 70.9313 71.4199 70.9779 71.3501 71.0244C69.4884 69.5583 68.1852 72.1647 66.6493 76.5165C63.5077 79.8908 61.7856 82.2412 63.9498 83.2186C63.9498 83.2884 63.9499 83.3583 63.9266 83.4281C62.6699 84.196 62.6467 85.7785 62.9725 87.0817C62.0881 88.0824 61.4132 89.5252 62.2045 90.7818C62.1812 90.8284 62.158 90.8982 62.1114 90.968C59.7377 90.8749 60.2264 93.7373 61.5296 98.1822C60.9711 102.767 60.9711 105.676 63.2982 105.187C63.3448 105.257 63.3681 105.303 63.4146 105.373C62.8561 106.723 63.7637 108.026 64.7876 108.887C64.6713 110.213 64.9738 111.773 66.3236 112.331C66.3468 112.401 66.3468 112.471 66.3701 112.541C64.392 113.867 66.4631 115.892 70.14 118.708C72.3741 122.757 74.0962 125.107 75.6786 123.339C75.7485 123.362 75.8182 123.385 75.8648 123.408C76.2139 124.828 77.7033 125.363 79.0297 125.433C79.7279 126.573 80.8682 127.667 82.311 127.318C82.3576 127.365 82.4041 127.411 82.4739 127.458C81.6594 129.692 84.5218 130.111 89.1528 130.227C93.3417 132.182 96.1109 133.089 96.3669 130.716C96.4367 130.692 96.5066 130.669 96.5764 130.669C97.6934 131.623 99.2061 131.158 100.346 130.436C101.58 130.948 103.139 131.158 104.093 130.041C104.163 130.041 104.233 130.064 104.302 130.064C104.954 132.345 107.537 130.995 111.33 128.388C115.868 127.504 118.638 126.62 117.451 124.549C117.497 124.502 117.544 124.432 117.591 124.386C119.057 124.502 120.011 123.245 120.499 121.989C121.803 121.686 123.199 120.918 123.292 119.452C123.339 119.429 123.408 119.382 123.478 119.336C125.34 120.802 126.643 118.196 128.179 113.844C131.321 110.469 133.043 108.119 130.878 107.142C130.878 107.072 130.878 107.002 130.902 106.932C132.158 106.164 132.182 104.582 131.856 103.279C132.74 102.278 133.415 100.835 132.624 99.5784C132.647 99.5086 132.67 99.4621 132.717 99.3923C135.091 99.4854 134.602 96.623 133.299 92.1781C133.857 87.5937 133.857 84.6847 131.53 85.1734C131.483 85.1036 131.46 85.0571 131.414 84.9873C131.972 83.6375 131.065 82.3343 130.041 81.4733C130.157 80.1468 129.854 78.5876 128.505 78.0291C128.481 77.9593 128.482 77.8895 128.458 77.8197C130.436 76.4932 128.365 74.4686 124.688 71.6527C122.454 67.6035 120.732 65.2531 119.15 67.0217C119.08 66.9985 119.01 66.9752 118.964 66.9519C118.614 65.5324 117.125 64.9971 115.799 64.9273C115.1 63.787 113.96 62.6932 112.517 63.0423C112.471 62.9958 112.424 62.9492 112.354 62.9027C113.169 60.6686 110.283 60.2497 105.675 60.1334C101.487 58.1786 98.7174 57.271 98.4614 59.6447C98.3916 59.668 98.3218 59.6912 98.252 59.6912C97.1349 58.7604 95.6222 59.2258 94.4819 59.9239ZM88.827 74.6547C90.5025 76.4001 93.0624 77.1448 95.8782 76.3536C98.7639 76.6561 101.161 75.5158 102.534 73.5145C102.883 75.9114 104.512 78.0058 107.235 79.0298C109.399 80.9846 112.005 81.45 114.286 80.6355C113.146 82.7765 113.239 85.4294 114.844 87.8497C115.449 90.6888 117.288 92.6203 119.615 93.3184C117.428 94.3889 115.938 96.5997 115.822 99.4854C114.635 102.138 114.984 104.768 116.473 106.7C114.076 106.281 111.586 107.188 109.771 109.469C107.258 110.912 105.978 113.262 106.048 115.682C104.372 113.937 101.812 113.192 98.9966 113.983C96.1109 113.681 93.714 114.821 92.341 116.823C91.9919 114.426 90.3629 112.331 87.6401 111.307C85.4759 109.352 82.8695 108.887 80.5889 109.702C81.7292 107.561 81.6361 104.908 80.0304 102.487C79.4253 99.6483 77.5869 97.7167 75.2598 97.0186C77.4473 95.9481 78.9367 93.7373 79.053 90.8517C80.2399 88.1987 79.8908 85.569 78.4014 83.6375C80.7984 84.0564 83.2884 83.1488 85.1035 80.8682C87.6169 79.4254 88.8968 77.0982 88.827 74.6547Z" fill="white"/>
</svg>
