<svg width="18" height="18" viewBox="0 0 18 18" fill="none" xmlns="http://www.w3.org/2000/svg">
<path d="M7.87412 0.0527573C6.50654 0.221508 5.18115 0.713696 4.03857 1.47307C2.2667 2.65081 0.976465 4.37346 0.371777 6.37737C0.227637 6.84143 0.0870117 7.54807 0.0342773 8.02268C-0.0114258 8.46213 -0.0114258 9.53791 0.0342773 9.97737C0.413965 13.5422 2.93467 16.5867 6.37646 17.6274C6.84053 17.7715 7.54717 17.9121 8.02178 17.9649C8.46123 18.0106 9.53701 18.0106 9.97646 17.9649C12.0577 17.7434 13.9878 16.7977 15.4714 15.2719C16.4874 14.2207 17.2081 13.0043 17.6265 11.6227C17.8866 10.7684 17.9991 9.97737 17.9991 9.00002C17.9991 8.26526 17.964 7.86096 17.8374 7.22463C17.2011 3.99026 14.7894 1.33245 11.6218 0.372681C11.1577 0.228539 10.4511 0.0879135 9.97646 0.0351791C9.51592 -0.0140381 8.32764 -0.00349236 7.87412 0.0527573ZM10.1417 3.52971C10.6163 3.65627 10.989 4.00432 11.105 4.43674C11.1718 4.67581 11.1437 5.04143 11.0382 5.25588C10.8378 5.67424 10.3667 5.97659 9.88154 6.00471C8.80928 6.06448 8.08506 4.97463 8.62998 4.11331C8.72139 3.96916 8.99912 3.71252 9.14678 3.63518C9.42451 3.49104 9.83936 3.44885 10.1417 3.52971ZM9.08701 7.2844C9.54053 7.37932 9.90615 7.65354 10.096 8.04377C10.212 8.27581 10.212 8.28284 10.2085 8.77151C10.205 9.33752 10.2085 9.31995 9.79014 10.8106C9.43154 12.0762 9.35068 12.4453 9.35068 12.811C9.35068 13.3313 9.50185 13.493 10.0327 13.5246C10.2964 13.5422 10.6831 13.4789 10.9362 13.377C10.989 13.3559 10.989 13.3805 10.9292 13.6266C10.894 13.7778 10.8519 13.9114 10.8378 13.9254C10.7745 13.9852 9.63193 14.3895 9.39287 14.4352C9.06943 14.4985 8.51748 14.4985 8.25381 14.4352C7.67373 14.2946 7.23076 13.9114 7.10068 13.4332C7.04443 13.2188 7.05498 12.6985 7.12178 12.3399C7.15342 12.1746 7.32217 11.5418 7.49443 10.9336C7.85303 9.66096 7.94443 9.24612 7.94443 8.90159C7.94443 8.49377 7.83545 8.29338 7.58584 8.22307C7.33623 8.15627 6.89326 8.18088 6.59795 8.27229C6.45029 8.32151 6.32725 8.34963 6.32725 8.33557C6.33076 8.23713 6.4749 7.78713 6.51006 7.76604C6.59092 7.71331 7.41006 7.41799 7.67373 7.34768C8.1835 7.20706 8.62646 7.18596 9.08701 7.2844Z" fill="#065EA9"/>
</svg>
