<svg width="18" height="18" viewBox="0 0 18 18" fill="none" xmlns="http://www.w3.org/2000/svg">
<path d="M8.47961 0.0843935C7.74132 0.26369 7.08039 0.931659 6.90461 1.67346C6.82726 2.01096 6.85187 2.57346 6.95734 2.88283C7.23507 3.67736 7.92765 4.23283 8.75031 4.32072C9.78039 4.42971 10.705 3.84611 11.0425 2.88283C11.148 2.57346 11.1726 2.01096 11.0952 1.67346C10.9546 1.07932 10.5011 0.516815 9.94914 0.253144C9.7839 0.1758 9.56593 0.0949407 9.46398 0.0738468C9.21789 0.0246282 8.71515 0.0281439 8.47961 0.0843935Z" fill="#065EA9"/>
<path d="M1.58921 1.19529C1.20952 1.29373 0.931786 1.45896 0.629443 1.75779C0.158349 2.22888 -0.0174323 2.68943 0.0106927 3.37498C0.0317864 3.86365 0.10913 4.11326 0.35874 4.48591C0.580224 4.8199 0.826318 5.03435 1.17788 5.2031C1.53999 5.37537 1.77202 5.4281 2.14468 5.4281C2.65093 5.42458 3.06226 5.28748 3.47007 4.9781C3.99038 4.58435 4.28569 3.96912 4.28921 3.28005C4.28921 2.89333 4.23999 2.67537 4.07124 2.32732C3.89897 1.96521 3.5439 1.58904 3.19585 1.39568C2.72827 1.13552 2.11304 1.05818 1.58921 1.19529Z" fill="#065EA9"/>
<path d="M15.2965 1.19529C14.7164 1.34998 14.1855 1.78591 13.9289 2.32732C13.7602 2.67537 13.7109 2.89334 13.7109 3.28005C13.7145 3.96912 14.0098 4.58435 14.5301 4.9781C14.9379 5.28748 15.3492 5.42458 15.8555 5.4281C16.2281 5.4281 16.4602 5.37537 16.8223 5.2031C17.1738 5.03435 17.4199 4.8199 17.6414 4.48591C17.891 4.11326 17.9684 3.86365 17.9895 3.37498C18.0105 2.90037 17.9578 2.65076 17.7609 2.26755C17.6027 1.95818 17.1914 1.53982 16.8855 1.3781C16.418 1.13201 15.8133 1.06169 15.2965 1.19529Z" fill="#065EA9"/>
<path d="M7.00312 5.02383C6.5707 5.15742 6.42305 5.2207 6.16641 5.4C5.8043 5.65313 5.56172 6.00469 5.44922 6.45117C5.38594 6.7043 5.37891 6.84141 5.37891 8.25117V9.78047L5.48086 9.88242L5.58281 9.98438H9H12.4172L12.5191 9.88242L12.6211 9.78047V8.27227C12.6211 7.34063 12.607 6.6832 12.5824 6.55313C12.5016 6.11367 12.2098 5.66367 11.8336 5.4C11.584 5.22773 11.3941 5.14336 10.9441 5.01328C10.5855 4.90781 10.5152 4.91836 10.4309 5.09063C10.4027 5.14336 10.0758 6.0293 9.70312 7.05586C9.32695 8.08594 9.01055 8.92969 9 8.92969C8.98945 8.92969 8.6625 8.06484 8.27578 7.00313C7.60078 5.14336 7.50234 4.91836 7.37578 4.92539C7.35117 4.92539 7.18242 4.97109 7.00312 5.02383Z" fill="#065EA9"/>
<path d="M8.5634 4.9957C8.4298 5.10117 8.44387 5.23125 8.62668 5.5125L8.78137 5.74805L8.71457 6.29297L8.64426 6.84141L8.78488 7.20703C8.9009 7.52344 8.93254 7.57617 8.99934 7.57617C9.06613 7.57617 9.09777 7.52344 9.21379 7.20703L9.35441 6.84141L9.2841 6.29297L9.2173 5.74805L9.37199 5.5125C9.5548 5.23125 9.56887 5.10117 9.43527 4.9957C9.35441 4.93242 9.29113 4.92188 8.99934 4.92188C8.70754 4.92188 8.64426 4.93242 8.5634 4.9957Z" fill="#065EA9"/>
<path d="M1.72362 6.0293C1.03808 6.18398 0.486123 6.69727 0.261123 7.38281C0.201357 7.56211 0.194326 7.77656 0.183779 10.0723C0.176748 11.6965 0.187295 12.6527 0.211904 12.8145C0.289248 13.3453 0.690029 13.9148 1.15409 14.1609C1.57245 14.3824 1.62167 14.3895 2.99979 14.407L4.25487 14.4211V15.975C4.25487 17.5254 4.25487 17.5324 4.33573 17.6836C4.48339 17.9613 4.49394 17.9648 5.8369 17.9648C6.95136 17.9648 7.02167 17.9613 7.13065 17.8945C7.19394 17.8559 7.27479 17.775 7.31347 17.7117C7.38026 17.5992 7.38378 17.5289 7.38378 15.1383C7.38378 13.0781 7.37675 12.6527 7.33104 12.4805C7.17636 11.8863 6.65604 11.4188 6.04784 11.3203C5.92128 11.3027 5.43612 11.2852 4.96854 11.2852H4.11776L4.10722 9.42891L4.09315 7.57617L4.00175 7.31953C3.84003 6.87305 3.58339 6.54609 3.18612 6.28594C2.78534 6.02578 2.19472 5.92383 1.72362 6.0293Z" fill="#065EA9"/>
<path d="M15.4441 6.0293C14.7656 6.17695 14.2418 6.64453 13.9992 7.31953L13.9078 7.57617L13.8937 9.42891L13.8832 11.2852H13.0324C12.5648 11.2852 12.0797 11.3027 11.9531 11.3238C11.3344 11.4223 10.8246 11.8828 10.6699 12.4805C10.6242 12.6527 10.6172 13.0781 10.6172 15.1383C10.6172 17.5289 10.6207 17.5992 10.6875 17.7117C10.7262 17.775 10.807 17.8559 10.8703 17.8945C10.9793 17.9613 11.0496 17.9648 12.1641 17.9648C13.507 17.9648 13.5176 17.9613 13.6652 17.6836C13.7461 17.5324 13.7461 17.5254 13.7461 15.975V14.4211L15.0047 14.407C16.3793 14.3895 16.4285 14.3824 16.8469 14.1609C17.3109 13.9148 17.7117 13.3453 17.7891 12.8145C17.8137 12.6527 17.8242 11.6965 17.8172 10.0723C17.8066 7.77656 17.7996 7.56211 17.7398 7.38281C17.4164 6.39141 16.4355 5.81484 15.4441 6.0293Z" fill="#065EA9"/>
</svg>
