<svg width="18" height="18" viewBox="0 0 18 18" fill="none" xmlns="http://www.w3.org/2000/svg">
<path d="M7.85696 1.11801L6.74414 2.23083V2.60519V2.97442H7.30824H7.87235V4.86673V6.75903L8.42619 6.21032C8.98004 5.65647 9.30824 5.40519 9.83645 5.14365L10.1288 5.00006V3.98467V2.97442H10.6929H11.257V2.60006V2.23083L10.139 1.11288C9.52876 0.502623 9.01594 5.8651e-05 9.00055 5.8651e-05C8.98517 5.8651e-05 8.47235 0.502623 7.85696 1.11801Z" fill="#065EA9"/>
<path d="M14.9996 5.02569V5.58979H13.656C12.9124 5.58979 12.1022 5.61543 11.8458 5.6462C10.897 5.76415 10.0304 6.16928 9.32267 6.83595C8.64062 7.4821 8.17908 8.28723 8.00473 9.13851C7.9637 9.34364 7.93293 9.51287 7.93806 9.518C7.94319 9.518 8.12267 9.62056 8.33293 9.74364C8.54319 9.86671 8.82011 10.0462 8.94832 10.1385C9.2355 10.359 9.78934 10.8924 9.96883 11.1231L10.1022 11.3026L10.1278 10.4052C10.1534 9.53851 10.1586 9.50261 10.3175 9.16415C10.5381 8.70261 10.9791 8.25646 11.4458 8.03595L11.7945 7.87184L13.3996 7.85646L14.9996 7.84107V8.40518V8.97441H15.374H15.7432L16.8714 7.8462L17.9996 6.718L16.8714 5.58979L15.7432 4.46159H15.374H14.9996V5.02569Z" fill="#065EA9"/>
<path d="M1.12821 10.1026L0 11.2308L1.12821 12.359L2.25641 13.4872H2.62564H3V12.9179V12.3538L4.60513 12.3692L6.20513 12.3846L6.55385 12.5487C7.01026 12.7641 7.44103 13.1949 7.67179 13.6667L7.84615 14.0256L7.86154 16.0103L7.87692 18H9H10.1282V16.2667C10.1282 14.3641 10.0821 13.8308 9.87692 13.2051C9.50769 12.0769 8.58462 11.041 7.51282 10.5436C6.72308 10.1795 6.17436 10.1026 4.34872 10.1026H3V9.53846V8.97436H2.62564H2.25641L1.12821 10.1026Z" fill="#065EA9"/>
</svg>
