<svg width="19" height="18" viewBox="0 0 19 18" fill="none" xmlns="http://www.w3.org/2000/svg">
<path d="M8.33781 0.0685711C8.19365 0.103731 7.9405 0.198662 7.77525 0.283045C7.52913 0.406105 7.40959 0.49752 7.13534 0.771766C6.84703 1.06008 6.77671 1.15149 6.63959 1.4398C6.40402 1.92149 6.3548 2.17464 6.37238 2.74775C6.39347 3.27163 6.46379 3.53181 6.70288 3.96779C6.90329 4.32642 7.39553 4.79756 7.77174 4.98391C8.18311 5.18783 8.53822 5.27222 9.00233 5.27222C9.46644 5.27222 9.81803 5.19135 10.2329 4.98391C10.4755 4.86436 10.5951 4.77295 10.8658 4.4987C11.14 4.22797 11.2315 4.10843 11.351 3.86583C11.5584 3.44742 11.6393 3.09934 11.6393 2.62117C11.6393 2.143 11.562 1.82656 11.351 1.40464C11.2315 1.16204 11.1365 1.0425 10.8658 0.771766C10.5951 0.49752 10.4755 0.406105 10.2329 0.286561C10.0677 0.205694 9.80749 0.107247 9.6563 0.0685711C9.29415 -0.0228443 8.70699 -0.0228443 8.33781 0.0685711Z" fill="#065EA9"/>
<path d="M2.58424 2.24491C1.85995 2.45587 1.2974 3.03249 1.11105 3.74975C1.03721 4.02399 1.03721 4.55139 1.11105 4.82563C1.29388 5.53586 1.88105 6.13709 2.57721 6.32696L2.78465 6.38321L2.41548 6.47463C1.2552 6.76294 0.37621 7.63138 0.0843834 8.77759C0 9.1081 0 9.13271 0 10.7536C0 12.3006 0.00351598 12.399 0.0668036 12.494C0.196895 12.6909 0.295342 12.726 0.713743 12.726C0.921186 12.726 1.08995 12.7366 1.08995 12.7506C1.08995 12.7682 1.19895 13.8758 1.33607 15.2153C1.59977 17.8664 1.58922 17.7996 1.82128 17.9367C1.91621 17.993 2.04981 18 3.16438 18C4.27894 18 4.41255 17.993 4.50748 17.9402C4.73602 17.8031 4.7325 17.8172 4.93995 15.7427C5.04543 14.6915 5.13333 13.7843 5.13333 13.7246C5.13333 13.6296 5.10871 13.5945 4.95753 13.4995C4.55671 13.2429 4.3141 12.8385 4.25082 12.3182C4.19104 11.8259 4.23324 8.64399 4.30356 8.27129C4.37388 7.90211 4.511 7.47668 4.66219 7.14266C4.72899 6.99851 4.78173 6.8649 4.78173 6.84732C4.78173 6.76997 4.09611 6.50979 3.63904 6.41134C3.54059 6.39024 3.54762 6.38673 3.74452 6.33047C4.46177 6.12303 5.03136 5.54289 5.21771 4.82563C5.29155 4.55139 5.29155 4.02399 5.21771 3.74975C5.02785 3.01842 4.43365 2.42422 3.70232 2.23436C3.41401 2.16053 2.85849 2.16404 2.58424 2.24491Z" fill="#065EA9"/>
<path d="M14.258 2.24491C13.5337 2.45587 12.9711 3.03249 12.7848 3.74975C12.7531 3.86929 12.7285 4.10838 12.7285 4.28769C12.7285 4.46701 12.7531 4.70609 12.7848 4.82563C12.9676 5.53586 13.5513 6.13006 14.258 6.33047C14.4549 6.38673 14.4619 6.39024 14.3634 6.41134C13.9064 6.50979 13.2208 6.77349 13.2208 6.85084C13.2208 6.86842 13.2735 6.99851 13.3403 7.14266C13.4915 7.47668 13.6286 7.90211 13.6989 8.27129C13.7692 8.64399 13.8114 11.8259 13.7517 12.3182C13.6884 12.8385 13.4458 13.2429 13.045 13.4995C12.8938 13.5945 12.8692 13.6296 12.8692 13.7246C12.8692 13.7843 12.9571 14.6915 13.0625 15.7427C13.27 17.8172 13.2665 17.8031 13.495 17.9367C13.5899 17.993 13.7235 18 14.8381 18C15.9527 18 16.0863 17.993 16.1812 17.9402C16.4133 17.7996 16.4027 17.8664 16.6664 15.2153C16.8035 13.8758 16.9125 12.7682 16.9125 12.7506C16.9125 12.7366 17.0813 12.726 17.2923 12.726C17.7071 12.726 17.8056 12.6909 17.9357 12.494C17.999 12.399 18.0025 12.3006 18.0025 10.7536C18.0025 9.13271 18.0025 9.1081 17.9181 8.77759C17.6263 7.63138 16.7473 6.76294 15.587 6.47463L15.2178 6.38321L15.4253 6.32696C16.132 6.13006 16.7051 5.54289 16.8914 4.82563C16.9653 4.55139 16.9653 4.02399 16.8914 3.74975C16.7016 3.01842 16.1074 2.42422 15.376 2.23436C15.0877 2.16053 14.5322 2.16404 14.258 2.24491Z" fill="#065EA9"/>
<path d="M8.05166 5.39522C6.79646 5.72221 5.82956 6.66449 5.42523 7.9654L5.32678 8.27832L5.31623 10.2824C5.30217 12.5116 5.29514 12.4342 5.53774 12.5854C5.6397 12.6487 5.71705 12.6557 6.3218 12.6557H6.99335L7.01445 12.8385C7.025 12.9405 7.11993 14.0656 7.22189 15.3349C7.42933 17.8523 7.41879 17.789 7.65084 17.9332C7.7528 17.9965 7.83719 18 9.00098 18C10.1648 18 10.2491 17.9965 10.3511 17.9332C10.5832 17.789 10.5726 17.8523 10.7801 15.3349C10.882 14.0656 10.977 12.9405 10.9875 12.8385L11.0086 12.6557H11.6802C12.2849 12.6557 12.3623 12.6487 12.4642 12.5854C12.7068 12.4342 12.6998 12.5116 12.6857 10.2824L12.6752 8.27832L12.5767 7.9654C12.2462 6.90006 11.5923 6.12303 10.6359 5.6554C10.3511 5.51828 9.70417 5.30732 9.56002 5.30732C9.54595 5.30732 9.52837 6.15819 9.52134 7.1954C9.51079 9.06942 9.51079 9.087 9.43344 9.21006C9.33499 9.37179 9.18381 9.45618 9.00098 9.45618C8.81815 9.45618 8.66696 9.37179 8.56851 9.21006C8.49116 9.087 8.49116 9.06942 8.48061 7.1954C8.47358 5.74682 8.45952 5.30732 8.42787 5.30732C8.40326 5.31084 8.23449 5.34951 8.05166 5.39522Z" fill="#065EA9"/>
</svg>
