<svg width="45" height="45" viewBox="0 0 45 45" fill="none" xmlns="http://www.w3.org/2000/svg">
<path d="M1.66113 4.44727C1.125 4.60547 0.46582 5.20312 0.210938 5.75684L0 6.19629V20.7861V35.376L0.210938 35.8154C0.46582 36.3779 0.887695 36.7998 1.4502 37.0547L1.88965 37.2656H15.9346H29.9707V34.7607V32.2559L29.6543 31.8428C28.5469 30.3926 28.0195 28.2041 28.3359 26.3672C28.7666 23.9238 30.2607 21.9814 32.5371 20.9268C33.5479 20.4521 34.4531 20.2676 35.6396 20.2764C39.4717 20.3115 42.583 23.3174 42.7764 27.1582C42.8643 28.8545 42.4688 30.2607 41.5107 31.667L41.0449 32.3525V34.8047V37.2656H42.082C42.9785 37.2656 43.1719 37.2393 43.5498 37.0547C43.7959 36.9492 44.1299 36.7207 44.2881 36.5537C44.4551 36.3955 44.6836 36.0615 44.7891 35.8154L45 35.376V25.6025V15.8291L40.5 15.8027C36.0615 15.7764 35.9824 15.7676 35.499 15.5742C34.9189 15.3457 34.3477 14.8799 34.04 14.3789C33.5918 13.6758 33.5742 13.4736 33.5742 8.71875V4.30664L17.8242 4.31543C4.5 4.31543 2.00391 4.3418 1.66113 4.44727ZM30.1465 13.4473V14.7656H17.8418H5.53711V13.4473V12.1289H17.8418H30.1465V13.4473ZM26.3672 22.5879V23.291H15.9521H5.53711V22.5879V21.8848H15.9521H26.3672V22.5879ZM17.7539 27.2021V27.8613H11.6455H5.53711V27.2021V26.543H11.6455H17.7539V27.2021Z" fill="#065EA9"/>
<path d="M34.9805 8.71877C34.9805 11.6631 35.0156 13.2539 35.0771 13.4209C35.1914 13.7285 35.4727 14.0362 35.8154 14.2207C36.0527 14.3526 36.5889 14.3701 40.5439 14.3965C42.9961 14.4141 45 14.3877 45 14.3526C45 14.3174 42.75 12.0235 39.9902 9.27248L34.9805 4.26272V8.71877Z" fill="#7FAEE5"/>
<path d="M34.3652 21.7529C32.2383 22.2188 30.5684 23.7041 29.9092 25.6992C29.7158 26.2969 29.6719 26.5781 29.6719 27.4219C29.6631 28.6084 29.7773 29.1357 30.2432 30.1201C31.2188 32.168 33.1699 33.3984 35.4463 33.416C36.5449 33.416 37.1514 33.2842 38.1445 32.8096C39.6123 32.1064 40.7285 30.7705 41.1943 29.1445C41.4316 28.3359 41.4668 26.9736 41.2734 26.1914C40.6318 23.5723 38.4434 21.7705 35.7715 21.6562C35.2354 21.6387 34.7256 21.665 34.3652 21.7529Z" fill="#7FAEE5"/>
<path d="M31.377 37.1338C31.377 39.0938 31.4033 40.6934 31.4473 40.6934C31.4824 40.6934 32.4141 40.333 33.5215 39.8936L35.5254 39.085L37.4326 39.8408C38.4785 40.2627 39.4014 40.623 39.4893 40.6582C39.6299 40.7109 39.6387 40.5088 39.6387 37.1514V33.583L38.918 33.9697C37.8457 34.5322 37.1338 34.7256 35.9385 34.7783C34.4004 34.8486 33.1875 34.5762 31.9395 33.8818L31.377 33.5654V37.1338Z" fill="#7FAEE5"/>
</svg>
