<svg width="45" height="45" viewBox="0 0 45 45" fill="none" xmlns="http://www.w3.org/2000/svg">
<g clip-path="url(#clip0_133_2287)">
<path d="M12.041 0.131878C11.6367 0.316448 11.4434 0.501019 11.2236 0.922894C10.96 1.41508 10.9688 2.6016 11.2236 3.51567C12.2344 7.06645 16.1719 12.5332 20.5225 16.4268C24.8291 20.2852 29.127 22.7813 31.7022 22.9219C32.4492 22.9571 32.5459 22.9483 33.0029 22.7286C33.3721 22.544 33.5391 22.3946 33.7324 22.0782C33.9434 21.709 33.9697 21.5772 33.9697 20.8741C33.961 19.67 33.4688 18.2813 32.4317 16.5762C31.9043 15.6973 31.6406 15.5391 31.1221 15.794C30.9024 15.9082 30.7881 16.0401 30.7266 16.2334C30.6563 16.4883 30.7002 16.6026 31.0957 17.2881C32.001 18.8789 32.4141 19.8985 32.4932 20.7422C32.5547 21.3487 32.4141 21.4981 31.8164 21.4717C30.4629 21.4102 27.501 19.9424 24.8731 18.0352C22.0078 15.9434 18.7647 12.7881 16.5235 9.88774C15.5127 8.58696 14.2471 6.58305 13.5791 5.24711C12.832 3.71782 12.5772 2.99711 12.5068 2.23246C12.4629 1.7227 12.4717 1.67875 12.6826 1.53813C12.9024 1.3975 12.9639 1.3975 13.5703 1.52055C14.3789 1.68754 15.4336 2.13578 16.4971 2.7686C17.4111 3.32231 17.7276 3.37504 18.0615 3.03227C18.2988 2.80375 18.3428 2.50492 18.1846 2.17094C18.0264 1.81938 16.1016 0.738323 14.8096 0.290081C14.0098 4.19617e-05 12.5156 -0.0790596 12.041 0.131878Z" fill="#7FAEE6"/>
<path d="M20.2588 4.32427C19.6348 4.43853 18.6504 4.73736 18.5889 4.82525C18.5625 4.86919 20.1094 6.44244 22.0166 8.31451C23.9414 10.1954 25.5146 11.8126 25.541 11.9268C25.6553 12.3575 25.1279 12.7969 24.6973 12.6387C24.5742 12.5948 23.5898 11.6807 22.5 10.6085C16.8926 5.07134 17.3408 5.49322 17.1123 5.59869C16.998 5.65142 16.6553 5.89751 16.3564 6.1524L15.8115 6.60943L15.9609 6.83794C18.334 10.5733 22.166 14.546 25.9102 17.1651C27.3779 18.2022 27.8438 18.4835 27.9844 18.4307C28.1953 18.3428 29.0039 17.1915 29.3994 16.3917C30.0586 15.0469 30.1904 14.4493 30.1904 12.6563C30.1904 11.3116 30.1641 11.0303 29.9883 10.4239C29.25 7.86626 27.4834 5.86236 25.0752 4.84283C24.4072 4.55279 23.3613 4.28033 23.1328 4.32427C23.0449 4.34185 23.4404 4.7813 24.2402 5.52837C24.917 6.17876 25.4971 6.80279 25.5322 6.91704C25.6465 7.38286 25.1104 7.87505 24.6973 7.68169C24.6094 7.63775 23.7393 6.83794 22.7813 5.9063C21.709 4.87798 20.9619 4.2188 20.8564 4.22759C20.7686 4.23638 20.5049 4.27154 20.2588 4.32427ZM27.7471 8.98247C28.459 9.67681 28.6172 9.94927 28.4766 10.2833C28.3799 10.5206 28.0723 10.7227 27.7998 10.7227C27.7295 10.7227 27.3516 10.4151 26.9736 10.0459C26.3848 9.47466 26.2793 9.33404 26.2793 9.07915C26.2793 8.71001 26.543 8.43755 26.9033 8.43755C27.1143 8.43755 27.2988 8.55181 27.7471 8.98247ZM27.835 14.0889C28.6172 14.8711 28.6787 15.0293 28.3799 15.4161C28.248 15.5831 28.125 15.6446 27.8877 15.6446C27.6064 15.6446 27.4834 15.5655 26.9209 15.003C26.3584 14.4405 26.2793 14.3174 26.2793 14.0362C26.2793 13.7989 26.3408 13.6758 26.5078 13.544C26.8945 13.2452 27.0527 13.3067 27.835 14.0889Z" fill="#7FAEE6"/>
<path d="M13.4473 11.2236C13.377 11.5488 13.3506 12.1904 13.3857 13.0077C13.4209 14.0448 13.4648 14.4228 13.6582 15.0556C14.1064 16.5497 14.8271 17.7275 15.9434 18.7909C17.499 20.2675 19.1777 20.9882 21.3047 21.0673C22.4121 21.12 23.9414 20.9794 23.8887 20.83C23.8711 20.7948 23.3086 20.3466 22.6318 19.8368C19.5029 17.4726 16.7256 14.7304 14.4141 11.707C14.001 11.1708 13.6406 10.7314 13.6055 10.7314C13.5703 10.7226 13.5 10.9511 13.4473 11.2236Z" fill="#7FAEE6"/>
<path d="M7.60254 15.6621L6.19629 16.5498L4.54395 16.0049C3.62988 15.6973 2.86523 15.4775 2.83887 15.5039C2.80371 15.5303 3.01465 16.2773 3.2959 17.1562C3.57715 18.0439 3.80566 18.8086 3.80566 18.8613C3.80566 18.9141 3.42773 19.5732 2.96191 20.3203C2.4873 21.0762 2.10938 21.709 2.10938 21.7441C2.10938 21.7705 2.8916 21.7969 3.84961 21.7969L5.58105 21.8057L6.62695 23.2031C7.19824 23.9766 7.69043 24.6094 7.72559 24.6094C7.76074 24.6094 7.96289 23.9238 8.17383 23.0889C8.38477 22.2627 8.58691 21.5156 8.62207 21.4453C8.66602 21.3574 9.28125 21.1553 10.3184 20.8828C11.2148 20.6455 11.9531 20.4258 11.9531 20.3818C11.9531 20.3467 11.3203 19.8545 10.5469 19.2832L9.14941 18.2373L9.14062 16.4971C9.14062 15.5479 9.11426 14.7656 9.0791 14.7656C9.03516 14.7656 8.37598 15.1699 7.60254 15.6621Z" fill="#065EA9"/>
<path d="M37.2656 20.707L37.2568 22.4561L35.8594 23.502C35.0859 24.0732 34.4531 24.5654 34.4531 24.6006C34.4531 24.6445 35.1914 24.8643 36.0879 25.1016C37.125 25.374 37.7402 25.5762 37.7842 25.6641C37.8193 25.7344 38.0215 26.4814 38.2324 27.3076C38.4434 28.1426 38.6455 28.8281 38.6807 28.8281C38.7158 28.8281 39.208 28.1953 39.7793 27.4219L40.8252 26.0244L42.5742 26.0156C43.9277 26.0156 44.3057 25.9893 44.2705 25.9014C44.2529 25.8486 43.8574 25.1895 43.3916 24.4512L42.5566 23.1064L43.0312 21.6387C43.5674 19.9775 43.6465 19.6875 43.541 19.6875C43.4971 19.6875 42.7324 19.9336 41.8359 20.2236L40.21 20.7686L38.8477 19.9072C38.1006 19.4326 37.4326 19.0283 37.3799 19.0107C37.292 18.9756 37.2656 19.3535 37.2656 20.707Z" fill="#065EA9"/>
<path d="M18.457 23.3788C18.1055 23.7303 18.1934 24.0028 19.7666 27.1493C20.5928 28.784 21.3223 30.1463 21.4014 30.1815C21.7002 30.2957 22.1484 30.2342 22.3242 30.0584C22.6758 29.7069 22.5879 29.4344 21.0146 26.2879C20.1885 24.6532 19.459 23.2909 19.3799 23.2557C19.0811 23.1414 18.6328 23.203 18.457 23.3788Z" fill="#065EA9"/>
<path d="M11.4258 24.0819C11.1973 24.3104 11.1885 24.8993 11.417 25.1278C11.5137 25.2245 11.8213 25.3299 12.1729 25.3914C14.2647 25.7606 16.418 27.5096 18.1143 30.2342C18.3691 30.6473 18.8613 31.5789 19.2217 32.3084C19.5732 33.0467 19.9248 33.662 20.0039 33.6971C20.2939 33.8114 20.7422 33.7498 20.918 33.5741C21.208 33.284 21.1465 32.8446 20.6191 31.7108C19.0195 28.2391 16.8047 25.7079 14.3086 24.5213C13.0166 23.9061 11.7861 23.7215 11.4258 24.0819Z" fill="#065EA9"/>
<path d="M24.8906 23.9676C24.8291 23.994 24.4248 24.7147 23.9941 25.5848C23.1504 27.2723 23.0537 27.6239 23.3789 27.9491C23.5547 28.1248 24.0029 28.1864 24.3018 28.0721C24.5215 27.9842 26.0156 24.9344 26.0156 24.5653C26.0156 24.1434 25.7607 23.9061 25.3389 23.9149C25.1543 23.9149 24.9522 23.9413 24.8906 23.9676Z" fill="#065EA9"/>
<path d="M31.9482 26.1123C29.7158 26.4814 27.6152 27.6504 25.875 29.4609C24.5654 30.8408 23.2031 33.0205 23.2031 33.75C23.2031 34.1982 23.4404 34.4531 23.8535 34.4531C24.3369 34.4531 24.4248 34.3828 24.7852 33.6709C25.5674 32.1064 26.9824 30.3486 28.2129 29.3994C29.7773 28.2041 31.1748 27.6943 33.6006 27.457C34.2422 27.3955 34.4531 27.2109 34.4531 26.7188C34.4531 26.1211 34.2598 26.0156 33.249 26.0244C32.7744 26.0332 32.1943 26.0684 31.9482 26.1123Z" fill="#065EA9"/>
<path d="M2.12695 32.3525L2.15332 33.7939L3.41016 33.8555C8.40234 34.0928 13.6582 35.4375 16.7871 37.2832C18.3428 38.1973 19.6875 39.3047 19.6875 39.6562C19.6875 39.9639 20.0215 40.5791 20.3467 40.8604C20.8389 41.291 21.498 41.4844 22.5 41.4844C23.502 41.4844 24.1611 41.291 24.6533 40.8604C24.9785 40.5791 25.3125 39.9639 25.3125 39.6562C25.3125 39.2959 26.877 38.0391 28.3799 37.1865C31.623 35.3672 36.7031 34.084 41.5723 33.8555L42.8467 33.7939L42.873 32.3613L42.8906 30.9375H41.9062C39.3838 30.9375 36.1318 31.4648 33.5918 32.2734C29.5049 33.5742 26.1035 35.5869 23.4053 38.3027L22.5 39.208L21.5859 38.2939C17.2002 33.8818 10.6348 31.1924 3.66504 30.9639L2.10059 30.9111L2.12695 32.3525Z" fill="#065EA9"/>
<path d="M0 36.5624V37.9599L0.290039 38.0039C0.439453 38.0302 1.2832 38.0654 2.15332 38.0917C6.40723 38.2148 10.3096 39.0849 13.4033 40.5966C15.3105 41.5371 16.0488 42.1171 17.8506 44.0947C18.0703 44.3408 18.4219 44.6308 18.6416 44.7451C19.0283 44.956 19.0547 44.956 22.2979 44.9824C24.3545 44.9999 25.6992 44.9736 25.9102 44.9208C26.4199 44.7802 27 44.3496 27.4482 43.7871C29.2588 41.4755 32.4316 39.7968 36.8262 38.8124C38.8037 38.373 41.625 38.0566 43.5762 38.0566C45.1406 38.0566 45 38.1972 45 36.5537V35.1562H43.6729C38.2324 35.1562 32.6162 36.29 28.9072 38.1445C27.1934 38.997 25.3652 40.3593 25.2598 40.8515C25.0664 41.7832 24.5479 42.3896 23.7217 42.6533C23.124 42.8466 21.876 42.8466 21.2783 42.6533C20.4521 42.3896 19.9336 41.7832 19.7402 40.8515C19.6787 40.5615 18.7207 39.7177 17.71 39.0585C16.8662 38.5136 15.3809 37.7578 14.2822 37.3271C10.8896 35.9999 5.8623 35.1562 1.34473 35.1562H0V36.5624Z" fill="#065EA9"/>
</g>
<defs>
<clipPath id="clip0_133_2287">
<rect width="45" height="45" fill="white"/>
</clipPath>
</defs>
</svg>
