<svg width="119" height="107" viewBox="0 0 119 107" fill="none" xmlns="http://www.w3.org/2000/svg">
<path d="M114.732 3.33809C114.127 4.89727 113.406 6.40992 112.638 7.87602C109.566 7.17787 108.449 11.6227 111.358 12.5536C113.685 13.3215 115.617 10.529 113.918 8.6207C114.477 7.59676 115.151 6.24702 115.826 4.5482C116.897 4.0595 117.804 3.68716 118.875 3.01229C117.711 2.52359 116.757 2.31415 115.617 1.98835C114.663 0.429163 113.755 -0.804223 113.057 -1.71181C114.407 -3.87605 112.056 -6.29628 109.892 -5.15598C107.193 -3.73642 109.031 0.429163 111.94 -0.75768C112.941 0.54552 113.871 1.91853 114.732 3.33809Z" fill="white"/>
<path d="M101.514 59.678C100.095 60.5856 98.652 61.4001 97.1626 62.0982C95.0914 59.7245 91.5774 62.6567 93.3693 65.1235C94.8122 67.1016 98.0004 65.9845 97.7444 63.448C98.7916 62.9593 100.141 62.2379 101.701 61.2605C102.864 61.4932 103.795 61.7259 105.075 61.7957C104.423 60.7252 103.772 59.9805 103.027 59.0729C103.167 57.2578 103.167 55.7218 103.12 54.5583C105.494 53.6041 105.005 50.2531 102.585 49.904C99.5596 49.4618 98.6054 53.93 101.654 54.6746C101.724 56.3502 101.677 58.0025 101.514 59.678Z" fill="white"/>
<path d="M57.7176 97.4941C56.042 97.401 54.3899 97.1916 52.7609 96.8891C52.4583 93.7474 47.9204 94.0499 47.9204 97.0985C47.9204 99.542 51.1551 100.519 52.4583 98.3086C53.5986 98.5181 55.1112 98.7508 56.9264 98.8671C57.7176 99.7282 58.3692 100.473 59.3233 101.287C59.4164 100.031 59.3467 99.0533 59.2768 97.8897C60.4637 96.4934 61.3712 95.2601 61.9996 94.3059C64.4896 94.911 66.0488 91.9322 64.3034 90.2102C62.1159 88.0692 58.7183 91.1177 60.743 93.5147C59.8354 94.8877 58.8113 96.2142 57.7176 97.4941Z" fill="white"/>
<path d="M0.051013 102.334C-1.25219 101.264 -2.46232 100.123 -3.60262 98.9365C-1.99689 96.237 -5.85992 93.7935 -7.65182 96.2603C-9.09465 98.2383 -7.04679 100.938 -4.69638 99.9139C-3.90515 100.752 -2.81138 101.822 -1.4151 102.986C-1.27547 104.149 -1.20563 105.127 -0.87983 106.36C-0.0653296 105.406 0.446585 104.568 1.09818 103.567C2.89008 103.149 4.33295 102.66 5.42671 102.264C7.07898 104.219 10.1042 102.73 9.68535 100.309C9.17338 97.3075 4.6355 97.7496 4.86822 100.891C3.28576 101.473 1.70328 101.938 0.051013 102.334Z" fill="white"/>
<path d="M111.312 3.64015C110.846 4.59428 110.311 5.54841 109.706 6.50254C109.404 6.96797 110.009 9.10894 112.708 3.5238C109.101 -1.5261 108.868 0.684677 109.241 1.08029C109.985 1.91806 110.683 2.75584 111.312 3.64015Z" fill="white"/>
<path d="M98.5822 57.8859C97.6281 58.3979 96.6508 58.8401 95.6035 59.2589C95.0916 59.4684 94.3003 61.5395 99.7924 58.6306C99.8389 52.4171 98.3496 54.0694 98.4194 54.6279C98.5125 55.7449 98.5822 56.8154 98.5822 57.8859Z" fill="white"/>
<path d="M56.3911 94.3058C55.3207 94.1429 54.2734 93.9335 53.1797 93.6543C52.6444 93.5146 50.7827 94.748 56.9496 95.609C60.6498 90.6057 58.4622 91.0711 58.1829 91.5598C57.6012 92.5372 57.0195 93.4448 56.3911 94.3058Z" fill="white"/>
<path d="M0.842242 98.96C0.0742846 98.2153 -0.670381 97.4008 -1.3918 96.5398C-1.74087 96.1209 -3.97498 96.0278 0.516408 100.333C6.45062 98.4713 4.40279 97.5637 3.91409 97.7964C2.89014 98.2386 1.86618 98.6342 0.842242 98.96Z" fill="white"/>
<path d="M107.402 31.3335C108.147 30.5888 108.473 29.1925 107.798 26.4465C107.542 25.4225 110.451 25.9345 110.614 23.1652C110.776 20.1632 106.844 19.6978 106.844 19.6978C106.844 19.6978 107.449 25.5854 103.493 30.4026C104.889 36.4764 101.747 41.4798 101.747 41.4798C101.747 41.4798 105.471 42.8063 106.657 40.0603C107.751 37.5004 104.935 36.6626 105.61 35.8714C107.402 33.7304 107.728 32.3574 107.402 31.3335Z" fill="white"/>
<path d="M79.1273 78.0156C80.1745 77.8527 81.245 76.8986 82.3155 74.2922C82.7111 73.3148 84.7822 75.4325 86.5276 73.2683C88.4126 70.9411 85.5037 68.2649 85.5037 68.2649C85.5037 68.2649 82.5249 73.3846 76.4976 74.9438C74.0774 80.6918 68.5621 82.8794 68.5621 82.8794C68.5621 82.8794 70.7962 86.1374 73.3793 84.6247C75.7763 83.2052 73.9844 80.8547 74.9851 80.622C77.7311 79.9472 78.8015 79.0163 79.1273 78.0156Z" fill="white"/>
<path d="M28.8377 99.1459C29.7919 99.6113 31.2114 99.495 33.6084 98.0289C34.4927 97.4704 34.9116 100.403 37.611 99.6811C40.4967 98.9132 39.7288 95.0269 39.7288 95.0269C39.7288 95.0269 34.3065 97.4238 28.5119 95.1432C23.1827 98.3547 17.4348 96.9119 17.4348 96.9119C17.4348 96.9119 17.3184 100.868 20.2971 101.147C23.0664 101.403 22.9966 98.471 23.974 98.8434C26.5571 99.8906 27.9767 99.7742 28.8377 99.1459Z" fill="white"/>
<path d="M17.7605 -32.7564C11.4539 -30.5689 0.586227 -32.7564 -0.949688 -44.5783C2.91337 -46.1142 -1.13591 -51.4201 -3.62596 -48.4646C-7.48901 -48.7439 -6.53485 -42.1348 -2.71834 -43.8336C4.65871 -34.4785 -1.39186 -25.17 -7.37262 -22.2145C-11.1891 -16.7224 -21.2656 -12.1147 -29.4572 -20.7717C-27.2231 -24.2856 -33.6228 -26.1939 -33.902 -22.3541C-37.1833 -20.3062 -32.529 -15.5356 -30.4346 -19.1427C-18.9618 -15.9079 -18.38 -4.83073 -21.4751 1.08021C-21.3355 7.75911 -26.781 17.4168 -38.4865 15.206C-38.7425 11.0404 -45.0491 13.2744 -43.0245 16.5557C-44.4906 20.1395 -37.9047 21.2798 -38.3469 17.1375C-27.1766 13.0185 -20.1952 21.6289 -19.2178 28.238C-15.1685 33.5671 -13.9119 44.5745 -24.6866 49.671C-27.3395 46.4595 -31.1328 51.9516 -27.549 53.4176C-26.6181 57.1644 -20.6373 54.2322 -23.4299 51.1138C-16.7975 41.2002 -6.0927 44.0858 -1.41514 48.8565C4.9845 50.788 12.4779 58.9563 6.77637 69.4051C2.75042 68.3579 2.91335 75.0368 6.66004 74.1292C9.61552 76.6193 12.7338 70.7083 8.66135 69.8473C8.19592 57.9323 18.5517 53.9529 25.1376 55.0699C31.4441 52.8824 42.3119 55.0699 43.8478 66.8918C39.9847 68.4277 44.0339 73.7336 46.5239 70.7781C50.387 71.0574 49.433 64.4483 45.6165 66.1471C38.2394 56.792 44.29 47.4834 50.2707 44.5047C54.0872 39.0126 64.1638 34.4049 72.3553 43.0619C70.1212 46.5759 76.5208 48.4841 76.8001 44.6443C80.0813 42.5965 75.4271 37.8258 73.356 41.4329C61.8831 38.1981 61.3014 27.1209 64.3965 21.21C64.2569 14.5311 69.7024 4.87346 81.4079 7.08424C81.6639 11.2498 87.9703 9.01577 85.9457 5.7345C87.4118 2.1507 80.8261 1.0104 81.2683 5.15271C70.098 9.27176 63.1165 0.661331 62.1391 -5.94775C58.0899 -11.2769 56.8332 -22.2843 67.6078 -27.3807C70.2608 -24.1693 74.0541 -29.6613 70.4703 -31.1274C69.5395 -34.8741 63.5587 -31.9419 66.3512 -28.8236C59.7421 -18.9099 49.014 -21.7956 44.3364 -26.5662C37.9368 -28.4978 30.4435 -36.666 36.145 -47.1149C40.1709 -46.0677 40.008 -52.7466 36.2613 -51.839C33.3058 -54.329 30.1874 -48.4181 34.2599 -47.5571C34.7021 -35.6188 24.3463 -31.6394 17.7605 -32.7564ZM-8.39657 -59.8444C-5.09203 -58.4946 -3.02085 -54.3989 1.6567 -57.0053C-6.72101 -63.7307 -12.3993 -60.5891 -6.06943 -63.1489C5.44993 -68.7806 2.40137 -56.4933 10.8024 -59.2626C10.8024 -59.2626 6.52043 -64.2659 2.23849 -65.6622C7.38147 -66.244 12.0125 -64.5685 15.317 -61.7759C18.1096 -65.1037 22.4148 -67.5239 27.581 -67.7799C23.5783 -65.7088 20.204 -60.0538 20.204 -60.0538C28.9308 -58.7041 23.8809 -70.3165 36.1915 -66.6862C42.8704 -65.2201 36.75 -67.361 29.6056 -59.3324C34.6323 -57.5405 36.0053 -61.9388 39.0539 -63.8005C40.9389 -60.7752 40.1941 -56.2373 45.5233 -55.5857C42.6842 -65.9415 36.2612 -66.756 42.8936 -65.1037C55.53 -62.8929 45.8258 -54.7247 54.2734 -52.0484C54.2734 -52.0484 53.7614 -58.611 51.1085 -62.2413C55.6231 -59.7048 58.3692 -55.6323 59.4164 -51.3969C63.6285 -52.4441 68.5154 -51.8856 72.8672 -49.0697C68.4224 -49.7446 62.3718 -47.1615 62.3718 -47.1615C68.655 -40.9247 71.3779 -53.3051 79.1971 -43.1355C83.735 -38.0158 80.0348 -43.3449 69.5394 -41.0643C72.5647 -36.6428 76.2417 -39.4121 79.8022 -39.1328C79.5462 -35.5723 76.2882 -32.3376 80.1978 -28.6839C83.991 -38.7372 79.2669 -43.182 83.6652 -37.9227C92.5781 -28.7072 79.9417 -27.7996 85.201 -20.6786C85.201 -20.6786 88.6453 -26.287 88.622 -30.8016C90.763 -26.1008 90.6001 -21.1673 88.9711 -17.1646C92.9971 -15.5356 96.6273 -12.2078 98.4891 -7.36731C95.2776 -10.5322 88.8547 -11.9983 88.8547 -11.9983C90.2742 -3.27155 99.7457 -11.6725 100.095 1.15003C100.77 7.96856 100.909 1.47583 91.0655 -2.82938C90.9258 2.52305 95.5104 2.45323 98.2331 4.7571C95.9292 7.47986 91.3913 8.20127 92.4153 13.4373C101.398 7.54967 100.165 1.1733 100.653 7.99183C102.445 20.698 91.6938 13.9959 91.7636 22.839C91.7636 22.839 97.8374 20.3257 100.49 16.6721C99.4664 21.7452 96.4412 25.6316 92.7411 27.9122C95.0217 31.5891 96.0223 36.4295 94.6725 41.4329C93.9278 36.988 89.5994 32.0312 89.5994 32.0312C85.6199 39.9202 98.2331 38.7101 90.9724 49.2753C87.505 55.1863 91.4379 50.02 86.0156 40.7347C82.7576 44.9701 86.5043 47.6231 87.3654 51.0905C83.8979 51.9516 79.8021 49.8571 77.5681 54.6976C88.2962 55.2096 91.0655 49.3219 87.4351 55.1397C81.4078 66.4729 76.6605 54.7209 71.5176 61.9117C71.5176 61.9117 77.9171 63.4476 82.1991 62.0513C78.3826 65.5421 73.6585 66.9151 69.33 66.5893C69.0042 70.9178 66.9795 75.4091 62.9536 78.6671C64.9549 74.6412 64.3732 68.0787 64.3732 68.0787C56.5075 72.1279 67.4218 78.5508 55.3439 82.8327C49.0606 85.5788 55.2741 83.6938 56.3445 73.0122C51.2248 74.5248 52.6909 78.8766 51.3411 82.1811C48.0366 80.8314 45.9655 76.7356 41.2879 79.342C49.6656 86.0674 55.3438 82.9258 49.014 85.4857C37.4946 91.1174 40.5433 78.83 32.1423 81.5993C32.1423 81.5993 36.4242 86.6027 40.7061 87.999C35.5632 88.5808 30.9322 86.9052 27.6276 84.1127C24.835 87.4405 20.5298 89.8607 15.3635 90.1167C19.3662 88.0455 22.7406 82.3906 22.7406 82.3906C14.0138 81.0408 19.0637 92.6533 6.75315 89.0229C0.0742493 87.5568 6.1946 89.6978 13.3389 81.6692C8.3123 79.8773 6.93929 84.2755 3.89074 86.1373C2.00575 83.112 2.72717 78.5508 -2.57872 77.9225C0.260399 88.2782 6.68333 89.0927 0.0509682 87.4405C-12.5854 85.2297 -2.88127 77.0614 -11.3288 74.3852C-11.3288 74.3852 -10.8168 80.9477 -8.16384 84.5781C-12.6785 82.0415 -15.4245 77.969 -16.4718 73.7336C-20.6839 74.7808 -25.5709 74.2223 -29.9226 71.4065C-25.4778 72.0813 -19.4272 69.4982 -19.4272 69.4982C-25.7105 63.2615 -28.4333 75.6419 -36.2525 65.4722C-40.7904 60.3525 -37.0903 65.6817 -26.5948 63.4011C-29.6201 58.9795 -33.297 61.7488 -36.8576 61.4696C-36.6016 57.909 -33.3435 54.6743 -37.2531 51.0207C-41.0464 61.074 -36.3223 65.5188 -40.7206 60.2595C-49.6336 51.044 -36.9971 50.1364 -42.2565 43.0153C-42.2565 43.0153 -45.7006 48.6237 -45.6774 53.1384C-47.8183 48.4376 -47.6788 43.504 -46.0265 39.5013C-50.0525 37.8723 -53.6828 34.5445 -55.5445 29.7041C-52.333 32.869 -45.9101 34.3351 -45.9101 34.3351C-47.3297 25.6083 -56.8012 34.0093 -57.1502 21.1867C-57.8251 14.3682 -57.9647 20.8609 -48.1209 25.1661C-47.9813 19.8137 -52.5657 19.8835 -55.2885 17.5797C-52.9846 14.8569 -48.4467 14.1355 -49.4706 8.89941C-58.4534 14.7871 -57.22 21.1635 -57.7087 14.3449C-59.5006 1.63873 -48.7492 8.3409 -48.819 -0.502243C-48.819 -0.502243 -54.8929 2.01107 -57.5458 5.66469C-56.5219 0.591515 -53.4966 -3.29481 -49.7965 -5.57541C-52.0771 -9.2523 -53.0777 -14.0928 -51.728 -19.0961C-50.9833 -14.6513 -46.6548 -9.69445 -46.6548 -9.69445C-42.6754 -17.5835 -55.2885 -16.3734 -48.0278 -26.9386C-44.5604 -32.8495 -48.4932 -27.6833 -43.071 -18.398C-39.813 -22.6334 -43.5597 -25.2863 -44.4208 -28.7538C-40.9533 -29.6148 -36.8575 -27.5204 -34.6234 -32.3608C-45.3516 -32.8728 -48.1209 -26.9851 -44.4906 -32.803C-38.4633 -44.1362 -33.7159 -32.3841 -28.5729 -39.575C-28.5729 -39.575 -34.9726 -41.1109 -39.2545 -39.7146C-35.438 -43.2053 -30.7139 -44.5783 -26.3854 -44.2525C-26.0829 -48.581 -24.0349 -53.0724 -20.009 -56.3304C-22.0103 -52.3044 -21.4286 -45.7419 -21.4286 -45.7419C-13.5628 -49.7911 -24.4771 -56.214 -12.3993 -60.496C-6.11597 -63.242 -12.3294 -61.357 -13.3999 -50.6754C-8.2802 -52.1881 -9.76958 -56.5398 -8.39657 -59.8444ZM16.8762 -43.4148C10.4532 -37.7598 3.47186 -45.8815 8.33559 -50.6056C12.4314 -52.4673 12.7804 -49.2326 12.4081 -48.325C11.7798 -46.9055 13.8974 -45.835 14.3629 -48.2087C14.8516 -47.9992 15.4101 -47.8829 15.6196 -48.3483C18.1794 -54.0963 7.684 -57.3543 8.12615 -52.607C7.93999 -52.5139 3.79763 -56.7493 2.12209 -48.7439C1.33086 -45.0205 3.65804 -34.9905 10.0111 -39.8775C11.0118 -39.5517 10.8023 -35.7119 13.9207 -36.5031C15.1076 -36.8057 16.2479 -37.3642 17.2951 -38.0391C18.4354 -37.5271 19.6687 -37.178 20.8788 -37.0849C24.0903 -36.8289 23.2525 -40.5756 24.1601 -41.0643C31.2346 -37.2944 31.863 -47.5803 30.4667 -51.1176C27.4647 -58.7273 24.1136 -53.8636 23.9042 -53.9334C23.5551 -58.6808 13.7578 -53.724 17.2253 -48.4879C17.5045 -48.069 18.0398 -48.2552 18.5052 -48.5577C19.3662 -46.3004 21.2745 -47.6967 20.4135 -48.9999C19.8782 -49.8144 19.692 -53.0957 24.0438 -51.9321C29.6755 -48.069 24.1601 -38.9001 16.8762 -43.4148ZM-14.354 -30.2897C-16.239 -21.9352 -26.6414 -24.402 -25.4778 -31.1042C-23.267 -35.0138 -21.0562 -32.6168 -20.8468 -31.6394C-20.521 -30.1268 -18.1706 -30.4991 -19.1945 -32.6866C-18.6593 -32.803 -18.1473 -33.059 -18.2636 -33.5477C-19.5668 -39.6913 -29.9925 -36.1541 -26.8276 -32.5935C-26.9439 -32.4074 -32.7618 -33.408 -29.4107 -25.9379C-27.8515 -22.4705 -20.0788 -15.7218 -17.8215 -23.4013C-16.8208 -23.7271 -14.7264 -20.4924 -12.6785 -22.9592C-11.8873 -23.89 -11.3055 -25.0071 -10.8633 -26.1939C-9.62995 -26.4499 -8.44313 -26.892 -7.39592 -27.5204C-4.64989 -29.1959 -7.53551 -31.7558 -7.07008 -32.6866C0.865475 -33.8037 -4.67314 -42.4839 -7.8846 -44.5318C-14.7729 -48.9301 -14.6333 -43.0191 -14.8427 -42.9493C-17.9146 -46.6029 -22.9412 -36.8057 -17.0303 -34.6182C-16.5415 -34.432 -16.2391 -34.9207 -16.0529 -35.4327C-14.0283 -34.1062 -13.3068 -36.3635 -14.7729 -36.922C-15.6805 -37.2711 -17.7517 -39.8077 -13.5628 -41.4367C-6.72103 -41.5996 -5.81344 -30.918 -14.354 -30.2897ZM-31.8774 -1.34001C-28.4798 6.52573 -38.3702 10.6448 -41.3489 4.54766C-41.8609 0.0795441 -38.6494 0.73114 -37.928 1.38274C-36.7644 2.42995 -35.0889 0.75441 -37.2066 -0.455704C-36.8575 -0.874588 -36.5782 -1.36328 -36.9506 -1.71236C-41.6281 -5.92448 -47.958 3.05829 -43.327 4.08223C-43.3037 4.29167 -48.6096 6.92135 -41.5118 10.9938C-38.2073 12.8788 -27.9678 13.7864 -30.644 6.22321C-30.039 5.38544 -26.4319 6.75845 -26.2225 3.54699C-26.1294 2.33688 -26.3156 1.08022 -26.6414 -0.129898C-25.8036 -1.06075 -25.0822 -2.10797 -24.6168 -3.24827C-23.3834 -6.20374 -27.2232 -6.57609 -27.3861 -7.60003C-21.6147 -13.1852 -31.2026 -16.9319 -34.9958 -16.6992C-43.1641 -16.2105 -39.5803 -11.5096 -39.6967 -11.3235C-44.3277 -12.4638 -42.6288 -1.61927 -36.5782 -3.29482C-36.0895 -3.43444 -36.1128 -3.99296 -36.2525 -4.52821C-33.8322 -4.66783 -34.5769 -6.90189 -36.0896 -6.483C-37.0437 -6.22702 -40.2086 -7.06479 -37.7651 -10.8348C-32.3661 -14.9538 -25.3382 -6.87861 -31.8774 -1.34001ZM-29.0616 32.4036C-21.6846 36.7786 -27.2464 45.9243 -33.2737 42.7361C-36.3223 39.4315 -33.3435 38.0818 -32.3661 38.1516C-30.8069 38.3145 -30.4579 35.9641 -32.8549 36.2433C-32.8083 35.7081 -32.8781 35.1263 -33.3901 35.0798C-39.6501 34.4282 -39.4872 45.4123 -35.1354 43.5273C-34.9958 43.6902 -37.7418 48.9263 -29.5968 48.042C-25.8268 47.6463 -16.9837 42.3172 -23.6161 37.8025C-23.6161 36.7553 -19.8926 35.7546 -21.6147 33.0319C-22.2663 31.9847 -23.1507 31.0771 -24.1281 30.3091C-24.0117 29.0525 -24.035 27.7958 -24.3142 26.609C-25.0589 23.4906 -28.3867 25.4454 -29.1314 24.7007C-27.7351 16.8117 -37.6953 19.3948 -40.6507 21.8151C-46.9806 27.0046 -41.3024 28.7034 -41.2791 28.9361C-45.7007 30.728 -37.9513 38.5239 -34.0417 33.5904C-33.7159 33.1948 -34.0882 32.7526 -34.5071 32.4036C-32.6221 30.8676 -34.5537 29.4946 -35.5311 30.728C-36.1594 31.496 -39.2079 32.6595 -39.4406 28.1682C-37.4393 21.6522 -27.0137 24.0724 -29.0616 32.4036ZM-6.93046 58.0254C1.61015 57.2342 2.47118 67.8925 -4.25426 68.8699C-8.65256 67.9856 -7.04682 65.1232 -6.20905 64.6345C-4.85931 63.8432 -5.92978 61.7488 -7.72168 63.3778C-8.00094 62.9124 -8.39658 62.4935 -8.83873 62.7495C-14.2842 65.8911 -7.69844 74.711 -5.27821 70.592C-5.06877 70.6385 -4.20773 76.5029 1.84284 71.0108C4.65868 68.451 8.68469 58.9795 0.656048 59.2122C0.0509911 58.3745 2.4712 55.3725 -0.530819 54.1856C-1.67112 53.7202 -2.9045 53.5107 -4.16116 53.4409C-4.78948 52.3472 -5.55744 51.3465 -6.4883 50.5553C-8.9318 48.4608 -10.4677 51.9981 -11.4916 51.8352C-15.0056 44.6211 -21.5449 52.5799 -22.4991 56.2568C-24.5469 64.1691 -18.9618 62.2142 -18.8222 62.3772C-21.3355 66.4264 -10.491 68.1717 -10.2117 61.8884C-10.1885 61.3765 -10.747 61.2368 -11.2822 61.1903C-10.6539 58.8632 -13.0276 58.8632 -13.0974 60.4224C-13.1439 61.3997 -14.9358 64.1458 -17.7517 60.6551C-20.0323 54.2787 -10.1885 50.1131 -6.93046 58.0254ZM26.0219 65.7748C32.4448 60.1198 39.4262 68.2415 34.5625 72.9657C30.4667 74.8274 30.1176 71.5926 30.49 70.685C31.1183 69.2655 29.0006 68.195 28.5352 70.5687C28.0465 70.3593 27.4879 70.2429 27.2785 70.7083C24.7186 76.4564 35.214 79.7144 34.7719 74.967C34.9581 74.8739 39.1004 79.1093 40.776 71.1039C41.5672 67.3805 39.24 57.3505 32.8869 62.2375C31.8862 61.9117 32.0957 58.0719 28.9773 58.8632C27.7905 59.1657 26.6502 59.7242 25.6029 60.3991C24.4626 59.8871 23.2293 59.538 22.0192 59.4449C18.8077 59.1889 19.6455 62.9357 18.7379 63.4244C11.6634 59.6544 11.0351 69.9404 12.4314 73.4776C15.4334 81.0874 18.7844 76.2236 18.9939 76.2935C19.3429 81.0408 29.1403 76.084 25.6728 70.8479C25.3936 70.4291 24.8583 70.6152 24.3929 70.9178C23.5318 68.6604 21.6235 70.0567 22.4846 71.3599C23.0198 72.1977 23.206 75.4557 18.8542 74.2921C13.2226 70.4291 18.7379 61.2601 26.0219 65.7748ZM57.2289 52.6497C59.1139 44.2952 69.5161 46.762 68.3525 53.4642C66.1418 57.3738 63.931 54.9768 63.7215 53.9994C63.3957 52.4868 61.0454 52.8591 62.0694 55.0466C61.5341 55.163 61.0221 55.419 61.1385 55.9077C62.4417 62.0513 72.8672 58.5141 69.7023 54.9536C69.8187 54.7674 75.6365 55.7681 72.2854 48.2979C70.7262 44.8305 62.9536 38.0818 60.6963 45.7614C59.6956 46.0872 57.6011 42.8524 55.5533 45.3192C54.762 46.25 54.1803 47.3671 53.7382 48.5539C52.5048 48.8099 51.318 49.2521 50.2707 49.8804C47.5247 51.5559 50.4103 54.1158 49.9449 55.0466C42.0093 56.1637 47.5479 64.8439 50.7593 66.8918C57.6477 71.2901 57.508 65.3792 57.7175 65.3094C60.7893 68.963 65.7927 59.1657 59.905 56.9782C59.4163 56.792 59.1138 57.2807 58.9276 57.7927C56.903 56.4662 56.1816 58.7235 57.6477 59.282C58.5553 59.6311 60.6264 62.1677 56.4376 63.7967C49.619 63.9363 48.6883 53.278 57.2289 52.6497ZM74.7755 23.7001C71.3779 15.8343 81.2682 11.7153 84.247 17.8124C84.7589 22.2805 81.5475 21.6289 80.8261 20.9773C79.6626 19.9301 77.987 21.6056 80.1047 22.8157C79.7556 23.2346 79.4763 23.7233 79.8486 24.0724C84.5262 28.2845 90.856 19.3018 86.225 18.2778C86.2017 18.0684 91.5077 15.4387 84.4099 11.3662C81.1053 9.4812 70.866 8.57362 73.5422 16.1368C72.9371 16.9746 69.33 15.6016 69.1205 18.813C69.0275 20.0232 69.2136 21.2798 69.5394 22.4899C68.7016 23.4208 67.9802 24.468 67.5148 25.6083C66.2814 28.5638 70.1212 28.9361 70.2841 29.9601C64.5128 35.5452 74.1007 39.2919 77.8939 39.0592C86.0622 38.5705 82.4783 33.8696 82.5946 33.6835C87.2256 34.8238 85.5269 23.9793 79.4763 25.6548C78.9876 25.7945 79.0109 26.353 79.1505 26.8882C76.7303 27.0279 77.475 29.2619 78.9876 28.843C79.9417 28.587 83.1067 29.4248 80.6632 33.1948C75.241 37.3138 68.2362 29.2154 74.7755 23.7001ZM71.9364 -10.0435C64.5594 -14.4186 70.1212 -23.5642 76.1485 -20.376C79.1971 -17.0715 76.2183 -15.7218 75.2409 -15.7916C73.6817 -15.9545 73.3327 -13.604 75.7297 -13.8833C75.6831 -13.3481 75.7529 -12.7663 76.2649 -12.7197C82.5249 -12.0681 82.362 -23.0523 78.0102 -21.1673C77.8706 -21.3302 80.6166 -26.5662 72.4716 -25.6819C68.7017 -25.2863 59.8585 -19.9572 66.4909 -15.4425C66.4909 -14.3953 62.7675 -13.3946 64.4895 -10.6719C65.1411 -9.62465 66.0255 -8.71705 67.0029 -7.9491C66.8865 -6.69244 66.9097 -5.43578 67.189 -4.24894C67.9337 -1.13057 71.2615 -3.08537 72.0062 -2.34068C70.6099 5.54833 80.5701 2.96519 83.5256 0.544968C89.8554 -4.64456 84.1772 -6.34337 84.1539 -6.57608C88.5755 -8.36798 80.826 -16.1639 76.9164 -11.2304C76.5906 -10.8348 76.963 -10.3926 77.3819 -10.0435C75.4969 -8.50761 77.4284 -7.1346 78.4058 -8.36798C79.0341 -9.13594 82.0827 -10.2995 82.3154 -5.80813C80.3373 0.684601 69.9118 -1.73563 71.9364 -10.0435ZM49.8286 -35.6886C41.288 -34.8974 40.4269 -45.5557 47.1523 -46.5331C51.5506 -45.6488 49.9449 -42.7864 49.1072 -42.2977C47.7574 -41.5065 48.8511 -39.4121 50.6197 -41.0411C50.899 -40.5756 51.2947 -40.1567 51.7368 -40.4127C57.1824 -43.5544 50.5965 -52.3742 48.1763 -48.2552C47.9668 -48.3017 47.1058 -54.1661 41.0552 -48.6741C38.2394 -46.1142 34.2134 -36.6428 42.2421 -36.8755C42.8471 -36.0377 40.4269 -33.0357 43.4289 -31.8489C44.5692 -31.3834 45.8026 -31.174 47.0593 -31.1042C47.6876 -30.0104 48.4556 -29.0097 49.3864 -28.2185C51.8299 -26.1241 53.3657 -29.6613 54.3897 -29.4984C57.9037 -22.2843 64.443 -30.2431 65.3972 -33.92C67.4451 -41.8323 61.8599 -39.8775 61.7202 -40.0404C64.2336 -44.0896 53.389 -45.835 53.1098 -39.5517C53.0865 -39.0397 53.6451 -38.9001 54.1803 -38.8536C53.552 -36.5031 55.9256 -36.5264 55.9954 -38.0856C56.042 -39.063 57.8339 -41.809 60.6497 -38.3183C62.9303 -31.9187 53.0633 -27.7531 49.8286 -35.6886ZM14.7817 -68.1755C12.0124 -69.3391 8.47518 -69.8045 6.33421 -67.268C6.19458 -67.268 6.03172 -67.2912 5.86882 -67.3145C4.40273 -72.4808 -1.3919 -69.4322 -9.95579 -63.5213C-20.1487 -61.5432 -26.3854 -59.5186 -23.7324 -54.8643C-23.8488 -54.7479 -23.9419 -54.6083 -24.035 -54.4919C-27.3395 -54.7479 -29.4805 -51.9088 -30.5975 -49.093C-33.5297 -48.3948 -36.6481 -46.696 -36.8808 -43.3915C-36.9971 -43.3217 -37.1368 -43.2286 -37.2764 -43.1355C-41.4885 -46.44 -44.3975 -40.5756 -47.8417 -30.7784C-54.9395 -23.1919 -58.7792 -17.886 -53.8922 -15.6752C-53.8922 -15.5123 -53.9155 -15.3494 -53.9155 -15.2098C-56.7313 -13.4644 -56.8012 -9.9039 -56.0565 -6.99497C-58.0345 -4.71437 -59.5472 -1.50291 -57.8018 1.31293C-57.8484 1.45256 -57.9182 1.59219 -57.988 1.75508C-63.3404 1.54564 -62.2466 8.01511 -59.2679 17.9753C-60.5478 28.2845 -60.5478 34.8471 -55.2885 33.7533C-55.1954 33.8929 -55.1023 34.0326 -55.0325 34.1489C-56.2892 37.2207 -54.2413 40.1297 -51.9374 42.0612C-52.1934 45.0632 -51.5418 48.5539 -48.47 49.8106C-48.4467 49.9502 -48.4002 50.1131 -48.3536 50.276C-52.7985 53.2548 -48.1209 57.8392 -39.8595 64.1458C-34.8329 73.2449 -30.9698 78.5508 -27.3628 74.5714C-27.1999 74.6412 -27.0602 74.6877 -26.9206 74.7343C-26.1526 77.9457 -22.7783 79.1093 -19.7763 79.2955C-18.2171 81.8786 -15.634 84.3221 -12.4226 83.5076C-12.3062 83.6007 -12.1898 83.717 -12.0734 83.8101C-13.9351 88.8367 -7.44243 89.7909 2.95989 90.0469C12.3848 94.4452 18.6215 96.4698 19.2033 91.1406C19.3662 91.0941 19.5291 91.0475 19.6688 91.0243C22.1821 93.1653 25.603 92.1413 28.1396 90.5123C30.9089 91.6759 34.4461 92.1413 36.5871 89.6047C36.7267 89.6047 36.8896 89.628 37.0525 89.6512C38.5186 94.8175 44.3132 91.769 52.8771 85.858C63.07 83.8799 69.3067 81.8553 66.6538 77.201C66.7701 77.0847 66.8632 76.9451 66.9563 76.8287C70.2608 77.0847 72.4018 74.2456 73.5189 71.4297C76.4511 70.7549 79.5695 69.0328 79.8022 65.7282C79.9185 65.6584 80.0581 65.5653 80.1978 65.4722C84.4099 68.7768 87.3188 62.9124 90.7629 53.1151C97.8607 45.5286 101.701 40.2227 96.8136 38.012C96.8136 37.8491 96.8367 37.6862 96.8367 37.5465C99.6526 35.8012 99.7225 32.2407 98.9778 29.3317C100.956 27.0511 102.469 23.8397 100.723 21.0238C100.77 20.8842 100.839 20.7446 100.909 20.5817C106.262 20.7911 105.168 14.3217 102.189 4.36148C103.469 -5.94775 103.469 -12.5103 98.2098 -11.4165C98.1167 -11.5562 98.0237 -11.6958 97.9539 -11.8122C99.2105 -14.884 97.1626 -17.7929 94.8587 -19.7244C95.1147 -22.7265 94.4631 -26.2172 91.3913 -27.4738C91.368 -27.6134 91.3215 -27.7764 91.275 -27.9393C95.7198 -30.918 91.0422 -35.5025 82.7809 -41.809C77.7542 -50.9081 73.8912 -56.214 70.2841 -52.2346C70.1212 -52.3044 69.9816 -52.351 69.8419 -52.3975C69.074 -55.609 65.6996 -56.7725 62.6976 -56.9587C61.1384 -59.5418 58.5554 -61.9853 55.3439 -61.1708C55.2275 -61.2639 55.1111 -61.3803 54.9948 -61.4734C56.8565 -66.5 50.3638 -67.4541 39.9614 -67.7101C30.5365 -72.1084 24.2998 -74.133 23.718 -68.8039C23.5551 -68.7573 23.3922 -68.7108 23.2526 -68.6875C20.7393 -70.8285 17.3183 -69.7813 14.7817 -68.1755ZM2.02905 -35.0138C5.8223 -31.0809 11.5936 -29.4286 17.8769 -31.1973C24.3696 -30.4991 29.7918 -33.0822 32.8869 -37.5969C33.6549 -32.1979 37.3317 -27.4506 43.4754 -25.1932C48.3158 -20.7949 54.2268 -19.7244 59.3698 -21.5629C56.8099 -16.7457 57.0194 -10.7417 60.6497 -5.29616C61.9994 1.10349 66.1419 5.45525 71.3779 6.99116C66.4677 9.38811 63.1165 14.3682 62.8605 20.8842C60.1843 26.865 60.9755 32.7992 64.3033 37.1277C58.9276 36.1968 53.296 38.2214 49.2468 43.3644C43.5686 46.6224 40.7294 51.905 40.8691 57.3505C37.0758 53.4177 31.3044 51.7654 25.0212 53.534C18.5284 52.8359 13.1062 55.419 10.0111 59.9337C9.24318 54.5347 5.56625 49.7873 -0.577408 47.53C-5.41786 43.1317 -11.3288 42.0612 -16.4718 43.8997C-13.9119 39.0825 -14.1213 33.0784 -17.7517 27.6329C-19.1014 21.2333 -23.2438 16.8815 -28.4798 15.3456C-23.5696 12.9486 -20.2185 7.96855 -19.9625 1.45255C-17.2863 -4.50494 -18.0775 -10.4624 -21.4053 -14.7909C-16.0296 -13.86 -10.3979 -15.8847 -6.34867 -21.0276C-0.670448 -24.2856 2.16868 -29.545 2.02905 -35.0138Z" fill="white"/>
<path d="M62.8839 7.68948C62.6046 8.38762 62.302 9.06249 61.953 9.69082C60.5799 9.38829 60.0912 11.3431 61.3712 11.762C62.3951 12.0878 63.2561 10.8777 62.5115 10.0166C62.7674 9.57446 63.0468 8.96941 63.3493 8.20145C63.8148 7.99201 64.2335 7.80584 64.699 7.52658C64.187 7.31714 63.7681 7.22405 63.2562 7.08442C62.8373 6.38628 62.4417 5.85104 62.1159 5.43216C62.7209 4.47803 61.6738 3.40754 60.6964 3.89624C59.4862 4.52457 60.3008 6.38629 61.604 5.85104C62.0694 6.4561 62.4883 7.06115 62.8839 7.68948Z" fill="white"/>
<path d="M57.0194 32.7294C56.3911 33.125 55.7396 33.4973 55.088 33.7999C54.1571 32.7527 52.5978 34.0559 53.4123 35.1496C54.0407 36.0339 55.4603 35.5452 55.3672 34.4049C55.8326 34.1722 56.4377 33.8697 57.1126 33.4275C57.6245 33.5206 58.0433 33.637 58.6018 33.6603C58.2993 33.1716 58.0202 32.8457 57.6944 32.4501C57.7642 31.6356 57.7641 30.9608 57.7408 30.4488C58.788 30.0299 58.5786 28.5405 57.5081 28.3776C56.1584 28.1682 55.7395 30.1695 57.0893 30.4953C57.0893 31.24 57.0659 31.9847 57.0194 32.7294Z" fill="white"/>
<path d="M37.5645 49.5082C36.8198 49.4617 36.0751 49.3686 35.3537 49.2522C35.2141 47.8559 33.1895 47.9956 33.1895 49.3453C33.1895 50.4391 34.6323 50.8579 35.1908 49.8805C35.7028 49.9736 36.3543 50.0667 37.1688 50.1365C37.5179 50.5089 37.7972 50.8579 38.2394 51.207C38.2859 50.6485 38.2394 50.2063 38.2161 49.6944C38.7513 49.066 39.1469 48.5308 39.4262 48.1119C40.5199 48.3912 41.2181 47.0647 40.4501 46.2967C39.4727 45.3426 37.9601 46.6924 38.8677 47.7628C38.4953 48.3679 38.0532 48.9497 37.5645 49.5082Z" fill="white"/>
<path d="M11.9427 51.6493C11.3609 51.1839 10.8257 50.6719 10.3137 50.1367C11.0351 48.9265 9.31298 47.8561 8.52175 48.9498C7.89342 49.8341 8.77773 51.021 9.82495 50.5788C10.174 50.9512 10.6627 51.4166 11.2911 51.9518C11.3609 52.4638 11.3842 52.906 11.5238 53.4412C11.8961 53.0223 12.1056 52.65 12.4081 52.2078C13.1993 52.0217 13.851 51.8122 14.3164 51.626C15.0378 52.4871 16.3875 51.8355 16.2014 50.765C15.9687 49.4385 13.9673 49.6247 14.0604 51.021C13.3855 51.277 12.6641 51.4864 11.9427 51.6493Z" fill="white"/>
<path d="M61.3479 7.82885C61.1384 8.24774 60.9057 8.66662 60.6265 9.10878C60.4868 9.31822 60.7661 10.2724 61.9763 7.78231C60.3705 5.52498 60.2775 6.52565 60.4404 6.71183C60.7662 7.0609 61.0686 7.43324 61.3479 7.82885Z" fill="white"/>
<path d="M55.6929 31.9151C55.274 32.1478 54.8318 32.334 54.3664 32.5201C54.1337 32.6132 53.7847 33.5441 56.2282 32.2409C56.2515 29.4716 55.5999 30.2163 55.6231 30.449C55.6697 30.961 55.6929 31.4497 55.6929 31.9151Z" fill="white"/>
<path d="M36.9594 48.0884C36.494 48.0186 36.0053 47.9255 35.5399 47.8092C35.3072 47.7394 34.4694 48.2979 37.2154 48.6702C38.8677 46.4594 37.8903 46.6456 37.7739 46.8783C37.5179 47.2972 37.2387 47.7161 36.9594 48.0884Z" fill="white"/>
<path d="M12.2918 50.1592C11.9427 49.8334 11.6169 49.4611 11.3143 49.0888C11.1514 48.9026 10.174 48.856 12.1521 50.7643C14.7817 49.9265 13.8742 49.5309 13.6648 49.624C13.1993 49.8567 12.7572 50.0196 12.2918 50.1592Z" fill="white"/>
<path d="M57.6012 -4.01614C57.671 -4.48157 57.415 -5.06336 56.4609 -5.87786C56.1118 -6.18039 57.2754 -6.76217 56.6005 -7.78611C55.8791 -8.90314 54.3433 -8.0421 54.3433 -8.0421C54.3433 -8.0421 56.0886 -6.0873 55.9257 -3.318C58.0201 -1.50283 58.183 1.12684 58.183 1.12684C58.183 1.12684 59.8586 0.638138 59.5793 -0.665062C59.3001 -1.87518 58.0667 -1.43302 58.1132 -1.89845C58.2063 -3.1551 57.9735 -3.73689 57.6012 -4.01614Z" fill="white"/>
<path d="M59.6258 20.1396C59.9516 19.8138 60.0912 19.1855 59.812 17.9754C59.6956 17.5332 60.9988 17.7427 61.0686 16.5093C61.1384 15.1828 59.3931 14.9734 59.3931 14.9734C59.3931 14.9734 59.6491 17.6031 57.9037 19.7208C58.532 22.4202 57.1357 24.6543 57.1357 24.6543C57.1357 24.6543 58.788 25.2361 59.3232 24.026C59.8119 22.8857 58.5554 22.5133 58.8579 22.1643C59.6259 21.1869 59.7654 20.5818 59.6258 20.1396Z" fill="white"/>
<path d="M47.0593 40.8512C47.5247 40.7814 47.9901 40.3625 48.4788 39.1989C48.665 38.78 49.5725 39.7109 50.3405 38.7568C51.1783 37.7328 49.8983 36.5227 49.8983 36.5227C49.8983 36.5227 48.5719 38.8033 45.8957 39.5014C44.8252 42.0613 42.3817 43.0387 42.3817 43.0387C42.3817 43.0387 43.3823 44.4815 44.5226 43.8067C45.5931 43.1783 44.7786 42.1311 45.2441 42.0148C46.4309 41.7122 46.9197 41.3166 47.0593 40.8512Z" fill="white"/>
<path d="M24.7187 50.2525C25.1376 50.462 25.7659 50.4154 26.8364 49.7405C27.232 49.5078 27.4181 50.7877 28.605 50.4852C29.8849 50.1361 29.5591 48.4141 29.5591 48.4141C29.5591 48.4141 27.1622 49.4846 24.5791 48.4606C22.2054 49.8802 19.6455 49.2518 19.6455 49.2518C19.6455 49.2518 19.599 50.9972 20.9254 51.1368C22.1588 51.2532 22.1122 49.95 22.5544 50.1129C23.718 50.5783 24.3463 50.5318 24.7187 50.2525Z" fill="white"/>
<path d="M1.12148 44.7139C1.33092 45.1328 1.88947 45.4586 3.12286 45.5517C3.58829 45.5982 2.98321 46.7385 4.12351 47.1807C5.3569 47.6694 6.1016 46.0636 6.1016 46.0636C6.1016 46.0636 3.51847 45.5051 2.0291 43.178C-0.740202 42.9453 -2.41575 40.9207 -2.41575 40.9207C-2.41575 40.9207 -3.48624 42.3169 -2.48556 43.2013C-1.55471 44.0158 -0.810076 42.9453 -0.577362 43.3409C0.120781 44.3881 0.656049 44.7139 1.12148 44.7139Z" fill="white"/>
<path d="M19.8084 -8.3447C17.0158 -7.3673 12.1754 -8.3447 11.5005 -13.604C13.2226 -14.2789 11.4074 -16.6526 10.3137 -15.3261C8.5916 -15.4425 9.03371 -12.5103 10.7093 -13.2782C13.9905 -9.11266 11.3144 -4.99361 8.63814 -3.66714C6.93932 -1.22364 2.47116 0.824245 -1.15918 -3.03881C-0.158513 -4.598 -3.02084 -5.45905 -3.1372 -3.73696C-4.6033 -2.82937 -2.53213 -0.711674 -1.60128 -2.3174C3.49517 -0.874573 3.75113 4.0357 2.37812 6.66537C2.44793 9.62084 0.0277042 13.9261 -5.1851 12.9487C-5.30145 11.1102 -8.09406 12.0876 -7.18647 13.5537C-7.83808 15.1362 -4.90584 15.6481 -5.11528 13.8097C-0.15847 11.9713 2.95989 15.811 3.37877 18.7432C5.17067 21.1169 5.72917 26.0039 0.958525 28.2613C-0.228318 26.8417 -1.90383 29.2852 -0.321376 29.9368C0.0975103 31.6123 2.75047 30.2859 1.51709 28.9129C4.44929 24.5146 9.21989 25.7945 11.291 27.9122C14.1302 28.7732 17.458 32.4036 14.9214 37.0346C13.1295 36.5691 13.1993 39.5479 14.8749 39.129C16.1781 40.246 17.5744 37.6164 15.7592 37.2207C15.5497 31.9381 20.1575 30.1695 23.0664 30.6582C25.859 29.6808 30.6994 30.6582 31.3743 35.9176C29.6522 36.5924 31.4674 38.9661 32.5612 37.6396C34.2832 37.756 33.8411 34.8238 32.1655 35.5917C28.8842 31.4262 31.5605 27.3071 34.2367 25.9806C35.9355 23.5371 40.4037 21.4893 44.034 25.3523C43.0334 26.9115 45.8957 27.7725 46.012 26.0505C47.4781 25.1429 45.4069 23.0252 44.4761 24.6309C39.3796 23.1881 39.1237 18.2778 40.4967 15.6481C40.4269 12.6927 42.8471 8.38745 48.0599 9.36485C48.1763 11.2033 50.9688 10.2259 50.0612 8.7598C50.7129 7.17735 47.7806 6.66537 47.9901 8.50381C43.0332 10.3423 39.9149 6.50248 39.496 3.57027C37.7041 1.19659 37.1456 -3.69041 41.9163 -5.94774C43.1031 -4.52818 44.7786 -6.97169 43.1962 -7.62329C42.7773 -9.29883 40.1244 -7.97236 41.3578 -6.59934C38.4256 -2.20105 33.6549 -3.48097 31.5837 -5.59867C28.7446 -6.45971 25.4168 -10.0901 27.9534 -14.7211C29.7453 -14.2556 29.6755 -17.2344 28 -16.8155C26.6968 -17.9325 25.3005 -15.3029 27.1157 -14.9072C27.3251 -9.60136 22.7406 -7.83273 19.8084 -8.3447ZM8.19597 -20.376C9.66208 -19.771 10.5929 -17.9558 12.664 -19.1194C8.94062 -22.0981 6.4273 -20.7251 9.24315 -21.8421C14.3629 -24.3554 13.0131 -18.8867 16.7365 -20.12C16.7365 -20.12 14.8284 -22.3541 12.9434 -22.9592C15.224 -23.2151 17.2719 -22.4705 18.7612 -21.2371C19.9946 -22.7032 21.9029 -23.7969 24.2067 -23.9133C22.4381 -22.9824 20.9254 -20.4924 20.9254 -20.4924C24.8118 -19.8873 22.5544 -25.0536 28.0232 -23.4479C31.0019 -22.7963 28.2792 -23.7504 25.0911 -20.1899C27.3251 -19.3986 27.9301 -21.3534 29.2799 -22.1679C30.1177 -20.8182 29.7919 -18.7936 32.1423 -18.5143C30.8856 -23.1221 28.0233 -23.4711 30.9787 -22.7497C36.5871 -21.7723 32.2819 -18.142 36.0286 -16.9551C36.0286 -16.9551 35.7959 -19.8641 34.6323 -21.4931C36.6336 -20.376 37.8671 -18.5609 38.3092 -16.6759C40.1709 -17.1413 42.3585 -16.8853 44.29 -15.6287C42.3119 -15.9312 39.6124 -14.7676 39.6124 -14.7676C42.405 -11.9983 43.6151 -17.4904 47.0826 -12.9757C49.1072 -10.6951 47.4549 -13.0688 42.8006 -12.0449C44.1503 -10.0901 45.7794 -11.3002 47.3618 -11.1838C47.2455 -9.60135 45.8025 -8.15853 47.5479 -6.5528C49.2467 -11.0209 47.1291 -12.9757 49.0839 -10.6486C53.04 -6.5528 47.4316 -6.15719 49.7587 -2.99228C49.7587 -2.99228 51.2947 -5.48231 51.2714 -7.48365C52.2255 -5.38923 52.1557 -3.20171 51.4343 -1.43308C53.2262 -0.711672 54.832 0.777699 55.6465 2.91867C54.2269 1.52238 51.3644 0.870781 51.3644 0.870781C51.9928 4.75711 56.205 1.01041 56.3679 6.71191C56.6704 9.7372 56.7169 6.85154 52.3651 4.94328C52.2953 7.31697 54.3432 7.2937 55.5533 8.31764C54.5293 9.52775 52.5048 9.85355 52.9702 12.1807C56.9496 9.57429 56.4144 6.73519 56.6238 9.76048C57.415 15.3922 52.6444 12.4367 52.6676 16.3463C52.6676 16.3463 55.3672 15.2293 56.5308 13.6003C56.0653 15.8576 54.7388 17.5797 53.0865 18.6036C54.1105 20.2326 54.5293 22.3969 53.9475 24.6076C53.6217 22.6296 51.6903 20.4421 51.6903 20.4421C49.9217 23.956 55.5301 23.3975 52.2954 28.0984C50.7594 30.728 52.5048 28.4241 50.0845 24.3051C48.6417 26.1901 50.294 27.3769 50.6896 28.9129C49.1537 29.2852 47.3386 28.3543 46.3379 30.5186C51.1085 30.7513 52.3186 28.1449 50.7129 30.7047C48.0367 35.7314 45.9189 30.5186 43.6383 33.7068C43.6383 33.7068 46.4775 34.3816 48.3858 33.7766C46.687 35.3358 44.5925 35.9408 42.661 35.8012C42.5213 37.7327 41.6137 39.7108 39.8218 41.1536C40.7062 39.3617 40.4501 36.4528 40.4501 36.4528C36.9594 38.2447 41.7999 41.1071 36.4475 43.0153C33.6549 44.2254 36.4242 43.411 36.8896 38.6636C34.609 39.3385 35.2607 41.27 34.6789 42.7361C33.2128 42.131 32.2819 40.3159 30.2107 41.4794C33.9342 44.4582 36.4475 43.0852 33.6316 44.2022C28.5119 46.7155 29.8617 41.2467 26.1382 42.4801C26.1382 42.4801 28.0465 44.7141 29.9315 45.3192C27.6509 45.5752 25.603 44.8305 24.1136 43.5971C22.8802 45.0632 20.972 46.157 18.6681 46.2733C20.4367 45.3425 21.9494 42.8524 21.9494 42.8524C18.0631 42.2474 20.3204 47.4136 14.8516 45.8079C11.8728 45.1563 14.5956 46.1104 17.7838 42.5499C15.5497 41.7587 14.9447 43.7135 13.595 44.528C12.7572 43.1782 13.083 41.1536 10.7326 40.8744C11.9892 45.4821 14.8516 45.8312 11.8961 45.1098C6.28771 44.1324 10.5929 40.502 6.84619 39.3152C6.84619 39.3152 7.07892 42.2241 8.24249 43.8531C6.24115 42.7361 5.0078 40.9209 4.56564 39.0359C2.70392 39.5014 0.516394 39.2454 -1.41514 37.9887C0.562935 38.2912 3.26244 37.1277 3.26244 37.1277C0.469873 34.3584 -0.740293 39.8504 -4.20774 35.3358C-6.23235 33.0552 -4.58002 35.4289 0.0742702 34.4049C-1.27547 32.4501 -2.90452 33.6602 -4.48698 33.5439C-4.37062 31.9614 -2.92776 30.5186 -4.67312 28.9129C-6.37194 33.381 -4.25424 35.3358 -6.20904 33.0086C-10.1652 28.9129 -4.55679 28.5172 -6.88393 25.3523C-6.88393 25.3523 -8.41984 27.8424 -8.39656 29.8437C-9.35069 27.7493 -9.2809 25.5618 -8.55948 23.7931C-10.3514 23.0717 -11.9571 21.5824 -12.7716 19.4414C-11.352 20.8377 -8.48967 21.4893 -8.48967 21.4893C-9.118 17.6029 -13.3301 21.3496 -13.493 15.6481C-13.7955 12.6229 -13.8421 15.5085 -9.49032 17.4168C-9.42051 15.0431 -11.4684 15.0664 -12.6785 14.0424C-11.6546 12.8323 -9.62997 12.5065 -10.0954 10.1794C-14.0748 12.7858 -13.5395 15.6249 -13.749 12.5996C-14.5402 6.9679 -9.76959 9.92337 -9.79286 6.01377C-9.79286 6.01377 -12.4924 7.1308 -13.6559 8.7598C-13.1905 6.50247 -11.864 4.78038 -10.2117 3.75644C-11.2357 2.12744 -11.6545 -0.0367966 -11.0728 -2.24758C-10.747 -0.26951 -8.81543 1.918 -8.81543 1.918C-7.0468 -1.59599 -12.6552 -1.03747 -9.42051 -5.73829C-7.8846 -8.36797 -9.62993 -6.0641 -7.2097 -1.94506C-5.76687 -3.83005 -7.41916 -5.01689 -7.81478 -6.5528C-6.27886 -6.92514 -4.4637 -5.99428 -3.46303 -8.15853C-8.23368 -8.39124 -9.4438 -5.78485 -7.83807 -8.3447C-5.16186 -13.3713 -3.04414 -8.15853 -0.763538 -11.3467C-0.763538 -11.3467 -3.60267 -12.0216 -5.51093 -11.4165C-3.81212 -12.9757 -1.71764 -13.5808 0.213893 -13.4411C0.353521 -15.3727 1.26111 -17.3507 3.05301 -18.7936C2.1687 -17.0017 2.42463 -14.0927 2.42463 -14.0927C5.91535 -15.8846 1.0749 -18.747 6.42732 -20.6553C9.21989 -21.8654 6.45059 -21.0509 5.98516 -16.3035C8.24249 -16.9551 7.59092 -18.9099 8.19597 -20.376ZM19.4128 -13.0688C16.5504 -10.5555 13.4553 -14.1626 15.6196 -16.257C17.4347 -17.0948 17.5976 -15.6519 17.4347 -15.233C17.1555 -14.6047 18.0863 -14.116 18.2958 -15.1865C18.5285 -15.0934 18.7612 -15.0469 18.8543 -15.2563C19.9946 -17.8162 15.317 -19.259 15.5265 -17.1413C15.4334 -17.0948 13.5949 -18.9797 12.8503 -15.4192C12.5012 -13.7669 13.5252 -9.3221 16.3643 -11.4863C16.8064 -11.3467 16.7133 -9.62463 18.1096 -9.9737C18.6449 -10.1133 19.1335 -10.346 19.599 -10.6486C20.1109 -10.4159 20.6462 -10.253 21.1814 -10.2297C22.601 -10.1133 22.2286 -11.7889 22.6475 -11.9983C25.7892 -10.3228 26.0684 -14.884 25.4401 -16.4664C24.1136 -19.8408 22.6243 -17.6765 22.5312 -17.7231C22.3916 -19.8408 18.0165 -17.63 19.5757 -15.3029C19.692 -15.1167 19.9481 -15.2098 20.1342 -15.3261C20.5298 -14.3255 21.3676 -14.9538 20.9953 -15.5356C20.7625 -15.9079 20.6695 -17.3507 22.601 -16.8388C25.091 -15.14 22.6475 -11.0675 19.4128 -13.0688ZM5.543 -7.25094C4.70523 -3.52752 0.0742245 -4.64455 0.609467 -7.60002C1.58687 -9.34538 2.56428 -8.27489 2.65736 -7.83273C2.79699 -7.15786 3.84422 -7.32076 3.40207 -8.29816C3.63478 -8.3447 3.86748 -8.46106 3.82094 -8.6705C3.23915 -11.3933 -1.39188 -9.83407 0.0276814 -8.25161C-0.0188618 -8.15853 -2.60197 -8.62395 -1.1126 -5.29614C-0.414453 -3.76023 3.0297 -0.758215 4.03037 -4.17911C4.47253 -4.31874 5.40341 -2.89918 6.311 -3.99294C6.66007 -4.41182 6.91607 -4.90053 7.12551 -5.43577C7.66075 -5.55213 8.19593 -5.7383 8.66136 -6.01756C9.87148 -6.76225 8.59161 -7.90254 8.80106 -8.29816C12.3383 -8.78686 9.87148 -12.6499 8.45193 -13.5575C5.3801 -15.5123 5.44994 -12.8826 5.35686 -12.8594C3.98384 -14.4884 1.77303 -10.1366 4.37943 -9.1592C4.58887 -9.08938 4.7285 -9.29883 4.82159 -9.50827C5.72918 -8.92649 6.0317 -9.92716 5.40338 -10.1599C5.00776 -10.3228 4.07693 -11.4398 5.93864 -12.1612C8.94066 -12.2543 9.33624 -7.5302 5.543 -7.25094ZM-2.22965 5.61815C-0.717007 9.10887 -5.1153 10.9473 -6.44177 8.22456C-6.67449 6.24649 -5.25494 6.52574 -4.92914 6.82827C-4.41717 7.2937 -3.67245 6.54902 -4.60331 6.01377C-4.44041 5.8276 -4.32408 5.61815 -4.48698 5.45525C-6.55814 3.59354 -9.37396 7.57296 -7.3028 8.03838C-7.3028 8.13147 -9.6532 9.29504 -6.48829 11.1102C-5.02219 11.948 -0.460973 12.3436 -1.67109 8.99251C-1.39183 8.62017 0.190619 9.22523 0.283704 7.80567C0.330247 7.27043 0.237122 6.71191 0.0974932 6.17667C0.469835 5.75779 0.79567 5.29236 1.00511 4.80366C1.56363 3.47719 -0.158456 3.31428 -0.228271 2.87213C2.33159 0.405354 -1.92711 -1.27018 -3.60266 -1.1771C-7.233 -0.967655 -5.62726 1.12677 -5.69707 1.21986C-7.74496 0.707884 -7.00026 5.52507 -4.30077 4.78038C-4.09133 4.71057 -4.09133 4.47785 -4.16115 4.24514C-3.09066 4.1986 -3.41646 3.19793 -4.09134 3.3841C-4.51022 3.50046 -5.90652 3.12811 -4.83604 1.45257C-2.43908 -0.432419 0.656008 3.15138 -2.22965 5.61815ZM-0.972973 20.605C2.3083 22.5365 -0.181716 26.609 -2.83466 25.1894C-4.1844 23.7233 -2.85797 23.1183 -2.43908 23.1648C-1.74094 23.2346 -1.57803 22.1874 -2.64852 22.327C-2.62525 22.0943 -2.64853 21.8383 -2.88125 21.8151C-5.65055 21.5358 -5.60397 26.3995 -3.64917 25.5618C-3.57936 25.6316 -4.81275 27.9587 -1.18241 27.5631C0.493135 27.3769 4.42597 25.0265 1.4705 23.0019C1.4705 22.5365 3.12278 22.0943 2.35482 20.8842C2.07557 20.4188 1.68 20.0232 1.23784 19.6741C1.28438 19.1156 1.28436 18.5571 1.14474 18.0218C0.818935 16.6255 -0.670467 17.5099 -0.996267 17.1841C-0.367938 13.6701 -4.81274 14.8336 -6.11594 15.9041C-8.93178 18.208 -6.39526 18.976 -6.39526 19.069C-8.35005 19.8603 -4.90587 23.3277 -3.18379 21.1402C-3.04416 20.954 -3.20705 20.7679 -3.39322 20.605C-2.55545 19.9301 -3.4165 19.325 -3.83538 19.8603C-4.11464 20.2093 -5.46438 20.7213 -5.58074 18.72C-4.7197 15.8343 -0.0886583 16.9048 -0.972973 20.605ZM8.84757 31.9847C12.6408 31.6356 13.0132 36.3597 10.0344 36.8019C8.07964 36.4062 8.80099 35.1496 9.17334 34.9169C9.77839 34.5678 9.28974 33.6369 8.49851 34.3584C8.38216 34.1489 8.19594 33.9628 8.00976 34.0791C5.58953 35.4754 8.52179 39.385 9.59228 37.5698C9.68536 37.5931 10.0577 40.1995 12.7572 37.756C14.0138 36.6157 15.7824 32.4036 12.2219 32.5199C11.9426 32.1476 13.0132 30.8211 11.71 30.2859C11.198 30.0764 10.6628 29.9833 10.1042 29.9601C9.82499 29.4714 9.47589 29.0292 9.05701 28.6801C7.96325 27.7493 7.2884 29.3085 6.82297 29.2619C5.26378 26.0505 2.35484 29.5877 1.93596 31.2167C1.02837 34.7307 3.49517 33.8697 3.56498 33.9395C2.44796 35.7314 7.2651 36.5226 7.38146 33.73C7.38146 33.4973 7.14872 33.4275 6.916 33.4275C7.19526 32.3803 6.1481 32.4036 6.10156 33.0784C6.07829 33.5206 5.28703 34.7307 4.03037 33.1948C3.0297 30.3091 7.40474 28.4707 8.84757 31.9847ZM23.4853 35.4288C26.3477 32.9155 29.4427 36.5226 27.2785 38.617C25.4633 39.4548 25.3004 38.012 25.4633 37.5931C25.7426 36.9648 24.8117 36.4761 24.6023 37.5466C24.3696 37.4535 24.1369 37.4069 24.0438 37.6164C22.9035 40.1762 27.5811 41.619 27.3716 39.5013C27.4647 39.4548 29.3031 41.3398 30.0478 37.7793C30.3969 36.127 29.373 31.6821 26.5339 33.8464C26.0917 33.7068 26.1848 31.9847 24.7885 32.3338C24.2533 32.4734 23.7645 32.7061 23.2991 33.0086C22.7871 32.7759 22.2519 32.613 21.7167 32.5897C20.2971 32.4734 20.6694 34.1489 20.2506 34.3584C17.1089 32.6828 16.8296 37.244 17.458 38.8265C18.7844 42.2008 20.2738 40.0366 20.3669 40.0831C20.5065 42.2008 24.8816 39.9901 23.3224 37.6629C23.206 37.4767 22.9501 37.5698 22.7639 37.6862C22.3683 36.6855 21.5305 37.3138 21.9028 37.8956C22.1355 38.268 22.2286 39.7108 20.2971 39.1988C17.7838 37.5 20.2506 33.4275 23.4853 35.4288ZM37.3318 29.5877C38.1696 25.8643 42.8006 26.9813 42.2654 29.9368C41.288 31.6822 40.3106 30.6117 40.2175 30.1695C40.0779 29.4946 39.0306 29.6575 39.4728 30.6349C39.2401 30.6815 39.0074 30.7978 39.0539 31.0073C39.6357 33.73 44.2667 32.1709 42.8472 30.5884C42.8937 30.4953 45.4768 30.9607 43.9874 27.6329C43.2893 26.097 39.8451 23.095 38.8444 26.5159C38.4022 26.6555 37.4714 25.236 36.5639 26.3297C36.2148 26.7486 35.9588 27.2373 35.7493 27.7726C35.2141 27.8889 34.6788 28.0751 34.2134 28.3543C33.0033 29.099 34.2832 30.2393 34.0738 30.6349C30.5365 31.1236 33.0033 34.9867 34.4229 35.8943C37.4947 37.8491 37.4249 35.2194 37.518 35.1961C38.891 36.8251 41.1017 32.4734 38.4953 31.496C38.2859 31.4262 38.1463 31.6356 38.0532 31.8451C37.1456 31.2633 36.8431 32.2639 37.4714 32.4967C37.867 32.6596 38.7979 33.7766 36.9362 34.498C33.9575 34.6144 33.5385 29.867 37.3318 29.5877ZM45.1277 16.7419C43.6151 13.2512 48.0134 11.4127 49.3398 14.1355C49.5726 16.1136 48.1529 15.8343 47.8271 15.5318C47.3152 15.0664 46.5706 15.811 47.5015 16.3463C47.3386 16.5325 47.2221 16.7419 47.385 16.9048C49.4561 18.7665 52.272 14.7871 50.2009 14.3217C50.2009 14.2286 52.5513 13.065 49.3864 11.2498C47.9203 10.4121 43.3591 10.0165 44.5692 13.3675C44.29 13.7399 42.7075 13.1348 42.6144 14.5544C42.5678 15.0896 42.6609 15.6481 42.8006 16.1834C42.4282 16.6023 42.1024 17.0677 41.893 17.5564C41.3344 18.8829 43.0566 19.0458 43.1264 19.4879C40.5666 21.9547 44.8253 23.6302 46.5008 23.5372C50.1311 23.3277 48.5253 21.2333 48.5951 21.1402C50.643 21.6522 49.8984 16.835 47.1989 17.5797C46.9895 17.6495 46.9895 17.8822 47.0593 18.1149C45.9888 18.1615 46.3145 19.1621 46.9894 18.976C47.4083 18.8596 48.8046 19.2319 47.7341 20.9075C45.3372 22.7925 42.2188 19.1854 45.1277 16.7419ZM43.8711 1.7551C40.5898 -0.17643 43.0799 -4.24892 45.7328 -2.82937C47.0825 -1.36327 45.7561 -0.758213 45.3372 -0.804756C44.6391 -0.874571 44.4761 0.172646 45.5466 0.0330162C45.5233 0.265732 45.5467 0.521711 45.7794 0.544983C48.5487 0.82424 48.502 -4.03949 46.5472 -3.20172C46.4774 -3.27153 47.7108 -5.59867 44.0805 -5.20305C42.4049 -5.01688 38.4721 -2.66647 41.4276 -0.641857C41.4276 -0.176428 39.7753 0.265728 40.5432 1.47584C40.8225 1.94127 41.2181 2.33689 41.6603 2.68596C41.6138 3.24447 41.6137 3.80298 41.7533 4.33823C42.0791 5.73451 43.5685 4.8502 43.8943 5.176C43.2659 8.68998 47.7108 7.52641 49.014 6.45592C51.8298 4.15206 49.2933 3.3841 49.2933 3.29101C51.2481 2.49978 47.8039 -0.967659 46.0818 1.21986C45.9422 1.40603 46.1051 1.5922 46.2913 1.7551C45.4535 2.42997 46.3146 3.03502 46.7335 2.49978C47.0127 2.15071 48.3625 1.63874 48.4788 3.64009C47.5945 6.52574 42.9635 5.45525 43.8711 1.7551ZM34.0505 -9.62463C30.2573 -9.27556 29.885 -13.9997 32.8637 -14.4418C34.8185 -14.0462 34.0971 -12.7895 33.7247 -12.5568C33.1197 -12.2078 33.6084 -11.2769 34.3996 -11.9983C34.516 -11.7889 34.7021 -11.6027 34.8883 -11.7191C37.3085 -13.1153 34.3764 -17.0249 33.3059 -15.2098C33.2128 -15.233 32.8404 -17.8394 30.1409 -15.3959C28.8843 -14.2556 27.1157 -10.0435 30.6762 -10.1599C30.9554 -9.78753 29.885 -8.46106 31.1882 -7.92582C31.7001 -7.71637 32.2354 -7.62329 32.7939 -7.60002C33.0732 -7.11132 33.4222 -6.66915 33.8411 -6.32008C34.9348 -5.38922 35.6097 -6.94841 36.0751 -6.90187C37.6343 -3.69041 40.5432 -7.22767 40.9621 -8.85667C41.8697 -12.3707 39.403 -11.5096 39.3332 -11.5794C40.4502 -13.3713 35.633 -14.1626 35.5166 -11.37C35.5166 -11.1373 35.7494 -11.0675 35.9821 -11.0675C35.7028 -10.0202 36.75 -10.0435 36.7966 -10.7184C36.8199 -11.1605 37.611 -12.3707 38.8677 -10.8347C39.8684 -7.97236 35.4933 -6.11064 34.0505 -9.62463ZM18.4819 -24.0762C17.2485 -24.5882 15.6894 -24.7976 14.7352 -23.6806C14.6654 -23.6806 14.5956 -23.7038 14.5258 -23.7038C13.8742 -25.9844 11.291 -24.6347 7.49779 -22.0283C2.95986 -21.144 0.190621 -20.2597 1.37746 -18.1885C1.33092 -18.142 1.28438 -18.0722 1.23784 -18.0256C-0.228259 -18.142 -1.18239 -16.8853 -1.67109 -15.6287C-2.97429 -15.3261 -4.3706 -14.5582 -4.46369 -13.0921C-4.51023 -13.0688 -4.58008 -13.0223 -4.6499 -12.9757C-6.51161 -14.4418 -7.81479 -11.8354 -9.3507 -7.48365C-12.4923 -4.1093 -14.2144 -1.75889 -12.0502 -0.781488C-12.0502 -0.711674 -12.0501 -0.641859 -12.0734 -0.572044C-13.3301 0.195911 -13.3534 1.77837 -13.0276 3.08157C-13.9119 4.08224 -14.5868 5.52507 -13.7956 6.78172C-13.8188 6.82827 -13.842 6.89809 -13.8886 6.9679C-16.2623 6.87481 -15.7736 9.73719 -14.4704 14.182C-15.0289 18.7665 -15.0289 21.6754 -12.7018 21.1867C-12.6552 21.2566 -12.6319 21.3031 -12.5854 21.3729C-13.1439 22.7227 -12.2363 24.0258 -11.2124 24.8869C-11.3287 26.2134 -11.0262 27.7726 -9.67646 28.3311C-9.65319 28.4009 -9.65322 28.4707 -9.62995 28.5405C-11.608 29.867 -9.53687 31.8916 -5.85999 34.7074C-3.62593 38.7567 -1.90383 41.1071 -0.321376 39.3384C-0.251561 39.3617 -0.181778 39.385 -0.135236 39.4083C0.213836 40.8278 1.70324 41.3631 3.02971 41.4329C3.72786 42.5732 4.86817 43.6669 6.311 43.3179C6.35754 43.3644 6.4041 43.4109 6.47391 43.4575C5.65941 45.6916 8.52179 46.1104 13.1528 46.2268C17.3417 48.1816 20.1109 49.0892 20.3669 46.7155C20.4367 46.6922 20.5066 46.6689 20.5764 46.6689C21.6934 47.6231 23.2061 47.1576 24.3464 46.4362C25.5797 46.9482 27.1389 47.1577 28.093 46.0406C28.1628 46.0406 28.2326 46.0639 28.3025 46.0639C28.9541 48.3445 31.5372 46.9948 35.3305 44.3884C39.8684 43.504 42.6377 42.6197 41.4509 40.5486C41.4974 40.502 41.5439 40.4322 41.5905 40.3857C43.0566 40.502 44.0106 39.2454 44.4993 37.9887C45.8025 37.6862 47.1989 36.9182 47.2919 35.4521C47.3385 35.4288 47.4083 35.3823 47.4782 35.3358C49.3399 36.8019 50.6431 34.1955 52.179 29.8437C55.3207 26.4694 57.0427 24.1189 54.8785 23.1415C54.8785 23.0717 54.8785 23.0019 54.9017 22.9321C56.1584 22.1641 56.1816 20.5817 55.8558 19.2785C56.7401 18.2778 57.415 16.835 56.6238 15.5783C56.6471 15.5085 56.6703 15.462 56.7168 15.3922C59.0905 15.4852 58.6018 12.6229 57.2986 8.17802C57.8571 3.59355 57.8571 0.684612 55.53 1.17331C55.4834 1.1035 55.4602 1.05696 55.4137 0.987144C55.9722 -0.362598 55.0647 -1.6658 54.0407 -2.52685C54.1571 -3.85332 53.8545 -5.4125 52.5047 -5.97101C52.4815 -6.04083 52.4816 -6.11064 52.4583 -6.18046C54.4363 -7.50693 52.3652 -9.53154 48.6883 -12.3474C46.4543 -16.3966 44.7322 -18.747 43.1497 -16.9784C43.0799 -17.0017 43.01 -17.0249 42.9635 -17.0482C42.6144 -18.4678 41.125 -19.003 39.7985 -19.0728C39.1004 -20.2131 37.9601 -21.3069 36.5173 -20.9578C36.4707 -21.0044 36.4242 -21.0509 36.3544 -21.0974C37.1689 -23.3315 34.2832 -23.7504 29.6755 -23.8667C25.4866 -25.8215 22.7174 -26.7291 22.4614 -24.3554C22.3916 -24.3322 22.3218 -24.3089 22.2519 -24.3089C21.1349 -25.2398 19.6222 -24.7743 18.4819 -24.0762ZM12.827 -9.34538C14.5025 -7.60002 17.0624 -6.85533 19.8782 -7.64656C22.7639 -7.34403 25.1609 -8.48433 26.5339 -10.4857C26.8829 -8.08871 28.5119 -5.99429 31.2347 -4.97034C33.3989 -3.01554 36.0053 -2.55012 38.2859 -3.36462C37.1456 -1.22365 37.2387 1.4293 38.8444 3.84953C39.4495 6.68864 41.2879 8.62017 43.615 9.31831C41.4275 10.3888 39.9382 12.5996 39.8218 15.4852C38.635 18.1382 38.9841 20.7679 40.4734 22.6994C38.0765 22.2805 35.5864 23.1881 33.7713 25.4687C31.2579 26.9115 29.978 29.2619 30.0478 31.6822C28.3723 29.9368 25.8124 29.1921 22.9966 29.9833C20.1109 29.6808 17.714 30.8211 16.341 32.8225C15.9919 30.4255 14.3629 28.3311 11.6401 27.3071C9.47586 25.3523 6.86946 24.8869 4.58886 25.7014C5.72916 23.5604 5.6361 20.9075 4.03037 18.4873C3.42531 15.6481 1.5869 13.7166 -0.740244 13.0185C1.44727 11.948 2.93665 9.7372 3.05301 6.85154C4.23985 4.1986 3.89078 1.56893 2.40141 -0.362602C4.79837 0.056284 7.28835 -0.851299 9.10352 -3.1319C11.6168 -4.57473 12.8968 -6.90187 12.827 -9.34538Z" fill="white"/>
</svg>
