<svg width="40" height="40" viewBox="0 0 40 40" fill="none" xmlns="http://www.w3.org/2000/svg">
<path d="M39.5 20C39.5 30.7696 30.7696 39.5 20 39.5C9.23045 39.5 0.5 30.7696 0.5 20C0.5 9.23045 9.23045 0.5 20 0.5C30.7696 0.5 39.5 9.23045 39.5 20Z" stroke="white"/>
<path fillRule="evenodd" clipRule="evenodd" d="M28.979 14.3625C28.9532 14.3318 28.9106 14.3213 28.8743 14.3381C28.3361 14.5791 27.77 14.7523 27.1869 14.8547C27.8059 14.3846 28.2672 13.7337 28.5037 12.9872C28.5151 12.9515 28.5033 12.9124 28.4744 12.8892C28.4453 12.8659 28.4049 12.8629 28.373 12.8821C27.6758 13.2995 26.9206 13.5937 26.1276 13.7569C25.4248 13.0207 24.4435 12.5996 23.4278 12.5996C21.3623 12.5996 19.6821 14.2957 19.6821 16.3805C19.6821 16.6326 19.7063 16.8824 19.7542 17.1248C16.8934 16.9466 14.2184 15.5602 12.3995 13.3083C12.3809 13.2852 12.3527 13.2723 12.3232 13.2753C12.2939 13.2775 12.2677 13.2943 12.2529 13.3198C11.9211 13.8944 11.7458 14.5519 11.7458 15.2207C11.7458 16.3799 12.2675 17.4637 13.1559 18.1789C12.6985 18.1234 12.2518 17.9781 11.849 17.7523C11.8219 17.7369 11.7882 17.7371 11.7611 17.7529C11.734 17.7685 11.7168 17.7976 11.7161 17.8292L11.7157 17.8776C11.7157 19.5424 12.8025 21.0041 14.3487 21.4895C13.9415 21.5557 13.5189 21.5513 13.1036 21.4712C13.073 21.4655 13.0409 21.4761 13.0199 21.4999C12.999 21.5237 12.992 21.557 13.0016 21.5872C13.4653 23.048 14.7535 24.0724 16.2531 24.2001C15.0022 25.1252 13.5237 25.6126 11.9615 25.6126C11.6737 25.6126 11.3839 25.5952 11.1 25.5616C11.0594 25.5569 11.0192 25.5813 11.0052 25.6206C10.9912 25.6602 11.0061 25.7045 11.0412 25.727C12.7317 26.8214 14.6864 27.3996 16.6943 27.3996C23.2619 27.3996 27.1865 22.0144 27.1865 16.8083C27.1865 16.6633 27.1837 16.5191 27.178 16.3753C27.8865 15.8521 28.4947 15.2118 28.9851 14.4706C29.007 14.4375 29.0046 14.3934 28.979 14.3625Z" fill="white"/>
</svg>
