<svg width="18" height="18" viewBox="0 0 18 18" fill="none" xmlns="http://www.w3.org/2000/svg">
<path fill-rule="evenodd" clip-rule="evenodd" d="M9.00008 0.666626C4.39771 0.666626 0.666748 4.39759 0.666748 8.99996C0.666748 13.6023 4.39771 17.3333 9.00008 17.3333C13.6025 17.3333 17.3334 13.6023 17.3334 8.99996C17.3334 4.39759 13.6025 0.666626 9.00008 0.666626ZM9.00008 4.83329C9.46032 4.83329 9.83342 5.20639 9.83342 5.66663V10.3214L11.7442 8.4107C12.0696 8.08527 12.5972 8.08527 12.9227 8.4107C13.2481 8.73614 13.2481 9.26378 12.9227 9.58922L9.58934 12.9225C9.43306 13.0788 9.2211 13.1666 9.00008 13.1666C8.77907 13.1666 8.56711 13.0788 8.41083 12.9225L5.07749 9.58922C4.75206 9.26378 4.75206 8.73614 5.07749 8.4107C5.40293 8.08527 5.93057 8.08527 6.256 8.4107L8.16675 10.3214V5.66663C8.16675 5.20639 8.53984 4.83329 9.00008 4.83329Z" fill="#065EA9"/>
</svg>
