<svg width="20" height="20" viewBox="0 0 20 20" fill="none" xmlns="http://www.w3.org/2000/svg">
<path fill-rule="evenodd" clip-rule="evenodd" d="M4.5129 3.38461C2.95517 3.38461 1.69238 4.68348 1.69238 6.28571V14.022C1.69238 15.6242 2.95517 16.9231 4.5129 16.9231H15.7949C17.3527 16.9231 18.6155 15.6242 18.6155 14.022V6.28571C18.6155 4.68348 17.3527 3.38461 15.7949 3.38461H4.5129ZM6.45174 6.95465C6.08683 6.66272 5.55435 6.72188 5.26242 7.08679C4.97049 7.45171 5.02965 7.98419 5.39456 8.27612L9.62533 11.6607L10.1539 12.0836L10.6825 11.6607L14.9133 8.27612C15.2782 7.98419 15.3374 7.45171 15.0454 7.08679C14.7535 6.72188 14.221 6.66272 13.8561 6.95465L10.1539 9.91639L6.45174 6.95465Z" fill="#065EA9"/>
</svg>
