<svg width="20" height="20" viewBox="0 0 20 20" fill="none" xmlns="http://www.w3.org/2000/svg">
<path fill-rule="evenodd" clip-rule="evenodd" d="M8.75759 6.98004C8.19195 4.93634 6.15557 3.67404 4.14041 4.34619C2.82749 4.78409 2.02828 5.60104 1.76334 6.6907C1.51707 7.70353 1.77375 8.79652 2.17239 9.76243C2.97516 11.7076 4.564 13.6347 5.46358 14.5349C6.34242 15.4144 8.26673 17.0101 10.2155 17.8203C11.1831 18.2225 12.2802 18.4837 13.2977 18.238C14.3927 17.9736 15.2138 17.1703 15.6541 15.8481C16.3252 13.833 15.0653 11.7951 13.022 11.2287L13.022 11.2287C11.6253 10.8416 10.1607 11.2107 9.16111 12.1079C8.92648 11.9262 8.70084 11.7277 8.48564 11.5124C8.26939 11.2959 8.07019 11.0689 7.88789 10.8328C8.77799 9.83293 9.14302 8.37267 8.75759 6.98005L8.75759 6.98004Z" fill="#065EA9"/>
</svg>
