<svg width="20" height="19" viewBox="0 0 20 19" fill="none" xmlns="http://www.w3.org/2000/svg">
<path d="M2.90951 0.888531C2.69466 0.997892 2.62305 1.14606 2.62305 1.48472V1.78106H2.7985C3.45378 1.78106 5.31217 2.03858 6.47949 2.29258C7.16699 2.44428 8.54557 2.81822 8.94303 2.96638C9.00749 2.99108 9.01107 2.98755 8.96094 2.93111C8.86426 2.81116 8.38086 2.44075 7.98698 2.18322C6.74447 1.37183 5.20117 0.899114 3.58984 0.84267C3.0957 0.825031 3.02051 0.828559 2.90951 0.888531Z" fill="#065EA9"/>
<path d="M16.0653 0.849735C16.008 0.856791 15.8039 0.881485 15.6177 0.902652C14.3752 1.04023 12.9966 1.53059 11.9976 2.18676C11.5894 2.4584 11.0559 2.87114 11.0809 2.89937C11.0917 2.90642 11.3208 2.84292 11.5966 2.75826C12.1301 2.58892 13.1613 2.32434 13.7414 2.20792C14.7082 2.0139 16.076 1.83398 16.9175 1.79165L17.3723 1.77048V1.48121C17.3723 1.23779 17.3579 1.17076 17.2899 1.07198C17.1574 0.87443 17.0178 0.828569 16.5666 0.835624C16.3518 0.835624 16.1262 0.846208 16.0653 0.849735Z" fill="#065EA9"/>
<path d="M1.13281 2.80052C1.09342 2.81816 1.01107 2.88872 0.946615 2.95927L0.832031 3.0898V9.60911V16.1284L0.914388 16.2484C1.03971 16.4353 1.1901 16.4918 1.56608 16.4918C2.89095 16.4953 4.89258 16.7387 6.29622 17.0739C7.38477 17.3314 8.60579 17.7194 9.41504 18.0616C9.93783 18.2839 10.0596 18.298 10.3317 18.1639C11.123 17.7653 12.4909 17.3067 13.6797 17.0386C15.069 16.7246 16.4368 16.5553 18.0195 16.5059C18.8574 16.4777 18.9434 16.4565 19.083 16.2484L19.1654 16.1284L19.1582 9.59147L19.1475 3.05099L19.0114 2.92047L18.8789 2.78641L17.9551 2.78994C15.3304 2.80052 12.3477 3.40377 10.1813 4.36332L9.98796 4.45152L9.55469 4.27866C7.8252 3.58369 5.62663 3.06863 3.48177 2.85697C2.83366 2.78994 1.24023 2.75466 1.13281 2.80052ZM4.21582 5.07946C5.27214 5.1994 6.54329 5.44987 7.5459 5.7321C8.09017 5.88379 8.18327 5.93318 8.28353 6.12015C8.3444 6.23304 8.35156 6.3424 8.35156 7.40073C8.35156 8.48022 8.34798 8.56489 8.27995 8.69189C8.21191 8.82595 7.97917 8.97764 7.84668 8.97764C7.81803 8.97764 7.53874 8.90708 7.22721 8.81889C6.21387 8.53667 4.99284 8.30384 3.87565 8.18389C3.32422 8.12039 3.20605 8.08159 3.07357 7.90873C3.00195 7.81348 2.99837 7.76409 2.98763 6.63873C2.98047 5.99315 2.98763 5.43224 2.99837 5.3899C3.02702 5.26643 3.22754 5.06535 3.35286 5.03007C3.41374 5.01243 3.52832 5.00538 3.6071 5.01243C3.68587 5.01949 3.96159 5.05124 4.21582 5.07946ZM16.6839 5.06182C17.0921 5.24174 17.0814 5.80971 16.666 5.97904C16.623 5.99668 16.3079 6.04607 15.9678 6.08487C14.7969 6.22246 13.7477 6.42354 12.6842 6.71987C12.1149 6.87862 12.0039 6.88215 11.832 6.73751C11.5456 6.50115 11.5993 6.06018 11.9323 5.89085C12.0397 5.83793 12.9062 5.59804 13.4541 5.47104C14.3063 5.27701 15.7708 5.04771 16.4798 4.99832C16.5085 4.99479 16.6016 5.02302 16.6839 5.06182ZM16.6839 7.17848C17.0921 7.3584 17.0814 7.92637 16.666 8.0957C16.623 8.11334 16.3079 8.16273 15.9678 8.20153C14.7969 8.33911 13.7477 8.5402 12.6842 8.83653C12.1149 8.99528 12.0039 8.99881 11.832 8.85417C11.6888 8.73422 11.6315 8.58606 11.6566 8.3885C11.6924 8.06395 11.8643 7.97928 13.096 7.67589C14.0163 7.45012 14.8936 7.2949 15.889 7.17848C16.5693 7.09734 16.5085 7.09734 16.6839 7.17848ZM3.92936 9.2775C5.03939 9.38686 6.36426 9.63733 7.47786 9.94777C8.06869 10.1101 8.20475 10.1806 8.29427 10.3676C8.37305 10.5299 8.36589 10.6533 8.27279 10.8156C8.19759 10.9461 7.97201 11.0943 7.84668 11.0943C7.81803 11.0943 7.53874 11.0237 7.22721 10.9355C6.21745 10.6533 5.00358 10.424 3.87565 10.297C3.58919 10.2653 3.31348 10.2194 3.25977 10.1912C3.06283 10.0924 2.94108 9.83489 2.99479 9.63028C3.02702 9.49975 3.22396 9.29867 3.35286 9.26339C3.41374 9.24575 3.52116 9.23517 3.58919 9.24222C3.65723 9.2528 3.8112 9.26692 3.92936 9.2775ZM16.6839 9.29514C17.0921 9.47505 17.0814 10.043 16.666 10.2124C16.623 10.23 16.3079 10.2794 15.9678 10.3182C14.7969 10.4558 13.7477 10.6569 12.6842 10.9532C12.1149 11.1119 12.0039 11.1155 11.832 10.9708C11.5456 10.7345 11.5993 10.2935 11.9323 10.1242C12.0397 10.0712 12.9062 9.83136 13.4541 9.70436C14.3063 9.51033 15.7708 9.28103 16.4798 9.23164C16.5085 9.22811 16.6016 9.25633 16.6839 9.29514ZM3.92936 11.3942C5.03939 11.5035 6.36426 11.754 7.47786 12.0644C8.06869 12.2267 8.20475 12.2973 8.29427 12.4842C8.37305 12.6465 8.36589 12.77 8.27279 12.9323C8.19759 13.0628 7.97201 13.211 7.84668 13.211C7.81803 13.211 7.53874 13.1404 7.22721 13.0522C6.21745 12.77 5.00358 12.5407 3.87565 12.4137C3.58919 12.3819 3.31348 12.3361 3.25977 12.3078C3.06283 12.2091 2.94108 11.9515 2.99479 11.7469C3.02702 11.6164 3.22396 11.4153 3.35286 11.38C3.41374 11.3624 3.52116 11.3518 3.58919 11.3589C3.65723 11.3695 3.8112 11.3836 3.92936 11.3942ZM16.6839 11.4118C17.0921 11.5917 17.0814 12.1597 16.666 12.329C16.623 12.3467 16.3079 12.396 15.9678 12.4348C14.7969 12.5724 13.7477 12.7735 12.6842 13.0698C12.1149 13.2286 12.0039 13.2321 11.832 13.0875C11.5456 12.8511 11.5993 12.4102 11.9323 12.2408C12.0397 12.1879 12.9062 11.948 13.4541 11.821C14.3063 11.627 15.7708 11.3977 16.4798 11.3483C16.5085 11.3448 16.6016 11.373 16.6839 11.4118ZM3.92936 13.5108C5.03939 13.6202 6.36426 13.8706 7.47786 14.1811C8.06869 14.3434 8.20475 14.4139 8.29427 14.6009C8.37305 14.7632 8.36589 14.8866 8.27279 15.0489C8.19759 15.1795 7.97201 15.3276 7.84668 15.3276C7.81803 15.3276 7.53874 15.2571 7.22721 15.1689C6.21745 14.8866 5.00358 14.6573 3.87565 14.5303C3.58919 14.4986 3.31348 14.4527 3.25977 14.4245C3.06283 14.3257 2.94108 14.0682 2.99479 13.8636C3.02702 13.7331 3.22396 13.532 3.35286 13.4967C3.41374 13.4791 3.52116 13.4685 3.58919 13.4755C3.65723 13.4861 3.8112 13.5002 3.92936 13.5108ZM16.6839 13.5285C17.0921 13.7084 17.0814 14.2763 16.666 14.4457C16.623 14.4633 16.3079 14.5127 15.9678 14.5515C14.7969 14.6891 13.7477 14.8902 12.6842 15.1865C12.1149 15.3453 12.0039 15.3488 11.832 15.2041C11.5456 14.9678 11.5993 14.5268 11.9323 14.3575C12.0397 14.3046 12.9062 14.0647 13.4541 13.9377C14.3063 13.7436 15.7708 13.5143 16.4798 13.465C16.5085 13.4614 16.6016 13.4897 16.6839 13.5285Z" fill="#065EA9"/>
</svg>
