<svg width="20" height="18" viewBox="0 0 20 18" fill="none" xmlns="http://www.w3.org/2000/svg">
<path d="M6.09398 0.8658C6.01482 0.913563 5.91367 1.01343 5.8653 1.09159C5.78174 1.22619 5.77734 1.31304 5.77734 2.34212C5.77734 3.37119 5.78174 3.45804 5.8653 3.59264C5.99723 3.80106 6.19513 3.90527 6.48099 3.90527C6.76684 3.90527 6.96474 3.80106 7.09668 3.59264C7.18023 3.45804 7.18463 3.37119 7.18463 2.34212C7.18463 1.31304 7.18023 1.22619 7.09668 1.09159C6.96474 0.883168 6.76684 0.778958 6.48099 0.778958C6.31827 0.778958 6.19073 0.80501 6.09398 0.8658Z" fill="#065EA9"/>
<path d="M13.133 0.8658C13.0539 0.913563 12.9527 1.01343 12.9044 1.09159C12.8208 1.22619 12.8164 1.31304 12.8164 2.34212C12.8164 3.37119 12.8208 3.45804 12.9044 3.59264C13.0363 3.80106 13.2342 3.90527 13.52 3.90527C13.8059 3.90527 14.0038 3.80106 14.1357 3.59264C14.2193 3.45804 14.2237 3.37119 14.2237 2.34212C14.2237 1.31304 14.2193 1.22619 14.1357 1.09159C14.0038 0.883168 13.8059 0.778958 13.52 0.778958C13.3573 0.778958 13.2298 0.80501 13.133 0.8658Z" fill="#065EA9"/>
<path d="M3.19313 2.25521C2.11568 2.53745 1.21853 3.42758 0.941471 4.49574C0.871107 4.76495 0.853516 4.97771 0.853516 5.58561V6.33679H10.0009H19.1483V5.58561C19.1483 4.97771 19.1307 4.76495 19.0603 4.49574C18.7832 3.4189 17.8817 2.52877 16.791 2.25521C16.5184 2.18574 16.3029 2.16837 15.6872 2.16837H14.9264V2.63298C14.9264 3.5014 14.7857 3.93995 14.4206 4.23087C14.0908 4.49574 13.9765 4.53482 13.5191 4.53482C13.1409 4.53482 13.0793 4.52179 12.8682 4.4089C12.3009 4.09627 12.1118 3.65771 12.1118 2.63298V2.16837H10.0009H7.88995V2.63298C7.88995 3.5014 7.74922 3.93995 7.38421 4.23087C7.05438 4.49574 6.94003 4.53482 6.48267 4.53482C6.10446 4.53482 6.04289 4.52179 5.83179 4.4089C5.26448 4.09627 5.07538 3.65771 5.07538 2.63298V2.16837L4.29697 2.17271C3.67249 2.17271 3.4482 2.19008 3.19313 2.25521Z" fill="#065EA9"/>
<path d="M0.853516 10.9091C0.853516 14.6259 0.857913 14.804 0.941471 15.1253C1.21853 16.2021 2.12007 17.0922 3.21072 17.3658C3.54056 17.4483 3.72966 17.4526 10.0009 17.4526C16.2721 17.4526 16.4612 17.4483 16.791 17.3658C17.8817 17.0922 18.7832 16.2021 19.0603 15.1253C19.1439 14.804 19.1483 14.6259 19.1483 10.9091V7.03158H10.0009H0.853516V10.9091ZM10.3395 9.24606C10.5462 9.36764 10.599 9.47185 10.8584 10.2534L11.0959 10.9612L11.9535 10.9829C12.7319 11.0046 12.8199 11.0133 12.9298 11.0958C13.1541 11.2565 13.2332 11.4041 13.2332 11.6472C13.2332 11.9642 13.1365 12.0771 12.4197 12.5895C12.081 12.8326 11.804 13.0497 11.804 13.0758C11.804 13.1062 11.9007 13.4188 12.0195 13.7792C12.3273 14.7084 12.3317 14.817 12.059 15.0862C11.8216 15.3163 11.6193 15.3641 11.351 15.2468C11.2499 15.1991 10.9024 14.9733 10.5858 14.7432L10.0009 14.322L9.42038 14.7432C8.72553 15.2425 8.52763 15.3424 8.30334 15.299C8.08785 15.2599 7.81519 15.0124 7.75802 14.804C7.71404 14.6346 7.7932 14.309 8.08785 13.4622C8.14942 13.2842 8.1978 13.1149 8.1978 13.0845C8.1978 13.0541 7.92074 12.8283 7.58211 12.5851C6.85648 12.0641 6.76852 11.9642 6.76852 11.6472C6.76852 11.4041 6.84768 11.2565 7.07197 11.0958C7.18191 11.0133 7.26987 11.0046 8.05267 10.9829L8.91024 10.9612L9.14332 10.2578C9.27085 9.86698 9.40718 9.50224 9.44676 9.44145C9.56111 9.26777 9.7766 9.15922 10.0009 9.15922C10.1196 9.15922 10.256 9.19395 10.3395 9.24606Z" fill="#065EA9"/>
</svg>
