<svg width="22" height="22" viewBox="0 0 22 22" fill="none" xmlns="http://www.w3.org/2000/svg">
<path d="M9.45742 1.01401C8.48203 1.1644 7.45078 1.49526 6.50977 1.95503C3.86289 3.25268 1.88633 5.72339 1.19023 8.598C0.971094 9.48745 0.923828 9.91714 0.923828 10.9999C0.923828 12.1343 0.979688 12.5984 1.22461 13.5609C1.55547 14.8457 2.38477 16.53 2.84023 16.8308C3.07227 16.9812 3.51484 17.0199 3.74258 16.9082C3.94023 16.8093 10.8109 9.94722 10.9184 9.74526C10.9957 9.59057 11 9.45737 11 5.61167C11 3.25698 10.9828 1.59409 10.9613 1.53393C10.8926 1.36206 10.6477 1.10854 10.4629 1.0269C10.2609 0.932373 10.0117 0.932373 9.45742 1.01401Z" fill="#065EA9"/>
<path d="M18.0383 1.86478C17.7934 1.95072 17.673 2.04525 17.5398 2.2429L17.4238 2.42337L17.4109 4.98001L17.4023 7.53665L17.5098 7.76009C17.6688 8.08665 17.8879 8.22415 18.2789 8.24134C18.6699 8.25853 18.9062 8.14681 19.1125 7.84603L19.25 7.63978V5.06165C19.25 2.61243 19.2457 2.47923 19.1684 2.32884C18.9492 1.90345 18.4723 1.71009 18.0383 1.86478Z" fill="#065EA9"/>
<path d="M14.232 3.75977C14.0945 3.82852 13.9699 3.93594 13.8926 4.04766L13.768 4.22383L13.7551 5.90391L13.7422 7.58828L13.8453 7.77734C13.9012 7.88477 14.0301 8.02656 14.1289 8.09961C14.2965 8.21563 14.3438 8.22852 14.666 8.22852C14.9883 8.22852 15.0398 8.21563 15.1988 8.10391C15.3105 8.02656 15.418 7.90195 15.4867 7.76445L15.5941 7.54531V5.95547C15.5941 4.49453 15.5855 4.34844 15.5125 4.18945C15.2891 3.70391 14.7262 3.51484 14.232 3.75977Z" fill="#065EA9"/>
<path d="M12.2712 11.0688C12.0736 11.1719 5.21148 18.0383 5.10835 18.236C5.0396 18.3692 5.02671 18.4637 5.0396 18.6915C5.06538 19.1942 5.27593 19.4004 6.32437 19.9547C7.86694 20.7711 9.53413 21.145 11.3474 21.0848C12.8384 21.0333 14.1361 20.711 15.4509 20.0665C18.1193 18.7516 20.0572 16.3711 20.7834 13.5094C20.9294 12.925 21.0584 12.1602 21.0584 11.8766C21.0541 11.5543 20.7748 11.1547 20.4697 11.0387C20.4095 11.0172 18.7466 11 16.3834 11C12.8599 11.0043 12.3873 11.0129 12.2712 11.0688Z" fill="#065EA9"/>
</svg>
