<svg width="20" height="20" viewBox="0 0 20 20" fill="none" xmlns="http://www.w3.org/2000/svg">
<path d="M5.52354 0.856378C5.4949 0.86727 5.43044 0.910841 5.38748 0.954411C5.19053 1.13232 5.20128 0.707514 5.20128 7.70052C5.20128 14.0981 5.20128 14.1743 5.27289 14.2941C5.39464 14.4938 5.53787 14.5592 5.84581 14.5483L6.11079 14.5374L9.32273 10.1477C11.088 7.72957 12.5776 5.72534 12.6278 5.6854C12.7603 5.58737 12.9715 5.56558 13.1076 5.6382C13.1685 5.67088 14.5542 6.86543 16.1835 8.29598L19.1483 10.8957L19.1591 6.05212C19.1698 1.54261 19.1662 1.20494 19.1089 1.09238C19.0731 1.02703 18.9944 0.943519 18.9335 0.903579C18.8189 0.830962 18.733 0.830962 12.1981 0.834593C8.55645 0.834593 5.55219 0.845486 5.52354 0.856378ZM9.62351 2.87876C10.0568 2.99495 10.4184 3.23821 10.6906 3.59767C11.2599 4.36014 11.1704 5.4385 10.4829 6.09206C9.87417 6.66936 9.1043 6.79644 8.37025 6.44062C7.35689 5.94682 6.98807 4.6615 7.59322 3.71385C7.84388 3.31809 8.26999 3.00584 8.72116 2.88239C8.96107 2.81703 9.39435 2.8134 9.62351 2.87876Z" fill="#065EA9"/>
<path d="M8.78843 3.9753C8.3838 4.17863 8.21551 4.68695 8.41245 5.09724C8.79201 5.87787 9.9665 5.65639 10.0274 4.79224C10.0739 4.12417 9.39 3.67031 8.78843 3.9753Z" fill="#065EA9"/>
<path d="M3.19466 3.18733C3.12305 3.22727 3.03711 3.31804 2.99056 3.40881L2.9082 3.56856L2.91536 10.0315L2.92611 16.498L3.00846 16.6178C3.05501 16.6832 3.14453 16.7631 3.20541 16.7994C3.31283 16.8575 3.72462 16.8611 9.90859 16.8611C16.4327 16.8611 16.4972 16.8611 16.6189 16.7885C16.8588 16.6432 16.8911 16.5634 16.9018 16.0405L16.9161 15.5721L11.1368 15.5649L5.36102 15.554L5.11753 15.4378C4.78452 15.278 4.51238 15.0057 4.34767 14.6681L4.21518 14.3957L4.20444 8.75704L4.19728 3.11834H3.75684C3.39877 3.11834 3.29493 3.12923 3.19466 3.18733Z" fill="#065EA9"/>
<path d="M1.11849 5.47121C1.05046 5.50388 0.957358 5.58739 0.914389 5.65638L0.832031 5.77983V12.2827C0.832031 18.7383 0.832031 18.7855 0.903646 18.9053C0.946616 18.9743 1.03972 19.0542 1.12923 19.0941C1.27605 19.1631 1.44792 19.1667 7.81809 19.1667H14.3566L14.5105 19.0832C14.7504 18.9562 14.797 18.8327 14.797 18.3244V17.896H9.13223C5.62309 17.896 3.38153 17.8814 3.24904 17.8596C2.60809 17.7543 2.0853 17.246 1.94565 16.5961C1.917 16.4581 1.90626 14.8678 1.90626 10.9066V5.40585H1.57683C1.32976 5.40585 1.21159 5.424 1.11849 5.47121Z" fill="#065EA9"/>
<path d="M10.2683 10.6052C8.77508 12.6493 7.51465 14.374 7.46452 14.4394L7.375 14.5555L13.1293 14.5483L18.8836 14.5374L19.0268 14.3849L19.1664 14.2324V13.2593V12.2863L16.1013 9.59944C14.4148 8.12169 13.0254 6.90899 13.0111 6.90172C12.9968 6.89809 11.7614 8.56465 10.2683 10.6052Z" fill="#065EA9"/>
</svg>
