<svg width="18" height="18" viewBox="0 0 18 18" fill="none" xmlns="http://www.w3.org/2000/svg">
<path d="M16.1944 0.0276909C16.1082 0.0467539 14.4966 0.561458 12.6184 1.17148L9.19531 2.28095V6.81034V11.3397L12.6968 12.4759L16.1944 13.6121H16.5277C16.9943 13.6082 17.2531 13.5053 17.5707 13.2003C17.7393 13.0364 17.8374 12.8991 17.904 12.739L17.9981 12.5102V6.81034V1.11048L17.904 0.881718C17.7707 0.561458 17.4178 0.218322 17.0963 0.103943C16.8296 0.0048151 16.4258 -0.0294991 16.1944 0.0276909Z" fill="#065EA9"/>
<path d="M3.35056 2.1588C1.67626 2.43331 0.425437 3.61523 0.0529345 5.26609C-0.0176448 5.59016 -0.0176448 8.03024 0.0529345 8.35431C0.139198 8.73939 0.260751 9.06346 0.4372 9.40279C0.954782 10.3788 1.81742 11.0613 2.93492 11.3739L3.29566 11.4769L5.83652 11.4921L8.37345 11.5035V6.8102V2.12068L5.95415 2.12449C4.62099 2.1283 3.44858 2.14355 3.35056 2.1588Z" fill="#065EA9"/>
<path d="M3.68803 12.3387C3.69587 12.3692 3.92722 13.2613 4.19777 14.3212C4.51146 15.5489 4.73496 16.3343 4.80946 16.4906C5.15059 17.2112 5.78581 17.7297 6.57002 17.9318C6.97389 18.0347 7.6444 18.0195 8.02866 17.8975C8.87561 17.6268 9.47554 17.0625 9.75786 16.2695C9.85588 15.9988 9.87941 15.8653 9.89509 15.5031L9.91078 15.0647L9.55788 13.6998C9.36575 12.9487 9.20106 12.3272 9.1893 12.3196C9.18146 12.312 7.93456 12.3005 6.42102 12.2929C3.98995 12.2815 3.67235 12.2891 3.68803 12.3387Z" fill="#065EA9"/>
</svg>
