<svg width="17" height="17" viewBox="0 0 17 17" fill="none" xmlns="http://www.w3.org/2000/svg">
<path fill-rule="evenodd" clip-rule="evenodd" d="M8.50002 0C10.8085 0 11.0979 0.00978483 12.0045 0.0511511C12.9093 0.0924161 13.5272 0.236118 14.0678 0.446256C14.6268 0.663445 15.1008 0.954089 15.5734 1.42663C16.0459 1.8992 16.3366 2.37323 16.5538 2.93218C16.7639 3.47284 16.9076 4.09073 16.9488 4.99546C16.9902 5.90208 17 6.19154 17 8.50002C17 10.8085 16.9902 11.0979 16.9488 12.0045C16.9076 12.9093 16.7639 13.5272 16.5538 14.0678C16.3366 14.6268 16.0459 15.1008 15.5734 15.5734C15.1008 16.0459 14.6268 16.3366 14.0678 16.5538C13.5272 16.7639 12.9093 16.9076 12.0045 16.9488C11.0979 16.9902 10.8085 17 8.50002 17C6.19154 17 5.90208 16.9902 4.99546 16.9488C4.09073 16.9076 3.47284 16.7639 2.93218 16.5538C2.37323 16.3366 1.8992 16.0459 1.42663 15.5734C0.954089 15.1008 0.663445 14.6268 0.446256 14.0678C0.236118 13.5272 0.0924161 12.9093 0.0511511 12.0045C0.00978483 11.0979 0 10.8085 0 8.50002C0 6.19154 0.00978483 5.90208 0.0511511 4.99546C0.0924161 4.09073 0.236118 3.47284 0.446256 2.93218C0.663445 2.37323 0.954089 1.8992 1.42663 1.42663C1.8992 0.954089 2.37323 0.663445 2.93218 0.446256C3.47284 0.236118 4.09073 0.0924161 4.99546 0.0511511C5.90208 0.00978483 6.19154 0 8.50002 0ZM8.49734 11.3298C10.0616 11.3298 11.3298 10.0616 11.3298 8.49734C11.3298 6.933 10.0616 5.66488 8.49734 5.66488C6.933 5.66488 5.66488 6.933 5.66488 8.49734C5.66488 10.0616 6.933 11.3298 8.49734 11.3298ZM8.49734 4.13383C10.9072 4.13383 12.8608 6.08742 12.8608 8.49734C12.8608 10.9072 10.9072 12.8608 8.49734 12.8608C6.08742 12.8608 4.13383 10.9072 4.13383 8.49734C4.13383 6.08742 6.08742 4.13383 8.49734 4.13383ZM14.3556 3.87224C14.3556 4.44601 13.8904 4.91111 13.3166 4.91111C12.7429 4.91111 12.2778 4.44601 12.2778 3.87224C12.2778 3.29847 12.7429 2.83333 13.3166 2.83333C13.8904 2.83333 14.3556 3.29847 14.3556 3.87224Z" fill="white"/>
</svg>
