<svg width="18" height="15" viewBox="0 0 18 15" fill="none" xmlns="http://www.w3.org/2000/svg">
<path fill-rule="evenodd" clip-rule="evenodd" d="M17.979 1.76286C17.9532 1.73216 17.9106 1.72174 17.8743 1.73848C17.3361 1.97947 16.77 2.15273 16.1869 2.25508C16.8059 1.78501 17.2672 1.13405 17.5037 0.387632C17.5151 0.351902 17.5033 0.312823 17.4744 0.289561C17.4453 0.2663 17.4049 0.263322 17.373 0.28249C16.6758 0.699897 15.9206 0.99411 15.1276 1.15731C14.4248 0.421129 13.4435 0 12.4278 0C10.3623 0 8.68211 1.69605 8.68211 3.78086C8.68211 4.03301 8.70626 4.28275 8.75419 4.52523C5.89336 4.34695 3.21836 2.96056 1.3995 0.708643C1.38088 0.685568 1.35268 0.672727 1.32318 0.675705C1.29387 0.677938 1.26769 0.694686 1.25294 0.720181C0.921099 1.29484 0.745777 1.9523 0.745777 2.62112C0.745777 3.7803 1.2675 4.86411 2.15591 5.57926C1.69853 5.52381 1.25183 5.37847 0.849016 5.15274C0.821916 5.13729 0.788179 5.13748 0.761078 5.1533C0.733978 5.16893 0.716833 5.19796 0.716095 5.22959L0.715727 5.27798C0.715727 6.94277 1.8025 8.40453 3.3487 8.88986C2.94145 8.95611 2.51891 8.95165 2.10356 8.87163C2.07295 8.86586 2.04088 8.87646 2.01986 8.90028C1.99903 8.9241 1.99202 8.95741 2.00161 8.98756C2.46526 10.4484 3.75354 11.4728 5.25309 11.6005C4.00224 12.5256 2.5237 13.0129 0.961473 13.0129C0.673694 13.0129 0.383886 12.9956 0.0999786 12.962C0.0594204 12.9573 0.0192308 12.9817 0.00521981 13.0209C-0.00879122 13.0606 0.00614159 13.1049 0.0411692 13.1274C1.73171 14.2218 3.68643 14.8 5.69425 14.8C12.2619 14.8 16.1865 9.41483 16.1865 4.20869C16.1865 4.06372 16.1837 3.9195 16.178 3.77565C16.8865 3.25254 17.4947 2.61219 17.9851 1.87098C18.007 1.83786 18.0046 1.79375 17.979 1.76286Z" fill="white"/>
</svg>
