<svg width="18" height="18" viewBox="0 0 18 18" fill="none" xmlns="http://www.w3.org/2000/svg">
<path fill-rule="evenodd" clip-rule="evenodd" d="M9.00033 0.666626C4.39795 0.666626 0.666992 4.39759 0.666992 8.99996C0.666992 13.6023 4.39795 17.3333 9.00033 17.3333C13.6027 17.3333 17.3337 13.6023 17.3337 8.99996C17.3337 4.39759 13.6027 0.666626 9.00033 0.666626ZM9.00033 4.83329C9.46056 4.83329 9.83366 5.20639 9.83366 5.66663V10.3214L11.7444 8.4107C12.0698 8.08527 12.5975 8.08527 12.9229 8.4107C13.2484 8.73614 13.2484 9.26378 12.9229 9.58922L9.58958 12.9225C9.4333 13.0788 9.22134 13.1666 9.00033 13.1666C8.77931 13.1666 8.56735 13.0788 8.41107 12.9225L5.07774 9.58922C4.7523 9.26378 4.7523 8.73614 5.07774 8.4107C5.40317 8.08527 5.93081 8.08527 6.25625 8.4107L8.16699 10.3214V5.66663C8.16699 5.20639 8.54009 4.83329 9.00033 4.83329Z" fill="#065EA9"/>
</svg>
