<svg width="24" height="24" viewBox="0 0 24 24" fill="none" xmlns="http://www.w3.org/2000/svg">
<path fill-rule="evenodd" clip-rule="evenodd" d="M7.8667 1.25C8.28091 1.25 8.6167 1.58579 8.6167 2V5C8.6167 5.41421 8.28091 5.75 7.8667 5.75C7.45249 5.75 7.1167 5.41421 7.1167 5L7.1167 2C7.1167 1.58579 7.45249 1.25 7.8667 1.25Z" fill="#065EA9"/>
<path fill-rule="evenodd" clip-rule="evenodd" d="M15.7334 1.25C16.1476 1.25 16.4834 1.58579 16.4834 2V5C16.4834 5.41421 16.1476 5.75 15.7334 5.75C15.3192 5.75 14.9834 5.41421 14.9834 5V2C14.9834 1.58579 15.3192 1.25 15.7334 1.25Z" fill="#065EA9"/>
<path fill-rule="evenodd" clip-rule="evenodd" d="M2.69189 9.09C2.69189 8.67578 3.02768 8.34 3.44189 8.34L20.1586 8.34C20.5728 8.34 20.9086 8.67578 20.9086 9.09C20.9086 9.50421 20.5728 9.84 20.1586 9.84L3.44189 9.84C3.02768 9.84 2.69189 9.50421 2.69189 9.09Z" fill="#065EA9"/>
<path fill-rule="evenodd" clip-rule="evenodd" d="M4.67175 5.38072C4.04183 6.07059 3.7002 7.11203 3.7002 8.5L3.7002 17C3.7002 18.388 4.04183 19.4294 4.67175 20.1193C5.29051 20.7969 6.29271 21.25 7.86686 21.25L15.7335 21.25C17.3077 21.25 18.3099 20.7969 18.9286 20.1193C19.5586 19.4294 19.9002 18.388 19.9002 17L19.9002 8.5C19.9002 7.11203 19.5586 6.07059 18.9286 5.38072C18.3099 4.70307 17.3077 4.25 15.7335 4.25L7.86686 4.25C6.29271 4.25 5.29051 4.70307 4.67175 5.38072ZM3.56405 4.36928C4.54321 3.29693 5.99934 2.75 7.86686 2.75L15.7335 2.75C17.601 2.75 19.0572 3.29693 20.0363 4.36928C21.0043 5.42941 21.4002 6.88797 21.4002 8.5L21.4002 17C21.4002 18.612 21.0043 20.0706 20.0363 21.1307C19.0572 22.2031 17.601 22.75 15.7335 22.75L7.86686 22.75C5.99934 22.75 4.54321 22.2031 3.56405 21.1307C2.59606 20.0706 2.2002 18.612 2.2002 17L2.2002 8.5C2.2002 6.88797 2.59606 5.42941 3.56405 4.36928Z" fill="#065EA9"/>
<path fill-rule="evenodd" clip-rule="evenodd" d="M14.4331 13.7C14.4331 13.1477 14.8808 12.7 15.4331 12.7H15.4419C15.9942 12.7 16.4419 13.1477 16.4419 13.7C16.4419 14.2523 15.9942 14.7 15.4419 14.7H15.4331C14.8808 14.7 14.4331 14.2523 14.4331 13.7Z" fill="#065EA9"/>
<path fill-rule="evenodd" clip-rule="evenodd" d="M14.4331 16.7C14.4331 16.1477 14.8808 15.7 15.4331 15.7H15.4419C15.9942 15.7 16.4419 16.1477 16.4419 16.7C16.4419 17.2523 15.9942 17.7 15.4419 17.7H15.4331C14.8808 17.7 14.4331 17.2523 14.4331 16.7Z" fill="#065EA9"/>
<path fill-rule="evenodd" clip-rule="evenodd" d="M10.7954 13.7C10.7954 13.1477 11.2431 12.7 11.7954 12.7H11.8042C12.3565 12.7 12.8042 13.1477 12.8042 13.7C12.8042 14.2523 12.3565 14.7 11.8042 14.7H11.7954C11.2431 14.7 10.7954 14.2523 10.7954 13.7Z" fill="#065EA9"/>
<path fill-rule="evenodd" clip-rule="evenodd" d="M10.7954 16.7C10.7954 16.1477 11.2431 15.7 11.7954 15.7H11.8042C12.3565 15.7 12.8042 16.1477 12.8042 16.7C12.8042 17.2523 12.3565 17.7 11.8042 17.7H11.7954C11.2431 17.7 10.7954 17.2523 10.7954 16.7Z" fill="#065EA9"/>
<path fill-rule="evenodd" clip-rule="evenodd" d="M7.15625 13.7C7.15625 13.1477 7.60397 12.7 8.15625 12.7H8.16508C8.71737 12.7 9.16508 13.1477 9.16508 13.7C9.16508 14.2523 8.71737 14.7 8.16508 14.7H8.15625C7.60397 14.7 7.15625 14.2523 7.15625 13.7Z" fill="#065EA9"/>
<path fill-rule="evenodd" clip-rule="evenodd" d="M7.15625 16.7C7.15625 16.1477 7.60397 15.7 8.15625 15.7H8.16508C8.71737 15.7 9.16508 16.1477 9.16508 16.7C9.16508 17.2523 8.71737 17.7 8.16508 17.7H8.15625C7.60397 17.7 7.15625 17.2523 7.15625 16.7Z" fill="#065EA9"/>
</svg>
