<svg width="28" height="28" viewBox="0 0 28 28" fill="none" xmlns="http://www.w3.org/2000/svg">
<path d="M8.23589 24.9971H19.7639C22.7999 24.9971 24.0099 23.1381 24.1529 20.8721L24.7249 11.7861C24.8789 9.41007 22.9869 7.39707 20.5999 7.39707C19.9289 7.39707 19.3129 7.01207 19.0049 6.41807L18.2129 4.82307C17.7069 3.82207 16.3869 2.99707 15.2649 2.99707H12.7459C11.6129 2.99707 10.2929 3.82207 9.78689 4.82307L8.99489 6.41807C8.68689 7.01207 8.07089 7.39707 7.39989 7.39707C5.01289 7.39707 3.12089 9.41007 3.27489 11.7861L3.84689 20.8721C3.97889 23.1381 5.19989 24.9971 8.23589 24.9971Z" stroke="white" stroke-width="1.5" stroke-linecap="round" stroke-linejoin="round"/>
<path d="M12.3496 9.59668H15.6496" stroke="white" stroke-width="1.5" stroke-linecap="round" stroke-linejoin="round"/>
<path d="M13.9998 20.5973C15.9688 20.5973 17.5748 18.9913 17.5748 17.0223C17.5748 15.0533 15.9688 13.4473 13.9998 13.4473C12.0308 13.4473 10.4248 15.0533 10.4248 17.0223C10.4248 18.9913 12.0308 20.5973 13.9998 20.5973Z" stroke="white" stroke-width="1.5" stroke-linecap="round" stroke-linejoin="round"/>
</svg>
