<svg width="20" height="20" viewBox="0 0 20 20" fill="none" xmlns="http://www.w3.org/2000/svg">
<path d="M5.80774 17.9985H14.1917C16.3997 17.9985 17.2797 16.6465 17.3837 14.9985L17.7997 8.39054C17.9117 6.66253 16.5357 5.19854 14.7997 5.19854C14.3117 5.19854 13.8637 4.91854 13.6397 4.48654L13.0637 3.32654C12.6957 2.59854 11.7357 1.99854 10.9197 1.99854H9.08774C8.26374 1.99854 7.30374 2.59854 6.93574 3.32654L6.35974 4.48654C6.13574 4.91854 5.68774 5.19854 5.19974 5.19854C3.46374 5.19854 2.08774 6.66253 2.19974 8.39054L2.61574 14.9985C2.71174 16.6465 3.59974 17.9985 5.80774 17.9985Z" stroke="white" stroke-width="1.5" stroke-linecap="round" stroke-linejoin="round"/>
<path d="M8.80078 6.79834H11.2008" stroke="white" stroke-width="1.5" stroke-linecap="round" stroke-linejoin="round"/>
<path d="M10.0004 14.7986C11.4324 14.7986 12.6004 13.6306 12.6004 12.1986C12.6004 10.7666 11.4324 9.59863 10.0004 9.59863C8.56839 9.59863 7.40039 10.7666 7.40039 12.1986C7.40039 13.6306 8.56839 14.7986 10.0004 14.7986Z" stroke="white" stroke-width="1.5" stroke-linecap="round" stroke-linejoin="round"/>
</svg>
