<svg width="20" height="20" viewBox="0 0 20 20" fill="none" xmlns="http://www.w3.org/2000/svg">
<path fill-rule="evenodd" clip-rule="evenodd" d="M10.8333 7.5C8.99238 7.5 7.5 8.99238 7.5 10.8333V15C7.5 16.8409 8.99238 18.3333 10.8333 18.3333H15C16.8409 18.3333 18.3333 16.8409 18.3333 15V10.8333C18.3333 8.99238 16.8409 7.5 15 7.5H10.8333Z" fill="#235FAD"/>
<path fill-rule="evenodd" clip-rule="evenodd" d="M5.0013 1.66663C3.16035 1.66663 1.66797 3.15901 1.66797 4.99996V9.16663C1.66797 11.1407 3.13572 12.5 5.0013 12.5C5.46154 12.5 5.83464 12.1269 5.83464 11.6666V10.8333C5.83464 8.07187 8.07321 5.83329 10.8346 5.83329H11.668C12.1282 5.83329 12.5013 5.4602 12.5013 4.99996C12.5013 3.13437 11.142 1.66663 9.16797 1.66663H5.0013Z" fill="#235FAD"/>
</svg>
