<svg width="41" height="40" viewBox="0 0 41 40" fill="none" xmlns="http://www.w3.org/2000/svg">
<path fill-rule="evenodd" clip-rule="evenodd" d="M10.5 0C4.97715 0 0.5 4.47715 0.5 10V30C0.5 35.5228 4.97715 40 10.5 40H30.5C36.0228 40 40.5 35.5228 40.5 30V10C40.5 4.47715 36.0228 0 30.5 0H10.5ZM12.5 14C12.5 12.8954 13.3954 12 14.5 12C15.6046 12 16.5 12.8954 16.5 14C16.5 15.1046 15.6046 16 14.5 16C13.3954 16 12.5 15.1046 12.5 14ZM14.5 8C11.1863 8 8.5 10.6863 8.5 14C8.5 17.3137 11.1863 20 14.5 20C17.8137 20 20.5 17.3137 20.5 14C20.5 10.6863 17.8137 8 14.5 8ZM25.5126 24.4359C26.2081 23.5665 27.4784 23.4333 28.3388 24.1356L32.1818 27.5039C33.0125 28.2319 34.276 28.1487 35.0041 27.3181C35.7321 26.4874 35.649 25.2238 34.8183 24.4958L30.9346 21.0919L30.9155 21.0759C28.3337 18.9245 24.4885 19.3128 22.3892 21.9371L19.1908 25.935C18.5645 26.7179 17.4437 26.8919 16.6096 26.3358C14.0604 24.6364 10.6389 25.1583 8.71171 27.5341L5.98581 30.6933C5.26421 31.5295 5.35718 32.7924 6.19346 33.514C7.02975 34.2356 8.29266 34.1427 9.01426 33.3064L11.7863 30.0938L11.8095 30.0648C12.4358 29.2819 13.5566 29.1079 14.3908 29.664C16.9512 31.371 20.3919 30.8368 22.3143 28.4338L25.5126 24.4359Z" fill="#065EA9"/>
</svg>
