<svg width="20" height="20" viewBox="0 0 20 20" fill="none" xmlns="http://www.w3.org/2000/svg">
<path fill-rule="evenodd" clip-rule="evenodd" d="M4.44379 3.33203C2.90967 3.33203 1.66602 4.61122 1.66602 6.18917V13.8082C1.66602 15.3862 2.90967 16.6654 4.44379 16.6654H15.5549C17.089 16.6654 18.3327 15.3862 18.3327 13.8082V6.18917C18.3327 4.61122 17.089 3.33203 15.5549 3.33203H4.44379ZM6.35326 6.84797C5.99388 6.56047 5.46947 6.61873 5.18196 6.97812C4.89445 7.3375 4.95272 7.86191 5.3121 8.14942L9.47877 11.4828L9.99935 11.8992L10.5199 11.4828L14.6866 8.14942C15.046 7.86191 15.1042 7.3375 14.8167 6.97812C14.5292 6.61873 14.0048 6.56047 13.6454 6.84797L9.99935 9.76484L6.35326 6.84797Z" fill="white"/>
</svg>
