<svg width="20" height="20" viewBox="0 0 20 20" fill="none" xmlns="http://www.w3.org/2000/svg">
<path fill-rule="evenodd" clip-rule="evenodd" d="M10.0908 5.81558C9.5252 3.77188 7.48882 2.50958 5.47366 3.18173C4.16075 3.61963 3.36153 4.43658 3.09659 5.52624C2.85032 6.53907 3.107 7.63206 3.50564 8.59797C4.30841 10.5431 5.89725 12.4702 6.79683 13.3705C7.67567 14.25 9.59999 15.8457 11.5488 16.6558C12.5164 17.058 13.6135 17.3192 14.6309 17.0735C15.726 16.8091 16.547 16.0058 16.9874 14.6836C17.6585 12.6686 16.3985 10.6306 14.3552 10.0643L14.3552 10.0643C12.9586 9.67714 11.4939 10.0463 10.4944 10.9434C10.2597 10.7617 10.0341 10.5633 9.81889 10.3479C9.60264 10.1315 9.40344 9.90448 9.22114 9.66838C10.1112 8.66847 10.4763 7.20821 10.0908 5.81559L10.0908 5.81558Z" fill="white"/>
</svg>
