<svg width="68" height="68" viewBox="0 0 68 68" fill="none" xmlns="http://www.w3.org/2000/svg">
<g clip-path="url(#clip0_1354_22501)">
<path d="M32.7126 0.232422C34.2482 0.721516 35.8114 1.13603 37.3107 1.71531C39.2928 2.47649 41.1547 3.52221 42.838 4.81985C44.8175 6.34089 45.7917 8.31808 45.6327 10.8121C45.5187 12.5465 45.3149 14.2635 45.1716 15.991C45.156 16.1974 45.2096 16.5113 45.3443 16.6119C45.9765 17.0836 46.0732 17.7323 46.0214 18.433C45.9383 19.9289 45.5139 21.3857 44.7812 22.6909C44.5982 23.0129 44.4594 23.3583 44.3684 23.7176C43.4494 27.2315 41.8932 30.3811 39.1399 32.8213C37.4126 34.358 35.4124 35.305 33.0322 35.0309C30.8748 34.7812 29.1371 33.6573 27.624 32.1588C25.2956 29.8452 23.8551 27.0233 23.0052 23.8702C22.8838 23.431 22.7134 23.0068 22.4974 22.6059C21.718 21.2241 21.3158 19.6601 21.3315 18.0722C21.3419 17.623 21.6182 17.127 21.905 16.7541C22.0157 16.6266 22.0967 16.4759 22.1421 16.313C22.1876 16.1501 22.1962 15.979 22.1675 15.8123C21.9948 14.2878 21.8082 12.7616 21.696 11.2301C21.4766 8.19321 22.7185 5.76855 24.9156 3.77228C26.3825 2.44713 28.0698 1.39103 29.9006 0.652141C30.341 0.478703 30.8109 0.369438 31.2686 0.232422H32.7126Z" fill="white"/>
<path d="M60.649 59.2418C52.8274 64.7774 43.4953 67.7549 33.9261 67.768H33.7879C33.6255 67.768 33.4649 67.768 33.3025 67.768C33.2179 67.768 33.1298 67.768 33.0486 67.768C23.7654 67.6341 14.735 64.7109 7.12196 59.3753C7.06784 58.9764 7.02351 58.577 6.98896 58.1769C6.71087 54.9041 6.84733 51.64 7.72306 48.4488C8.95289 43.9255 11.4972 40.599 16.078 39.071C19.0955 38.0633 21.9784 36.7521 24.6211 34.9501C25.1981 34.5564 25.7473 34.1228 26.3381 33.6875C31.4111 38.405 36.0403 38.6704 41.4018 33.6875C41.9528 34.0951 42.4951 34.5287 43.0669 34.9189C45.7269 36.7331 48.6287 38.0547 51.6653 39.0727C56.2392 40.6077 58.8232 43.929 60.0168 48.4557C60.9581 52.0441 61.0825 55.6447 60.649 59.2418Z" fill="white"/>
</g>
<defs>
<clipPath id="clip0_1354_22501">
<rect width="67.5349" height="67.5349" fill="white" transform="translate(0.226562 0.232422)"/>
</clipPath>
</defs>
</svg>
