<svg width="50" height="50" viewBox="0 0 50 50" fill="none" xmlns="http://www.w3.org/2000/svg">
<g clip-path="url(#clip0_2195_40976)">
<path d="M24.0646 0.441406C25.1814 0.797111 26.3182 1.09858 27.4086 1.51987C28.8502 2.07346 30.2043 2.83398 31.4285 3.77772C32.8681 4.88393 33.5766 6.32189 33.4611 8.13573C33.3782 9.39709 33.2299 10.6458 33.1257 11.9022C33.1143 12.0523 33.1533 12.2806 33.2513 12.3537C33.7111 12.6968 33.7814 13.1686 33.7437 13.6782C33.6833 14.7661 33.3747 15.8256 32.8418 16.7748C32.7087 17.009 32.6077 17.2602 32.5415 17.5215C31.8732 20.0771 30.7414 22.3677 28.739 24.1424C27.4828 25.26 26.0281 25.9487 24.297 25.7494C22.728 25.5678 21.4642 24.7504 20.3638 23.6606C18.6704 21.9779 17.6228 19.9257 17.0047 17.6325C16.9164 17.3131 16.7925 17.0046 16.6354 16.713C16.0686 15.7081 15.776 14.5707 15.7874 13.4158C15.795 13.0891 15.996 12.7284 16.2045 12.4572C16.285 12.3644 16.344 12.2548 16.377 12.1364C16.41 12.0179 16.4163 11.8935 16.3954 11.7722C16.2698 10.6635 16.1341 9.5535 16.0525 8.43972C15.893 6.23107 16.7962 4.46768 18.3941 3.01585C19.4609 2.0521 20.688 1.28403 22.0195 0.746656C22.3398 0.62052 22.6815 0.541054 23.0144 0.441406H24.0646Z" fill="white"/>
<path d="M44.3814 43.3564C38.693 47.3823 31.906 49.5477 24.9466 49.5573H24.8461C24.728 49.5573 24.6112 49.5573 24.4931 49.5573C24.4315 49.5573 24.3675 49.5573 24.3084 49.5573C17.557 49.4599 10.9895 47.334 5.45269 43.4536C5.41333 43.1634 5.38109 42.8729 5.35596 42.582C5.15371 40.2018 5.25296 37.8279 5.88985 35.507C6.78428 32.2173 8.63468 29.798 11.9661 28.6868C14.1607 27.9539 16.2574 27.0003 18.1794 25.6898C18.5989 25.4034 18.9984 25.0881 19.428 24.7715C23.1175 28.2024 26.4842 28.3954 30.3835 24.7715C30.7842 25.0679 31.1786 25.3832 31.5944 25.6671C33.529 26.9864 35.6394 27.9476 37.8479 28.688C41.1743 29.8043 43.0536 32.2198 43.9216 35.512C44.6063 38.1218 44.6967 40.7404 44.3814 43.3564Z" fill="white"/>
</g>
<defs>
<clipPath id="clip0_2195_40976">
<rect width="49.1163" height="49.1163" fill="white" transform="translate(0.4375 0.441406)"/>
</clipPath>
</defs>
</svg>
