<svg width="18" height="21" viewBox="0 0 18 21" fill="none" xmlns="http://www.w3.org/2000/svg">
<path d="M13.3867 0.902588C12.1406 1.2229 11.1719 2.19556 10.8516 3.45337C10.7617 3.79712 10.7539 3.89087 10.7695 4.41821C10.7852 5.01196 10.8516 5.33618 11.043 5.76587L11.1016 5.90259L9.28906 7.02759L7.47266 8.15259L7.29688 7.95728C6.88281 7.50024 6.13281 7.04712 5.42578 6.83228C5.09375 6.73071 5.02734 6.72681 4.3125 6.72681C3.59375 6.72681 3.53125 6.73071 3.19922 6.83228C1.77344 7.26978 0.769531 8.27368 0.339844 9.69165C0.238281 10.0237 0.234375 10.0901 0.234375 10.8049C0.234375 11.5198 0.242188 11.5862 0.339844 11.9182C0.765625 13.3284 1.78125 14.344 3.19922 14.7776C3.53125 14.8752 3.59375 14.8831 4.3125 14.8831C5.03125 14.8831 5.09375 14.8752 5.42578 14.7776C6.12891 14.5627 6.69141 14.2346 7.19141 13.7502L7.48828 13.4651L9.29297 14.5862L11.1016 15.7073L11.043 15.844C10.8516 16.2737 10.7852 16.5979 10.7695 17.1917C10.7539 17.719 10.7617 17.8127 10.8516 18.1565C11.1758 19.4221 12.1445 20.3909 13.4023 20.7112C13.9297 20.844 14.6172 20.844 15.1445 20.7112C16.3984 20.3909 17.375 19.4143 17.6953 18.1604C17.8281 17.6331 17.8281 16.9456 17.6953 16.4182C17.375 15.1604 16.4023 14.1877 15.1445 13.8674C14.6172 13.7346 13.9297 13.7346 13.4023 13.8674C12.9375 13.9846 12.4492 14.2268 12.0977 14.5042C11.9531 14.6174 11.8242 14.7073 11.8086 14.7034C11.7969 14.6956 10.9648 14.1838 9.96094 13.5588C8.39453 12.5901 8.13672 12.4182 8.15234 12.3479C8.16016 12.3049 8.21875 12.1096 8.28125 11.9182C8.38672 11.5823 8.39062 11.5315 8.39062 10.8049C8.39062 10.0784 8.38672 10.0276 8.28125 9.69165C8.21875 9.49634 8.16016 9.30493 8.15234 9.26196C8.13672 9.19165 8.39453 9.01978 9.96094 8.05103C10.9648 7.42603 11.7969 6.91431 11.8086 6.90649C11.8242 6.90259 11.9531 6.99243 12.0977 7.10571C12.4492 7.38306 12.9375 7.62524 13.4023 7.74243C13.9297 7.87524 14.6172 7.87524 15.1445 7.74243C16.3984 7.42212 17.375 6.44556 17.6953 5.19165C17.8281 4.66431 17.8281 3.97681 17.6953 3.44946C17.375 2.19165 16.4023 1.21899 15.1445 0.898682C14.6211 0.765869 13.9062 0.769775 13.3867 0.902588Z" fill="#062A49"/>
</svg>
