<svg width="12" height="12" viewBox="0 0 12 12" fill="none" xmlns="http://www.w3.org/2000/svg">
<path fill-rule="evenodd" clip-rule="evenodd" d="M1.5 3.5C1.5 3.22386 1.72386 3 2 3H10C10.2761 3 10.5 3.22386 10.5 3.5C10.5 3.77614 10.2761 4 10 4H2C1.72386 4 1.5 3.77614 1.5 3.5Z" fill="#BD3232"/>
<path fill-rule="evenodd" clip-rule="evenodd" d="M5 5.125C5.20711 5.125 5.375 5.29289 5.375 5.5V8.5C5.375 8.70711 5.20711 8.875 5 8.875C4.79289 8.875 4.625 8.70711 4.625 8.5V5.5C4.625 5.29289 4.79289 5.125 5 5.125Z" fill="#BD3232"/>
<path fill-rule="evenodd" clip-rule="evenodd" d="M7 5.125C7.20711 5.125 7.375 5.29289 7.375 5.5V8.5C7.375 8.70711 7.20711 8.875 7 8.875C6.79289 8.875 6.625 8.70711 6.625 8.5V5.5C6.625 5.29289 6.79289 5.125 7 5.125Z" fill="#BD3232"/>
<path fill-rule="evenodd" clip-rule="evenodd" d="M2.46888 3.12632C2.67527 3.10912 2.85653 3.26249 2.87373 3.46888L3.37373 9.46888C3.37459 9.47924 3.37502 9.48963 3.37502 9.50002C3.37502 9.66578 3.44087 9.82475 3.55808 9.94196C3.67529 10.0592 3.83426 10.125 4.00002 10.125H8.00002C8.16578 10.125 8.32475 10.0592 8.44196 9.94196C8.55917 9.82475 8.62502 9.66578 8.62502 9.50002C8.62502 9.48963 8.62545 9.47924 8.62632 9.46888L9.12632 3.46888C9.14352 3.26249 9.32477 3.10912 9.53116 3.12632C9.73756 3.14352 9.89093 3.32477 9.87373 3.53116L9.37492 9.51685C9.37053 9.87544 9.22619 10.2184 8.97229 10.4723C8.71443 10.7302 8.3647 10.875 8.00002 10.875H4.00002C3.63535 10.875 3.28561 10.7302 3.02775 10.4723C2.77386 10.2184 2.62951 9.87544 2.62512 9.51685L2.12632 3.53116C2.10912 3.32477 2.26249 3.14352 2.46888 3.12632Z" fill="#BD3232"/>
<path fill-rule="evenodd" clip-rule="evenodd" d="M5 1.875C4.96685 1.875 4.93505 1.88817 4.91161 1.91161C4.88817 1.93505 4.875 1.96685 4.875 2V3.5C4.875 3.70711 4.70711 3.875 4.5 3.875C4.29289 3.875 4.125 3.70711 4.125 3.5V2C4.125 1.76794 4.21719 1.54538 4.38128 1.38128C4.54538 1.21719 4.76794 1.125 5 1.125H7C7.23206 1.125 7.45462 1.21719 7.61872 1.38128C7.78281 1.54538 7.875 1.76794 7.875 2V3.5C7.875 3.70711 7.70711 3.875 7.5 3.875C7.29289 3.875 7.125 3.70711 7.125 3.5V2C7.125 1.96685 7.11183 1.93505 7.08839 1.91161C7.06495 1.88817 7.03315 1.875 7 1.875H5Z" fill="#BD3232"/>
</svg>
