<svg width="18" height="18" viewBox="0 0 18 18" fill="none" xmlns="http://www.w3.org/2000/svg">
<path fill-rule="evenodd" clip-rule="evenodd" d="M8.9974 0.666668C4.39502 0.666668 0.664062 4.39763 0.664062 9C0.664062 13.6024 4.39502 17.3333 8.9974 17.3333C13.5998 17.3333 17.3307 13.6024 17.3307 9C17.3307 4.39763 13.5998 0.666668 8.9974 0.666668ZM8.9974 4.83333C9.45763 4.83333 9.83073 5.20643 9.83073 5.66667V10.3215L11.7415 8.41075C12.0669 8.08531 12.5945 8.08531 12.92 8.41075C13.2454 8.73618 13.2454 9.26382 12.92 9.58926L9.58665 12.9226C9.43037 13.0789 9.21841 13.1667 8.9974 13.1667C8.77638 13.1667 8.56442 13.0789 8.40814 12.9226L5.07481 9.58926C4.74937 9.26382 4.74937 8.73618 5.07481 8.41075C5.40024 8.08531 5.92788 8.08531 6.25332 8.41075L8.16406 10.3215V5.66667C8.16406 5.20643 8.53716 4.83333 8.9974 4.83333Z" fill="#065EA9"/>
</svg>
