<svg width="20" height="20" viewBox="0 0 20 20" fill="none" xmlns="http://www.w3.org/2000/svg">
<path d="M9.08594 0.0625C8.46094 0.175781 7.75391 0.464844 7.16797 0.851562C6.81641 1.08203 6.08203 1.81641 5.84766 2.17188C5.45703 2.76953 5.17578 3.46094 5.05859 4.11719C5.01172 4.39062 5 4.78516 5 5.98047V7.5H4.51562C4.14844 7.5 3.97266 7.51953 3.79297 7.57422C3.21875 7.75391 2.73047 8.24609 2.5625 8.82422C2.50781 9.01562 2.5 9.5625 2.5 13.7539C2.5 18.2734 2.50391 18.4805 2.57422 18.707C2.75391 19.2812 3.24609 19.7695 3.82422 19.9375C4.01562 19.9922 4.67188 20 10 20C15.3281 20 15.9844 19.9922 16.1758 19.9375C16.7539 19.7695 17.2461 19.2812 17.4258 18.707C17.4961 18.4805 17.5 18.2734 17.5 13.7539C17.5 9.5625 17.4922 9.01562 17.4375 8.82422C17.2695 8.24609 16.7812 7.75391 16.207 7.57422C16.0273 7.51953 15.8516 7.5 15.4844 7.5H15V5.98047C15 4.30859 14.9766 4.0625 14.7617 3.41797C14.5 2.64062 14.1445 2.07031 13.5391 1.46094C12.7656 0.691406 11.9102 0.238281 10.8711 0.0585938C10.4492 -0.015625 9.50391 -0.0117188 9.08594 0.0625ZM10.875 1.81641C12.0234 2.14844 12.832 2.95703 13.1914 4.12891C13.2969 4.47266 13.2969 4.47266 13.3125 5.98438L13.3281 7.5H10H6.67188L6.6875 5.98438C6.70312 4.47266 6.70312 4.47266 6.80859 4.12891C7.21094 2.82422 8.22656 1.92578 9.54297 1.71484C9.89062 1.66016 10.4961 1.70703 10.875 1.81641ZM10.4766 10.9375C11.332 11.1992 11.8242 12.1133 11.5703 12.957C11.4727 13.2773 11.25 13.6016 11 13.7852L10.8203 13.9219V14.9141C10.8203 16 10.8008 16.1211 10.6133 16.3516C10.2969 16.7305 9.70312 16.7305 9.38672 16.3516C9.19531 16.1211 9.17969 16 9.17969 14.9141V13.918L9.01562 13.8047C8.77734 13.6406 8.53125 13.2812 8.43359 12.9609C8.05859 11.7266 9.24219 10.5547 10.4766 10.9375Z" fill="#065EA9"/>
</svg>
