<svg width="220" height="220" viewBox="0 0 220 220" fill="none" xmlns="http://www.w3.org/2000/svg">
<path d="M187.728 119.667C185.652 108.716 178.944 100.718 170.212 94.2859C163.98 89.6916 158.919 83.6832 154.577 77.2845C148.512 68.3386 143.479 57.1456 133.672 51.6134C119.722 43.7482 106.31 54.4461 95.0032 61.9923C89.071 65.9534 82.7437 70.0859 75.5642 71.2285C65.3281 72.8663 54.9349 68.372 44.7845 71.0762C42.8134 71.1654 40.8753 71.6156 39.0666 72.4045C39.0666 72.4045 26.212 76.6894 22.4032 98.5898C18.5945 120.49 21.9272 153.341 40.0188 172.385C58.1105 191.429 72.3934 193.809 81.9153 194.285C82.1772 194.285 82.4342 194.285 82.6913 194.285C89.0091 195.237 96.4981 194.761 105.068 192.381C132.624 184.725 131.091 167.119 155.586 163.291C180.082 159.463 191.936 141.862 187.728 119.667Z" fill="#065EA9"/>
<path opacity="0.9" d="M187.728 119.667C185.652 108.716 178.944 100.718 170.212 94.2859C163.98 89.6916 158.919 83.6832 154.577 77.2845C148.512 68.3386 143.479 57.1456 133.672 51.6134C119.722 43.7482 106.31 54.4461 95.0032 61.9923C89.071 65.9534 82.7437 70.0859 75.5642 71.2285C65.3281 72.8663 54.9349 68.372 44.7845 71.0762C42.8134 71.1654 40.8753 71.6156 39.0666 72.4045C39.0666 72.4045 26.212 76.6894 22.4032 98.5898C18.5945 120.49 21.9272 153.341 40.0188 172.385C58.1105 191.429 72.3934 193.809 81.9153 194.285C82.1772 194.285 82.4342 194.285 82.6913 194.285C89.0091 195.237 96.4981 194.761 105.068 192.381C132.624 184.725 131.091 167.119 155.586 163.291C180.082 159.463 191.936 141.862 187.728 119.667Z" fill="white"/>
<path d="M98.6359 34.1454C98.6359 34.1454 100.816 32.4219 101.378 31.3173C101.854 30.3652 102.197 29.0416 101.707 28.0418C101.601 27.8007 101.445 27.5846 101.25 27.4078C101.055 27.2309 100.825 27.0972 100.575 27.0154C100.324 26.9336 100.06 26.9056 99.7976 26.9331C99.5358 26.9607 99.2826 27.0432 99.0548 27.1753C97.7075 28.0132 97.5647 30.8603 97.9074 32.2315C97.936 32.3648 98.6121 34.1644 98.6359 34.1454Z" fill="#065EA9"/>
<path d="M78.4638 48.4996C78.5543 48.5853 80.1111 49.7136 80.1159 49.6851C80.1206 49.6565 80.9871 47.0427 80.8443 45.8144C80.7205 44.767 80.273 43.4625 79.3113 42.9007C79.0898 42.7593 78.8409 42.6662 78.5809 42.6276C78.3209 42.5891 78.0557 42.6058 77.8027 42.6768C77.5497 42.7479 77.3145 42.8715 77.1125 43.0397C76.9106 43.2079 76.7464 43.4169 76.6309 43.6529C75.9691 45.0907 77.4212 47.5474 78.4638 48.4996Z" fill="#065EA9"/>
<path d="M124.183 36.7544C124.183 36.7544 116.195 45.0004 116.237 55.127C116.28 65.2535 124.331 73.4329 124.331 73.4329C124.331 73.4329 132.32 65.1869 132.277 55.0603C132.234 44.9337 124.183 36.7544 124.183 36.7544Z" fill="#065EA9"/>
<path d="M112.795 61.1972C112.898 61.0815 112.994 60.959 113.081 60.8306C113.662 59.9498 114.157 58.6691 113.785 57.617C113.707 57.3661 113.576 57.1347 113.401 56.9378C113.227 56.7408 113.013 56.5829 112.774 56.4742C112.534 56.3655 112.275 56.3084 112.012 56.3068C111.749 56.3052 111.489 56.3591 111.248 56.4648C110.162 56.979 109.634 58.7168 109.52 60.1403C109.086 60.0403 108.696 59.9641 108.358 59.907C108.215 59.588 108.072 59.2595 107.925 58.9548C107.777 58.6501 107.658 58.2787 107.52 57.936C107.33 57.4313 107.158 56.8981 106.982 56.3696C107.615 56.0839 109.458 55.227 110.143 54.4652C110.829 53.7035 111.533 52.4894 111.324 51.3944C111.284 51.1346 111.19 50.886 111.047 50.6651C110.905 50.4441 110.718 50.2556 110.498 50.1118C110.278 49.9681 110.03 49.8723 109.77 49.8308C109.51 49.7893 109.245 49.803 108.991 49.8709C107.472 50.347 106.582 53.0322 106.549 54.4462C106.549 54.4938 106.549 54.7937 106.606 55.146C106.453 54.6223 106.296 54.1034 106.163 53.5702C105.773 52.0514 105.42 50.4946 105.063 48.9377C104.992 48.6092 104.911 48.2902 104.835 47.9855C105.368 47.7523 107.368 46.8381 108.087 46.0431C108.805 45.248 109.481 44.0673 109.272 42.9722C109.231 42.7122 109.137 42.4636 108.994 42.2426C108.851 42.0216 108.663 41.8332 108.443 41.6895C108.222 41.5458 107.974 41.4501 107.714 41.4086C107.454 41.3671 107.189 41.3808 106.934 41.4487C105.42 41.9248 104.53 44.61 104.497 46.024C104.497 46.0716 104.525 46.4287 104.563 46.8286C104.354 45.9859 104.14 45.148 103.902 44.3196C103.497 42.9006 102.998 41.5104 102.407 40.1585C102.597 40.0776 104.963 39.054 105.763 38.1684C106.473 37.3876 107.153 36.1926 106.944 35.0976C106.904 34.8378 106.81 34.5893 106.667 34.3683C106.525 34.1473 106.338 33.9588 106.118 33.815C105.897 33.6713 105.65 33.5755 105.39 33.534C105.13 33.4925 104.865 33.5062 104.611 33.5741C103.097 34.0502 102.202 36.7354 102.173 38.1494C102.173 38.2494 102.288 39.5396 102.345 40.0014V39.9538C101.734 38.6386 101.006 37.3813 100.169 36.1974C99.4357 35.1346 98.6409 34.1156 97.7885 33.1456C97.003 32.241 96.2269 31.4555 95.5366 30.7651C95.1557 30.3985 94.8034 30.0653 94.4749 29.7606H94.5082C94.5368 29.7606 93.7655 27.9943 93.7036 27.8895C92.999 26.6659 90.9089 24.7235 89.3616 25.0329C89.1066 25.0965 88.8677 25.2129 88.6605 25.3748C88.4534 25.5366 88.2825 25.7401 88.1591 25.9722C88.0356 26.2043 87.9623 26.4597 87.944 26.7219C87.9256 26.9842 87.9625 27.2473 88.0524 27.4943C88.3999 28.556 89.5711 29.2702 90.5709 29.613C91.5707 29.9558 93.8227 29.7987 94.3797 29.7463C94.7177 30.07 95.0748 30.4223 95.4604 30.8127C96.1365 31.5126 96.8887 32.3124 97.66 33.2313C97.86 33.4741 98.0694 33.7503 98.2789 34.0073C97.8361 33.6408 97.2267 33.1504 97.1601 33.1075C95.9699 32.3505 93.218 31.5888 92.004 32.5981C91.8056 32.7708 91.646 32.9835 91.5357 33.2222C91.4253 33.4609 91.3666 33.7202 91.3634 33.9832C91.3603 34.2462 91.4128 34.5069 91.5174 34.7481C91.622 34.9894 91.7765 35.2059 91.9706 35.3833C92.7657 36.1688 94.1416 36.2593 95.1843 36.1069C96.2269 35.9546 98.217 34.731 98.6408 34.4596C99.093 35.0405 99.5453 35.6499 99.9786 36.3117C100.775 37.5007 101.465 38.7578 102.04 40.0681C102.073 40.1442 102.097 40.2252 102.131 40.3013C101.945 40.0823 100.831 38.9635 100.745 38.8731C99.6453 37.9875 96.9982 36.9258 95.6747 37.7971C95.459 37.9475 95.2775 38.1417 95.142 38.367C95.0064 38.5923 94.9199 38.8437 94.888 39.1047C94.8561 39.3656 94.8795 39.6304 94.9569 39.8817C95.0342 40.1331 95.1636 40.3653 95.3366 40.5632C96.046 41.4297 97.3981 41.6725 98.4503 41.6344C99.6691 41.5916 102.059 40.3823 102.15 40.3394C102.689 41.6603 103.141 43.0154 103.502 44.3958C103.773 45.4146 104.011 46.462 104.235 47.5094C103.987 47.2333 102.954 46.1907 102.868 46.124C101.769 45.2385 99.1216 44.1768 97.7981 45.048C97.5824 45.1985 97.4009 45.3927 97.2654 45.618C97.1298 45.8433 97.0433 46.0946 97.0114 46.3556C96.9795 46.6166 97.0029 46.8814 97.0803 47.1327C97.1576 47.384 97.287 47.6162 97.46 47.8141C98.1694 48.6806 99.5215 48.9235 100.574 48.8854C101.764 48.8425 104.059 47.6951 104.254 47.5999C104.359 48.076 104.459 48.5521 104.559 49.0282C104.882 50.5898 105.201 52.1609 105.558 53.6987C105.682 54.2319 105.825 54.7509 105.968 55.2746C105.577 54.8699 104.859 54.1462 104.792 54.0891C103.692 53.2083 101.04 52.1466 99.7215 53.0131C99.5058 53.1636 99.3243 53.3578 99.1888 53.5831C99.0532 53.8084 98.9667 54.0597 98.9348 54.3207C98.9029 54.5817 98.9264 54.8465 99.0037 55.0978C99.081 55.3491 99.2104 55.5813 99.3835 55.7792C100.088 56.6457 101.445 56.8933 102.497 56.8505C103.549 56.8076 105.511 55.8983 106.058 55.6221C106.296 56.4886 106.534 57.3456 106.849 58.174C106.982 58.5311 107.096 58.9024 107.244 59.2357L107.468 59.7642L107.163 59.7356C107.163 59.7356 107.163 60.2117 107.187 61.0353C106.025 60.2069 104.33 59.4928 103.259 59.9975C103.023 60.1136 102.815 60.278 102.647 60.48C102.479 60.6821 102.356 60.9171 102.285 61.1699C102.214 61.4228 102.197 61.6877 102.235 61.9475C102.274 62.2073 102.366 62.4562 102.507 62.6779C102.578 62.7973 102.659 62.9104 102.749 63.0159C102.96 64.2363 103.478 65.3831 104.254 66.3486C104.311 66.42 105.101 67.1484 105.516 67.5103C105.116 67.296 104.721 67.0818 104.311 66.8532C103.716 66.52 103.102 66.1534 102.502 65.8011L101.578 65.2155C101.264 65.0203 100.983 64.8013 100.678 64.5918C100.24 64.2728 99.8024 63.9253 99.3692 63.5777C99.7405 62.9969 100.797 61.2639 100.955 60.245C101.112 59.2262 101.021 57.8265 100.245 57.0266C100.069 56.8309 99.8542 56.6745 99.6139 56.5674C99.3735 56.4603 99.1134 56.4049 98.8502 56.4049C98.5871 56.4049 98.3269 56.4603 98.0866 56.5674C97.8463 56.6745 97.6312 56.8309 97.4553 57.0266C96.4412 58.2407 97.1934 60.9925 97.9314 62.1875C97.9314 62.2256 98.1409 62.4636 98.3646 62.7398C97.9504 62.3875 97.5315 62.0399 97.122 61.6686C95.9603 60.6211 94.8082 59.5118 93.6513 58.4121L92.9228 57.7265C93.2371 57.2504 94.4035 55.346 94.5654 54.3129C94.7272 53.2797 94.6368 51.8943 93.856 51.0944C93.6801 50.8996 93.4653 50.7438 93.2254 50.6371C92.9855 50.5305 92.7259 50.4754 92.4634 50.4754C92.2009 50.4754 91.9413 50.5305 91.7014 50.6371C91.4615 50.7438 91.2467 50.8996 91.0708 51.0944C90.0567 52.3085 90.8042 55.0603 91.5469 56.2553C91.5755 56.2982 91.7992 56.5791 92.0468 56.8933C91.4136 56.3029 90.7661 55.7221 90.1139 55.1651C88.9932 54.2051 87.8099 53.3208 86.5717 52.518C86.686 52.3466 88.0952 50.1851 88.2714 49.0091C88.4333 47.9617 88.3428 46.5906 87.5667 45.7907C87.3885 45.599 87.1726 45.446 86.9326 45.3414C86.6926 45.2368 86.4336 45.1828 86.1718 45.1828C85.91 45.1828 85.651 45.2368 85.4109 45.3414C85.1709 45.446 84.9551 45.599 84.7768 45.7907C83.7627 47.0048 84.515 49.7566 85.2529 50.9516C85.3053 51.0373 86.1147 52.0466 86.4194 52.3799L86.3765 52.3513C85.1411 51.5937 83.841 50.9469 82.4916 50.4184C81.288 49.9407 80.0576 49.5338 78.8066 49.1996C77.6497 48.8758 76.5689 48.6521 75.612 48.4616C75.0978 48.3617 74.6217 48.2807 74.1837 48.2093H74.2122C74.2122 48.2093 72.6221 47.1429 72.5126 47.0905C71.2462 46.462 68.4324 45.9907 67.3279 47.1238C67.1499 47.3173 67.0146 47.546 66.9307 47.7951C66.8468 48.0442 66.8162 48.3082 66.8409 48.5699C66.8656 48.8316 66.945 49.0852 67.074 49.3143C67.203 49.5433 67.3787 49.7427 67.5897 49.8995C68.4658 50.5946 69.8369 50.5422 70.8605 50.2803C71.8841 50.0185 73.6743 48.633 74.1123 48.2902C74.5884 48.3712 75.0645 48.4664 75.6025 48.5807C76.5546 48.7901 77.6211 49.0568 78.7685 49.3853C79.0732 49.4757 79.3969 49.59 79.7207 49.69C79.1494 49.6281 78.3686 49.5567 78.2924 49.5567C76.8641 49.5567 74.1646 50.4612 73.7076 51.9752C73.6381 52.2288 73.6228 52.4941 73.6627 52.754C73.7026 53.0139 73.7968 53.2624 73.9392 53.4834C74.0816 53.7044 74.269 53.8929 74.4891 54.0367C74.7092 54.1804 74.9572 54.2761 75.2168 54.3176C76.3118 54.5319 77.5116 53.8415 78.2972 53.1464C79.0827 52.4513 80.0682 50.3279 80.273 49.8661C80.9681 50.1042 81.7012 50.3422 82.4059 50.6755C83.7315 51.2255 85.006 51.8915 86.2146 52.6656C86.2813 52.7132 86.3479 52.7703 86.4194 52.8132C86.1432 52.737 84.5959 52.4132 84.4864 52.4037C83.0581 52.2704 80.2825 52.8465 79.6636 54.3081C79.5672 54.5526 79.5234 54.8146 79.5348 55.0771C79.5462 55.3396 79.6126 55.5968 79.7298 55.832C79.8469 56.0672 80.0122 56.2751 80.2148 56.4424C80.4175 56.6096 80.653 56.7324 80.9062 56.8028C81.9726 57.1361 83.239 56.5886 84.096 55.9792C85.0863 55.2698 86.4146 52.9417 86.4765 52.856C87.6526 53.6618 88.7754 54.5428 89.8377 55.4936C90.6328 56.1934 91.4041 56.9219 92.1706 57.6884C91.8088 57.5932 90.371 57.2932 90.2662 57.2837C88.8379 57.1552 86.067 57.7312 85.4434 59.1881C85.3471 59.4326 85.3032 59.6945 85.3146 59.9571C85.326 60.2196 85.3924 60.4767 85.5096 60.7119C85.6267 60.9471 85.792 61.1551 85.9946 61.3224C86.1973 61.4896 86.4328 61.6124 86.686 61.6828C87.7524 62.0161 89.0188 61.4734 89.8758 60.8592C90.828 60.1688 92.1278 57.9407 92.2563 57.755L93.3037 58.7786C94.4368 59.907 95.5652 61.0401 96.7126 62.1113C97.1125 62.4874 97.5172 62.8445 97.9218 63.2016C97.3791 63.0778 96.3793 62.8683 96.2888 62.8636C94.8844 62.7303 92.0897 63.3063 91.466 64.7679C91.3697 65.0127 91.3261 65.275 91.3378 65.5378C91.3495 65.8006 91.4163 66.0579 91.5339 66.2932C91.6516 66.5284 91.8174 66.7363 92.0205 66.9034C92.2237 67.0704 92.4598 67.1928 92.7134 67.2627C93.7798 67.5912 95.0415 67.0484 95.8984 66.439C96.7554 65.8296 97.8838 63.9729 98.1932 63.4492C98.8693 64.0395 99.5549 64.6108 100.259 65.1393C100.569 65.3631 100.869 65.6154 101.174 65.8058L102.083 66.4105C102.716 66.8056 103.306 67.1722 103.906 67.5245L104.792 68.034C104.259 67.8245 103.406 67.5103 103.326 67.4912C101.954 67.1484 99.1073 67.2912 98.2694 68.6386C98.1376 68.8657 98.055 69.1179 98.0268 69.379C97.9987 69.64 98.0257 69.904 98.106 70.154C98.1863 70.4039 98.3182 70.6343 98.4932 70.83C98.6681 71.0258 98.8822 71.1827 99.1216 71.2905C100.126 71.7666 101.459 71.4333 102.397 70.9572C103.435 70.4335 104.997 68.5005 105.187 68.2625C105.916 68.6767 106.615 69.0719 107.296 69.4289C109.091 70.3811 110.629 71.1572 111.867 71.7237C115.814 75.1373 121.389 75.5325 121.389 75.5325C121.389 75.5325 121.684 68.8671 117.766 64.5061C116.373 63.0496 114.676 61.9195 112.795 61.1972ZM105.749 67.6817C105.873 67.4055 106.815 65.3012 106.882 64.1014C107.101 64.0633 107.325 64.0157 107.539 63.9681C107.939 66.069 108.772 68.0635 109.986 69.8241C109.267 69.4813 108.491 69.1052 107.668 68.6862C107.053 68.372 106.411 68.034 105.749 67.6817Z" fill="#065EA9"/>
<path d="M141.904 59.9211C141.904 59.9211 135.238 60.1259 131.177 64.3584C127.116 68.5909 127.145 75.261 127.145 75.261C127.145 75.261 133.81 75.0562 137.871 70.8237C141.932 66.5912 141.904 59.9211 141.904 59.9211Z" fill="#065EA9"/>
<g opacity="0.5">
<path d="M98.6359 34.1454C98.6359 34.1454 100.816 32.4219 101.378 31.3173C101.854 30.3652 102.197 29.0416 101.707 28.0418C101.601 27.8007 101.445 27.5846 101.25 27.4078C101.055 27.2309 100.825 27.0972 100.575 27.0154C100.324 26.9336 100.06 26.9056 99.7976 26.9331C99.5358 26.9607 99.2826 27.0432 99.0548 27.1753C97.7075 28.0132 97.5647 30.8603 97.9074 32.2315C97.936 32.3648 98.6121 34.1644 98.6359 34.1454Z" fill="white"/>
<path d="M78.4638 48.4996C78.5543 48.5853 80.1111 49.7136 80.1159 49.6851C80.1206 49.6565 80.9871 47.0427 80.8443 45.8144C80.7205 44.767 80.273 43.4625 79.3113 42.9007C79.0898 42.7593 78.8409 42.6662 78.5809 42.6276C78.3209 42.5891 78.0557 42.6058 77.8027 42.6768C77.5497 42.7479 77.3145 42.8715 77.1125 43.0397C76.9106 43.2079 76.7464 43.4169 76.6309 43.6529C75.9691 45.0907 77.4212 47.5474 78.4638 48.4996Z" fill="white"/>
<path d="M124.183 36.7544C124.183 36.7544 116.195 45.0004 116.237 55.127C116.28 65.2535 124.331 73.4329 124.331 73.4329C124.331 73.4329 132.32 65.1869 132.277 55.0603C132.234 44.9337 124.183 36.7544 124.183 36.7544Z" fill="white"/>
<path d="M112.795 61.1972C112.898 61.0815 112.994 60.959 113.081 60.8306C113.662 59.9498 114.157 58.6691 113.785 57.617C113.707 57.3661 113.576 57.1347 113.401 56.9378C113.227 56.7408 113.013 56.5829 112.774 56.4742C112.534 56.3655 112.275 56.3084 112.012 56.3068C111.749 56.3052 111.489 56.3591 111.248 56.4648C110.162 56.979 109.634 58.7168 109.52 60.1403C109.086 60.0403 108.696 59.9641 108.358 59.907C108.215 59.588 108.072 59.2595 107.925 58.9548C107.777 58.6501 107.658 58.2787 107.52 57.936C107.33 57.4313 107.158 56.8981 106.982 56.3696C107.615 56.0839 109.458 55.227 110.143 54.4652C110.829 53.7035 111.533 52.4894 111.324 51.3944C111.284 51.1346 111.19 50.886 111.047 50.6651C110.905 50.4441 110.718 50.2556 110.498 50.1118C110.278 49.9681 110.03 49.8723 109.77 49.8308C109.51 49.7893 109.245 49.803 108.991 49.8709C107.472 50.347 106.582 53.0322 106.549 54.4462C106.549 54.4938 106.549 54.7937 106.606 55.146C106.453 54.6223 106.296 54.1034 106.163 53.5702C105.773 52.0514 105.42 50.4946 105.063 48.9377C104.992 48.6092 104.911 48.2902 104.835 47.9855C105.368 47.7523 107.368 46.8381 108.087 46.0431C108.805 45.248 109.481 44.0673 109.272 42.9722C109.231 42.7122 109.137 42.4636 108.994 42.2426C108.851 42.0216 108.663 41.8332 108.443 41.6895C108.222 41.5458 107.974 41.4501 107.714 41.4086C107.454 41.3671 107.189 41.3808 106.934 41.4487C105.42 41.9248 104.53 44.61 104.497 46.024C104.497 46.0716 104.525 46.4287 104.563 46.8286C104.354 45.9859 104.14 45.148 103.902 44.3196C103.497 42.9006 102.998 41.5104 102.407 40.1585C102.597 40.0776 104.963 39.054 105.763 38.1684C106.473 37.3876 107.153 36.1926 106.944 35.0976C106.904 34.8378 106.81 34.5893 106.667 34.3683C106.525 34.1473 106.338 33.9588 106.118 33.815C105.897 33.6713 105.65 33.5755 105.39 33.534C105.13 33.4925 104.865 33.5062 104.611 33.5741C103.097 34.0502 102.202 36.7354 102.173 38.1494C102.173 38.2494 102.288 39.5396 102.345 40.0014V39.9538C101.734 38.6386 101.006 37.3813 100.169 36.1974C99.4357 35.1346 98.6409 34.1156 97.7885 33.1456C97.003 32.241 96.2269 31.4555 95.5366 30.7651C95.1557 30.3985 94.8034 30.0653 94.4749 29.7606H94.5082C94.5368 29.7606 93.7655 27.9943 93.7036 27.8895C92.999 26.6659 90.9089 24.7235 89.3616 25.0329C89.1066 25.0965 88.8677 25.2129 88.6605 25.3748C88.4534 25.5366 88.2825 25.7401 88.1591 25.9722C88.0356 26.2043 87.9623 26.4597 87.944 26.7219C87.9256 26.9842 87.9625 27.2473 88.0524 27.4943C88.3999 28.556 89.5711 29.2702 90.5709 29.613C91.5707 29.9558 93.8227 29.7987 94.3797 29.7463C94.7177 30.07 95.0748 30.4223 95.4604 30.8127C96.1365 31.5126 96.8887 32.3124 97.66 33.2313C97.86 33.4741 98.0694 33.7503 98.2789 34.0073C97.8361 33.6408 97.2267 33.1504 97.1601 33.1075C95.9699 32.3505 93.218 31.5888 92.004 32.5981C91.8056 32.7708 91.646 32.9835 91.5357 33.2222C91.4253 33.4609 91.3666 33.7202 91.3634 33.9832C91.3603 34.2462 91.4128 34.5069 91.5174 34.7481C91.622 34.9894 91.7765 35.2059 91.9706 35.3833C92.7657 36.1688 94.1416 36.2593 95.1843 36.1069C96.2269 35.9546 98.217 34.731 98.6408 34.4596C99.093 35.0405 99.5453 35.6499 99.9786 36.3117C100.775 37.5007 101.465 38.7578 102.04 40.0681C102.073 40.1442 102.097 40.2252 102.131 40.3013C101.945 40.0823 100.831 38.9635 100.745 38.8731C99.6453 37.9875 96.9982 36.9258 95.6747 37.7971C95.459 37.9475 95.2775 38.1417 95.142 38.367C95.0064 38.5923 94.9199 38.8437 94.888 39.1047C94.8561 39.3656 94.8795 39.6304 94.9569 39.8817C95.0342 40.1331 95.1636 40.3653 95.3366 40.5632C96.046 41.4297 97.3981 41.6725 98.4503 41.6344C99.6691 41.5916 102.059 40.3823 102.15 40.3394C102.689 41.6603 103.141 43.0154 103.502 44.3958C103.773 45.4146 104.011 46.462 104.235 47.5094C103.987 47.2333 102.954 46.1907 102.868 46.124C101.769 45.2385 99.1216 44.1768 97.7981 45.048C97.5824 45.1985 97.4009 45.3927 97.2654 45.618C97.1298 45.8433 97.0433 46.0946 97.0114 46.3556C96.9795 46.6166 97.0029 46.8814 97.0803 47.1327C97.1576 47.384 97.287 47.6162 97.46 47.8141C98.1694 48.6806 99.5215 48.9235 100.574 48.8854C101.764 48.8425 104.059 47.6951 104.254 47.5999C104.359 48.076 104.459 48.5521 104.559 49.0282C104.882 50.5898 105.201 52.1609 105.558 53.6987C105.682 54.2319 105.825 54.7509 105.968 55.2746C105.577 54.8699 104.859 54.1462 104.792 54.0891C103.692 53.2083 101.04 52.1466 99.7215 53.0131C99.5058 53.1636 99.3243 53.3578 99.1888 53.5831C99.0532 53.8084 98.9667 54.0597 98.9348 54.3207C98.9029 54.5817 98.9264 54.8465 99.0037 55.0978C99.081 55.3491 99.2104 55.5813 99.3835 55.7792C100.088 56.6457 101.445 56.8933 102.497 56.8505C103.549 56.8076 105.511 55.8983 106.058 55.6221C106.296 56.4886 106.534 57.3456 106.849 58.174C106.982 58.5311 107.096 58.9024 107.244 59.2357L107.468 59.7642L107.163 59.7356C107.163 59.7356 107.163 60.2117 107.187 61.0353C106.025 60.2069 104.33 59.4928 103.259 59.9975C103.023 60.1136 102.815 60.278 102.647 60.48C102.479 60.6821 102.356 60.9171 102.285 61.1699C102.214 61.4228 102.197 61.6877 102.235 61.9475C102.274 62.2073 102.366 62.4562 102.507 62.6779C102.578 62.7973 102.659 62.9104 102.749 63.0159C102.96 64.2363 103.478 65.3831 104.254 66.3486C104.311 66.42 105.101 67.1484 105.516 67.5103C105.116 67.296 104.721 67.0818 104.311 66.8532C103.716 66.52 103.102 66.1534 102.502 65.8011L101.578 65.2155C101.264 65.0203 100.983 64.8013 100.678 64.5918C100.24 64.2728 99.8024 63.9253 99.3692 63.5777C99.7405 62.9969 100.797 61.2639 100.955 60.245C101.112 59.2262 101.021 57.8265 100.245 57.0266C100.069 56.8309 99.8542 56.6745 99.6139 56.5674C99.3735 56.4603 99.1134 56.4049 98.8502 56.4049C98.5871 56.4049 98.3269 56.4603 98.0866 56.5674C97.8463 56.6745 97.6312 56.8309 97.4553 57.0266C96.4412 58.2407 97.1934 60.9925 97.9314 62.1875C97.9314 62.2256 98.1409 62.4636 98.3646 62.7398C97.9504 62.3875 97.5315 62.0399 97.122 61.6686C95.9603 60.6211 94.8082 59.5118 93.6513 58.4121L92.9228 57.7265C93.2371 57.2504 94.4035 55.346 94.5654 54.3129C94.7272 53.2797 94.6368 51.8943 93.856 51.0944C93.6801 50.8996 93.4653 50.7438 93.2254 50.6371C92.9855 50.5305 92.7259 50.4754 92.4634 50.4754C92.2009 50.4754 91.9413 50.5305 91.7014 50.6371C91.4615 50.7438 91.2467 50.8996 91.0708 51.0944C90.0567 52.3085 90.8042 55.0603 91.5469 56.2553C91.5755 56.2982 91.7992 56.5791 92.0468 56.8933C91.4136 56.3029 90.7661 55.7221 90.1139 55.1651C88.9932 54.2051 87.8099 53.3208 86.5717 52.518C86.686 52.3466 88.0952 50.1851 88.2714 49.0091C88.4333 47.9617 88.3428 46.5906 87.5667 45.7907C87.3885 45.599 87.1726 45.446 86.9326 45.3414C86.6926 45.2368 86.4336 45.1828 86.1718 45.1828C85.91 45.1828 85.651 45.2368 85.4109 45.3414C85.1709 45.446 84.9551 45.599 84.7768 45.7907C83.7627 47.0048 84.515 49.7566 85.2529 50.9516C85.3053 51.0373 86.1147 52.0466 86.4194 52.3799L86.3765 52.3513C85.1411 51.5937 83.841 50.9469 82.4916 50.4184C81.288 49.9407 80.0576 49.5338 78.8066 49.1996C77.6497 48.8758 76.5689 48.6521 75.612 48.4616C75.0978 48.3617 74.6217 48.2807 74.1837 48.2093H74.2122C74.2122 48.2093 72.6221 47.1429 72.5126 47.0905C71.2462 46.462 68.4324 45.9907 67.3279 47.1238C67.1499 47.3173 67.0146 47.546 66.9307 47.7951C66.8468 48.0442 66.8162 48.3082 66.8409 48.5699C66.8656 48.8316 66.945 49.0852 67.074 49.3143C67.203 49.5433 67.3787 49.7427 67.5897 49.8995C68.4658 50.5946 69.8369 50.5422 70.8605 50.2803C71.8841 50.0185 73.6743 48.633 74.1123 48.2902C74.5884 48.3712 75.0645 48.4664 75.6025 48.5807C76.5546 48.7901 77.6211 49.0568 78.7685 49.3853C79.0732 49.4757 79.3969 49.59 79.7207 49.69C79.1494 49.6281 78.3686 49.5567 78.2924 49.5567C76.8641 49.5567 74.1646 50.4612 73.7076 51.9752C73.6381 52.2288 73.6228 52.4941 73.6627 52.754C73.7026 53.0139 73.7968 53.2624 73.9392 53.4834C74.0816 53.7044 74.269 53.8929 74.4891 54.0367C74.7092 54.1804 74.9572 54.2761 75.2168 54.3176C76.3118 54.5319 77.5116 53.8415 78.2972 53.1464C79.0827 52.4513 80.0682 50.3279 80.273 49.8661C80.9681 50.1042 81.7012 50.3422 82.4059 50.6755C83.7315 51.2255 85.006 51.8915 86.2146 52.6656C86.2813 52.7132 86.3479 52.7703 86.4194 52.8132C86.1432 52.737 84.5959 52.4132 84.4864 52.4037C83.0581 52.2704 80.2825 52.8465 79.6636 54.3081C79.5672 54.5526 79.5234 54.8146 79.5348 55.0771C79.5462 55.3396 79.6126 55.5968 79.7298 55.832C79.8469 56.0672 80.0122 56.2751 80.2148 56.4424C80.4175 56.6096 80.653 56.7324 80.9062 56.8028C81.9726 57.1361 83.239 56.5886 84.096 55.9792C85.0863 55.2698 86.4146 52.9417 86.4765 52.856C87.6526 53.6618 88.7754 54.5428 89.8377 55.4936C90.6328 56.1934 91.4041 56.9219 92.1706 57.6884C91.8088 57.5932 90.371 57.2932 90.2662 57.2837C88.8379 57.1552 86.067 57.7312 85.4434 59.1881C85.3471 59.4326 85.3032 59.6945 85.3146 59.9571C85.326 60.2196 85.3924 60.4767 85.5096 60.7119C85.6267 60.9471 85.792 61.1551 85.9946 61.3224C86.1973 61.4896 86.4328 61.6124 86.686 61.6828C87.7524 62.0161 89.0188 61.4734 89.8758 60.8592C90.828 60.1688 92.1278 57.9407 92.2563 57.755L93.3037 58.7786C94.4368 59.907 95.5652 61.0401 96.7126 62.1113C97.1125 62.4874 97.5172 62.8445 97.9218 63.2016C97.3791 63.0778 96.3793 62.8683 96.2888 62.8636C94.8844 62.7303 92.0897 63.3063 91.466 64.7679C91.3697 65.0127 91.3261 65.275 91.3378 65.5378C91.3495 65.8006 91.4163 66.0579 91.5339 66.2932C91.6516 66.5284 91.8174 66.7363 92.0205 66.9034C92.2237 67.0704 92.4598 67.1928 92.7134 67.2627C93.7798 67.5912 95.0415 67.0484 95.8984 66.439C96.7554 65.8296 97.8838 63.9729 98.1932 63.4492C98.8693 64.0395 99.5549 64.6108 100.259 65.1393C100.569 65.3631 100.869 65.6154 101.174 65.8058L102.083 66.4105C102.716 66.8056 103.306 67.1722 103.906 67.5245L104.792 68.034C104.259 67.8245 103.406 67.5103 103.326 67.4912C101.954 67.1484 99.1073 67.2912 98.2694 68.6386C98.1376 68.8657 98.055 69.1179 98.0268 69.379C97.9987 69.64 98.0257 69.904 98.106 70.154C98.1863 70.4039 98.3182 70.6343 98.4932 70.83C98.6681 71.0258 98.8822 71.1827 99.1216 71.2905C100.126 71.7666 101.459 71.4333 102.397 70.9572C103.435 70.4335 104.997 68.5005 105.187 68.2625C105.916 68.6767 106.615 69.0719 107.296 69.4289C109.091 70.3811 110.629 71.1572 111.867 71.7237C115.814 75.1373 121.389 75.5325 121.389 75.5325C121.389 75.5325 121.684 68.8671 117.766 64.5061C116.373 63.0496 114.676 61.9195 112.795 61.1972ZM105.749 67.6817C105.873 67.4055 106.815 65.3012 106.882 64.1014C107.101 64.0633 107.325 64.0157 107.539 63.9681C107.939 66.069 108.772 68.0635 109.986 69.8241C109.267 69.4813 108.491 69.1052 107.668 68.6862C107.053 68.372 106.411 68.034 105.749 67.6817Z" fill="white"/>
<path d="M141.904 59.9211C141.904 59.9211 135.238 60.1259 131.177 64.3584C127.116 68.5909 127.145 75.261 127.145 75.261C127.145 75.261 133.81 75.0562 137.871 70.8237C141.932 66.5912 141.904 59.9211 141.904 59.9211Z" fill="white"/>
</g>
<path d="M124.512 64.2109L131.044 58.3358L130.768 58.0216L124.507 63.6491L124.474 55.9506L124.507 55.9744L130.035 47.8903L129.692 47.6522L124.469 55.2841L124.393 36.7544L123.974 36.7592L124.026 49.3329L119.865 45.7336L119.594 46.0478L124.031 49.8899L124.069 58.8786L117.761 53.3035L117.485 53.613L124.069 59.4404L124.107 67.6292L119.365 63.9109L119.108 64.2394L124.107 68.1625L124.131 73.4329H124.55L124.507 64.2061L124.512 64.2109Z" fill="white"/>
<path d="M118.489 66.477L118.075 66.4294L117.546 71.0809L114.742 67.9481H114.747L114.033 62.3159L113.619 62.3683L114.257 67.4054L107.282 59.6069L106.968 59.8878L111.7 65.1773L108.705 65.2153L108.71 65.6343L112.071 65.5915L115.39 69.3003L110.705 69.305V69.724L115.766 69.7192L118.78 73.09L115.475 73.2899L115.504 73.7089L119.137 73.4899L121.146 75.7371L121.46 75.4562L117.923 71.4998L118.489 66.477Z" fill="white"/>
<path d="M134.281 68.1339L139.842 67.0056L139.761 66.5961L134.786 67.6055L142.042 60.0689L141.737 59.7784L136.814 64.8917L136.557 61.9066L136.138 61.9447L136.429 65.2916L132.977 68.8766L132.625 64.2061L132.206 64.2395L132.586 69.2813L129.449 72.5426L129.006 69.2623L128.592 69.3194L129.078 72.9282L126.988 75.0992L127.292 75.3896L130.972 71.5666L136.024 71.7618L136.043 71.3428L131.363 71.1619L134.281 68.1292V68.1339Z" fill="white"/>
<path d="M70.2892 132.721C70.6653 134.592 75.1597 135.344 75.1597 135.344L78.4924 133.44C79.8873 145.152 81.1252 154.712 81.5394 155.545C82.663 157.792 90.9042 154.798 91.6517 151.051C91.9564 149.537 90.4805 139.325 88.6189 127.698L100.264 121.09C100.264 121.09 100.774 119.419 97.1506 120.067C95.8842 120.295 92.1897 121.671 87.9334 123.452C85.3148 107.407 82.2869 90.3819 82.2869 90.3819C82.2869 90.3819 121.984 133.45 123.86 133.45C125.735 133.45 128.354 133.078 127.23 129.708C126.107 126.337 82.2869 84.3926 82.2869 84.3926C82.2869 84.3926 74.7979 84.0165 73.3029 87.3873C73.3029 87.3873 75.6406 109.059 77.8496 127.97C73.4648 130.107 70.1464 132.007 70.2892 132.721Z" fill="#263238"/>
<path d="M158.833 121.68C158.784 119.742 158.592 117.81 158.257 115.901C157.595 112.08 156.378 108.376 154.644 104.908C153.797 103.188 152.828 101.532 151.744 99.9513C150.684 98.3768 149.523 96.8723 148.269 95.4475C147.036 94.0261 145.718 92.681 144.322 91.4197C141.565 88.9343 138.581 86.7124 135.41 84.7829C122.812 77.132 108.272 73.6232 93.8749 73.8327C90.2746 73.9326 86.6878 74.3178 83.1484 74.9848C79.6049 75.6361 76.1402 76.6607 72.8124 78.0414C69.5042 79.4291 66.381 81.2218 63.5142 83.3784C60.6796 85.5004 58.0924 87.9342 55.8014 90.6341C55.7606 90.6782 55.7379 90.736 55.7379 90.796C55.7379 90.856 55.7606 90.9139 55.8014 90.9579C55.8236 90.9802 55.8499 90.9979 55.8789 91.01C55.9079 91.0221 55.939 91.0283 55.9705 91.0283C56.0019 91.0283 56.033 91.0221 56.062 91.01C56.091 90.9979 56.1173 90.9802 56.1395 90.9579C58.5391 88.4438 61.2141 86.2079 64.1141 84.2925C66.9905 82.3435 70.0958 80.7557 73.3599 79.5649C79.8967 77.1844 86.9001 76.2846 93.832 76.3512C100.794 76.4556 107.711 77.4899 114.399 79.4268C121.096 81.3281 127.482 84.1856 133.362 87.9109C139.185 91.6673 144.436 96.4187 148.245 102.194C149.203 103.633 150.056 105.14 150.797 106.702C152.3 109.815 153.341 113.13 153.887 116.543C154.16 118.249 154.308 119.972 154.33 121.699C154.347 123.425 154.255 125.151 154.053 126.865C153.925 127.717 153.806 128.57 153.639 129.417L153.349 130.674L153.206 131.302L153.02 131.921C152.053 135.235 150.594 138.385 148.693 141.267C144.884 147.028 139.471 151.641 133.481 155.074C127.433 158.489 120.867 160.892 114.042 162.187C107.217 163.51 100.245 163.91 93.3131 163.377C92.4418 163.339 91.5801 163.22 90.7184 163.144C90.2851 163.096 89.8519 163.058 89.4234 163.006L88.1379 162.81C87.281 162.668 86.4192 162.572 85.5718 162.391L83.0485 161.911C82.6228 161.826 82.2017 161.719 81.7868 161.592L80.5347 161.244C79.6967 161.011 78.8588 160.792 78.0447 160.492L75.5833 159.649L73.1695 158.673C72.7695 158.506 72.3648 158.349 71.9697 158.173L70.7937 157.626C70.0129 157.245 69.2178 156.897 68.4513 156.493C66.9326 155.65 65.3853 154.86 63.9379 153.898L62.8382 153.207L62.2859 152.86L61.7574 152.484L59.6388 150.96C58.9294 150.456 58.2771 149.88 57.5963 149.342L56.587 148.523C56.2442 148.256 55.9395 147.942 55.6348 147.656L53.7304 145.895L51.9213 144.005C51.6261 143.686 51.3166 143.386 51.0357 143.052L50.2026 142.053L49.3694 141.053C49.098 140.715 48.8028 140.396 48.5648 140.034L47.0508 137.92L46.6699 137.392L46.3319 136.835L45.6368 135.725C44.7399 134.243 43.9184 132.715 43.1754 131.15C41.7219 128.003 40.7109 124.671 40.1712 121.247C39.6673 117.817 39.6849 114.331 40.2236 110.906C40.767 107.475 41.7711 104.133 43.2087 100.97C44.6579 97.8129 46.4441 94.8215 48.5362 92.0481C52.763 86.5081 57.8809 81.7088 63.6808 77.8462C63.7322 77.813 63.7684 77.761 63.7818 77.7013C63.7951 77.6416 63.7845 77.5791 63.7523 77.5272C63.7197 77.474 63.6675 77.4356 63.6069 77.4205C63.5464 77.4054 63.4823 77.4146 63.4285 77.4463C60.3921 79.2496 57.4999 81.2855 54.7778 83.5355C52.0439 85.8212 49.5244 88.3519 47.2508 91.0959C44.9365 93.8753 42.9478 96.9103 41.3234 100.142C39.6682 103.429 38.4655 106.925 37.7479 110.535C37.048 114.208 36.9131 117.967 37.3479 121.68C37.8187 125.404 38.8024 129.044 40.2712 132.497C41.7551 135.904 43.5985 139.142 45.7701 142.157C46.0224 142.548 46.3271 142.895 46.608 143.262L47.4745 144.352L48.3363 145.438C48.6314 145.795 48.9552 146.128 49.2599 146.471L51.1357 148.518L53.1305 150.422C53.4686 150.737 53.7876 151.075 54.1399 151.375L55.1968 152.27C55.9062 152.855 56.587 153.484 57.325 154.036L59.5388 155.721L60.0958 156.135L60.6672 156.516L61.8241 157.278C63.3381 158.34 64.9758 159.183 66.585 160.135C67.3944 160.573 68.2323 160.958 69.056 161.377L70.2986 161.987C70.7176 162.182 71.146 162.353 71.5698 162.534L74.1216 163.61L76.7354 164.562C77.6019 164.896 78.4922 165.143 79.3825 165.405L80.7156 165.795C81.1583 165.929 81.6059 166.057 82.0629 166.153L84.7767 166.776C85.686 166.986 86.6144 167.105 87.5333 167.252L88.914 167.481C89.3901 167.548 89.8233 167.59 90.2756 167.647C91.1849 167.743 92.0943 167.881 93.0084 167.938C96.6629 168.274 100.337 168.34 104.001 168.138C107.677 167.95 111.336 167.513 114.952 166.829C122.289 165.479 129.355 162.933 135.867 159.292C142.365 155.536 148.302 150.427 152.587 143.914C154.728 140.63 156.363 137.043 157.439 133.273L157.643 132.569L157.81 131.85L158.129 130.422C158.315 129.469 158.448 128.479 158.605 127.513C158.82 125.576 158.896 123.627 158.833 121.68Z" fill="#263238"/>
<path d="M93.2989 90.382C93.4328 90.6656 93.6443 90.9055 93.9088 91.0741C94.1734 91.2426 94.4802 91.3327 94.7939 91.3342C95.0484 91.3358 95.2996 91.2771 95.527 91.1628L102.192 87.892L106.558 91.6055C106.723 91.7571 106.917 91.8737 107.129 91.9485C107.34 92.0232 107.564 92.0546 107.788 92.0407C108.012 92.0268 108.23 91.968 108.431 91.8676C108.631 91.7673 108.809 91.6275 108.954 91.4567C109.099 91.2859 109.209 91.0876 109.275 90.8737C109.342 90.6597 109.365 90.4344 109.343 90.2114C109.32 89.9884 109.253 89.7722 109.145 89.5757C109.037 89.3792 108.891 89.2065 108.715 89.068L105.449 86.2876L109.129 84.4736C109.328 84.3748 109.505 84.2379 109.65 84.0707C109.796 83.9035 109.907 83.7092 109.978 83.499C110.048 83.2888 110.077 83.0667 110.061 82.8455C110.046 82.6243 109.987 82.4083 109.889 82.2098C109.79 82.0113 109.653 81.8342 109.486 81.6886C109.318 81.543 109.124 81.4318 108.914 81.3612C108.704 81.2907 108.482 81.2623 108.26 81.2776C108.039 81.2929 107.823 81.3516 107.625 81.4504L102.649 83.9023L99.1549 80.9267C98.8184 80.6401 98.3818 80.4989 97.9412 80.5341C97.5006 80.5694 97.092 80.7783 96.8054 81.1148C96.5187 81.4513 96.3775 81.8879 96.4128 82.3285C96.4481 82.7691 96.6569 83.1777 96.9934 83.4643L99.3739 85.5068L94.0226 88.1396C93.6293 88.341 93.3321 88.6904 93.1964 89.1109C93.0607 89.5314 93.0976 89.9886 93.2989 90.382Z" fill="#263238"/>
<path opacity="0.3" d="M197.131 190L165.808 176.317C162 173.075 157.491 169.333 156.762 169.147C155.439 168.814 156.101 167.162 158.419 163.187C160.738 159.211 144.408 151.598 140.232 152.003C136.9 152.332 132.929 151.66 131.496 151.384C132.691 147.837 133.924 144.319 133.924 144.319L117.694 137.216L104.768 117.496L100.731 118.781C100.731 118.781 106.387 131.693 113.019 146.476C110.572 145.695 105.596 144.633 105.101 148.613C104.44 153.907 108.41 157.883 112.381 157.883C114.571 157.883 116.666 157.783 118.094 157.692C125.335 173.627 132.377 188.567 133.577 189.329C136.228 190.986 145.479 193.3 145.827 190.986C146.174 188.672 136.557 171.785 136.557 171.785C136.557 171.785 187.537 191.976 192.846 191.976C198.154 191.976 197.131 190 197.131 190ZM148.807 161.52C148.807 161.52 147.331 165.762 147.545 168.328L138.852 164.52L148.807 161.52ZM125.302 143.976L124.14 147.08L121.484 143.024L125.302 143.976Z" fill="black"/>
<path d="M177.325 87.4253C177.325 87.4253 178.358 85.2257 177.711 83.5404C177.063 81.855 165.151 79.1365 165.151 79.1365C165.151 79.1365 162.428 79.1365 162.557 80.6885C162.685 82.2406 172.531 88.2014 173.307 88.7203C174.083 89.2392 177.063 90.4057 177.325 87.4253Z" fill="white" stroke="#263238" stroke-width="0.476096" stroke-linecap="round" stroke-linejoin="round"/>
<path d="M168.517 86.1305C168.886 85.478 169.387 84.9103 169.989 84.4641C170.591 84.0179 171.28 83.7032 172.012 83.5405C174.473 83.0216 177.725 84.707 178.101 87.4255C178.477 90.144 176.416 91.439 175.121 91.439C173.826 91.439 172.659 89.625 172.659 89.625C172.659 89.625 168.517 88.073 168.517 86.1305Z" fill="white" stroke="#263238" stroke-width="0.476096" stroke-linecap="round" stroke-linejoin="round"/>
<path d="M165.328 98.9133C165.825 100.103 166.583 101.167 167.545 102.026C168.507 102.886 169.65 103.519 170.888 103.879C175.259 105.269 183.4 103.284 188.166 103.879L191.737 107.654L186.181 111.225C182.076 109.868 177.899 108.741 173.669 107.85C167.07 106.493 162.947 100.304 162.947 100.304L165.328 98.9133Z" fill="#263238"/>
<path d="M103.373 116.943L100.736 118.781L101.997 119.695L104.064 119.01L103.373 116.943Z" fill="#263238" stroke="#263238" stroke-width="0.476096" stroke-linecap="round" stroke-linejoin="round"/>
<path d="M163.295 72.752C163.295 72.752 162.162 72.3378 161.133 71.8236C160.105 71.3094 161.233 73.6756 161.647 73.7804C162.062 73.8851 163.076 74.0898 163.076 74.0898L163.295 72.752Z" fill="white" stroke="#263238" stroke-width="0.476096" stroke-linecap="round" stroke-linejoin="round"/>
<path d="M108.034 109.807L102.921 116.6C102.744 116.834 102.636 117.113 102.609 117.405C102.582 117.697 102.637 117.99 102.769 118.253C102.92 118.556 103.166 118.802 103.468 118.955C103.771 119.107 104.115 119.158 104.449 119.1L111.867 117.81L192.103 71.6808C193.021 71.1463 193.822 70.433 194.459 69.5831C195.097 68.7333 195.557 67.7642 195.812 66.7333C196.068 65.7024 196.114 64.6306 195.948 63.5815C195.782 62.5324 195.407 61.5273 194.846 60.6258C194.288 59.7325 193.557 58.9592 192.697 58.3512C191.838 57.7431 190.865 57.3124 189.837 57.0841C188.809 56.8559 187.745 56.8347 186.709 57.0218C185.672 57.2089 184.684 57.6006 183.8 58.1739L108.034 109.807Z" fill="#065EA9" stroke="#263238" stroke-width="0.476096" stroke-linecap="round" stroke-linejoin="round"/>
<path d="M183.8 58.1739L162.414 72.9329C162.614 76.6369 164.204 81.5407 170.684 83.707L192.108 71.6665C193.048 71.1481 193.874 70.4442 194.534 69.5975C195.194 68.7508 195.675 67.7788 195.949 66.7405C196.222 65.7022 196.282 64.6192 196.125 63.5571C195.967 62.495 195.596 61.4759 195.033 60.5616C194.47 59.6473 193.727 58.8568 192.85 58.2381C191.972 57.6193 190.978 57.1852 189.928 56.9619C188.878 56.7387 187.793 56.731 186.74 56.9393C185.686 57.1476 184.686 57.5677 183.8 58.1739Z" fill="#263238" stroke="#263238" stroke-width="0.476096" stroke-linecap="round" stroke-linejoin="round"/>
<path d="M102.768 118.252C102.92 118.556 103.166 118.802 103.468 118.955C103.771 119.107 104.115 119.158 104.449 119.1L111.867 117.81C105.868 115.477 108.058 109.807 108.058 109.807L102.945 116.6C102.764 116.832 102.651 117.109 102.62 117.401C102.589 117.693 102.641 117.988 102.768 118.252Z" fill="#065EA9" stroke="#263238" stroke-width="0.476096" stroke-linecap="round" stroke-linejoin="round"/>
<path d="M156.715 75.1182C156.715 75.1182 155.563 75.1182 155.563 75.6419C155.563 76.1656 155.263 78.0224 155.929 77.97C156.596 77.9176 156.534 76.7464 156.591 76.337C156.648 75.9275 156.715 75.1182 156.715 75.1182Z" fill="white" stroke="#263238" stroke-width="0.476096" stroke-linecap="round" stroke-linejoin="round"/>
<path d="M157.977 73.2186C157.977 73.2186 156.944 72.9044 156.71 73.5376C156.477 74.1708 156.234 77.1749 156.944 77.0988C157.653 77.0226 157.815 74.3089 157.977 73.2186Z" fill="white" stroke="#263238" stroke-width="0.476096" stroke-linecap="round" stroke-linejoin="round"/>
<path d="M159.557 73.3804C159.557 73.3804 158.372 72.352 157.977 73.2185C157.582 74.085 157.501 76.5512 157.977 76.5512C158.453 76.5512 159.162 75.5228 159.319 74.9706C159.438 74.4471 159.518 73.9156 159.557 73.3804Z" fill="white" stroke="#263238" stroke-width="0.476096" stroke-linecap="round" stroke-linejoin="round"/>
<path d="M161.219 73.8328C161.219 73.8328 159.714 72.5664 159.476 72.8045C159.238 73.0425 158.291 75.4801 159 75.9705C159.71 76.4609 160.614 74.2756 160.614 74.2756L161.219 73.8328Z" fill="white" stroke="#263238" stroke-width="0.476096" stroke-linecap="round" stroke-linejoin="round"/>
<path d="M142.337 85.5733C142.337 85.5733 142.503 88.1157 143.18 88.706C143.588 89.062 143.958 89.4593 144.284 89.8915C144.375 90.5371 144.431 91.1871 144.451 91.8387C144.451 92.6005 144.96 92.5196 145.403 92.5196C145.846 92.5196 146.588 93.9478 147.012 94.6334C147.474 95.2596 148.093 95.7523 148.807 96.0617C149.569 96.4807 150.835 94.8762 150.835 94.8762L152.511 97.6614L158.524 93.7669L155.563 88.0109C155.388 86.014 154.78 84.079 153.782 82.3406C152.092 79.2936 149.802 77.5796 145.993 78.6985C142.185 79.8173 142.337 85.5733 142.337 85.5733Z" fill="white" stroke="#263238" stroke-width="0.476096" stroke-linecap="round" stroke-linejoin="round"/>
<path d="M151.902 95.9902L149.326 93.4003" stroke="#263238" stroke-width="0.476096" stroke-linecap="round" stroke-linejoin="round"/>
<path d="M147.455 88.5441C147.205 88.7083 146.913 88.7958 146.615 88.7958C146.316 88.7958 146.024 88.7083 145.774 88.5441C145.29 88.2172 144.898 87.7706 144.637 87.2475C144.375 86.7245 144.254 86.1428 144.284 85.5589C144.284 84.2497 142.603 84.8115 142.603 84.8115C142.603 84.8115 140.732 86.8634 139.428 86.116C138.123 85.3685 137.371 83.8783 141.109 79.2078C144.846 74.5373 148.393 74.7277 151.378 76.594C154.363 78.4603 155.544 88.0204 155.544 88.0204C155.544 88.0204 155.487 89.8438 153.059 90.4008C150.63 90.9579 147.455 90.4104 147.455 88.5441Z" fill="#263238" stroke="#263238" stroke-width="0.476096" stroke-linecap="round" stroke-linejoin="round"/>
<path d="M146.993 90.1486C146.993 90.1486 146.146 86.9302 147.498 87.3539C148.85 87.7776 149.616 90.6532 149.531 90.9913C149.445 91.3293 148.769 91.5007 148.431 91.415" fill="white"/>
<path d="M146.993 90.1486C146.993 90.1486 146.146 86.9302 147.498 87.3539C148.85 87.7776 149.616 90.6532 149.531 90.9913C149.445 91.3293 148.769 91.5007 148.431 91.415" stroke="#263238" stroke-width="0.476096" stroke-linecap="round" stroke-linejoin="round"/>
<path d="M156.777 91.3149C155.197 92.2001 153.688 93.2061 152.264 94.3238C150.835 95.595 149.555 99.4038 149.555 99.4038C149.555 99.4038 158.277 93.4764 159.8 92.6289C161.324 91.7815 161.662 91.3625 161.662 91.3625C161.662 91.3625 158.472 90.8912 156.777 91.3149Z" fill="white" stroke="#263238" stroke-width="0.476096" stroke-linecap="round" stroke-linejoin="round"/>
<path d="M135.291 114.072C135.291 114.072 132.825 112.93 129.977 111.411C127.13 109.892 124.093 108.188 124.093 108.188C123.274 108.087 122.446 108.087 121.627 108.188C120.192 108.546 118.733 108.799 117.261 108.945C116.309 108.945 115.742 109.897 116.309 110.273C116.875 110.649 119.918 110.273 119.918 110.273L115.157 112.554C115.157 112.554 114.59 113.692 115.918 113.692C117.247 113.692 117.823 113.501 119.332 113.692C120.841 113.882 123.888 111.982 123.888 111.982C123.888 111.982 131.925 121.243 133.791 121.357C135.657 121.471 139.471 117.11 135.291 114.072Z" fill="white" stroke="#263238" stroke-width="0.476096" stroke-linecap="round" stroke-linejoin="round"/>
<path d="M137.823 112.292C137.823 112.292 133.677 113.458 132.901 115.272C132.125 117.086 132.253 119.805 133.805 121.357C135.357 122.909 136.01 123.299 137.69 122.652C139.371 122.004 139.766 120.971 139.894 119.933C140.023 118.895 140.951 115.401 137.823 112.292Z" fill="white" stroke="#263238" stroke-width="0.476096" stroke-linecap="round" stroke-linejoin="round"/>
<path d="M193.279 185.182C192.946 185.726 192.644 186.289 192.375 186.868C192.246 187.258 189.394 187.644 189.785 188.939C190.175 190.234 193.151 191.271 194.579 191.4C196.007 191.529 198.864 189.586 199.368 189.067C199.673 188.762 200.13 186.753 199.887 185.182C199.728 184.451 199.369 183.779 198.85 183.24C198.85 183.24 196.388 179.483 193.279 185.182Z" fill="white" stroke="#263238" stroke-width="0.476096" stroke-linecap="round" stroke-linejoin="round"/>
<path d="M199.887 185.182C199.754 184.526 199.45 183.917 199.007 183.416C198.47 183.419 197.94 183.532 197.449 183.747C196.958 183.962 196.516 184.276 196.15 184.668C194.855 186.22 195.503 189.715 193.946 190.234C192.789 190.619 190.765 189.205 189.813 188.463C189.76 188.617 189.76 188.784 189.813 188.939C190.204 190.234 193.179 191.272 194.607 191.4C196.036 191.529 198.892 189.586 199.397 189.067C199.673 188.763 200.13 186.753 199.887 185.182Z" fill="white" stroke="#263238" stroke-width="0.476096" stroke-linecap="round" stroke-linejoin="round"/>
<path d="M196.521 186.091C196.002 188.42 196.65 189.976 194.579 191.4C196.007 191.528 198.864 189.586 199.368 189.067C199.673 188.762 200.13 186.753 199.887 185.182C199.832 184.859 199.724 184.547 199.568 184.258H199.368C199.368 184.258 197.036 183.759 196.521 186.091Z" fill="#263238" stroke="#263238" stroke-width="0.476096" stroke-linecap="round" stroke-linejoin="round"/>
<path d="M188.68 167.957C186.738 164.072 178.877 153.607 178.877 153.607C178.877 153.607 175.254 130.95 175.121 129.388C174.873 126.398 172.955 121.885 172.955 121.885C172.955 121.885 166.704 120.58 154.787 127.574L154.915 131.459L163.223 141.705C163.623 141.376 163.856 141.176 163.856 141.176C163.856 141.176 169.165 154.507 170.331 157.107C171.498 159.706 177.254 168.909 180.11 170.813C181.701 171.875 193.279 185.182 193.279 185.182C193.279 185.182 195.484 183.24 196.907 183.24H198.85C198.85 183.24 190.623 171.842 188.68 167.957Z" fill="#263238" stroke="#263238" stroke-width="0.476096" stroke-linecap="round" stroke-linejoin="round"/>
<g opacity="0.35">
<path d="M190.827 179.712C192.408 181.707 193.451 183.197 193.451 183.197" stroke="white" stroke-width="0.476096" stroke-linecap="round" stroke-linejoin="round"/>
<path d="M167.175 142.557C167.175 142.557 169.227 147.894 171.898 154.05C174.568 160.206 177.849 167.6 182.776 171.294C184.857 172.851 187.061 175.217 188.966 177.427" stroke="white" stroke-width="0.476096" stroke-linecap="round" stroke-linejoin="round"/>
<path d="M172.793 137.158L163.856 141.172L173.335 140.71" stroke="white" stroke-width="0.476096" stroke-linecap="round" stroke-linejoin="round"/>
</g>
<path d="M171.236 85.2257C169.037 85.4828 163.338 89.3678 162.947 89.7582C162.557 90.1486 161.005 91.0532 160.357 91.5721C160.357 91.5721 147.027 99.8609 145.851 100.618C144.675 101.375 142.356 102.946 142.485 103.475C142.613 104.003 135.619 115.377 135.619 115.377C135.619 115.377 133.548 118.095 135.491 120.557C137.433 123.018 139.247 121.333 140.152 120.819C141.056 120.305 148.183 113.563 148.183 113.563L154.758 129.274C154.758 129.274 163.861 123.171 173.574 123.561L167.099 98.1756C167.099 98.1756 176.035 91.4388 176.292 89.1297C176.549 86.8207 173.44 84.9639 171.236 85.2257Z" fill="white"/>
<mask id="mask0_124_1864" style="mask-type:luminance" maskUnits="userSpaceOnUse" x="134" y="85" width="43" height="45">
<path d="M171.236 85.2257C169.037 85.4828 163.338 89.3678 162.947 89.7582C162.557 90.1486 161.005 91.0532 160.357 91.5721C160.357 91.5721 147.027 99.8609 145.851 100.618C144.675 101.375 142.356 102.946 142.485 103.475C142.613 104.003 135.619 115.377 135.619 115.377C135.619 115.377 133.548 118.095 135.491 120.557C137.433 123.018 139.247 121.333 140.152 120.819C141.056 120.305 148.183 113.563 148.183 113.563L154.758 129.274C154.758 129.274 163.861 123.171 173.574 123.561L167.099 98.1756C167.099 98.1756 176.035 91.4388 176.292 89.1297C176.549 86.8207 173.44 84.9639 171.236 85.2257Z" fill="white"/>
</mask>
<g mask="url(#mask0_124_1864)">
<path d="M171.236 85.2257C170.355 85.3257 168.913 86.0113 167.475 86.8254C167.803 86.7624 168.142 86.7975 168.45 86.9262C168.758 87.0549 169.022 87.2715 169.208 87.5491C170.279 88.925 167.984 93.3527 167.984 93.3527C167.984 93.3527 167.032 87.2301 167.07 89.0678C167.108 90.9056 166.594 96.5521 166.594 96.5521C166.594 96.5521 163.537 92.8861 163.69 93.805C163.842 94.7239 165.827 103.275 167.051 106.483C168.275 109.692 166.132 118.705 164.913 121.304C163.695 123.904 164.437 110.306 163.08 113.663C161.724 117.019 157.139 126.356 156.067 127.275C154.996 128.193 156.41 114.815 156.791 113.073C156.315 114.529 153.168 123.756 153.168 123.756L148.883 112.758C148.883 112.758 141.551 106.798 142.313 107.869C143.075 108.94 144.913 112.301 144.913 112.301C144.913 112.301 140.48 111.382 141.247 111.687C142.013 111.992 145.37 113.672 145.37 113.672C145.37 113.672 138.5 118.586 136.514 119.176C135.98 119.333 135.431 119.434 134.876 119.476C135.02 119.875 135.227 120.248 135.491 120.581C137.433 123.042 139.247 121.357 140.152 120.843C141.056 120.328 148.183 113.587 148.183 113.587L154.758 129.274C154.758 129.274 163.861 123.171 173.574 123.561L167.099 98.1756C167.099 98.1756 176.035 91.4388 176.292 89.1297C176.549 86.8207 173.44 84.9639 171.236 85.2257Z" fill="#065EA9"/>
<path opacity="0.5" d="M171.236 85.2257C170.355 85.3257 168.913 86.0113 167.475 86.8254C167.803 86.7624 168.142 86.7975 168.45 86.9262C168.758 87.0549 169.022 87.2715 169.208 87.5491C170.279 88.925 167.984 93.3527 167.984 93.3527C167.984 93.3527 167.032 87.2301 167.07 89.0678C167.108 90.9056 166.594 96.5521 166.594 96.5521C166.594 96.5521 163.537 92.8861 163.69 93.805C163.842 94.7239 165.827 103.275 167.051 106.483C168.275 109.692 166.132 118.705 164.913 121.304C163.695 123.904 164.437 110.306 163.08 113.663C161.724 117.019 157.139 126.356 156.067 127.275C154.996 128.193 156.41 114.815 156.791 113.073C156.315 114.529 153.168 123.756 153.168 123.756L148.883 112.758C148.883 112.758 141.551 106.798 142.313 107.869C143.075 108.94 144.913 112.301 144.913 112.301C144.913 112.301 140.48 111.382 141.247 111.687C142.013 111.992 145.37 113.672 145.37 113.672C145.37 113.672 138.5 118.586 136.514 119.176C135.98 119.333 135.431 119.434 134.876 119.476C135.02 119.875 135.227 120.248 135.491 120.581C137.433 123.042 139.247 121.357 140.152 120.843C141.056 120.328 148.183 113.587 148.183 113.587L154.758 129.274C154.758 129.274 163.861 123.171 173.574 123.561L167.099 98.1756C167.099 98.1756 176.035 91.4388 176.292 89.1297C176.549 86.8207 173.44 84.9639 171.236 85.2257Z" fill="white"/>
</g>
<path d="M171.236 85.2257C169.037 85.4828 163.338 89.3678 162.947 89.7582C162.557 90.1486 161.005 91.0532 160.357 91.5721C160.357 91.5721 147.027 99.8609 145.851 100.618C144.675 101.375 142.356 102.946 142.485 103.475C142.613 104.003 135.619 115.377 135.619 115.377C135.619 115.377 133.548 118.095 135.491 120.557C137.433 123.018 139.247 121.333 140.152 120.819C141.056 120.305 148.183 113.563 148.183 113.563L154.758 129.274C154.758 129.274 163.861 123.171 173.574 123.561L167.099 98.1756C167.099 98.1756 176.035 91.4388 176.292 89.1297C176.549 86.8207 173.44 84.9639 171.236 85.2257Z" stroke="#263238" stroke-width="0.476096" stroke-linecap="round" stroke-linejoin="round"/>
<path d="M154.758 129.274C154.376 125.705 154.559 122.098 155.301 118.586L154.758 129.274Z" fill="white"/>
<path d="M154.758 129.274C154.376 125.705 154.559 122.098 155.301 118.586" stroke="#263238" stroke-width="0.476096" stroke-linecap="round" stroke-linejoin="round"/>
<path d="M153.525 121.338C153.525 121.338 153.525 119.148 155.986 112.292L153.525 121.338Z" fill="white"/>
<path d="M153.525 121.338C153.525 121.338 153.525 119.148 155.986 112.292" stroke="#263238" stroke-width="0.476096" stroke-linecap="round" stroke-linejoin="round"/>
<path d="M143.132 107.888L148.183 113.587L143.003 109.83" fill="white"/>
<path d="M143.132 107.888L148.183 113.587L143.003 109.83" stroke="#263238" stroke-width="0.476096" stroke-linecap="round" stroke-linejoin="round"/>
<path d="M167.094 90.9244V98.1754L168.775 88.8486" fill="white"/>
<path d="M167.094 90.9244V98.1754L168.775 88.8486" stroke="#263238" stroke-width="0.476096" stroke-linecap="round" stroke-linejoin="round"/>
<path d="M156.834 112.911C156.814 112.963 156.8 113.017 156.791 113.073C156.848 112.897 156.867 112.83 156.834 112.911Z" fill="#263238"/>
<path d="M159.795 81.8647C159.438 81.8673 159.09 81.7552 158.801 81.5448C158.513 81.3344 158.299 81.0369 158.193 80.6961C158.086 80.3554 158.092 79.9893 158.209 79.652C158.326 79.3146 158.548 79.0238 158.843 78.8224L178.044 65.6536C178.224 65.5286 178.428 65.4403 178.642 65.3938C178.857 65.3473 179.078 65.3435 179.294 65.3826C179.51 65.4217 179.716 65.503 179.901 65.6218C180.085 65.7406 180.245 65.8946 180.37 66.075C180.495 66.2553 180.583 66.4586 180.63 66.6731C180.676 66.8876 180.68 67.1091 180.641 67.3251C180.602 67.541 180.52 67.7472 180.402 67.9317C180.283 68.1163 180.129 68.2756 179.948 68.4007L160.748 81.5743C160.467 81.7658 160.135 81.8672 159.795 81.8647Z" fill="#263238"/>
<path d="M164.78 79.0842L179.711 68.8101" stroke="white" stroke-width="0.476096" stroke-linecap="round" stroke-linejoin="round"/>
<path d="M163.095 75.9513L178.025 65.6819" stroke="white" stroke-width="0.476096" stroke-linecap="round" stroke-linejoin="round"/>
<path d="M154.915 131.44C154.915 131.44 140.532 148.166 140.218 151.974C139.904 155.783 142.756 159.592 146.246 160.544C149.735 161.496 183.757 162.253 183.757 162.253L183.438 155.907L153.23 151.341L163.228 141.686" fill="#263238"/>
<path d="M154.915 131.44C154.915 131.44 140.532 148.166 140.218 151.974C139.904 155.783 142.756 159.592 146.246 160.544C149.735 161.496 183.757 162.253 183.757 162.253L183.438 155.907L153.23 151.341L163.228 141.686" stroke="#263238" stroke-width="0.476096" stroke-linecap="round" stroke-linejoin="round"/>
<g opacity="0.35">
<path d="M177.397 158.716L179.696 158.978" stroke="white" stroke-width="0.476096" stroke-linecap="round" stroke-linejoin="round"/>
<path d="M145.051 150.756L144.394 151.589C144.394 151.589 148.498 151.384 147.679 152.203C147.135 152.846 146.779 153.627 146.65 154.46L149.112 153.845C149.112 153.845 147.683 156.702 148.702 156.516C149.482 156.324 150.239 156.048 150.959 155.693L174.764 158.411" stroke="white" stroke-width="0.476096" stroke-linecap="round" stroke-linejoin="round"/>
<path d="M158.762 128.584C158.762 128.584 154.858 131.255 156.71 131.664C158.562 132.074 160.814 131.459 160.195 132.278C159.297 133.283 158.343 134.237 157.338 135.135L148.174 146.771" stroke="white" stroke-width="0.476096" stroke-linecap="round" stroke-linejoin="round"/>
<path d="M156.71 131.679C156.71 131.679 158.967 128.393 164.099 128.189" stroke="white" stroke-width="0.476096" stroke-linecap="round" stroke-linejoin="round"/>
</g>
<path d="M182.781 155.85C182.781 155.85 186.357 155.036 187.009 156.173C187.661 157.311 187.985 160.073 187.985 161.372C187.985 162.672 188.937 164.786 188.794 166.738C188.651 168.69 185.709 170.799 184.733 170.799C183.757 170.799 183.781 164.948 182.781 162.672C181.781 160.396 181.648 157.149 182.781 155.85Z" fill="white" stroke="#263238" stroke-width="0.476096" stroke-linecap="round" stroke-linejoin="round"/>
<path d="M185.038 170.747C186.209 170.423 188.647 168.514 188.794 166.738C188.961 164.786 187.985 162.672 187.985 161.373C187.985 160.073 187.657 157.312 187.009 156.174C186.719 155.664 185.843 155.545 184.962 155.569C184.726 155.811 184.549 156.103 184.445 156.425C184.341 156.746 184.312 157.087 184.362 157.421C184.591 159.283 186.452 166.843 185.757 168.938C185.553 169.554 185.313 170.158 185.038 170.747Z" fill="white" stroke="#263238" stroke-width="0.476096" stroke-linecap="round" stroke-linejoin="round"/>
<path d="M187.009 156.197C186.833 155.948 186.566 155.777 186.266 155.721C185.652 156.561 185.355 157.592 185.428 158.63C185.633 161.73 186.257 164.215 186.461 166.9C186.61 168.08 186.427 169.279 185.933 170.361C187.152 169.633 188.68 168.162 188.79 166.767C188.956 164.815 187.98 162.701 187.98 161.401C187.98 160.101 187.656 157.311 187.009 156.197Z" fill="#263238" stroke="#263238" stroke-width="0.476096" stroke-linecap="round" stroke-linejoin="round"/>
</svg>
