<svg width="106" height="74" viewBox="0 0 106 74" fill="none" xmlns="http://www.w3.org/2000/svg">
<path d="M2.24484 6.8467C3.53873 6.91859 4.81465 7.08032 6.0726 7.31394C6.30622 9.73999 9.81054 9.50637 9.81054 7.15221C9.81054 5.26528 7.31259 4.51051 6.30623 6.21773C5.42567 6.05599 4.25755 5.87629 2.85583 5.78643C2.24483 5.12152 1.74165 4.54645 1.00485 3.91748C0.932972 4.8879 0.986919 5.64267 1.04083 6.5412C0.124326 7.61944 -0.576555 8.57189 -1.06176 9.30869C-2.98463 8.84145 -4.18865 11.1417 -2.84084 12.4715C-1.1516 14.1248 1.47212 11.7707 -0.091331 9.91969C0.609526 8.84145 1.38224 7.81712 2.24484 6.8467Z" fill="#C3D5E3"/>
<path d="M46.7583 3.10905C47.7647 3.9357 48.6992 4.81626 49.5797 5.73277C48.3398 7.81737 51.3229 9.70429 52.7066 7.7994C53.8208 6.27189 52.2393 4.18729 50.4243 4.978C49.8133 4.33106 48.9687 3.5044 47.8905 2.60587C47.7827 1.70734 47.7287 0.952568 47.4771 0.00012207C46.8481 0.73692 46.4528 1.38386 45.9496 2.1566C44.5659 2.48007 43.4517 2.85746 42.6071 3.16296C41.3312 1.65342 38.995 2.80355 39.3184 4.6725C39.7138 6.99072 43.2181 6.64927 43.0384 4.22323C44.2604 3.77396 45.5004 3.39658 46.7583 3.10905Z" fill="#C3D5E3"/>
<path d="M84.982 26.2555C85.3054 27.5134 85.557 28.7714 85.7187 30.0293C83.4904 30.9997 84.8022 34.2704 87.0305 33.5336C88.8276 32.9406 88.7737 30.3528 86.8509 29.9215C86.7251 29.0409 86.5274 27.8728 86.186 26.5071C86.6352 25.7164 87.0306 25.0694 87.39 24.1709C86.4375 24.4045 85.7366 24.692 84.892 25.0155C83.5802 24.4764 82.4661 24.117 81.6035 23.8654C81.4597 21.8886 78.8898 21.4573 78.0632 23.1466C77.0209 25.2671 80.0579 27.0282 81.3339 24.9616C82.5738 25.321 83.7959 25.7523 84.982 26.2555Z" fill="#C3D5E3"/>
<path d="M102.288 67.4443C101.82 68.6484 101.263 69.8165 100.67 70.9486C98.2982 70.4095 97.4356 73.8419 99.682 74.5607C101.479 75.1538 102.971 72.9973 101.659 71.5237C102.09 70.733 102.611 69.6907 103.132 68.3788C103.959 68.0014 104.66 67.7139 105.486 67.1928C104.588 66.8154 103.851 66.6536 102.971 66.4021C102.234 65.198 101.533 64.2456 100.994 63.5447C102.036 61.8734 100.221 60.0045 98.5498 60.885C96.4652 61.9813 97.8849 65.198 100.131 64.2815C100.904 65.2879 101.623 66.3481 102.288 67.4443Z" fill="#C3D5E3"/>
<path d="M3.26923 9.30921C4.09588 9.43501 4.90457 9.59675 5.7492 9.81239C6.16252 9.92022 7.60019 8.96777 2.83795 8.30286C-0.0193869 12.1666 1.66986 11.8071 1.88551 11.4298C2.31681 10.675 2.78402 9.97413 3.26923 9.30921Z" fill="#C3D5E3"/>
<path d="M46.1473 5.69699C46.7403 6.27205 47.3153 6.90102 47.8724 7.56594C48.142 7.88941 49.8672 7.9613 46.3988 4.63672C41.8163 6.07437 43.3977 6.77523 43.7751 6.59552C44.5838 6.25408 45.3745 5.94858 46.1473 5.69699Z" fill="#C3D5E3"/>
<path d="M82.9693 27.9985C83.113 28.8071 83.2029 29.6518 83.2568 30.5143C83.2928 30.9456 84.6226 32.0059 83.7959 27.2796C79.2494 25.7521 80.1119 27.2437 80.5253 27.3335C81.3699 27.5312 82.1785 27.7469 82.9693 27.9985Z" fill="#C3D5E3"/>
<path d="M99.6461 67.6774C99.2867 68.4142 98.8734 69.151 98.4061 69.8878C98.1725 70.2472 98.6397 71.9005 100.724 67.5875C97.9388 63.6879 97.7591 65.3951 98.0467 65.7006C98.6217 66.3475 99.1609 66.9945 99.6461 67.6774Z" fill="#C3D5E3"/>
<path d="M24.5465 5.55297C23.8097 5.19356 22.7135 5.28341 20.8626 6.41556C20.1797 6.84686 19.8562 4.58255 17.7716 5.13964C15.5432 5.73267 16.1363 8.73378 16.1363 8.73378C16.1363 8.73378 20.3234 6.8828 24.7981 8.64393C28.9134 6.16397 33.3521 7.27815 33.3521 7.27815C33.3521 7.27815 33.442 4.22314 31.1418 4.00749C29.0033 3.80981 29.0572 6.07412 28.3024 5.78659C26.3076 4.99588 25.2114 5.06776 24.5465 5.55297Z" fill="#C3D5E3"/>
<path d="M65.5736 15.1851C65.1962 14.4663 64.2617 13.8912 62.0872 13.7295C61.2786 13.6756 62.3389 11.6449 60.3441 10.8901C58.1877 10.0635 56.9117 12.8309 56.9117 12.8309C56.9117 12.8309 61.3865 13.8014 63.9743 17.8627C68.7724 18.2761 71.7016 21.7983 71.7016 21.7983C71.7016 21.7983 73.5706 19.3902 71.8274 17.8448C70.2101 16.4251 68.9161 18.294 68.5028 17.6111C67.3347 15.7602 66.3822 15.1851 65.5736 15.1851Z" fill="#C3D5E3"/>
<path d="M93.1046 47.0834C93.2304 46.2747 92.7992 45.2683 91.1459 43.8487C90.5349 43.3275 92.5835 42.3211 91.3974 40.5241C90.1394 38.5832 87.4798 40.0748 87.4798 40.0748C87.4798 40.0748 90.5349 43.4892 90.2474 48.2874C93.8774 51.4503 94.1829 56.0148 94.1829 56.0148C94.1829 56.0148 97.1121 55.1522 96.6089 52.9059C96.1417 50.8033 93.9852 51.5761 94.0571 50.7674C94.1829 48.5749 93.7695 47.5686 93.1046 47.0834Z" fill="#C3D5E3"/>
<path d="M27.4038 39.5712C22.5338 41.2605 14.1415 39.5712 12.9554 30.4421C15.9386 29.2561 12.8116 25.1587 10.8888 27.441C7.90562 27.2254 8.64244 32.329 11.5896 31.0172C17.2863 38.2414 12.614 45.4297 7.9955 47.7119C5.04831 51.953 -2.73299 55.5112 -9.05867 48.8261C-7.33348 46.1126 -12.2754 44.639 -12.4911 47.6041C-15.0249 49.1855 -11.4308 52.8695 -9.81346 50.0841C-0.953915 52.582 -0.504635 61.1361 -2.89474 65.7006C-2.78691 70.8582 -6.99205 78.316 -16.0313 76.6088C-16.229 73.3921 -21.0991 75.1172 -19.5356 77.6511C-20.6678 80.4186 -15.582 81.2992 -15.9235 78.1004C-7.29756 74.9196 -1.90635 81.5687 -1.15158 86.6724C1.97532 90.7877 2.94573 99.2878 -5.3747 103.223C-7.42336 100.743 -10.3526 104.985 -7.58512 106.117C-6.86629 109.01 -2.24778 106.746 -4.40427 104.338C0.717381 96.6821 8.98388 98.9104 12.596 102.594C17.5379 104.086 23.3245 110.394 18.9217 118.463C15.8127 117.654 15.9385 122.811 18.8318 122.111C21.1141 124.033 23.5221 119.469 20.3773 118.804C20.0179 109.603 28.0148 106.53 33.1005 107.393C37.9706 105.703 46.3629 107.393 47.549 116.522C44.5659 117.708 47.6927 121.805 49.6156 119.523C52.5987 119.738 51.862 114.635 48.9148 115.947C43.2181 108.722 47.8905 101.534 52.5089 99.2339C55.4561 94.9928 63.2374 91.4346 69.5631 98.1197C67.8379 100.833 72.7798 102.307 72.9954 99.3417C75.5293 97.7603 71.9352 94.0763 70.3358 96.8618C61.4763 94.3639 61.027 85.8098 63.4172 81.2453C63.3093 76.0877 67.5145 68.6298 76.5537 70.337C76.7514 73.5538 81.6214 71.8286 80.0579 69.2947C81.1901 66.5273 76.1045 65.6467 76.4459 68.8455C67.82 72.0263 62.4287 65.3771 61.6739 60.2735C58.547 56.1582 57.5766 47.658 65.897 43.7225C67.9457 46.2024 70.875 41.9613 68.1075 40.8292C67.3886 37.9359 62.7701 40.2002 64.9266 42.6083C59.823 50.2638 51.5384 48.0354 47.9263 44.3514C42.9844 42.8599 37.1979 36.5521 41.6007 28.4833C44.7096 29.292 44.5838 24.1344 41.6905 24.8353C39.4083 22.9124 37.0002 27.477 40.145 28.1419C40.4865 37.3608 32.4895 40.4338 27.4038 39.5712ZM7.20478 18.6533C9.75662 19.6956 11.356 22.8585 14.9681 20.8458C8.49869 15.6522 4.11382 18.0783 9.00185 16.1015C17.8973 11.7526 15.5432 21.2411 22.0306 19.1026C22.0306 19.1026 18.724 15.2389 15.4174 14.1607C19.3889 13.7114 22.9651 15.0053 25.5169 17.1618C27.6734 14.592 30.998 12.723 34.9874 12.5253C31.8965 14.1247 29.2908 18.4916 29.2908 18.4916C36.0298 19.5339 32.1301 10.5665 41.6366 13.37C46.7942 14.5021 42.0679 12.8488 36.5509 19.0487C40.4326 20.4324 41.4929 17.036 43.847 15.5983C45.3027 17.9345 44.7275 21.4388 48.8428 21.942C46.6504 13.945 41.6905 13.3161 46.8121 14.592C56.5702 16.2992 49.0765 22.6069 55.5998 24.6735C55.5998 24.6735 55.2045 19.6058 53.1558 16.8024C56.6422 18.7612 58.7627 21.906 59.5714 25.1767C62.8241 24.368 66.5979 24.7993 69.9584 26.9738C66.526 26.4526 61.8536 28.4474 61.8536 28.4474C66.7057 33.2635 68.8083 23.7031 74.8465 31.5563C78.3508 35.5098 75.4934 31.3946 67.3886 33.1557C69.7248 36.5701 72.5642 34.4316 75.3137 34.6473C75.1161 37.3968 72.6001 39.8947 75.6192 42.7161C78.5484 34.9528 74.9004 31.5204 78.2968 35.5817C85.1796 42.6981 75.4215 43.399 79.4828 48.898C79.4828 48.898 82.1426 44.5671 82.1246 41.0808C83.7779 44.7108 83.6521 48.5206 82.3942 51.6116C85.5031 52.8695 88.3065 55.4393 89.7441 59.1772C87.2642 56.7332 82.3043 55.6011 82.3043 55.6011C83.4005 62.3401 90.7146 55.8527 90.9841 65.7545C91.5053 71.0199 91.6131 66.0061 84.0115 62.6815C83.9037 66.8148 87.4439 66.7609 89.5465 68.54C87.7674 70.6426 84.2631 71.1996 85.0538 75.243C91.9905 70.6965 91.038 65.7725 91.4154 71.0379C92.7991 80.8499 84.4967 75.6743 84.5506 82.5032C84.5506 82.5032 89.2409 80.5624 91.2896 77.741C90.4989 81.6586 88.1628 84.6597 85.3054 86.4208C87.0666 89.2602 87.8392 92.9981 86.7969 96.8618C86.2219 93.4294 82.8793 89.6016 82.8793 89.6016C79.8063 95.6937 89.5465 94.7592 83.9396 102.918C81.262 107.482 84.299 103.493 80.1119 96.3227C77.596 99.5933 80.4893 101.642 81.1542 104.32C78.4766 104.985 75.3137 103.367 73.5885 107.105C81.873 107.5 84.0115 102.954 81.2081 107.447C76.5537 116.198 72.8877 107.123 68.9162 112.676C68.9162 112.676 73.8581 113.862 77.1647 112.784C74.2175 115.479 70.5695 116.54 67.2269 116.288C66.9753 119.631 65.4118 123.099 62.3029 125.615C63.8483 122.506 63.3992 117.438 63.3992 117.438C57.3251 120.565 65.7533 125.525 56.4265 128.832C51.5744 130.952 56.3726 129.497 57.1992 121.248C53.2457 122.416 54.3778 125.777 53.3355 128.328C50.7837 127.286 49.1843 124.123 45.5722 126.136C52.0417 131.33 56.4265 128.904 51.5384 130.88C42.643 135.229 44.9972 125.741 38.5097 127.879C38.5097 127.879 41.8163 131.743 45.1229 132.821C41.1514 133.27 37.5753 131.977 35.0234 129.82C32.8669 132.39 29.5423 134.259 25.5528 134.456C28.6438 132.857 31.2496 128.49 31.2496 128.49C24.5106 127.448 28.4102 136.415 18.9037 133.612C13.7461 132.48 18.4724 134.133 23.9894 127.933C20.1077 126.549 19.0475 129.946 16.6933 131.383C15.2377 129.047 15.7948 125.525 11.6975 125.04C13.8899 133.037 18.8498 133.666 13.7282 132.39C3.97007 130.683 11.4638 124.375 4.94046 122.308C4.94046 122.308 5.33584 127.376 7.3845 130.179C3.89819 128.221 1.77763 125.076 0.968952 121.805C-2.28374 122.614 -6.05759 122.182 -9.41811 120.008C-5.9857 120.529 -1.3133 118.534 -1.3133 118.534C-6.16539 113.718 -8.26798 123.279 -14.3061 115.426C-17.8104 111.472 -14.9531 115.587 -6.84831 113.826C-9.1845 110.412 -12.0239 112.55 -14.7734 112.335C-14.5757 109.585 -12.0598 107.087 -15.0789 104.266C-18.0081 112.029 -14.3601 115.461 -17.7565 111.4C-24.6393 104.284 -14.8812 103.583 -18.9425 98.0838C-18.9425 98.0838 -21.6022 102.415 -21.5842 105.901C-23.2375 102.271 -23.1298 98.4612 -21.8538 95.3702C-24.9628 94.1123 -27.7662 91.5425 -29.2039 87.8046C-26.7239 90.2486 -21.764 91.3807 -21.764 91.3807C-22.8602 84.6417 -30.1743 91.1291 -30.4438 81.2273C-30.965 75.9619 -31.0728 80.9757 -23.4712 84.3003C-23.3634 80.167 -26.9036 80.2209 -29.0061 78.4418C-27.227 76.3393 -23.7228 75.7822 -24.5135 71.7388C-31.4502 76.2853 -30.4977 81.2093 -30.8751 75.9439C-32.2589 66.1319 -23.9564 71.3075 -24.0103 64.4786C-24.0103 64.4786 -28.7006 66.4194 -30.7493 69.2408C-29.9586 65.3232 -27.6224 62.3221 -24.7651 60.561C-26.5262 57.7216 -27.2989 53.9837 -26.2566 50.12C-25.6816 53.5524 -22.339 57.3802 -22.339 57.3802C-19.266 51.2881 -29.0062 52.2226 -23.3993 44.0639C-20.7217 39.4993 -23.7587 43.4888 -19.5715 50.6591C-17.0556 47.3885 -19.9489 45.3398 -20.6139 42.6622C-17.9362 41.9973 -14.7734 43.6146 -13.0482 39.8767C-21.3327 39.4814 -23.4712 44.028 -20.6678 39.5353C-16.0134 30.7836 -12.3474 39.8588 -8.37583 34.3058C-8.37583 34.3058 -13.3178 33.1197 -16.6244 34.198C-13.6772 31.5024 -10.0291 30.4421 -6.68658 30.6937C-6.45296 27.3512 -4.8715 23.8828 -1.76257 21.3669C-3.30805 24.4758 -2.85881 29.5436 -2.85881 29.5436C3.21528 26.4167 -5.21297 21.4568 4.11382 18.1502C8.96591 16.0296 4.16775 17.4853 3.34109 25.7338C7.29465 24.5657 6.14451 21.2052 7.20478 18.6533ZM26.7209 31.3407C21.761 35.7075 16.3698 29.4358 20.1257 25.7877C23.2886 24.3501 23.5581 26.848 23.2706 27.5488C22.7854 28.645 24.4207 29.4717 24.7801 27.6387C25.1575 27.8004 25.5888 27.8903 25.7505 27.5309C27.7273 23.0921 19.6225 20.5762 19.964 24.2422C19.8202 24.3141 16.6214 21.0434 15.3275 27.2254C14.7165 30.1007 16.5136 37.846 21.4196 34.0722C22.1923 34.3238 22.0306 37.2889 24.4387 36.6779C25.3552 36.4443 26.2358 36.013 27.0444 35.4919C27.925 35.8872 28.8774 36.1568 29.8119 36.2287C32.2918 36.4264 31.6449 33.5331 32.3458 33.1557C37.8088 36.0669 38.2941 28.1239 37.2159 25.3924C34.8976 19.5159 32.3098 23.2718 32.1481 23.2179C31.8785 19.5519 24.3129 23.3796 26.9905 27.423C27.2062 27.7465 27.6195 27.6027 27.9789 27.3691C28.6438 29.1123 30.1174 28.034 29.4525 27.0277C29.0392 26.3987 28.8954 23.8648 32.2559 24.7634C36.6048 27.7465 32.3457 34.827 26.7209 31.3407ZM2.60429 41.4761C1.14867 47.9276 -6.88423 46.0227 -5.9857 40.8471C-4.27848 37.8281 -2.57128 39.6791 -2.40955 40.4338C-2.15796 41.6019 -0.342934 41.3144 -1.13364 39.6251C-0.720318 39.5353 -0.324917 39.3376 -0.414772 38.9602C-1.42113 34.216 -9.47204 36.9475 -7.02803 39.697C-7.11788 39.8408 -11.6105 39.0681 -9.02275 44.8366C-7.81871 47.5143 -1.81648 52.7258 -0.0733223 46.7954C0.699417 46.5439 2.31676 49.0418 3.89818 47.1369C4.50919 46.4181 4.95845 45.5555 5.2999 44.639C6.25234 44.4413 7.16883 44.0998 7.97751 43.6146C10.098 42.3207 7.86971 40.344 8.22913 39.6251C14.3571 38.7625 10.0801 32.0595 7.60014 30.4781C2.28082 27.0816 2.38866 31.6462 2.22692 31.7001C-0.14521 28.8787 -4.02688 36.4443 0.537674 38.1336C0.915058 38.2773 1.14865 37.9 1.29241 37.5046C2.85586 38.5289 3.41299 36.7858 2.28083 36.3545C1.57998 36.0849 -0.0194359 34.1261 3.21529 32.8682C8.49867 32.7424 9.19954 40.9909 2.60429 41.4761ZM-10.9276 63.8317C-8.30392 69.9058 -15.9415 73.0866 -18.2417 68.3782C-18.6371 64.9279 -16.1571 65.431 -15.6 65.9342C-14.7015 66.7429 -13.4076 65.449 -15.0429 64.5145C-14.7734 64.1911 -14.5577 63.8137 -14.8452 63.5441C-18.4573 60.2914 -23.3454 67.2281 -19.7692 68.0188C-19.7513 68.1806 -23.8486 70.2113 -18.3675 73.3561C-15.8157 74.8118 -7.90856 75.5126 -9.97519 69.6721C-9.50796 69.0252 -6.72251 70.0855 -6.56077 67.6055C-6.48889 66.671 -6.63264 65.7006 -6.88423 64.7661C-6.23729 64.0473 -5.6802 63.2386 -5.32079 62.3581C-4.36835 60.0758 -7.33351 59.7882 -7.45931 58.9975C-3.00258 54.6846 -10.4065 51.7913 -13.3357 51.971C-19.6434 52.3484 -16.876 55.9785 -16.9658 56.1222C-20.542 55.2417 -19.2301 63.616 -14.5577 62.3221C-14.1803 62.2143 -14.1983 61.783 -14.3061 61.3697C-12.4372 61.2618 -13.0122 59.5367 -14.1803 59.8601C-14.9171 60.0578 -17.3611 59.4109 -15.4742 56.4996C-11.305 53.3188 -5.87787 59.5546 -10.9276 63.8317ZM-8.7532 89.8892C-3.05649 93.2676 -7.35148 100.33 -12.0059 97.8681C-14.3601 95.3163 -12.0598 94.274 -11.305 94.3279C-10.101 94.4537 -9.83145 92.6387 -11.6824 92.8543C-11.6465 92.441 -11.7004 91.9917 -12.0957 91.9558C-16.9298 91.4526 -16.804 99.9348 -13.4435 98.4791C-13.3357 98.6049 -15.4562 102.648 -9.16649 101.965C-6.25524 101.66 0.573582 97.5447 -4.54806 94.0584C-4.54806 93.2497 -1.67273 92.4769 -3.00256 90.3744C-3.50574 89.5657 -4.18865 88.8648 -4.94342 88.2718C-4.85357 87.3014 -4.87151 86.331 -5.08716 85.4145C-5.66222 83.0064 -8.23205 84.5159 -8.80711 83.9409C-7.72887 77.8488 -15.4203 79.8435 -17.7026 81.7125C-22.5906 85.72 -18.2058 87.0318 -18.1878 87.2115C-21.6022 88.5953 -15.618 94.6155 -12.5989 90.8057C-12.3473 90.5002 -12.6349 90.1587 -12.9583 89.8892C-11.5027 88.7031 -12.9943 87.6428 -13.749 88.5953C-14.2343 89.1883 -16.5884 90.0868 -16.7681 86.6185C-15.2226 81.5867 -7.17178 83.4557 -8.7532 89.8892ZM8.33694 109.675C14.9322 109.064 15.5971 117.294 10.4036 118.049C7.0071 117.366 8.24709 115.156 8.89403 114.779C9.93633 114.168 9.10969 112.55 7.72595 113.808C7.5103 113.449 7.20478 113.125 6.86333 113.323C2.6582 115.749 7.7439 122.56 9.61285 119.379C9.77459 119.415 10.4395 123.944 15.1119 119.703C17.2863 117.726 20.3953 110.412 14.1954 110.591C13.7282 109.944 15.5971 107.626 13.2789 106.71C12.3983 106.35 11.4459 106.189 10.4755 106.135C9.99025 105.29 9.39722 104.517 8.67839 103.906C6.79147 102.289 5.60542 105.02 4.8147 104.895C2.10113 99.3238 -2.94865 105.47 -3.68545 108.309C-5.26687 114.419 -0.95393 112.91 -0.846104 113.035C-2.78694 116.162 5.58743 117.51 5.80307 112.658C5.82104 112.263 5.38976 112.155 4.97644 112.119C5.46164 110.322 3.62864 110.322 3.57472 111.526C3.53878 112.281 2.15504 114.401 -0.019413 111.706C-1.78054 106.782 5.82105 103.565 8.33694 109.675ZM33.7834 115.659C38.7434 111.292 44.1345 117.564 40.3787 121.212C37.2158 122.65 36.9463 120.152 37.2338 119.451C37.719 118.355 36.0837 117.528 35.7243 119.361C35.3469 119.199 34.9156 119.109 34.7538 119.469C32.777 123.908 40.8818 126.424 40.5404 122.758C40.6842 122.686 43.883 125.956 45.1769 119.774C45.7879 116.899 43.9908 109.154 39.0848 112.928C38.312 112.676 38.4738 109.711 36.0657 110.322C35.1492 110.555 34.2686 110.987 33.4599 111.508C32.5794 111.113 31.627 110.843 30.6925 110.771C28.2125 110.573 28.8595 113.467 28.1586 113.844C22.6955 110.933 22.2103 118.876 23.2886 121.607C25.6068 127.484 28.1945 123.728 28.3563 123.782C28.6258 127.448 36.1915 123.62 33.5139 119.577C33.2982 119.253 32.8849 119.397 32.5255 119.631C31.8606 117.887 30.3869 118.966 31.0519 119.972C31.4652 120.619 31.609 123.135 28.2484 122.236C23.8995 119.253 28.1586 112.173 33.7834 115.659ZM57.8821 105.524C59.3378 99.0722 67.3706 100.977 66.4721 106.153C64.7649 109.172 63.0577 107.321 62.8959 106.566C62.6443 105.398 60.8294 105.685 61.6201 107.375C61.2068 107.464 60.8114 107.662 60.9012 108.04C61.9076 112.784 69.9584 110.052 67.5144 107.303C67.6043 107.159 72.0969 107.932 69.5091 102.163C68.3051 99.4855 62.3029 94.274 60.5598 100.204C59.787 100.456 58.1696 97.958 56.5882 99.8629C55.9772 100.582 55.528 101.444 55.1865 102.361C54.2341 102.559 53.3176 102.9 52.5089 103.385C50.3884 104.679 52.6167 106.656 52.2573 107.375C46.1293 108.237 50.4063 114.94 52.8862 116.522C58.2056 119.918 58.0977 115.354 58.2595 115.3C60.6316 118.121 64.4953 110.555 59.9487 108.866C59.5713 108.722 59.3377 109.1 59.194 109.495C57.6305 108.471 57.0735 110.214 58.2056 110.645C58.9065 110.915 60.5058 112.874 57.2711 114.132C52.0057 114.239 51.2869 106.009 57.8821 105.524ZM71.432 83.1681C68.8083 77.094 76.4458 73.9132 78.7461 78.6215C79.1414 82.0719 76.6615 81.5687 76.1045 81.0655C75.2059 80.2569 73.912 81.5508 75.5474 82.4852C75.2778 82.8087 75.0621 83.1861 75.3496 83.4557C78.9617 86.7083 83.8497 79.7717 80.2736 78.9809C80.2556 78.8192 84.353 76.7885 78.8719 73.6437C76.3201 72.188 68.413 71.4872 70.4796 77.3276C70.0124 77.9746 67.2269 76.9143 67.0651 79.3943C66.9933 80.3288 67.137 81.2992 67.3886 82.2336C66.7417 82.9525 66.1846 83.7612 65.8252 84.6417C64.8727 86.924 67.8379 87.2115 67.9637 88.0022C63.5069 92.3152 70.9109 95.2085 73.8401 95.0288C80.1478 94.6514 77.3803 91.0213 77.4701 90.8775C81.0463 91.7581 79.7345 83.3838 75.0621 84.6777C74.6847 84.7855 74.7027 85.2168 74.8105 85.6301C72.9416 85.7379 73.5166 87.4631 74.6847 87.1396C75.4215 86.942 77.8656 87.5889 75.9786 90.5002C71.7915 93.681 66.3822 87.4272 71.432 83.1681ZM69.2396 57.1106C63.5429 53.7321 67.8379 46.6697 72.4923 49.1316C74.8465 51.6835 72.5462 52.7258 71.7914 52.6719C70.5874 52.5461 70.3179 54.3611 72.1689 54.1455C72.1329 54.5588 72.1868 55.0081 72.5822 55.044C77.4163 55.5472 77.2905 47.065 73.93 48.5206C73.8221 48.3948 75.9427 44.3514 69.6529 45.0343C66.7417 45.3398 59.9128 49.4551 65.0344 52.9414C65.0344 53.7501 62.1592 54.5228 63.489 56.6254C63.9922 57.4341 64.6751 58.1349 65.4299 58.728C65.34 59.6984 65.3579 60.6688 65.5735 61.5853C66.1486 63.9934 68.7184 62.4839 69.2935 63.0589C68.2152 69.151 75.9067 67.1562 78.189 65.2873C83.077 61.2798 78.6922 59.968 78.6742 59.7883C82.0887 58.4045 76.1044 52.3843 73.0853 56.1941C72.8337 56.4996 73.1212 56.8411 73.4447 57.1106C71.9891 58.2967 73.4807 59.357 74.2354 58.4045C74.7206 57.8115 77.0748 56.9129 77.2545 60.3813C75.727 65.3951 67.6762 63.5262 69.2396 57.1106ZM52.1675 37.3069C45.5722 37.9179 44.9073 29.6873 50.1008 28.9326C53.4973 29.6155 52.2573 31.8259 51.6104 32.2032C50.5681 32.8142 51.4127 34.4316 52.7784 33.1737C52.9941 33.5331 53.2996 33.8565 53.6411 33.6589C57.8462 31.2328 52.7605 24.4219 50.8915 27.6028C50.7298 27.5668 50.0649 23.0382 45.3925 27.2793C43.218 29.2561 40.1091 36.5701 46.309 36.3904C46.7763 37.0374 44.9073 39.3556 47.2255 40.2721C48.1061 40.6315 49.0585 40.7932 50.029 40.8471C50.5142 41.6918 51.1072 42.4645 51.826 43.0755C53.713 44.6929 54.899 41.9613 55.6897 42.0871C58.4032 47.658 63.4531 41.5121 64.1899 38.6727C65.7713 32.5627 61.4583 34.0722 61.3505 33.9464C63.2913 30.8195 54.9169 29.4717 54.7013 34.3238C54.6833 34.7191 55.1147 34.827 55.528 34.8629C55.0428 36.6779 56.8757 36.66 56.9296 35.4559C56.9656 34.7012 58.3493 32.5806 60.5238 35.2762C62.2849 40.2182 54.6654 43.4349 52.1675 37.3069ZM25.1036 12.2198C22.9651 11.3213 20.2335 10.9619 18.5802 12.9207C18.4724 12.9207 18.3466 12.9027 18.2208 12.8848C17.0887 8.89526 12.6139 11.2494 6.00072 15.814C-1.87044 17.3415 -6.68655 18.9049 -4.63789 22.4991C-4.72775 22.5889 -4.79964 22.6968 -4.87152 22.7866C-7.42336 22.5889 -9.07668 24.7814 -9.93927 26.9558C-12.2036 27.4949 -14.6116 28.8068 -14.7913 31.3586C-14.8812 31.4125 -14.989 31.4844 -15.0969 31.5563C-18.3495 29.0045 -20.5959 33.5331 -23.2556 41.0987C-28.7366 46.9572 -31.7017 51.0545 -27.9279 52.7617C-27.9279 52.8875 -27.9459 53.0133 -27.9459 53.1211C-30.1203 54.4689 -30.1743 57.2184 -29.5992 59.4648C-31.1267 61.2259 -32.2948 63.7059 -30.947 65.8803C-30.983 65.9881 -31.0368 66.096 -31.0908 66.2218C-35.224 66.06 -34.3794 71.0559 -32.0791 78.7473C-33.0675 86.7083 -33.0675 91.7761 -29.0061 90.9315C-28.9343 91.0393 -28.8624 91.1471 -28.8085 91.237C-29.7789 93.6091 -28.1975 95.8554 -26.4184 97.347C-26.616 99.6652 -26.1129 102.361 -23.7407 103.331C-23.7228 103.439 -23.6869 103.565 -23.6509 103.691C-27.0833 105.991 -23.4712 109.531 -17.0916 114.401C-13.2099 121.428 -10.2268 125.525 -7.44132 122.452C-7.31553 122.506 -7.2077 122.542 -7.09987 122.578C-6.50684 125.058 -3.90113 125.956 -1.58291 126.1C-0.378876 128.095 1.61588 129.982 4.09583 129.353C4.18569 129.425 4.27559 129.515 4.36544 129.586C2.92778 133.468 7.94159 134.205 15.9745 134.403C23.2526 137.799 28.0687 139.362 28.518 135.247C28.6438 135.211 28.7696 135.175 28.8774 135.157C30.8183 136.811 33.46 136.02 35.4188 134.762C37.5573 135.66 40.2888 136.02 41.9421 134.061C42.0499 134.061 42.1757 134.079 42.3015 134.097C43.4337 138.087 47.9084 135.732 54.5216 131.168C62.3928 129.64 67.2089 128.077 65.1603 124.483C65.2501 124.393 65.322 124.285 65.3939 124.195C67.9457 124.393 69.599 122.2 70.4616 120.026C72.7259 119.505 75.134 118.175 75.3137 115.623C75.4036 115.569 75.5114 115.497 75.6192 115.426C78.8719 117.977 81.1182 113.449 83.7779 105.883C89.2589 100.025 92.2242 95.9273 88.4503 94.2201C88.4503 94.0943 88.4682 93.9685 88.4682 93.8607C90.6426 92.5129 90.6966 89.7634 90.1216 87.517C91.6491 85.7559 92.8172 83.2759 91.4694 81.1015C91.5053 80.9937 91.5591 80.8858 91.6131 80.76C95.7463 80.9218 94.9018 75.9259 92.6015 68.2345C93.5899 60.2735 93.5899 55.2057 89.5285 56.0503C89.4566 55.9425 89.3848 55.8347 89.3309 55.7448C90.3013 53.3727 88.7198 51.1264 86.9407 49.6348C87.1384 47.3166 86.6352 44.621 84.2631 43.6506C84.2451 43.5428 84.2092 43.417 84.1733 43.2912C87.6057 40.9909 83.9935 37.4507 77.6139 32.5806C73.7323 25.5541 70.7491 21.4568 67.9637 24.5298C67.8379 24.4758 67.7301 24.4399 67.6222 24.404C67.0292 21.924 64.4234 21.0255 62.1052 20.8817C60.9012 18.887 58.9065 17 56.4265 17.629C56.3367 17.5571 56.2468 17.4673 56.1569 17.3954C57.5946 13.5137 52.5808 12.7769 44.5479 12.5793C37.2697 9.18279 32.4536 7.61934 32.0043 11.7346C31.8785 11.7706 31.7528 11.8065 31.6449 11.8245C29.7041 10.1712 27.0624 10.9799 25.1036 12.2198ZM15.2557 37.8281C18.1849 40.8651 22.6416 42.141 27.4937 40.7753C32.5075 41.3144 36.6947 39.3196 39.0848 35.8333C39.6778 40.0025 42.5171 43.6685 47.2614 45.4117C50.9993 48.8082 55.5639 49.6348 59.5354 48.2151C57.5586 51.9351 57.7204 56.5715 60.5238 60.7766C61.5661 65.7186 64.765 69.0791 68.8084 70.2652C65.0165 72.1161 62.4287 75.9619 62.231 80.9937C60.1644 85.6121 60.7754 90.1947 63.3452 93.5372C59.194 92.8184 54.8451 94.3818 51.7182 98.3534C47.3334 100.869 45.1409 104.949 45.2488 109.154C42.3195 106.117 37.8627 104.841 33.0107 106.207C27.9968 105.667 23.8097 107.662 21.4196 111.148C20.8266 106.979 17.9872 103.313 13.2429 101.57C9.505 98.1736 4.94048 97.347 0.968952 98.7667C2.94573 95.0468 2.78401 90.4103 -0.019413 86.2052C-1.06171 81.2632 -4.26053 77.9027 -8.30393 76.7166C-4.51212 74.8657 -1.92433 71.0199 -1.72665 65.9881C0.339977 61.3876 -0.271019 56.7871 -2.84083 53.4446C1.3104 54.1634 5.65931 52.6 8.78621 48.6284C13.1711 46.1126 15.3635 42.0512 15.2557 37.8281Z" fill="#C3D5E3"/>
</svg>
