<svg width="220" height="220" viewBox="0 0 220 220" fill="none" xmlns="http://www.w3.org/2000/svg">
<path d="M92.2988 188.729C39.6748 179.52 46.7148 152.297 30.1532 120.872C13.5916 89.4475 11.6336 76.6567 28.0368 49.7199C44.44 22.7831 79.9216 7.63393 112.988 30.1663C146.054 52.6987 170.188 45.7115 190.19 63.2631C210.192 80.8147 212.876 105.314 189.165 127.142C165.453 148.971 157.186 200.072 92.2988 188.729Z" fill="#065EA9"/>
<path opacity="0.9" d="M92.2988 188.729C39.6748 179.52 46.7148 152.297 30.1532 120.872C13.5916 89.4475 11.6336 76.6567 28.0368 49.7199C44.44 22.7831 79.9216 7.63393 112.988 30.1663C146.054 52.6987 170.188 45.7115 190.19 63.2631C210.192 80.8147 212.876 105.314 189.165 127.142C165.453 148.971 157.186 200.072 92.2988 188.729Z" fill="white"/>
<path d="M28.2833 117.445V40.6869H34.8129" stroke="#263238" stroke-width="0.44" stroke-linecap="round" stroke-linejoin="round"/>
<path d="M28.2876 129.994V127.195" stroke="#263238" stroke-width="0.44" stroke-linecap="round" stroke-linejoin="round"/>
<path d="M51.5989 40.6869H118.945V139.819H28.2833" stroke="#263238" stroke-width="0.44" stroke-linecap="round" stroke-linejoin="round"/>
<path d="M43.34 40.6869H49.258" stroke="#263238" stroke-width="0.44" stroke-linecap="round" stroke-linejoin="round"/>
<path d="M115.535 44.0923H31.6932V136.417H115.535V44.0923Z" stroke="#263238" stroke-width="0.44" stroke-linecap="round" stroke-linejoin="round"/>
<path d="M111.637 50.5692V86.4776H35.5916V83.204" stroke="#263238" stroke-width="0.44" stroke-linecap="round" stroke-linejoin="round"/>
<path d="M35.5916 75.5216V47.6564H111.637" stroke="#263238" stroke-width="0.44" stroke-linecap="round" stroke-linejoin="round"/>
<path d="M35.596 80.6828V77.4972" stroke="#263238" stroke-width="0.44" stroke-linecap="round" stroke-linejoin="round"/>
<path d="M98.7975 90.2528H115.535" stroke="#263238" stroke-width="0.44" stroke-linecap="round" stroke-linejoin="round"/>
<path d="M92.8443 90.2528H95.2115" stroke="#263238" stroke-width="0.44" stroke-linecap="round" stroke-linejoin="round"/>
<path d="M31.6932 90.2528H90.0152" stroke="#263238" stroke-width="0.44" stroke-linecap="round" stroke-linejoin="round"/>
<path d="M69.4011 86.4776V84.7528H76.4103V85.734H73.6163V86.4776" stroke="#263238" stroke-width="0.44" stroke-linecap="round" stroke-linejoin="round"/>
<path d="M31.8384 121.198C31.8384 121.198 33 122.078 33.8184 127.402C33.8184 127.402 35.2264 118.897 36.9336 118.765C38.6408 118.633 38.28 124.3 38.28 124.3C38.28 124.3 38.5616 121.506 39.8992 121.634C41.2368 121.761 39.8992 127.402 39.8992 127.402C39.8992 127.402 41.5052 123.002 43.0232 123.081C44.5412 123.16 42.0156 131.05 42.0156 131.05C42.0156 131.05 45.914 128.225 47.4936 129.606C49.0732 130.988 46.6136 134.473 46.6136 134.473C46.6136 134.473 52.206 133.258 53.0728 136.536" stroke="#263238" stroke-width="0.44" stroke-linecap="round" stroke-linejoin="round"/>
<path d="M53.086 133.36C53.086 133.36 55.5236 131.762 57.4376 132.506C57.4376 132.506 56.2188 130.649 57.4376 129.514C58.6564 128.379 60.2228 132.506 60.2228 132.506C60.2228 132.506 60.3988 125.594 62.8364 125.941C65.274 126.289 62.8364 132.506 62.8364 132.506C62.8364 132.506 67.188 128.652 68.2308 129.994C69.2736 131.336 67.5356 133.36 67.5356 133.36C67.5356 133.36 70.1448 132.524 72.0588 134.473C72.0588 134.473 74.976 131.494 78.2188 131.067C78.2188 131.067 76.0628 124.81 77.11 123.548C78.1572 122.285 80.0492 129.008 80.0492 129.008C80.0492 129.008 80.8808 124.634 83.6044 124.3C83.6044 124.3 81.334 123.064 82.0072 121.198C82.6804 119.332 85.8132 121.638 85.8132 121.638C85.8132 121.638 84.524 118.351 86.5612 117.449C88.5984 116.547 89.4476 120.199 89.4476 120.199C89.4476 120.199 90.0152 116.371 92.4088 116.582C94.8024 116.794 94.028 121.202 94.028 121.202C94.028 121.202 96.2852 117.682 97.4952 118.056C99.9108 118.769 99.176 124.304 99.176 124.304C99.176 124.304 102.551 121.959 103.418 123.037C104.355 124.203 99.8976 127.2 99.8976 127.2C99.8976 127.2 103.246 127.569 105.327 129.518" stroke="#263238" stroke-width="0.44" stroke-linecap="round" stroke-linejoin="round"/>
<path d="M115.535 122.461C115.535 122.461 115.152 118.941 111.637 118.765C108.121 118.589 112.605 126.465 112.605 126.465C112.605 126.465 109.705 124.067 108.667 124.806C107.628 125.545 111.637 129.606 111.637 129.606C111.637 129.606 109.714 127.846 107.677 128.379C105.64 128.911 108.834 134.583 108.834 134.583C105.823 133.975 102.696 134.34 99.9064 135.626" stroke="#263238" stroke-width="0.44" stroke-linecap="round" stroke-linejoin="round"/>
<path d="M150.506 169.673V125.813H199.892" stroke="#263238" stroke-width="0.44" stroke-linecap="round" stroke-linejoin="round"/>
<path d="M198.097 130.35H154.48V171.204" stroke="#263238" stroke-width="0.44" stroke-linecap="round" stroke-linejoin="round"/>
<path d="M163.209 152.632V134.473H166.065V138.217H169.875V136.536H173.281V138.574H177.879V134.473H182.582V137.227H185.117V135.626H189.658V146.322" stroke="#263238" stroke-width="0.44" stroke-linecap="round" stroke-linejoin="round"/>
<path d="M185.117 137.227V152.631" stroke="#263238" stroke-width="0.44" stroke-linecap="round" stroke-linejoin="round"/>
<path d="M182.948 139.533V142.283" stroke="#263238" stroke-width="0.44" stroke-linecap="round" stroke-linejoin="round"/>
<path d="M182.948 144.254V155.549" stroke="#263238" stroke-width="0.44" stroke-linecap="round" stroke-linejoin="round"/>
<path d="M177.879 138.578V148.724" stroke="#263238" stroke-width="0.44" stroke-linecap="round" stroke-linejoin="round"/>
<path d="M178.055 152.068V155.228" stroke="#263238" stroke-width="0.44" stroke-linecap="round" stroke-linejoin="round"/>
<path d="M173.281 138.578V144.254" stroke="#263238" stroke-width="0.44" stroke-linecap="round" stroke-linejoin="round"/>
<path d="M173.281 147.743V159.702" stroke="#263238" stroke-width="0.44" stroke-linecap="round" stroke-linejoin="round"/>
<path d="M169.875 138.217V152.315" stroke="#263238" stroke-width="0.44" stroke-linecap="round" stroke-linejoin="round"/>
<path d="M166.065 138.217V143.55" stroke="#263238" stroke-width="0.44" stroke-linecap="round" stroke-linejoin="round"/>
<path d="M166.065 146.322V158.998" stroke="#263238" stroke-width="0.44" stroke-linecap="round" stroke-linejoin="round"/>
<path d="M163.209 155.228V160.952" stroke="#263238" stroke-width="0.44" stroke-linecap="round" stroke-linejoin="round"/>
<path d="M157.318 160.952H191.981" stroke="#263238" stroke-width="0.44" stroke-linecap="round" stroke-linejoin="round"/>
<path d="M185.117 160.952V157.287" stroke="#263238" stroke-width="0.44" stroke-linecap="round" stroke-linejoin="round"/>
<path d="M178.055 158.255V160.78" stroke="#263238" stroke-width="0.44" stroke-linecap="round" stroke-linejoin="round"/>
<path d="M190.045 140.329H193.406" stroke="#263238" stroke-width="0.44" stroke-linecap="round" stroke-linejoin="round"/>
<path d="M157.45 164.146H189.658" stroke="#263238" stroke-width="0.44" stroke-linecap="round" stroke-linejoin="round"/>
<path d="M164.362 173.461V169.193H170.328V171.943H175.129V177.307H177.879V169.356H183.973V171.204H187.717" stroke="#263238" stroke-width="0.44" stroke-linecap="round" stroke-linejoin="round"/>
<path d="M183.973 171.204V175.78" stroke="#263238" stroke-width="0.44" stroke-linecap="round" stroke-linejoin="round"/>
<path d="M178.055 179.243V182.323" stroke="#263238" stroke-width="0.44" stroke-linecap="round" stroke-linejoin="round"/>
<path d="M175.129 177.307V181.364" stroke="#263238" stroke-width="0.44" stroke-linecap="round" stroke-linejoin="round"/>
<path d="M170.329 171.943V174.271" stroke="#263238" stroke-width="0.44" stroke-linecap="round" stroke-linejoin="round"/>
<path d="M198.246 32.1948H92.8048V105.046H198.246V32.1948Z" fill="#065EA9" stroke="#263238" stroke-width="0.44" stroke-linecap="round" stroke-linejoin="round"/>
<path d="M198.246 32.1948H92.8048V39.3976H198.246V32.1948Z" fill="#263238"/>
<path d="M135.52 82.1437L133.047 78.7029C133.047 77.9843 133.01 77.2662 132.937 76.5513C132.845 76.2301 131.344 73.8673 131.309 73.3085C131.304 73.0416 131.27 72.7761 131.208 72.5165C131.208 72.5165 130.438 72.7101 130.447 73.1809C130.456 73.6517 130.539 75.2401 130.539 75.2401C130.539 75.2401 128.533 74.0697 128.308 73.7617C128.084 73.4537 125.638 71.6585 125.409 71.3901C125.18 71.1217 124.247 71.1041 124.137 71.3901L124.269 71.7201L123.499 72.0853L124.014 73.6121C123.867 73.9558 123.778 74.3216 123.75 74.6945C123.834 74.8837 124.107 76.0145 124.107 76.0145C124.107 76.0145 123.939 76.1861 123.961 76.7845C123.983 77.3829 127.27 80.4409 127.921 80.7709C128.699 81.0977 129.495 81.3783 130.306 81.6113L132.37 84.2821L135.52 82.1437Z" fill="white" stroke="#263238" stroke-width="0.44" stroke-linecap="round" stroke-linejoin="round"/>
<path d="M130.535 75.24C130.151 76.1143 130.052 77.0873 130.253 78.0208" stroke="#263238" stroke-width="0.44" stroke-linecap="round" stroke-linejoin="round"/>
<path d="M124.265 71.72C124.929 71.9752 125.761 73.216 126.144 73.5988C126.49 73.9111 126.861 74.195 127.252 74.448" stroke="#263238" stroke-width="0.44" stroke-linecap="round" stroke-linejoin="round"/>
<path d="M124.01 73.5989C124.555 73.4845 124.925 73.6957 124.912 74.2281C124.898 74.7605 126.078 75.5701 126.078 75.5701" stroke="#263238" stroke-width="0.44" stroke-linecap="round" stroke-linejoin="round"/>
<path d="M124.102 76.0012C124.102 76.0012 124.485 75.3192 124.788 75.6316C125.092 75.944 125.189 76.7448 125.748 76.912" stroke="#263238" stroke-width="0.44" stroke-linecap="round" stroke-linejoin="round"/>
<path d="M167.675 78.4036C167.675 78.4036 158.994 78.9404 157.08 79.7236C155.509 80.3704 144.461 87.6436 144.461 87.6436C144.461 87.6436 137.962 82.742 136.075 81.0436C135.71 80.8676 135.319 80.7545 134.917 80.7092L133.927 80.08L131.494 83.5076L132.176 84.4536C132.176 84.4536 132.286 85.9804 132.59 86.3632C136.629 91.4364 144.364 98.538 145.526 99.2376C146.687 99.9372 156.992 93.8388 156.992 93.8388L158.906 105.059H189.64C189.64 105.059 189.561 85.3688 188.267 83.8596C186.974 82.3504 172.146 76.4324 172.146 76.4324L167.675 78.4036Z" fill="#757575" stroke="#263238" stroke-width="0.44" stroke-linecap="round" stroke-linejoin="round"/>
<path d="M178.055 71.28C178.055 71.28 175.301 73.128 176.761 79.0328C176.761 79.0328 172.612 81.9984 168.507 79.0064C168.507 79.0064 169.453 74.2984 168.507 73.3524" fill="white"/>
<path d="M178.055 71.28C178.055 71.28 175.301 73.128 176.761 79.0328C176.761 79.0328 172.612 81.9984 168.507 79.0064C168.507 79.0064 169.453 74.2984 168.507 73.3524" stroke="#263238" stroke-width="0.44" stroke-linecap="round" stroke-linejoin="round"/>
<path d="M187.717 84.7747C187.717 84.7747 183.973 89.0823 183.537 96.4567" stroke="#263238" stroke-width="0.44" stroke-linecap="round" stroke-linejoin="round"/>
<path d="M171.239 59.4483C171.239 59.4483 168.784 59.0787 167.926 62.0883C167.426 63.9315 167.629 65.8946 168.494 67.5971L173.008 63.3599L171.239 59.4483Z" fill="#263238"/>
<path d="M177.215 73.0752C180.378 69.3 182.613 63.008 177.861 60.4956C168.692 55.6468 165.66 65.12 167.2 73.92C167.675 76.6348 171.362 75.4248 174.06 74.4436" fill="white"/>
<path d="M177.215 73.0752C180.378 69.3 182.613 63.008 177.861 60.4956C168.692 55.6468 165.66 65.12 167.2 73.92C167.675 76.6348 171.362 75.4248 174.06 74.4436" stroke="#263238" stroke-width="0.44" stroke-linecap="round" stroke-linejoin="round"/>
<path d="M170.808 64.8693C170.808 64.8693 172.322 65.2785 172.704 66.0881" stroke="#263238" stroke-width="0.44" stroke-linecap="round" stroke-linejoin="round"/>
<path d="M168.617 64.4688C168.438 64.3809 168.24 64.3404 168.041 64.3512C167.842 64.362 167.65 64.4237 167.482 64.5304" stroke="#263238" stroke-width="0.44" stroke-linecap="round" stroke-linejoin="round"/>
<path d="M170.782 66.9548C170.755 67.2232 170.874 67.4564 171.046 67.474C171.217 67.4916 171.38 67.2848 171.406 67.034C171.433 66.7832 171.314 66.528 171.142 66.5104C170.971 66.4928 170.808 66.682 170.782 66.9548Z" fill="#263238"/>
<path d="M167.499 66.1407C167.477 66.4135 167.596 66.6467 167.768 66.6643C167.939 66.6819 168.102 66.4751 168.128 66.2243C168.155 65.9735 168.036 65.7227 167.86 65.7051C167.684 65.6875 167.526 65.8723 167.499 66.1407Z" fill="#263238"/>
<path d="M175.802 68.7193C175.802 68.7193 174.381 70.7785 173.426 71.4385C172.809 71.8335 172.066 71.9812 171.345 71.8521C171.345 71.8521 170.126 70.3473 168.348 70.3253C167.888 70.0323 167.365 69.8529 166.822 69.8017L166.923 67.5049C166.923 67.5049 165.572 72.4285 165.7 74.1929C165.827 75.9573 170.166 77.1805 172.335 76.6877C174.504 76.1949 175.608 72.8201 176.268 69.6477C176.317 69.3837 175.802 68.7193 175.802 68.7193Z" fill="#263238"/>
<path d="M167.086 71.4603C167.086 71.4603 168.802 72.2831 170.328 72.0895" stroke="white" stroke-width="0.44" stroke-linecap="round" stroke-linejoin="round"/>
<path d="M177.223 62.4448C177.786 62.0048 176.343 60.1128 175.534 60.1524C174.724 60.192 170.751 60.3416 170.751 60.3416C170.751 60.3416 169.915 55.968 176.603 58.3308C177.698 58.718 178.05 59.7432 179.032 60.2668C180.013 60.7904 181.342 63.5448 180.963 65.8944C180.585 68.244 179.331 72.3668 177.056 73.6032C177.056 73.6032 176.273 73.524 176.748 72.9828C178.988 70.4616 176.642 65.7184 176.268 69.6388L175.481 69.168C175.475 68.7375 175.519 68.3078 175.613 67.8876C175.78 66.8096 174.588 64.6052 177.223 62.4448Z" fill="#263238"/>
<path d="M176.88 68.4332C176.88 68.4332 178.319 66.726 179.19 67.3068C180.061 67.8876 179.476 69.9468 179.01 70.4616C178.543 70.9764 178.165 71.0908 177.518 71.9136C176.871 72.7364 176.057 72.4592 176.198 71.7992" fill="white"/>
<path d="M176.88 68.4332C176.88 68.4332 178.319 66.726 179.19 67.3068C180.061 67.8876 179.476 69.9468 179.01 70.4616C178.543 70.9764 178.165 71.0908 177.518 71.9136C176.871 72.7364 176.057 72.4592 176.198 71.7992" stroke="#263238" stroke-width="0.44" stroke-linecap="round" stroke-linejoin="round"/>
<path d="M172.48 67.1748C172.528 68.1296 171.948 68.9348 171.16 68.9744C170.372 69.014 169.73 68.2748 169.682 67.32C169.633 66.3652 170.214 65.56 171.002 65.5204C171.789 65.4808 172.423 66.22 172.48 67.1748Z" stroke="#263238" stroke-width="0.22" stroke-miterlimit="10"/>
<path d="M168.423 66.308C168.476 67.2628 167.891 68.068 167.125 68.112C166.36 68.156 165.695 67.408 165.642 66.4532C165.59 65.4984 166.179 64.6932 166.962 64.6536C167.746 64.614 168.375 65.3532 168.423 66.308Z" stroke="#263238" stroke-width="0.22" stroke-miterlimit="10"/>
<path d="M168.841 65.4896C168.841 65.9296 166.562 68.53 166.536 69.102C166.509 69.674 168.656 69.7092 168.656 69.7092" fill="white"/>
<path d="M168.841 65.4896C168.841 65.9296 166.562 68.53 166.536 69.102C166.509 69.674 168.656 69.7092 168.656 69.7092" stroke="#263238" stroke-width="0.44" stroke-linecap="round" stroke-linejoin="round"/>
<path d="M168.423 66.308C168.423 66.308 169.105 66.1364 169.677 67.056" stroke="#263238" stroke-width="0.22" stroke-miterlimit="10"/>
<path d="M172.489 67.5092L173.228 67.6192L177.377 67.9096" stroke="#263238" stroke-width="0.22" stroke-miterlimit="10"/>
<path d="M185.117 87.1199L184.29 86.0947C184.29 86.0947 177.32 86.8911 174.24 91.0447C174.24 91.0447 168.52 88.3431 163.372 89.6587L163.222 91.5023L174.482 98.2387L178.882 96.4083L185.117 87.1199Z" fill="white" stroke="#263238" stroke-width="0.44" stroke-linecap="round" stroke-linejoin="round"/>
<path d="M186.248 86.4996L185.06 94.4196C185.06 94.4196 178.504 97.2972 177.14 99.6116L176.814 99.6556L175.274 99.8712L174.442 99.6248C172.408 99.0325 170.335 98.5797 168.238 98.2696C167.511 98.1573 166.773 98.1292 166.038 98.186L161.603 91.2736C161.603 91.2736 168.463 90.3232 173.206 91.9468L175.476 91.7884L175.56 91.718C176.242 91.1592 181.02 87.362 186.248 86.4996Z" fill="#065EA9"/>
<mask id="mask0_124_3002" style="mask-type:luminance" maskUnits="userSpaceOnUse" x="161" y="86" width="26" height="14">
<path d="M186.248 86.4996L185.06 94.4196C185.06 94.4196 178.504 97.2972 177.14 99.6116L176.814 99.6556L175.274 99.8712L174.442 99.6248C172.408 99.0325 170.335 98.5797 168.238 98.2696C167.511 98.1573 166.773 98.1292 166.038 98.186L161.603 91.2736C161.603 91.2736 168.463 90.3232 173.206 91.9468L175.476 91.7884L175.56 91.718C176.242 91.1592 181.02 87.362 186.248 86.4996Z" fill="white"/>
</mask>
<g mask="url(#mask0_124_3002)">
<path opacity="0.3" d="M176.726 97.8076L175.56 91.7136C176.238 91.1592 181.016 87.362 186.243 86.4996L185.055 94.4196C185.055 94.4196 178.499 97.2972 177.135 99.6116L176.81 99.6556L176.726 97.8076Z" fill="black" fill-opacity="0.7"/>
<path opacity="0.3" d="M174.469 98.2387L174.438 99.6203C172.403 99.0279 170.331 98.5752 168.234 98.2651C168.327 96.8675 168.874 95.5384 169.791 94.4798C170.708 93.4212 171.946 92.6909 173.316 92.3999L174.469 98.2387Z" fill="black" fill-opacity="0.7"/>
</g>
<path d="M186.248 86.4996L185.06 94.4196C185.06 94.4196 178.504 97.2972 177.14 99.6116L176.814 99.6556L175.274 99.8712L174.442 99.6248C172.408 99.0325 170.335 98.5797 168.238 98.2696C167.511 98.1573 166.773 98.1292 166.038 98.186L161.603 91.2736C161.603 91.2736 168.463 90.3232 173.206 91.9468L175.476 91.7884L175.56 91.718C176.242 91.1592 181.02 87.362 186.248 86.4996Z" stroke="#263238" stroke-width="0.44" stroke-linecap="round" stroke-linejoin="round"/>
<path d="M176.7 101.543C174.35 101.394 169.88 97.7944 169.88 97.7944C169.611 97.1228 169.233 96.5 168.762 95.9508C168.124 95.3128 168.973 94.7804 168.973 94.7804C168.973 94.7804 168.23 94.3008 167.807 94.0368C167.385 93.7728 168.124 93.0776 168.124 93.0776C168.124 93.0776 171.314 93.5176 171.644 93.3988C171.974 93.28 175.036 95.26 175.512 95.3128C176.157 95.3247 176.793 95.1587 177.351 94.8332C177.668 94.5692 178.649 92.9192 179.287 92.598C179.925 92.2768 181.047 92.2812 180.51 92.972C179.973 93.6628 180.07 95.2028 179.806 95.4184C179.542 95.634 179.106 97.9484 179.106 98.7448L182.582 101.922L180.602 104.619L176.7 101.543Z" fill="white" stroke="#263238" stroke-width="0.44" stroke-linecap="round" stroke-linejoin="round"/>
<path d="M168.96 94.7804C169.585 94.8502 170.194 95.0211 170.764 95.2864" stroke="#263238" stroke-width="0.44" stroke-linecap="round" stroke-linejoin="round"/>
<path d="M171.327 96.0388C171.327 96.0388 171.129 96.844 171.076 96.9672C171.024 97.0904 171.732 97.878 171.631 98.2388C171.53 98.5996 172.348 99.5588 172.348 99.5588" stroke="#263238" stroke-width="0.44" stroke-linecap="round" stroke-linejoin="round"/>
<path d="M170.526 96.9672C169.915 96.6731 169.327 96.3334 168.766 95.9508" stroke="#263238" stroke-width="0.44" stroke-linecap="round" stroke-linejoin="round"/>
<path d="M168.824 76.9296L170.346 79.9964L176.603 76.5292L177.98 79.6004L171.596 83.6528L170.368 80.4804L167.886 82.8696L167.046 79.0064L168.824 76.9296Z" fill="#757575" stroke="#263238" stroke-width="0.44" stroke-linecap="round" stroke-linejoin="round"/>
<path d="M188.285 83.8464C189.803 85.47 195.202 97.3764 195.721 105.046H179.274V104.359L177.478 103.308C177.478 103.308 178.592 99.3916 181.764 100.003L182.688 101.323L184.734 102.863C184.734 102.863 188.324 102.956 189.367 103.99" fill="#757575"/>
<path d="M188.285 83.8464C189.803 85.47 195.202 97.3764 195.721 105.046H179.274V104.359L177.478 103.308C177.478 103.308 178.592 99.3916 181.764 100.003L182.688 101.323L184.734 102.863C184.734 102.863 188.324 102.956 189.367 103.99" stroke="#263238" stroke-width="0.44" stroke-linecap="round" stroke-linejoin="round"/>
<path d="M184.734 102.881C184.734 102.881 186.727 100.008 189.658 101.222" stroke="#263238" stroke-width="0.44" stroke-linecap="round" stroke-linejoin="round"/>
<path d="M183.973 98.2388C184.612 99.4263 185.183 100.65 185.68 101.904" stroke="#263238" stroke-width="0.44" stroke-linecap="round" stroke-linejoin="round"/>
<path d="M156.992 93.8256C156.992 93.8256 155.773 86.724 156.112 84.2688L156.992 93.8256Z" fill="#757575"/>
<path d="M156.992 93.8256C156.992 93.8256 155.773 86.724 156.112 84.2688" stroke="#263238" stroke-width="0.44" stroke-linecap="round" stroke-linejoin="round"/>
<path d="M154.554 87.0364C154.554 87.0364 155.232 90.5256 156.754 92.3956L154.554 87.0364Z" fill="#757575"/>
<path d="M154.554 87.0364C154.554 87.0364 155.232 90.5256 156.754 92.3956" stroke="#263238" stroke-width="0.44" stroke-linecap="round" stroke-linejoin="round"/>
<path d="M144.461 87.6481C144.461 87.6481 146.375 89.2321 145.156 93.1833L144.461 87.6481Z" fill="#757575"/>
<path d="M144.461 87.6481C144.461 87.6481 146.375 89.2321 145.156 93.1833" stroke="#263238" stroke-width="0.44" stroke-linecap="round" stroke-linejoin="round"/>
<path d="M170.056 82.9928C170.056 83.0748 170.031 83.155 169.986 83.2231C169.94 83.2912 169.875 83.3442 169.799 83.3754C169.723 83.4065 169.64 83.4145 169.56 83.3982C169.479 83.3818 169.406 83.342 169.348 83.2837C169.29 83.2254 169.251 83.1513 169.236 83.0708C169.22 82.9903 169.229 82.907 169.261 82.8315C169.293 82.756 169.347 82.6917 169.415 82.6468C169.484 82.6019 169.564 82.5784 169.646 82.5792C169.701 82.5792 169.754 82.59 169.804 82.6108C169.854 82.6317 169.899 82.6622 169.937 82.7007C169.975 82.7391 170.005 82.7847 170.026 82.8349C170.046 82.8851 170.056 82.9387 170.056 82.9928Z" fill="#263238"/>
<path d="M168.973 89.0472C169.202 89.0472 169.387 88.862 169.387 88.6336C169.387 88.4051 169.202 88.22 168.973 88.22C168.745 88.22 168.56 88.4051 168.56 88.6336C168.56 88.862 168.745 89.0472 168.973 89.0472Z" fill="#263238"/>
<path d="M168.348 101.75C168.577 101.75 168.762 101.565 168.762 101.336C168.762 101.108 168.577 100.923 168.348 100.923C168.12 100.923 167.935 101.108 167.935 101.336C167.935 101.565 168.12 101.75 168.348 101.75Z" fill="#263238"/>
<path d="M114.814 64.0113H119.997L122.593 59.5189L119.997 55.0309H114.814L112.222 59.5189L114.814 64.0113Z" stroke="#263238" stroke-width="0.44" stroke-linecap="round" stroke-linejoin="round"/>
<path d="M114.061 73.8584L111.47 69.3704H106.286" stroke="#263238" stroke-width="0.44" stroke-linecap="round" stroke-linejoin="round"/>
<path d="M106.982 59.5189H112.165L114.756 55.0309L112.165 50.5385H106.982L104.39 55.0309L106.982 59.5189Z" stroke="#263238" stroke-width="0.44" stroke-linecap="round" stroke-linejoin="round"/>
<path d="M114.814 55.0308H119.997L122.593 50.5384L119.997 46.0504H114.814L112.222 50.5384L114.814 55.0308Z" stroke="#263238" stroke-width="0.44" stroke-linecap="round" stroke-linejoin="round"/>
<path d="M114.061 55.0308C114.06 54.892 114.101 54.7562 114.177 54.6404C114.254 54.5247 114.363 54.4344 114.491 54.3809C114.619 54.3274 114.76 54.3132 114.896 54.34C115.032 54.3669 115.157 54.4336 115.256 54.5317C115.354 54.6298 115.42 54.7549 115.447 54.891C115.474 55.0271 115.46 55.1681 115.406 55.2961C115.353 55.4241 115.263 55.5334 115.147 55.6099C115.031 55.6864 114.895 55.7268 114.756 55.726C114.572 55.726 114.395 55.6527 114.265 55.5223C114.135 55.392 114.061 55.2151 114.061 55.0308Z" fill="#263238"/>
<path d="M103.932 46.3012C104.316 46.3012 104.628 45.9899 104.628 45.606C104.628 45.222 104.316 44.9108 103.932 44.9108C103.549 44.9108 103.237 45.222 103.237 45.606C103.237 45.9899 103.549 46.3012 103.932 46.3012Z" fill="#263238"/>
<path d="M113.366 73.8584C113.366 73.7209 113.407 73.5865 113.483 73.4722C113.56 73.3578 113.668 73.2687 113.795 73.2161C113.922 73.1635 114.062 73.1497 114.197 73.1766C114.332 73.2034 114.456 73.2696 114.553 73.3668C114.65 73.4641 114.716 73.5879 114.743 73.7228C114.77 73.8576 114.756 73.9974 114.703 74.1245C114.651 74.2515 114.562 74.3601 114.447 74.4364C114.333 74.5128 114.199 74.5536 114.061 74.5536C113.877 74.5536 113.7 74.4804 113.57 74.35C113.439 74.2196 113.366 74.0428 113.366 73.8584Z" fill="#263238"/>
<path d="M106.286 70.0656C106.67 70.0656 106.982 69.7543 106.982 69.3704C106.982 68.9864 106.67 68.6752 106.286 68.6752C105.903 68.6752 105.591 68.9864 105.591 69.3704C105.591 69.7543 105.903 70.0656 106.286 70.0656Z" fill="#263238"/>
<path d="M127.6 50.6571C127.6 50.5186 127.641 50.3831 127.718 50.268C127.795 50.1528 127.905 50.0632 128.033 50.0104C128.161 49.9575 128.302 49.9439 128.438 49.9713C128.574 49.9986 128.698 50.0657 128.796 50.164C128.894 50.2623 128.96 50.3873 128.986 50.5233C129.013 50.6593 128.998 50.8001 128.945 50.9279C128.891 51.0557 128.801 51.1646 128.685 51.2409C128.57 51.3173 128.434 51.3576 128.295 51.3567C128.204 51.3567 128.113 51.3386 128.028 51.3034C127.944 51.2682 127.867 51.2166 127.802 51.1515C127.738 51.0865 127.686 51.0094 127.652 50.9245C127.617 50.8396 127.6 50.7488 127.6 50.6571Z" fill="#263238"/>
<path d="M111.417 70.0656C111.801 70.0656 112.112 69.7543 112.112 69.3704C112.112 68.9864 111.801 68.6752 111.417 68.6752C111.033 68.6752 110.722 68.9864 110.722 69.3704C110.722 69.7543 111.033 70.0656 111.417 70.0656Z" fill="#263238"/>
<path d="M121.88 50.6571C121.88 50.5188 121.921 50.3835 121.998 50.2684C122.075 50.1534 122.184 50.0637 122.312 50.0108C122.44 49.9578 122.58 49.944 122.716 49.971C122.852 49.998 122.976 50.0646 123.074 50.1624C123.172 50.2603 123.239 50.3849 123.266 50.5206C123.293 50.6563 123.279 50.797 123.226 50.9248C123.173 51.0527 123.083 51.1619 122.968 51.2388C122.853 51.3157 122.718 51.3567 122.58 51.3567C122.394 51.3567 122.216 51.283 122.085 51.1518C121.954 51.0206 121.88 50.8427 121.88 50.6571Z" fill="#263238"/>
<path d="M114.061 64.0112C114.06 63.8725 114.101 63.7366 114.177 63.6209C114.254 63.5052 114.363 63.4148 114.491 63.3613C114.619 63.3079 114.76 63.2936 114.896 63.3205C115.032 63.3473 115.157 63.4141 115.256 63.5122C115.354 63.6103 115.42 63.7353 115.447 63.8714C115.474 64.0076 115.46 64.1486 115.406 64.2766C115.353 64.4046 115.263 64.5138 115.147 64.5904C115.031 64.6669 114.895 64.7073 114.756 64.7064C114.572 64.7053 114.396 64.6317 114.266 64.5015C114.136 64.3714 114.062 64.1953 114.061 64.0112Z" fill="#263238"/>
<path d="M122.593 50.6572H128.3" stroke="#263238" stroke-width="0.44" stroke-linecap="round" stroke-linejoin="round"/>
<path d="M114.756 64.0112L111.417 69.3704" stroke="#263238" stroke-width="0.44" stroke-linecap="round" stroke-linejoin="round"/>
<path d="M106.982 50.5384L103.933 45.606" stroke="#263238" stroke-width="0.44" stroke-linecap="round" stroke-linejoin="round"/>
<path d="M101.006 85.7076C101.474 85.2869 101.998 84.9343 102.564 84.6604C102.587 84.8017 102.663 84.9288 102.777 85.0156C102.891 85.1023 103.033 85.1422 103.176 85.1268C103.488 85.0784 103.84 84.7704 104.056 84.9948C104.144 85.0828 104.161 85.2236 104.254 85.3072C104.535 85.5668 105.015 85.008 105.332 85.2192C105.415 85.2764 105.459 85.3732 105.547 85.4304C105.617 85.4604 105.692 85.4759 105.767 85.4759C105.843 85.4759 105.918 85.4604 105.987 85.4304C106.773 85.2513 107.58 85.1817 108.385 85.2236L112.077 85.25L111.795 85.1048" stroke="#263238" stroke-width="0.44" stroke-linecap="round" stroke-linejoin="round"/>
<path d="M100.808 88.7877C100.839 88.6431 100.92 88.5138 101.036 88.4222C101.152 88.3306 101.296 88.2825 101.444 88.2862C101.592 88.2898 101.734 88.345 101.845 88.4422C101.956 88.5394 102.03 88.6725 102.054 88.8185C102.145 88.7758 102.227 88.7147 102.293 88.639C102.36 88.5633 102.41 88.4746 102.441 88.3785C102.678 88.9109 103.413 88.9549 103.998 88.9153L106.608 88.7305C107.391 88.6733 108.306 88.5325 108.658 87.8505C109.045 88.5563 109.199 89.3663 109.098 90.1649C109.34 89.5901 109.655 89.0488 110.035 88.5545C110.114 88.8361 110.194 89.1177 110.268 89.3993C112.086 88.1277 114.572 88.9593 116.772 88.6821" stroke="#263238" stroke-width="0.44" stroke-linecap="round" stroke-linejoin="round"/>
<path d="M101.042 92.8664C101.033 92.7854 101.055 92.7043 101.103 92.6385C101.151 92.5727 101.222 92.5269 101.301 92.51C101.326 92.5898 101.367 92.6637 101.421 92.7272C101.475 92.7906 101.542 92.8423 101.617 92.879C101.692 92.9157 101.774 92.9366 101.857 92.9405C101.941 92.9444 102.024 92.9312 102.102 92.9016C102.416 92.7698 102.685 92.5497 102.876 92.268C102.942 92.3212 103.018 92.3599 103.1 92.3813C103.182 92.4028 103.267 92.4065 103.35 92.3924C103.434 92.3782 103.513 92.3465 103.583 92.2992C103.653 92.252 103.712 92.1903 103.756 92.1184C103.953 92.4363 104.115 92.774 104.24 93.126C104.478 92.5188 105.283 92.422 105.939 92.4264H111.219" stroke="#263238" stroke-width="0.44" stroke-linecap="round" stroke-linejoin="round"/>
<path d="M141.856 44.9768C140.596 44.9462 139.36 45.3278 138.336 46.0636C137.069 46.8732 135.863 48.2372 136.18 49.7068C136.497 51.1764 138.23 51.9552 139.757 52.25C141.07 52.5057 142.406 52.6237 143.744 52.602C144.259 52.6098 144.773 52.5551 145.275 52.4392C145.782 52.2955 146.275 52.1024 146.744 51.8628L150.15 50.2612C150.616 50.0412 151.14 49.7596 151.268 49.258C151.426 48.6376 150.894 48.0612 150.388 47.6872C148.476 46.3201 146.119 45.726 143.788 46.024" stroke="#263238" stroke-width="0.44" stroke-linecap="round" stroke-linejoin="round"/>
<path d="M137.812 48.268C138.013 48.0432 138.272 47.8786 138.56 47.7928C138.503 47.9612 138.503 48.1437 138.56 48.312C138.64 48.4704 138.882 48.5496 139 48.4176C139.119 48.2856 139.146 48.0744 139.278 48.1404L139.436 48.4924C139.652 48.4176 139.819 48.2416 140.03 48.1492C140.271 48.0686 140.527 48.0445 140.778 48.0788C142.667 48.1758 144.561 48.1184 146.441 47.9072" stroke="#263238" stroke-width="0.44" stroke-linecap="round" stroke-linejoin="round"/>
<path d="M140.893 50.16C140.92 50.0701 140.968 49.9878 141.033 49.9198C141.098 49.8518 141.178 49.8 141.267 49.7684C141.165 49.8784 141.289 50.0676 141.438 50.094C141.59 50.0967 141.74 50.0651 141.878 50.0016C142.045 49.9585 142.216 49.9349 142.388 49.9312L145.596 49.7112" stroke="#263238" stroke-width="0.44" stroke-linecap="round" stroke-linejoin="round"/>
<path d="M142.261 54.6304C141.333 57.9377 139.409 60.879 136.75 63.0541C134.092 65.2293 130.828 66.5329 127.402 66.7876" stroke="#263238" stroke-width="0.44" stroke-linecap="round" stroke-linejoin="round"/>
<path d="M127.455 65.8328C126.833 66.2172 126.278 66.7019 125.814 67.2672C126.088 67.2097 126.373 67.2294 126.638 67.3241C126.902 67.4189 127.134 67.585 127.31 67.804" stroke="#263238" stroke-width="0.44" stroke-linecap="round" stroke-linejoin="round"/>
<path d="M141.205 66.8799L141.605 67.7599L142.177 67.0823C142.284 67.1621 142.359 67.2776 142.388 67.4079C142.432 67.5311 142.498 67.6675 142.622 67.7027C142.745 67.7379 142.899 67.5707 142.806 67.4783C142.887 67.5331 142.979 67.5697 143.076 67.5857C143.172 67.6016 143.271 67.5965 143.365 67.5707C143.449 67.5707 143.524 67.5091 143.607 67.4871C143.707 67.4652 143.809 67.4564 143.911 67.4607H149.855" stroke="#263238" stroke-width="0.44" stroke-linecap="round" stroke-linejoin="round"/>
<path d="M141.482 71.72C141.51 71.6495 141.556 71.5875 141.615 71.5399C141.674 71.4923 141.744 71.4607 141.819 71.4484C141.894 71.436 141.971 71.4431 142.042 71.4691C142.113 71.4951 142.176 71.5391 142.226 71.5968C142.245 71.6531 142.275 71.7053 142.314 71.7508C142.367 71.7882 142.432 71.8044 142.496 71.7963C142.56 71.7881 142.619 71.7562 142.661 71.7068C142.758 71.6188 142.82 71.5 142.921 71.4208C143.198 71.2052 143.594 71.3724 143.933 71.4648C144.367 71.5555 144.812 71.5793 145.253 71.5352L148.628 71.3592" stroke="#263238" stroke-width="0.44" stroke-linecap="round" stroke-linejoin="round"/>
<path d="M141.588 75.4599C141.7 75.4629 141.81 75.428 141.9 75.361C141.99 75.294 142.055 75.1987 142.085 75.0903C142.141 75.0997 142.192 75.1257 142.233 75.165C142.274 75.2042 142.302 75.2549 142.314 75.3103C142.475 75.2104 142.613 75.0768 142.718 74.9187C144.892 74.9451 147.069 74.9451 149.248 74.9187" stroke="#263238" stroke-width="0.44" stroke-linecap="round" stroke-linejoin="round"/>
<path d="M141.583 78.254C141.718 78.3096 141.868 78.3135 142.006 78.2647C142.143 78.216 142.257 78.1181 142.327 77.99C142.465 78.1017 142.561 78.2568 142.6 78.43C142.686 78.3712 142.784 78.3311 142.887 78.3122C142.99 78.2933 143.096 78.2959 143.198 78.32C143.282 78.32 143.365 78.3772 143.449 78.3992C143.66 78.4532 143.878 78.4726 144.096 78.4564L151.681 78.3464" stroke="#263238" stroke-width="0.44" stroke-linecap="round" stroke-linejoin="round"/>
<path d="M121.216 96.0431L124.661 95.7087C124.694 95.7131 124.729 95.7091 124.76 95.6969C124.792 95.6847 124.82 95.6647 124.842 95.6389C124.864 95.6131 124.879 95.5822 124.885 95.549C124.892 95.5159 124.891 95.4815 124.881 95.4491V93.2491C124.889 93.176 124.87 93.1024 124.828 93.0423C124.8 93.0165 124.766 92.9966 124.73 92.9837C124.694 92.9709 124.655 92.9654 124.617 92.9675C123.869 92.9015 122.184 92.5275 121.537 93.0335C120.89 93.5395 121.22 95.2907 121.216 96.0431Z" stroke="#263238" stroke-width="0.44" stroke-linecap="round" stroke-linejoin="round"/>
<path d="M122.201 94.0808C122.245 94.2876 122.285 94.4944 122.329 94.7056C122.851 94.5966 123.387 94.5684 123.917 94.622" stroke="#263238" stroke-width="0.44" stroke-linecap="round" stroke-linejoin="round"/>
<path d="M123.957 96.9937C123.925 97.0432 123.907 97.1008 123.906 97.1599C123.905 97.2191 123.92 97.2773 123.95 97.3281C123.981 97.3789 124.024 97.4203 124.077 97.4475C124.129 97.4747 124.188 97.4867 124.247 97.4821C124.481 97.4381 124.665 97.1257 124.881 97.2225" stroke="#263238" stroke-width="0.44" stroke-linecap="round" stroke-linejoin="round"/>
<path d="M121.585 91.9204C121.629 91.8549 121.69 91.8034 121.763 91.7724C121.835 91.7413 121.915 91.732 121.992 91.7455C122.07 91.7591 122.141 91.7949 122.199 91.8486C122.256 91.9023 122.297 91.9716 122.316 92.048L123.143 91.9512" stroke="#263238" stroke-width="0.44" stroke-linecap="round" stroke-linejoin="round"/>
<path d="M128.449 99.2156C129.623 99.2156 130.796 99.2156 131.969 99.2156C132.881 99.2276 133.793 99.1732 134.697 99.0528C134.799 99.0473 134.895 99.0069 134.97 98.9384C135.032 98.8486 135.059 98.7388 135.045 98.6304V93.28C135.045 93.2184 129.655 93.0468 129.026 93.4824C127.758 94.3712 128.449 97.8472 128.449 99.2156Z" stroke="#263238" stroke-width="0.44" stroke-linecap="round" stroke-linejoin="round"/>
<path d="M130.359 94.864L131.199 94.886C131.048 95.4577 130.809 96.0024 130.491 96.5008C130.376 96.6548 130.24 96.8484 130.324 97.02C130.764 97.0904 131.278 97.13 131.556 96.7912C131.916 96.3512 131.6 95.6604 131.872 95.1676L131.978 96.2104L132.343 96.558C132.438 96.6642 132.557 96.7457 132.691 96.7956C132.758 96.8189 132.83 96.8185 132.897 96.7944C132.963 96.7704 133.02 96.7242 133.056 96.6636" stroke="#263238" stroke-width="0.44" stroke-linecap="round" stroke-linejoin="round"/>
<path d="M132.805 100.113C133.082 100.012 133.197 100.531 133.483 100.606C133.769 100.681 133.923 100.302 134.165 100.135C134.28 100.059 134.418 100.027 134.555 100.045C134.691 100.062 134.817 100.129 134.908 100.232" stroke="#263238" stroke-width="0.44" stroke-linecap="round" stroke-linejoin="round"/>
<path d="M130.535 91.6477C130.799 91.7137 130.693 92.1537 130.891 92.3429C131.089 92.5321 131.419 92.3429 131.644 92.1625C131.868 91.9821 132.277 91.9029 132.361 92.1625" stroke="#263238" stroke-width="0.44" stroke-linecap="round" stroke-linejoin="round"/>
<path d="M198.246 104.944H92.8049V112.389H198.246V104.944Z" fill="#BFBFBF" stroke="#263238" stroke-width="0.44" stroke-linecap="round" stroke-linejoin="round"/>
<path d="M178.737 107.875H109.842V109.459H178.737V107.875Z" fill="#263238"/>
<path d="M148.914 108.68C148.914 108.909 148.846 109.133 148.719 109.323C148.591 109.513 148.411 109.662 148.199 109.749C147.988 109.837 147.755 109.86 147.531 109.815C147.306 109.77 147.1 109.66 146.938 109.498C146.776 109.336 146.666 109.13 146.621 108.906C146.577 108.681 146.6 108.449 146.687 108.237C146.775 108.026 146.923 107.845 147.114 107.718C147.304 107.591 147.528 107.523 147.756 107.523C148.063 107.523 148.358 107.645 148.575 107.862C148.792 108.079 148.914 108.373 148.914 108.68Z" fill="#065EA9" stroke="#263238" stroke-width="0.44" stroke-linecap="round" stroke-linejoin="round"/>
<path d="M194.832 107.241H191.981V110.092H194.832V107.241Z" stroke="#263238" stroke-width="0.44" stroke-linecap="round" stroke-linejoin="round"/>
<path d="M190.049 107.241H187.198V110.092H190.049V107.241Z" stroke="#263238" stroke-width="0.44" stroke-linecap="round" stroke-linejoin="round"/>
<path d="M101.037 107.21H96.0697V110.123H101.037V107.21Z" stroke="#263238" stroke-width="0.44" stroke-linecap="round" stroke-linejoin="round"/>
<path d="M96.0125 35.7939H114.756" stroke="white" stroke-width="0.44" stroke-linecap="round" stroke-linejoin="round"/>
<path d="M195.576 35.7281C195.576 35.9469 195.512 36.161 195.391 36.3433C195.27 36.5256 195.098 36.6678 194.896 36.7519C194.694 36.8361 194.472 36.8583 194.257 36.8158C194.042 36.7734 193.845 36.6681 193.69 36.5134C193.536 36.3587 193.43 36.1615 193.388 35.9468C193.345 35.7322 193.368 35.5098 193.452 35.3078C193.536 35.1058 193.678 34.9334 193.86 34.8124C194.043 34.6913 194.257 34.6272 194.476 34.6281C194.767 34.6281 195.047 34.744 195.253 34.9502C195.46 35.1565 195.576 35.4363 195.576 35.7281Z" stroke="white" stroke-width="0.44" stroke-linecap="round" stroke-linejoin="round"/>
<path d="M191.224 35.794C191.224 36.0115 191.16 36.2242 191.039 36.4051C190.918 36.586 190.746 36.727 190.545 36.8102C190.344 36.8935 190.123 36.9153 189.91 36.8728C189.696 36.8304 189.5 36.7256 189.346 36.5718C189.192 36.418 189.088 36.2219 189.045 36.0086C189.003 35.7952 189.025 35.574 189.108 35.373C189.191 35.172 189.332 35.0002 189.513 34.8794C189.694 34.7585 189.907 34.694 190.124 34.694C190.416 34.694 190.696 34.8099 190.902 35.0162C191.108 35.2224 191.224 35.5022 191.224 35.794Z" stroke="white" stroke-width="0.44" stroke-linecap="round" stroke-linejoin="round"/>
<path d="M186.873 35.8644C186.872 36.0818 186.806 36.294 186.685 36.4743C186.564 36.6546 186.391 36.795 186.19 36.8775C185.989 36.9601 185.768 36.9813 185.555 36.9383C185.342 36.8954 185.147 36.7903 184.993 36.6363C184.84 36.4823 184.735 36.2863 184.693 36.073C184.651 35.8597 184.673 35.6388 184.757 35.438C184.84 35.2373 184.981 35.0658 185.162 34.9451C185.343 34.8244 185.555 34.76 185.773 34.76C185.917 34.76 186.061 34.7886 186.194 34.8442C186.328 34.8997 186.45 34.9811 186.552 35.0837C186.654 35.1864 186.735 35.3081 186.79 35.4421C186.845 35.5761 186.873 35.7196 186.873 35.8644Z" stroke="white" stroke-width="0.44" stroke-linecap="round" stroke-linejoin="round"/>
<path d="M103.299 181.368H92.8797L87.2389 179.582L85.4789 179.023L84.9641 184.334L23.2673 184.448C23.2673 184.448 24.2089 182.072 25.7445 178.587C29.0577 171.068 35.1297 158.369 40.4405 153.182C44.7525 148.971 55.5237 148.852 55.5237 148.852C56.6233 148.123 57.9135 147.734 59.2329 147.734C61.2129 147.831 76.1817 149.455 77.1101 149.934C77.7564 150.309 78.3111 150.823 78.7337 151.439C78.7337 151.439 83.9785 149.12 89.1309 151.21C94.2833 153.3 103.299 181.368 103.299 181.368Z" fill="#BFBFBF"/>
<mask id="mask1_124_3002" style="mask-type:luminance" maskUnits="userSpaceOnUse" x="23" y="147" width="81" height="38">
<path d="M103.299 181.368H92.8797L87.2389 179.582L85.4789 179.023L84.9641 184.334L23.2673 184.448C23.2673 184.448 24.2089 182.072 25.7445 178.587C29.0577 171.068 35.1297 158.369 40.4405 153.182C44.7525 148.971 55.5237 148.852 55.5237 148.852C56.6233 148.123 57.9135 147.734 59.2329 147.734C61.2129 147.831 76.1817 149.455 77.1101 149.934C77.7564 150.309 78.3111 150.823 78.7337 151.439C78.7337 151.439 83.9785 149.12 89.1309 151.21C94.2833 153.3 103.299 181.368 103.299 181.368Z" fill="white"/>
</mask>
<g mask="url(#mask1_124_3002)">
<path opacity="0.2" d="M87.2389 179.582L85.4789 179.023L84.9641 184.334L23.2673 184.448C23.2673 184.448 24.2089 182.072 25.7445 178.587C28.1249 178.53 30.8089 178.407 30.8089 178.407L32.1905 173.888C32.1905 173.888 34.3597 171.596 37.0701 172.946C36.9797 172.605 36.9986 172.243 37.124 171.912C37.2495 171.582 37.4753 171.299 37.7697 171.103C38.8169 170.408 43.1113 172.638 43.1113 172.638C43.1113 172.638 45.1793 168.678 45.8833 166.087C46.5873 163.495 47.0537 169.752 47.0537 169.752C47.0537 169.752 48.8137 166.874 48.8137 166.087C48.8137 165.299 52.0609 173.888 52.0609 173.888C52.0609 173.888 56.3553 174.403 57.5169 174.843C58.6785 175.283 70.2417 175.723 73.9641 174.843C77.6865 173.963 71.3241 179.243 71.3241 179.243C71.3241 179.243 77.8625 181.443 81.5585 180C85.2545 178.556 86.9089 177.012 86.9089 177.012C86.9089 177.012 87.0453 178.081 87.2389 179.582Z" fill="black" fill-opacity="0.7"/>
</g>
<path d="M103.299 181.368H92.8797L87.2389 179.582L85.4789 179.023L84.9641 184.334L23.2673 184.448C23.2673 184.448 24.2089 182.072 25.7445 178.587C29.0577 171.068 35.1297 158.369 40.4405 153.182C44.7525 148.971 55.5237 148.852 55.5237 148.852C56.6233 148.123 57.9135 147.734 59.2329 147.734C61.2129 147.831 76.1817 149.455 77.1101 149.934C77.7564 150.309 78.3111 150.823 78.7337 151.439C78.7337 151.439 83.9785 149.12 89.1309 151.21C94.2833 153.3 103.299 181.368 103.299 181.368Z" stroke="#263238" stroke-width="0.44" stroke-linecap="round" stroke-linejoin="round"/>
<path d="M83.842 167.798C82.9257 169.09 81.8805 170.286 80.7224 171.367" stroke="#263238" stroke-width="0.44" stroke-linecap="round" stroke-linejoin="round"/>
<path d="M77.6733 173.932C73.1906 177.243 67.9222 179.328 62.3877 179.982" stroke="#263238" stroke-width="0.44" stroke-linecap="round" stroke-linejoin="round"/>
<path d="M96.9409 172.432C96.9409 172.432 98.5425 171.437 99.9461 171.763C101.35 172.088 102.511 173.474 102.511 173.474C102.511 173.474 114.162 172.511 116.807 172.594C119.451 172.678 125.369 174.412 125.369 174.412C125.369 174.412 128.238 173.831 128.546 173.95C128.854 174.068 127.926 183.832 127.926 183.832H90.0857C88.2289 183.832 86.8517 181.144 85.4569 179.032C87.8598 170.627 89.0888 161.931 89.1089 153.19" fill="#BFBFBF"/>
<mask id="mask2_124_3002" style="mask-type:luminance" maskUnits="userSpaceOnUse" x="85" y="153" width="44" height="31">
<path d="M96.9409 172.432C96.9409 172.432 98.5425 171.437 99.9461 171.763C101.35 172.088 102.511 173.474 102.511 173.474C102.511 173.474 114.162 172.511 116.807 172.594C119.451 172.678 125.369 174.412 125.369 174.412C125.369 174.412 128.238 173.831 128.546 173.95C128.854 174.068 127.926 183.832 127.926 183.832H90.0857C88.2289 183.832 86.8517 181.144 85.4569 179.032C87.8598 170.627 89.0888 161.931 89.1089 153.19" fill="white"/>
</mask>
<g mask="url(#mask2_124_3002)">
<path opacity="0.2" d="M107.325 183.823H90.0945C88.2377 183.823 86.8605 181.135 85.4657 179.023C86.8453 174.282 87.8269 169.434 88.4005 164.529C88.4005 164.529 90.2309 167.244 89.1177 170.39L90.2309 167.244C90.2309 167.244 91.3001 170.614 90.2309 173.47C89.1617 176.326 88.4005 177.144 88.4005 177.144C88.4005 177.144 89.7205 178.869 91.1197 178.407C92.5189 177.945 94.0413 180.743 94.0413 180.743C94.0413 180.743 97.4029 180.871 98.1025 180.743C98.4237 180.686 102.775 182.186 107.325 183.823Z" fill="black" fill-opacity="0.7"/>
</g>
<path d="M96.9409 172.432C96.9409 172.432 98.5425 171.437 99.9461 171.763C101.35 172.088 102.511 173.474 102.511 173.474C102.511 173.474 114.162 172.511 116.807 172.594C119.451 172.678 125.369 174.412 125.369 174.412C125.369 174.412 128.238 173.831 128.546 173.95C128.854 174.068 127.926 183.832 127.926 183.832H90.0857C88.2289 183.832 86.8517 181.144 85.4569 179.032C87.8598 170.627 89.0888 161.931 89.1089 153.19" stroke="#263238" stroke-width="0.44" stroke-linecap="round" stroke-linejoin="round"/>
<path d="M75.3105 142.028V151.426C74.119 152.237 72.8853 152.985 71.6145 153.666C69.0493 155.025 65.7581 156.372 63.8001 155.606C60.2493 154.211 57.9481 148.852 57.9481 148.852C61.7805 145.93 62.2425 142.028 62.8233 140.171L75.3105 142.028Z" fill="white" stroke="#263238" stroke-width="0.44" stroke-linecap="round" stroke-linejoin="round"/>
<path d="M56.0913 149.569C56.0913 149.569 59.3429 156.649 63.2897 157.929C67.2365 159.21 73.9201 154.211 73.9201 154.211" stroke="#263238" stroke-width="0.44" stroke-linecap="round" stroke-linejoin="round"/>
<path d="M38.3373 158.136C38.3373 158.136 44.4973 162.932 45.5313 164.547C46.5653 166.162 45.5313 181.368 45.5313 181.368" stroke="#263238" stroke-width="0.44" stroke-linecap="round" stroke-linejoin="round"/>
<path d="M29.9509 173.611C33.5809 171.27 36.1329 173.831 38.3373 174.293C40.5417 174.755 45.4169 172.264 49.0733 174.293C52.7297 176.321 52.7297 175.613 52.7297 175.613C52.7297 175.613 56.5577 178.534 54.5821 184.382L23.2541 184.439C23.2541 184.439 21.1641 179.973 28.0325 173.602" fill="#BFBFBF"/>
<path d="M29.9509 173.611C33.5809 171.27 36.1329 173.831 38.3373 174.293C40.5417 174.755 45.4169 172.264 49.0733 174.293C52.7297 176.321 52.7297 175.613 52.7297 175.613C52.7297 175.613 56.5577 178.534 54.5821 184.382L23.2541 184.439C23.2541 184.439 21.1641 179.973 28.0325 173.602" stroke="#263238" stroke-width="0.44" stroke-linecap="round" stroke-linejoin="round"/>
<path d="M60.6497 164.56L68.9173 179.683L69.1769 181.381L67.8569 180.206L59.3297 165.194C59.4551 164.963 59.6502 164.777 59.8872 164.663C60.1242 164.549 60.391 164.513 60.6497 164.56Z" fill="#065EA9" stroke="#263238" stroke-width="0.44" stroke-linecap="round" stroke-linejoin="round"/>
<path d="M52.8001 176.405C53.4245 176.224 54.0659 176.107 54.7141 176.057C55.4137 176.057 59.7169 172.876 61.1777 172.638C62.6385 172.401 65.2653 174.579 66.6029 174.926C67.9405 175.274 67.8569 177.016 68.6401 177.712C69.4233 178.407 68.2925 179.19 67.3201 178.407C67.3895 178.679 67.3939 178.963 67.3327 179.237C67.2715 179.51 67.1466 179.766 66.9681 179.982C66.9681 179.982 67.2321 180.932 66.9681 181.368H51.4801C51.4801 181.368 51.2469 178.407 52.8001 176.405Z" fill="white" stroke="#263238" stroke-width="0.44" stroke-linecap="round" stroke-linejoin="round"/>
<path d="M67.3509 178.407L65.9561 177.03L62.3877 175.886" stroke="#263238" stroke-width="0.44" stroke-linecap="round" stroke-linejoin="round"/>
<path d="M67.0033 179.982L64.8693 179.023L61.9521 178.473" stroke="#263238" stroke-width="0.44" stroke-linecap="round" stroke-linejoin="round"/>
<path d="M61.9521 180.743L64.8693 180.875L67.0033 181.368" stroke="#263238" stroke-width="0.44" stroke-linecap="round" stroke-linejoin="round"/>
<path d="M61.1909 172.638C59.8709 173.796 61.1909 175.014 60.5617 175.886C59.9325 176.757 59.2417 177.016 59.7785 178.407" stroke="#263238" stroke-width="0.44" stroke-linecap="round" stroke-linejoin="round"/>
<path d="M80.0272 182.103H150.506C150.506 182.725 150.259 183.321 149.82 183.761C149.38 184.201 148.783 184.448 148.161 184.448H85.6812C85.4362 184.448 85.1928 184.409 84.9596 184.334L79.9392 182.714C79.8676 182.693 79.806 182.646 79.7657 182.583C79.7255 182.52 79.7092 182.445 79.7198 182.371C79.7305 182.297 79.7674 182.229 79.8238 182.18C79.8802 182.131 79.9524 182.103 80.0272 182.103Z" fill="#065EA9"/>
<mask id="mask3_124_3002" style="mask-type:luminance" maskUnits="userSpaceOnUse" x="79" y="182" width="72" height="3">
<path d="M80.0272 182.103H150.506C150.506 182.725 150.259 183.321 149.82 183.761C149.38 184.201 148.783 184.448 148.161 184.448H85.6812C85.4362 184.448 85.1928 184.409 84.9596 184.334L79.9392 182.714C79.8676 182.693 79.806 182.646 79.7657 182.583C79.7255 182.52 79.7092 182.445 79.7198 182.371C79.7305 182.297 79.7674 182.229 79.8238 182.18C79.8802 182.131 79.9524 182.103 80.0272 182.103Z" fill="white"/>
</mask>
<g mask="url(#mask3_124_3002)">
<path opacity="0.2" d="M150.506 182.103C150.506 182.725 150.259 183.321 149.82 183.762L149.75 183.823C149.318 184.225 148.751 184.448 148.161 184.448H85.6811C85.4361 184.448 85.1927 184.409 84.9595 184.334L79.9391 182.714C79.8667 182.693 79.8046 182.646 79.7643 182.582C79.724 182.518 79.7083 182.441 79.7201 182.366C79.732 182.292 79.7705 182.224 79.8286 182.175C79.8866 182.127 79.9603 182.101 80.0359 182.103H150.506Z" fill="black" fill-opacity="0.7"/>
<path opacity="0.2" d="M150.506 182.103C150.506 182.725 150.259 183.321 149.82 183.762L149.75 183.823H109.424C108.967 183.823 108.529 183.642 108.206 183.32C107.882 182.997 107.7 182.559 107.699 182.103H150.506Z" fill="black" fill-opacity="0.7"/>
</g>
<path d="M80.0272 182.103H150.506C150.506 182.725 150.259 183.321 149.82 183.761C149.38 184.201 148.783 184.448 148.161 184.448H85.6812C85.4362 184.448 85.1928 184.409 84.9596 184.334L79.9392 182.714C79.8676 182.693 79.806 182.646 79.7657 182.583C79.7255 182.52 79.7092 182.445 79.7198 182.371C79.7305 182.297 79.7674 182.229 79.8238 182.18C79.8802 182.131 79.9524 182.103 80.0272 182.103Z" stroke="#263238" stroke-width="0.44" stroke-linecap="round" stroke-linejoin="round"/>
<path d="M107.699 182.103C107.7 182.559 107.882 182.997 108.206 183.32C108.529 183.642 108.967 183.823 109.424 183.823H116.116" stroke="#263238" stroke-width="0.44" stroke-linecap="round" stroke-linejoin="round"/>
<path d="M163.121 153.173V153.23L154.92 181.764C154.797 182.13 154.567 182.451 154.258 182.683C153.949 182.915 153.576 183.047 153.19 183.062H110.466C110.305 183.075 110.142 183.047 109.994 182.981C109.846 182.914 109.717 182.812 109.619 182.682C109.521 182.553 109.457 182.401 109.433 182.241C109.408 182.08 109.425 181.916 109.481 181.764L117.674 153.23C117.795 152.863 118.026 152.542 118.335 152.31C118.644 152.078 119.017 151.946 119.403 151.932H162.127C162.284 151.918 162.441 151.943 162.586 152.005C162.731 152.067 162.858 152.163 162.957 152.286C163.055 152.409 163.122 152.554 163.15 152.709C163.179 152.863 163.169 153.023 163.121 153.173Z" fill="#065EA9"/>
<mask id="mask4_124_3002" style="mask-type:luminance" maskUnits="userSpaceOnUse" x="109" y="151" width="55" height="33">
<path d="M163.121 153.173V153.23L154.92 181.764C154.797 182.13 154.567 182.451 154.258 182.683C153.949 182.915 153.576 183.047 153.19 183.062H110.466C110.305 183.075 110.142 183.047 109.994 182.981C109.846 182.914 109.717 182.812 109.619 182.682C109.521 182.553 109.457 182.401 109.433 182.241C109.408 182.08 109.425 181.916 109.481 181.764L117.674 153.23C117.795 152.863 118.026 152.542 118.335 152.31C118.644 152.078 119.017 151.946 119.403 151.932H162.127C162.284 151.918 162.441 151.943 162.586 152.005C162.731 152.067 162.858 152.163 162.957 152.286C163.055 152.409 163.122 152.554 163.15 152.709C163.179 152.863 163.169 153.023 163.121 153.173Z" fill="white"/>
</mask>
<g mask="url(#mask4_124_3002)">
<path opacity="0.4" d="M163.121 153.173V153.23L154.92 181.764C154.797 182.13 154.567 182.451 154.258 182.683C153.949 182.915 153.576 183.047 153.19 183.062H110.748V183.005L118.936 154.471C119.059 154.104 119.29 153.784 119.599 153.552C119.907 153.32 120.28 153.188 120.666 153.173H163.121Z" fill="white"/>
</g>
<path d="M163.121 153.173V153.23L154.92 181.764C154.797 182.13 154.567 182.451 154.258 182.683C153.949 182.915 153.576 183.047 153.19 183.062H110.466C110.305 183.075 110.142 183.047 109.994 182.981C109.846 182.914 109.717 182.812 109.619 182.682C109.521 182.553 109.457 182.401 109.433 182.241C109.408 182.08 109.425 181.916 109.481 181.764L117.674 153.23C117.795 152.863 118.026 152.542 118.335 152.31C118.644 152.078 119.017 151.946 119.403 151.932H162.127C162.284 151.918 162.441 151.943 162.586 152.005C162.731 152.067 162.858 152.163 162.957 152.286C163.055 152.409 163.122 152.554 163.15 152.709C163.179 152.863 163.169 153.023 163.121 153.173Z" stroke="#263238" stroke-width="0.44" stroke-linecap="round" stroke-linejoin="round"/>
<path d="M139.374 168.023C139.011 168.772 138.45 169.408 137.752 169.863C137.055 170.318 136.247 170.575 135.414 170.606C133.619 170.606 132.559 169.215 133.052 167.499C133.346 166.621 133.901 165.853 134.642 165.298C135.383 164.742 136.275 164.425 137.201 164.388H137.28C137.197 164.558 137.129 164.735 137.078 164.916C136.572 166.619 137.606 167.996 139.374 168.023Z" fill="white" stroke="#263238" stroke-width="0.44" stroke-linecap="round" stroke-linejoin="round"/>
<path d="M110.968 181.663L118.963 153.811C119.034 153.597 119.169 153.41 119.349 153.275C119.529 153.14 119.746 153.063 119.97 153.054H161.383" stroke="#263238" stroke-width="0.44" stroke-linecap="round" stroke-linejoin="round"/>
<path d="M91.1196 184.448H32.1596L32.8724 182.961C32.8724 182.961 38.4428 183.48 42.856 182.103C44.8052 181.496 47.806 181.223 50.8156 181.258C52.712 181.284 57.3276 181.302 60.192 181.289C61.2128 181.289 62.0136 181.289 62.392 181.262C62.5372 181.262 62.6824 181.262 62.832 181.262C63.6489 181.253 64.4645 181.329 65.2652 181.491C66.0379 181.404 66.8153 181.366 67.5928 181.377C68.9524 181.377 74.8 181.355 76.3928 181.377C78.4916 181.403 80.916 181.817 83.2172 182.134L83.2788 182.112V182.142C86.0596 182.53 88.6644 182.794 90.3188 182.112L91.1196 184.448Z" fill="white"/>
<mask id="mask5_124_3002" style="mask-type:luminance" maskUnits="userSpaceOnUse" x="32" y="181" width="60" height="4">
<path d="M91.1196 184.448H32.1596L32.8724 182.961C32.8724 182.961 38.4428 183.48 42.856 182.103C44.8052 181.496 47.806 181.223 50.8156 181.258C52.712 181.284 57.3276 181.302 60.192 181.289C61.2128 181.289 62.0136 181.289 62.392 181.262C62.5372 181.262 62.6824 181.262 62.832 181.262C63.6489 181.253 64.4645 181.329 65.2652 181.491C66.0379 181.404 66.8153 181.366 67.5928 181.377C68.9524 181.377 74.8 181.355 76.3928 181.377C78.4916 181.403 80.916 181.817 83.2172 182.134L83.2788 182.112V182.142C86.0596 182.53 88.6644 182.794 90.3188 182.112L91.1196 184.448Z" fill="white"/>
</mask>
<g mask="url(#mask5_124_3002)">
<path opacity="0.4" d="M91.1198 184.448H45.417L46.3454 182.851C46.3454 182.851 48.8402 184.307 51.2778 183.291C53.7154 182.275 56.1706 181.72 60.1922 181.28C61.0692 181.186 61.953 181.175 62.8322 181.245C64.5828 181.379 66.304 181.771 67.9406 182.406C67.9406 182.406 70.3386 181.359 76.393 181.359C78.4918 181.386 80.9162 181.799 83.2174 182.116L83.279 182.094V182.125C86.0598 182.512 88.6646 182.776 90.319 182.094L91.1198 184.448Z" fill="#065EA9"/>
<path d="M46.3453 182.851L32.8901 182.961L32.1773 184.448H45.4169L46.3453 182.851Z" fill="#065EA9"/>
<path d="M45.7952 183.792L46.3452 182.851C47.5348 183.369 48.8186 183.635 50.116 183.634C52.0872 183.577 55.2024 181.135 61.1908 181.254" stroke="#263238" stroke-width="0.44" stroke-linecap="round" stroke-linejoin="round"/>
<path d="M65.2521 181.482C66.3565 181.887 67.9273 182.415 67.9273 182.415C67.9273 182.415 69.9601 181.245 74.4261 181.368" stroke="#263238" stroke-width="0.44" stroke-linecap="round" stroke-linejoin="round"/>
<path d="M46.3453 182.851C46.3453 182.851 39.3845 182.974 36.5993 183.036" stroke="#263238" stroke-width="0.44" stroke-linecap="round" stroke-linejoin="round"/>
<path d="M66.9989 184.448C67.0369 184.161 67.1638 183.894 67.362 183.683C67.5601 183.472 67.8194 183.329 68.1033 183.273C69.0889 183.11 69.7269 184.329 69.7269 184.329" stroke="#263238" stroke-width="0.44" stroke-linecap="round" stroke-linejoin="round"/>
<path d="M67.9273 182.415L68.1033 183.273" stroke="#263238" stroke-width="0.44" stroke-linecap="round" stroke-linejoin="round"/>
<path d="M68.9173 183.273C68.9173 183.273 72.0501 181.843 75.0773 182.103" stroke="#263238" stroke-width="0.44" stroke-linecap="round" stroke-linejoin="round"/>
<path d="M67.6281 183.445C67.3509 183.229 62.6473 181.777 57.8337 182.851" stroke="#263238" stroke-width="0.44" stroke-linecap="round" stroke-linejoin="round"/>
<path d="M66.9989 184.039C66.9989 184.039 63.0389 183.286 59.5937 183.81" stroke="#263238" stroke-width="0.44" stroke-linecap="round" stroke-linejoin="round"/>
<path d="M69.3573 183.819C71.9859 183.086 74.7369 182.9 77.4401 183.273C80.1023 183.669 82.7921 183.849 85.4833 183.81" stroke="#263238" stroke-width="0.44" stroke-linecap="round" stroke-linejoin="round"/>
</g>
<path d="M91.1196 184.448H32.1596L32.8724 182.961C32.8724 182.961 38.4428 183.48 42.856 182.103C44.8052 181.496 47.806 181.223 50.8156 181.258C52.712 181.284 57.3276 181.302 60.192 181.289C61.2128 181.289 62.0136 181.289 62.392 181.262C62.5372 181.262 62.6824 181.262 62.832 181.262C63.6489 181.253 64.4645 181.329 65.2652 181.491C66.0379 181.404 66.8153 181.366 67.5928 181.377C68.9524 181.377 74.8 181.355 76.3928 181.377C78.4916 181.403 80.916 181.817 83.2172 182.134L83.2788 182.112V182.142C86.0596 182.53 88.6644 182.794 90.3188 182.112L91.1196 184.448Z" stroke="#263238" stroke-width="0.44" stroke-linecap="round" stroke-linejoin="round"/>
<path d="M75.3105 149.864V151.426C74.119 152.237 72.8853 152.985 71.6145 153.666C68.7941 151.074 68.3937 146.15 68.3937 146.15L75.3105 149.864Z" fill="#263238"/>
<path d="M63.2897 140.866C59.9721 135.96 60.6497 126.786 64.9133 121.779C71.1789 114.466 87.5293 119.808 87.5161 130.139C87.5033 131.575 87.3797 133.007 87.1465 134.424C86.9309 135.788 85.7473 137.166 85.3865 138.525C85.0257 139.885 85.1709 142.045 85.0257 143.365C84.7001 146.37 80.5421 152.332 79.4157 152.979C77.8405 153.859 69.3265 151.47 67.4697 146.01" fill="white"/>
<path d="M63.2897 140.866C59.9721 135.96 60.6497 126.786 64.9133 121.779C71.1789 114.466 87.5293 119.808 87.5161 130.139C87.5033 131.575 87.3797 133.007 87.1465 134.424C86.9309 135.788 85.7473 137.166 85.3865 138.525C85.0257 139.885 85.1709 142.045 85.0257 143.365C84.7001 146.37 80.5421 152.332 79.4157 152.979C77.8405 153.859 69.3265 151.47 67.4697 146.01" stroke="#263238" stroke-width="0.44" stroke-linecap="round" stroke-linejoin="round"/>
<path d="M74.8925 134.803C74.8925 134.803 77.2113 133.958 79.2925 134.803" stroke="#263238" stroke-width="0.44" stroke-linecap="round" stroke-linejoin="round"/>
<path d="M84.04 134.803C84.04 134.803 85.7296 133.958 86.8604 134.803" stroke="#263238" stroke-width="0.44" stroke-linecap="round" stroke-linejoin="round"/>
<path d="M77.0617 138.745C76.9385 139.339 76.5337 139.762 76.1817 139.687C75.8297 139.612 75.5965 139.062 75.7197 138.464C75.8429 137.865 76.2477 137.447 76.6217 137.526C76.9957 137.606 77.1849 138.16 77.0617 138.745Z" fill="#263238"/>
<path d="M84.5241 138.745C84.4009 139.339 83.9961 139.762 83.6441 139.687C83.2921 139.612 83.0589 139.062 83.1821 138.464C83.3053 137.865 83.7057 137.447 84.0841 137.526C84.4625 137.606 84.6473 138.16 84.5241 138.745Z" fill="#263238"/>
<path d="M83.3052 135.705C83.3052 135.705 82.2008 137.619 82.0864 139.225C81.972 140.831 83.8464 144.157 83.3052 145.2C82.764 146.243 80.4628 146.19 79.706 145.552" fill="white"/>
<path d="M83.3052 135.705C83.3052 135.705 82.2008 137.619 82.0864 139.225C81.972 140.831 83.8464 144.157 83.3052 145.2C82.764 146.243 80.4628 146.19 79.706 145.552" stroke="#263238" stroke-width="0.44" stroke-linecap="round" stroke-linejoin="round"/>
<path d="M80.1152 147.655C78.5947 147.87 77.0444 147.649 75.6448 147.017" stroke="#263238" stroke-width="0.44" stroke-linecap="round" stroke-linejoin="round"/>
<path d="M66.6161 136.343C66.6161 136.343 67.6985 135.296 68.9745 135.705C70.2505 136.114 70.4837 139.59 70.4837 139.59L71.4121 138.6C71.4121 138.6 71.0645 136.633 72.4549 133.874C73.8453 131.116 73.1501 127.868 73.1501 127.868C73.1501 127.868 75.5481 128.678 76.3797 130.535C76.3797 130.535 77.2861 128.564 76.3797 127.054C76.3797 127.054 80.1153 127.983 81.0437 130.768C81.0437 130.768 81.7785 128.678 81.5277 127.635C81.5277 127.635 84.0577 128.445 84.9861 130.882C84.9861 130.882 85.8309 129.026 85.4657 127.516C85.4657 127.516 86.4865 128.396 86.8781 131.001C87.6403 129.413 87.8643 127.62 87.5161 125.893C87.5161 125.893 88.8361 127.402 89.0473 128.678C89.0473 128.678 90.1209 124.964 83.8421 119.975C77.5633 114.985 66.8141 116.116 65.1421 119.975C65.1421 119.975 65.6965 117.132 66.8141 116.116C66.8141 116.116 63.7341 117.489 63.8001 120.322C63.8001 120.322 61.0809 119.975 59.6905 121.717C60.5427 121.653 61.3995 121.691 62.2425 121.832C62.2425 121.832 58.5289 124.032 58.7621 129.259C58.9953 134.486 62.2425 142.019 62.2425 142.019L64.7857 141.275C64.7857 141.275 65.1905 137.72 66.6161 136.343Z" fill="#263238"/>
<path d="M69.4365 137.619C69.4365 137.619 67.4653 134.138 66.4225 133.905C65.3797 133.672 63.4041 135.067 63.8661 136.924C64.3281 138.78 64.6801 141.913 65.2609 142.261C65.8417 142.608 66.7701 144.698 67.6985 144.118C67.8206 144.055 67.9263 143.964 68.0071 143.853C68.0879 143.742 68.1416 143.613 68.1638 143.478C68.1861 143.342 68.1762 143.203 68.1352 143.072C68.0941 142.941 68.0229 142.822 67.9273 142.723" fill="white"/>
<path d="M69.4365 137.619C69.4365 137.619 67.4653 134.138 66.4225 133.905C65.3797 133.672 63.4041 135.067 63.8661 136.924C64.3281 138.78 64.6801 141.913 65.2609 142.261C65.8417 142.608 66.7701 144.698 67.6985 144.118C67.8206 144.055 67.9263 143.964 68.0071 143.853C68.0879 143.742 68.1416 143.613 68.1638 143.478C68.1861 143.342 68.1762 143.203 68.1352 143.072C68.0941 142.941 68.0229 142.822 67.9273 142.723" stroke="#263238" stroke-width="0.44" stroke-linecap="round" stroke-linejoin="round"/>
<path d="M91.4849 164.529C91.2855 165.387 91.0297 166.231 90.7193 167.055" stroke="#263238" stroke-width="0.44" stroke-linecap="round" stroke-linejoin="round"/>
<path d="M90.0108 168.736C89.3096 170.334 88.2814 171.769 86.9924 172.946" stroke="#263238" stroke-width="0.44" stroke-linecap="round" stroke-linejoin="round"/>
<path d="M102.52 173.474C101.917 173.395 100.69 174.156 99.5632 175.138" stroke="#263238" stroke-width="0.44" stroke-linecap="round" stroke-linejoin="round"/>
<path d="M98.7361 175.917C97.8561 176.827 97.1741 177.791 97.1741 178.407" stroke="#263238" stroke-width="0.44" stroke-linecap="round" stroke-linejoin="round"/>
<path d="M34.76 171.103C34.76 171.103 37.2636 171.798 37.2856 173.945" stroke="#263238" stroke-width="0.44" stroke-linecap="round" stroke-linejoin="round"/>
<path d="M44.1408 159.381C44.5564 159.846 44.9345 160.343 45.2716 160.868" stroke="#263238" stroke-width="0.44" stroke-linecap="round" stroke-linejoin="round"/>
<path d="M46.2616 162.681C46.7541 163.75 47.0193 164.91 47.0404 166.087C47.0404 169.708 45.9976 171.807 45.9976 171.807" stroke="#263238" stroke-width="0.44" stroke-linecap="round" stroke-linejoin="round"/>
<path d="M59.3428 155.83C60.0067 156.448 60.7172 157.012 61.4681 157.52" stroke="#263238" stroke-width="0.44" stroke-linecap="round" stroke-linejoin="round"/>
<path d="M63.6769 158.84C65.9253 159.975 68.8337 160.829 71.8521 160.076" stroke="#263238" stroke-width="0.44" stroke-linecap="round" stroke-linejoin="round"/>
<g opacity="0.2">
<path d="M68.3937 120.16C69.1798 120.039 69.9748 119.988 70.7697 120.006" stroke="white" stroke-width="0.44" stroke-linecap="round" stroke-linejoin="round"/>
<path d="M71.9269 120.067C74.0785 120.27 76.7273 121.022 78.3729 123.292" stroke="white" stroke-width="0.44" stroke-linecap="round" stroke-linejoin="round"/>
<path d="M73.6165 118.395C73.6165 118.395 77.6513 118.439 80.5421 120.459" stroke="white" stroke-width="0.44" stroke-linecap="round" stroke-linejoin="round"/>
<path d="M81.6773 121.44C82.1947 121.981 82.6092 122.612 82.9005 123.301" stroke="white" stroke-width="0.44" stroke-linecap="round" stroke-linejoin="round"/>
<path d="M67.3508 121.88C67.3508 121.88 71.3108 123.275 72.688 125.77" stroke="white" stroke-width="0.44" stroke-linecap="round" stroke-linejoin="round"/>
<path d="M65.4326 123.292C66.2906 124.481 66.9079 125.827 67.2498 127.252" stroke="white" stroke-width="0.44" stroke-linecap="round" stroke-linejoin="round"/>
<path d="M67.496 129.21C67.5013 129.736 67.4526 130.261 67.3508 130.777" stroke="white" stroke-width="0.44" stroke-linecap="round" stroke-linejoin="round"/>
<path d="M62.7661 124.916C62.5622 125.434 62.3932 125.964 62.2601 126.505" stroke="white" stroke-width="0.44" stroke-linecap="round" stroke-linejoin="round"/>
<path d="M61.9476 128.04C61.7166 129.412 61.6988 130.812 61.8948 132.189" stroke="white" stroke-width="0.44" stroke-linecap="round" stroke-linejoin="round"/>
</g>
<path d="M114.695 192.271H170.223V184.448H15.5364V192.271H46.8116" fill="white"/>
<path d="M114.695 192.271H170.223V184.448H15.5364V192.271H46.8116" stroke="#263238" stroke-width="0.44" stroke-linecap="round" stroke-linejoin="round"/>
<path d="M110.708 192.271H102.824" stroke="#263238" stroke-width="0.44" stroke-linecap="round" stroke-linejoin="round"/>
</svg>
