<svg width="20" height="20" viewBox="0 0 20 20" fill="none" xmlns="http://www.w3.org/2000/svg">
<g clip-path="url(#clip0_817_1173)">
<path d="M9.00391 0.0273438C6.38281 0.308594 4.00781 1.5625 2.33594 3.55469C1.16016 4.95312 0.429688 6.53906 0.105469 8.39844C0.03125 8.82422 0.0234375 9.03125 0.0234375 10C0.0234375 10.9688 0.03125 11.1758 0.105469 11.6016C0.472656 13.7109 1.35547 15.457 2.8125 16.9688C4.30859 18.5234 6.19531 19.5078 8.39844 19.8945C8.82422 19.9688 9.03125 19.9766 10 19.9766C11.2227 19.9766 11.5898 19.9375 12.5508 19.6914C15.9961 18.8008 18.8008 15.9961 19.6914 12.5508C19.9375 11.5898 19.9766 11.2227 19.9766 10C19.9766 8.77734 19.9375 8.41016 19.6914 7.44922C18.8008 4.00781 15.9961 1.19922 12.5508 0.308594C11.6641 0.0820312 11.2461 0.03125 10.1562 0.0195312C9.60938 0.0117188 9.08984 0.015625 9.00391 0.0273438ZM11.0586 7.80469C14.0547 9.73047 14.1406 9.79297 14.1406 10C14.1406 10.207 14.0547 10.2695 11.0586 12.1953C8.26562 13.9922 8.05469 14.1211 7.89453 14.1211C7.68359 14.1172 7.55469 13.9883 7.51953 13.7422C7.50781 13.6484 7.5 11.9023 7.50781 9.86328C7.51953 6.35547 7.52344 6.14453 7.58984 6.04297C7.67578 5.91406 7.78906 5.85938 7.94922 5.87109C8.02734 5.87891 9.0625 6.51953 11.0586 7.80469Z" fill="#065EA9"/>
</g>
<defs>
<clipPath id="clip0_817_1173">
<rect width="20" height="20" fill="white"/>
</clipPath>
</defs>
</svg>
