<svg width="220" height="220" viewBox="0 0 220 220" fill="none" xmlns="http://www.w3.org/2000/svg">
<path d="M176.383 47.4309C153.538 44.4565 140.555 57.1285 109.852 58.5042C79.3454 56.1165 67.7235 43.0368 44.5971 45.2514C19.7224 47.6333 0.456302 80.0466 5.9387 112.472C11.4211 144.897 45.3979 163.022 62.7662 162.925C76.6496 162.834 88.911 157.184 104.739 155.835C120.4 157.704 132.049 163.755 145.897 164.298C163.224 164.984 199.046 148.012 207.919 115.827C216.793 83.6429 200.964 50.637 176.383 47.4309Z" fill="#065EA9"/>
<path opacity="0.9" d="M176.383 47.4309C153.538 44.4565 140.555 57.1285 109.852 58.5042C79.3454 56.1165 67.7235 43.0368 44.5971 45.2514C19.7224 47.6333 0.456302 80.0466 5.9387 112.472C11.4211 144.897 45.3979 163.022 62.7662 162.925C76.6496 162.834 88.911 157.184 104.739 155.835C120.4 157.704 132.049 163.755 145.897 164.298C163.224 164.984 199.046 148.012 207.919 115.827C216.793 83.6429 200.964 50.637 176.383 47.4309Z" fill="white"/>
<g opacity="0.3">
<path d="M186.063 47.7183H172.957V71.0999H186.063V47.7183Z" stroke="black" stroke-width="0.293333" stroke-linejoin="round"/>
<path d="M200.454 47.7181H187.348V71.0997H200.454V47.7181Z" stroke="black" stroke-width="0.293333" stroke-linejoin="round"/>
<path d="M214.848 47.7181H201.742V71.0997H214.848V47.7181Z" stroke="black" stroke-width="0.293333" stroke-linejoin="round"/>
<path d="M186.063 73.0945H172.957V96.4761H186.063V73.0945Z" stroke="black" stroke-width="0.293333" stroke-linejoin="round"/>
<path d="M200.454 73.0945H187.348V96.4761H200.454V73.0945Z" stroke="black" stroke-width="0.293333" stroke-linejoin="round"/>
<path d="M214.848 73.0945H201.742V96.4761H214.848V73.0945Z" stroke="black" stroke-width="0.293333" stroke-linejoin="round"/>
<path d="M186.063 98.4707H172.957V121.852H186.063V98.4707Z" stroke="black" stroke-width="0.293333" stroke-linejoin="round"/>
<path d="M200.454 98.4707H187.348V121.852H200.454V98.4707Z" stroke="black" stroke-width="0.293333" stroke-linejoin="round"/>
<path d="M214.848 98.4707H201.742V121.852H214.848V98.4707Z" stroke="black" stroke-width="0.293333" stroke-linejoin="round"/>
<path d="M186.063 123.847H172.957V147.229H186.063V123.847Z" stroke="black" stroke-width="0.293333" stroke-linejoin="round"/>
<path d="M200.454 123.847H187.348V147.229H200.454V123.847Z" stroke="black" stroke-width="0.293333" stroke-linejoin="round"/>
<path d="M214.848 123.847H201.742V147.229H214.848V123.847Z" stroke="black" stroke-width="0.293333" stroke-linejoin="round"/>
</g>
<g opacity="0.3">
<path d="M23.1281 47.7184H10.022V71.1H23.1281V47.7184Z" stroke="black" stroke-width="0.293333" stroke-linejoin="round"/>
<path d="M37.5192 47.7183H24.4131V71.0999H37.5192V47.7183Z" stroke="black" stroke-width="0.293333" stroke-linejoin="round"/>
<path d="M51.9129 47.7183H38.8068V71.0999H51.9129V47.7183Z" stroke="black" stroke-width="0.293333" stroke-linejoin="round"/>
<path d="M23.1281 73.0946H10.022V96.4762H23.1281V73.0946Z" stroke="black" stroke-width="0.293333" stroke-linejoin="round"/>
<path d="M37.5192 73.0946H24.4131V96.4762H37.5192V73.0946Z" stroke="black" stroke-width="0.293333" stroke-linejoin="round"/>
<path d="M51.9129 73.0946H38.8068V96.4762H51.9129V73.0946Z" stroke="black" stroke-width="0.293333" stroke-linejoin="round"/>
<path d="M23.1281 98.4708H10.022V121.852H23.1281V98.4708Z" stroke="black" stroke-width="0.293333" stroke-linejoin="round"/>
<path d="M37.5192 98.4708H24.4131V121.852H37.5192V98.4708Z" stroke="black" stroke-width="0.293333" stroke-linejoin="round"/>
<path d="M51.9129 98.4708H38.8068V121.852H51.9129V98.4708Z" stroke="black" stroke-width="0.293333" stroke-linejoin="round"/>
<path d="M23.1281 123.847H10.022V147.229H23.1281V123.847Z" stroke="black" stroke-width="0.293333" stroke-linejoin="round"/>
<path d="M37.5192 123.847H24.4131V147.229H37.5192V123.847Z" stroke="black" stroke-width="0.293333" stroke-linejoin="round"/>
<path d="M51.9129 123.847H38.8068V147.229H51.9129V123.847Z" stroke="black" stroke-width="0.293333" stroke-linejoin="round"/>
</g>
<path d="M6.46082 173.08H214.789" stroke="#263238" stroke-width="0.293333" stroke-linejoin="round"/>
<path d="M197.89 125.628C197.895 125.623 197.897 125.617 197.897 125.61C197.897 125.604 197.895 125.597 197.89 125.592C197.887 125.591 197.883 125.589 197.879 125.589C197.875 125.589 197.871 125.589 197.868 125.591C197.864 125.592 197.861 125.594 197.858 125.597C197.856 125.6 197.853 125.603 197.852 125.607C197.008 127.63 196.34 129.723 195.858 131.861C195.363 133.999 194.989 136.163 194.737 138.344L194.579 139.983C194.555 140.256 194.526 140.529 194.505 140.805L194.461 141.626C194.438 142.175 194.406 142.723 194.388 143.272V144.92L194.409 145.742C194.409 146.017 194.441 146.29 194.458 146.566C194.499 147.111 194.532 156.783 194.582 157.328C194.687 158.419 194.851 159.508 195.022 160.587C195.02 160.592 195.02 160.596 195.02 160.601C195.021 160.605 195.023 160.61 195.026 160.613C195.028 160.617 195.032 160.62 195.036 160.622C195.04 160.625 195.045 160.626 195.049 160.626C195.054 160.626 195.059 160.625 195.063 160.622C195.067 160.62 195.07 160.617 195.073 160.613C195.076 160.61 195.078 160.605 195.078 160.601C195.079 160.596 195.079 160.592 195.077 160.587C195.077 160.039 195.054 159.493 195.039 158.944C195.025 158.396 194.978 157.856 194.983 157.311C194.989 156.765 194.983 147.097 194.966 146.554L194.951 145.736L194.966 144.92V143.289L195.01 141.655L195.024 140.84C195.024 140.567 195.057 140.297 195.071 140.024L195.171 138.394C195.358 136.227 195.667 134.072 196.095 131.94C196.511 129.788 197.112 127.676 197.89 125.628Z" fill="#263238"/>
<path d="M198.125 134.164C198.126 134.16 198.127 134.156 198.127 134.152C198.127 134.148 198.126 134.144 198.124 134.141C198.123 134.137 198.12 134.134 198.117 134.132C198.115 134.129 198.111 134.127 198.107 134.125C198.104 134.124 198.1 134.124 198.096 134.124C198.092 134.124 198.088 134.125 198.085 134.126C198.081 134.128 198.078 134.13 198.075 134.133C198.073 134.136 198.071 134.139 198.069 134.143C197.138 136.867 196.518 139.687 196.221 142.55C196.078 143.979 195.928 145.41 195.899 146.844C195.869 148.279 195.899 158.839 196.051 160.273C196.051 160.28 196.054 160.287 196.059 160.292C196.064 160.297 196.071 160.3 196.078 160.3C196.081 160.3 196.085 160.3 196.089 160.299C196.092 160.297 196.095 160.296 196.098 160.293C196.101 160.291 196.103 160.287 196.105 160.284C196.106 160.281 196.107 160.277 196.107 160.273C196.274 158.845 196.377 148.296 196.474 146.871C196.57 145.445 196.588 144.014 196.682 142.588C196.882 139.739 197.365 136.917 198.125 134.164Z" fill="#263238"/>
<path d="M202.856 137.17C202.851 137.166 202.844 137.163 202.837 137.163C202.83 137.163 202.824 137.166 202.818 137.17C201.635 137.932 200.569 138.862 199.653 139.931C199.192 140.467 198.778 141.042 198.415 141.65L198.16 142.131L197.964 142.629C197.895 142.794 197.836 142.962 197.788 143.134C197.738 143.304 197.682 143.474 197.635 143.644C197.28 145.014 197.048 155.536 196.981 156.938C196.91 158.342 196.962 159.75 197.136 161.145C197.138 161.151 197.141 161.156 197.146 161.16C197.151 161.164 197.157 161.167 197.163 161.168C197.167 161.169 197.171 161.169 197.175 161.168C197.179 161.167 197.182 161.165 197.185 161.163C197.189 161.16 197.191 161.157 197.193 161.153C197.194 161.15 197.195 161.146 197.195 161.142L197.556 156.979C197.7 155.603 197.788 145.099 198.084 143.756C198.119 143.589 198.169 143.424 198.21 143.257C198.25 143.091 198.299 142.928 198.357 142.767L198.527 142.286L198.744 141.831C199.073 141.228 199.452 140.653 199.876 140.113C200.72 139.009 201.721 138.034 202.848 137.22C202.853 137.22 202.859 137.217 202.863 137.213C202.867 137.209 202.87 137.204 202.871 137.199C202.872 137.193 202.871 137.187 202.868 137.182C202.866 137.177 202.862 137.173 202.856 137.17Z" fill="#263238"/>
<path d="M200.566 142.512C199.951 142.962 199.458 143.556 199.128 144.243C198.781 144.916 198.51 145.627 198.322 146.36C198.266 146.542 198.219 146.724 198.181 146.909L198.052 147.463C197.984 147.836 197.931 157.331 197.911 157.71C197.89 158.088 197.896 158.463 197.911 158.839C197.94 159.216 197.99 159.591 198.061 159.962C198.061 159.962 198.061 159.986 198.084 159.986C198.088 159.987 198.092 159.987 198.095 159.986C198.099 159.985 198.102 159.984 198.105 159.981C198.109 159.979 198.111 159.976 198.113 159.973C198.115 159.97 198.116 159.966 198.116 159.962C198.205 159.598 198.272 159.229 198.316 158.856C198.374 158.49 198.433 158.126 198.477 157.762C198.521 157.399 198.577 157.038 198.606 156.671C198.635 156.305 198.682 146.821 198.762 146.466C198.889 145.745 199.097 145.041 199.381 144.366C199.633 143.677 200.047 143.059 200.586 142.562C200.591 142.557 200.593 142.55 200.593 142.543C200.593 142.536 200.591 142.529 200.586 142.524C200.584 142.52 200.581 142.518 200.577 142.516C200.574 142.514 200.57 142.512 200.566 142.512Z" fill="#263238"/>
<path d="M193.93 146.68C193.775 144.832 193.47 143.005 193.182 141.174C192.895 139.344 192.575 137.525 192.241 135.707C191.906 133.888 191.531 132.075 191.141 130.268C191.14 130.264 191.139 130.261 191.136 130.257C191.134 130.254 191.131 130.251 191.128 130.249C191.125 130.247 191.121 130.245 191.117 130.245C191.113 130.244 191.109 130.244 191.106 130.245C191.098 130.246 191.092 130.25 191.087 130.256C191.083 130.262 191.081 130.27 191.082 130.277C191.399 132.099 191.686 133.926 191.962 135.754C192.238 137.581 192.499 139.408 192.731 141.242C192.962 143.075 193.132 144.911 193.361 146.742L194.039 161.362C194.039 161.365 194.04 161.368 194.041 161.372C194.042 161.375 194.044 161.378 194.047 161.38C194.049 161.383 194.052 161.385 194.055 161.386C194.058 161.387 194.062 161.388 194.065 161.388C194.069 161.388 194.073 161.388 194.077 161.387C194.081 161.385 194.084 161.383 194.087 161.38C194.09 161.378 194.092 161.374 194.093 161.37C194.095 161.367 194.095 161.363 194.095 161.359C194.118 160.895 194.118 160.432 194.13 159.968C194.142 159.505 194.109 159.041 194.1 158.578C194.08 157.651 194.001 147.604 193.93 146.68Z" fill="#263238"/>
<path d="M192.822 146.654C192.725 145.921 192.59 145.187 192.449 144.469L192.191 143.392C192.106 143.031 192.024 142.67 191.918 142.315C191.551 140.883 191.079 139.479 190.507 138.115L190.287 137.607L190.041 137.109C189.882 136.774 189.695 136.455 189.513 136.132C189.15 135.488 188.702 134.896 188.181 134.372C188.175 134.367 188.168 134.365 188.161 134.365C188.153 134.365 188.146 134.367 188.14 134.372C188.137 134.374 188.135 134.377 188.134 134.381C188.133 134.384 188.132 134.388 188.132 134.391C188.132 134.395 188.133 134.398 188.134 134.401C188.135 134.405 188.137 134.408 188.14 134.41C188.626 134.956 189.036 135.565 189.36 136.22C189.522 136.549 189.692 136.871 189.827 137.209L190.044 137.713L190.237 138.226C190.748 139.596 191.16 141.001 191.469 142.43C191.637 143.14 191.763 143.864 191.886 144.58L192.059 145.662C192.121 146.023 192.2 146.381 192.25 146.742C192.364 147.466 192.496 157.302 192.622 158.029C192.748 158.757 192.869 159.478 193.021 160.203C193.023 160.209 193.026 160.214 193.031 160.219C193.036 160.223 193.041 160.225 193.048 160.226C193.055 160.226 193.063 160.223 193.068 160.218C193.074 160.212 193.077 160.205 193.077 160.197C193.077 159.458 193.077 158.73 193.027 157.982C192.977 157.234 192.898 147.387 192.822 146.654Z" fill="#263238"/>
<path d="M191.293 146.748C190.95 145.78 190.554 144.829 190.12 143.899C189.685 142.972 189.195 142.071 188.653 141.201C188.647 141.196 188.64 141.194 188.633 141.194C188.625 141.194 188.618 141.196 188.612 141.201C188.608 141.206 188.605 141.214 188.605 141.221C188.605 141.229 188.608 141.236 188.612 141.242C189.086 142.143 189.505 143.071 189.868 144.023C190.243 144.967 190.581 145.926 190.865 146.9C191.15 147.874 191.361 157.988 191.619 158.965C191.877 159.942 192.097 160.93 192.39 161.907C192.393 161.913 192.397 161.919 192.402 161.923C192.407 161.927 192.413 161.93 192.42 161.931C192.427 161.93 192.434 161.927 192.44 161.921C192.445 161.916 192.448 161.909 192.449 161.901C192.459 160.869 192.361 159.839 192.156 158.827C191.992 157.809 191.634 147.73 191.293 146.748Z" fill="#263238"/>
<path d="M191.217 159.097C191.03 158.493 190.756 157.919 190.404 157.393C190.073 156.856 189.686 147.229 189.231 146.8C188.996 146.59 188.744 146.4 188.477 146.231C188.213 146.061 187.926 145.932 187.624 145.847C187.617 145.846 187.611 145.848 187.605 145.851C187.6 145.855 187.596 145.86 187.593 145.866C187.591 145.872 187.591 145.878 187.592 145.884C187.594 145.891 187.598 145.896 187.603 145.9C188.148 146.163 188.631 146.537 189.02 147C189.419 147.446 189.739 157.082 190.006 157.616C190.272 158.15 190.431 158.733 190.674 159.279C190.783 159.572 190.888 159.842 191.015 160.121C191.119 160.413 191.243 160.698 191.384 160.974C191.386 160.979 191.389 160.983 191.394 160.985C191.398 160.988 191.403 160.989 191.408 160.989C191.415 160.989 191.423 160.987 191.429 160.982C191.435 160.977 191.439 160.97 191.44 160.963C191.449 160.647 191.437 160.332 191.405 160.018C191.37 159.713 191.305 159.405 191.217 159.097Z" fill="#263238"/>
<path d="M191.343 132.911C190.421 132.654 189.587 132.15 188.93 131.453C188.274 130.756 187.82 129.893 187.618 128.957C186.92 125.695 189.173 127.091 187.154 121.97C185.136 116.848 185.6 115.684 186.298 114.208C186.996 112.733 187.386 113.199 188.008 115.138C188.63 117.077 190.88 120.107 191.733 125.774C192.587 131.442 191.343 132.911 191.343 132.911Z" fill="#065EA9"/>
<path d="M197.321 127.399C197.321 127.399 195.303 126.701 195.227 122.9C195.151 119.098 196.693 119.873 196.934 115.135C197.175 110.398 197.477 107.063 198.33 106.986C199.184 106.91 201.434 109.304 202.211 114.584C202.988 119.864 201.202 123.354 199.65 124.909C198.099 126.464 197.321 127.399 197.321 127.399Z" fill="#065EA9"/>
<path d="M190.258 137.49C190.258 137.49 189.792 134.698 188.862 133.383C187.932 132.069 185.911 130.899 184.591 128.338C183.271 125.777 181.798 124.525 181.875 128.183C181.951 131.84 183.582 133.694 185.6 134.929C187.618 136.164 190.258 137.49 190.258 137.49Z" fill="#065EA9"/>
<path d="M189.404 142.304C189.404 142.304 187.542 138.734 184.825 136.094C182.109 133.454 179.936 132.134 180.719 133.454C181.502 134.774 182.426 134.697 183.746 137.027C185.066 139.356 184.679 141.063 186.541 142.38C188.404 143.697 189.404 142.304 189.404 142.304Z" fill="#065EA9"/>
<path d="M189.164 146.883C189.085 146.651 189.008 144.944 186.368 143.544C183.728 142.145 181.244 142.691 181.555 143.389C181.866 144.087 183.497 145.255 185.125 145.953C186.753 146.651 189.164 146.883 189.164 146.883Z" fill="#065EA9"/>
<path d="M197.166 137.646C197.166 137.646 195.993 136.179 196.623 133.067C197.254 129.954 198.641 130.738 200.193 129.107C201.745 127.476 201.434 127.244 202.989 125.537C204.543 123.83 205.922 122.897 206.558 123.598C207.195 124.299 206.247 126.47 205.318 127.704C204.388 128.939 202.909 129.567 202.211 131.122C201.513 132.676 201.824 135.158 200.038 136.32C198.251 137.481 197.166 137.646 197.166 137.646Z" fill="#065EA9"/>
<path d="M201.047 138.499C201.047 138.499 203.842 135.316 205.86 132.99C207.878 130.664 208.653 128.884 208.732 130.427C208.811 131.97 209.43 133.222 207.799 135.24C206.168 137.258 201.047 138.499 201.047 138.499Z" fill="#065EA9"/>
<path d="M199.571 143.624C199.571 143.624 199.495 142.38 203.918 139.517C208.342 136.654 210.207 136.103 209.741 137.267C209.275 138.432 207.336 139.596 205.238 141.691C203.141 143.785 199.571 143.624 199.571 143.624Z" fill="#065EA9"/>
<path d="M191.528 132.58C191.528 132.58 190.49 127.006 189.404 123.052C188.319 119.098 187.618 116.69 187.618 116.69" stroke="#ABABAB" stroke-width="0.293333" stroke-linecap="round" stroke-linejoin="round"/>
<path d="M197.142 127.458C197.142 127.458 199.029 121.424 199.65 117.778C200.272 114.132 199.571 111.413 199.263 109.782" stroke="#ABABAB" stroke-width="0.293333" stroke-linecap="round" stroke-linejoin="round"/>
<path d="M190.014 137.376C189.179 135.938 188.222 134.574 187.154 133.298C185.444 131.28 184.124 130.195 183.341 128.253" stroke="#ABABAB" stroke-width="0.293333" stroke-linecap="round" stroke-linejoin="round"/>
<path d="M197.166 137.646C197.166 137.646 197.788 133.92 199.263 131.981C200.739 130.042 203.687 127.012 204.851 125.07" stroke="#ABABAB" stroke-width="0.293333" stroke-linecap="round" stroke-linejoin="round"/>
<path d="M188.988 146.798C188.988 146.798 186.377 145.099 184.514 144.158" stroke="#ABABAB" stroke-width="0.293333" stroke-linecap="round" stroke-linejoin="round"/>
<path d="M196.18 173.08H192.763C192.467 173.08 192.178 172.993 191.931 172.829C191.685 172.665 191.493 172.432 191.378 172.159C190.261 169.484 189.076 156.689 189.076 156.689H199.864C199.864 156.689 198.691 169.484 197.565 172.159C197.45 172.432 197.258 172.664 197.011 172.828C196.765 172.992 196.476 173.08 196.18 173.08Z" fill="#263238"/>
<path d="M196.421 137.464C196.421 137.464 194.954 139.009 193.781 138.555C192.607 138.1 191.771 137.159 190.504 138.129C189.237 139.1 190.058 140.984 191.51 142.996C192.962 145.008 193.913 145.929 194.983 144.914C196.054 143.899 198.691 142.541 198.782 139.904C198.873 137.267 199.058 136.358 196.421 137.464Z" fill="#065EA9"/>
<path d="M198.512 145.09C197.975 145.715 197.234 146.131 196.421 146.264C194.986 146.557 193.294 145.211 193.355 146.739C193.417 148.267 194.784 149.628 196.875 149.537C198.967 149.446 200.419 149.901 200.783 150.711C201.146 151.52 202.249 150.802 201.783 148.346C201.317 145.891 200.419 144.721 198.512 145.09Z" fill="#065EA9"/>
<path d="M192.329 149.085C191.755 148.98 191.164 149.011 190.604 149.176C189.604 149.449 189.331 150.177 189.695 151.177C190.058 152.177 190.968 153.084 191.331 152.35C191.695 151.617 191.783 151.177 192.798 150.898C193.813 150.62 193.511 149.085 192.329 149.085Z" fill="#065EA9"/>
<path d="M25.3811 125.628C25.3825 125.624 25.3833 125.621 25.3833 125.617C25.3833 125.614 25.3826 125.61 25.3813 125.607C25.3799 125.604 25.3779 125.601 25.3753 125.598C25.3728 125.596 25.3697 125.594 25.3664 125.592C25.363 125.591 25.3592 125.589 25.3553 125.589C25.3514 125.589 25.3475 125.589 25.3439 125.591C25.3402 125.592 25.3369 125.594 25.3342 125.597C25.3315 125.6 25.3295 125.603 25.3283 125.607C24.4839 127.63 23.8165 129.723 23.3336 131.861C22.8456 134 22.4784 136.164 22.2336 138.344L22.0752 139.983C22.0518 140.256 22.0224 140.529 22.0019 140.805L21.9579 141.626C21.9344 142.175 21.8992 142.723 21.8846 143.272V144.92L21.9051 145.742C21.9051 146.017 21.9344 146.29 21.955 146.566C21.996 147.111 22.0283 156.783 22.0782 157.328C22.1838 158.419 22.348 159.508 22.5182 160.587C22.5189 160.594 22.5223 160.601 22.5277 160.606C22.5331 160.611 22.5402 160.614 22.5475 160.614C22.5545 160.612 22.5609 160.609 22.5657 160.603C22.5705 160.598 22.5734 160.591 22.5739 160.584C22.5739 160.036 22.5475 159.49 22.5358 158.942C22.524 158.393 22.4742 157.853 22.48 157.308C22.4859 156.762 22.48 147.094 22.4624 146.551V145.733V144.917V143.286L22.5094 141.652V140.837C22.5094 140.564 22.5416 140.294 22.5563 140.022L22.656 138.391C22.843 136.224 23.1514 134.069 23.58 131.937C23.9978 129.786 24.6004 127.675 25.3811 125.628Z" fill="#263238"/>
<path d="M25.6158 134.164C25.6171 134.16 25.6177 134.156 25.6176 134.152C25.6174 134.148 25.6165 134.144 25.6148 134.141C25.6132 134.137 25.6109 134.134 25.608 134.132C25.6052 134.129 25.6018 134.127 25.5982 134.125C25.5945 134.124 25.5906 134.124 25.5867 134.124C25.5828 134.124 25.579 134.125 25.5754 134.126C25.5719 134.128 25.5687 134.13 25.5661 134.133C25.5634 134.136 25.5614 134.139 25.56 134.143C24.6322 136.867 24.0162 139.687 23.7238 142.55C23.58 143.979 23.4304 145.41 23.4011 146.844C23.3718 148.279 23.4011 158.839 23.5536 160.273C23.5536 160.28 23.556 160.286 23.5603 160.291C23.5646 160.296 23.5706 160.299 23.5771 160.3C23.581 160.301 23.5851 160.301 23.589 160.3C23.5929 160.299 23.5966 160.297 23.5997 160.294C23.6028 160.292 23.6053 160.289 23.607 160.285C23.6086 160.281 23.6095 160.277 23.6094 160.273C23.7766 158.845 23.8763 148.296 23.976 146.871C24.0758 145.445 24.0904 144.014 24.1843 142.588C24.3841 139.739 24.8675 136.917 25.6275 134.164H25.6158Z" fill="#263238"/>
<path d="M30.3471 137.17C30.3414 137.166 30.3341 137.163 30.3266 137.163C30.3191 137.163 30.3119 137.166 30.3061 137.17C29.124 137.933 28.0589 138.862 27.1439 139.931C26.6831 140.467 26.269 141.042 25.9061 141.65L25.6509 142.131L25.4543 142.629C25.3857 142.794 25.3269 142.962 25.2783 143.134C25.2285 143.304 25.1698 143.474 25.1258 143.644C24.7709 145.014 24.5391 155.536 24.4717 156.938C24.4002 158.342 24.4522 159.75 24.6271 161.144C24.6288 161.151 24.6322 161.156 24.6368 161.16C24.6415 161.164 24.6473 161.167 24.6535 161.168C24.6575 161.169 24.6615 161.169 24.6655 161.168C24.6694 161.167 24.673 161.165 24.6761 161.163C24.6793 161.16 24.6817 161.157 24.6834 161.153C24.6851 161.15 24.6859 161.146 24.6858 161.142L25.0466 156.979C25.1903 155.603 25.2783 145.099 25.5717 143.756C25.6098 143.588 25.6597 143.424 25.7007 143.257C25.7407 143.091 25.7897 142.928 25.8474 142.767L26.0146 142.286L26.2346 141.831C26.5623 141.224 26.9411 140.646 27.3669 140.104C28.211 139 29.2121 138.025 30.3383 137.211C30.342 137.21 30.3453 137.207 30.3478 137.204C30.3503 137.201 30.3521 137.197 30.3529 137.193C30.3538 137.189 30.3537 137.185 30.3527 137.181C30.3517 137.177 30.3498 137.173 30.3471 137.17Z" fill="#263238"/>
<path d="M28.0562 142.512C27.4405 142.96 26.9465 143.555 26.6189 144.243C26.2714 144.916 26.0008 145.627 25.8122 146.36C25.7565 146.542 25.7095 146.724 25.6714 146.909L25.5394 147.463C25.4749 147.836 25.4221 157.331 25.4015 157.71C25.381 158.088 25.3839 158.463 25.4015 158.839C25.4292 159.216 25.4791 159.591 25.5511 159.962C25.5511 159.962 25.5511 159.986 25.5746 159.986C25.5783 159.987 25.5821 159.987 25.5858 159.986C25.5895 159.985 25.593 159.984 25.5961 159.981C25.5991 159.979 25.6017 159.976 25.6036 159.973C25.6054 159.97 25.6065 159.966 25.6069 159.962C25.6943 159.598 25.7609 159.229 25.8063 158.856C25.865 158.49 25.9237 158.126 25.9677 157.762C26.0117 157.399 26.0674 157.038 26.0967 156.671C26.1261 156.305 26.173 146.821 26.2522 146.466C26.3786 145.745 26.5862 145.04 26.8711 144.366C27.1239 143.677 27.5372 143.059 28.0767 142.562C28.0808 142.556 28.083 142.55 28.083 142.543C28.083 142.536 28.0808 142.529 28.0767 142.524C28.0743 142.52 28.0712 142.518 28.0677 142.516C28.0642 142.514 28.0602 142.512 28.0562 142.512Z" fill="#263238"/>
<path d="M21.421 146.68C21.2655 144.832 20.9605 143.005 20.673 141.174C20.3855 139.344 20.0658 137.525 19.7314 135.704C19.397 133.882 19.0303 132.075 18.6314 130.268C18.6293 130.261 18.6246 130.254 18.6182 130.25C18.6117 130.246 18.6039 130.244 18.5962 130.245C18.5889 130.246 18.5825 130.25 18.5781 130.256C18.5738 130.262 18.5718 130.27 18.5727 130.277C18.8895 132.099 19.177 133.926 19.4527 135.754C19.7285 137.581 19.9895 139.408 20.2213 141.242C20.453 143.075 20.6231 144.911 20.8519 146.742L21.5295 161.362C21.5295 161.369 21.5323 161.375 21.5373 161.38C21.5422 161.385 21.5489 161.388 21.5559 161.388C21.5598 161.388 21.5636 161.387 21.5671 161.386C21.5707 161.384 21.5739 161.382 21.5767 161.379C21.5794 161.377 21.5815 161.373 21.583 161.37C21.5845 161.366 21.5853 161.362 21.5853 161.359C21.6087 160.895 21.6087 160.432 21.6205 159.968C21.6322 159.505 21.5999 159.041 21.5911 158.578C21.5706 157.651 21.4914 147.604 21.421 146.68Z" fill="#263238"/>
<path d="M20.3123 146.654C20.2155 145.921 20.0806 145.187 19.9398 144.469L19.6816 143.392C19.5966 143.031 19.5144 142.67 19.4088 142.315C19.0416 140.883 18.57 139.479 17.9979 138.115L17.775 137.607L17.5315 137.109C17.3731 136.774 17.1854 136.455 17.0035 136.132C16.6406 135.488 16.1927 134.896 15.6718 134.372C15.666 134.367 15.6587 134.365 15.6512 134.365C15.6437 134.365 15.6365 134.367 15.6307 134.372C15.6281 134.374 15.6261 134.377 15.6247 134.381C15.6233 134.384 15.6226 134.388 15.6226 134.391C15.6226 134.395 15.6233 134.398 15.6247 134.401C15.6261 134.405 15.6281 134.408 15.6307 134.41C16.1166 134.956 16.527 135.565 16.851 136.22C17.0123 136.549 17.1824 136.871 17.3174 137.209L17.5344 137.713L17.728 138.226C18.2387 139.596 18.6505 141.001 18.96 142.43C19.1272 143.14 19.2387 143.864 19.3766 144.58L19.5496 145.662C19.6112 146.023 19.6875 146.381 19.7403 146.742C19.8547 147.466 19.9867 157.302 20.1128 158.029C20.239 158.757 20.3592 159.478 20.5118 160.203C20.5134 160.209 20.5168 160.214 20.5215 160.219C20.5262 160.223 20.532 160.225 20.5382 160.226C20.5459 160.226 20.5534 160.223 20.5589 160.218C20.5644 160.212 20.5675 160.205 20.5675 160.197C20.5675 159.458 20.5675 158.73 20.5176 157.982C20.4678 157.234 20.3886 147.387 20.3123 146.654Z" fill="#263238"/>
<path d="M18.7841 146.748C18.4409 145.78 18.0449 144.829 17.6107 143.899C17.1753 142.972 16.6855 142.071 16.1441 141.201C16.1381 141.196 16.1309 141.194 16.1235 141.194C16.1162 141.194 16.109 141.196 16.103 141.201C16.0982 141.206 16.0956 141.214 16.0956 141.221C16.0956 141.229 16.0982 141.236 16.103 141.242C16.5767 142.143 16.996 143.071 17.3585 144.023C17.7339 144.967 18.0713 145.926 18.3558 146.9C18.6403 147.874 18.8515 157.988 19.1097 158.965C19.3678 159.942 19.6025 160.927 19.9017 161.916C19.9038 161.922 19.9077 161.928 19.9129 161.932C19.9181 161.936 19.9244 161.939 19.931 161.939C19.9384 161.938 19.9452 161.935 19.9504 161.929C19.9557 161.924 19.9592 161.917 19.9603 161.91C19.9701 160.878 19.8717 159.848 19.667 158.836C19.4822 157.809 19.1243 147.73 18.7841 146.748Z" fill="#263238"/>
<path d="M18.7195 159.097C18.5324 158.493 18.2587 157.919 17.9069 157.393C17.5755 156.856 17.1883 147.229 16.7336 146.8C16.4987 146.59 16.2465 146.4 15.9797 146.231C15.7159 146.061 15.4282 145.932 15.1261 145.847C15.1195 145.845 15.1125 145.846 15.1061 145.849C15.0998 145.851 15.0945 145.856 15.0909 145.862C15.088 145.869 15.0878 145.877 15.0905 145.884C15.0933 145.891 15.0987 145.897 15.1056 145.9C15.6497 146.162 16.1317 146.537 16.5195 147C16.9213 147.446 17.2411 157.082 17.508 157.616C17.7749 158.15 17.9333 158.733 18.1768 159.279C18.2853 159.572 18.3909 159.842 18.5171 160.121C18.6205 160.413 18.744 160.699 18.8867 160.974C18.8895 160.979 18.8935 160.982 18.8981 160.985C18.9027 160.987 18.9078 160.989 18.9131 160.989C18.9168 160.989 18.9205 160.989 18.9241 160.988C18.9276 160.987 18.9309 160.985 18.9337 160.982C18.9364 160.98 18.9387 160.977 18.9402 160.973C18.9417 160.97 18.9424 160.966 18.9424 160.963C18.9542 160.647 18.9424 160.332 18.9072 160.018C18.8603 159.708 18.7976 159.401 18.7195 159.097Z" fill="#263238"/>
<path d="M18.8338 132.911C17.9116 132.654 17.0772 132.15 16.4207 131.453C15.7642 130.756 15.3104 129.893 15.1085 128.957C14.4103 125.695 16.6602 127.091 14.6421 121.97C12.6239 116.848 13.0903 115.684 13.7885 114.208C14.4866 112.733 14.8767 113.199 15.4957 115.138C16.1146 117.077 18.3703 120.107 19.2239 125.774C20.0775 131.442 18.8338 132.911 18.8338 132.911Z" fill="#065EA9"/>
<path d="M24.812 127.399C24.812 127.399 22.7938 126.701 22.7146 122.9C22.6354 119.098 24.1813 119.873 24.4248 115.135C24.6682 110.398 24.9674 107.063 25.821 106.986C26.6746 106.91 28.9245 109.304 29.7018 114.584C30.4792 119.864 28.6928 123.354 27.141 124.909C25.5893 126.464 24.812 127.399 24.812 127.399Z" fill="#065EA9"/>
<path d="M17.7485 137.49C17.7485 137.49 17.2821 134.698 16.3522 133.383C15.4224 132.069 13.4013 130.899 12.0813 128.338C10.7613 125.777 9.28876 124.525 9.36503 128.183C9.44129 131.84 11.0722 133.694 13.0904 134.929C15.1085 136.164 17.7485 137.49 17.7485 137.49Z" fill="#065EA9"/>
<path d="M16.8949 142.304C16.8949 142.304 15.0322 138.734 12.316 136.094C9.59972 133.454 7.42318 132.134 8.20932 133.454C8.99545 134.774 9.91652 134.697 11.2365 137.027C12.5565 139.356 12.1693 141.063 14.032 142.38C15.8946 143.697 16.8949 142.304 16.8949 142.304Z" fill="#065EA9"/>
<path d="M16.6602 146.883C16.5839 146.651 16.5047 144.944 13.8677 143.544C11.2306 142.145 8.74315 142.691 9.05701 143.389C9.37088 144.087 10.9989 145.255 12.6269 145.953C14.2549 146.651 16.6602 146.883 16.6602 146.883Z" fill="#065EA9"/>
<path d="M24.6564 137.646C24.6564 137.646 23.4831 136.179 24.1137 133.067C24.7444 129.954 26.1319 130.738 27.6836 129.107C29.2353 127.476 28.9244 127.244 30.4791 125.537C32.0337 123.83 33.4124 122.897 34.0489 123.598C34.6855 124.299 33.738 126.47 32.8052 127.704C31.8724 128.939 30.3999 129.567 29.7017 131.122C29.0036 132.676 29.3145 135.164 27.5369 136.326C25.7593 137.487 24.6564 137.646 24.6564 137.646Z" fill="#065EA9"/>
<path d="M28.5374 138.499C28.5374 138.499 31.3329 135.316 33.351 132.99C35.3691 130.664 36.1435 128.884 36.2227 130.427C36.3019 131.97 36.9209 133.222 35.2899 135.24C33.659 137.258 28.5374 138.499 28.5374 138.499Z" fill="#065EA9"/>
<path d="M27.062 143.624C27.062 143.624 26.9857 142.38 31.4092 139.517C35.8326 136.654 37.6982 136.103 37.2318 137.267C36.7654 138.432 34.8265 139.596 32.7292 141.691C30.6318 143.785 27.062 143.624 27.062 143.624Z" fill="#065EA9"/>
<path d="M19.0304 132.58C19.0304 132.58 17.992 127.006 16.9067 123.052C15.8213 119.098 15.1203 116.69 15.1203 116.69" stroke="#ABABAB" stroke-width="0.293333" stroke-linecap="round" stroke-linejoin="round"/>
<path d="M24.633 127.458C24.633 127.458 26.5192 121.424 27.141 117.778C27.7629 114.132 27.0618 111.413 26.7509 109.782" stroke="#ABABAB" stroke-width="0.293333" stroke-linecap="round" stroke-linejoin="round"/>
<path d="M17.5021 137.376C16.6639 135.936 15.7031 134.572 14.6304 133.298C12.9232 131.28 11.6032 130.195 10.8171 128.253" stroke="#ABABAB" stroke-width="0.293333" stroke-linecap="round" stroke-linejoin="round"/>
<path d="M24.6566 137.646C24.6566 137.646 25.2785 133.92 26.751 131.981C28.2235 130.042 31.1774 127.012 32.3419 125.07" stroke="#ABABAB" stroke-width="0.293333" stroke-linecap="round" stroke-linejoin="round"/>
<path d="M16.4784 146.798C16.4784 146.798 13.8677 145.099 12.005 144.158" stroke="#ABABAB" stroke-width="0.293333" stroke-linecap="round" stroke-linejoin="round"/>
<path d="M23.6709 173.08H20.2535C19.9577 173.08 19.6685 172.993 19.4222 172.829C19.1759 172.665 18.9834 172.432 18.869 172.159C17.7514 169.484 16.5663 156.689 16.5663 156.689H27.3551C27.3551 156.689 26.1818 169.484 25.0554 172.159C24.9407 172.432 24.7482 172.664 24.5019 172.828C24.2557 172.992 23.9666 173.08 23.6709 173.08Z" fill="#263238"/>
<path d="M22.8436 138.892C22.8436 138.892 20.7434 139.447 19.6346 138.452C18.5258 137.458 16.8714 137.235 16.537 138.672C16.2026 140.11 16.6484 141.55 17.6458 143.659C18.6431 145.768 20.1626 144.298 20.189 143.439C20.2154 142.579 21.2508 141.899 22.5356 142.172C23.8204 142.444 26.0527 139.335 22.8436 138.892Z" fill="#065EA9"/>
<path d="M26.4958 144.536C26.4958 144.536 27.4521 145.75 24.9265 145.032C22.4009 144.313 21.3155 143.726 21.0838 145.237C20.8521 146.748 22.8438 147.079 24.1726 147.411C25.5014 147.742 26.6043 150.068 27.4902 151.517C28.3761 152.966 30.1302 151.294 29.1505 147.865C28.1707 144.436 28.335 142.934 26.4958 144.536Z" fill="#065EA9"/>
<path opacity="0.3" d="M168.765 47.7946H55.9845V111.354H168.765V47.7946Z" stroke="black" stroke-width="0.293333" stroke-linejoin="round"/>
<path opacity="0.3" d="M168.765 105.443H55.9845V111.357H168.765V105.443Z" stroke="black" stroke-width="0.293333" stroke-linejoin="round"/>
<g opacity="0.3">
<path d="M84.9071 58.4778H66.9609V70.3226H84.9071V58.4778Z" stroke="black" stroke-width="0.293333" stroke-linejoin="round"/>
<path d="M70.9063 80.557H64.2447V87.7231H70.9063V80.557Z" stroke="black" stroke-width="0.293333" stroke-linejoin="round"/>
<path d="M81.7801 80.557H75.1185V87.7231H81.7801V80.557Z" stroke="black" stroke-width="0.293333" stroke-linejoin="round"/>
<path d="M92.6569 80.557H85.9953V87.7231H92.6569V80.557Z" stroke="black" stroke-width="0.293333" stroke-linejoin="round"/>
<path d="M145.131 71.3463H138.47V78.5124H145.131V71.3463Z" stroke="black" stroke-width="0.293333" stroke-linejoin="round"/>
<path d="M85.0421 63.8898H104.077V56.8704H141.597V71.493" stroke="black" stroke-width="0.293333" stroke-linejoin="round"/>
<path d="M160.898 69.8855H148.12V72.81H160.898V69.8855Z" stroke="black" stroke-width="0.293333" stroke-linejoin="round"/>
<path d="M160.898 75.1479H148.12V78.0725H160.898V75.1479Z" stroke="black" stroke-width="0.293333" stroke-linejoin="round"/>
<path d="M160.898 80.4132H148.12V83.3377H160.898V80.4132Z" stroke="black" stroke-width="0.293333" stroke-linejoin="round"/>
<path d="M160.898 85.6755H148.12V88.6001H160.898V85.6755Z" stroke="black" stroke-width="0.293333" stroke-linejoin="round"/>
<path d="M160.898 90.9409H148.12V93.8655H160.898V90.9409Z" stroke="black" stroke-width="0.293333" stroke-linejoin="round"/>
<path d="M75.1185 70.4692V76.7554" stroke="black" stroke-width="0.293333" stroke-linejoin="round"/>
<path d="M67.5066 80.4133V76.6117H89.401V80.4133" stroke="black" stroke-width="0.293333" stroke-linejoin="round"/>
<path d="M78.5183 80.557V76.7554" stroke="black" stroke-width="0.293333" stroke-linejoin="round"/>
<path d="M72.4669 61.989H79.4013" stroke="black" stroke-width="0.293333" stroke-linejoin="round"/>
<path d="M72.4669 66.8143H79.4013" stroke="black" stroke-width="0.293333" stroke-linejoin="round"/>
<path d="M70.2932 64.3269H81.5748" stroke="black" stroke-width="0.293333" stroke-linejoin="round"/>
</g>
<path d="M182.194 151.403H29.8748V173.077H182.194V151.403Z" fill="#7D7D7D" stroke="#263238" stroke-width="0.293333" stroke-linejoin="round"/>
<path d="M97.7785 144.832C97.7785 144.832 97.3854 147.264 97.3179 147.472C97.2505 147.68 96.2003 149.904 96.0683 150.496C95.9363 151.089 96.7929 151.417 97.3179 151.417C97.843 151.417 100.738 151.614 101.067 151.353C101.395 151.092 101.727 150.232 101.653 149.575C101.58 148.918 101.128 144.905 101.128 144.905L97.7785 144.832Z" fill="white" stroke="#263238" stroke-width="0.293333" stroke-linejoin="round"/>
<path d="M115.079 145.228C115.079 145.228 115.868 146.478 116.253 146.806C116.637 147.135 119.016 149.569 119.805 149.831C120.594 150.092 120.462 150.687 120.001 151.148C119.541 151.608 117.042 151.476 115.728 151.344C114.413 151.212 112.9 151.344 112.703 151.271C112.507 151.197 111.257 151.206 110.665 150.875C110.072 150.543 110.336 148.115 110.336 148.115L115.079 145.228Z" fill="white" stroke="#263238" stroke-width="0.293333" stroke-linejoin="round"/>
<path d="M101.067 102.052C101.067 102.052 99.5561 108.104 99.6969 112.237C99.8377 116.37 98.9078 127.039 98.9078 127.367C98.9078 127.696 98.1862 129.602 98.1862 131.38C98.1862 133.157 97.9868 143.178 97.9868 143.178C97.9868 143.178 97.1977 143.31 97.3297 144.034C97.4617 144.759 97.5937 145.809 97.5937 145.809C97.5937 145.809 98.767 145.873 99.6969 146.005C100.266 146.083 100.845 146.061 101.407 145.941C101.407 145.941 101.994 144.295 102.067 143.442C102.14 142.588 101.935 142.298 101.935 141.312C101.935 140.327 107.591 111.979 107.591 111.979L109.697 128.684C109.697 128.684 109.829 137.161 110.225 139.537C110.457 140.895 110.589 142.267 110.618 143.644C110.618 143.644 110.421 145.419 110.357 145.618C110.292 145.818 110.028 145.947 110.157 146.472C110.259 147.015 110.326 147.565 110.357 148.117C111.125 147.643 111.939 147.25 112.788 146.944C114.103 146.484 115.616 145.771 115.616 145.771C115.497 145.317 115.409 144.855 115.352 144.389C115.352 144.061 115.024 143.929 115.024 143.668C115.024 143.407 115.552 131.603 115.748 127.458C115.945 123.313 115.945 108.911 115.945 108.911L114.364 102.052L114.035 100.735L101.34 100.671L101.067 102.052Z" fill="#263238" stroke="#263238" stroke-width="0.293333" stroke-linejoin="round"/>
<path d="M102.709 101.994C102.709 101.994 106.25 103.067 108.72 102.853C111.19 102.639 112.26 102.155 112.26 102.155L112.897 93.5163L113.381 81.7654L113.434 79.8353C113.434 79.8353 110.163 78.8673 109.195 78.7617C108.227 78.6561 105.335 78.4977 105.335 78.4977L102.108 80.2577L102.709 101.994Z" fill="white" stroke="#263238" stroke-width="0.293333" stroke-linejoin="round"/>
<path d="M105.062 75.5703L105.341 78.5036C105.468 78.9436 105.666 79.3598 105.927 79.7356C106.326 80.2519 107.717 81.2463 107.717 81.2463L108.391 83.4698L109.066 81.1671C109.576 80.9418 110.005 80.5675 110.298 80.0935C110.604 79.4799 110.819 78.8246 110.935 78.1487L111.093 76.7172C111.093 76.7172 109.465 77.3039 108.233 77.0106C107.001 76.7172 105.062 75.5703 105.062 75.5703Z" fill="white" stroke="#263238" stroke-width="0.293333" stroke-linejoin="round"/>
<path d="M107.725 81.2405L106.464 84.0741L105.713 82.3023" stroke="#263238" stroke-width="0.293333" stroke-linejoin="round"/>
<path d="M109.075 81.1613L110.06 83.6986L110.758 82.625" stroke="#263238" stroke-width="0.293333" stroke-linejoin="round"/>
<path d="M103.883 72.1969C103.883 72.1969 103.129 71.4811 102.903 72.5753C102.677 73.6694 103.584 74.5729 103.848 74.7225C104.074 74.8319 104.315 74.908 104.563 74.9483C104.838 75.7411 105.305 76.4536 105.921 77.0222C106.863 77.8142 108.371 78.6443 110.257 77.8523C112.143 77.0603 111.991 74.7225 111.879 72.9126C111.768 71.1027 111.351 67.8614 110.747 66.6558C110.143 65.4502 107.767 65.1099 105.883 65.5235C104 65.9371 103.056 67.9729 102.979 69.1051C102.903 70.2374 103.883 72.1969 103.883 72.1969Z" fill="white" stroke="#263238" stroke-width="0.293333" stroke-linejoin="round"/>
<path d="M103.883 72.1969C103.753 72.0749 103.589 71.9952 103.413 71.9681L103.883 72.1969Z" fill="white" stroke="#263238" stroke-width="0.293333" stroke-linejoin="round"/>
<path d="M105.921 77.037C106.863 77.829 108.371 78.6591 110.257 77.8671C112.143 77.0751 111.99 74.7373 111.879 72.9274C111.855 72.5813 111.823 72.1823 111.779 71.7541L111.765 71.7218L111.351 74.6551C111.351 74.6551 111.237 74.3618 110.069 73.6373C108.902 72.9127 107.805 73.6373 107.203 74.0127C106.752 74.3204 106.334 74.6743 105.957 75.0687C105.489 74.8005 105.12 74.3892 104.903 73.8954C104.645 73.3342 104.478 72.735 104.411 72.1207C104.411 72.1207 105.165 71.2173 104.939 70.5749C104.713 69.9325 104.525 70.1613 104.375 69.4015C104.226 68.6418 104.035 67.8175 104.563 67.3658C105.091 66.9141 106.449 66.8759 107.013 67.2514C107.576 67.6269 108.107 67.8557 108.749 67.4773C109.391 67.0989 109.653 66.6853 110.104 66.7997C110.438 66.9324 110.746 67.1209 111.017 67.357C110.945 67.1146 110.855 66.8782 110.747 66.6501C110.142 65.4415 107.766 65.1042 105.883 65.5178C104 65.9314 103.055 67.9671 102.979 69.0994C102.903 70.2317 103.883 72.1911 103.883 72.1911L104.563 74.9426C104.835 75.7427 105.302 76.4626 105.921 77.037Z" fill="#263238" stroke="#263238" stroke-width="0.293333" stroke-linejoin="round"/>
<path d="M108.899 70.0468C108.899 70.0468 109.048 72.763 109.427 73.3292C109.805 73.8953 109.767 74.1212 109.163 74.0068C108.558 73.8924 107.989 73.2529 107.989 72.8774" fill="white"/>
<path d="M108.899 70.0468C108.899 70.0468 109.048 72.763 109.427 73.3292C109.805 73.8953 109.767 74.1212 109.163 74.0068C108.558 73.8924 107.989 73.2529 107.989 72.8774" stroke="#263238" stroke-width="0.293333" stroke-linejoin="round"/>
<path d="M107.467 74.573C107.467 74.573 108.221 75.5146 109.917 74.9866" stroke="white" stroke-width="0.293333" stroke-linecap="round" stroke-linejoin="round"/>
<path d="M107.124 71.405C107.168 71.6984 107.086 71.9477 106.936 71.9712C106.787 71.9946 106.643 71.7776 106.587 71.4901C106.532 71.2026 106.628 70.9474 106.775 70.924C106.922 70.9005 107.08 71.1176 107.124 71.405Z" fill="#263238"/>
<path d="M110.412 71.1702C110.459 71.4635 110.374 71.7099 110.225 71.7334C110.075 71.7569 109.931 71.5398 109.875 71.2523C109.82 70.9649 109.917 70.7097 110.063 70.6862C110.21 70.6627 110.368 70.8769 110.412 71.1702Z" fill="#263238"/>
<path d="M105.96 70.2375C105.96 70.2375 106.367 69.8297 107.344 69.8033" stroke="#263238" stroke-width="0.293333" stroke-linecap="round" stroke-linejoin="round"/>
<path d="M109.412 69.6654C109.412 69.6654 109.928 69.0964 110.879 69.8297" stroke="#263238" stroke-width="0.293333" stroke-linecap="round" stroke-linejoin="round"/>
<path d="M111.724 70.9708C111.724 70.9708 112.269 70.701 112.348 71.5956C112.386 72.1647 112.254 72.7322 111.97 73.2266L111.724 70.9708Z" fill="white" stroke="#263238" stroke-width="0.293333" stroke-linejoin="round"/>
<path d="M94.1763 86.1302C94.1763 86.1302 93.5398 84.2617 93.5897 84.1033C93.5804 83.5544 93.4586 83.0133 93.2318 82.5134C92.9942 82.1174 93.0323 82.2377 92.6745 81.6334C92.3166 81.0291 91.7945 80.2841 91.683 79.9673C91.5715 79.6505 91.1667 80.4425 91.4043 80.9206C91.6419 81.3987 92.1993 82.2318 92.1993 82.2318C92.0612 82.2506 91.9207 82.2228 91.8003 82.1526C91.6735 82.0762 91.5412 82.0095 91.4043 81.9531L90.7297 81.5953C90.7297 81.5953 89.6971 80.6801 89.5358 80.6009C89.3745 80.5217 88.7027 78.4947 88.3449 78.7353C87.987 78.9758 88.3859 79.4891 88.4241 79.8851C88.5558 80.636 88.7282 81.3793 88.9403 82.1115C89.0195 82.311 89.8937 83.4609 90.3718 84.0974C90.8161 84.6102 91.3237 85.0646 91.8825 85.4497L92.5953 87.8726L94.1763 86.1302Z" fill="white" stroke="#263238" stroke-width="0.293333" stroke-linejoin="round"/>
<path d="M90.4041 83.6456C90.4041 83.6456 90.4305 83.059 90.4833 82.7246C90.5361 82.3902 91.3633 80.3222 91.5041 80.6038C91.6443 80.9276 91.663 81.291 91.5569 81.6275C91.4543 81.8299 91.1463 82.572 91.1463 82.572L91.4396 83.6984C91.4396 83.6984 92.1817 83.7747 92.5132 84.0798C92.7599 84.371 92.9428 84.7108 93.05 85.0771" fill="white"/>
<path d="M90.4041 83.6456C90.4041 83.6456 90.4305 83.059 90.4833 82.7246C90.5361 82.3902 91.3633 80.3222 91.5041 80.6038C91.6443 80.9276 91.663 81.291 91.5569 81.6275C91.4543 81.8299 91.1463 82.572 91.1463 82.572L91.4396 83.6984C91.4396 83.6984 92.1817 83.7747 92.5132 84.0798C92.7599 84.371 92.9428 84.7108 93.05 85.0771" stroke="#263238" stroke-width="0.293333" stroke-linejoin="round"/>
<path d="M90.017 83.2381C90.017 83.2381 89.7236 82.5458 89.7588 82.2143C89.794 81.8829 90.322 79.8383 90.322 79.8383C90.322 79.8383 90.6799 79.6594 90.7063 80.0407C90.6768 80.5936 90.5913 81.142 90.4511 81.6775C90.4312 82.0267 90.4401 82.377 90.4775 82.7247" fill="white"/>
<path d="M90.017 83.2381C90.017 83.2381 89.7236 82.5458 89.7588 82.2143C89.794 81.8829 90.322 79.8383 90.322 79.8383C90.322 79.8383 90.6799 79.6594 90.7063 80.0407C90.6768 80.5936 90.5913 81.142 90.4511 81.6775C90.4312 82.0267 90.4401 82.377 90.4775 82.7247" stroke="#263238" stroke-width="0.293333" stroke-linejoin="round"/>
<path d="M89.7411 82.4197C89.7411 82.4197 89.2043 81.7303 89.2043 81.3695C89.2285 80.5491 89.2961 79.7305 89.4067 78.9173C89.4859 78.6855 89.7 78.7383 89.7646 79.325C89.7962 79.8805 89.7706 80.4379 89.6883 80.9882L89.8936 81.6013" fill="white"/>
<path d="M89.7411 82.4197C89.7411 82.4197 89.2043 81.7303 89.2043 81.3695C89.2285 80.5491 89.2961 79.7305 89.4067 78.9173C89.4859 78.6855 89.7 78.7383 89.7646 79.325C89.7962 79.8805 89.7706 80.4379 89.6883 80.9882L89.8936 81.6013" stroke="#263238" stroke-width="0.293333" stroke-linejoin="round"/>
<path d="M105.182 78.1427L105.382 85.611C105.382 85.611 106.056 94.9976 106.215 96.2971C106.373 97.5966 104.428 111.357 104.428 111.357C104.428 111.357 102.202 111.037 99.8993 110.521C97.5967 110.005 96.6727 109.488 96.6727 109.488L100.137 95.7808C100.137 95.7808 96.6404 99.5942 96.4028 99.6763C96.1652 99.7584 95.9657 99.6763 95.646 99.1982C95.3263 98.72 91.4836 88.0339 91.4836 88.0339L94.1852 86.1272L96.8487 90.4568C96.8487 90.4568 98.4356 81.6774 98.6087 81.3635C98.7817 81.0496 105.182 78.1427 105.182 78.1427Z" fill="#065EA9" stroke="#263238" stroke-width="0.293333" stroke-linejoin="round"/>
<path d="M103.751 79.0139C103.751 79.0139 102.871 84.42 103.475 87.2272C104.079 90.0344 105.74 95.332 105.74 95.332" stroke="#263238" stroke-width="0.293333" stroke-linejoin="round"/>
<path d="M100.137 95.7809L100.416 94.3905L99.4211 84.4583" stroke="#263238" stroke-width="0.293333" stroke-linejoin="round"/>
<path d="M96.8398 90.4569L97.5937 92.8006" stroke="#263238" stroke-width="0.293333" stroke-linejoin="round"/>
<path d="M125.51 86.9252C125.51 86.9252 126.66 85.3236 126.669 85.1652C126.837 84.6429 127.111 84.1608 127.473 83.7484C127.816 83.4374 127.742 83.5401 128.259 83.0737C128.759 82.6621 129.237 82.2255 129.693 81.7654C129.901 81.4956 130.051 82.3697 129.693 82.7569C129.335 83.1441 128.552 83.7806 128.552 83.7806C128.677 83.8415 128.819 83.856 128.954 83.8217C129.097 83.7853 129.244 83.7598 129.391 83.7454L130.142 83.5988C130.142 83.5988 131.394 83.0268 131.57 82.9945C131.746 82.9622 132.981 81.2345 133.254 81.5542C133.527 81.874 132.996 82.267 132.843 82.6337C132.501 83.3147 132.12 83.9757 131.702 84.6137C131.57 84.7809 130.397 85.6286 129.758 86.098C129.184 86.4597 128.567 86.7475 127.921 86.9545L126.528 89.0636L125.51 86.9252Z" fill="white" stroke="#263238" stroke-width="0.293333" stroke-linejoin="round"/>
<path d="M129.843 85.6463C129.843 85.6463 129.989 85.0743 130.036 84.7429C130.083 84.4114 129.901 82.1909 129.676 82.4167C129.445 82.6835 129.322 83.0263 129.329 83.3789C129.368 83.6047 129.447 84.4026 129.447 84.4026L128.86 85.397C128.482 85.3202 128.091 85.3393 127.722 85.4527C127.401 85.6587 127.127 85.9307 126.918 86.2506" fill="white"/>
<path d="M129.843 85.6463C129.843 85.6463 129.989 85.0743 130.036 84.7429C130.083 84.4114 129.901 82.1909 129.676 82.4167C129.445 82.6835 129.322 83.0263 129.329 83.3789C129.368 83.6047 129.447 84.4026 129.447 84.4026L128.86 85.397C128.482 85.3202 128.091 85.3393 127.722 85.4527C127.401 85.6587 127.127 85.9307 126.918 86.2506" stroke="#263238" stroke-width="0.293333" stroke-linejoin="round"/>
<path d="M130.33 85.3647C130.33 85.3647 130.822 84.7956 130.869 84.4612C130.916 84.1268 131.022 82.0236 131.022 82.0236C131.022 82.0236 130.729 81.7479 130.597 82.1087C130.463 82.6459 130.386 83.1953 130.365 83.7484C130.282 84.0882 130.173 84.4208 130.036 84.7428" fill="white"/>
<path d="M130.33 85.3647C130.33 85.3647 130.822 84.7956 130.869 84.4612C130.916 84.1268 131.022 82.0236 131.022 82.0236C131.022 82.0236 130.729 81.7479 130.597 82.1087C130.463 82.6459 130.386 83.1953 130.365 83.7484C130.282 84.0882 130.173 84.4208 130.036 84.7428" stroke="#263238" stroke-width="0.293333" stroke-linejoin="round"/>
<path d="M130.834 84.6635C130.834 84.6635 131.55 84.159 131.653 83.8158C131.869 83.0242 132.042 82.2212 132.169 81.4105C132.169 81.167 131.952 81.1553 131.708 81.7038C131.519 82.2256 131.382 82.7651 131.301 83.3142L130.925 83.8422" fill="white"/>
<path d="M130.834 84.6635C130.834 84.6635 131.55 84.159 131.653 83.8158C131.869 83.0242 132.042 82.2212 132.169 81.4105C132.169 81.167 131.952 81.1553 131.708 81.7038C131.519 82.2256 131.382 82.7651 131.301 83.3142L130.925 83.8422" stroke="#263238" stroke-width="0.293333" stroke-linejoin="round"/>
<path d="M110.943 78.1427C111.049 80.4773 111.022 82.8159 110.864 85.1475C110.597 88.204 109.524 95.9862 109.632 96.2003C109.741 96.4144 111.24 111.16 111.24 111.16C111.24 111.16 114.299 111.269 116.015 110.893C117.062 110.663 118.085 110.34 119.074 109.928C119.074 109.928 115.158 95.5168 115.103 95.288C115.047 95.0592 115.689 93.1936 115.689 93.1936C115.689 93.1936 119.503 97.5408 120.142 97.4352C120.782 97.3296 127.499 88.4768 127.499 88.4768L125.408 86.2211L120.738 90.2368C120.738 90.2368 117.734 82.8331 117.411 82.1878C117.071 81.6163 116.656 81.0934 116.176 80.6331C116.015 80.4776 110.943 78.1427 110.943 78.1427Z" fill="#065EA9" stroke="#263238" stroke-width="0.293333" stroke-linejoin="round"/>
<path d="M112.26 79.2428C112.628 81.2751 112.701 83.3499 112.474 85.4028C112.099 88.8377 110.008 95.5433 110.008 95.5433" stroke="#263238" stroke-width="0.293333" stroke-linejoin="round"/>
<path d="M115.695 93.1937L116.927 85.5231" stroke="#263238" stroke-width="0.293333" stroke-linejoin="round"/>
<path d="M120.738 90.2428L120.685 92.39" stroke="#263238" stroke-width="0.293333" stroke-linejoin="round"/>
<path d="M163.729 107.25C163.729 107.25 161.153 107.837 160.449 108.949C159.745 110.06 158.927 112.695 159.162 113.692C159.396 114.689 160.508 117.438 161.385 118.142C162.262 118.846 164.025 119.84 165.31 119.84C166.595 119.84 169 118.142 169.232 117.32C169.463 116.499 170.112 114.158 170.17 113.105C170.229 112.052 170.698 110.354 168.648 108.773C166.598 107.192 165.896 106.775 163.729 107.25Z" fill="white" stroke="#263238" stroke-width="0.293333" stroke-linejoin="round"/>
<path d="M169.232 117.315C169.466 116.496 170.112 114.153 170.17 113.1C170.214 112.305 170.49 111.143 169.742 109.94C169.675 110.451 169.393 111.782 168.941 112.34C168.413 112.982 166.07 114.211 163.025 113.569C160.834 113.105 159.918 111.703 159.578 110.952C159.241 112.005 159.027 113.114 159.162 113.686C159.396 114.681 160.508 117.432 161.385 118.136C162.262 118.84 164.025 119.834 165.31 119.834C166.595 119.834 169 118.136 169.232 117.315Z" fill="white" stroke="#263238" stroke-width="0.293333" stroke-linejoin="round"/>
<path d="M159.162 113.686C159.162 113.686 158.399 113.393 158.282 114.153C158.164 114.912 158.634 116.499 159.279 116.848C159.468 116.95 159.679 117.003 159.893 117.003C160.108 117.003 160.319 116.95 160.508 116.848L159.162 113.686Z" fill="white" stroke="#263238" stroke-width="0.293333" stroke-linejoin="round"/>
<path d="M170.17 113.569C170.17 113.569 171.344 112.63 171.223 114.094C171.103 115.558 169.525 116.672 169.525 116.672L170.17 113.569Z" fill="white" stroke="#263238" stroke-width="0.293333" stroke-linejoin="round"/>
<path d="M170.977 121.709C170.977 121.709 169.337 119.13 169.161 118.954C168.985 118.778 166.351 118.368 164.711 118.368C163.072 118.368 160.379 119.069 160.379 119.069L158.974 122.002C158.974 122.002 165.545 120.304 170.977 121.709Z" fill="#263238" stroke="#263238" stroke-width="0.293333" stroke-linejoin="round"/>
<path d="M150.904 139.394C150.904 139.394 150.444 141.793 150.737 142.45C151.03 143.107 152.142 143.738 152.729 143.738C153.341 143.689 153.948 143.591 154.544 143.445L154.779 140.048L150.904 139.394Z" stroke="#263238" stroke-width="0.293333" stroke-linejoin="round"/>
<path d="M178.428 137.578C178.428 137.578 178.662 140.388 178.486 140.858C178.31 141.327 177.313 142.204 176.612 142.38C176.001 142.543 175.37 142.622 174.737 142.615C174.561 142.556 173.975 138.397 173.975 138.397L178.428 137.578Z" stroke="#263238" stroke-width="0.293333" stroke-linejoin="round"/>
<path d="M163.553 167.794C163.553 167.794 163.435 172.01 163.729 172.42C164.022 172.831 165.427 173.356 166.955 173.18C168.484 173.004 169.123 172.538 169.123 172.244C169.123 171.951 169.064 168.202 169.064 168.202C169.064 168.202 164.315 167.912 163.553 167.794Z" fill="#263238" stroke="#263238" stroke-width="0.293333" stroke-linejoin="round"/>
<path d="M169.117 172.244C169.117 172.18 169.117 171.951 169.117 171.616C167.102 172.496 164.805 172.007 163.594 171.616C163.593 171.889 163.641 172.159 163.737 172.414C164.031 172.825 165.436 173.35 166.964 173.174C168.492 172.998 169.117 172.538 169.117 172.244Z" fill="white" stroke="#263238" stroke-width="0.293333" stroke-linejoin="round"/>
<path d="M162.206 152.391C162.206 152.391 163.553 161.819 163.494 163.11C163.448 163.754 163.468 164.4 163.553 165.04C163.553 165.04 163.025 165.333 163.025 165.803C163.025 166.272 163.553 167.794 163.553 167.794C163.553 167.794 163.494 168.029 165.019 168.319C166.545 168.61 168.651 168.495 169.061 168.202C169.472 167.909 169.469 166.562 169.411 165.685C169.352 164.808 168.651 162.993 168.651 162.289C168.651 161.585 169.587 151.808 169.587 151.808C169.587 151.808 164.315 152.802 162.206 152.391Z" fill="#065EA9" stroke="#263238" stroke-width="0.293333" stroke-linejoin="round"/>
<path d="M172.279 164.867C172.279 164.867 173.159 167.8 173.391 168.319C173.623 168.839 174.565 169.434 175.031 169.434C175.497 169.434 178.017 168.613 178.369 168.437C178.721 168.261 179.363 167.208 179.07 166.272C178.777 165.336 177.31 162.347 177.31 162.347L172.279 164.867Z" fill="#263238" stroke="#263238" stroke-width="0.293333" stroke-linejoin="round"/>
<path d="M178.369 168.437C178.692 168.275 179.249 167.375 179.123 166.507C178.314 167.042 177.476 167.532 176.612 167.973C175.704 168.397 174.733 168.667 173.737 168.774C174.089 169.125 174.541 169.356 175.031 169.437C175.5 169.437 178.017 168.613 178.369 168.437Z" fill="white" stroke="#263238" stroke-width="0.293333" stroke-linejoin="round"/>
<path d="M168.12 155.146C168.12 155.146 170.405 159.713 170.813 160.426C171.22 161.139 171.517 161.658 171.517 161.658C171.315 161.962 171.228 162.328 171.27 162.69C171.388 163.218 172.268 164.858 172.268 164.858C172.268 164.858 173.614 165.151 174.667 164.799C175.72 164.447 176.952 163.45 177.069 163.218C177.172 162.932 177.25 162.638 177.301 162.338C177.103 161.56 176.849 160.798 176.541 160.056C176.013 158.766 175.43 157.771 175.195 156.659C174.96 155.548 173.673 150.793 173.673 150.793L166.926 152.259L168.12 155.146Z" fill="#065EA9" stroke="#263238" stroke-width="0.293333" stroke-linejoin="round"/>
<path d="M153.538 145.718C153.538 145.718 153.245 147.771 153.362 148.704C153.48 149.637 153.656 150.81 156.589 151.931C159.522 153.051 162.456 153.802 164.802 153.629C167.149 153.456 171.479 152.397 172.429 151.931C173.379 151.464 174.145 150.573 174.776 149.963C175.406 149.352 175.585 147.129 175.471 146.249C175.409 145.749 175.291 145.257 175.119 144.782C175.119 144.782 165.251 147.358 153.538 145.718Z" fill="#065EA9" stroke="#263238" stroke-width="0.293333" stroke-linejoin="round"/>
<path d="M158.986 121.999C158.986 121.999 156.175 124.578 154.879 125.572C153.582 126.566 152.303 127.798 152.303 128.15C152.303 128.502 148.848 139.1 148.848 139.1C148.848 139.1 150.194 140.799 153.125 141.089H153.964C153.964 141.089 153.553 145.307 153.553 145.718C153.553 146.129 159.059 148.065 165.501 147.531C171.942 146.997 174.987 145.366 175.104 144.779C175.222 144.193 174.987 143.019 174.987 142.139C174.987 141.259 174.811 139.561 174.811 139.561C174.811 139.561 176.451 139.737 177.68 139.268C178.909 138.798 180.71 137.17 180.71 137.17C180.71 137.17 177.19 129.617 176.671 127.919C176.151 126.22 170.977 121.709 170.977 121.709C170.977 121.709 166.187 120.186 158.986 121.999Z" fill="#263238" stroke="#263238" stroke-width="0.293333" stroke-linejoin="round"/>
<path d="M153.735 131.615L154.195 145.032C154.195 145.032 164.72 147.402 174.52 145.032L175.309 131.811C175.309 131.811 157.616 132.477 153.735 131.615Z" fill="#B2B2B2" stroke="#263238" stroke-width="0.293333" stroke-linejoin="round"/>
<path d="M154.195 145.032L152.353 173.303" stroke="#263238" stroke-width="0.88" stroke-linecap="round" stroke-linejoin="round"/>
<path d="M174.465 145.032L176.307 173.303" stroke="#263238" stroke-width="0.88" stroke-linecap="round" stroke-linejoin="round"/>
<path d="M153.817 150.007C153.817 150.007 159.484 153.002 164.837 152.922C170.411 152.84 174.746 149.957 174.746 149.957L175.04 153.043C175.04 153.043 165.36 157.088 153.729 152.852L153.817 150.007Z" fill="#B2B2B2" stroke="#263238" stroke-width="0.293333" stroke-linejoin="round"/>
<path d="M133.791 152.21C133.791 152.21 136.217 162.224 136.601 163.289C136.986 164.354 137.428 163.764 137.924 165.066C138.42 166.369 138.531 167.495 139.083 168.208C139.634 168.921 141.069 169.214 141.509 170.282C141.949 171.35 142.227 172.235 140.517 172.593C138.807 172.951 137.264 171.939 136.548 170.399C135.833 168.859 134.838 164.532 134.838 164.532C134.838 164.532 128.112 155.114 127.338 153.336L126.566 151.558L133.791 152.21Z" fill="white" stroke="#263238" stroke-width="0.293333" stroke-linejoin="round"/>
<path d="M137.209 164.178L137.373 164.201C137.637 164.436 137.828 164.741 137.924 165.081C138.423 166.387 138.531 167.51 139.083 168.223C139.634 168.936 141.069 169.229 141.509 170.297C141.949 171.364 142.227 172.25 140.517 172.608C138.807 172.966 137.264 171.954 136.549 170.414C135.833 168.874 134.838 164.547 134.838 164.547C135.886 162.875 137.209 164.178 137.209 164.178Z" fill="#263238" stroke="#263238" stroke-width="0.293333" stroke-linejoin="round"/>
<path d="M135.449 152.21C135.449 152.21 133.023 162.224 132.636 163.289C132.248 164.354 131.808 163.764 131.313 165.066C130.817 166.369 130.705 167.495 130.154 168.208C129.602 168.921 128.168 169.214 127.728 170.282C127.288 171.35 127.012 172.235 128.72 172.593C130.427 172.951 131.973 171.939 132.691 170.399C133.41 168.859 134.398 164.532 134.398 164.532C134.398 164.532 141.128 155.114 141.899 153.336L142.67 151.558L135.449 152.21Z" fill="white" stroke="#263238" stroke-width="0.293333" stroke-linejoin="round"/>
<path d="M132.028 164.178L131.864 164.201C131.6 164.436 131.409 164.741 131.313 165.081C130.817 166.387 130.705 167.51 130.154 168.223C129.602 168.936 128.168 169.229 127.728 170.297C127.288 171.364 127.012 172.25 128.72 172.608C130.427 172.966 131.973 171.954 132.691 170.414C133.41 168.874 134.398 164.547 134.398 164.547C133.351 162.875 132.028 164.178 132.028 164.178Z" fill="#263238" stroke="#263238" stroke-width="0.293333" stroke-linejoin="round"/>
<path d="M127.895 121.193C127.895 121.193 124.375 122.683 124.311 123.343C124.246 124.003 121.99 132.662 121.832 133.65C121.673 134.639 120.729 137.015 121.445 138.006C122.16 138.998 123.431 139.661 124.258 139.716C124.472 139.749 124.691 139.725 124.893 139.648C125.096 139.571 125.275 139.443 125.413 139.277L124.698 144.128C124.698 144.128 123.595 147.546 123.871 148.924C124.146 150.303 125.085 151.682 130.324 152.84C135.563 153.999 138.596 153.392 140.526 152.509C142.456 151.626 144.771 150.523 144.991 149.144C145.211 147.766 144.331 143.41 144.331 143.41L143.888 138.716C143.888 138.716 146.528 138.661 147.528 137.39C148.528 136.12 148.188 134.856 147.804 133.753C147.419 132.65 146.261 128.626 145.873 127.191C145.486 125.757 145.211 123.275 144.771 122.671C144.331 122.067 139.863 121.072 139.863 121.072C139.863 121.072 134.125 118.934 127.895 121.193Z" fill="white" stroke="#263238" stroke-width="0.293333" stroke-linejoin="round"/>
<path d="M125.856 128.362L127.068 134.041" stroke="#263238" stroke-width="0.293333" stroke-linejoin="round"/>
<path d="M144.105 128.746L143.277 133.765" stroke="#263238" stroke-width="0.293333" stroke-linejoin="round"/>
<path d="M144.988 149.147C145.17 148.009 144.601 144.832 144.401 143.767C137.836 145.61 128.544 144.401 124.748 143.767L124.695 144.122C124.695 144.122 123.592 147.54 123.868 148.918C124.144 150.297 125.082 151.676 130.321 152.834C135.56 153.993 138.593 153.386 140.523 152.503C142.453 151.62 144.768 150.526 144.988 149.147Z" fill="#065EA9" stroke="#263238" stroke-width="0.293333" stroke-linejoin="round"/>
<path d="M131.755 105.81C131.755 105.81 129.769 105.039 129.494 107.57C129.218 110.102 130.432 113.143 130.488 113.801C130.544 114.458 126.736 120.142 127.619 122.014C128.502 123.885 130.432 126.37 133.193 126.757C135.953 127.144 138.1 126.646 140.139 124.827C142.177 123.008 142.62 122.621 142.565 121.63C142.509 120.638 140.415 114.792 140.195 113.358C139.975 111.923 141.297 109.166 139.699 106.52C138.1 103.874 134.736 103.267 133.413 104.038C132.09 104.81 131.755 105.81 131.755 105.81Z" fill="#263238" stroke="#263238" stroke-width="0.293333" stroke-linejoin="round"/>
<path d="M123.812 131.615L124.272 145.032C124.272 145.032 134.797 147.402 144.597 145.032L145.386 131.811C145.386 131.811 127.693 132.477 123.812 131.615Z" fill="#B2B2B2" stroke="#263238" stroke-width="0.293333" stroke-linejoin="round"/>
<path d="M124.272 145.032L122.433 173.303" stroke="#263238" stroke-width="0.88" stroke-linecap="round" stroke-linejoin="round"/>
<path d="M144.542 145.032L146.384 173.303" stroke="#263238" stroke-width="0.88" stroke-linecap="round" stroke-linejoin="round"/>
<path d="M123.894 150.007C123.894 150.007 129.561 153.002 134.914 152.922C140.488 152.84 144.823 149.957 144.823 149.957L145.117 153.043C145.117 153.043 135.437 157.088 123.809 152.852L123.894 150.007Z" fill="#B2B2B2" stroke="#263238" stroke-width="0.293333" stroke-linejoin="round"/>
<path d="M76.3155 112.941L75.8755 118.523L84.4819 118.23L83.8219 113.273L76.3155 112.941Z" fill="white" stroke="#263238" stroke-width="0.293333" stroke-linejoin="round"/>
<path d="M86.2037 104.971C85.8018 103.763 84.1944 103.698 83.6576 103.361C83.1208 103.023 83.2557 102.155 81.7802 101.618C80.3048 101.082 79.4336 101.149 78.6944 101.821C78.0909 102.419 77.532 103.06 77.0224 103.739C76.2362 104.132 75.4501 104.619 75.1421 105.106C74.4381 106.218 74.2093 108.849 74.444 109.843C74.6786 110.838 75.7904 113.592 76.6704 114.293C77.5504 114.994 79.3104 115.992 80.5922 115.992C81.8741 115.992 84.2824 114.293 84.517 113.475C84.7517 112.657 85.397 110.313 85.4528 109.257C85.5453 108.799 85.6849 108.351 85.8693 107.922C85.9896 107.585 86.5909 106.177 86.2037 104.971Z" fill="#263238" stroke="#263238" stroke-width="0.293333" stroke-linejoin="round"/>
<path d="M74.4294 109.843C74.4294 109.843 73.6696 109.55 73.5494 110.313C73.4291 111.075 73.8984 112.659 74.5438 113.006C74.7327 113.107 74.9438 113.16 75.1583 113.16C75.3728 113.16 75.584 113.107 75.7728 113.006L74.4294 109.843Z" fill="white" stroke="#263238" stroke-width="0.293333" stroke-linejoin="round"/>
<path d="M85.438 109.726C85.438 109.726 86.6114 108.79 86.494 110.254C86.3767 111.718 84.7956 112.824 84.7956 112.824L85.438 109.726Z" fill="white" stroke="#263238" stroke-width="0.293333" stroke-linejoin="round"/>
<path d="M87.3536 120.383C87.3536 120.383 85.4147 117.382 85.2064 117.18C84.9981 116.977 81.8829 116.496 79.944 116.496C78.0051 116.496 74.8224 117.315 74.8224 117.315L73.1592 120.723C73.1592 120.723 80.9237 118.746 87.3536 120.383Z" fill="#065EA9" stroke="#263238" stroke-width="0.293333" stroke-linejoin="round"/>
<path d="M66.1721 139.394C66.1721 139.394 65.7056 141.793 65.996 142.439C66.2864 143.084 67.404 143.726 67.9878 143.726C68.5999 143.678 69.2072 143.58 69.8035 143.433L70.0382 140.036L66.1721 139.394Z" fill="white" stroke="#263238" stroke-width="0.293333" stroke-linejoin="round"/>
<path d="M93.6955 137.578C93.6955 137.578 93.9302 140.388 93.7542 140.858C93.5782 141.327 92.5808 142.204 91.8798 142.38C91.2687 142.544 90.638 142.623 90.0054 142.615C89.8294 142.556 89.2456 138.397 89.2456 138.397L93.6955 137.578Z" fill="white" stroke="#263238" stroke-width="0.293333" stroke-linejoin="round"/>
<path d="M69.2813 168.748L67.3746 170.361C67.3746 170.361 65.908 170.654 66.2717 171.754C66.4418 172.262 68.988 173.957 70.085 174.177C71.1821 174.397 73.168 174.177 73.6813 173.444C74.1946 172.711 73.828 169.261 73.828 169.261L69.2813 168.748Z" fill="white" stroke="#263238" stroke-width="0.293333" stroke-linejoin="round"/>
<path d="M73.6841 173.444C73.7731 173.296 73.8319 173.131 73.8572 172.96C72.9038 173.239 71.3169 173.503 70.2345 173.297C69.1521 173.092 67.3012 171.76 66.3244 171.015C66.2623 171.127 66.2255 171.251 66.2163 171.379C66.2072 171.507 66.2261 171.635 66.2716 171.754C66.4417 172.262 68.9878 173.957 70.0849 174.177C71.182 174.397 73.1708 174.177 73.6841 173.444Z" fill="white" stroke="#263238" stroke-width="0.293333" stroke-linejoin="round"/>
<path d="M70.8212 145.269C70.8212 145.269 68.4012 145.489 67.6679 147.616C66.9346 149.743 68.9146 166.683 68.9146 166.683C68.9146 166.683 68.5479 167.783 68.6212 168.003C68.6946 168.223 68.8412 169.396 68.8412 169.396C68.8412 169.396 69.2079 170.056 70.8212 170.056C71.8736 170.025 72.9041 169.749 73.8308 169.249C73.8308 169.249 73.6842 167.123 73.6842 166.093C73.6842 165.064 73.6108 162.793 73.6108 162.793L74.8575 149.807C74.8575 149.807 75.9575 145.929 70.8212 145.269Z" fill="#263238" stroke="#263238" stroke-width="0.293333" stroke-linejoin="round"/>
<path d="M89.8644 168.748L91.774 170.361C91.774 170.361 93.2407 170.654 92.874 171.754C92.7039 172.262 90.1578 173.957 89.0607 174.177C87.9636 174.397 85.9807 174.177 85.4644 173.444C84.9482 172.711 85.3178 169.261 85.3178 169.261L89.8644 168.748Z" fill="white" stroke="#263238" stroke-width="0.293333" stroke-linejoin="round"/>
<path d="M85.4616 173.444C85.3751 173.294 85.3165 173.13 85.2885 172.96C86.2418 173.239 87.8288 173.503 88.9112 173.297C89.9936 173.092 91.8445 171.76 92.8213 171.015C92.8847 171.127 92.9223 171.251 92.9315 171.379C92.9406 171.507 92.921 171.635 92.8741 171.754C92.704 172.262 90.1578 173.957 89.0608 174.177C87.9637 174.397 85.9778 174.177 85.4616 173.444Z" fill="white" stroke="#263238" stroke-width="0.293333" stroke-linejoin="round"/>
<path d="M88.3246 145.269C88.3246 145.269 90.7446 145.489 91.4808 147.616C92.2171 149.743 90.2312 166.683 90.2312 166.683C90.2312 166.683 90.5979 167.783 90.5246 168.003C90.4512 168.223 90.3046 169.396 90.3046 169.396C90.3046 169.396 89.9379 170.056 88.3246 170.056C87.2762 170.027 86.2488 169.755 85.3238 169.261C85.3238 169.261 85.4704 167.134 85.4704 166.105C85.4704 165.075 85.5467 162.805 85.5467 162.805L84.2971 149.819C84.2971 149.819 83.1883 145.929 88.3246 145.269Z" fill="#263238" stroke="#263238" stroke-width="0.293333" stroke-linejoin="round"/>
<path d="M68.809 145.718C68.809 145.718 68.5157 147.771 68.6331 148.704C68.7504 149.637 68.9264 150.81 71.8597 151.931C74.793 153.051 77.7264 153.802 80.0584 153.629C82.3904 153.456 86.7317 152.397 87.685 151.931C88.6384 151.464 89.401 150.573 90.0317 149.963C90.6624 149.352 90.8442 147.129 90.7269 146.249C90.6648 145.749 90.5467 145.257 90.3749 144.782C90.3749 144.782 80.5189 147.358 68.809 145.718Z" fill="#263238" stroke="#263238" stroke-width="0.293333" stroke-linejoin="round"/>
<path d="M74.2533 120.128C74.2533 120.128 71.4431 121.269 70.1466 122.263C68.8501 123.258 67.5682 124.49 67.5682 124.842C67.5682 125.194 64.1157 139.101 64.1157 139.101C64.1157 139.101 65.4621 140.799 68.3895 141.089H69.2079C69.2079 141.089 68.8002 145.307 68.8002 145.718C68.8002 146.129 74.3031 148.065 80.7447 147.531C87.1863 146.997 90.2311 145.366 90.3485 144.779C90.4658 144.193 90.2311 143.019 90.2311 142.139C90.2311 141.259 90.0551 139.561 90.0551 139.561C90.0551 139.561 91.6949 139.737 92.9269 139.268C94.1589 138.798 95.9805 137.17 95.9805 137.17C95.9805 137.17 92.4605 126.317 91.9383 124.61C91.4162 122.903 86.2594 119.837 86.2594 119.837C86.2594 119.837 81.4575 118.312 74.2533 120.128Z" fill="#065EA9" stroke="#263238" stroke-width="0.293333" stroke-linejoin="round"/>
<path d="M69.0437 127.402L70.4576 133.304" stroke="#263238" stroke-width="0.293333" stroke-linejoin="round"/>
<path d="M90.1138 129.729L89.2221 133.304" stroke="#263238" stroke-width="0.293333" stroke-linejoin="round"/>
<path d="M90.636 127.64L90.3778 128.675" stroke="#263238" stroke-width="0.293333" stroke-linejoin="round"/>
<path d="M69.1639 131.615L69.6245 145.032C69.6245 145.032 80.1463 147.402 89.9495 145.032L90.7386 131.811C90.7386 131.811 73.0447 132.477 69.1639 131.615Z" fill="#B2B2B2" stroke="#263238" stroke-width="0.293333" stroke-linejoin="round"/>
<path d="M69.6245 145.032L67.7823 173.303" stroke="#263238" stroke-width="0.88" stroke-linecap="round" stroke-linejoin="round"/>
<path d="M89.891 145.032L91.7331 173.303" stroke="#263238" stroke-width="0.88" stroke-linecap="round" stroke-linejoin="round"/>
<path d="M69.2431 150.007C69.2431 150.007 74.9103 153.01 80.2636 152.922C85.837 152.84 90.1724 149.957 90.1724 149.957L90.4658 153.043C90.4658 153.043 80.7858 157.088 69.158 152.852L69.2431 150.007Z" fill="#B2B2B2" stroke="#263238" stroke-width="0.293333" stroke-linejoin="round"/>
<path d="M46.1341 170.936C45.5474 171.209 44.1864 172.403 43.0922 172.64C41.9981 172.878 39.8098 172.64 39.4461 172.033C39.1205 171.49 40.6194 170.464 41.3938 169.557C41.4808 169.455 41.5611 169.347 41.6344 169.235C42.2416 168.261 42.6053 166.316 42.6053 166.316L40.2968 150.021L46.1341 150.872L45.8906 165.222C45.8906 165.222 46.932 167.076 47.2282 168.504C47.501 169.827 47.3426 170.39 46.1341 170.936Z" fill="white" stroke="#263238" stroke-width="0.293333" stroke-linejoin="round"/>
<path d="M46.1342 170.936C45.5475 171.209 44.1865 172.403 43.0923 172.64C41.9982 172.878 39.8099 172.64 39.4462 172.033C39.4254 172 39.4115 171.963 39.4051 171.924C39.3025 171.364 40.6753 170.408 41.3939 169.557L41.6873 169.851C41.6873 169.851 42.5878 168.466 42.8899 167.865C43.1921 167.263 43.4913 166.422 44.1513 165.811C44.8113 165.201 45.8878 165.204 45.8878 165.204C45.8878 165.204 46.9291 167.058 47.2254 168.487C47.2688 168.686 47.3011 168.888 47.3222 169.091C47.4161 170.024 47.1403 170.484 46.1342 170.936Z" fill="white" stroke="#263238" stroke-width="0.293333" stroke-linejoin="round"/>
<path d="M46.1341 170.936C45.5475 171.209 44.1864 172.403 43.0923 172.64C41.9981 172.878 39.8099 172.64 39.4461 172.033C39.4253 172 39.4114 171.963 39.4051 171.924C40.1611 172.326 41.0225 172.485 41.872 172.379C43.5528 172.136 43.7347 170.516 45.9581 169.446C46.3724 169.207 46.8475 169.094 47.3251 169.12C47.416 170.024 47.1403 170.484 46.1341 170.936Z" fill="white" stroke="#263238" stroke-width="0.293333" stroke-linejoin="round"/>
<path d="M49.622 170.936C50.2086 171.209 51.5697 172.403 52.6638 172.64C53.758 172.878 55.9492 172.64 56.3129 172.033C56.6356 171.49 55.1396 170.464 54.3652 169.557C54.2773 169.456 54.1969 169.348 54.1246 169.235C53.5174 168.261 53.1508 166.316 53.1508 166.316L55.4622 150.021L49.622 150.872L49.8654 165.222C49.8654 165.222 48.827 167.076 48.5278 168.504C48.255 169.827 48.4164 170.39 49.622 170.936Z" fill="white" stroke="#263238" stroke-width="0.293333" stroke-linejoin="round"/>
<path d="M49.622 170.936C50.2087 171.209 51.5698 172.403 52.6639 172.64C53.7581 172.878 55.9493 172.64 56.313 172.033C56.3338 172 56.3477 171.963 56.3541 171.924C56.4538 171.364 55.0839 170.408 54.3653 169.557L54.0719 169.851C54.0719 169.851 53.1714 168.466 52.8722 167.865C52.573 167.263 52.2679 166.422 51.6079 165.811C50.9479 165.201 49.8714 165.204 49.8714 165.204C49.8714 165.204 48.833 167.058 48.5338 168.487C48.4913 168.686 48.4599 168.888 48.4399 169.091C48.3402 170.024 48.6188 170.484 49.622 170.936Z" fill="white" stroke="#263238" stroke-width="0.293333" stroke-linejoin="round"/>
<path d="M49.622 170.936C50.2087 171.209 51.5698 172.403 52.6639 172.64C53.758 172.878 55.9492 172.64 56.313 172.033C56.3337 172 56.3477 171.963 56.354 171.925C55.5978 172.325 54.7366 172.484 53.8871 172.379C52.2063 172.136 52.0215 170.517 49.798 169.446C49.3847 169.207 48.9107 169.094 48.434 169.12C48.3402 170.024 48.6188 170.484 49.622 170.936Z" fill="white" stroke="#263238" stroke-width="0.293333" stroke-linejoin="round"/>
<path d="M41.872 121.192C41.872 121.192 38.352 122.683 38.2874 123.343C38.2229 124.003 35.973 132.662 35.8088 133.653C35.6445 134.645 34.7058 137.018 35.4216 138.009C36.1373 139.001 37.4074 139.664 38.2346 139.719C38.4488 139.751 38.6677 139.728 38.8701 139.651C39.0725 139.574 39.2517 139.446 39.3904 139.279L38.6834 144.131C38.6834 144.131 37.5805 147.548 37.8562 148.927C38.132 150.306 39.0706 151.684 44.3096 152.843C49.5485 154.002 52.5816 153.395 54.5117 152.512C56.4418 151.629 58.7562 150.526 58.9762 149.147C59.1962 147.768 58.3162 143.412 58.3162 143.412L57.8733 138.719C57.8733 138.719 60.5133 138.663 61.5136 137.393C62.5138 136.123 62.1736 134.859 61.7893 133.756C61.405 132.653 60.2464 128.628 59.8592 127.194C59.472 125.76 59.1962 123.278 58.7562 122.674C58.3162 122.069 53.8488 121.075 53.8488 121.075C53.8488 121.075 48.1024 118.934 41.872 121.192Z" fill="#065EA9" stroke="#263238" stroke-width="0.293333" stroke-linejoin="round"/>
<path d="M40.3526 130.793L41.0448 134.041" stroke="#263238" stroke-width="0.293333" stroke-linejoin="round"/>
<path d="M39.8334 128.362L40.0856 129.547" stroke="#263238" stroke-width="0.293333" stroke-linejoin="round"/>
<path d="M58.0847 128.746L57.2575 133.765" stroke="#263238" stroke-width="0.293333" stroke-linejoin="round"/>
<path d="M58.9646 149.147C59.1465 148.009 58.5774 144.832 58.3779 143.767C51.8131 145.609 42.5203 144.401 38.7246 143.767L38.6718 144.122C38.6718 144.122 37.5689 147.54 37.8446 148.918C38.1203 150.297 39.059 151.676 44.2979 152.834C49.5369 153.993 52.5699 153.386 54.5001 152.503C56.4302 151.62 58.7446 150.526 58.9646 149.147Z" fill="#263238" stroke="#263238" stroke-width="0.293333" stroke-linejoin="round"/>
<path d="M43.0543 110.321C43.0543 110.321 42.7609 109.339 42.2212 110.172C41.6815 111.005 42.2212 112.442 42.5996 112.897C42.9826 113.267 43.4223 113.573 43.902 113.803L44.4153 113.199L43.0543 110.321Z" fill="white" stroke="#263238" stroke-width="0.293333" stroke-linejoin="round"/>
<path d="M53.582 110.321C53.582 110.321 53.8754 109.339 54.4151 110.172C54.9548 111.005 54.4151 112.442 54.0367 112.897C53.6537 113.267 53.214 113.573 52.7343 113.803L52.218 113.199L53.582 110.321Z" fill="white" stroke="#263238" stroke-width="0.293333" stroke-linejoin="round"/>
<path d="M45.1368 115.61L43.1509 124.979C44.0857 125.922 45.2938 126.546 46.6035 126.763C49.3109 127.141 51.4317 126.666 53.4381 124.927C53.1096 121.97 52.1387 115.03 52.1387 115.03L53.1419 112.882C53.6894 111.74 53.9512 110.482 53.9045 109.216C53.8705 108.266 53.5971 107.341 53.1096 106.526C51.5109 103.886 48.1464 103.273 46.8235 104.044C45.5005 104.816 45.1691 105.804 45.1691 105.804C45.1691 105.804 43.1861 105.033 42.9104 107.564C42.6347 110.096 43.0541 112.51 43.9019 113.795L45.1368 115.61Z" fill="#263238" stroke="#263238" stroke-width="0.293333" stroke-linejoin="round"/>
<path d="M48.428 105.854C48.1832 105.859 47.9423 105.916 47.7209 106.021C47.4995 106.125 47.3027 106.275 47.1432 106.461C46.874 106.86 46.769 107.348 46.8499 107.822C47.2258 107.42 47.7409 107.177 48.2901 107.142C48.5241 107.138 48.7545 107.199 48.9552 107.319C49.1559 107.44 49.3188 107.614 49.4253 107.822C49.4253 107.822 50.0941 106.461 48.428 105.854Z" fill="white" stroke="#263238" stroke-width="0.293333" stroke-linejoin="round"/>
<path d="M37.7713 131.615L38.2318 145.032C38.2318 145.032 48.7566 147.402 58.5569 145.032L59.3459 131.811C59.3459 131.811 41.6521 132.477 37.7713 131.615Z" fill="#B2B2B2" stroke="#263238" stroke-width="0.293333" stroke-linejoin="round"/>
<path d="M38.2318 145.032L36.3897 173.303" stroke="#263238" stroke-width="0.88" stroke-linecap="round" stroke-linejoin="round"/>
<path d="M58.5011 145.032L60.3432 173.303" stroke="#263238" stroke-width="0.88" stroke-linecap="round" stroke-linejoin="round"/>
<path d="M37.8504 150.007C37.8504 150.007 43.5176 153.002 48.8709 152.922C54.4443 152.84 58.7827 149.957 58.7827 149.957L59.076 153.043C59.076 153.043 49.396 157.088 37.7654 152.852L37.8504 150.007Z" fill="#B2B2B2" stroke="#263238" stroke-width="0.293333" stroke-linejoin="round"/>
<path d="M124.63 61.9919H116.822C116.305 61.9919 115.81 62.1971 115.445 62.5624C115.079 62.9277 114.874 63.4231 114.874 63.9397V69.1493C114.874 69.6658 115.079 70.1613 115.445 70.5265C115.81 70.8918 116.305 71.097 116.822 71.097H117.825L116.531 73.6813L120.051 71.097H124.63C125.147 71.097 125.642 70.8918 126.008 70.5265C126.373 70.1613 126.578 69.6658 126.578 69.1493V63.9397C126.578 63.4231 126.373 62.9277 126.008 62.5624C125.642 62.1971 125.147 61.9919 124.63 61.9919Z" fill="white" stroke="#263238" stroke-width="0.293333" stroke-linejoin="round"/>
<path d="M118.239 67.1136C118.553 67.1136 118.808 66.8588 118.808 66.5445C118.808 66.2302 118.553 65.9755 118.239 65.9755C117.924 65.9755 117.669 66.2302 117.669 66.5445C117.669 66.8588 117.924 67.1136 118.239 67.1136Z" fill="#263238" stroke="#263238" stroke-width="0.293333" stroke-linejoin="round"/>
<path d="M120.72 67.1136C121.035 67.1136 121.289 66.8588 121.289 66.5445C121.289 66.2302 121.035 65.9755 120.72 65.9755C120.406 65.9755 120.151 66.2302 120.151 66.5445C120.151 66.8588 120.406 67.1136 120.72 67.1136Z" fill="#263238" stroke="#263238" stroke-width="0.293333" stroke-linejoin="round"/>
<path d="M123.205 67.1136C123.519 67.1136 123.774 66.8588 123.774 66.5445C123.774 66.2302 123.519 65.9755 123.205 65.9755C122.89 65.9755 122.636 66.2302 122.636 66.5445C122.636 66.8588 122.89 67.1136 123.205 67.1136Z" fill="#263238" stroke="#263238" stroke-width="0.293333" stroke-linejoin="round"/>
</svg>
