<svg width="445" height="359" viewBox="0 0 445 359" fill="none" xmlns="http://www.w3.org/2000/svg">
<path d="M400.81 135.857C392.759 105.017 379.326 76.2671 365.361 56.5469C331.675 9.17338 253.37 -11.7108 199.308 8.14499C153.207 25.0964 137.117 76.2218 96.8049 100.722C59.7499 123.256 26.1323 141.632 13.1286 184.587C-14.2472 275.344 93.9893 347.693 174.828 324.718C200.349 317.463 221.935 302.173 249.164 302.116C304.39 301.924 323.851 309.496 368.538 279.673C412.627 250.211 414.911 189.853 400.81 135.857Z" fill="#065EA9"/>
<path opacity="0.9" d="M400.81 135.857C392.759 105.017 379.326 76.2671 365.361 56.5469C331.675 9.17338 253.37 -11.7108 199.308 8.14499C153.207 25.0964 137.117 76.2218 96.8049 100.722C59.7499 123.256 26.1323 141.632 13.1286 184.587C-14.2472 275.344 93.9893 347.693 174.828 324.718C200.349 317.463 221.935 302.173 249.164 302.116C304.39 301.924 323.851 309.496 368.538 279.673C412.627 250.211 414.911 189.853 400.81 135.857Z" fill="white"/>
<path d="M437.322 334.098C432.867 334.098 432.867 339.048 428.4 339.048C423.934 339.048 423.945 334.098 419.49 334.098C415.035 334.098 414.967 339.048 410.568 339.048C406.17 339.048 406.102 334.098 401.647 334.098C397.191 334.098 397.191 339.048 392.725 339.048C388.258 339.048 388.27 334.098 383.803 334.098C379.337 334.098 379.348 339.048 374.893 339.048C370.438 339.048 370.426 334.098 365.971 334.098C361.516 334.098 361.516 339.048 357.049 339.048C352.583 339.048 352.594 334.098 348.139 334.098C343.684 334.098 343.672 339.048 339.217 339.048C334.762 339.048 334.762 334.098 330.307 334.098C325.852 334.098 325.784 339.048 321.385 339.048C316.986 339.048 316.93 334.098 312.475 334.098C308.02 334.098 308.02 339.048 303.553 339.048C299.086 339.048 299.098 334.098 294.643 334.098C290.187 334.098 290.187 339.048 285.732 339.048C281.277 339.048 281.266 334.098 276.81 334.098C272.355 334.098 272.355 339.048 267.9 339.048C263.445 339.048 263.445 334.098 258.99 334.098C254.534 334.098 254.534 339.048 250.068 339.048C245.601 339.048 245.613 334.098 241.158 334.098C236.702 334.098 236.702 339.048 232.236 339.048C227.769 339.048 227.781 334.098 223.325 334.098C218.87 334.098 218.802 339.048 214.404 339.048C210.005 339.048 209.949 334.098 205.493 334.098C201.038 334.098 201.027 339.048 196.572 339.048C192.116 339.048 192.116 334.098 187.661 334.098C183.206 334.098 183.195 339.048 178.74 339.048C174.284 339.048 174.284 334.098 169.829 334.098C165.374 334.098 165.385 339.048 160.862 339.048C156.339 339.048 156.407 334.098 151.952 334.098C147.497 334.098 147.497 339.048 143.041 339.048C138.586 339.048 138.575 334.098 134.12 334.098C129.664 334.098 129.664 339.048 125.209 339.048C120.754 339.048 120.743 334.098 116.288 334.098C111.832 334.098 111.832 339.048 107.377 339.048C102.922 339.048 102.922 334.098 98.4554 334.098C93.9889 334.098 94.0002 339.048 89.545 339.048C85.0898 339.048 85.0898 334.098 80.6346 334.098C76.1794 334.098 76.1794 339.048 71.7129 339.048C67.2464 339.048 67.2577 334.098 62.8025 334.098C58.3473 334.098 58.3473 339.048 53.8921 339.048C49.4369 339.048 49.4369 334.098 44.9704 334.098C40.5039 334.098 40.5152 339.048 36.06 339.048C31.6048 339.048 31.6048 334.098 27.1496 334.098C22.6944 334.098 22.6944 339.048 18.2279 339.048C13.7614 339.048 13.8631 334.098 9.34009 334.098C4.81704 334.098 4.88489 339.048 0.429686 339.048H0V355.547H445V338.878C441.755 338.031 441.291 334.098 437.322 334.098Z" fill="#065EA9"/>
<path d="M97.9912 352.394V306.727" stroke="#263238" stroke-width="1.87068" stroke-miterlimit="10"/>
<path d="M76.9033 308.84L97.992 324.3" stroke="#263238" stroke-width="1.87068" stroke-miterlimit="10"/>
<path d="M97.9912 339.748L121.896 308.139" stroke="#263238" stroke-width="1.87068" stroke-miterlimit="10"/>
<path d="M162.343 310.196V295.641C162.345 287.593 160.76 279.624 157.68 272.189C154.599 264.753 150.083 257.997 144.39 252.306C138.697 246.615 131.938 242.101 124.498 239.021C117.059 235.941 109.086 234.356 101.034 234.356C92.9813 234.356 85.0078 235.941 77.5686 239.021C70.1294 242.101 63.3702 246.615 57.6769 252.306C51.9836 257.997 47.4678 264.753 44.3873 272.189C41.3069 279.624 39.7221 287.593 39.7236 295.641V310.196H162.343Z" fill="#065EA9"/>
<path opacity="0.5" d="M162.343 310.196V295.641C162.345 287.593 160.76 279.624 157.68 272.189C154.599 264.753 150.083 257.997 144.39 252.306C138.697 246.615 131.938 242.101 124.498 239.021C117.059 235.941 109.086 234.356 101.034 234.356C92.9813 234.356 85.0078 235.941 77.5686 239.021C70.1294 242.101 63.3702 246.615 57.6769 252.306C51.9836 257.997 47.4678 264.753 44.3873 272.189C41.3069 279.624 39.7221 287.593 39.7236 295.641V310.196H162.343Z" fill="white"/>
<path opacity="0.1" d="M39.7233 310.197H162.343V295.641C162.344 286.781 160.415 278.027 156.689 269.988L156.35 270.304C155.699 268.895 154.661 267.7 153.355 266.858C152.05 266.017 150.533 265.563 148.979 265.552C147.426 265.54 145.902 265.97 144.584 266.791C143.266 267.613 142.209 268.792 141.537 270.191C140.756 269.611 139.808 269.298 138.835 269.298C137.881 269.281 136.947 269.577 136.177 270.14C135.407 270.703 134.843 271.503 134.572 272.418C134.153 271.818 133.594 271.328 132.944 270.992C132.294 270.655 131.572 270.481 130.84 270.485C129.819 270.482 128.826 270.825 128.024 271.457C127.765 270.569 127.238 269.783 126.517 269.204C125.796 268.624 124.914 268.28 123.991 268.217C123.068 268.154 122.147 268.376 121.354 268.852C120.561 269.328 119.933 270.036 119.555 270.881C118.791 270.362 117.889 270.086 116.966 270.09C115.851 270.08 114.771 270.483 113.935 271.22C113.312 269.818 112.307 268.621 111.035 267.763C109.762 266.906 108.274 266.424 106.741 266.372C105.208 266.32 103.69 266.701 102.363 267.47C101.036 268.239 99.9518 269.366 99.2353 270.722C98.8118 270.151 98.2593 269.687 97.6227 269.369C96.9861 269.051 96.2834 268.887 95.5716 268.892C94.6128 268.873 93.6746 269.171 92.902 269.739C92.1294 270.307 91.5655 271.113 91.2973 272.033C90.9674 271.21 90.3949 270.507 89.6557 270.016C88.9166 269.526 88.0458 269.272 87.1588 269.287C86.5148 269.291 85.8791 269.432 85.2941 269.701C84.7091 269.97 84.1882 270.36 83.7665 270.847C83.4007 270.027 82.7992 269.335 82.0386 268.859C81.278 268.382 80.3927 268.142 79.4954 268.17C78.5981 268.198 77.7293 268.492 76.9998 269.015C76.2703 269.538 75.713 270.266 75.3988 271.107C74.5623 270.274 73.5576 269.63 72.4519 269.217C71.3462 268.805 70.165 268.633 68.9874 268.713C67.8098 268.793 66.6629 269.124 65.6235 269.683C64.5841 270.242 63.6762 271.016 62.9604 271.954C62.7567 270.961 62.2104 270.07 61.4168 269.438C60.6232 268.806 59.6328 268.473 58.6183 268.496C57.7378 268.483 56.8736 268.735 56.1378 269.219C55.4019 269.702 54.8283 270.395 54.491 271.208C54.0573 270.775 53.54 270.434 52.9704 270.207C52.4009 269.98 51.791 269.871 51.1779 269.886C50.7443 269.89 50.3136 269.959 49.9002 270.09C49.261 268.715 48.2305 267.559 46.9376 266.767C42.1788 275.647 39.6963 285.567 39.712 295.641L39.7233 310.197Z" fill="#263238"/>
<path opacity="0.1" d="M162.343 295.64C162.346 291.592 161.949 287.553 161.156 283.582C160.59 283.501 160.02 283.459 159.448 283.458C155.378 283.458 151.906 285.379 150.402 288.103C149.403 287.511 148.262 287.202 147.101 287.21C146.019 287.137 144.941 287.397 144.011 287.955C143.081 288.512 142.344 289.341 141.899 290.329C141.331 289.698 140.632 289.198 139.851 288.864C139.07 288.53 138.225 288.371 137.376 288.397C136.176 288.393 134.999 288.73 133.984 289.368C133.497 287.47 131.315 285.978 128.703 285.978C127.686 285.923 126.674 286.153 125.781 286.642C124.887 287.131 124.149 287.86 123.649 288.747C122.685 288.22 121.603 287.948 120.505 287.956C119.184 287.936 117.891 288.331 116.807 289.086C115.428 286.227 111.877 284.193 107.682 284.193C103.747 284.193 100.355 286.001 98.8283 288.589C98.2533 287.988 97.5586 287.515 96.7893 287.2C96.02 286.885 95.193 286.734 94.3618 286.758C93.2756 286.685 92.1931 286.947 91.2608 287.509C90.3285 288.071 89.5913 288.905 89.149 289.9C88.6455 289.02 87.9073 288.297 87.0168 287.812C86.1263 287.327 85.1185 287.099 84.1058 287.153C82.5642 287.127 81.0696 287.684 79.922 288.713C79.4117 287.855 78.6762 287.153 77.7952 286.683C76.9142 286.213 75.9213 285.992 74.924 286.046C73.8617 285.979 72.8036 286.23 71.885 286.768C70.9664 287.305 70.2292 288.105 69.7678 289.063C67.7397 287.451 65.2125 286.596 62.6214 286.645C61.1306 286.602 59.6471 286.869 58.2651 287.429C56.883 287.99 55.6326 288.831 54.5929 289.9C54.1633 287.944 51.9696 286.441 49.301 286.441C48.2912 286.389 47.2864 286.615 46.3968 287.096C45.5072 287.576 44.7672 288.292 44.2578 289.165C43.143 288.272 41.7512 287.796 40.3227 287.82C39.9909 290.418 39.8247 293.033 39.8252 295.652V310.207H162.343V295.64Z" fill="#263238"/>
<path d="M346.353 352.394V306.727" stroke="#263238" stroke-width="1.87068" stroke-miterlimit="10"/>
<path d="M325.264 308.84L346.352 324.3" stroke="#263238" stroke-width="1.87068" stroke-miterlimit="10"/>
<path d="M346.353 339.748L370.257 308.139" stroke="#263238" stroke-width="1.87068" stroke-miterlimit="10"/>
<path d="M410.76 310.196V295.641C410.762 287.593 409.177 279.624 406.097 272.189C403.016 264.753 398.5 257.997 392.807 252.306C387.114 246.615 380.355 242.101 372.915 239.021C365.476 235.941 357.503 234.356 349.451 234.356C341.398 234.356 333.425 235.941 325.986 239.021C318.546 242.101 311.787 246.615 306.094 252.306C300.401 257.997 295.885 264.753 292.804 272.189C289.724 279.624 288.139 287.593 288.141 295.641V310.196H410.76Z" fill="#065EA9"/>
<path opacity="0.5" d="M410.76 310.196V295.641C410.762 287.593 409.177 279.624 406.097 272.189C403.016 264.753 398.5 257.997 392.807 252.306C387.114 246.615 380.355 242.101 372.915 239.021C365.476 235.941 357.503 234.356 349.451 234.356C341.398 234.356 333.425 235.941 325.986 239.021C318.546 242.101 311.787 246.615 306.094 252.306C300.401 257.997 295.885 264.753 292.804 272.189C289.724 279.624 288.139 287.593 288.141 295.641V310.196H410.76Z" fill="white"/>
<path opacity="0.1" d="M288.084 310.197H410.76V295.641C410.761 286.781 408.832 278.027 405.106 269.988L404.767 270.304C404.116 268.895 403.078 267.7 401.773 266.858C400.467 266.017 398.95 265.563 397.397 265.552C395.844 265.54 394.319 265.97 393.001 266.791C391.683 267.613 390.627 268.792 389.954 270.191C389.173 269.611 388.225 269.298 387.252 269.298C386.298 269.281 385.364 269.577 384.594 270.14C383.825 270.703 383.261 271.503 382.989 272.418C382.57 271.818 382.011 271.328 381.361 270.992C380.711 270.655 379.989 270.481 379.257 270.485C378.236 270.482 377.243 270.825 376.442 271.457C376.182 270.569 375.656 269.783 374.934 269.204C374.213 268.624 373.331 268.28 372.408 268.217C371.485 268.154 370.565 268.376 369.771 268.852C368.978 269.328 368.35 270.036 367.972 270.881C367.209 270.362 366.306 270.086 365.383 270.09C364.268 270.08 363.189 270.483 362.352 271.22C361.729 269.818 360.724 268.621 359.452 267.763C358.18 266.906 356.692 266.424 355.158 266.372C353.625 266.32 352.108 266.701 350.78 267.47C349.453 268.239 348.369 269.366 347.653 270.722C347.229 270.151 346.677 269.687 346.04 269.369C345.403 269.051 344.701 268.887 343.989 268.892C343.03 268.873 342.092 269.171 341.319 269.739C340.547 270.307 339.983 271.113 339.715 272.033C339.385 271.21 338.812 270.507 338.073 270.016C337.334 269.526 336.463 269.272 335.576 269.287C334.932 269.291 334.296 269.432 333.711 269.701C333.126 269.97 332.605 270.36 332.184 270.847C331.818 270.027 331.216 269.335 330.456 268.859C329.695 268.382 328.81 268.142 327.913 268.17C327.015 268.198 326.147 268.492 325.417 269.015C324.688 269.538 324.13 270.266 323.816 271.107C322.98 270.274 321.975 269.63 320.869 269.217C319.763 268.805 318.582 268.633 317.405 268.713C316.227 268.793 315.08 269.124 314.041 269.683C313.001 270.242 312.093 271.016 311.378 271.954C311.174 270.961 310.628 270.07 309.834 269.438C309.04 268.806 308.05 268.473 307.036 268.496C306.155 268.483 305.291 268.735 304.555 269.219C303.819 269.702 303.245 270.395 302.908 271.208C302.485 270.783 301.981 270.445 301.426 270.216C300.87 269.987 300.275 269.871 299.674 269.875C299.241 269.879 298.81 269.948 298.397 270.078C297.757 268.701 296.721 267.544 295.423 266.756C290.67 275.638 288.192 285.558 288.208 295.63L288.084 310.197Z" fill="#263238"/>
<path opacity="0.1" d="M410.761 295.64C410.764 291.592 410.366 287.553 409.573 283.582C409.008 283.501 408.437 283.459 407.866 283.458C403.795 283.458 400.324 285.379 398.82 288.103C397.821 287.511 396.679 287.202 395.518 287.21C394.436 287.137 393.358 287.397 392.428 287.955C391.498 288.512 390.762 289.341 390.316 290.329C389.748 289.698 389.049 289.198 388.268 288.864C387.487 288.53 386.642 288.371 385.793 288.397C384.593 288.393 383.417 288.73 382.401 289.368C381.915 287.47 379.732 285.978 377.12 285.978C376.103 285.923 375.091 286.153 374.198 286.642C373.305 287.131 372.566 287.86 372.066 288.747C371.103 288.22 370.021 287.948 368.922 287.956C367.602 287.936 366.308 288.331 365.225 289.086C363.845 286.227 360.295 284.193 356.1 284.193C352.164 284.193 348.772 286.001 347.246 288.589C346.671 287.988 345.976 287.515 345.207 287.2C344.437 286.885 343.61 286.734 342.779 286.758C341.693 286.685 340.61 286.947 339.678 287.509C338.746 288.071 338.009 288.905 337.566 289.9C337.063 289.02 336.325 288.297 335.434 287.812C334.544 287.327 333.536 287.099 332.523 287.153C330.982 287.127 329.487 287.684 328.339 288.713C327.836 287.833 327.098 287.111 326.207 286.626C325.317 286.141 324.309 285.913 323.296 285.967C322.234 285.9 321.176 286.151 320.257 286.689C319.339 287.226 318.601 288.026 318.14 288.984C316.112 287.372 313.585 286.516 310.993 286.566C309.503 286.523 308.019 286.79 306.637 287.35C305.255 287.911 304.005 288.752 302.965 289.82C302.535 287.865 300.342 286.362 297.673 286.362C296.663 286.31 295.659 286.536 294.769 287.017C293.879 287.497 293.139 288.213 292.63 289.086C291.515 288.193 290.123 287.717 288.695 287.741C288.363 290.338 288.197 292.954 288.197 295.573V310.128H410.761V295.64Z" fill="#263238"/>
<path d="M316.127 39.2452C311.604 36.8042 309.614 38.8383 307.986 36.8042C306.357 34.77 312.509 29.4699 300.251 24.181C300.251 24.181 299.437 12.7897 282.747 12.3828C266.057 11.976 270.546 23.7742 266.023 26.622C261.5 29.4699 260.369 24.9947 255.846 27.8425C251.323 30.6904 253.404 36.3973 249.74 37.211C246.076 38.0247 241.191 33.5495 236.714 36.3973C232.236 39.2452 232.191 41.6862 230.189 41.6862C228.188 41.6862 224.083 40.0588 221.641 41.6862C219.198 43.3135 216.349 45.3477 216.349 45.3477H319.361C319.361 45.3477 320.605 41.6862 316.127 39.2452Z" fill="white"/>
<path d="M381.361 142.807C378.263 141.123 376.838 142.536 375.707 141.123C374.576 139.71 378.794 136.06 370.359 132.41C370.359 132.41 369.793 124.499 358.26 124.262C346.726 124.025 349.824 132.173 346.737 134.094C343.65 136.015 342.791 132.964 339.704 134.941C336.617 136.919 338.019 140.84 335.486 141.405C332.953 141.97 329.572 138.874 326.44 140.84C323.308 142.807 323.342 144.502 321.917 144.502C320.492 144.502 317.699 143.372 316.003 144.502C314.307 145.632 312.351 147.033 312.351 147.033H383.623C383.623 147.033 384.493 144.502 381.361 142.807Z" fill="white"/>
<path d="M338.833 126.872C336.888 125.821 336.006 126.703 335.305 125.821C334.604 124.94 337.25 122.635 331.912 120.34C331.912 120.34 331.55 115.391 324.302 115.221C317.054 115.052 318.999 120.16 317.054 121.403C315.109 122.646 314.589 120.691 312.644 121.934C310.699 123.177 311.581 125.641 309.987 125.991C308.392 126.341 306.278 124.409 304.333 125.641C302.388 126.872 302.388 127.901 301.506 127.901C300.624 127.901 298.849 127.2 297.786 127.901C296.723 128.601 295.524 129.494 295.524 129.494H340.246C340.368 128.96 340.292 128.4 340.032 127.918C339.772 127.436 339.346 127.064 338.833 126.872Z" fill="white"/>
<path d="M179.95 166.256C172.995 162.471 169.84 165.624 167.308 162.471C164.775 159.318 174.262 151.102 155.299 142.886C155.299 142.886 154.032 125.189 128.161 124.567C102.289 123.946 109.198 142.253 102.244 146.672C95.2894 151.091 93.3897 144.152 86.4129 148.57C79.4361 152.989 82.6249 161.838 76.9371 163.103C71.2494 164.369 63.662 157.453 56.7078 161.838C49.7536 166.222 49.7536 170.054 46.5309 170.054C43.3083 170.054 37.0552 167.522 33.2558 170.054C29.4564 172.585 25.0352 175.704 25.0352 175.704H185.015C185.015 175.704 186.87 170.054 179.95 166.256Z" fill="white"/>
<path d="M191.393 260.811C191.393 260.811 191.879 274.858 195.271 283.741C198.663 292.623 213.205 317.813 216.756 324.108C220.306 330.402 221.279 332.176 221.279 332.176C218.457 335.648 215.816 339.262 213.363 343.003C210.943 347.037 206.579 349.139 207.551 350.755C208.524 352.371 209.654 352.202 214.822 350.913C219.99 349.625 221.607 346.709 225.813 343.319C230.019 339.929 233.4 339.771 233.559 337.183C233.717 334.595 228.391 329.758 227.26 326.684C226.13 323.61 219.673 310.061 215.953 295.358C212.233 280.655 208.682 275.988 208.524 274.214C208.365 272.44 209.971 261.286 209.971 261.286L191.393 260.811Z" fill="white"/>
<mask id="mask0_222_3625" style="mask-type:luminance" maskUnits="userSpaceOnUse" x="191" y="260" width="43" height="92">
<path d="M191.393 260.811C191.393 260.811 191.879 274.858 195.271 283.741C198.663 292.623 213.205 317.813 216.756 324.108C220.306 330.402 221.279 332.176 221.279 332.176C218.457 335.648 215.816 339.262 213.363 343.003C210.943 347.037 206.579 349.139 207.551 350.755C208.524 352.371 209.654 352.202 214.822 350.913C219.99 349.625 221.607 346.709 225.813 343.319C230.019 339.929 233.4 339.771 233.559 337.183C233.717 334.595 228.391 329.758 227.26 326.684C226.13 323.61 219.673 310.061 215.953 295.358C212.233 280.655 208.682 275.988 208.524 274.214C208.365 272.44 209.971 261.286 209.971 261.286L191.393 260.811Z" fill="white"/>
</mask>
<g mask="url(#mask0_222_3625)">
<path d="M233.491 336.753C233.129 334.098 228.289 329.6 227.215 326.684C226.141 323.769 219.628 310.061 215.907 295.358C212.187 280.655 208.637 275.988 208.478 274.214C208.32 272.44 209.926 261.286 209.926 261.286L191.393 260.811C191.393 260.811 191.562 265.851 192.433 271.807C193.473 271.965 194.694 272.101 196.153 272.191C199.307 272.436 202.479 272.087 205.504 271.163C205.504 271.163 204.464 275.31 207.924 286.035C211.384 296.759 222.466 322.718 224.886 327.215C226.163 329.668 230.132 333.634 233.491 336.753Z" fill="#065EA9"/>
<path opacity="0.5" d="M233.491 336.753C233.129 334.098 228.289 329.6 227.215 326.684C226.141 323.769 219.628 310.061 215.907 295.358C212.187 280.655 208.637 275.988 208.478 274.214C208.32 272.44 209.926 261.286 209.926 261.286L191.393 260.811C191.393 260.811 191.562 265.851 192.433 271.807C193.473 271.965 194.694 272.101 196.153 272.191C199.307 272.436 202.479 272.087 205.504 271.163C205.504 271.163 204.464 275.31 207.924 286.035C211.384 296.759 222.466 322.718 224.886 327.215C226.163 329.668 230.132 333.634 233.491 336.753Z" fill="white"/>
</g>
<path d="M191.393 260.811C191.393 260.811 191.879 274.858 195.271 283.741C198.663 292.623 213.205 317.813 216.756 324.108C220.306 330.402 221.279 332.176 221.279 332.176C218.457 335.648 215.816 339.262 213.363 343.003C210.943 347.037 206.579 349.139 207.551 350.755C208.524 352.371 209.654 352.202 214.822 350.913C219.99 349.625 221.607 346.709 225.813 343.319C230.019 339.929 233.4 339.771 233.559 337.183C233.717 334.595 228.391 329.758 227.26 326.684C226.13 323.61 219.673 310.061 215.953 295.358C212.233 280.655 208.682 275.988 208.524 274.214C208.365 272.44 209.971 261.286 209.971 261.286L191.393 260.811Z" stroke="#263238" stroke-width="0.847571" stroke-linecap="round" stroke-linejoin="round"/>
<path d="M233.514 337.183C233.604 335.849 232.213 333.906 230.698 331.917L223.179 338.483C223.179 338.483 222.364 336.222 221.403 334.12C221.239 333.665 220.939 333.271 220.544 332.99C217.963 336.181 215.552 339.504 213.318 342.946C210.898 346.981 206.534 349.083 207.506 350.699C208.479 352.315 209.609 352.145 214.777 350.857C219.945 349.569 221.562 346.653 225.768 343.263C229.974 339.873 233.355 339.771 233.514 337.183Z" fill="#263238" stroke="#263238" stroke-width="0.847571" stroke-linecap="round" stroke-linejoin="round"/>
<path d="M228.347 259.353C230.08 264.645 232.583 269.652 235.776 274.214C241.43 282.611 263.728 306.185 265.831 309.247C267.935 312.31 271.655 325.238 273.102 329.758C274.55 334.279 279.084 332.504 280.701 326.684C282.318 320.864 273.272 307.959 271.485 305.371C269.699 302.783 260.178 291.166 254.366 276.949C248.553 262.732 245.15 254.675 245.15 254.675C245.15 254.675 230.608 257.579 228.347 259.353Z" fill="white"/>
<mask id="mask1_222_3625" style="mask-type:luminance" maskUnits="userSpaceOnUse" x="228" y="254" width="53" height="79">
<path d="M228.347 259.353C230.08 264.645 232.583 269.652 235.776 274.214C241.43 282.611 263.728 306.185 265.831 309.247C267.935 312.31 271.655 325.238 273.102 329.758C274.55 334.279 279.084 332.504 280.701 326.684C282.318 320.864 273.272 307.959 271.485 305.371C269.699 302.783 260.178 291.166 254.366 276.949C248.553 262.732 245.15 254.675 245.15 254.675C245.15 254.675 230.608 257.579 228.347 259.353Z" fill="white"/>
</mask>
<g mask="url(#mask1_222_3625)">
<path d="M271.485 305.371C269.71 302.794 260.178 291.166 254.366 276.949C248.553 262.732 245.15 254.675 245.15 254.675C245.15 254.675 230.608 257.579 228.347 259.353C229.379 262.596 230.744 265.724 232.417 268.688C236.246 268.37 240.001 267.451 243.544 265.964C243.544 265.964 251.855 284.656 257.746 292.962C260.867 297.37 267.618 303.348 273.261 307.981C272.48 306.806 271.836 305.879 271.485 305.371Z" fill="#065EA9"/>
<path opacity="0.5" d="M271.485 305.371C269.71 302.794 260.178 291.166 254.366 276.949C248.553 262.732 245.15 254.675 245.15 254.675C245.15 254.675 230.608 257.579 228.347 259.353C229.379 262.596 230.744 265.724 232.417 268.688C236.246 268.37 240.001 267.451 243.544 265.964C243.544 265.964 251.855 284.656 257.746 292.962C260.867 297.37 267.618 303.348 273.261 307.981C272.48 306.806 271.836 305.879 271.485 305.371Z" fill="white"/>
</g>
<path d="M228.347 259.353C230.08 264.645 232.583 269.652 235.776 274.214C241.43 282.611 263.728 306.185 265.831 309.247C267.935 312.31 271.655 325.238 273.102 329.758C274.55 334.279 279.084 332.504 280.701 326.684C282.318 320.864 273.272 307.959 271.485 305.371C269.699 302.783 260.178 291.166 254.366 276.949C248.553 262.732 245.15 254.675 245.15 254.675C245.15 254.675 230.608 257.579 228.347 259.353Z" stroke="#263238" stroke-width="0.847571" stroke-linecap="round" stroke-linejoin="round"/>
<path d="M273.102 329.759C274.561 334.279 279.084 332.505 280.701 326.685C282.318 320.865 273.272 307.959 271.485 305.371L271.01 304.704C271.802 306.818 272.616 308.931 272.616 308.931C272.127 308.42 271.503 308.058 270.817 307.886C270.131 307.714 269.41 307.739 268.737 307.959C266.159 308.603 267.448 312.479 267.448 312.479V312.581C269.484 317.689 271.971 326.244 273.102 329.759Z" fill="#263238" stroke="#263238" stroke-width="0.847571" stroke-linecap="round" stroke-linejoin="round"/>
<path d="M164.255 226.479C164.255 226.479 166.765 220.761 176.105 219.088C185.445 217.416 197.228 226.999 202.022 228.705C206.817 230.412 209.485 199.56 204.702 170.585C199.919 141.609 193.202 139.473 183.139 152.876C173.075 166.279 165.227 218.342 164.255 226.479Z" fill="#263238" stroke="#263238" stroke-width="0.847571" stroke-linecap="round" stroke-linejoin="round"/>
<path d="M294.292 143.089C280.565 116.6 270.377 113.051 262.145 106.926C253.913 100.801 253.415 100.632 246.472 95.6254C239.529 90.6191 225.768 84.7878 220.793 83.4995C219.4 83.1012 217.93 83.0591 216.518 83.377C215.105 83.695 213.795 84.3627 212.708 85.3189C212.708 85.3189 205.595 87.5791 196.877 96.4164C188.159 105.254 195.577 112.724 195.577 112.724C195.577 112.724 193.315 122.578 204.792 133.879C216.27 145.18 222.885 178.134 261.33 180.066C299.776 181.998 308.008 169.567 294.292 143.089ZM198.969 105.141C196.255 108.927 196.232 110.678 196.515 111.424C196.62 111.598 196.737 111.764 196.866 111.921C196.697 111.798 196.574 111.624 196.515 111.424C195.939 110.403 195.573 109.277 195.439 108.113C195.305 106.948 195.406 105.769 195.735 104.644C196.866 99.9649 205.753 95.4446 205.753 95.4446C205.753 95.4446 202.983 99.4903 198.946 105.141H198.969Z" fill="#263238"/>
<path d="M196.515 111.424C196.232 110.678 196.255 108.927 198.969 105.141H198.946C202.983 99.4903 205.753 95.4446 205.753 95.4446C205.753 95.4446 196.866 99.9649 195.735 104.644C195.406 105.769 195.305 106.948 195.439 108.113C195.573 109.277 195.939 110.403 196.515 111.424ZM196.515 111.424C196.62 111.598 196.737 111.764 196.866 111.921C196.697 111.798 196.574 111.624 196.515 111.424ZM294.292 143.089C280.565 116.6 270.376 113.051 262.145 106.926C253.913 100.801 253.415 100.632 246.472 95.6254C239.529 90.6191 225.768 84.7878 220.793 83.4995C219.4 83.1012 217.93 83.0591 216.518 83.377C215.105 83.695 213.795 84.3627 212.708 85.3189C212.708 85.3189 205.595 87.5791 196.877 96.4164C188.159 105.254 195.577 112.724 195.577 112.724C195.577 112.724 193.315 122.578 204.792 133.879C216.27 145.18 222.885 178.134 261.33 180.066C299.776 181.998 308.008 169.567 294.292 143.089Z" stroke="#263238" stroke-width="0.847571" stroke-linecap="round" stroke-linejoin="round"/>
<path d="M212.878 126.454C210.859 126.48 208.848 126.21 206.908 125.652C203.187 124.68 200.123 125.652 196.075 130.33C192.027 135.009 187.187 147.61 187.187 156.978C187.187 166.347 193.01 177.32 193.01 177.32C193.01 177.32 186.542 186.53 183.964 203.967C181.386 221.405 185.253 263.546 185.253 263.546C185.253 263.546 202.384 267.592 219.99 264.676C230.897 262.82 241.532 259.62 251.652 255.149C251.652 255.149 252.296 236.266 244.211 211.392C240.031 198.128 235.178 185.085 229.67 172.313C229.67 172.313 233.876 155.678 234.034 144.378C234.193 133.077 230.156 129.359 227.092 127.912C224.027 126.466 212.878 126.454 212.878 126.454Z" fill="#263238"/>
<mask id="mask2_222_3625" style="mask-type:luminance" maskUnits="userSpaceOnUse" x="183" y="125" width="69" height="141">
<path d="M212.878 126.454C210.859 126.48 208.848 126.21 206.908 125.652C203.187 124.68 200.123 125.652 196.075 130.33C192.027 135.009 187.187 147.61 187.187 156.978C187.187 166.347 193.01 177.32 193.01 177.32C193.01 177.32 186.542 186.53 183.964 203.967C181.386 221.405 185.253 263.546 185.253 263.546C185.253 263.546 202.384 267.592 219.99 264.676C230.897 262.82 241.532 259.62 251.652 255.149C251.652 255.149 252.296 236.266 244.211 211.392C240.031 198.128 235.178 185.085 229.67 172.313C229.67 172.313 233.876 155.678 234.034 144.378C234.193 133.077 230.156 129.359 227.092 127.912C224.027 126.466 212.878 126.454 212.878 126.454Z" fill="white"/>
</mask>
<g mask="url(#mask2_222_3625)">
<path opacity="0.3" d="M212.878 126.454C210.859 126.48 208.848 126.21 206.908 125.652C203.187 124.68 200.123 125.652 196.075 130.33C192.027 135.009 187.187 147.61 187.187 156.978C187.187 166.347 193.01 177.32 193.01 177.32C193.01 177.32 186.542 186.53 183.964 203.967C181.386 221.405 185.253 263.546 185.253 263.546C185.253 263.546 202.384 267.592 219.99 264.676C230.897 262.82 241.532 259.62 251.652 255.149C251.652 255.149 252.296 236.266 244.211 211.392C240.031 198.128 235.178 185.085 229.67 172.313C229.67 172.313 233.876 155.678 234.034 144.378C234.193 133.077 230.156 129.359 227.092 127.912C224.027 126.466 212.878 126.454 212.878 126.454Z" fill="white" stroke="#263238" stroke-width="0.847571" stroke-linecap="round" stroke-linejoin="round"/>
</g>
<path d="M212.878 126.454C210.859 126.48 208.848 126.21 206.908 125.652C203.187 124.68 200.123 125.652 196.075 130.33C192.027 135.009 187.187 147.61 187.187 156.978C187.187 166.347 193.01 177.32 193.01 177.32C193.01 177.32 186.542 186.53 183.964 203.967C181.386 221.405 185.253 263.546 185.253 263.546C185.253 263.546 202.384 267.592 219.99 264.676C230.897 262.82 241.532 259.62 251.652 255.149C251.652 255.149 252.296 236.266 244.211 211.392C240.031 198.128 235.178 185.085 229.67 172.313C229.67 172.313 233.876 155.678 234.034 144.378C234.193 133.077 230.156 129.359 227.092 127.912C224.027 126.466 212.878 126.454 212.878 126.454Z" stroke="#263238" stroke-width="0.847571" stroke-linecap="round" stroke-linejoin="round"/>
<path d="M208.479 161.815C208.479 161.815 211.057 169.726 218.011 173.285" stroke="#263238" stroke-width="0.847571" stroke-linecap="round" stroke-linejoin="round"/>
<path d="M211.543 115.153C211.167 118.632 210.354 122.049 209.124 125.324C207.348 129.359 206.217 128.398 204.6 135.665C202.983 142.931 208.479 152.616 214.619 148.582C220.759 144.547 224.638 136.309 224.31 133.235C223.982 130.161 222.534 129.528 222.534 125.324C222.582 122.543 222.961 119.777 223.665 117.086C223.665 117.086 215.264 117.73 211.543 115.153Z" fill="white"/>
<mask id="mask3_222_3625" style="mask-type:luminance" maskUnits="userSpaceOnUse" x="204" y="115" width="21" height="35">
<path d="M211.543 115.153C211.167 118.632 210.354 122.049 209.124 125.324C207.348 129.359 206.217 128.398 204.6 135.665C202.983 142.931 208.479 152.616 214.619 148.582C220.759 144.547 224.638 136.309 224.31 133.235C223.982 130.161 222.534 129.528 222.534 125.324C222.582 122.543 222.961 119.777 223.665 117.086C223.665 117.086 215.264 117.73 211.543 115.153Z" fill="white"/>
</mask>
<g mask="url(#mask3_222_3625)">
<path d="M211.543 115.153C211.167 118.57 210.377 121.928 209.191 125.155C211.204 127.347 215.309 129.799 222.625 126.974C222.563 126.426 222.533 125.876 222.534 125.324C222.58 122.543 222.96 119.777 223.665 117.086C223.665 117.086 215.264 117.73 211.543 115.153Z" fill="#065EA9"/>
<path opacity="0.5" d="M211.543 115.153C211.167 118.57 210.377 121.928 209.191 125.155C211.204 127.347 215.309 129.799 222.625 126.974C222.563 126.426 222.533 125.876 222.534 125.324C222.58 122.543 222.96 119.777 223.665 117.086C223.665 117.086 215.264 117.73 211.543 115.153Z" fill="white"/>
</g>
<path d="M211.543 115.153C211.167 118.632 210.354 122.049 209.124 125.324C207.348 129.359 206.217 128.398 204.6 135.665C202.983 142.931 208.479 152.616 214.619 148.582C220.759 144.547 224.638 136.309 224.31 133.235C223.982 130.161 222.534 129.528 222.534 125.324C222.582 122.543 222.961 119.777 223.665 117.086C223.665 117.086 215.264 117.73 211.543 115.153Z" stroke="#263238" stroke-width="0.847571" stroke-linecap="round" stroke-linejoin="round"/>
<path d="M216.394 74.1309C216.394 74.1309 207.179 100.779 206.534 107.729C206.382 109.49 206.593 111.265 207.154 112.942C207.715 114.619 208.614 116.163 209.796 117.48C210.977 118.796 212.416 119.856 214.024 120.595C215.631 121.334 217.373 121.736 219.142 121.776C227.057 121.934 233.356 112.735 233.356 112.735C233.356 112.735 236.59 115.323 240.785 112.418C244.98 109.514 254.716 83.8271 254.716 83.8271C254.716 83.8271 249.707 75.261 236.94 72.8426C224.174 70.4242 216.394 74.1309 216.394 74.1309Z" fill="white"/>
<mask id="mask4_222_3625" style="mask-type:luminance" maskUnits="userSpaceOnUse" x="206" y="72" width="49" height="50">
<path d="M216.394 74.1309C216.394 74.1309 207.179 100.779 206.534 107.729C206.382 109.49 206.593 111.265 207.154 112.942C207.715 114.619 208.614 116.163 209.796 117.48C210.977 118.796 212.416 119.856 214.024 120.595C215.631 121.334 217.373 121.736 219.142 121.776C227.057 121.934 233.356 112.735 233.356 112.735C233.356 112.735 236.59 115.323 240.785 112.418C244.98 109.514 254.716 83.8271 254.716 83.8271C254.716 83.8271 249.707 75.261 236.94 72.8426C224.174 70.4242 216.394 74.1309 216.394 74.1309Z" fill="white"/>
</mask>
<g mask="url(#mask4_222_3625)">
<path d="M236.906 72.8428C234.667 72.4171 232.399 72.1564 230.122 72.063L226.289 85.6241C226.289 85.6241 231.818 101.615 231.479 106.113C231.14 110.611 227.318 119.256 217.276 119.256C214.9 119.275 212.542 118.849 210.322 118.001C212.662 120.384 215.847 121.748 219.187 121.798C227.103 121.957 233.401 112.758 233.401 112.758C233.401 112.758 236.635 115.346 240.83 112.441C245.025 109.537 254.716 83.8273 254.716 83.8273C254.716 83.8273 249.673 75.2612 236.906 72.8428Z" fill="#065EA9"/>
<path opacity="0.5" d="M236.906 72.8428C234.667 72.4171 232.399 72.1564 230.122 72.063L226.289 85.6241C226.289 85.6241 231.818 101.615 231.479 106.113C231.14 110.611 227.318 119.256 217.276 119.256C214.9 119.275 212.542 118.849 210.322 118.001C212.662 120.384 215.847 121.748 219.187 121.798C227.103 121.957 233.401 112.758 233.401 112.758C233.401 112.758 236.635 115.346 240.83 112.441C245.025 109.537 254.716 83.8273 254.716 83.8273C254.716 83.8273 249.673 75.2612 236.906 72.8428Z" fill="white"/>
</g>
<path d="M216.394 74.1309C216.394 74.1309 207.179 100.779 206.534 107.729C206.382 109.49 206.593 111.265 207.154 112.942C207.715 114.619 208.614 116.163 209.796 117.48C210.977 118.796 212.416 119.856 214.024 120.595C215.631 121.334 217.373 121.736 219.142 121.776C227.057 121.934 233.356 112.735 233.356 112.735C233.356 112.735 236.59 115.323 240.785 112.418C244.98 109.514 254.716 83.8271 254.716 83.8271C254.716 83.8271 249.707 75.261 236.94 72.8426C224.174 70.4242 216.394 74.1309 216.394 74.1309Z" stroke="#263238" stroke-width="0.847571" stroke-linecap="round" stroke-linejoin="round"/>
<path d="M220.917 93.9982C220.434 95.6405 219.331 97.0307 217.841 97.8744C215.421 99.1627 213.318 99.0045 214.132 100.293C214.877 101.191 215.899 101.815 217.038 102.067" stroke="#263238" stroke-width="0.847571" stroke-linecap="round" stroke-linejoin="round"/>
<path d="M215.421 104.813C216.74 105.78 218.311 106.341 219.944 106.429C221.887 106.58 223.824 106.07 225.44 104.983C225.44 104.983 220.43 110.791 217.841 110.791C215.252 110.791 215.421 104.813 215.421 104.813Z" fill="#263238"/>
<path d="M223.823 95.4557C223.823 95.4557 226.729 92.3818 228.991 96.0998" stroke="#263238" stroke-width="0.847571" stroke-linecap="round" stroke-linejoin="round"/>
<path d="M214.619 93.9982C214.9 93.6968 215.254 93.4721 215.646 93.3456C216.039 93.2191 216.457 93.1948 216.861 93.2752C217.266 93.3556 217.643 93.5379 217.957 93.8049C218.271 94.0718 218.512 94.4146 218.656 94.8006" stroke="#263238" stroke-width="0.847571" stroke-linecap="round" stroke-linejoin="round"/>
<path d="M214.008 90.6077C214.393 89.7895 215.015 89.1056 215.793 88.6443C216.571 88.1829 217.469 87.9654 218.373 88.0198" stroke="#263238" stroke-width="0.847571" stroke-linecap="round" stroke-linejoin="round"/>
<path d="M224.954 88.1895C224.954 88.1895 226.729 87.534 228.346 90.7661" stroke="#263238" stroke-width="0.847571" stroke-linecap="round" stroke-linejoin="round"/>
<path d="M226.243 85.6014C226.243 85.6014 230.766 95.2863 234.973 105.457C239.179 115.628 256.299 128.229 259.239 129.042C262.179 129.856 271.519 114.182 271.519 114.182C271.519 114.182 255.123 102.609 249.107 97.5804C243.092 92.5515 236.431 87.2175 226.243 85.6014Z" fill="#263238" stroke="#263238" stroke-width="0.847571" stroke-linecap="round" stroke-linejoin="round"/>
<path d="M216.27 82.6972L197.861 70.9103C197.861 70.9103 220.477 61.5419 226.13 56.3773C226.13 56.3773 262.643 80.1093 276.054 81.7253C276.054 81.7253 255.541 89.636 246.167 91.8962L216.27 82.6972Z" fill="#065EA9" stroke="#263238" stroke-width="0.847571" stroke-linecap="round" stroke-linejoin="round"/>
<path d="M254.716 83.8271C254.716 83.8271 249.707 75.261 236.94 72.8426C224.174 70.4242 216.428 74.1309 216.428 74.1309C216.428 74.1309 214.709 79.1033 212.708 85.3188C218.351 84.0302 224.248 84.4231 229.669 86.4489C237.585 89.1385 244.742 94.1675 249.107 97.6256C252.126 90.5964 254.716 83.8271 254.716 83.8271Z" fill="#065EA9" stroke="#263238" stroke-width="0.847571" stroke-linecap="round" stroke-linejoin="round"/>
<path d="M197.816 70.9106C197.816 70.9106 196.515 80.2678 189.731 79.3072C182.946 78.3466 185.366 69.2946 193.123 62.0281C200.88 54.7615 197.33 46.2067 192.151 44.7489" stroke="#263238" stroke-width="0.847571" stroke-linecap="round" stroke-linejoin="round"/>
<path d="M193.451 45.0651C193.451 45.0651 191.348 43.1327 186.339 42.4885C181.33 41.8444 173.256 40.2283 173.573 40.8725C173.889 41.5166 173.731 43.1327 174.059 44.2628C174.387 45.3929 175.031 46.8507 176.806 46.8507C178.582 46.8507 190.862 46.523 192.321 46.523C193.779 46.523 193.451 45.0651 193.451 45.0651Z" fill="#263238" stroke="#263238" stroke-width="0.847571" stroke-linecap="round" stroke-linejoin="round"/>
<path d="M296.554 86.4041C296.554 86.4041 298.171 101.909 301.405 109.175C304.639 116.442 309.094 131.992 308.348 140.818C307.816 147.226 305.6 148.085 303.825 148.085C302.049 148.085 296.35 144.186 292.675 137.1C285.812 123.889 287.836 114.17 289.928 106.418C292.019 98.6656 296.554 86.4041 296.554 86.4041Z" fill="#263238"/>
<mask id="mask5_222_3625" style="mask-type:luminance" maskUnits="userSpaceOnUse" x="287" y="86" width="22" height="63">
<path d="M296.554 86.4041C296.554 86.4041 298.171 101.909 301.405 109.175C304.639 116.442 309.094 131.992 308.348 140.818C307.816 147.226 305.6 148.085 303.825 148.085C302.049 148.085 296.35 144.186 292.675 137.1C285.812 123.889 287.836 114.17 289.928 106.418C292.019 98.6656 296.554 86.4041 296.554 86.4041Z" fill="white"/>
</mask>
<g mask="url(#mask5_222_3625)">
<path opacity="0.3" d="M296.553 86.4039C296.553 86.4039 298.17 101.909 301.404 109.175C304.638 116.442 308.912 131.461 308.347 140.818C307.963 147.237 305.599 148.084 303.824 148.084C302.049 148.084 298.815 150.661 292.675 137.1C286.535 123.539 287.835 114.17 289.927 106.418C292.019 98.6655 296.553 86.4039 296.553 86.4039Z" fill="white" stroke="#263238" stroke-width="0.847571" stroke-linecap="round" stroke-linejoin="round"/>
</g>
<path d="M296.554 86.4041C296.554 86.4041 298.171 101.909 301.405 109.175C304.639 116.442 309.094 131.992 308.348 140.818C307.816 147.226 305.6 148.085 303.825 148.085C302.049 148.085 296.35 144.186 292.675 137.1C285.812 123.889 287.836 114.17 289.928 106.418C292.019 98.6656 296.554 86.4041 296.554 86.4041Z" stroke="#263238" stroke-width="0.847571" stroke-linecap="round" stroke-linejoin="round"/>
<path d="M296.689 88.3475C296.689 88.3475 307.036 74.4586 308.969 70.5824C310.903 66.7062 313.979 62.6718 316.24 62.344C318.502 62.0163 324.325 66.8644 324.642 69.9383C324.958 73.0121 321.419 76.7188 318.502 78.0071C316.609 78.7782 314.524 78.9478 312.531 78.4931C312.531 78.4931 304.13 93.6702 299.437 100.779C294.744 107.887 292.008 111.119 291.035 111.921C290.063 112.724 287.643 108.859 289.102 103.525C290.56 98.1906 296.689 88.3475 296.689 88.3475Z" fill="white" stroke="#263238" stroke-width="0.847571" stroke-linecap="round" stroke-linejoin="round"/>
<path d="M321.69 64.0168C321.69 64.0168 318.298 69.1022 318.66 70.0628C319.022 71.0234 320.175 72.323 320.865 71.4415C321.555 70.5601 324.257 66.7629 324.167 65.2486C324.076 63.7343 322.923 63.3274 321.69 64.0168Z" fill="white" stroke="#263238" stroke-width="0.847571" stroke-linecap="round" stroke-linejoin="round"/>
<path d="M324.076 66.5594C324.076 66.5594 321.057 71.0797 321.419 71.8821C321.781 72.6845 322.742 73.8146 323.352 73.0913C323.963 72.368 326.372 68.9778 326.247 67.6442C326.123 66.3107 325.162 65.9604 324.076 66.5594Z" fill="white" stroke="#263238" stroke-width="0.847571" stroke-linecap="round" stroke-linejoin="round"/>
<path d="M319.169 60.7282C319.169 60.7282 315.121 66.7064 315.607 67.8365C316.093 68.9666 317.382 70.4244 318.196 69.4525C319.011 68.4806 322.233 63.9603 322.075 62.186C321.917 60.4118 320.605 59.9258 319.169 60.7282Z" fill="white" stroke="#263238" stroke-width="0.847571" stroke-linecap="round" stroke-linejoin="round"/>
<path d="M316.082 58.1514C316.082 58.1514 312.046 64.1183 312.532 65.2597C313.018 66.4011 314.307 67.8364 315.11 66.8645C315.913 65.8926 319.158 61.3835 318.988 59.598C318.819 57.8124 317.541 57.3378 316.082 58.1514Z" fill="white" stroke="#263238" stroke-width="0.847571" stroke-linecap="round" stroke-linejoin="round"/>
<path d="M308.812 72.5265C308.812 72.5265 313.176 61.3838 314.149 61.3838C315.121 61.3838 320.447 64.4463 320.764 65.9042C321.08 67.362 320.764 67.5202 319.803 67.6784C318.841 67.8366 315.766 66.0624 315.766 66.0624C315.766 66.0624 317.213 69.4527 315.11 71.8711C313.007 74.2895 311.231 74.459 311.231 74.459" fill="white"/>
<path d="M308.812 72.5265C308.812 72.5265 313.176 61.3838 314.149 61.3838C315.121 61.3838 320.447 64.4463 320.764 65.9042C321.08 67.362 320.764 67.5202 319.803 67.6784C318.841 67.8366 315.766 66.0624 315.766 66.0624C315.766 66.0624 317.213 69.4527 315.11 71.8711C313.007 74.2895 311.231 74.459 311.231 74.459" stroke="#263238" stroke-width="0.847571" stroke-linecap="round" stroke-linejoin="round"/>
<path d="M164.028 72.8764C164.028 72.8764 155.525 57.8009 154.089 53.6648C152.653 49.5286 150.12 45.189 147.915 44.624C145.71 44.059 139.333 48.0934 138.62 51.0995C137.908 54.1055 140.972 58.2303 143.697 59.8803C145.473 60.8942 147.517 61.3398 149.555 61.1573C149.555 61.1573 155.977 77.2724 159.731 84.8893C163.486 92.5061 165.792 96.0772 166.652 97.0039C167.511 97.9306 170.406 94.3821 169.637 88.9124C168.868 83.4427 164.028 72.8764 164.028 72.8764Z" fill="white" stroke="#263238" stroke-width="0.847571" stroke-linecap="round" stroke-linejoin="round"/>
<path d="M142.307 45.5961C142.307 45.5961 145.077 51.0771 144.568 51.9811C144.059 52.8852 142.782 53.9701 142.205 53.1112C141.628 52.2524 139.389 48.0371 139.717 46.5567C140.045 45.0763 141.165 44.7598 142.307 45.5961Z" fill="white" stroke="#263238" stroke-width="0.847571" stroke-linecap="round" stroke-linejoin="round"/>
<path d="M139.615 47.8223C139.615 47.8223 142.046 52.6365 141.583 53.4728C141.119 54.3091 140.022 55.2244 139.513 54.4334C139.005 53.6423 137.026 49.9695 137.32 48.6699C137.614 47.3703 138.609 47.0878 139.615 47.8223Z" fill="white" stroke="#263238" stroke-width="0.847571" stroke-linecap="round" stroke-linejoin="round"/>
<path d="M145.235 42.6579C145.235 42.6579 148.48 49.0881 147.858 50.1504C147.236 51.2127 145.778 52.4897 145.088 51.4274C144.398 50.3651 141.775 45.4718 142.159 43.7315C142.544 41.9911 143.901 41.6747 145.235 42.6579Z" fill="white" stroke="#263238" stroke-width="0.847571" stroke-linecap="round" stroke-linejoin="round"/>
<path d="M148.605 40.4766C148.605 40.4766 151.861 46.9182 151.228 47.9804C150.595 49.0427 149.148 50.3197 148.469 49.2575C147.791 48.1952 145.145 43.3019 145.529 41.5615C145.914 39.8212 147.293 39.4934 148.605 40.4766Z" fill="white" stroke="#263238" stroke-width="0.847571" stroke-linecap="round" stroke-linejoin="round"/>
<path d="M153.998 55.6539C153.998 55.6539 151.081 44.0478 150.12 43.9348C149.159 43.8218 143.482 46.195 142.973 47.585C142.465 48.975 142.77 49.1784 143.72 49.461C144.67 49.7435 147.926 48.3309 147.926 48.3309C147.926 48.3309 146.06 51.5064 147.836 54.1735C149.611 56.8405 151.352 57.2247 151.352 57.2247" fill="white"/>
<path d="M153.998 55.6539C153.998 55.6539 151.081 44.0478 150.12 43.9348C149.159 43.8218 143.482 46.195 142.973 47.585C142.465 48.975 142.77 49.1784 143.72 49.461C144.67 49.7435 147.926 48.3309 147.926 48.3309C147.926 48.3309 146.06 51.5064 147.836 54.1735C149.611 56.8405 151.352 57.2247 151.352 57.2247" stroke="#263238" stroke-width="0.847571" stroke-linecap="round" stroke-linejoin="round"/>
<path d="M233.231 126.455C233.231 126.455 230.483 121.29 227.091 122.092C223.699 122.895 219.979 134.207 219.979 149.215C219.979 164.222 228.708 193.944 235.809 212.5C242.91 231.056 244.697 258.043 244.052 274.836C243.408 291.629 240.502 293.889 241.305 294.692C242.108 295.494 245.183 295.664 262.156 288.239C279.129 280.814 278.789 272.892 278.789 272.892L275.883 261.591C275.883 261.591 281.865 259.489 292.37 259.659C302.875 259.828 312.882 253.522 313.21 244.798C313.538 236.074 301.902 225.586 297.051 221.541C292.2 217.495 304.243 208.703 279.276 192.961C265.933 184.553 258.922 170.189 255.846 164.053C252.771 157.916 253.268 154.368 256.491 151.622C259.713 148.876 273.305 143.869 282.182 144.355C291.058 144.841 303.836 148.073 303.836 148.073C303.836 148.073 293.331 142.909 292.845 122.556C292.546 110.393 293.796 98.2407 296.565 86.3927C296.565 86.3927 292.37 90.2689 284.613 97.3772C276.856 104.486 277.342 106.26 271.202 106.26C265.062 106.26 259.566 107.548 257.633 112.554C255.699 117.561 253.438 120.465 248.756 120.307C244.075 120.149 242.616 117.075 238.082 120.465C233.548 123.855 233.231 126.455 233.231 126.455Z" fill="#065EA9" stroke="#263238" stroke-width="0.847571" stroke-linecap="round" stroke-linejoin="round"/>
<path d="M233.231 126.454C233.231 126.454 227.091 139.857 228.708 160.357C230.325 180.857 240.015 204.758 253.268 220.105C266.52 235.452 274.911 259.828 274.911 259.828" stroke="#263238" stroke-width="0.847571" stroke-linecap="round" stroke-linejoin="round"/>
<path d="M245.794 168.595C245.794 168.595 250.159 186.846 262.439 202.024C274.719 217.201 294.428 221.077 294.428 221.077" stroke="#263238" stroke-width="0.847571" stroke-linecap="round" stroke-linejoin="round"/>
<path d="M242.402 147.61C242.402 147.61 240.468 153.588 244.991 163.273C249.514 172.958 250.645 174.257 250.645 174.257" stroke="#263238" stroke-width="0.847571" stroke-linecap="round" stroke-linejoin="round"/>
<path d="M255.846 151.802C252.987 154.356 250.632 157.422 248.903 160.843" stroke="#263238" stroke-width="0.847571" stroke-linecap="round" stroke-linejoin="round"/>
<path d="M282.148 144.378C283.81 144.468 285.608 144.66 287.429 144.898C285.959 144.292 284.663 143.332 283.654 142.103C282.646 140.875 281.958 139.416 281.651 137.857C280 131.563 285.111 114.125 287.304 106.712C288.641 102.149 289.446 97.4465 289.702 92.6987L284.952 97.0609C284.569 99.9155 283.972 102.737 283.166 105.503C279.197 119.007 275.771 132.41 277.512 138.953C277.998 140.898 278.837 142.737 279.988 144.378C280.723 144.344 281.447 144.344 282.148 144.378Z" fill="#263238"/>
<path d="M204.962 126.782C204.962 126.782 206.579 121.607 203.345 119.03C200.111 116.453 196.73 120.318 196.73 120.318C193.825 118.565 191.516 115.977 190.104 112.894C187.356 107.401 190.59 103.853 184.28 95.9421C177.971 88.0314 173.945 85.613 175.562 78.1883C177.179 70.7636 183.964 65.2713 179.113 62.0393C174.262 58.8072 162.468 58.9654 153.75 68.8198C145.032 78.6742 145.993 84.1552 142.6 87.8732C139.208 91.5912 131.768 96.2698 136.291 103.536C140.814 110.803 148.413 113.549 155.514 114.679C162.615 115.809 172.803 124.364 175.065 133.891C177.326 143.417 174.42 154.56 170.055 163.612C165.691 172.664 153.411 184.598 149.702 203.007C145.993 221.416 157.617 230.943 159.72 238.21C161.823 245.476 164.729 264.044 161.337 274.542C159.242 280.875 154.843 286.191 149.012 289.437C149.012 289.437 153.705 296.376 165.329 297.664C176.953 298.952 179.226 297.664 180.198 292.658C181.171 287.651 182.301 270.858 178.423 252.935C174.544 235.011 166.143 226.943 171.638 211.121C177.134 195.3 182.301 176.235 188.272 162.346C194.242 148.458 204.962 126.782 204.962 126.782Z" fill="#065EA9" stroke="#263238" stroke-width="0.847571" stroke-linecap="round" stroke-linejoin="round"/>
<path d="M181.487 118.86C181.487 118.86 184.721 119.188 182.946 127.426C181.17 135.665 175.03 150.514 175.03 150.514" stroke="#263238" stroke-width="0.847571" stroke-linecap="round" stroke-linejoin="round"/>
<path d="M159.359 236.74C159.359 236.74 155.966 231.09 157.742 216.885C159.517 202.679 166.516 184.27 172.17 167.952C177.824 151.633 180.402 145.508 180.402 145.508" stroke="#263238" stroke-width="0.847571" stroke-linecap="round" stroke-linejoin="round"/>
<path d="M197.488 121.776C197.488 121.776 197.488 124.838 189.889 140.501C182.29 156.165 178.423 169.081 178.265 178.292" stroke="#263238" stroke-width="0.847571" stroke-linecap="round" stroke-linejoin="round"/>
<path d="M150.515 94.8119C151.872 93.6818 153.275 92.5517 154.541 91.3651C158.171 87.9749 159.618 84.0308 160.896 80.6067C162.027 77.6345 162.954 75.0579 165.159 73.4532C167.805 71.4981 172.995 73.5662 176.365 75.3969C176.896 74.0541 177.508 72.7446 178.197 71.4755C174.194 69.3057 167.296 66.5257 162.603 69.9838C159.369 72.357 158.08 75.7811 156.848 79.1036C155.717 82.234 154.473 85.4774 151.567 88.2348C150.436 89.3649 149.136 90.3707 147.79 91.4782C143.799 94.7441 139.151 98.5638 137.082 104.757C138.085 106.148 139.259 107.409 140.576 108.509C141.639 102.101 145.981 98.5299 150.515 94.8119Z" fill="#263238"/>
<path d="M445 350.812H0.0224609V358.033H445V350.812Z" fill="#263238"/>
</svg>
