<svg width="15" height="15" viewBox="0 0 15 15" fill="none" xmlns="http://www.w3.org/2000/svg">
<g clip-path="url(#clip0_6_16)">
<path d="M7.27149 0.325191C7.08106 0.363276 6.88477 0.468745 6.73243 0.618159C6.61231 0.738276 6.48341 0.978511 5.71876 2.52539C4.81348 4.35937 4.79298 4.38867 4.59669 4.43554C4.5586 4.44726 3.70899 4.57324 2.70997 4.71679C1.71095 4.86328 0.82618 5.00097 0.747079 5.02441C0.433602 5.1123 0.178719 5.35839 0.0556724 5.67773C0.00586774 5.81542 -0.00292133 5.8916 0.00586774 6.11132C0.0263755 6.57128 -0.0204995 6.51562 1.58497 8.08007C2.35548 8.833 3.0088 9.48925 3.03223 9.54199C3.05567 9.59179 3.07618 9.67089 3.07618 9.71777C3.07618 9.76171 2.93556 10.6113 2.76563 11.6016C2.56056 12.7881 2.45216 13.4795 2.45216 13.623C2.45216 13.9102 2.53419 14.1269 2.72462 14.335C2.90333 14.5312 3.09962 14.6367 3.36036 14.6836C3.71485 14.7422 3.76173 14.7217 5.62794 13.7432C6.54786 13.2598 7.34473 12.8496 7.4004 12.835C7.46192 12.8174 7.53809 12.8174 7.59962 12.835C7.65528 12.8496 8.45216 13.2568 9.37208 13.7402C10.4883 14.3291 11.1035 14.6367 11.2236 14.666C11.4375 14.7217 11.6484 14.7041 11.8945 14.6103C12.1201 14.5254 12.3897 14.2559 12.4805 14.0185C12.5918 13.7285 12.5772 13.582 12.2344 11.6016C12.0645 10.6113 11.9238 9.76171 11.9238 9.71777C11.9238 9.67089 11.9443 9.59179 11.9678 9.54199C11.9912 9.48925 12.6445 8.833 13.415 8.08007C15.0527 6.48339 14.9854 6.56835 14.9854 6.06445C14.9854 5.79199 14.9766 5.73632 14.9063 5.58984C14.8652 5.49902 14.7686 5.36132 14.6924 5.28808C14.4463 5.04199 14.3731 5.02148 12.9492 4.81347C10.3213 4.43261 10.3535 4.43554 10.251 4.3623C10.1719 4.30664 10.0078 3.99609 9.28126 2.52832C8.51368 0.972651 8.39063 0.741206 8.26759 0.621089C8.00098 0.354487 7.64649 0.249019 7.27149 0.325191ZM7.73731 1.00195C7.82227 1.06054 7.95411 1.30371 8.71583 2.83007C9.19923 3.7998 9.62989 4.64062 9.67384 4.69628C9.77345 4.82226 9.98438 4.96289 10.1631 5.02148C10.2363 5.04785 11.1152 5.18554 12.1143 5.3291C13.1133 5.47558 13.9746 5.60156 14.0274 5.61328C14.2529 5.66015 14.4287 5.95312 14.3613 6.17578C14.3262 6.29003 13.9893 6.63574 12.4512 8.12695C11.3994 9.14941 11.3848 9.16699 11.3086 9.5332C11.2676 9.73828 11.2412 9.55957 11.6191 11.7539C11.7861 12.7324 11.9238 13.5762 11.9238 13.6318C11.9238 13.7519 11.8272 13.9043 11.6924 13.9951C11.4844 14.1357 11.5078 14.1445 9.65333 13.1689C8.71876 12.6768 7.88966 12.2549 7.81056 12.2314C7.62598 12.1758 7.37403 12.1758 7.18946 12.2314C7.11036 12.2549 6.28126 12.6768 5.34669 13.1689C3.4922 14.1445 3.51563 14.1357 3.30763 13.9951C3.17579 13.9072 3.07618 13.7519 3.07618 13.6348C3.07618 13.582 3.21388 12.7353 3.38087 11.7568C3.7588 9.55664 3.73243 9.73828 3.69141 9.5332C3.61524 9.16699 3.60059 9.14941 2.57813 8.15624C1.03419 6.65624 0.673836 6.29003 0.63868 6.17578C0.571297 5.95312 0.747079 5.66015 0.972665 5.61328C1.0254 5.60156 1.88673 5.47558 2.88575 5.3291C3.88477 5.18554 4.76368 5.04785 4.83692 5.02148C5.01563 4.96289 5.22657 4.82226 5.32618 4.69628C5.37013 4.64062 5.80079 3.7998 6.28419 2.83007C7.25684 0.88183 7.22169 0.937495 7.50001 0.937495C7.59376 0.937495 7.66993 0.958003 7.73731 1.00195Z" fill="#E5991B"/>
</g>
<defs>
<clipPath id="clip0_6_16">
<rect width="15" height="15" fill="white"/>
</clipPath>
</defs>
</svg>
