<svg width="16" height="16" viewBox="0 0 16 16" fill="none" xmlns="http://www.w3.org/2000/svg">
<path fill-rule="evenodd" clip-rule="evenodd" d="M5.33333 1.33337C5.70152 1.33337 5.99999 1.63185 5.99999 2.00004H9.99999C9.99999 1.63185 10.2985 1.33337 10.6667 1.33337C11.0349 1.33337 11.3333 1.63185 11.3333 2.00004C13.1743 2.00004 14.6667 3.49242 14.6667 5.33337V11.3334C14.6667 13.1743 13.1743 14.6667 11.3333 14.6667H4.66666C2.82571 14.6667 1.33333 13.1743 1.33333 11.3334V5.33337C1.33333 3.49242 2.82571 2.00004 4.66666 2.00004C4.66666 1.63185 4.96514 1.33337 5.33333 1.33337ZM3.99999 6.66671C3.99999 6.29852 4.29847 6.00004 4.66666 6.00004H11.3333C11.7015 6.00004 12 6.29852 12 6.66671C12 7.0349 11.7015 7.33337 11.3333 7.33337H4.66666C4.29847 7.33337 3.99999 7.0349 3.99999 6.66671ZM9.99999 11.3334C9.99999 10.9652 10.2985 10.6667 10.6667 10.6667H11.3333C11.7015 10.6667 12 10.9652 12 11.3334C12 11.7016 11.7015 12 11.3333 12H10.6667C10.2985 12 9.99999 11.7016 9.99999 11.3334Z" fill="#5D6B8A"/>
</svg>
