<svg width="18" height="18" viewBox="0 0 18 18" fill="none" xmlns="http://www.w3.org/2000/svg">
<path fill-rule="evenodd" clip-rule="evenodd" d="M8.99984 0.666626C4.39746 0.666626 0.666504 4.39759 0.666504 8.99996C0.666504 13.6023 4.39746 17.3333 8.99984 17.3333C13.6022 17.3333 17.3332 13.6023 17.3332 8.99996C17.3332 4.39759 13.6022 0.666626 8.99984 0.666626ZM8.99984 4.83329C9.46008 4.83329 9.83317 5.20639 9.83317 5.66663V10.3214L11.7439 8.4107C12.0694 8.08527 12.597 8.08527 12.9224 8.4107C13.2479 8.73614 13.2479 9.26378 12.9224 9.58922L9.58909 12.9225C9.43281 13.0788 9.22085 13.1666 8.99984 13.1666C8.77882 13.1666 8.56686 13.0788 8.41058 12.9225L5.07725 9.58922C4.75181 9.26378 4.75181 8.73614 5.07725 8.4107C5.40269 8.08527 5.93032 8.08527 6.25576 8.4107L8.1665 10.3214V5.66663C8.1665 5.20639 8.5396 4.83329 8.99984 4.83329Z" fill="#065EA9"/>
</svg>
