<svg width="16" height="16" viewBox="0 0 16 16" fill="none" xmlns="http://www.w3.org/2000/svg">
<path d="M8.00013 3C4.66679 3 1.82013 5.07333 0.666794 8C1.82013 10.9267 4.66679 13 8.00013 13C11.3335 13 14.1801 10.9267 15.3335 8C14.1801 5.07333 11.3335 3 8.00013 3ZM8.00013 11.3333C6.16013 11.3333 4.66679 9.84 4.66679 8C4.66679 6.16 6.16013 4.66667 8.00013 4.66667C9.84013 4.66667 11.3335 6.16 11.3335 8C11.3335 9.84 9.84013 11.3333 8.00013 11.3333ZM8.00013 6C6.89346 6 6.00013 6.89333 6.00013 8C6.00013 9.10667 6.89346 10 8.00013 10C9.10679 10 10.0001 9.10667 10.0001 8C10.0001 6.89333 9.10679 6 8.00013 6Z" fill="#5D6B8A"/>
</svg>
