<svg width="17" height="18" viewBox="0 0 17 18" fill="none" xmlns="http://www.w3.org/2000/svg">
<path d="M3.12548 0.0995936C2.97689 0.256433 3.00165 0.471055 3.19151 0.660913C3.3401 0.813625 5.48219 2.87317 5.73809 3.10843L5.86604 3.224L6.11781 2.98049L6.3737 2.73697L5.43679 1.83721C3.33597 -0.185194 3.55059 0.00466442 3.37312 0.00466442C3.26168 0.00466442 3.18739 0.033556 3.12548 0.0995936Z" fill="#065EA9"/>
<path d="M10.1744 1.35444C9.40255 2.09736 8.77519 2.71646 8.77932 2.73297C8.78757 2.74535 8.89901 2.85679 9.02696 2.97648C9.26222 3.19111 9.26634 3.19111 9.36127 3.11269C9.69146 2.85266 12.0399 0.545474 12.0606 0.4588C12.1307 0.207031 11.9863 0.00479102 11.7345 0.00479102C11.5859 0.00479102 11.5158 0.0667014 10.1744 1.35444Z" fill="#065EA9"/>
<path d="M7.11125 3.07132C6.6201 3.25705 6.26102 3.62852 6.12482 4.09903L6.0918 4.2146H7.57352H9.05524L9.01809 4.09078C8.90252 3.6863 8.59297 3.33135 8.19675 3.14974C7.92021 3.01767 7.36302 2.98052 7.11125 3.07132Z" fill="#065EA9"/>
<path d="M1.10613 4.93697C0.693395 5.06492 0.321934 5.39924 0.111439 5.82435L0 6.05136V10.6534V15.2554L0.119693 15.503C0.276533 15.8208 0.590211 16.1345 0.908018 16.2913L1.15566 16.411H8.23407H15.3125L15.5601 16.2913C15.8779 16.1345 16.1916 15.8208 16.3484 15.503L16.4681 15.2554V10.6534V6.05136L16.3484 5.80372C16.1916 5.48591 15.8779 5.17223 15.5601 5.01539L15.3125 4.8957L8.29598 4.88744C2.5507 4.88332 1.24646 4.89157 1.10613 4.93697ZM12.7659 5.96468C12.9805 6.05961 13.2405 6.3444 13.3025 6.55902C13.3726 6.79015 13.3726 14.5166 13.3025 14.7436C13.2364 14.9623 13.0177 15.21 12.7824 15.3255L12.5884 15.4204H7.11968H1.65094L1.42806 15.2966C1.16804 15.1522 1.02771 14.9829 0.945164 14.7147C0.858489 14.4258 0.858489 6.88095 0.945164 6.59204C1.0566 6.22883 1.32488 5.98119 1.67983 5.91103C1.77889 5.89039 4.27181 5.87801 7.22287 5.87801C12.3614 5.88626 12.5967 5.89039 12.7659 5.96468ZM15.201 6.71999C15.5808 6.95112 15.7582 7.46291 15.6055 7.86327C15.4528 8.25949 14.9988 8.54428 14.6067 8.49062C14.1032 8.42458 13.7482 8.02836 13.7482 7.5372C13.7482 7.13685 14.0082 6.76539 14.388 6.62093C14.6108 6.53838 14.9782 6.57966 15.201 6.71999ZM15.201 8.99003C15.5808 9.22116 15.7582 9.73295 15.6055 10.1333C15.4528 10.5295 14.9988 10.8143 14.6067 10.7607C14.1032 10.6946 13.7482 10.2984 13.7482 9.80725C13.7482 9.40689 14.0082 9.03543 14.388 8.89098C14.6108 8.80843 14.9782 8.8497 15.201 8.99003ZM15.5601 11.582C15.6179 11.6357 15.6633 11.7306 15.6633 11.7884C15.6633 11.8462 15.6179 11.9411 15.5601 11.9947C15.4611 12.0979 15.4528 12.0979 14.7181 12.0979C14.3095 12.0979 13.9463 12.0855 13.9092 12.0732C13.8101 12.0319 13.7193 11.8255 13.7482 11.7058C13.7977 11.4995 13.8844 11.4788 14.7058 11.4788C15.4528 11.4788 15.4611 11.4788 15.5601 11.582ZM15.5601 12.9028C15.6179 12.9564 15.6633 13.0513 15.6633 13.1091C15.6633 13.1669 15.6179 13.2618 15.5601 13.3155C15.4611 13.4187 15.4528 13.4187 14.7181 13.4187C14.3095 13.4187 13.9463 13.4063 13.9092 13.3939C13.8101 13.3526 13.7193 13.1463 13.7482 13.0266C13.7977 12.8202 13.8844 12.7996 14.7058 12.7996C15.4528 12.7996 15.4611 12.7996 15.5601 12.9028ZM15.5601 14.2235C15.6179 14.2772 15.6633 14.3721 15.6633 14.4299C15.6633 14.4877 15.6179 14.5826 15.5601 14.6362C15.4611 14.7394 15.4528 14.7394 14.7181 14.7394C14.3095 14.7394 13.9463 14.7271 13.9092 14.7147C13.8101 14.6734 13.7193 14.467 13.7482 14.3473C13.7977 14.141 13.8844 14.1203 14.7058 14.1203C15.4528 14.1203 15.4611 14.1203 15.5601 14.2235Z" fill="#065EA9"/>
<path d="M1.59449 6.6375L1.50781 6.74481L1.51607 10.6823L1.52845 14.6239L1.62751 14.7023C1.72243 14.7766 1.86689 14.7808 7.13752 14.7808H12.5567L12.6434 14.6858L12.7342 14.5909V10.6493V6.70353L12.6393 6.61686L12.5444 6.52606H7.11276H1.67703L1.59449 6.6375ZM7.54613 9.279C9.23009 10.3067 9.30851 10.3686 9.30851 10.6452C9.30851 10.9341 9.26723 10.9671 7.5874 11.9948C5.87455 13.0431 5.75899 13.0968 5.53198 12.9482C5.4742 12.9069 5.38752 12.8203 5.34625 12.746C5.26783 12.618 5.2637 12.5231 5.2637 10.6617C5.2637 8.54021 5.25958 8.57322 5.49483 8.38749C5.565 8.33384 5.66406 8.30082 5.77137 8.30082C5.9117 8.30082 6.15108 8.43289 7.54613 9.279Z" fill="#065EA9"/>
<path d="M5.88086 10.6533C5.88086 11.5613 5.88911 12.3042 5.89737 12.3042C5.94277 12.3042 8.56364 10.6821 8.56364 10.6533C8.56364 10.6244 5.94277 9.00232 5.89737 9.00232C5.88911 9.00232 5.88086 9.74524 5.88086 10.6533Z" fill="#065EA9"/>
<path d="M14.5254 7.23586C14.4346 7.27713 14.3438 7.42985 14.3438 7.53716C14.3438 7.83433 14.7317 7.99942 14.9422 7.7848C15.2353 7.49588 14.8968 7.05426 14.5254 7.23586Z" fill="#065EA9"/>
<path d="M14.5254 9.50588C14.4346 9.54715 14.3438 9.69987 14.3438 9.80718C14.3438 10.1043 14.7317 10.2694 14.9422 10.0548C15.2353 9.7659 14.8968 9.32428 14.5254 9.50588Z" fill="#065EA9"/>
<path d="M1.60881 17.1415C1.60055 17.1704 1.57166 17.3479 1.5469 17.5377C1.50975 17.8019 1.50975 17.8968 1.55102 17.9422C1.58817 17.9876 1.73263 18 2.23204 18C2.62001 18 2.87178 17.9835 2.88828 17.9587C2.90892 17.9216 3.02861 17.2282 3.03274 17.1209C3.03274 17.1044 2.71494 17.092 2.33109 17.092C1.80279 17.092 1.62119 17.1044 1.60881 17.1415Z" fill="#065EA9"/>
<path d="M13.4355 17.1209C13.4397 17.2282 13.5594 17.9216 13.58 17.9587C13.5965 17.9835 13.8483 18 14.2363 18C14.7315 18 14.8801 17.9876 14.9173 17.9422C14.9544 17.8968 14.9544 17.7936 14.9131 17.4965L14.8595 17.1126L14.1455 17.1002C13.7575 17.0961 13.4355 17.1044 13.4355 17.1209Z" fill="#065EA9"/>
</svg>
