<svg width="18" height="18" viewBox="0 0 18 18" fill="none" xmlns="http://www.w3.org/2000/svg">
<path d="M8.7551 0.0914068C8.20666 0.151173 7.86916 0.291798 7.60549 0.573048C7.26799 0.928126 7.14494 1.3043 7.1133 2.07773C7.0922 2.62969 7.13791 2.95664 7.28908 3.32227C7.39806 3.58594 7.64767 3.95156 7.83049 4.10977L7.98869 4.25039L7.83752 4.31367C6.9551 4.66172 6.30822 5.32617 6.02345 6.16992C5.9426 6.41602 5.92853 6.50742 5.92853 6.92578C5.92502 7.38984 5.92853 7.40391 6.03752 7.63242C6.2801 8.12813 6.7547 8.40234 7.64767 8.56406C8.15744 8.65898 9.84494 8.65898 10.3547 8.56406C11.2477 8.40234 11.7223 8.12813 11.9649 7.63242C12.0738 7.40391 12.0774 7.38984 12.0738 6.92578C12.0738 6.50742 12.0598 6.41602 11.9789 6.16992C11.6942 5.32617 11.0473 4.66172 10.1649 4.31367L10.0137 4.25039L10.1719 4.10977C10.3547 3.95156 10.6043 3.58594 10.7133 3.32227C10.8645 2.95664 10.9102 2.62969 10.8891 2.07773C10.8574 1.3043 10.7344 0.928126 10.3969 0.573048C10.1965 0.36211 9.90119 0.203907 9.59885 0.144141C9.36681 0.101954 8.92385 0.0738287 8.7551 0.0914068Z" fill="#065EA9"/>
<path d="M5.08687 4.19413C4.09546 4.73202 2.94585 5.89569 2.46421 6.84491C2.34116 7.091 2.3271 7.23866 2.41851 7.32303C2.53101 7.42499 2.89312 7.5621 3.02319 7.55155C3.13569 7.541 3.15679 7.52343 3.28687 7.27733C3.77554 6.36678 4.74937 5.39999 5.61069 4.96405C5.83218 4.85155 5.87085 4.80585 5.87085 4.65468C5.87085 4.55272 5.67749 4.10975 5.61421 4.07108C5.51929 4.01132 5.34702 4.04999 5.08687 4.19413Z" fill="#065EA9"/>
<path d="M12.3855 4.07108C12.3223 4.10975 12.1289 4.55272 12.1289 4.65468C12.1289 4.80585 12.1676 4.85155 12.3891 4.96405C12.8988 5.22069 13.5141 5.71991 14.0027 6.27538C14.3227 6.63397 14.509 6.90116 14.7129 7.27733C14.843 7.52343 14.8641 7.541 14.9766 7.55155C15.1066 7.5621 15.4688 7.42499 15.5848 7.32303C15.6727 7.23866 15.6586 7.091 15.5355 6.84491C15.0539 5.89218 13.8621 4.68983 12.8953 4.18358C12.6387 4.04999 12.477 4.01132 12.3855 4.07108Z" fill="#065EA9"/>
<path d="M2.56686 8.50789C2.06413 8.5993 1.64226 8.88758 1.44538 9.2743C1.2696 9.61883 1.21686 9.9282 1.21335 10.5997C1.21335 11.12 1.2239 11.2712 1.28015 11.4434C1.38913 11.795 1.58601 12.129 1.84265 12.3997C1.97624 12.5403 2.06061 12.6563 2.03601 12.6563C2.00788 12.6563 1.82858 12.7337 1.63522 12.8286C1.01647 13.138 0.54538 13.602 0.26413 14.1856C0.0567085 14.6145 -0.013604 14.952 0.00748976 15.4302C0.0215523 15.743 0.0391304 15.8345 0.11999 16.0032C0.348505 16.4848 0.830146 16.7766 1.63874 16.9278C2.04655 17.0052 2.97116 17.0403 3.66726 17.0087C5.04538 16.9489 5.76608 16.636 6.07546 15.9645C6.15983 15.7852 6.16686 15.7255 6.17038 15.3282C6.17038 14.9626 6.15632 14.843 6.08952 14.6251C5.89968 14.0169 5.55163 13.5212 5.05944 13.1485C4.78171 12.9411 4.38796 12.7266 4.18054 12.6739C4.09616 12.6528 4.09968 12.6458 4.34226 12.3962C4.60944 12.1184 4.79929 11.788 4.91179 11.3907C4.96101 11.2114 4.97507 11.0427 4.97155 10.5997C4.97155 9.98094 4.90476 9.62586 4.72546 9.2743C4.53561 8.89813 4.15593 8.62742 3.67429 8.52547C3.41413 8.46922 2.83054 8.46219 2.56686 8.50789Z" fill="#065EA9"/>
<path d="M14.3121 8.52547C13.8375 8.63094 13.4613 8.90516 13.275 9.2743C13.0957 9.62586 13.0289 9.98094 13.0289 10.5997C13.0254 11.0427 13.0395 11.2114 13.0887 11.3907C13.2012 11.788 13.391 12.1184 13.6582 12.3962C13.9008 12.6458 13.9043 12.6528 13.8199 12.6739C13.6125 12.7266 13.2188 12.9411 12.941 13.1485C12.4488 13.5212 12.1008 14.0169 11.9109 14.6251C11.8441 14.843 11.8301 14.9626 11.8301 15.3282C11.8336 15.7255 11.8406 15.7852 11.925 15.9645C12.2344 16.636 12.9551 16.9489 14.3367 17.0087C15.0293 17.0403 15.9539 17.0052 16.3617 16.9278C17.1703 16.7766 17.652 16.4848 17.8805 16.0032C17.9613 15.8345 17.9789 15.743 17.993 15.4302C18.0141 14.952 17.9438 14.6145 17.7363 14.1856C17.4551 13.602 16.984 13.138 16.3652 12.8286C16.1719 12.7337 15.9926 12.6563 15.9645 12.6563C15.9398 12.6563 16.0242 12.5403 16.1578 12.3997C16.4145 12.129 16.6113 11.795 16.7203 11.4434C16.7766 11.2712 16.7871 11.12 16.7871 10.5997C16.7836 10.0513 16.773 9.9282 16.7063 9.69266C16.5305 9.07742 16.2563 8.77508 15.6938 8.57469C15.416 8.47625 14.6461 8.44813 14.3121 8.52547Z" fill="#065EA9"/>
<path d="M6.98906 16.7344C6.92578 16.7731 6.71484 17.2547 6.71484 17.3637C6.71484 17.4833 6.83437 17.5676 7.12969 17.6625C8.17734 17.993 9.82266 17.993 10.8703 17.6625C11.1656 17.5676 11.2852 17.4833 11.2852 17.3637C11.2852 17.325 11.2359 17.1739 11.1762 17.0297C11.0285 16.6782 10.9898 16.6606 10.5926 16.7801C10.1215 16.9172 9.97031 16.9454 9.46758 16.977C8.67305 17.0262 7.84336 16.9418 7.31602 16.7555C7.14023 16.6922 7.07344 16.6887 6.98906 16.7344Z" fill="#065EA9"/>
</svg>
