<svg width="30" height="30" viewBox="0 0 30 30" fill="none" xmlns="http://www.w3.org/2000/svg">
<g clip-path="url(#clip0_637_7821)">
<path d="M20.052 0.117188C19.7238 0.316406 19.6184 0.550781 19.6418 1.05469C19.6535 1.3125 19.7063 1.57617 19.7648 1.70508C19.8234 1.81641 20.3449 2.4082 20.9309 3.01172L21.9914 4.10742L21.634 5.17383C20.8547 7.5 20.7609 7.89844 20.9426 8.25C21.0539 8.4668 21.5871 8.90625 21.7336 8.90625C21.8977 8.90625 22.1203 8.58984 22.8879 7.27148C23.2336 6.67969 23.5734 6.12891 23.6438 6.04688L23.7668 5.90039L24.4992 6.5332C24.8977 6.88477 25.2316 7.20117 25.2434 7.24219C25.2551 7.2832 25.1672 7.51758 25.0559 7.76953C24.9387 8.01562 24.8449 8.27344 24.8449 8.34375C24.8449 8.47852 25.677 9.31641 25.8117 9.31641C25.9113 9.31641 25.9523 9.25781 26.3332 8.5957C26.9836 7.4707 27.1242 7.33594 28.2844 6.65625C28.7063 6.41602 28.923 6.25195 28.9348 6.17578C28.9406 6.10547 28.8 5.91211 28.548 5.63672C28.0793 5.13867 28.0324 5.12695 27.3879 5.41992C27.1418 5.53125 26.9191 5.625 26.8957 5.625C26.843 5.625 25.5246 4.10156 25.5539 4.07812C25.7004 3.96094 26.2863 3.60352 27.0773 3.14062C28.3781 2.39062 28.5363 2.26758 28.5363 2.05664C28.5363 1.93359 28.4543 1.81641 28.1906 1.56445C27.8391 1.22461 27.7688 1.20117 27.3352 1.23047C27.1242 1.24219 25.7824 1.65234 24.5871 2.0625L23.7199 2.36133L22.6535 1.30078C22.0324 0.679688 21.4934 0.193359 21.3469 0.123047C21.007 -0.046875 20.3273 -0.046875 20.052 0.117188Z" fill="#065EA9"/>
<path d="M11.1053 5.89453C11.0116 5.90624 10.6952 5.94726 10.4022 5.98242C7.29088 6.37499 4.23229 8.1914 2.33385 10.7812C1.93541 11.332 1.2733 12.4219 1.31432 12.4629C1.32604 12.4746 2.02916 12.3223 2.87877 12.1289C4.98815 11.6367 5.02916 11.6426 6.41783 12.6562C6.9276 13.0312 7.37291 13.3125 7.48424 13.3359C7.67174 13.3711 8.65612 13.2305 9.00182 13.1191C9.10143 13.0898 9.24205 13.0019 9.30651 12.9316C9.37682 12.8555 9.85143 11.9297 10.3671 10.8633C11.3983 8.7246 11.5624 8.47851 12.1659 8.17382C12.4764 8.01562 12.5643 7.99804 13.0682 7.99804C13.3729 7.99804 13.8358 8.02148 14.0936 8.05078C14.5096 8.08593 14.5858 8.08007 14.744 7.98046C14.9081 7.87499 15.9217 6.52148 15.869 6.4746C15.8104 6.41601 14.6971 6.13476 14.0936 6.02929C13.4256 5.91796 11.5682 5.83007 11.1053 5.89453Z" fill="#3F83BD"/>
<path d="M16.5483 7.71677C15.7222 8.90623 15.4995 9.10545 14.7729 9.29295C14.4272 9.38084 14.3511 9.38084 13.7065 9.28709C12.9214 9.17576 12.6987 9.21091 12.4702 9.48631C12.394 9.5742 11.9253 10.4941 11.4272 11.5371C10.4311 13.623 10.2788 13.8515 9.687 14.1679C9.29442 14.373 8.25145 14.5898 7.64208 14.5898C7.10301 14.5898 6.78661 14.4609 6.04833 13.9219C4.80614 13.0254 4.87645 13.0664 4.57762 13.0664C4.20848 13.0722 0.704577 13.9101 0.645983 14.0097C0.58153 14.1094 0.317858 15.0879 0.212389 15.6152C-0.0395638 16.8633 -0.0630013 18.7558 0.165514 20.039C1.10301 25.3008 5.26317 29.2383 10.6362 29.9472C11.4214 30.0469 13.519 29.9824 14.2573 29.8301C16.5718 29.3554 18.3179 28.5117 20.0112 27.0527C21.7749 25.5351 23.1636 23.3027 23.7554 21.0293C24.06 19.8457 24.1128 19.3945 24.1069 17.9297C24.1069 16.5058 24.06 16.0664 23.7905 14.9941C23.5093 13.8808 22.9526 12.5508 22.3843 11.6308C21.4819 10.1543 20.1225 8.7656 18.6811 7.8281C18.1186 7.46482 17.2339 6.97263 17.1343 6.97263C17.0991 6.97263 16.8354 7.30662 16.5483 7.71677ZM14.1987 15.6035C14.9604 15.9082 15.564 16.1133 15.687 16.1133C15.7983 16.1133 16.2905 16.0429 16.7827 15.9609C17.3159 15.873 17.7729 15.8203 17.937 15.8437C18.5112 15.9082 19.1206 16.3418 19.3491 16.8574C19.56 17.3379 19.6538 18.6386 19.5073 19.084C19.4722 19.207 19.1147 19.875 18.7163 20.5664L18.0015 21.8261L17.8491 23.6426C17.6499 25.9687 17.7436 25.7578 16.2378 27.3105C15.3237 28.2539 15.0718 28.4824 14.814 28.5937C14.1636 28.8808 13.3725 28.7226 12.8804 28.207C12.5171 27.832 11.5034 26.1679 11.4331 25.834C11.3862 25.623 11.3921 25.1601 11.4565 24.0937C11.5796 22.1074 11.5737 22.0547 11.3979 21.8847C11.269 21.75 11.2104 21.7383 10.7124 21.7383C9.97411 21.7383 9.69286 21.6562 8.49169 21.0761C6.75145 20.2383 6.59325 19.9453 6.85692 17.9883C6.99755 16.9453 7.11473 16.5879 7.43114 16.2187C7.80028 15.8027 8.05809 15.7207 10.1382 15.3808C12.6929 14.959 12.5698 14.9531 14.1987 15.6035Z" fill="#065EA9"/>
<path d="M10.4021 16.6171C8.66189 16.8984 8.45682 16.9453 8.35135 17.0683C8.25174 17.1796 8.20486 17.4082 8.09353 18.1992C7.92947 19.4472 7.92361 19.4296 8.60916 19.7578C10.1092 20.4726 10.0388 20.4492 10.6599 20.4492C11.5623 20.4492 12.0838 20.6718 12.4822 21.2226C12.8279 21.6972 12.8513 21.8964 12.7517 23.5605C12.6111 25.7871 12.5701 25.5 13.197 26.5019C13.5135 27 13.7947 27.3808 13.8767 27.416C14.0525 27.498 14.24 27.4921 14.3924 27.4042C14.5154 27.3281 16.3435 25.4238 16.4138 25.3007C16.4373 25.2597 16.5252 24.4101 16.6131 23.414C16.701 22.4238 16.8064 21.5097 16.8474 21.3925C16.8885 21.2753 17.24 20.625 17.6326 19.9511L18.3474 18.7207L18.3123 18.1054C18.2713 17.4785 18.1892 17.2089 18.0193 17.1445C17.8435 17.08 17.5271 17.1093 16.5955 17.2617C15.4588 17.455 15.4822 17.4609 13.7947 16.7871C13.1033 16.5117 12.4881 16.289 12.4353 16.2949C12.3826 16.3007 11.4685 16.4414 10.4021 16.6171Z" fill="#3F83BD"/>
<path d="M27.5864 7.8281C27.1236 8.07419 27.1997 8.39646 28.0493 9.75583C28.272 10.1133 28.8052 10.0781 28.9927 9.69138C29.1157 9.42771 29.0454 9.21677 28.6001 8.46091C28.3189 7.98044 28.2075 7.85153 28.0611 7.7988C27.8267 7.71677 27.7798 7.71677 27.5864 7.8281Z" fill="#3F83BD"/>
<path d="M29.0232 11.1914C28.9529 11.2207 28.8474 11.3144 28.7947 11.4023C28.7009 11.543 28.6951 11.5957 28.7712 12.0644C28.8122 12.3398 28.865 13.0019 28.8826 13.5234L28.9177 14.4844L29.0818 14.625C29.3103 14.8184 29.6619 14.8184 29.8552 14.6191C29.9958 14.4844 30.0017 14.4492 30.0017 13.6406C30.0017 12.8086 29.8845 11.7773 29.7615 11.4668C29.6501 11.1973 29.3161 11.0742 29.0232 11.1914Z" fill="#3F83BD"/>
<path d="M28.6289 16.3242C28.5469 16.4121 28.4766 16.5059 28.4766 16.5352C28.4766 16.6816 27.9727 17.8418 27.7148 18.2988C27.498 18.6797 27.4219 18.873 27.4219 19.043C27.4219 19.5527 28.0254 19.752 28.3887 19.3594C28.5762 19.1543 29.2559 17.7656 29.4434 17.209C29.543 16.9043 29.584 16.6875 29.5605 16.5762C29.4727 16.1836 28.9219 16.0313 28.6289 16.3242Z" fill="#3F83BD"/>
<path d="M26.1759 20.4492C26.088 20.4785 25.8771 20.625 25.7072 20.7774C25.3497 21.0996 24.7462 21.5332 24.2306 21.832C24.0255 21.9551 23.8322 22.1133 23.797 22.1895C23.6915 22.4238 23.7208 22.6699 23.8732 22.8223C24.1075 23.0566 24.2775 23.0625 24.6935 22.8574C25.338 22.541 26.6447 21.5508 26.8204 21.2461C26.9845 20.9649 26.838 20.5606 26.5392 20.4551C26.4337 20.4199 26.3517 20.3906 26.3458 20.3965C26.34 20.3965 26.2697 20.4199 26.1759 20.4492Z" fill="#3F83BD"/>
</g>
<defs>
<clipPath id="clip0_637_7821">
<rect width="30" height="30" fill="white"/>
</clipPath>
</defs>
</svg>
