<svg width="18" height="18" viewBox="0 0 18 18" fill="none" xmlns="http://www.w3.org/2000/svg">
<path d="M0.717187 0.576563C0.657422 0.604688 0.597656 0.650391 0.583594 0.685547C0.573047 0.717188 0.5625 0.963281 0.5625 1.23398V1.72266H9.14062H17.7188V1.22695C17.7188 0.95625 17.7047 0.703125 17.6836 0.667969C17.666 0.632812 17.5992 0.587109 17.5395 0.566016C17.4586 0.537891 15.0996 0.527344 9.12656 0.527344C2.23945 0.530859 0.808594 0.537891 0.717187 0.576563Z" fill="#065EA9"/>
<path d="M1.41328 5.01328L1.42383 7.78008L2.07422 7.96641C2.61914 8.12461 2.77031 8.15273 3.01289 8.15625C3.62461 8.15625 4.22227 8.01914 4.79883 7.73438C5.86055 7.22109 6.6832 6.24375 7.57617 4.44727C7.88203 3.83203 8.57812 2.31328 8.57812 2.26406C8.57812 2.25703 6.96445 2.25 4.99219 2.25H1.40625L1.41328 5.01328Z" fill="#065EA9"/>
<path d="M9.42188 2.26411C9.42188 2.3063 10.1074 3.80395 10.3887 4.377C10.9758 5.57231 11.4258 6.25434 12.041 6.87661C12.7336 7.57973 13.4437 7.95591 14.3438 8.10356C14.973 8.20552 15.1383 8.18794 16.077 7.92075L16.9102 7.6852V4.96762V2.25005H13.166C11.1059 2.25005 9.42188 2.25708 9.42188 2.26411Z" fill="#065EA9"/>
<path d="M8.81374 6.77812C8.78561 6.80977 8.6485 7.12969 8.51139 7.48125C8.3778 7.83633 8.26178 8.13516 8.25124 8.14219C8.2442 8.14922 7.9067 8.1668 7.50241 8.18086C6.8028 8.20195 6.76764 8.20547 6.6903 8.28281C6.59186 8.38125 6.58131 8.57461 6.6692 8.67656C6.70436 8.71523 6.94694 8.91562 7.20709 9.12305C7.46725 9.33398 7.7028 9.52031 7.72741 9.54492C7.76256 9.57656 7.73444 9.71016 7.57624 10.2234C7.33366 11.0285 7.32663 11.1445 7.53405 11.2324C7.60436 11.2605 7.67819 11.2676 7.74147 11.2465C7.79772 11.2324 8.09655 11.0531 8.40592 10.8492L8.97194 10.4766L9.29186 10.7016C10.1251 11.2816 10.1321 11.2852 10.2727 11.2852C10.445 11.2852 10.5469 11.1867 10.5469 11.0215C10.5469 10.9547 10.4696 10.6137 10.3712 10.2586C10.2762 9.90703 10.2094 9.6082 10.2235 9.59414C10.2376 9.58359 10.4872 9.39375 10.7755 9.17227C11.0673 8.9543 11.3204 8.75039 11.345 8.71875C11.4188 8.62734 11.4012 8.42344 11.3063 8.33555C11.2325 8.26523 11.1727 8.25469 10.6489 8.22656C10.3325 8.20898 10.002 8.19492 9.91413 8.19141H9.75592L9.53092 7.54102C9.40788 7.18242 9.2778 6.84844 9.23913 6.80273C9.15475 6.69375 8.90163 6.67969 8.81374 6.77812Z" fill="#065EA9"/>
<path d="M16.0567 8.44805L15.3289 8.66602L15.0477 9.0457C14.3164 10.0406 13.8664 10.9723 13.6766 11.9109C13.5887 12.3574 13.5782 13.0957 13.6555 13.5387C13.775 14.2137 14.1617 15.0434 14.6153 15.6023L14.7348 15.75H15.8246H16.911V11.9883C16.911 8.42695 16.9075 8.22656 16.8512 8.23008C16.816 8.23359 16.461 8.33203 16.0567 8.44805Z" fill="#065EA9"/>
<path d="M1.40625 12.0199V15.75H2.33437H3.26602L3.38555 15.5988C3.83555 15.0469 4.22227 14.2137 4.34531 13.5352C4.41914 13.1203 4.40859 12.3293 4.3207 11.9074C4.13086 10.9652 3.67383 10.0125 2.92852 9.01055L2.66133 8.65547L2.07773 8.49023C1.75781 8.39883 1.47305 8.31445 1.45195 8.30742C1.4168 8.29336 1.40625 9.04922 1.40625 12.0199Z" fill="#065EA9"/>
<path d="M0.5625 16.7871C0.5625 17.2512 0.569531 17.3039 0.632812 17.3672C0.703125 17.4375 0.748828 17.4375 9.14062 17.4375C17.5324 17.4375 17.5781 17.4375 17.6484 17.3672C17.7117 17.3039 17.7188 17.2512 17.7188 16.7871V16.2773H9.14062H0.5625V16.7871Z" fill="#065EA9"/>
</svg>
