<svg width="16" height="16" viewBox="0 0 16 16" fill="none" xmlns="http://www.w3.org/2000/svg">
<path fill-rule="evenodd" clip-rule="evenodd" d="M5.3335 1.33337C5.70169 1.33337 6.00016 1.63185 6.00016 2.00004H10.0002C10.0002 1.63185 10.2986 1.33337 10.6668 1.33337C11.035 1.33337 11.3335 1.63185 11.3335 2.00004C13.1744 2.00004 14.6668 3.49242 14.6668 5.33337V11.3334C14.6668 13.1743 13.1744 14.6667 11.3335 14.6667H4.66683C2.82588 14.6667 1.3335 13.1743 1.3335 11.3334V5.33337C1.3335 3.49242 2.82588 2.00004 4.66683 2.00004C4.66683 1.63185 4.96531 1.33337 5.3335 1.33337ZM4.00016 6.66671C4.00016 6.29852 4.29864 6.00004 4.66683 6.00004H11.3335C11.7017 6.00004 12.0002 6.29852 12.0002 6.66671C12.0002 7.0349 11.7017 7.33337 11.3335 7.33337H4.66683C4.29864 7.33337 4.00016 7.0349 4.00016 6.66671ZM10.0002 11.3334C10.0002 10.9652 10.2986 10.6667 10.6668 10.6667H11.3335C11.7017 10.6667 12.0002 10.9652 12.0002 11.3334C12.0002 11.7016 11.7017 12 11.3335 12H10.6668C10.2986 12 10.0002 11.7016 10.0002 11.3334Z" fill="white"/>
</svg>
