<svg width="40" height="40" viewBox="0 0 40 40" fill="none" xmlns="http://www.w3.org/2000/svg">
<path d="M33.3281 4.17969L29.7422 4.34375L29.5625 4.5625C29.2031 4.97656 29.2812 5.16406 30.1953 6.09375C30.9688 6.875 31.0078 6.9375 30.8828 7.04688C30.7578 7.15625 16.3125 17.8672 15.4531 18.4922L15.0938 18.7578L11.6797 14.5547C9.79688 12.2422 8.15625 10.2344 8.02344 10.0938C7.83594 9.89844 7.71875 9.84375 7.48438 9.84375C7.26562 9.84375 7.11719 9.90625 6.89844 10.0938C5.17969 11.5781 1.96094 14.4688 1.92188 14.5703C1.89844 14.6406 1.875 15.9062 1.875 17.3828C1.875 20.0703 1.875 20.0703 2.05469 20.2734C2.25781 20.5156 2.72656 20.5625 2.95312 20.3672C3.02344 20.3047 4.04688 19.4062 5.22656 18.3672L7.36719 16.4766L7.54688 16.6562C7.64062 16.7578 9.24219 18.7188 11.0938 21.0156C12.9531 23.3125 14.5469 25.2344 14.6328 25.2891C14.7266 25.3438 14.8828 25.3828 14.9766 25.3906C15.0938 25.3906 18.6094 22.7969 24.9375 18.0547L34.7266 10.7109L35.8281 11.8047C36.7891 12.75 36.9609 12.8906 37.1797 12.8906C37.4844 12.8906 37.7031 12.7812 37.8125 12.5781C37.9297 12.3594 38.2969 4.55469 38.2031 4.36719C38.0547 4.10156 37.7969 3.98438 37.3438 3.99219C37.1094 4 35.2969 4.08594 33.3281 4.17969Z" fill="#065EA9"/>
<path d="M32.0312 15.7812C31.875 15.9375 31.875 16.0391 31.875 25.3125C31.875 34.5859 31.875 34.6875 32.0312 34.8438C32.1797 34.9922 32.2891 35 34.6875 35C37.0859 35 37.1953 34.9922 37.3438 34.8438C37.5 34.6875 37.5 34.5859 37.5 25.3125C37.5 16.0391 37.5 15.9375 37.3438 15.7812C37.1953 15.6328 37.0859 15.625 34.6875 15.625C32.2891 15.625 32.1797 15.6328 32.0312 15.7812Z" fill="#065EA9"/>
<path d="M2.65625 22.6562C2.5 22.8125 2.5 22.9141 2.5 28.75C2.5 34.5859 2.5 34.6875 2.65625 34.8438C2.80469 34.9922 2.91406 35 5.3125 35C7.71094 35 7.82031 34.9922 7.96875 34.8438C8.125 34.6875 8.125 34.5859 8.125 28.75C8.125 22.9141 8.125 22.8125 7.96875 22.6562C7.82031 22.5078 7.71094 22.5 5.3125 22.5C2.91406 22.5 2.80469 22.5078 2.65625 22.6562Z" fill="#065EA9"/>
<path d="M22.6562 22.6562C22.5 22.8125 22.5 22.9141 22.5 28.75C22.5 34.5859 22.5 34.6875 22.6562 34.8438C22.8047 34.9922 22.9141 35 25.3125 35C27.7109 35 27.8203 34.9922 27.9688 34.8438C28.125 34.6875 28.125 34.5859 28.125 28.75C28.125 22.9141 28.125 22.8125 27.9688 22.6562C27.8203 22.5078 27.7109 22.5 25.3125 22.5C22.9141 22.5 22.8047 22.5078 22.6562 22.6562Z" fill="#065EA9"/>
<path d="M12.6562 27.6562C12.5078 27.8047 12.5 27.9141 12.5 31.25C12.5 34.5859 12.5078 34.6953 12.6562 34.8438C12.8047 34.9922 12.9141 35 15.3125 35C17.7109 35 17.8203 34.9922 17.9688 34.8438C18.1172 34.6953 18.125 34.5859 18.125 31.25C18.125 27.9141 18.1172 27.8047 17.9688 27.6562C17.8203 27.5078 17.7109 27.5 15.3125 27.5C12.9141 27.5 12.8047 27.5078 12.6562 27.6562Z" fill="#065EA9"/>
</svg>
