<svg width="90" height="90" viewBox="0 0 90 90" fill="none" xmlns="http://www.w3.org/2000/svg">
<g opacity="0.05">
<path d="M74.9883 9.4043L66.9199 9.77344L66.5156 10.2656C65.707 11.1973 65.8828 11.6191 67.9395 13.7109C69.6797 15.4688 69.7676 15.6094 69.4863 15.8555C69.2051 16.1016 36.7031 40.2012 34.7695 41.6074L33.9609 42.2051L26.2793 32.748C22.043 27.5449 18.3516 23.0273 18.0527 22.7109C17.6309 22.2715 17.3672 22.1484 16.8398 22.1484C16.3477 22.1484 16.0137 22.2891 15.5215 22.7109C11.6543 26.0508 4.41211 32.5547 4.32422 32.7832C4.27148 32.9414 4.21875 35.7891 4.21875 39.1113C4.21875 45.1582 4.21875 45.1582 4.62305 45.6152C5.08008 46.1602 6.13477 46.2656 6.64453 45.8262C6.80273 45.6855 9.10547 43.6641 11.7598 41.3262L16.5762 37.0723L16.9805 37.4766C17.1914 37.7051 20.7949 42.1172 24.9609 47.2852C29.1445 52.4531 32.7305 56.7773 32.9238 56.9004C33.1348 57.0234 33.4863 57.1113 33.6973 57.1289C33.9609 57.1289 41.8711 51.293 56.1094 40.623L78.1348 24.0996L80.6133 26.5605C82.7754 28.6875 83.1621 29.0039 83.6543 29.0039C84.3398 29.0039 84.832 28.7578 85.0781 28.3008C85.3418 27.8086 86.168 10.248 85.957 9.82617C85.623 9.22852 85.043 8.96484 84.0234 8.98242C83.4961 9 79.418 9.19336 74.9883 9.4043Z" fill="#065EA9"/>
<path d="M72.0703 35.5078C71.7188 35.8594 71.7188 36.0879 71.7188 56.9531C71.7188 77.8184 71.7188 78.0469 72.0703 78.3984C72.4043 78.7324 72.6504 78.75 78.0469 78.75C83.4434 78.75 83.6895 78.7324 84.0234 78.3984C84.375 78.0469 84.375 77.8184 84.375 56.9531C84.375 36.0879 84.375 35.8594 84.0234 35.5078C83.6895 35.1738 83.4434 35.1562 78.0469 35.1562C72.6504 35.1562 72.4043 35.1738 72.0703 35.5078Z" fill="#065EA9"/>
<path d="M5.97656 50.9766C5.625 51.3281 5.625 51.5566 5.625 64.6875C5.625 77.8184 5.625 78.0469 5.97656 78.3984C6.31055 78.7324 6.55664 78.75 11.9531 78.75C17.3496 78.75 17.5957 78.7324 17.9297 78.3984C18.2812 78.0469 18.2812 77.8184 18.2812 64.6875C18.2812 51.5566 18.2812 51.3281 17.9297 50.9766C17.5957 50.6426 17.3496 50.625 11.9531 50.625C6.55664 50.625 6.31055 50.6426 5.97656 50.9766Z" fill="#065EA9"/>
<path d="M50.9766 50.9766C50.625 51.3281 50.625 51.5566 50.625 64.6875C50.625 77.8184 50.625 78.0469 50.9766 78.3984C51.3105 78.7324 51.5566 78.75 56.9531 78.75C62.3496 78.75 62.5957 78.7324 62.9297 78.3984C63.2812 78.0469 63.2812 77.8184 63.2812 64.6875C63.2812 51.5566 63.2812 51.3281 62.9297 50.9766C62.5957 50.6426 62.3496 50.625 56.9531 50.625C51.5566 50.625 51.3105 50.6426 50.9766 50.9766Z" fill="#065EA9"/>
<path d="M28.4766 62.2266C28.1426 62.5605 28.125 62.8066 28.125 70.3125C28.125 77.8184 28.1426 78.0645 28.4766 78.3984C28.8105 78.7324 29.0566 78.75 34.4531 78.75C39.8496 78.75 40.0957 78.7324 40.4297 78.3984C40.7637 78.0645 40.7812 77.8184 40.7812 70.3125C40.7812 62.8066 40.7637 62.5605 40.4297 62.2266C40.0957 61.8926 39.8496 61.875 34.4531 61.875C29.0566 61.875 28.8105 61.8926 28.4766 62.2266Z" fill="#065EA9"/>
</g>
</svg>
