<svg width="91" height="90" viewBox="0 0 91 90" fill="none" xmlns="http://www.w3.org/2000/svg">
<g opacity="0.05" clip-path="url(#clip0_2154_41651)">
<path d="M5.59766 0.755859C3.57617 1.23047 1.99414 2.47852 1.08008 4.35938L0.587891 5.36133L0.535156 46.3359L0.5 87.3105L0.904297 88.084C1.13281 88.5059 1.66016 89.0859 2.06445 89.3848L2.82031 89.9121L9.6582 89.9648L16.4961 90.0176V79.9453C16.4961 69.0996 16.5312 68.625 17.4277 67.1133C17.9727 66.1816 19.2031 65.0215 20.1348 64.5469C21.4707 63.8613 22.4727 63.7734 28.2734 63.8438L33.8105 63.8965L34.9883 64.459C36.4297 65.1445 37.5371 66.2168 38.2227 67.6055L38.7324 68.6426L38.7852 79.3125L38.8379 90H46.9062H54.9922V51.5039C54.9922 23.7129 54.9395 12.7617 54.7988 12.0938C54.5176 10.8105 54.043 9.93164 53.041 8.85938C51.3887 7.11914 52.4609 7.36523 31.6133 4.21875C29.7324 3.9375 23.791 3.04102 18.4297 2.21484C7.14453 0.492188 6.88086 0.457031 5.59766 0.755859ZM22.2969 16.3828C22.877 16.6816 23.1934 16.998 23.4922 17.5781C24.1777 18.8965 23.8086 20.1445 22.4727 21.041C21.9277 21.4277 21.7344 21.4453 18.377 21.4453C15.1426 21.4453 14.8262 21.4102 14.2109 21.0762C12.5938 20.1621 12.3477 18.0352 13.7188 16.752C14.4043 16.1016 14.8965 16.0137 18.2539 16.0137C21.2949 15.9961 21.5762 16.0137 22.2969 16.3828ZM40.8066 16.2422C41.8262 16.6816 42.3887 17.4551 42.4766 18.5449C42.5469 19.3711 42.4941 19.6172 42.1074 20.1973C41.3516 21.3398 40.9121 21.4453 37.0273 21.4453C33.2129 21.4453 32.7734 21.3398 32 20.1973C31.6484 19.7051 31.5957 19.4238 31.6484 18.5801C31.7188 17.7715 31.8242 17.4727 32.2461 17.0332C33.125 16.084 33.5117 16.0137 37.0273 15.9961C39.3828 15.9961 40.3848 16.0664 40.8066 16.2422ZM22.2969 27.6328C22.877 27.9316 23.1934 28.248 23.4922 28.8281C24.1777 30.1465 23.8086 31.3945 22.4727 32.291C21.9277 32.6777 21.7344 32.6953 18.377 32.6953C15.1426 32.6953 14.8262 32.6602 14.2109 32.3262C12.5938 31.4121 12.3477 29.2852 13.7188 28.002C14.4043 27.3516 14.8965 27.2637 18.2539 27.2637C21.2949 27.2461 21.5762 27.2637 22.2969 27.6328ZM40.8066 27.4922C41.8262 27.9316 42.3887 28.7051 42.4766 29.7949C42.5469 30.6211 42.4941 30.8672 42.1074 31.4473C41.3516 32.5898 40.9121 32.6953 37.0273 32.6953C33.2129 32.6953 32.7734 32.5898 32 31.4473C31.6484 30.9551 31.5957 30.6738 31.6484 29.8301C31.7188 29.0215 31.8242 28.7227 32.2461 28.2832C33.125 27.334 33.5117 27.2637 37.0273 27.2461C39.3828 27.2461 40.3848 27.3164 40.8066 27.4922ZM22.2969 38.8828C22.877 39.1816 23.1934 39.498 23.4922 40.0781C24.1777 41.3965 23.8086 42.6445 22.4727 43.541C21.9277 43.9277 21.7344 43.9453 18.377 43.9453C15.1426 43.9453 14.8262 43.9102 14.2109 43.5762C12.5938 42.6621 12.3477 40.5352 13.7188 39.252C14.4043 38.6016 14.8965 38.5137 18.2539 38.5137C21.2949 38.4961 21.5762 38.5137 22.2969 38.8828ZM40.8066 38.7422C41.8262 39.1816 42.3887 39.9551 42.4766 41.0449C42.5469 41.8711 42.4941 42.1172 42.1074 42.6973C41.3516 43.8398 40.9121 43.9453 37.0273 43.9453C33.2129 43.9453 32.7734 43.8398 32 42.6973C31.6484 42.2051 31.5957 41.9238 31.6484 41.0801C31.7188 40.2715 31.8242 39.9727 32.2461 39.5332C33.125 38.584 33.5117 38.5137 37.0273 38.4961C39.3828 38.4961 40.3848 38.5664 40.8066 38.7422ZM22.2969 50.1328C22.877 50.4316 23.1934 50.748 23.4922 51.3281C24.1777 52.6465 23.8086 53.8945 22.4727 54.791C21.9277 55.1777 21.7344 55.1953 18.377 55.1953C15.1426 55.1953 14.8262 55.1602 14.2109 54.8262C12.5938 53.9121 12.3477 51.7852 13.7188 50.502C14.4043 49.8516 14.8965 49.7637 18.2539 49.7637C21.2949 49.7461 21.5762 49.7637 22.2969 50.1328ZM40.8066 49.9922C41.8262 50.4316 42.3887 51.2051 42.4766 52.2949C42.5469 53.1211 42.4941 53.3672 42.1074 53.9473C41.3516 55.0898 40.9121 55.1953 37.0273 55.1953C33.2129 55.1953 32.7734 55.0898 32 53.9473C31.6484 53.4551 31.5957 53.1738 31.6484 52.3301C31.7188 51.5215 31.8242 51.2227 32.2461 50.7832C33.125 49.834 33.5117 49.7637 37.0273 49.7461C39.3828 49.7461 40.3848 49.8164 40.8066 49.9922Z" fill="#065EA9"/>
<path d="M58.5078 62.4727V90L72.1836 89.9648L85.8418 89.9121L86.8086 89.4375C88.0566 88.8223 89.3223 87.5566 89.9375 86.3086L90.4121 85.3418V65.2148V45.0879L89.9199 44.1562C89.252 42.8906 88.25 41.8359 87.1602 41.2383C86.334 40.7988 78.9336 39.1641 59 35.0508L58.5078 34.9453V62.4727ZM77.668 51.082C79.5488 52.1895 79.5488 54.6855 77.668 55.793C77.1055 56.127 76.7715 56.1621 73.625 56.1621C70.4785 56.1621 70.1445 56.127 69.582 55.793C67.3672 54.5098 67.8418 51.416 70.3379 50.7832C70.6367 50.7129 72.2891 50.6602 73.9766 50.6777C76.7188 50.7129 77.123 50.748 77.668 51.082ZM77.668 62.332C79.5488 63.4395 79.5488 65.9355 77.668 67.043C77.1055 67.377 76.7715 67.4121 73.625 67.4121C70.4785 67.4121 70.1445 67.377 69.582 67.043C67.3672 65.7598 67.8418 62.666 70.3379 62.0332C70.6367 61.9629 72.2891 61.9102 73.9766 61.9277C76.7188 61.9629 77.123 61.998 77.668 62.332ZM77.668 73.582C79.5488 74.6895 79.5488 77.1855 77.668 78.293C77.1055 78.627 76.7715 78.6621 73.625 78.6621C70.4785 78.6621 70.1445 78.627 69.582 78.293C67.3672 77.0098 67.8418 73.916 70.3379 73.2832C70.6367 73.2129 72.2891 73.1602 73.9766 73.1777C76.7188 73.2129 77.123 73.248 77.668 73.582Z" fill="#065EA9"/>
</g>
<defs>
<clipPath id="clip0_2154_41651">
<rect width="90" height="90" fill="white" transform="translate(0.5)"/>
</clipPath>
</defs>
</svg>
