<svg width="40" height="40" viewBox="0 0 40 40" fill="none" xmlns="http://www.w3.org/2000/svg">
<g clip-path="url(#clip0_2154_41655)">
<path d="M2.26562 0.335938C1.36719 0.546875 0.664062 1.10156 0.257812 1.9375L0.0390625 2.38281L0.015625 20.5938L0 38.8047L0.179688 39.1484C0.28125 39.3359 0.515625 39.5938 0.695312 39.7266L1.03125 39.9609L4.07031 39.9844L7.10938 40.0078V35.5312C7.10938 30.7109 7.125 30.5 7.52344 29.8281C7.76562 29.4141 8.3125 28.8984 8.72656 28.6875C9.32031 28.3828 9.76562 28.3438 12.3438 28.375L14.8047 28.3984L15.3281 28.6484C15.9688 28.9531 16.4609 29.4297 16.7656 30.0469L16.9922 30.5078L17.0156 35.25L17.0391 40H20.625H24.2188V22.8906C24.2188 10.5391 24.1953 5.67188 24.1328 5.375C24.0078 4.80469 23.7969 4.41406 23.3516 3.9375C22.6172 3.16406 23.0938 3.27344 13.8281 1.875C12.9922 1.75 10.3516 1.35156 7.96875 0.984375C2.95312 0.21875 2.83594 0.203125 2.26562 0.335938ZM9.6875 7.28125C9.94531 7.41406 10.0859 7.55469 10.2188 7.8125C10.5234 8.39844 10.3594 8.95312 9.76562 9.35156C9.52344 9.52344 9.4375 9.53125 7.94531 9.53125C6.50781 9.53125 6.36719 9.51562 6.09375 9.36719C5.375 8.96094 5.26562 8.01562 5.875 7.44531C6.17969 7.15625 6.39844 7.11719 7.89062 7.11719C9.24219 7.10938 9.36719 7.11719 9.6875 7.28125ZM17.9141 7.21875C18.3672 7.41406 18.6172 7.75781 18.6562 8.24219C18.6875 8.60938 18.6641 8.71875 18.4922 8.97656C18.1562 9.48438 17.9609 9.53125 16.2344 9.53125C14.5391 9.53125 14.3438 9.48438 14 8.97656C13.8438 8.75781 13.8203 8.63281 13.8438 8.25781C13.875 7.89844 13.9219 7.76562 14.1094 7.57031C14.5 7.14844 14.6719 7.11719 16.2344 7.10938C17.2812 7.10938 17.7266 7.14062 17.9141 7.21875ZM9.6875 12.2812C9.94531 12.4141 10.0859 12.5547 10.2188 12.8125C10.5234 13.3984 10.3594 13.9531 9.76562 14.3516C9.52344 14.5234 9.4375 14.5312 7.94531 14.5312C6.50781 14.5312 6.36719 14.5156 6.09375 14.3672C5.375 13.9609 5.26562 13.0156 5.875 12.4453C6.17969 12.1562 6.39844 12.1172 7.89062 12.1172C9.24219 12.1094 9.36719 12.1172 9.6875 12.2812ZM17.9141 12.2188C18.3672 12.4141 18.6172 12.7578 18.6562 13.2422C18.6875 13.6094 18.6641 13.7188 18.4922 13.9766C18.1562 14.4844 17.9609 14.5312 16.2344 14.5312C14.5391 14.5312 14.3438 14.4844 14 13.9766C13.8438 13.7578 13.8203 13.6328 13.8438 13.2578C13.875 12.8984 13.9219 12.7656 14.1094 12.5703C14.5 12.1484 14.6719 12.1172 16.2344 12.1094C17.2812 12.1094 17.7266 12.1406 17.9141 12.2188ZM9.6875 17.2812C9.94531 17.4141 10.0859 17.5547 10.2188 17.8125C10.5234 18.3984 10.3594 18.9531 9.76562 19.3516C9.52344 19.5234 9.4375 19.5312 7.94531 19.5312C6.50781 19.5312 6.36719 19.5156 6.09375 19.3672C5.375 18.9609 5.26562 18.0156 5.875 17.4453C6.17969 17.1562 6.39844 17.1172 7.89062 17.1172C9.24219 17.1094 9.36719 17.1172 9.6875 17.2812ZM17.9141 17.2188C18.3672 17.4141 18.6172 17.7578 18.6562 18.2422C18.6875 18.6094 18.6641 18.7188 18.4922 18.9766C18.1562 19.4844 17.9609 19.5312 16.2344 19.5312C14.5391 19.5312 14.3438 19.4844 14 18.9766C13.8438 18.7578 13.8203 18.6328 13.8438 18.2578C13.875 17.8984 13.9219 17.7656 14.1094 17.5703C14.5 17.1484 14.6719 17.1172 16.2344 17.1094C17.2812 17.1094 17.7266 17.1406 17.9141 17.2188ZM9.6875 22.2812C9.94531 22.4141 10.0859 22.5547 10.2188 22.8125C10.5234 23.3984 10.3594 23.9531 9.76562 24.3516C9.52344 24.5234 9.4375 24.5312 7.94531 24.5312C6.50781 24.5312 6.36719 24.5156 6.09375 24.3672C5.375 23.9609 5.26562 23.0156 5.875 22.4453C6.17969 22.1562 6.39844 22.1172 7.89062 22.1172C9.24219 22.1094 9.36719 22.1172 9.6875 22.2812ZM17.9141 22.2188C18.3672 22.4141 18.6172 22.7578 18.6562 23.2422C18.6875 23.6094 18.6641 23.7188 18.4922 23.9766C18.1562 24.4844 17.9609 24.5312 16.2344 24.5312C14.5391 24.5312 14.3438 24.4844 14 23.9766C13.8438 23.7578 13.8203 23.6328 13.8438 23.2578C13.875 22.8984 13.9219 22.7656 14.1094 22.5703C14.5 22.1484 14.6719 22.1172 16.2344 22.1094C17.2812 22.1094 17.7266 22.1406 17.9141 22.2188Z" fill="#065EA9"/>
<path d="M25.7812 27.7656V40L31.8594 39.9844L37.9297 39.9609L38.3594 39.75C38.9141 39.4766 39.4766 38.9141 39.75 38.3594L39.9609 37.9297V28.9844V20.0391L39.7422 19.625C39.4453 19.0625 39 18.5938 38.5156 18.3281C38.1484 18.1328 34.8594 17.4062 26 15.5781L25.7812 15.5312V27.7656ZM34.2969 22.7031C35.1328 23.1953 35.1328 24.3047 34.2969 24.7969C34.0469 24.9453 33.8984 24.9609 32.5 24.9609C31.1016 24.9609 30.9531 24.9453 30.7031 24.7969C29.7188 24.2266 29.9297 22.8516 31.0391 22.5703C31.1719 22.5391 31.9062 22.5156 32.6562 22.5234C33.875 22.5391 34.0547 22.5547 34.2969 22.7031ZM34.2969 27.7031C35.1328 28.1953 35.1328 29.3047 34.2969 29.7969C34.0469 29.9453 33.8984 29.9609 32.5 29.9609C31.1016 29.9609 30.9531 29.9453 30.7031 29.7969C29.7188 29.2266 29.9297 27.8516 31.0391 27.5703C31.1719 27.5391 31.9062 27.5156 32.6562 27.5234C33.875 27.5391 34.0547 27.5547 34.2969 27.7031ZM34.2969 32.7031C35.1328 33.1953 35.1328 34.3047 34.2969 34.7969C34.0469 34.9453 33.8984 34.9609 32.5 34.9609C31.1016 34.9609 30.9531 34.9453 30.7031 34.7969C29.7188 34.2266 29.9297 32.8516 31.0391 32.5703C31.1719 32.5391 31.9062 32.5156 32.6562 32.5234C33.875 32.5391 34.0547 32.5547 34.2969 32.7031Z" fill="#065EA9"/>
</g>
<defs>
<clipPath id="clip0_2154_41655">
<rect width="40" height="40" fill="white"/>
</clipPath>
</defs>
</svg>
