<svg width="60" height="60" viewBox="0 0 60 60" fill="none" xmlns="http://www.w3.org/2000/svg">
<path d="M16.6876 0.1875C16.5001 0.28125 13.8985 2.80078 10.9337 5.77734C6.30476 10.418 5.5196 11.25 5.44929 11.6133C5.34382 12.1875 5.62507 12.8203 6.11726 13.125C6.49226 13.3477 6.69147 13.3594 11.543 13.3594H16.5821L17.168 13.0781C17.8008 12.7852 18.3399 12.2461 18.5977 11.6367C18.7149 11.332 18.7501 10.1602 18.7501 6.09375C18.7501 0.363281 18.7735 0.492188 17.9649 0.164062C17.4844 -0.046875 17.1446 -0.0351562 16.6876 0.1875Z" fill="#085DA6"/>
<path d="M20.6133 4.96875C20.6602 10.5117 20.5781 11.5078 20.0625 12.5273C19.6055 13.4414 18.7852 14.2383 17.8477 14.6836L17.0508 15.0586L11.2266 15.0938L5.39062 15.1289V32.7422C5.39062 48.1055 5.41406 50.4258 5.56641 50.9414C5.80078 51.7383 6.59766 52.6172 7.40625 52.9805L8.02734 53.2617H26.543H45.0586L45.7266 52.9336C46.4766 52.5586 47.0273 51.9961 47.3906 51.2227L47.6367 50.6836V26.6016V2.51953L47.3906 1.99219C47.0508 1.26562 46.6055 0.761719 45.9492 0.375L45.4102 0.0585938L32.9883 0.0234375L20.5664 0L20.6133 4.96875ZM39.4922 22.6523C40.3359 23.2148 40.5117 24.0586 39.9375 24.7852C39.4102 25.4531 39.9141 25.4297 27.1758 25.4297C16.5938 25.4297 15.4102 25.4062 15.0469 25.2422C13.8984 24.6914 13.8281 23.2734 14.918 22.6172C15.2812 22.3945 15.6094 22.3828 27.1992 22.3828H39.1055L39.4922 22.6523ZM38.9531 30.9023C39.5156 30.9961 40.1602 31.6055 40.2539 32.1562C40.3594 32.6836 40.0547 33.3281 39.5508 33.6328C39.1758 33.8672 39 33.8672 27.2461 33.8672C13.8516 33.8672 14.7539 33.9258 14.2969 33C14.1328 32.6484 14.0859 32.3906 14.1328 32.1211C14.2383 31.6406 14.8828 30.9727 15.3164 30.9023C15.8555 30.8203 38.4609 30.8203 38.9531 30.9023ZM27.9609 39.1289C28.3125 39.3398 28.7109 39.9961 28.7109 40.3594C28.7109 40.7695 28.3594 41.3672 27.9844 41.6016C27.6094 41.8242 27.4102 41.8359 21.3867 41.8359C15.7031 41.8359 15.1406 41.8242 14.8828 41.6367C14.1328 41.1211 13.9453 40.5117 14.2969 39.7969C14.7422 38.8711 14.4023 38.918 21.3867 38.9062C27.2578 38.9062 27.6211 38.918 27.9609 39.1289Z" fill="#065EA9"/>
<path d="M49.4531 28.3125C49.4531 41.4961 49.4062 50.25 49.3359 50.6602C49.0312 52.5352 47.7188 54.082 45.8555 54.7734L45.1758 55.0195L28.7227 55.0547L12.2695 55.0898L12.3281 56.2852C12.4102 58.0664 12.8555 58.9102 14.0625 59.625L14.5898 59.9414L33.3164 59.9766L52.043 60L52.6289 59.7539C53.4023 59.4141 54.1992 58.5234 54.4336 57.7383C54.5859 57.2227 54.6094 54.2344 54.6094 33.3984C54.6094 6.77344 54.6797 8.94141 53.7305 7.875C52.9922 7.05469 52.3242 6.79688 50.7305 6.71484L49.4531 6.64453V28.3125Z" fill="#4B5157"/>
</svg>
