<svg width="60" height="60" viewBox="0 0 60 60" fill="none" xmlns="http://www.w3.org/2000/svg">
<g clip-path="url(#clip0_191_994)">
<path d="M0.773438 0.222656C0.597656 0.339844 0.339844 0.597656 0.222656 0.773438C0.0117188 1.10156 0 1.76953 0 23.5195V45.9258L6.42188 45.9609C13.5938 45.9961 13.3008 45.9609 13.8516 46.8398L14.1211 47.2852L14.1562 53.6484L14.1914 60H29.5078C44.3203 60 44.8359 59.9883 45.1641 59.7773C45.3398 59.6602 45.5977 59.4023 45.7148 59.2266C45.9258 58.8984 45.9375 58.1016 45.9375 30C45.9375 1.89844 45.9258 1.10156 45.7148 0.773438C45.5977 0.597656 45.3398 0.339844 45.1641 0.222656C44.8359 0.0117188 44.1797 0 22.9688 0C1.75781 0 1.10156 0.0117188 0.773438 0.222656ZM29.0625 7.44141C29.4258 7.65234 29.6719 8.07422 31.1016 10.9102L32.7422 14.1562L33.375 14.2266C34.1953 14.3203 34.6055 14.543 34.9453 15.082C35.2148 15.5273 35.2148 15.5391 35.2148 19.4531C35.2148 23.168 35.2031 23.4023 34.9805 23.7656C34.582 24.4219 34.1016 24.6328 32.8711 24.7031L31.793 24.7617L31.7344 25.8398C31.6875 26.6133 31.6172 27.0234 31.4531 27.293C30.7969 28.4062 29.2031 28.4062 28.5469 27.293C28.3828 27.0234 28.3125 26.6016 28.2656 25.8164L28.207 24.7266H22.9688H17.7305L17.6719 25.8164C17.625 26.6016 17.5547 27.0234 17.3906 27.293C16.7344 28.4062 15.1406 28.4062 14.4844 27.293C14.3203 27.0234 14.25 26.6133 14.2031 25.8398L14.1445 24.7617L13.0664 24.7031C11.8359 24.6328 11.3555 24.4219 10.957 23.7656C10.7344 23.4023 10.7227 23.168 10.7227 19.4531C10.7227 15.9609 10.7461 15.4922 10.9219 15.1523C11.2031 14.6484 11.7891 14.3203 12.5508 14.2266L13.1953 14.1562L14.8008 10.9453C16.4531 7.64062 16.582 7.45312 17.3789 7.25391C17.5781 7.20703 20.2031 7.17188 23.2031 7.18359C28.418 7.20703 28.6758 7.21875 29.0625 7.44141ZM37.9336 35.6484C38.4375 35.9297 38.7891 36.5391 38.7891 37.1484C38.7891 37.7578 38.5078 38.2617 37.9688 38.5898L37.5586 38.8477H23.0273C8.70703 38.8477 8.49609 38.8477 8.10938 38.6133C7.58203 38.2969 7.26562 37.7578 7.26562 37.1602C7.26562 36.3047 7.75781 35.707 8.61328 35.4961C8.80078 35.4492 15.3984 35.4258 23.2617 35.4258C36.5625 35.4492 37.582 35.4609 37.9336 35.6484ZM37.9336 42.6797C39.0586 43.3008 39.0703 44.9648 37.9453 45.6445C37.5703 45.8789 37.3477 45.8789 28.3008 45.8789C19.2539 45.8789 19.0312 45.8789 18.6562 45.6445C18.1289 45.3281 17.8125 44.7891 17.8125 44.1914C17.8125 43.3359 18.293 42.7383 19.1602 42.5273C19.3477 42.4805 23.5664 42.4453 28.5352 42.457C36.8438 42.4805 37.5938 42.4922 37.9336 42.6797ZM37.9336 49.7109C39.0586 50.332 39.0703 51.9961 37.9453 52.6758C37.5703 52.9102 37.3477 52.9102 28.3008 52.9102C19.2539 52.9102 19.0312 52.9102 18.6562 52.6758C18.1289 52.3594 17.8125 51.8203 17.8125 51.2227C17.8125 50.3672 18.293 49.7695 19.1602 49.5586C19.3477 49.5117 23.5664 49.4766 28.5352 49.4883C36.8438 49.5117 37.5938 49.5234 37.9336 49.7109Z" fill="#075DA6"/>
<path d="M17.8359 12.3633C17.3789 13.3008 16.9922 14.0859 16.9922 14.1211C16.9922 14.1562 19.6875 14.1797 22.9688 14.1797C26.2617 14.1797 28.9453 14.1562 28.9453 14.1211C28.9453 14.0859 28.5586 13.3008 28.1016 12.3633L27.2461 10.6641H22.9688H18.6914L17.8359 12.3633Z" fill="#075DA6"/>
<path d="M14.1797 19.4531V21.2109H22.9688H31.7578V19.4531V17.6953H22.9688H14.1797V19.4531Z" fill="#075DA6"/>
<path d="M50.2266 10.8867C49.4766 11.3906 49.4531 11.4727 49.4531 14.7305V17.6953H54.7266H60V14.7305C60 11.4727 59.9766 11.3906 59.2266 10.8867C58.9102 10.6758 58.6055 10.6641 54.7266 10.6641C50.8477 10.6641 50.543 10.6758 50.2266 10.8867Z" fill="#4B5157"/>
<path d="M49.4531 30.0586V38.9062H54.7266H60V30.0586V21.2109H54.7266H49.4531V30.0586Z" fill="#4B5157"/>
<path d="M49.9219 42.5156C49.9219 42.75 53.0859 52.0547 53.2383 52.2773C53.9062 53.2266 55.5469 53.2266 56.2148 52.2773C56.3672 52.0547 59.5312 42.75 59.5312 42.5156C59.5312 42.457 57.375 42.4219 54.7266 42.4219C52.0898 42.4219 49.9219 42.457 49.9219 42.5156Z" fill="#4B5157"/>
<path d="M1.23047 49.7812C1.42969 49.9688 3.62109 52.1367 6.11719 54.6094L10.6641 59.1094V54.2812V49.4531H5.77734H0.878906L1.23047 49.7812Z" fill="#075DA6"/>
</g>
<defs>
<clipPath id="clip0_191_994">
<rect width="60" height="60" fill="white"/>
</clipPath>
</defs>
</svg>
