<svg width="60" height="60" viewBox="0 0 60 60" fill="none" xmlns="http://www.w3.org/2000/svg">
<g clip-path="url(#clip0_191_967)">
<path d="M26.5547 6.08203C26.3789 6.19922 26.1211 6.45703 26.0039 6.63281C25.793 6.96094 25.7812 7.64062 25.7812 30C25.7812 52.3594 25.793 53.0391 26.0039 53.3672C26.1211 53.543 26.3789 53.8008 26.5547 53.918C26.8828 54.1289 27.4219 54.1406 42.8906 54.1406C58.3594 54.1406 58.8984 54.1289 59.2266 53.918C59.4023 53.8008 59.6602 53.543 59.7773 53.3672C59.9883 53.0391 60 52.4766 60 35.4844V17.9414L54.6445 17.9062C49.3594 17.8711 49.2656 17.8711 48.8672 17.6133C48.6445 17.4727 48.3516 17.1797 48.2227 16.9688C48 16.5938 47.9883 16.3359 47.9531 11.2148L47.918 5.85938H37.4062C27.3047 5.85938 26.8828 5.87109 26.5547 6.08203ZM50.6133 20.2148C51.0938 20.4961 51.4453 21.1172 51.4453 21.6797C51.4453 22.2422 51.0938 22.8633 50.6133 23.1445C50.2266 23.3672 50.0039 23.3789 42.8906 23.3789C36.1758 23.3789 35.5312 23.3672 35.1914 23.1797C34.3828 22.7344 34.0898 21.5859 34.582 20.7891C34.8398 20.3555 35.1211 20.168 35.6836 20.0273C35.8828 19.9805 39.2227 19.9453 43.125 19.957C49.9805 19.9805 50.2266 19.9922 50.6133 20.2148ZM53.1797 27.2227C54.3047 27.8438 54.3047 29.5781 53.1797 30.1992C52.8164 30.3984 52.207 30.4102 42.8906 30.4102C33.5742 30.4102 32.9648 30.3984 32.6016 30.1992C32.0742 29.9062 31.7578 29.3555 31.7578 28.7109C31.7578 27.8438 32.2148 27.2812 33.1055 27.0586C33.3047 27.0117 37.8047 26.9766 43.125 26.9883C52.1953 27.0117 52.8164 27.0234 53.1797 27.2227ZM53.1797 34.2539C54.3047 34.875 54.3047 36.6094 53.1797 37.2305C52.8164 37.4297 52.207 37.4414 42.8906 37.4414C33.5742 37.4414 32.9648 37.4297 32.6016 37.2305C32.0742 36.9375 31.7578 36.3867 31.7578 35.7422C31.7578 34.875 32.2148 34.3125 33.1055 34.0898C33.3047 34.043 37.8047 34.0078 43.125 34.0195C52.1953 34.043 52.8164 34.0547 53.1797 34.2539ZM41.8359 43.8867C42.0586 44.0273 42.3398 44.3086 42.4688 44.5195C42.9258 45.3047 42.6328 46.3359 41.8359 46.8164C41.4492 47.0391 41.2383 47.0508 37.207 47.0508C32.5195 47.0508 32.4727 47.0391 31.9922 46.2539C31.5352 45.5156 31.793 44.2969 32.4844 43.9336C33.0234 43.6406 33.5273 43.6055 37.4414 43.6289C41.2148 43.6523 41.4492 43.6641 41.8359 43.8867ZM53.1797 43.8633C54.3047 44.4727 54.3047 46.2305 53.1797 46.8398C52.8516 47.0156 52.5 47.0508 50.8594 47.0508C48.6914 47.0508 48.3516 46.957 47.9297 46.2539C47.4727 45.5156 47.7305 44.2969 48.4219 43.9336C48.9375 43.6523 49.3945 43.6055 51.0938 43.6289C52.4531 43.6523 52.875 43.6992 53.1797 43.8633Z" fill="#075EA8"/>
<path d="M51.4453 10.6055V14.4141H55.2773H59.1211L55.3125 10.6055C53.2148 8.50781 51.4922 6.79688 51.4805 6.79688C51.457 6.79688 51.4453 8.50781 51.4453 10.6055Z" fill="#075EA8"/>
<path d="M14.8242 13.7108C12.5742 14.2967 10.9336 15.492 9.67969 17.4256C9.10547 18.328 7.10157 22.2655 7.1836 22.3475C7.21876 22.3709 7.52344 22.3358 7.86329 22.2655C8.28516 22.1717 10.7695 22.1014 15.3867 22.0663L22.2656 22.0077V17.742V13.4764L18.9609 13.4881C16.1133 13.4881 15.5273 13.5233 14.8242 13.7108Z" fill="#4B5157"/>
<path d="M0.960865 25.7812C0.550709 26.0391 0.117115 26.8125 0.117115 27.3047C0.117115 27.7969 0.550709 28.5703 0.960865 28.8281C1.18352 28.9688 1.55852 29.0625 1.83977 29.0625H2.34368L1.94524 29.5781C1.31243 30.4219 0.855396 31.2773 0.44524 32.4609L0.0585214 33.5742L0.0233652 37.6172C-0.0235098 42.1172 -0.0117911 42.1758 0.761646 42.6562C1.13665 42.8906 1.38274 42.8906 11.707 42.8906H22.2656V39.4453V36.0117L21.1757 35.9531C20.4843 35.918 19.957 35.8242 19.7109 35.6953C18.5859 35.1094 18.5859 33.3281 19.7109 32.7422C19.957 32.6133 20.4843 32.5195 21.1757 32.4844L22.2656 32.4258V28.9922V25.5469H11.8124C1.52336 25.5469 1.33587 25.5469 0.960865 25.7812ZM13.582 32.7539C14.2031 33.1172 14.4609 33.5391 14.4609 34.2188C14.4609 34.8984 14.2031 35.3203 13.582 35.6836C13.2187 35.8945 12.9726 35.918 10.7812 35.918C8.7304 35.918 8.32024 35.8828 8.00383 35.7188C7.19524 35.2734 6.90227 34.125 7.39446 33.3281C7.86321 32.5664 8.27336 32.4727 11.0156 32.4961C12.9491 32.5195 13.2304 32.543 13.582 32.7539Z" fill="#4B5157"/>
<path d="M0 46.4531C0 47.6836 1.125 49.1953 2.40234 49.6758C3.01172 49.9102 3.28125 49.9219 6.67969 49.9219C10.0313 49.9219 10.3477 49.9102 10.9453 49.6875C12.1172 49.2422 13.125 48.0586 13.3125 46.8984L13.3945 46.4062H7.72266C2.56641 46.3945 0.785156 46.3242 0.199219 46.1016C0.0351563 46.043 0 46.1016 0 46.4531Z" fill="#4B5157"/>
</g>
<defs>
<clipPath id="clip0_191_967">
<rect width="60" height="60" fill="white"/>
</clipPath>
</defs>
</svg>
