<svg width="40" height="40" viewBox="0 0 40 40" fill="none" xmlns="http://www.w3.org/2000/svg">
<g clip-path="url(#clip0_2154_41945)">
<path d="M5.20312 0.148438C4.77344 0.4375 4.6875 0.664062 4.6875 1.53906V2.34375H2.71875C0.539062 2.34375 0.484375 2.35938 0.148438 2.85938C0.0078125 3.07812 0 3.5 0 16.8516V30.6172L4.23438 30.6406C8.33594 30.6641 8.48438 30.6719 8.75 30.8203C8.89844 30.9141 9.08594 31.1016 9.17969 31.25C9.32812 31.5156 9.33594 31.6641 9.35938 35.7656L9.38281 40H17.2109C24.75 40 25.0469 39.9922 25.2656 39.8516C25.3828 39.7734 25.5547 39.6016 25.6328 39.4844C25.7734 39.2656 25.7812 38.7578 25.7812 21.1719C25.7812 3.58594 25.7734 3.07812 25.6328 2.85938C25.2969 2.35938 25.2422 2.34375 23.0703 2.34375H21.0938V1.53906C21.0938 0.664062 21.0078 0.4375 20.5781 0.148438C20.2734 -0.0546875 19.5703 -0.0546875 19.2656 0.148438C18.8359 0.4375 18.75 0.664062 18.75 1.53906V2.34375H16.4062H14.0625V1.53906C14.0625 0.664062 13.9766 0.4375 13.5469 0.148438C13.2422 -0.0546875 12.5391 -0.0546875 12.2344 0.148438C11.8047 0.4375 11.7188 0.664062 11.7188 1.53906V2.34375H9.375H7.03125V1.53906C7.03125 0.890625 7 0.703125 6.88281 0.515625C6.64062 0.15625 6.34375 0 5.85938 0C5.57031 0 5.35938 0.046875 5.20312 0.148438ZM7.01562 4.23438C6.99219 6.34375 6.95312 6.5 6.46094 6.79688C5.92969 7.125 5.15625 6.92188 4.86719 6.39062C4.74219 6.16406 4.72656 5.88281 4.70312 4.23438L4.67188 2.34375H5.85938H7.04688L7.01562 4.23438ZM14.0469 4.23438C14.0234 6.34375 13.9844 6.5 13.4922 6.79688C12.9609 7.125 12.1875 6.92188 11.8984 6.39062C11.7734 6.16406 11.7578 5.88281 11.7344 4.23438L11.7031 2.34375H12.8906H14.0781L14.0469 4.23438ZM21.0781 4.23438C21.0547 6.34375 21.0156 6.5 20.5234 6.79688C19.9922 7.125 19.2188 6.92188 18.9297 6.39062C18.8047 6.16406 18.7891 5.88281 18.7656 4.23438L18.7344 2.34375H19.9219H21.1094L21.0781 4.23438ZM20.4453 12.0469C20.7812 12.2344 21.0156 12.6406 21.0156 13.0469C21.0156 13.4531 20.8281 13.7891 20.4688 14.0078L20.1953 14.1797H12.8906C5.72656 14.1797 5.57812 14.1797 5.32812 14.0234C4.97656 13.8125 4.76562 13.4531 4.76562 13.0547C4.76562 12.4844 5.09375 12.0859 5.66406 11.9453C5.78906 11.9141 9.11719 11.8984 13.0469 11.8984C19.6562 11.9141 20.2109 11.9219 20.4453 12.0469ZM20.4453 16.7344C20.7812 16.9219 21.0156 17.3281 21.0156 17.7344C21.0156 18.1406 20.8281 18.4766 20.4688 18.6953L20.1953 18.8672H12.8906C5.72656 18.8672 5.57812 18.8672 5.32812 18.7109C4.97656 18.5 4.76562 18.1406 4.76562 17.7422C4.76562 17.1719 5.09375 16.7734 5.66406 16.6328C5.78906 16.6016 9.11719 16.5859 13.0469 16.5859C19.6562 16.6016 20.2109 16.6094 20.4453 16.7344ZM13.4141 21.4219C13.75 21.6094 13.9844 22.0156 13.9844 22.4219C13.9844 22.8281 13.7969 23.1641 13.4375 23.3828C13.1641 23.5547 13.1328 23.5547 9.375 23.5547C5.72656 23.5547 5.57812 23.5469 5.32812 23.3984C4.97656 23.1875 4.76562 22.8281 4.76562 22.4297C4.76562 21.8594 5.08594 21.4609 5.66406 21.3203C5.78906 21.2891 7.53125 21.2656 9.53125 21.2734C12.8125 21.2891 13.1875 21.3047 13.4141 21.4219ZM20.4453 26.1094C21.1953 26.5234 21.2031 27.6328 20.4531 28.0859C20.2109 28.2344 20.0547 28.2422 17.5781 28.2422C15.1016 28.2422 14.9453 28.2344 14.7031 28.0859C14.3516 27.875 14.1406 27.5156 14.1406 27.1172C14.1406 26.5469 14.4609 26.1484 15.0391 26.0078C15.1641 25.9766 16.3828 25.9531 17.7344 25.9609C19.8984 25.9766 20.2266 25.9922 20.4453 26.1094ZM20.4453 30.7969C21.1953 31.2109 21.2031 32.3203 20.4531 32.7734C20.2109 32.9219 20.0547 32.9297 17.5781 32.9297C15.1016 32.9297 14.9453 32.9219 14.7031 32.7734C14.3516 32.5625 14.1406 32.2031 14.1406 31.8047C14.1406 31.2344 14.4609 30.8359 15.0391 30.6953C15.1641 30.6641 16.3828 30.6406 17.7344 30.6484C19.8984 30.6641 20.2266 30.6797 20.4453 30.7969Z" fill="#065EA9"/>
<path d="M33.4606 0.15625C33.1403 0.351562 33.0309 0.570312 32.3591 2.38281C30.4919 7.4375 29.07 12.6094 28.5075 16.4453C28.2653 18.0938 28.2106 20.7891 28.3903 22.0312C28.7106 24.1875 29.3825 25.9219 30.5231 27.5234C31.0387 28.2344 32.0466 29.2891 32.6012 29.6797L32.9684 29.9453V34.6016C32.9684 39.0312 32.9762 39.2656 33.1169 39.4844C33.3591 39.8438 33.6559 40 34.1403 40C34.6247 40 34.9216 39.8438 35.1637 39.4844C35.3044 39.2656 35.3122 39.0312 35.3122 34.6016V29.9531L35.57 29.7656C36.7966 28.8672 37.9294 27.4922 38.6872 25.9766C39.6247 24.1172 39.9997 22.3516 39.9997 19.8516C39.9997 17.7734 39.6481 14.9609 39.3356 14.4766C39.1637 14.2188 38.7575 13.9844 38.4762 13.9844H38.2497L38.5309 13.6875C38.9059 13.2969 38.9841 13.125 38.9841 12.6797C38.9841 11.7422 37.2419 5.95312 35.7731 2.01562C35.2106 0.5 35.1325 0.34375 34.82 0.15625C34.4841 -0.0546875 33.7966 -0.0546875 33.4606 0.15625ZM34.7887 18.9531C34.8981 19.0312 35.0544 19.2031 35.1325 19.3359C35.2653 19.5547 35.2731 19.8828 35.2966 24.7031L35.32 29.8359L34.9059 30.0703C34.2653 30.4375 34.1169 30.4453 33.5231 30.1406L33.0075 29.8828V24.8047C33.0075 22.0078 33.0309 19.6328 33.0622 19.5234C33.1247 19.2969 33.4684 18.9219 33.7106 18.8203C33.9528 18.7109 34.5622 18.7891 34.7887 18.9531Z" fill="#065EA9"/>
<path d="M3.78906 36.1719C5.54688 37.9375 7 39.375 7.00781 39.375C7.02344 39.375 7.03125 37.9375 7.03125 36.1719V32.9688H3.8125H0.585938L3.78906 36.1719Z" fill="#065EA9"/>
</g>
<defs>
<clipPath id="clip0_2154_41945">
<rect width="40" height="40" fill="white"/>
</clipPath>
</defs>
</svg>
