<svg width="90" height="90" viewBox="0 0 90 90" fill="none" xmlns="http://www.w3.org/2000/svg">
<g opacity="0.05" clip-path="url(#clip0_2154_41950)">
<path d="M11.707 0.333984C10.7402 0.984375 10.5469 1.49414 10.5469 3.46289V5.27344H6.11719C1.21289 5.27344 1.08984 5.30859 0.333984 6.43359C0.0175781 6.92578 0 7.875 0 37.916V68.8887L9.52734 68.9414C18.7559 68.9941 19.0898 69.0117 19.6875 69.3457C20.0215 69.5566 20.4434 69.9785 20.6543 70.3125C20.9883 70.9102 21.0059 71.2441 21.0586 80.4727L21.1113 90H38.7246C55.6875 90 56.3555 89.9824 56.8477 89.666C57.1113 89.4902 57.498 89.1035 57.6738 88.8398C57.9902 88.3477 58.0078 87.2051 58.0078 47.6367C58.0078 8.06836 57.9902 6.92578 57.6738 6.43359C56.918 5.30859 56.7949 5.27344 51.9082 5.27344H47.4609V3.46289C47.4609 1.49414 47.2676 0.984375 46.3008 0.333984C45.6152 -0.123047 44.0332 -0.123047 43.3477 0.333984C42.3809 0.984375 42.1875 1.49414 42.1875 3.46289V5.27344H36.9141H31.6406V3.46289C31.6406 1.49414 31.4473 0.984375 30.4805 0.333984C29.7949 -0.123047 28.2129 -0.123047 27.5273 0.333984C26.5605 0.984375 26.3672 1.49414 26.3672 3.46289V5.27344H21.0938H15.8203V3.46289C15.8203 2.00391 15.75 1.58203 15.4863 1.16016C14.9414 0.351562 14.2734 0 13.1836 0C12.5332 0 12.0586 0.105469 11.707 0.333984ZM15.7852 9.52734C15.7324 14.2734 15.6445 14.625 14.5371 15.293C13.3418 16.0312 11.6016 15.5742 10.9512 14.3789C10.6699 13.8691 10.6348 13.2363 10.582 9.52734L10.5117 5.27344H13.1836H15.8555L15.7852 9.52734ZM31.6055 9.52734C31.5527 14.2734 31.4648 14.625 30.3574 15.293C29.1621 16.0312 27.4219 15.5742 26.7715 14.3789C26.4902 13.8691 26.4551 13.2363 26.4023 9.52734L26.332 5.27344H29.0039H31.6758L31.6055 9.52734ZM47.4258 9.52734C47.373 14.2734 47.2852 14.625 46.1777 15.293C44.9824 16.0312 43.2422 15.5742 42.5918 14.3789C42.3105 13.8691 42.2754 13.2363 42.2227 9.52734L42.1523 5.27344H44.8242H47.4961L47.4258 9.52734ZM46.002 27.1055C46.7578 27.5273 47.2852 28.4414 47.2852 29.3555C47.2852 30.2695 46.8633 31.0254 46.0547 31.5176L45.4395 31.9043H29.0039C12.8848 31.9043 12.5508 31.9043 11.9883 31.5527C11.1973 31.0781 10.7227 30.2695 10.7227 29.373C10.7227 28.0898 11.4609 27.1934 12.7441 26.877C13.0254 26.8066 20.5137 26.7715 29.3555 26.7715C44.2266 26.8066 45.4746 26.8242 46.002 27.1055ZM46.002 37.6523C46.7578 38.0742 47.2852 38.9883 47.2852 39.9023C47.2852 40.8164 46.8633 41.5723 46.0547 42.0645L45.4395 42.4512H29.0039C12.8848 42.4512 12.5508 42.4512 11.9883 42.0996C11.1973 41.625 10.7227 40.8164 10.7227 39.9199C10.7227 38.6367 11.4609 37.7402 12.7441 37.4238C13.0254 37.3535 20.5137 37.3184 29.3555 37.3184C44.2266 37.3535 45.4746 37.3711 46.002 37.6523ZM30.1816 48.1992C30.9375 48.6211 31.4648 49.5352 31.4648 50.4492C31.4648 51.3633 31.043 52.1191 30.2344 52.6113C29.6191 52.998 29.5488 52.998 21.0938 52.998C12.8848 52.998 12.5508 52.9805 11.9883 52.6465C11.1973 52.1719 10.7227 51.3633 10.7227 50.4668C10.7227 49.1836 11.4434 48.2871 12.7441 47.9707C13.0254 47.9004 16.9453 47.8477 21.4453 47.8652C28.8281 47.9004 29.6719 47.9355 30.1816 48.1992ZM46.002 58.7461C47.6895 59.6777 47.707 62.1738 46.0195 63.1934C45.4746 63.5273 45.123 63.5449 39.5508 63.5449C33.9785 63.5449 33.627 63.5273 33.082 63.1934C32.291 62.7188 31.8164 61.9102 31.8164 61.0137C31.8164 59.7305 32.5371 58.834 33.8379 58.5176C34.1191 58.4473 36.8613 58.3945 39.9023 58.4121C44.7715 58.4473 45.5098 58.4824 46.002 58.7461ZM46.002 69.293C47.6895 70.2246 47.707 72.7207 46.0195 73.7402C45.4746 74.0742 45.123 74.0918 39.5508 74.0918C33.9785 74.0918 33.627 74.0742 33.082 73.7402C32.291 73.2656 31.8164 72.457 31.8164 71.5605C31.8164 70.2773 32.5371 69.3809 33.8379 69.0645C34.1191 68.9941 36.8613 68.9414 39.9023 68.959C44.7715 68.9941 45.5098 69.0293 46.002 69.293Z" fill="#065EA9"/>
<path d="M75.2876 0.351562C74.5669 0.791016 74.3208 1.2832 72.8091 5.36133C68.6079 16.7344 65.4087 28.3711 64.1431 37.002C63.5982 40.7109 63.4751 46.7754 63.8794 49.5703C64.6001 54.4219 66.1118 58.3242 68.6782 61.9277C69.8384 63.5273 72.106 65.9004 73.354 66.7793L74.1802 67.377V77.8535C74.1802 87.8203 74.1978 88.3477 74.5142 88.8398C75.0591 89.6484 75.7271 90 76.8169 90C77.9068 90 78.5747 89.6484 79.1196 88.8398C79.436 88.3477 79.4536 87.8203 79.4536 77.8535V67.3945L80.0337 66.9727C82.7935 64.9512 85.3423 61.8574 87.0474 58.4473C89.1567 54.2637 90.0005 50.291 90.0005 44.666C90.0005 39.9902 89.2095 33.6621 88.5064 32.5723C88.1196 31.9922 87.2056 31.4648 86.5728 31.4648H86.063L86.6958 30.7969C87.5396 29.918 87.7153 29.5312 87.7153 28.5293C87.7153 26.4199 83.7954 13.3945 80.4907 4.53516C79.2251 1.125 79.0493 0.773438 78.3462 0.351562C77.5903 -0.123047 76.0435 -0.123047 75.2876 0.351562ZM78.2759 42.6445C78.522 42.8203 78.8735 43.207 79.0493 43.5059C79.3482 43.998 79.3657 44.7363 79.4185 55.582L79.4712 67.1309L78.5396 67.6582C77.0982 68.4844 76.7642 68.502 75.4282 67.8164L74.2681 67.2363V55.8105C74.2681 49.5176 74.3208 44.1738 74.3911 43.9277C74.5318 43.418 75.3052 42.5742 75.8501 42.3457C76.395 42.0996 77.7661 42.2754 78.2759 42.6445Z" fill="#065EA9"/>
<path d="M8.52539 81.3867C12.4805 85.3594 15.75 88.5938 15.7676 88.5938C15.8027 88.5938 15.8203 85.3594 15.8203 81.3867V74.1797H8.57812H1.31836L8.52539 81.3867Z" fill="#065EA9"/>
</g>
<defs>
<clipPath id="clip0_2154_41950">
<rect width="90" height="90" fill="white"/>
</clipPath>
</defs>
</svg>
