<svg width="40" height="40" viewBox="0 0 40 40" fill="none" xmlns="http://www.w3.org/2000/svg">
<path d="M13.0625 3.90625C12.9219 3.99219 12.7422 4.17188 12.6562 4.3125C12.5078 4.55469 12.5 4.71094 12.5 6.5625C12.5 8.41406 12.5078 8.57031 12.6562 8.8125C12.8906 9.1875 13.2422 9.375 13.75 9.375C14.2578 9.375 14.6094 9.1875 14.8438 8.8125C14.9922 8.57031 15 8.41406 15 6.5625C15 4.71094 14.9922 4.55469 14.8438 4.3125C14.6094 3.9375 14.2578 3.75 13.75 3.75C13.4609 3.75 13.2344 3.79688 13.0625 3.90625Z" fill="#065EA9"/>
<path d="M25.5625 3.90625C25.4219 3.99219 25.2422 4.17188 25.1562 4.3125C25.0078 4.55469 25 4.71094 25 6.5625C25 8.41406 25.0078 8.57031 25.1562 8.8125C25.3906 9.1875 25.7422 9.375 26.25 9.375C26.7578 9.375 27.1094 9.1875 27.3438 8.8125C27.4922 8.57031 27.5 8.41406 27.5 6.5625C27.5 4.71094 27.4922 4.55469 27.3438 4.3125C27.1094 3.9375 26.7578 3.75 26.25 3.75C25.9609 3.75 25.7344 3.79688 25.5625 3.90625Z" fill="#065EA9"/>
<path d="M7.90625 6.40625C5.99219 6.91406 4.39844 8.51562 3.90625 10.4375C3.78125 10.9219 3.75 11.3047 3.75 12.3984V13.75H20H36.25V12.3984C36.25 11.3047 36.2188 10.9219 36.0938 10.4375C35.6016 8.5 34 6.89844 32.0625 6.40625C31.5781 6.28125 31.1953 6.25 30.1016 6.25H28.75V7.08594C28.75 8.64844 28.5 9.4375 27.8516 9.96094C27.2656 10.4375 27.0625 10.5078 26.25 10.5078C25.5781 10.5078 25.4688 10.4844 25.0938 10.2812C24.0859 9.71875 23.75 8.92969 23.75 7.08594V6.25H20H16.25V7.08594C16.25 8.64844 16 9.4375 15.3516 9.96094C14.7656 10.4375 14.5625 10.5078 13.75 10.5078C13.0781 10.5078 12.9688 10.4844 12.5938 10.2812C11.5859 9.71875 11.25 8.92969 11.25 7.08594V6.25L9.86719 6.25781C8.75781 6.25781 8.35938 6.28906 7.90625 6.40625Z" fill="#065EA9"/>
<path d="M3.75 21.9766C3.75 28.6641 3.75781 28.9844 3.90625 29.5625C4.39844 31.5 6 33.1016 7.9375 33.5938C8.52344 33.7422 8.85938 33.75 20 33.75C31.1406 33.75 31.4766 33.7422 32.0625 33.5938C34 33.1016 35.6016 31.5 36.0938 29.5625C36.2422 28.9844 36.25 28.6641 36.25 21.9766V15H20H3.75V21.9766ZM20.6016 18.9844C20.9688 19.2031 21.0625 19.3906 21.5234 20.7969L21.9453 22.0703L23.4688 22.1094C24.8516 22.1484 25.0078 22.1641 25.2031 22.3125C25.6016 22.6016 25.7422 22.8672 25.7422 23.3047C25.7422 23.875 25.5703 24.0781 24.2969 25C23.6953 25.4375 23.2031 25.8281 23.2031 25.875C23.2031 25.9297 23.375 26.4922 23.5859 27.1406C24.1328 28.8125 24.1406 29.0078 23.6562 29.4922C23.2344 29.9062 22.875 29.9922 22.3984 29.7812C22.2188 29.6953 21.6016 29.2891 21.0391 28.875L20 28.1172L18.9688 28.875C17.7344 29.7734 17.3828 29.9531 16.9844 29.875C16.6016 29.8047 16.1172 29.3594 16.0156 28.9844C15.9375 28.6797 16.0781 28.0938 16.6016 26.5703C16.7109 26.25 16.7969 25.9453 16.7969 25.8906C16.7969 25.8359 16.3047 25.4297 15.7031 24.9922C14.4141 24.0547 14.2578 23.875 14.2578 23.3047C14.2578 22.8672 14.3984 22.6016 14.7969 22.3125C14.9922 22.1641 15.1484 22.1484 16.5391 22.1094L18.0625 22.0703L18.4766 20.8047C18.7031 20.1016 18.9453 19.4453 19.0156 19.3359C19.2188 19.0234 19.6016 18.8281 20 18.8281C20.2109 18.8281 20.4531 18.8906 20.6016 18.9844Z" fill="#065EA9"/>
</svg>
