<svg width="91" height="90" viewBox="0 0 91 90" fill="none" xmlns="http://www.w3.org/2000/svg">
<g opacity="0.05">
<path d="M29.8906 8.78906C29.5742 8.98242 29.1699 9.38672 28.9766 9.70312C28.6426 10.248 28.625 10.5996 28.625 14.7656C28.625 18.9316 28.6426 19.2832 28.9766 19.8281C29.5039 20.6719 30.2949 21.0938 31.4375 21.0938C32.5801 21.0938 33.3711 20.6719 33.8984 19.8281C34.2324 19.2832 34.25 18.9316 34.25 14.7656C34.25 10.5996 34.2324 10.248 33.8984 9.70312C33.3711 8.85938 32.5801 8.4375 31.4375 8.4375C30.7871 8.4375 30.2773 8.54297 29.8906 8.78906Z" fill="#065EA9"/>
<path d="M58.0156 8.78906C57.6992 8.98242 57.2949 9.38672 57.1016 9.70312C56.7676 10.248 56.75 10.5996 56.75 14.7656C56.75 18.9316 56.7676 19.2832 57.1016 19.8281C57.6289 20.6719 58.4199 21.0938 59.5625 21.0938C60.7051 21.0938 61.4961 20.6719 62.0234 19.8281C62.3574 19.2832 62.375 18.9316 62.375 14.7656C62.375 10.5996 62.3574 10.248 62.0234 9.70312C61.4961 8.85938 60.7051 8.4375 59.5625 8.4375C58.9121 8.4375 58.4023 8.54297 58.0156 8.78906Z" fill="#065EA9"/>
<path d="M18.2891 14.4141C13.9824 15.5566 10.3965 19.1602 9.28906 23.4844C9.00781 24.5742 8.9375 25.4355 8.9375 27.8965V30.9375H45.5H82.0625V27.8965C82.0625 25.4355 81.9922 24.5742 81.7109 23.4844C80.6035 19.125 77 15.5215 72.6406 14.4141C71.5508 14.1328 70.6895 14.0625 68.2285 14.0625H65.1875V15.9434C65.1875 19.459 64.625 21.2344 63.166 22.4121C61.8477 23.4844 61.3906 23.6426 59.5625 23.6426C58.0508 23.6426 57.8047 23.5898 56.9609 23.1328C54.6934 21.8672 53.9375 20.0918 53.9375 15.9434V14.0625H45.5H37.0625V15.9434C37.0625 19.459 36.5 21.2344 35.041 22.4121C33.7227 23.4844 33.2656 23.6426 31.4375 23.6426C29.9258 23.6426 29.6797 23.5898 28.8359 23.1328C26.5684 21.8672 25.8125 20.0918 25.8125 15.9434V14.0625L22.7012 14.0801C20.2051 14.0801 19.3086 14.1504 18.2891 14.4141Z" fill="#065EA9"/>
<path d="M8.9375 49.4473C8.9375 64.4941 8.95508 65.2148 9.28906 66.5156C10.3965 70.875 14 74.4785 18.3594 75.5859C19.6777 75.9199 20.4336 75.9375 45.5 75.9375C70.5664 75.9375 71.3223 75.9199 72.6406 75.5859C77 74.4785 80.6035 70.875 81.7109 66.5156C82.0449 65.2148 82.0625 64.4941 82.0625 49.4473V33.75H45.5H8.9375V49.4473ZM46.8535 42.7148C47.6797 43.207 47.8906 43.6289 48.9277 46.793L49.877 49.6582L53.3047 49.7461C56.416 49.834 56.7676 49.8691 57.207 50.2031C58.1035 50.8535 58.4199 51.4512 58.4199 52.4355C58.4199 53.7188 58.0332 54.1758 55.168 56.25C53.8145 57.2344 52.707 58.1133 52.707 58.2188C52.707 58.3418 53.0938 59.6074 53.5684 61.0664C54.7988 64.8281 54.8164 65.2676 53.7266 66.3574C52.7773 67.2891 51.9688 67.4824 50.8965 67.0078C50.4922 66.8145 49.1035 65.9004 47.8379 64.9688L45.5 63.2637L43.1797 64.9688C40.4023 66.9902 39.6113 67.3945 38.7148 67.2188C37.8535 67.0605 36.7637 66.0586 36.5352 65.2148C36.3594 64.5293 36.6758 63.2109 37.8535 59.7832C38.0996 59.0625 38.293 58.377 38.293 58.2539C38.293 58.1309 37.1855 57.2168 35.832 56.2324C32.9316 54.123 32.5801 53.7188 32.5801 52.4355C32.5801 51.4512 32.8965 50.8535 33.793 50.2031C34.2324 49.8691 34.584 49.834 37.7129 49.7461L41.1406 49.6582L42.0723 46.8105C42.582 45.2285 43.127 43.752 43.2852 43.5059C43.7422 42.8027 44.6035 42.3633 45.5 42.3633C45.9746 42.3633 46.5195 42.5039 46.8535 42.7148Z" fill="#065EA9"/>
</g>
</svg>
