<svg width="90" height="90" viewBox="0 0 90 90" fill="none" xmlns="http://www.w3.org/2000/svg">
<g opacity="0.05">
<path d="M43.3482 28.5119C41.1685 33.7677 41.0103 34.0666 40.4127 34.383C40.0611 34.5587 38.356 34.7697 35.1568 35.0509C32.5377 35.2794 30.358 35.4904 30.3053 35.5431C30.2701 35.5958 31.8521 37.0373 33.8385 38.7599C35.8248 40.465 37.565 42.047 37.7057 42.2404C37.8463 42.4513 37.9693 42.8556 37.9693 43.1193C37.9693 43.4005 37.4947 45.6857 36.8971 48.1994C36.2994 50.713 35.8599 52.7873 35.9127 52.84C35.9654 52.8927 37.899 51.7853 40.2017 50.3791C43.3658 48.4455 44.5611 47.8126 45.0006 47.8126C45.44 47.8126 46.6353 48.4455 49.7994 50.3615C52.1197 51.7677 54.0533 52.8927 54.0885 52.84C54.1412 52.7873 53.7017 50.713 53.1041 48.1994C52.5064 45.6857 52.0318 43.4005 52.0318 43.1193C52.0318 42.8556 52.1549 42.4513 52.2955 42.2404C52.4361 42.047 54.1939 40.465 56.1803 38.7423C59.151 36.1935 59.7486 35.5958 59.485 35.4904C59.2916 35.4201 57.1119 35.1916 54.6334 34.9982C51.5924 34.7521 49.94 34.5587 49.606 34.383C49.0084 34.0841 48.8502 33.7326 46.6705 28.5119C45.8092 26.4728 45.0533 24.7853 45.0006 24.7853C44.9478 24.7853 44.192 26.4728 43.3482 28.5119Z" fill="#065EA9"/>
<path d="M14.5373 37.3008C13.6408 39.5332 10.9865 45.7207 10.7932 46.002C10.2482 46.8633 9.91426 46.9336 4.93965 47.3555C2.32051 47.584 0.123242 47.8125 0.0529297 47.8828C-0.0173828 47.9531 0.000195313 48.0586 0.105664 48.1289C0.211133 48.1992 1.88105 49.623 3.83223 51.3105C5.97676 53.1562 7.45332 54.5801 7.57637 54.8965C7.76973 55.3535 7.66426 55.9863 6.64473 60.3105C6.01191 63 5.55488 65.2148 5.6252 65.2148C5.67793 65.2148 7.6291 64.0723 9.93184 62.666C12.9729 60.8203 14.3088 60.1172 14.6955 60.1172C15.0998 60.1172 16.4357 60.8203 19.4943 62.6836C21.8322 64.0898 23.7834 65.2148 23.8186 65.1797C23.8537 65.1445 23.3791 62.9473 22.7639 60.3105C21.7443 55.9336 21.6564 55.4414 21.8674 54.9492C22.1311 54.3164 22.7287 53.7539 26.6662 50.3789C28.2482 49.0254 29.4963 47.9004 29.4436 47.8477C29.4084 47.8125 27.176 47.584 24.5041 47.3555C21.0412 47.0566 19.5119 46.8633 19.2131 46.6699C18.7033 46.3184 18.5803 46.0898 16.5939 41.3438C15.6623 39.1465 14.8537 37.2832 14.7658 37.2129C14.6955 37.125 14.59 37.1777 14.5373 37.3008Z" fill="#065EA9"/>
<path d="M74.8824 37.8809C74.6715 38.373 73.8981 40.1836 73.1774 41.9238C71.525 45.8613 71.2789 46.3359 70.7692 46.6699C70.4703 46.8633 68.9938 47.0566 65.4957 47.3555C62.8063 47.584 60.5914 47.8125 60.5387 47.8477C60.5035 47.9004 61.9977 49.2363 63.861 50.8359C67.5875 54.0527 68.1149 54.5625 68.2555 55.1602C68.3082 55.3711 67.8512 57.709 67.236 60.3281C66.6207 62.9648 66.1461 65.1445 66.1813 65.1797C66.2164 65.2148 68.1676 64.0898 70.5055 62.6836C73.5641 60.8379 74.9176 60.1172 75.3043 60.1172C75.7086 60.1172 77.027 60.8379 80.068 62.666C82.3883 64.0723 84.3219 65.2148 84.3922 65.2148C84.4449 65.2148 83.9879 63 83.3551 60.3105C82.3356 55.9863 82.2301 55.3535 82.4235 54.8965C82.5465 54.5801 84.0231 53.1562 86.1676 51.3105C88.1188 49.623 89.7887 48.1992 89.8942 48.1289C89.9996 48.0586 90.0172 47.9531 89.9469 47.8828C89.8766 47.8125 87.6969 47.584 85.0953 47.3555C82.4938 47.1445 80.2086 46.8809 80.0328 46.793C79.3824 46.4414 79.066 45.8438 77.361 41.7832C76.3942 39.498 75.5328 37.4766 75.4274 37.3184C75.2867 37.0547 75.1988 37.1426 74.8824 37.8809Z" fill="#065EA9"/>
</g>
</svg>
