<svg width="40" height="40" viewBox="0 0 40 40" fill="none" xmlns="http://www.w3.org/2000/svg">
<path d="M19.2659 12.672C18.2971 15.008 18.2268 15.1408 17.9612 15.2814C17.8049 15.3595 17.0471 15.4533 15.6253 15.5783C14.4612 15.6799 13.4924 15.7736 13.469 15.797C13.4534 15.8205 14.1565 16.4611 15.0393 17.2267C15.9221 17.9845 16.6956 18.6877 16.7581 18.7736C16.8206 18.8674 16.8753 19.047 16.8753 19.1642C16.8753 19.2892 16.6643 20.3049 16.3987 21.422C16.1331 22.5392 15.9378 23.4611 15.9612 23.4845C15.9846 23.508 16.844 23.0158 17.8674 22.3908C19.2737 21.5314 19.8049 21.2502 20.0003 21.2502C20.1956 21.2502 20.7268 21.5314 22.1331 22.383C23.1643 23.008 24.0237 23.508 24.0393 23.4845C24.0628 23.4611 23.8674 22.5392 23.6018 21.422C23.3362 20.3049 23.1253 19.2892 23.1253 19.1642C23.1253 19.047 23.1799 18.8674 23.2424 18.7736C23.3049 18.6877 24.0862 17.9845 24.969 17.2189C26.2893 16.0861 26.5549 15.8205 26.4378 15.7736C26.3518 15.7424 25.3831 15.6408 24.2815 15.5549C22.9299 15.4455 22.1956 15.3595 22.0471 15.2814C21.7815 15.1486 21.7112 14.9924 20.7424 12.672C20.3596 11.7658 20.0237 11.0158 20.0003 11.0158C19.9768 11.0158 19.6409 11.7658 19.2659 12.672Z" fill="#065EA9"/>
<path d="M6.46113 16.5781C6.0627 17.5703 4.88301 20.3203 4.79707 20.4453C4.55488 20.8281 4.40645 20.8594 2.19551 21.0469C1.03145 21.1484 0.0548828 21.25 0.0236328 21.2812C-0.00761719 21.3125 0.000195313 21.3594 0.0470703 21.3906C0.0939453 21.4219 0.836133 22.0547 1.70332 22.8047C2.65645 23.625 3.3127 24.2578 3.36738 24.3984C3.45332 24.6016 3.40645 24.8828 2.95332 26.8047C2.67207 28 2.46895 28.9844 2.5002 28.9844C2.52363 28.9844 3.39082 28.4766 4.41426 27.8516C5.76582 27.0312 6.35957 26.7188 6.53145 26.7188C6.71113 26.7188 7.30488 27.0312 8.66426 27.8594C9.70332 28.4844 10.5705 28.9844 10.5861 28.9688C10.6018 28.9531 10.3908 27.9766 10.1174 26.8047C9.66426 24.8594 9.6252 24.6406 9.71895 24.4219C9.83613 24.1406 10.1018 23.8906 11.8518 22.3906C12.5549 21.7891 13.1096 21.2891 13.0861 21.2656C13.0705 21.25 12.0783 21.1484 10.8908 21.0469C9.35176 20.9141 8.67207 20.8281 8.53926 20.7422C8.3127 20.5859 8.25801 20.4844 7.3752 18.375C6.96113 17.3984 6.60176 16.5703 6.5627 16.5391C6.53145 16.5 6.48457 16.5234 6.46113 16.5781Z" fill="#065EA9"/>
<path d="M33.2815 16.8359C33.1878 17.0547 32.844 17.8594 32.5237 18.6328C31.7893 20.3828 31.68 20.5938 31.4534 20.7422C31.3206 20.8281 30.6643 20.9141 29.1096 21.0469C27.9143 21.1484 26.93 21.25 26.9065 21.2656C26.8909 21.2891 27.555 21.8828 28.3831 22.5938C30.0393 24.0234 30.2737 24.25 30.3362 24.5156C30.3596 24.6094 30.1565 25.6484 29.8831 26.8125C29.6096 27.9844 29.3987 28.9531 29.4143 28.9688C29.43 28.9844 30.2971 28.4844 31.3362 27.8594C32.6956 27.0391 33.2971 26.7188 33.469 26.7188C33.6487 26.7188 34.2346 27.0391 35.5862 27.8516C36.6175 28.4766 37.4768 28.9844 37.5081 28.9844C37.5315 28.9844 37.3284 28 37.0471 26.8047C36.594 24.8828 36.5471 24.6016 36.6331 24.3984C36.6878 24.2578 37.344 23.625 38.2971 22.8047C39.1643 22.0547 39.9065 21.4219 39.9534 21.3906C40.0003 21.3594 40.0081 21.3125 39.9768 21.2812C39.9456 21.25 38.9768 21.1484 37.8206 21.0469C36.6643 20.9531 35.6487 20.8359 35.5706 20.7969C35.2815 20.6406 35.1409 20.375 34.3831 18.5703C33.9534 17.5547 33.5706 16.6562 33.5237 16.5859C33.4612 16.4688 33.4221 16.5078 33.2815 16.8359Z" fill="#065EA9"/>
</svg>
