<svg width="40" height="40" viewBox="0 0 40 40" fill="none" xmlns="http://www.w3.org/2000/svg">
<path d="M33.1721 1.14062C33.1409 1.76562 33.1253 2.28906 33.1409 2.30469C33.1565 2.3125 33.3831 2.34375 33.6565 2.36719L34.1409 2.40625V1.96875C34.1409 1.71875 34.1643 1.17969 34.1956 0.757812L34.2425 0H33.7346H33.2268L33.1721 1.14062Z" fill="#065EA9"/>
<path d="M2.91406 2.20312C2.94531 2.94531 2.96875 4.1875 2.96875 4.95312V6.35156L9.19531 6.30469C12.6172 6.27344 15.4297 6.23437 15.4453 6.22656C15.4531 6.21094 15.4453 5 15.4141 3.53125L15.3672 0.859375H9.11719H2.86719L2.91406 2.20312Z" fill="#065EA9"/>
<path d="M29.7891 1.39054C29.5625 1.49991 29.375 1.62491 29.375 1.67179C29.375 1.73429 30.3594 3.65616 30.4375 3.7421C30.4766 3.78116 31.25 3.4296 31.2969 3.34366C31.3359 3.28116 30.4766 1.53898 30.2969 1.31241C30.2031 1.19523 30.1641 1.20304 29.7891 1.39054Z" fill="#065EA9"/>
<path d="M36.5622 2.23437C36.2576 2.82031 36.0154 3.30469 36.031 3.32031C36.0779 3.35937 36.8669 3.75 36.9138 3.75C36.9607 3.75 37.9685 1.75 37.9685 1.65625C37.9685 1.625 37.781 1.5 37.5466 1.39062L37.1169 1.17969L36.5622 2.23437Z" fill="#065EA9"/>
<path d="M22.9531 3.71094C21.9219 4.09375 21.3281 4.96875 21.3281 6.125C21.3281 7.125 21.8984 7.98438 22.8438 8.39844C23.0703 8.5 23.2969 8.63281 23.3594 8.70313C23.5078 8.89063 23.4922 9.28125 23.3125 9.44531C23.2344 9.52344 21.7734 10.1641 20.0703 10.8594L16.9688 12.1328L17.1875 12.5703C17.3047 12.8125 17.8359 13.9766 18.3594 15.1563C18.8828 16.3359 19.3359 17.3281 19.3672 17.3672C19.3984 17.3984 19.5391 17.25 19.6797 17.0313C19.9922 16.5547 20.3672 16.2344 20.9766 15.9375C22.3047 15.2891 23.7656 15.5547 24.7969 16.6328C25.5938 17.4766 25.8984 18.4766 25.6797 19.5469C25.5156 20.3516 25.2109 20.9531 24.7266 21.4453C24.0625 22.1094 23.2109 22.4219 22.0547 22.4219C21.8281 22.4219 21.6406 22.4375 21.6406 22.4531C21.6406 22.5547 23.8359 27.3828 23.8828 27.3828C24.0547 27.3828 33.4297 23.4063 33.6094 23.2578L33.8203 23.0859L33.4922 21.1094C33.1953 19.2578 33.1797 19.1016 33.2656 18.5859C33.4766 17.3359 34.2188 16.5703 35.2266 16.5469C35.6562 16.5313 36.1172 16.7344 36.3203 17.0234C36.3984 17.1328 36.7734 18.1953 37.1562 19.375C37.5312 20.5547 37.8516 21.5391 37.8594 21.5469C37.8672 21.5625 38.0469 21.4922 38.25 21.3906C38.7109 21.1641 38.9297 20.7969 38.8828 20.3516C38.8594 20.125 32.9062 5.6875 32.7891 5.57813C32.7812 5.5625 31.4766 6.10156 29.8906 6.76563C28.3047 7.42969 26.9141 7.96875 26.7969 7.96875C26.6797 7.96875 26.5 7.89844 26.3984 7.82031C26.2188 7.67188 26.2109 7.63281 26.2109 6.50781C26.2109 5.39844 26.2031 5.33594 25.9922 4.90625C25.5859 4.07813 24.75 3.58594 23.7656 3.60156C23.4766 3.60156 23.1094 3.65625 22.9531 3.71094Z" fill="#065EA9"/>
<path d="M9.14062 7.1875C6.32812 7.21094 4.01562 7.23437 4 7.25C3.99219 7.25781 3.99219 7.83594 4 8.53125L4.02344 9.80469L9.21875 9.77344C12.0781 9.75781 14.4453 9.71875 14.4766 9.6875C14.5781 9.60156 14.4453 7.20312 14.3438 7.17187C14.2969 7.15625 11.9531 7.16406 9.14062 7.1875Z" fill="#065EA9"/>
<path d="M6.51562 10.6797L4.39062 10.7031L4.07812 11.2344C3.80469 11.6797 3.66406 12.125 3.08594 14.2812L2.40625 16.7969L3.39844 19.9062C3.94531 21.6094 4.4375 23.0859 4.5 23.1797C4.58594 23.3125 4.6875 23.3594 4.90625 23.3594C5.54688 23.3594 5.99219 22.7891 6.07031 21.8828C6.10156 21.5234 5.6875 18.625 5.42969 17.3438C5.39062 17.1719 5.4375 17.125 5.78906 16.9609C6.17188 16.7891 6.86719 16.1719 7.22656 15.6875C7.34375 15.5312 8.28125 15.0859 11.0156 13.8672C13.0156 12.9766 14.6719 12.2266 14.7031 12.1953C14.7812 12.1172 14.4688 11.3984 14.1797 10.9922L13.9062 10.625L11.2656 10.6406C9.82031 10.6562 7.67969 10.6719 6.51562 10.6797Z" fill="#065EA9"/>
<path d="M13.3984 13.6797C12.0703 14.2812 10.2734 15.0859 9.41406 15.4765C7.96094 16.125 7.82812 16.2031 7.57812 16.539C7.33594 16.8593 6.82031 17.3203 6.45312 17.539C6.33594 17.6093 6.35156 17.7812 6.64844 19.6093C6.95312 21.4687 6.96875 21.6406 6.88281 22.1406C6.76562 22.8515 6.39062 23.539 5.98438 23.8203C5.39844 24.2187 4.83594 24.3203 4.35156 24.1093C3.8125 23.8828 3.72656 23.6953 2.92188 21.1718C2.50781 19.8593 2.15625 18.7734 2.14062 18.7578C2.125 18.7422 1.95312 18.8125 1.75781 18.9062C1.32812 19.1172 1.09375 19.4531 1.09375 19.8593C1.09375 20.0781 1.9375 22.0468 4.35156 27.4375C6.14062 31.4453 7.625 34.7578 7.65625 34.789C7.70312 34.8437 12.75 32.6484 12.9141 32.5C12.9453 32.4687 12.7109 32.1875 12.3828 31.8672C11.4531 30.9609 11.1094 30.0859 11.2656 28.9687C11.5 27.2343 13.0312 26 14.8047 26.1093C15.9688 26.1875 17.0625 26.9687 17.6016 28.1015C17.8359 28.5937 17.8516 28.6875 17.8516 29.4687V30.2968L18.0859 30.1953C18.2188 30.1406 19.2891 29.6718 20.4688 29.1406C22.6016 28.1953 22.9688 27.9765 22.9688 27.6484C22.9688 27.5547 22.4375 26.3047 21.7891 24.8593C21.0469 23.2187 20.6016 22.125 20.6016 21.9609C20.5938 21.7656 20.6484 21.6484 20.8125 21.5078C21.0234 21.3281 21.0703 21.3203 21.7109 21.3672C22.9141 21.4609 23.7422 21.2031 24.2969 20.5781C24.6875 20.1328 24.8438 19.7265 24.8438 19.125C24.8438 18.0859 24.3672 17.3047 23.4531 16.8593C23 16.6328 22.8594 16.6015 22.3438 16.6093C21.3281 16.6172 20.5312 17.1406 20.0703 18.0937C19.8281 18.6093 19.6719 18.75 19.3516 18.75C19.0703 18.75 18.8672 18.4765 18.5156 17.6172C17.7812 15.8515 16.375 12.7656 16.2656 12.6718C16.1953 12.625 16.0703 12.5781 15.9844 12.5859C15.8906 12.5859 14.7344 13.0781 13.3984 13.6797Z" fill="#065EA9"/>
<path d="M34.7966 17.4922C34.3904 17.6797 34.117 18.1875 34.0779 18.875C34.0545 19.25 34.4998 22.4531 34.7185 23.4531C34.742 23.5469 34.6248 23.6484 34.3045 23.7969C33.7107 24.0859 33.1482 24.6797 32.7341 25.4297C32.5466 25.7734 32.3904 26.0625 32.3748 26.0781C32.367 26.0938 32.1951 26.0234 31.9998 25.9219L31.6326 25.7344L31.8357 25.3594C31.9451 25.1484 32.0232 24.9688 32.0076 24.9453C31.9685 24.9063 25.3904 27.6406 25.281 27.7344C25.1873 27.8203 25.4216 28.8203 25.6326 29.2344C25.7263 29.4219 25.9216 29.7188 26.0701 29.8984L26.3357 30.2344H30.9763H35.617L35.9841 29.6484C36.3201 29.1016 36.406 28.8594 37.0388 26.5L37.7263 23.9453L37.4138 22.9297C36.2888 19.3281 35.6795 17.5313 35.5701 17.4375C35.3904 17.3047 35.1716 17.3203 34.7966 17.4922Z" fill="#065EA9"/>
<path d="M30.375 31.0703L25.625 31.0938V31.5859C25.625 31.8516 25.6484 32.4141 25.6797 32.8281L25.7266 33.5938H27.1406C27.9219 33.5938 30.2656 33.5703 32.3672 33.5391L36.1719 33.4922V32.25V31.0156L35.6484 31.0312C35.3516 31.0469 32.9844 31.0625 30.375 31.0703Z" fill="#065EA9"/>
<path d="M29.2656 34.4297L24.6641 34.4531L24.7109 35.7578C24.7422 36.4688 24.7656 37.6484 24.7656 38.375V39.6875H31.0313H37.2891L37.2422 38.2188C37.2109 37.4141 37.1875 36.2188 37.1875 35.5625V34.375L35.5313 34.3906C34.6172 34.4062 31.7969 34.4219 29.2656 34.4297Z" fill="#065EA9"/>
<path d="M3.57008 37.2734C3.28102 37.8281 3.06227 38.3203 3.08571 38.3672C3.14039 38.4531 3.90602 38.8516 3.94508 38.8125C3.98414 38.7656 4.99977 36.7187 4.99977 36.6797C4.99977 36.6328 4.24977 36.25 4.16383 36.25C4.13258 36.25 3.85914 36.7109 3.57008 37.2734Z" fill="#065EA9"/>
<path d="M10.1169 36.4609C9.90599 36.5703 9.71849 36.6719 9.70286 36.6797C9.68724 36.6875 9.92943 37.1797 10.2341 37.7578L10.7888 38.8203L11.2185 38.6094C11.4529 38.5 11.6404 38.375 11.6404 38.3437C11.6404 38.2266 10.6247 36.25 10.5622 36.25C10.531 36.2578 10.3357 36.3516 10.1169 36.4609Z" fill="#065EA9"/>
<path d="M6.875 38.7891V40H7.33594C7.67969 40 7.80469 39.9688 7.84375 39.875C7.86719 39.8047 7.89062 39.2656 7.89062 38.6641V37.5781H7.38281H6.875V38.7891Z" fill="#065EA9"/>
</svg>
