<svg width="90" height="90" viewBox="0 0 90 90" fill="none" xmlns="http://www.w3.org/2000/svg">
<g opacity="0.05">
<path d="M74.6368 2.56641C74.5665 3.97266 74.5314 5.15039 74.5665 5.18555C74.6017 5.20312 75.1114 5.27344 75.7267 5.32617L76.8165 5.41406V4.42969C76.8165 3.86719 76.8693 2.6543 76.9396 1.70508L77.045 0H75.9025H74.7599L74.6368 2.56641Z" fill="#065EA9"/>
<path d="M6.55664 4.95703C6.62695 6.62695 6.67969 9.42187 6.67969 11.1445V14.291L20.6895 14.1855C28.3887 14.1152 34.7168 14.0273 34.752 14.0098C34.7695 13.9746 34.752 11.25 34.6816 7.94531L34.5762 1.93359H20.5137H6.45117L6.55664 4.95703Z" fill="#065EA9"/>
<path d="M67.0254 3.12895C66.5156 3.37505 66.0938 3.6563 66.0938 3.76177C66.0938 3.90239 68.3086 8.22661 68.4844 8.41997C68.5723 8.50786 70.3125 7.71684 70.418 7.52348C70.5059 7.38286 68.5723 3.46294 68.168 2.95317C67.957 2.6895 67.8691 2.70708 67.0254 3.12895Z" fill="#065EA9"/>
<path d="M82.2653 5.02734C81.5797 6.3457 81.0348 7.43555 81.07 7.4707C81.1754 7.55859 82.9508 8.4375 83.0563 8.4375C83.1618 8.4375 85.4293 3.9375 85.4293 3.72656C85.4293 3.65625 85.0075 3.375 84.4801 3.12891L83.5133 2.6543L82.2653 5.02734Z" fill="#065EA9"/>
<path d="M51.6445 8.34961C49.3242 9.21094 47.9883 11.1797 47.9883 13.7812C47.9883 16.0312 49.2715 17.9648 51.3984 18.8965C51.9082 19.125 52.418 19.4238 52.5586 19.582C52.8926 20.0039 52.8574 20.8828 52.4531 21.252C52.2773 21.4277 48.9902 22.8691 45.1582 24.4336L38.1797 27.2988L38.6719 28.2832C38.9355 28.8281 40.1309 31.4473 41.3086 34.1016C42.4863 36.7559 43.5059 38.9883 43.5762 39.0762C43.6465 39.1465 43.9629 38.8125 44.2793 38.3203C44.9824 37.248 45.8262 36.5273 47.1973 35.8594C50.1855 34.4004 53.4727 34.998 55.793 37.4238C57.5859 39.3223 58.2715 41.5723 57.7793 43.9805C57.4102 45.791 56.7246 47.1445 55.6348 48.252C54.1406 49.7461 52.2246 50.4492 49.623 50.4492C49.1133 50.4492 48.6914 50.4844 48.6914 50.5195C48.6914 50.748 53.6309 61.6113 53.7363 61.6113C54.123 61.6113 75.2168 52.6641 75.6211 52.3301L76.0957 51.9434L75.3574 47.4961C74.6895 43.3301 74.6543 42.9785 74.8477 41.8184C75.3223 39.0059 76.9922 37.2832 79.2598 37.2305C80.2266 37.1953 81.2637 37.6523 81.7207 38.3027C81.8965 38.5488 82.7402 40.9395 83.6016 43.5938C84.4453 46.248 85.166 48.4629 85.1836 48.4805C85.2012 48.5156 85.6055 48.3574 86.0625 48.1289C87.0996 47.6191 87.5918 46.793 87.4863 45.791C87.4336 45.2812 74.0391 12.7969 73.7754 12.5508C73.7578 12.5156 70.8223 13.7285 67.2539 15.2227C63.6855 16.7168 60.5566 17.9297 60.293 17.9297C60.0293 17.9297 59.625 17.7715 59.3965 17.5957C58.9922 17.2617 58.9746 17.1738 58.9746 14.6426C58.9746 12.1465 58.957 12.0059 58.4824 11.0391C57.5684 9.17578 55.6875 8.06836 53.4727 8.10352C52.8223 8.10352 51.9961 8.22656 51.6445 8.34961Z" fill="#065EA9"/>
<path d="M20.5659 16.1719C14.2378 16.2246 9.03467 16.2773 8.99951 16.3125C8.98193 16.3301 8.98193 17.6309 8.99951 19.1953L9.05225 22.0605L20.7417 21.9902C27.1753 21.9551 32.5015 21.8672 32.5718 21.7969C32.8003 21.6035 32.5015 16.207 32.2729 16.1367C32.1675 16.1016 26.894 16.1191 20.5659 16.1719Z" fill="#065EA9"/>
<path d="M14.6602 24.0293L9.87891 24.082L9.17578 25.2773C8.56055 26.2793 8.24414 27.2812 6.94336 32.1328L5.41406 37.793L7.64648 44.7891C8.87695 48.6211 9.98438 51.9434 10.125 52.1543C10.3184 52.4531 10.5469 52.5586 11.0391 52.5586C12.4805 52.5586 13.4824 51.2754 13.6582 49.2363C13.7285 48.4277 12.7969 41.9062 12.2168 39.0234C12.1289 38.6367 12.2344 38.5312 13.0254 38.1621C13.8867 37.7754 15.4512 36.3867 16.2598 35.2969C16.5234 34.9453 18.6328 33.9434 24.7852 31.2012C29.2852 29.1973 33.0117 27.5098 33.082 27.4395C33.2578 27.2637 32.5547 25.6465 31.9043 24.7324L31.2891 23.9062L25.3477 23.9414C22.0957 23.9766 17.2793 24.0117 14.6602 24.0293Z" fill="#065EA9"/>
<path d="M30.1465 30.7792C27.1582 32.1327 23.1152 33.9433 21.1816 34.8222C17.9121 36.2812 17.6133 36.457 17.0508 37.2128C16.5059 37.9335 15.3457 38.9706 14.5195 39.4628C14.2559 39.621 14.291 40.0077 14.959 44.121C15.6445 48.3046 15.6797 48.6913 15.4863 49.8163C15.2227 51.416 14.3789 52.9628 13.4648 53.5956C12.1465 54.4921 10.8809 54.7206 9.79102 54.246C8.57812 53.7363 8.38477 53.3144 6.57422 47.6367C5.64258 44.6835 4.85156 42.2402 4.81641 42.205C4.78125 42.1699 4.39453 42.3281 3.95508 42.539C2.98828 43.0136 2.46094 43.7695 2.46094 44.6835C2.46094 45.1757 4.35938 49.6054 9.79102 61.7343C13.8164 70.7519 17.1562 78.205 17.2266 78.2753C17.332 78.3984 28.6875 73.4589 29.0566 73.1249C29.127 73.0546 28.5996 72.4218 27.8613 71.7011C25.7695 69.662 24.9961 67.6933 25.3477 65.1796C25.875 61.2773 29.3203 58.4999 33.3105 58.746C35.9297 58.9218 38.3906 60.6796 39.6035 63.2285C40.1309 64.3359 40.166 64.5468 40.166 66.3046V68.1679L40.6934 67.9394C40.9922 67.8163 43.4004 66.7617 46.0547 65.5663C50.8535 63.4394 51.6797 62.9472 51.6797 62.2089C51.6797 61.998 50.4844 59.1855 49.0254 55.9335C47.3555 52.2421 46.3535 49.7812 46.3535 49.412C46.3359 48.9726 46.459 48.7089 46.8281 48.3925C47.3027 47.9882 47.4082 47.9706 48.8496 48.0761C51.5566 48.287 53.4199 47.707 54.668 46.3007C55.5469 45.2988 55.8984 44.3847 55.8984 43.0312C55.8984 40.6933 54.8262 38.9355 52.7695 37.9335C51.75 37.4238 51.4336 37.3535 50.2734 37.371C47.9883 37.3886 46.1953 38.5663 45.1582 40.7109C44.6133 41.871 44.2617 42.1874 43.541 42.1874C42.9082 42.1874 42.4512 41.5722 41.6602 39.6386C40.0078 35.666 36.8438 28.7226 36.5977 28.5117C36.4395 28.4062 36.1582 28.3007 35.9648 28.3183C35.7539 28.3183 33.1523 29.4257 30.1465 30.7792Z" fill="#065EA9"/>
<path d="M78.2929 39.3574C77.3789 39.7793 76.7636 40.9219 76.6758 42.4688C76.623 43.3125 77.625 50.5195 78.1172 52.7695C78.1699 52.9805 77.9062 53.209 77.1855 53.543C75.8496 54.1934 74.584 55.5293 73.6523 57.2168C73.2304 57.9902 72.8789 58.6406 72.8437 58.6758C72.8261 58.7109 72.4394 58.5527 72 58.3242L71.1738 57.9023L71.6308 57.0586C71.8769 56.584 72.0527 56.1797 72.0175 56.127C71.9297 56.0391 57.1289 62.1914 56.8828 62.4023C56.6718 62.5957 57.1992 64.8457 57.6738 65.7773C57.8847 66.1992 58.3242 66.8672 58.6582 67.2715L59.2558 68.0273H69.6972H80.1386L80.9648 66.709C81.7207 65.4785 81.914 64.9336 83.3379 59.625L84.8847 53.877L84.1816 51.5918C81.6504 43.4883 80.2793 39.4453 80.0332 39.2344C79.6289 38.9355 79.1367 38.9707 78.2929 39.3574Z" fill="#065EA9"/>
<path d="M68.3438 69.9082L57.6562 69.9609V71.0684C57.6562 71.666 57.709 72.9316 57.7793 73.8633L57.8848 75.5859H61.0664C62.8242 75.5859 68.0977 75.5332 72.8262 75.4629L81.3867 75.3574V72.5625V69.7852L80.209 69.8203C79.541 69.8555 74.2148 69.8906 68.3438 69.9082Z" fill="#065EA9"/>
<path d="M65.8477 77.4668L55.4941 77.5195L55.5996 80.4551C55.6699 82.0547 55.7227 84.709 55.7227 86.3438V89.2969H69.8203H83.9004L83.7949 85.9922C83.7246 84.1816 83.6719 81.4922 83.6719 80.0156V77.3438L79.9453 77.3789C77.8887 77.4141 71.543 77.4492 65.8477 77.4668Z" fill="#065EA9"/>
<path d="M8.03317 83.8653C7.38278 85.1133 6.89059 86.2208 6.94333 86.3262C7.06637 86.5196 8.78903 87.4161 8.87692 87.3282C8.96481 87.2227 11.25 82.6172 11.25 82.5294C11.25 82.4239 9.56247 81.5626 9.36911 81.5626C9.29879 81.5626 8.68356 82.5997 8.03317 83.8653Z" fill="#065EA9"/>
<path d="M22.7633 82.0371C22.2887 82.2832 21.8668 82.5117 21.8317 82.5293C21.7965 82.5469 22.3415 83.6543 23.027 84.9551L24.275 87.3457L25.2418 86.8711C25.7692 86.625 26.1911 86.3437 26.1911 86.2734C26.1911 86.0098 23.9059 81.5625 23.7653 81.5625C23.695 81.5801 23.2555 81.791 22.7633 82.0371Z" fill="#065EA9"/>
<path d="M15.4688 87.2754V90H16.5059C17.2793 90 17.5605 89.9297 17.6484 89.7188C17.7012 89.5605 17.7539 88.3477 17.7539 86.9941V84.5508H16.6113H15.4688V87.2754Z" fill="#065EA9"/>
</g>
</svg>
