<svg width="234" height="264" viewBox="0 0 234 264" fill="none" xmlns="http://www.w3.org/2000/svg">
<path d="M148.005 19.4627C97.9947 32.5524 72.2786 39.8988 69.8233 41.7687C62.9743 46.9779 63.1035 45.3751 63.1035 125.784V200.716L52.7654 200.048C19.0373 198.045 -10.2971 228.632 4.04701 250.671C10.2499 260.155 25.6278 265.23 40.1012 262.559C55.9961 259.62 69.3064 251.205 77.7061 238.65L81.8414 232.506L82.4875 161.18L83.1336 89.8537L147.101 72.7568C182.25 63.2734 211.456 55.5264 212.102 55.5264C212.619 55.5264 213.006 81.8395 213.006 113.896V172.4L202.28 171.999C159.636 170.262 132.11 216.477 166.614 231.571C172.558 234.109 175.272 234.509 185.223 234.109C208.613 233.04 228.643 219.95 232.39 202.987C233.036 200.182 233.682 155.703 233.682 104.279C233.682 17.8598 233.553 10.3799 231.356 6.23929C230.064 3.43433 227.867 1.16366 225.929 0.762948C223.861 0.228671 197.111 6.64 148.005 19.4627Z" fill="#5D6B8A"/>
</svg>
