<svg width="10" height="10" viewBox="0 0 10 10" fill="none" xmlns="http://www.w3.org/2000/svg">
<path fill-rule="evenodd" clip-rule="evenodd" d="M0.5 2.5C0.5 2.22386 0.723858 2 1 2H9C9.27614 2 9.5 2.22386 9.5 2.5C9.5 2.77614 9.27614 3 9 3H1C0.723858 3 0.5 2.77614 0.5 2.5Z" fill="#BD3232"/>
<path fill-rule="evenodd" clip-rule="evenodd" d="M4 4.125C4.20711 4.125 4.375 4.29289 4.375 4.5V7.5C4.375 7.70711 4.20711 7.875 4 7.875C3.79289 7.875 3.625 7.70711 3.625 7.5V4.5C3.625 4.29289 3.79289 4.125 4 4.125Z" fill="#BD3232"/>
<path fill-rule="evenodd" clip-rule="evenodd" d="M6 4.125C6.20711 4.125 6.375 4.29289 6.375 4.5V7.5C6.375 7.70711 6.20711 7.875 6 7.875C5.79289 7.875 5.625 7.70711 5.625 7.5V4.5C5.625 4.29289 5.79289 4.125 6 4.125Z" fill="#BD3232"/>
<path fill-rule="evenodd" clip-rule="evenodd" d="M1.46888 2.12632C1.67527 2.10912 1.85653 2.26249 1.87373 2.46888L2.37373 8.46888C2.37459 8.47924 2.37502 8.48963 2.37502 8.50002C2.37502 8.66578 2.44087 8.82475 2.55808 8.94196C2.67529 9.05917 2.83426 9.12502 3.00002 9.12502H7.00002C7.16578 9.12502 7.32475 9.05917 7.44196 8.94196C7.55917 8.82475 7.62502 8.66578 7.62502 8.50002C7.62502 8.48963 7.62545 8.47924 7.62632 8.46888L8.12632 2.46888C8.14352 2.26249 8.32477 2.10912 8.53116 2.12632C8.73756 2.14352 8.89093 2.32477 8.87373 2.53116L8.37492 8.51685C8.37053 8.87544 8.22619 9.2184 7.97229 9.47229C7.71443 9.73015 7.3647 9.87502 7.00002 9.87502H3.00002C2.63535 9.87502 2.28561 9.73015 2.02775 9.47229C1.77386 9.2184 1.62951 8.87544 1.62512 8.51685L1.12632 2.53116C1.10912 2.32477 1.26249 2.14352 1.46888 2.12632Z" fill="#BD3232"/>
<path fill-rule="evenodd" clip-rule="evenodd" d="M4 0.875C3.96685 0.875 3.93505 0.88817 3.91161 0.911612C3.88817 0.935054 3.875 0.966848 3.875 1V2.5C3.875 2.70711 3.70711 2.875 3.5 2.875C3.29289 2.875 3.125 2.70711 3.125 2.5V1C3.125 0.767935 3.21719 0.545376 3.38128 0.381282C3.54538 0.217187 3.76794 0.125 4 0.125H6C6.23206 0.125 6.45462 0.217187 6.61872 0.381282C6.78281 0.545376 6.875 0.767935 6.875 1V2.5C6.875 2.70711 6.70711 2.875 6.5 2.875C6.29289 2.875 6.125 2.70711 6.125 2.5V1C6.125 0.966848 6.11183 0.935054 6.08839 0.911612C6.06495 0.88817 6.03315 0.875 6 0.875H4Z" fill="#BD3232"/>
</svg>
